<svg width="31" height="22" viewBox="0 0 31 22" fill="none" xmlns="http://www.w3.org/2000/svg">
<path d="M30.14 1.39004C30.16 1.51004 30.16 1.64004 30.14 1.77004L27.02 17.59V17.64C26.73 18.98 25.83 20.05 24.55 20.68C23.37 21.27 21.87 21.51 20.34 21.2C18.83 20.9 17.52 20.13 16.66 19.13H16.64C15.71 18.05 15.26 16.7 15.53 15.32C15.8 13.97 16.72 12.89 18 12.25C19.19 11.66 20.68 11.42 22.21 11.73C23.49 11.98 24.6 12.56 25.43 13.32L26.86 6.06003L14.71 6.50004L12.44 18.05V18.1C12.15 19.44 11.24 20.5 9.98997 21.14C8.79997 21.73 7.29997 21.96 5.76997 21.66C4.25997 21.36 2.94997 20.59 2.07997 19.59C1.14997 18.51 0.699973 17.16 0.959973 15.8C1.22997 14.44 2.14997 13.36 3.42997 12.72C4.60997 12.13 6.11999 11.91 7.62999 12.2C8.90999 12.45 10.02 13.02 10.85 13.78L13.21 1.77004V1.70003L13.23 1.67003L13.25 1.65003V1.63004V1.61004L13.26 1.57004H13.28V1.54003V1.51003V1.49004L13.3 1.48003V1.46004V1.44004L13.33 1.40003H13.35C13.38 1.32003 13.41 1.28004 13.45 1.22004L13.47 1.20003V1.18003H13.48L13.52 1.14004H13.54L13.56 1.13004L13.58 1.09003H13.6V1.08004V1.06003H13.62V1.04003H13.64V1.02004H13.66L13.73 0.960043H13.76L13.78 0.930028H13.8L13.86 0.910039H13.88V0.890035H13.9L13.96 0.870031H13.98H14.02H14.04C14.1 0.830031 14.14 0.820043 14.2 0.820043C14.25 0.820043 14.31 0.810043 14.37 0.820043L28.9 0.290029C29.53 0.260029 30.05 0.740031 30.12 1.37003V1.39004H30.14Z" fill="#00A6DE"/>
</svg>
