<svg width="34" height="32" viewBox="0 0 34 32" fill="none" xmlns="http://www.w3.org/2000/svg">
<path d="M16.0777 30.73L3.10769 17.76C1.74769 16.4 0.767702 14.8 0.307702 13.05C-0.142298 11.39 -0.112305 9.59998 0.487695 7.78998C1.01769 6.20998 1.92769 4.77997 3.10769 3.62997C4.29769 2.46997 5.7477 1.56998 7.3377 1.06998C9.1977 0.479977 11.0377 0.469975 12.7577 0.919975C14.2977 1.31998 15.7377 2.08998 16.9977 3.14998C18.2777 2.08998 19.7077 1.31998 21.2477 0.919975C22.9777 0.469975 24.8077 0.479977 26.6677 1.06998C28.2577 1.56998 29.7177 2.47998 30.8977 3.63998C32.0677 4.79998 32.9977 6.21998 33.5177 7.79998C34.1177 9.59998 34.1377 11.38 33.6877 13.05C33.2177 14.79 32.2477 16.39 30.8877 17.75L30.8177 17.81L17.8977 30.72C17.3877 31.22 16.5677 31.22 16.0577 30.72L16.0777 30.73ZM18.5477 5.25998L16.9777 6.81998L15.9277 5.67998L15.8777 5.62997C14.7577 4.56997 13.4777 3.79998 12.0977 3.43998C10.8377 3.10998 9.48771 3.11998 8.12771 3.54998C6.93771 3.92998 5.83771 4.60997 4.93771 5.48997C4.03771 6.36997 3.3477 7.43998 2.9577 8.61998C2.5277 9.90998 2.50769 11.19 2.82769 12.38C3.16769 13.66 3.90769 14.87 4.94769 15.9L16.9977 27.95L28.9877 15.96L29.0477 15.89C30.0877 14.85 30.8277 13.65 31.1677 12.37C31.4877 11.19 31.4677 9.90998 31.0277 8.60998C30.6377 7.43998 29.9477 6.35997 29.0477 5.48997C28.1477 4.60997 27.0477 3.92998 25.8577 3.54998C24.4977 3.11998 23.1577 3.10998 21.8877 3.43998C20.6777 3.75998 19.5377 4.38998 18.5277 5.24998L18.5477 5.25998Z" fill="#63A531"/>
</svg>
