<svg width="26" height="31" viewBox="0 0 26 31" fill="none" xmlns="http://www.w3.org/2000/svg">
<path d="M6.38766 16.99C5.77766 16.99 5.25766 17.49 5.25766 18.12C5.25766 18.75 5.77766 19.26 6.38766 19.26C6.99766 19.26 7.52768 18.74 7.52768 18.12C7.52768 17.5 7.01766 16.99 6.38766 16.99ZM6.38766 12.23C5.77766 12.23 5.25766 12.74 5.25766 13.36C5.25766 13.98 5.77766 14.49 6.38766 14.49C6.99766 14.49 7.52768 13.98 7.52768 13.36C7.52768 12.74 7.01766 12.23 6.38766 12.23ZM6.38766 21.75C5.77766 21.75 5.25766 22.25 5.25766 22.89C5.25766 23.53 5.77766 23.99 6.38766 23.99C6.99766 23.99 7.52768 23.5 7.52768 22.89C7.52768 22.28 7.01766 21.75 6.38766 21.75ZM19.5577 22.2H9.75766C9.39766 22.2 9.09766 22.5 9.09766 22.89C9.09766 23.28 9.39766 23.55 9.75766 23.55H19.5577C19.9277 23.55 20.2377 23.25 20.2377 22.89C20.2377 22.53 19.9277 22.2 19.5577 22.2ZM19.5577 12.67H9.75766C9.39766 12.67 9.09766 12.97 9.09766 13.35C9.09766 13.73 9.39766 14.03 9.75766 14.03H19.5577C19.9277 14.03 20.2377 13.72 20.2377 13.35C20.2377 12.98 19.9277 12.67 19.5577 12.67ZM24.7077 5.09003H21.6077V4.47003C21.6077 4.09003 21.3077 3.79004 20.9277 3.79004H17.3277C17.1177 2.99004 16.7177 2.26004 16.1377 1.70004C15.3277 0.900043 14.2277 0.400024 12.9977 0.400024C11.7677 0.400024 10.6577 0.900043 9.85767 1.70004C9.28767 2.26004 8.87768 2.99004 8.68768 3.79004H5.05768C4.68768 3.79004 4.39767 4.09003 4.39767 4.47003V5.09003H1.28766C0.667659 5.09003 0.167664 5.59003 0.167664 6.22003V29.31C0.167664 29.93 0.667659 30.44 1.28766 30.44H24.6977C25.3177 30.44 25.8277 29.94 25.8277 29.31V6.22003C25.8277 5.59003 25.3177 5.09003 24.6977 5.09003H24.7077ZM10.8177 2.67004C11.3777 2.11004 12.1477 1.77002 12.9977 1.77002C13.8477 1.77002 14.6277 2.11004 15.1877 2.67004C15.4877 2.99004 15.7477 3.37002 15.8977 3.80002H10.0877C10.2477 3.38002 10.4877 2.99004 10.8177 2.67004ZM5.74768 5.15002H20.2477V7.28003H5.74768V5.15002ZM23.5777 28.18H2.42767V7.36002H4.40768V7.97003C4.40768 8.35003 4.70766 8.64005 5.06766 8.64005H20.9277C21.3077 8.64005 21.6077 8.34003 21.6077 7.97003V7.36002H23.5777V28.18ZM19.5577 17.44H9.75766C9.39766 17.44 9.09766 17.74 9.09766 18.12C9.09766 18.5 9.39766 18.79 9.75766 18.79H19.5577C19.9277 18.79 20.2377 18.49 20.2377 18.12C20.2377 17.75 19.9277 17.44 19.5577 17.44Z" fill="#63A531"/>
</svg>
