<svg width="30" height="26" viewBox="0 0 30 26" fill="none" xmlns="http://www.w3.org/2000/svg">
<path d="M27.8077 2.51996C26.8677 1.56996 25.5577 0.97998 24.1077 0.97998H5.89767C4.47767 0.97998 3.16766 1.56997 2.22766 2.49997L2.20767 2.51996C1.25767 3.45996 0.677673 4.77997 0.677673 6.21997V19.96C0.677673 21.38 1.25767 22.69 2.17767 23.63L2.20767 23.65C3.14767 24.6 4.46767 25.19 5.89767 25.19H24.1077C25.5277 25.19 26.7977 24.63 27.7477 23.72L27.8077 23.66C28.7677 22.71 29.3477 21.4 29.3477 19.96V6.21997C29.3477 4.77997 28.7677 3.45996 27.8077 2.51996ZM27.1377 19.95C27.1377 20.79 26.7877 21.54 26.2577 22.09L26.2077 22.14C25.6677 22.66 24.9277 22.98 24.1077 22.98H5.89767C5.07767 22.98 4.30766 22.64 3.75766 22.09C3.20766 21.54 2.86768 20.79 2.86768 19.95V6.20996C2.86768 5.37996 3.20766 4.60996 3.75766 4.07996C4.30766 3.51996 5.06767 3.17996 5.89767 3.17996H24.1077C24.9477 3.17996 25.6977 3.52996 26.2577 4.07996C26.7877 4.60996 27.1377 5.37996 27.1377 6.20996V19.95ZM16.7377 9.39996L11.3777 6.31998C11.2877 6.23998 11.1377 6.19998 10.9977 6.19998C10.6377 6.19998 10.3577 6.48996 10.3577 6.86996V19.31C10.3577 19.42 10.3877 19.52 10.4377 19.62C10.6177 19.94 11.0277 20.06 11.3477 19.87L16.7377 16.76L22.0577 13.68C22.1877 13.62 22.2777 13.52 22.3577 13.4C22.5277 13.1 22.4177 12.7 22.1077 12.51L16.7377 9.39996Z" fill="#63A531"/>
</svg>
