<svg xmlns="http://www.w3.org/2000/svg" width="28" height="28" fill="none"><path fill="#1C1C1E" d="M3.919 20.72c.387 0 .72-.114 1.099-.342l9.008-5.291c.519-.308.844-.668.958-1.099v5.072c0 1.072.65 1.66 1.424 1.66.387 0 .712-.114 1.099-.342l9.009-5.291c.659-.387.993-.861.993-1.45 0-.598-.325-1.046-.993-1.442l-9.01-5.29c-.386-.23-.72-.343-1.107-.343-.773 0-1.415.588-1.415 1.66v5.054c-.114-.421-.43-.773-.958-1.08L5.018 6.903c-.378-.228-.712-.342-1.099-.342-.773 0-1.424.588-1.424 1.66V19.06c0 1.072.65 1.66 1.424 1.66Zm.518-2.038c-.105 0-.202-.07-.202-.22V8.82c0-.15.097-.228.202-.228.053 0 .115.026.194.07l8.068 4.764c.114.061.167.105.167.21 0 .106-.061.159-.167.22L4.631 18.62a.377.377 0 0 1-.194.062Zm12.49 0c-.114 0-.202-.07-.202-.22V8.82c0-.15.087-.228.202-.228a.37.37 0 0 1 .184.07l8.078 4.764c.105.061.158.105.158.21 0 .106-.053.159-.159.22l-8.077 4.764a.35.35 0 0 1-.184.062Z"/></svg>