<svg xmlns="http://www.w3.org/2000/svg" width="100" height="100" fill="none"><path fill="#C9CACA" d="m33.68 28.29 2.43 3.22c-5.76 4.34-9.06 10.96-9.06 18.15 0 12.53 10.19 22.72 22.72 22.72s22.72-10.19 22.72-22.72c0-6.41-2.66-12.41-7.34-16.71l-2.7 2.7L58.66 24l11.65 3.79L68 30.1c5.43 5.06 8.52 12.07 8.52 19.57 0 14.75-12 26.76-26.76 26.76-14.75 0-26.76-12-26.76-26.76 0-8.48 3.89-16.27 10.66-21.38h.02Z"/><path fill="#C9CACA" d="M37.12 56.3h4.45V41.94h-3.55v-1.61c1.77-.3 3.06-.76 4.15-1.42h1.91V56.3h4.01v2.07H37.12V56.3Zm14.08-7.73c0-6.52 2.38-10.02 6.25-10.02s6.22 3.52 6.22 10.02-2.35 10.15-6.22 10.15c-3.87 0-6.25-3.63-6.25-10.15Zm10.05 0c0-5.71-1.53-8.03-3.79-8.03s-3.82 2.32-3.82 8.03c0 5.71 1.53 8.16 3.82 8.16s3.79-2.46 3.79-8.16Z"/></svg>