<svg xmlns="http://www.w3.org/2000/svg" width="28" height="28" fill="none"><path fill="#1C1C1E" d="M13.991 22.742c4.984 0 9.097-4.113 9.097-9.088 0-4.974-4.122-9.088-9.106-9.088-4.974 0-9.079 4.114-9.079 9.088 0 4.975 4.114 9.088 9.088 9.088Zm0-1.81a7.243 7.243 0 0 1-7.26-7.278 7.234 7.234 0 0 1 7.251-7.268 7.264 7.264 0 0 1 7.287 7.268 7.253 7.253 0 0 1-7.278 7.278Zm-2.514-3.815h.923c.449 0 .668-.246.668-.624v-5.678c0-.369-.22-.624-.668-.624h-.923c-.448 0-.667.255-.667.624v5.678c0 .378.22.624.667.624Zm4.114 0h.914c.44 0 .66-.246.66-.624v-5.678c0-.369-.22-.624-.66-.624h-.914c-.448 0-.677.255-.677.624v5.678c0 .378.229.624.677.624Z"/></svg>