<svg xmlns="http://www.w3.org/2000/svg" width="28" height="28" fill="none"><path fill="#1C1C1E" d="M22.666 22.311c.387.255.905.141 1.186-.28 1.547-2.321 2.48-5.204 2.48-8.368 0-3.173-.95-6.047-2.48-8.376-.28-.43-.8-.536-1.186-.281-.422.272-.483.79-.193 1.257 1.344 2.048 2.18 4.588 2.18 7.4 0 2.795-.836 5.353-2.18 7.392-.29.465-.229.984.193 1.256ZM3.62 17.416h2.487a.27.27 0 0 1 .194.07l3.858 3.446c.457.413.809.606 1.275.606.65 0 1.142-.492 1.142-1.143V6.975c0-.66-.492-1.187-1.16-1.187-.448 0-.765.202-1.257.65l-3.858 3.42a.264.264 0 0 1-.194.07H3.62c-1.3 0-1.96.685-1.96 2.056v3.375c0 1.38.668 2.057 1.96 2.057Zm15.486 2.514c.405.246.897.158 1.17-.255 1.15-1.617 1.81-3.788 1.81-6.02 0-2.233-.65-4.413-1.81-6.021a.829.829 0 0 0-1.17-.255c-.421.264-.483.79-.175 1.257.94 1.37 1.476 3.155 1.476 5.018 0 1.855-.553 3.639-1.476 5.019-.3.466-.246.984.175 1.257ZM3.778 15.843c-.29 0-.43-.14-.43-.43V11.94c0-.298.14-.44.43-.44h2.743c.237 0 .413-.043.615-.228l3.498-3.19c.044-.035.088-.062.14-.062.07 0 .124.044.124.124v11.03c0 .088-.053.132-.115.132a.22.22 0 0 1-.15-.062l-3.497-3.173c-.202-.184-.378-.228-.615-.228H3.778Zm11.795 1.731a.826.826 0 0 0 1.143-.228c.712-.95 1.134-2.294 1.134-3.692 0-1.397-.422-2.733-1.134-3.691a.816.816 0 0 0-1.143-.22c-.43.281-.518.8-.167 1.31.484.694.756 1.626.756 2.601 0 .976-.281 1.899-.756 2.602-.343.51-.263 1.028.167 1.318Z"/></svg>