<svg xmlns="http://www.w3.org/2000/svg" width="28" height="28" fill="none"><path fill="#1C1C1E" d="M7.865 17.416h2.487a.27.27 0 0 1 .194.07l3.858 3.446c.448.413.809.606 1.266.606.66 0 1.151-.492 1.151-1.143V6.975c0-.66-.492-1.187-1.16-1.187-.448 0-.764.202-1.257.65l-3.858 3.42a.264.264 0 0 1-.194.07H7.865c-1.3 0-1.96.685-1.96 2.056v3.375c0 1.38.668 2.057 1.96 2.057Zm.158-1.573c-.29 0-.43-.14-.43-.43V11.94c0-.298.14-.439.43-.439h2.743c.237 0 .413-.044.615-.228l3.498-3.191c.044-.035.088-.061.14-.061.07 0 .124.043.124.123v11.03c0 .088-.053.132-.115.132a.22.22 0 0 1-.15-.062l-3.497-3.173c-.202-.184-.378-.228-.615-.228H8.023Zm11.787 1.74a.834.834 0 0 0 1.142-.228c.712-.959 1.134-2.295 1.134-3.692 0-1.397-.422-2.733-1.134-3.7a.822.822 0 0 0-1.142-.211c-.431.281-.51.8-.167 1.3.483.695.755 1.627.755 2.611 0 .976-.272 1.899-.755 2.602-.343.51-.264 1.028.167 1.318Z"/></svg>