<svg width="235" height="266" viewBox="0 0 235 266" fill="none" xmlns="http://www.w3.org/2000/svg">
<path fill-rule="evenodd" clip-rule="evenodd" d="M172.93 348.59V220.55C173.35 223.55 173.84 226.52 174.02 227.92C176.53 248.02 178.36 276.76 177.05 296.73C176.64 302.94 177.01 308.15 177.01 314.38C177.01 322.79 178.24 341.75 174.85 348.15C174.22 347.81 174.54 347.75 173.5 348.28L172.94 348.58L172.93 348.59ZM172.93 212.19C174.41 212.36 174.47 213.61 174.99 215.46C175.42 217 175.74 218.38 176.09 219.92C176.82 223.04 177.5 226.15 178.06 229.44C178.42 231.54 178.33 232.22 179.33 234.04L185.31 244.8C188.71 251.65 196.76 270.97 199.87 275.48C199.04 268.6 199.4 262.03 207.95 264.87C210.07 265.57 222.36 269.28 223.73 269.22L220.71 269.77C223.82 269.62 228.57 269.76 230.05 267.33C228.92 262.94 213.56 255.95 209.08 254.17C206.93 253.31 207.29 252.71 205.24 249.33C202.32 244.52 198.7 238.24 196.27 233.22C191.91 224.23 183.31 208.98 176.97 201.42C175.59 199.78 174.52 198.54 173.23 196.8L172.95 196.37V212.19H172.93ZM172.93 98.9997V16.0997C173.21 15.8097 173.46 15.5397 173.65 15.3197C174.66 14.2097 176.68 12.4096 176.32 10.3296C175.18 9.73965 173.99 10.0797 172.92 10.8997V8.04965C175.42 6.30965 179.23 4.79968 182.72 6.13968C185.78 7.31968 188.62 10.3897 188.6 14.6497C188.58 21.1097 182.36 28.9897 178.4 33.3997C177.4 34.5097 175.71 35.7197 175.57 37.8596C175.3 42.1497 179.16 65.0997 180.01 69.2297C183.69 87.0797 192.62 102.33 194.89 111.58C188.39 103.9 181.76 101.51 172.92 99.0097L172.93 98.9997ZM172.93 8.03967V10.8897C170.59 12.6997 168.87 16.8597 169.71 18.8097C170.64 18.3597 171.98 17.0797 172.93 16.0897V98.9897C171.22 98.5097 169.43 98.0197 167.53 97.4897C161.72 95.8597 156.06 94.5897 150.8 93.0997V82.6997C151.71 82.7097 152.67 82.6097 153.71 82.3797C160.65 80.8597 163.35 71.9097 162.35 63.3197C161.63 57.1697 157.48 49.5997 150.8 49.4397V30.3997C150.99 30.4697 151.18 30.5497 151.38 30.6497C153.32 31.6497 155.08 33.0397 156.77 34.2297C160.48 36.8497 162.21 34.0697 160.69 32.1797C160.19 31.5597 154.84 27.5597 150.8 26.5697V25.1297C161.98 25.9597 159.72 27.1697 163.08 21.4497C165.9 16.6597 166.72 13.0697 172.01 8.69968C172.29 8.46968 172.59 8.23967 172.92 8.00967L172.93 8.03967ZM172.93 196.38V212.2C172.75 212.18 172.55 212.17 172.32 212.19C172 213.29 172.42 216.96 172.93 220.56V348.6L169.42 350.47C167.56 351.42 165.63 352.04 163.6 352.69C158.37 354.38 155.51 353.98 150.81 354.24V293.65C160.47 284.78 163.58 271.29 164.76 256.03C166.02 239.91 162.84 221.81 155.41 207.8C154.59 206.25 152.71 202.92 150.81 200.12V195.34C153.5 194.93 156.74 194.6 158.91 194.13C162.43 193.37 166.37 192.11 169.88 191.71L172.93 196.38ZM150.81 25.1497V26.5897C149.99 26.3897 149.21 26.3097 148.55 26.4097C145.64 26.8597 142.4 30.0897 140.4 31.9097C139.38 32.8397 138.89 33.4797 139.49 35.1197C143.61 36.4297 146.35 28.8397 150.81 30.4097V49.4497C149.93 49.4297 149.01 49.5297 148.05 49.7897C140.61 51.7597 138.04 59.5297 139.41 68.8297C140.41 75.6297 143.67 82.6197 150.81 82.6997V93.0997C141.76 90.5497 133.88 87.3697 128.34 80.7097V29.4397C129.74 29.2797 131.14 28.7797 131.8 28.2597C131.19 27.6197 129.76 27.0997 128.34 26.9997V24.0197C134.55 24.3397 140.78 24.6197 146.95 24.9097C148.39 24.9797 149.67 25.0597 150.81 25.1397V25.1497ZM150.81 195.33V200.11C149.61 198.34 148.41 196.79 147.46 196.01C148.33 195.75 149.5 195.53 150.81 195.33ZM150.81 293.65V354.24C150.24 354.27 149.65 354.31 149.02 354.37C148.97 354.33 148.9 354.18 148.88 354.23L148.34 353.6C141.39 344.45 143.14 315.17 139.93 313.49C137.36 313.24 131.66 314.36 128.59 314.6L128.34 314.62V304.01C130.11 303.51 131.9 302.97 133.79 302.47C141.01 300.59 146.55 297.57 150.81 293.66V293.65ZM128.35 24.0297V27.0097C126.81 26.8997 125.29 27.2997 124.89 28.5797C125.56 29.4297 126.96 29.6097 128.35 29.4497V80.7197C124.75 76.3797 122.13 70.5697 120.84 62.4897C119.45 53.7997 118.98 42.4897 119.25 33.5297C119.34 30.6497 119.73 26.1997 119.41 23.5297C122.38 23.7097 125.36 23.8697 128.34 24.0297H128.35ZM128.35 303.99V314.6C118.42 315.35 114.31 315.3 104.32 314.59C102.83 314.48 99.9899 314.05 97.4299 313.75V303.45C98.3299 303.68 99.1999 303.89 100.04 304.06C105.17 305.1 112.27 306.07 117.56 305.91C121.56 305.79 124.93 304.95 128.35 303.98V303.99ZM97.4299 84.2397V27.5697C99.1299 27.3297 100.83 26.7397 101.7 26.0897C100.85 25.4797 98.9199 25.3097 97.4299 25.3097V23.5397C102.25 23.3997 107.06 23.3997 112.08 23.2797C114.28 36.0497 113.01 47.7397 110.39 60.1197C109.35 65.0197 107.12 71.1797 104.78 74.9297C103 77.7897 102.23 78.1397 100.47 80.8497C100.15 81.3397 99.6499 82.0197 99.4099 82.2697C98.7599 82.9697 98.0899 83.6197 97.4199 84.2197L97.4299 84.2397ZM97.4299 23.5597V25.3297H97.1099C96.3099 25.3497 95.1899 25.4797 94.52 25.6797C93.3599 26.0397 93.3299 26.1097 93.1599 27.0297C94.0899 27.7197 95.7599 27.8097 97.4299 27.5797V84.2497C91.2499 89.8097 84.3499 91.3397 76.4799 92.7397V82.8097C77.1099 82.7297 77.7599 82.5997 78.4499 82.3897C89.4899 79.0597 90.9699 61.1897 84.1599 53.6297C81.6799 50.8797 79.0199 49.7297 76.4799 49.7997V31.6597C77.2999 31.0797 78.1399 30.6797 78.9399 30.6197C80.9899 30.4597 82.81 33.3797 83.65 34.6497C86.65 39.1897 91.7399 35.5297 84.6299 28.7097C83.2899 27.4197 80.6399 25.8897 77.7999 26.5497C77.3999 26.6397 76.9599 26.7997 76.4899 27.0197V25.2597C79.5599 25.0097 83.1399 24.5397 85.6699 24.2797C89.6799 23.8797 93.5599 23.6797 97.4399 23.5797L97.4299 23.5597ZM97.4299 303.46V313.76C95.4799 313.54 93.6999 313.39 92.8199 313.54C89.1899 315.76 91.9699 345.71 83.2599 354.96C82.6599 354.5 80.0899 354.8 76.4799 354.87V292.59C78.9599 295.06 81.8199 297.09 85.5599 299.03C88.7499 300.69 93.2999 302.38 97.4299 303.46ZM76.4799 222.82V212.07C78.9399 212.55 80.8899 213.57 81.3099 215.97C81.9399 219.61 78.8799 221.83 76.4799 222.82ZM76.4799 207.54V192.91C79.9699 193.03 83.6199 193.79 86.6199 196.39C87.6299 197.26 87.9299 197.42 88.1899 199.16C88.3799 200.42 88.4399 201.6 88.0699 202.85C87.3399 205.31 86.0899 206.26 83.7899 207.24C80.1499 208.79 79.9299 208.3 76.4799 207.55V207.54ZM76.4799 188.67V171.84C81.0499 173.01 85.1299 175.71 86.5399 180.66C87.8199 185.16 86.4599 187.27 83.4999 189.5C82.1499 189.25 79.4299 188.86 76.4799 188.67ZM76.4799 25.2397V26.9997C73.1199 28.5397 68.3599 32.8797 68.6299 35.6797C68.7699 37.1197 70.0899 37.8397 71.4199 36.9697C71.6699 36.7997 73.9799 33.4197 76.4899 31.6497V49.7897C69.7799 49.9797 63.9599 58.7097 64.77 68.8397C65.31 75.5597 68.8899 83.7197 76.4899 82.7997V92.7297C72.6599 93.4097 68.6099 94.0497 64.2899 95.1096C60.5299 96.0296 56.1899 96.9797 52.27 98.0897V82.9797C55.66 75.1297 58.4499 62.7397 55.6299 59.9197C54.2699 60.6997 53.1399 64.7597 52.27 68.4897V60.5297C54.07 53.9197 55.5099 47.6997 55.9699 43.4897C56.4599 39.0397 54.5599 36.3997 52.4999 33.5697L52.2599 33.2497V26.6897C52.4799 26.8197 52.73 26.9297 53.03 27.0297C52.91 25.7497 52.5999 24.4097 52.2599 23.0697V12.6697C53.0399 11.9397 53.95 11.7597 54.96 11.2697C54.93 9.40965 53.7299 8.80966 52.2599 9.14966V6.78967C57.3799 6.00967 63.72 8.98966 67.27 17.2497C68.74 20.6697 68.7199 25.4197 72.9499 25.4297C73.9499 25.4297 75.1699 25.3597 76.4699 25.2497L76.4799 25.2397ZM76.4799 171.84V188.67C70.7599 188.32 64.1499 188.78 64.8699 192.78C66.9699 193.81 71.5699 192.73 76.4799 192.91V207.54C74.9799 207.21 72.8599 206.84 69.5699 206.57C66.5899 206.32 64.02 206.45 64.34 209.77C66.29 212 72.1699 211.23 76.4799 212.07V222.82H76.4699C73.0299 224.25 70.6299 224.05 66.8799 224.65C62.9999 225.28 57.7899 225.2 52.2599 224.7V144.08C53.5899 142.03 53.7499 139.06 52.2599 137.24V128.94L52.52 129.16C52.49 129.23 52.4499 129.27 52.4499 129.38L57.3499 147.59C58.3699 152 59.7699 161.83 59.2299 166.65C59.0699 168.06 58.8199 168.39 59.4099 169.25C57.0499 171.09 57.56 172.92 59.15 173.42C60.62 173.88 61.9499 172.85 62.9299 172.45C66.2999 171.09 71.6699 170.62 76.4799 171.85V171.84ZM76.4799 292.59V354.87C73.2199 354.93 69.1099 354.81 64.8299 353.78C62.2099 353.15 60.6899 351.79 60.3199 353C58.2199 351.27 56.6499 344.27 56.1599 340.78C55.4299 335.56 55.2399 330.57 55.5699 325.22C55.9099 319.67 55.4699 314.03 55.7399 308.51C56.1999 299.12 54.93 287.39 54.4 277.22C53.95 268.66 52.5299 253.14 52.9499 245.32C53.2299 240.11 53.4699 234.66 53.6999 229.39H65.09C63.57 236.36 62.5999 235.43 61.9299 245.35C60.9099 260.5 62.7699 272.27 70.5699 284.88C72.4499 287.93 74.3199 290.42 76.4899 292.58L76.4799 292.59ZM52.2599 6.78967V9.14966C48.8899 9.93966 44.0899 15.6897 48.6299 22.5797C49.4199 23.7797 49.5999 24.0397 50.5099 25.0297C51.0999 25.6797 51.5099 26.2497 52.2599 26.6897V33.2497C50.3899 30.6697 48.6699 28.1797 47.0499 25.3997C46.0199 23.6297 45.2999 21.9397 44.8499 20.3697V12.8197C46.0299 9.46967 48.8799 7.31966 52.2599 6.80966V6.78967ZM52.2599 12.6597C52.0399 12.8697 51.8299 13.1197 51.6299 13.4397C50.1299 15.8197 51.3299 19.4397 52.2599 23.0597V12.6597ZM52.2599 60.5197V68.4797C51.7299 70.7297 51.2999 72.8497 50.9699 74.0697C49.6099 79.0497 47.8899 84.4197 47.7399 90.0097C49.0799 89.4197 48.7899 89.2297 50.1099 87.1597C50.8199 86.0497 51.5499 84.6097 52.2599 82.9697V98.0797C50.8899 98.4697 49.57 98.8697 48.34 99.2997C47.05 99.7496 45.8899 100.2 44.8599 100.65V84.5497C47.0199 78.2496 49.9399 69.0597 52.27 60.5197H52.2599ZM52.2599 128.94V137.24C51.7199 136.57 50.9499 136.06 49.9499 135.81C47.3899 135.16 44.9899 136.73 44.9799 139.13C44.9799 140.58 45.54 141.26 46.65 141.62C48.11 142.09 49.07 141.84 49.53 140.68C48.68 140.1 45.3899 140.65 46.6799 138.27C47.8999 136.02 53.39 137.45 51.46 142.38C50.86 143.92 49.9699 144.84 47.8699 145.02C46.6899 145.12 45.6799 144.79 44.8599 144.2V133.98C45.2999 133.69 45.7999 133.45 46.3699 133.28L48.1399 132.96C49.1299 132.64 48.1599 133.25 48.8199 132.62C47.7399 131.46 46.1699 131.71 44.8599 132.32V125.8C47.5799 126.08 50.29 127.31 52.27 128.93L52.2599 128.94ZM52.2599 144.08C51.7599 144.84 51.0999 145.48 50.2999 145.88C48.2099 146.92 46.3499 146.81 44.8499 146.01V180.77C46.5499 179.07 48.39 178.08 49.84 178.67C50.21 180.5 46.0299 184.34 44.9499 186.06L44.8499 186.23V223.84C47.3299 224.19 49.8199 224.49 52.2599 224.71V144.09V144.08ZM44.8499 12.7997V20.3497C44.0199 17.4397 44.1099 14.8797 44.8499 12.7997ZM44.8499 84.5597V100.66C43.6899 101.16 42.67 101.65 41.78 102.12V92.2797C42.63 90.4597 43.3899 88.7197 43.9299 87.1897C44.2199 86.3897 44.5199 85.5097 44.8499 84.5597ZM44.8499 125.8V132.32C44.1599 132.64 43.5499 133.06 43.1099 133.43C42.5499 133.9 42.11 134.47 41.78 135.09V125.93C42.78 125.73 43.8099 125.7 44.8499 125.8ZM44.8499 133.98C41.4299 136.27 41.8699 142.03 44.8499 144.2V133.98ZM44.8499 146.01V180.77C43.7199 181.9 42.64 183.35 41.78 184.85V178.26C42.16 177.67 42.5599 177.06 43.0099 176.38C44.5399 174.04 45.2699 174.1 42.6999 168.16C42.3999 167.46 42.09 166.76 41.78 166.06V159.81C42.12 160.22 42.5199 160.6 42.9899 160.92L41.78 155.31V142.52C42.45 144.02 43.5099 145.3 44.8499 146.02V146.01ZM44.8499 186.22V223.83C43.8199 223.68 42.8 223.53 41.78 223.36V193.28C42.75 192.77 42.9799 189.29 44.8499 186.21V186.22ZM23.8899 189.91C26.2299 189.79 28.5499 190.27 29.1799 191.36C29.9399 192.68 28.9399 193.56 27.7499 193.61C26.7299 193.65 25.8899 193.09 24.8899 192.78C24.5399 192.67 24.2099 192.59 23.8899 192.54V219.38C24.5199 219.59 25.1799 219.79 25.8699 219.99C29.9699 221.14 35.7099 222.4 41.7899 223.38V193.3C41.4699 193.47 41.0699 193.31 40.4899 192.7C39.1499 191.28 40.0199 187.94 41.7899 184.85V178.26C40.7499 179.88 39.9199 181.29 39.1199 183.32C38.3099 185.36 37.5699 186.2 36.9899 188.61C36.5699 190.35 36.0099 193.04 33.2599 191.55C31.5199 190.61 32.4299 188.07 32.9099 186.23C30.0599 186.18 29.2399 186.31 26.9999 185.4C27.4099 184.16 27.3599 184.17 30.0799 183.59C31.2799 183.33 33.2099 183.1 34.2399 182.79L35.8099 179.36C32.0999 180.17 27.7199 181.5 23.8799 182.97V189.91H23.8899ZM41.78 92.2797V102.12C37.72 104.27 36.2499 106.02 35.0399 106.32C36.2499 103.09 39.38 97.3897 41.78 92.2797ZM41.78 125.93V135.09C40.61 137.26 40.73 140.16 41.78 142.51V155.3L41.4 153.54C41.38 153.48 41.32 153.38 41.27 153.31C40.1899 155.56 40.36 158.04 41.78 159.8V166.05C37.29 155.84 32.24 145.04 34.9 133.58C36.01 128.79 38.7 126.55 41.78 125.93ZM18.3299 192.52C18.6999 190.91 21.2999 190.05 23.8799 189.91V182.97C21.9599 183.7 20.1899 184.46 18.6899 185.21C13.1499 187.98 8.03992 190.07 5.85992 195.59C3.18992 202.37 6.94994 209.26 10.6399 211.97C14.7699 215 18.3599 217.54 23.8699 219.38V192.54C21.7099 192.17 20.3399 192.94 18.3199 192.52H18.3299Z" fill="#CAC9C9"/>
<path fill-rule="evenodd" clip-rule="evenodd" d="M96.05 93.13C88.91 94.24 82.29 95.2 75.64 97.17C71.91 98.28 59.02 101.78 58.78 105.01C60.52 105.77 67.19 103.25 69.54 102.59C91.37 96.47 111.32 95.55 133.93 97.73C142.1 98.52 152.89 99.81 161.07 99.23C160.78 98.96 160.92 99.02 160.43 98.74C160.17 98.59 160.08 98.55 159.75 98.42C151.3 95.17 130.98 92.73 122.21 92.33C119.02 92.19 109.44 91.72 106.84 92.25L112.96 93.26C112.72 93.49 112.78 93.47 112.38 93.69C111.17 94.37 104.95 95.37 103.65 95.54C100.99 95.89 93.95 97.01 96.05 93.12V93.13Z" fill="#FCEAEB"/>
<path fill-rule="evenodd" clip-rule="evenodd" d="M76.7699 53.7099C77.1099 53.7099 77.4599 53.73 77.8099 53.79C82.2799 54.49 84.9798 60.2399 84.9098 65.7399C84.7998 73.8299 80.7899 78.1 76.7699 78.31V82.76C77.3099 82.68 77.8699 82.55 78.4399 82.38C89.4799 79.05 90.9599 61.1799 84.1499 53.6199C81.7699 50.9699 79.2099 49.81 76.7699 49.79V53.72V53.7099ZM73.1698 66.92C74.3098 66.63 75.0299 66.44 75.5899 65.63L73.5699 64.76L68.6299 63.09C69.1199 58.72 72.1899 53.73 76.7699 53.72V49.79C69.9399 49.72 63.9399 58.57 64.7599 68.84C65.2999 75.65 68.9699 83.93 76.7699 82.76V78.31C73.1899 78.49 69.6099 75.45 68.8199 69L73.1698 66.92Z" fill="white"/>
<path fill-rule="evenodd" clip-rule="evenodd" d="M151.02 52.7297C151.49 52.7897 151.98 52.9097 152.49 53.0897C156.73 54.5897 159.17 60.3397 159.34 66.3497C159.42 69.3297 159.05 72.3197 157.74 74.6497C155.96 77.8097 153.47 79.0797 151.02 78.9297V82.6997C151.87 82.6997 152.76 82.5897 153.72 82.3797C160.66 80.8597 163.36 71.9097 162.36 63.3197C161.65 57.2397 157.58 49.7597 151.02 49.4497V52.7197V52.7297ZM147.13 66.2697C148.43 65.8797 149.62 65.6897 150.48 64.4697L147.35 63.5697L142.68 62.3697C143.32 57.8097 146.01 52.0797 151.01 52.7297V49.4597C150.07 49.4197 149.08 49.5197 148.04 49.7897C140.6 51.7597 138.03 59.5297 139.4 68.8297C140.41 75.6897 143.73 82.7497 151.01 82.6997V78.9297C146.91 78.6797 142.94 74.4197 142.75 68.3297L147.13 66.2697Z" fill="white"/>
<path fill-rule="evenodd" clip-rule="evenodd" d="M109.23 207.06C110.91 207.12 112.71 207.65 112.9 209.15C111.4 209.56 111.17 208.88 109.72 208.6C109.55 208.57 109.39 208.54 109.23 208.53V212.36C110.69 212.57 111.99 213.08 114.96 213.89C114.72 207.94 114.44 202.89 114.85 196.93L109.23 197.06V198.19C110.68 198.25 112.1 198.86 112.26 200.11C110.71 200.23 110.42 199.73 109.23 199.69V202.14C110.93 202.14 112.65 202.72 112.44 204.62C110.84 204.85 110.67 204.14 109.23 204.03V207.07V207.06ZM107.03 207.26C107.6 207.12 108.4 207.03 109.23 207.06V204.02C108.96 204 108.64 204 108.26 204.02C107.03 204.12 104 204.33 106.22 202.77C106.68 202.45 107.95 202.13 109.23 202.13V199.68C109.12 199.68 109 199.68 108.88 199.68C107.08 199.74 107.43 200.61 105.98 200.24C105.66 198.85 107.47 198.11 109.23 198.18V197.05L104.33 197.16L102.76 212.59C106.22 212.22 107.81 212.14 109.23 212.34V208.51C107.86 208.37 107.02 208.82 105.56 208.41C105.81 207.45 105.84 207.55 107.02 207.25L107.03 207.26Z" fill="white"/>
<path fill-rule="evenodd" clip-rule="evenodd" d="M177.18 182.84V176.94C190.9 167.74 197.76 152.77 191.05 135.93C188.37 129.21 186.78 126.93 181.6 122.78C179.33 120.96 177.77 121.38 177.18 122.47V100.27C183.98 102.45 189.49 105.17 194.91 111.58C195.79 112.54 197.72 118.74 198.28 120.67C199.34 124.35 199.43 127.49 199.79 131.44C200.58 140.03 200.63 146.04 199.18 154.5C198.29 159.68 194.21 168.59 191.61 172.01C188.34 176.32 183.11 179.86 177.3 182.79L177.18 182.85V182.84ZM177.18 171.12C179.32 169.4 181.21 167.55 182.78 165.64C191.38 155.27 190.34 142.3 183.75 131.48C182.09 128.76 180.42 127.78 178.1 125.95C177.68 125.62 177.37 125.21 177.18 124.79V156.16C179.69 155.84 180.52 159.29 178.49 160.42C178.07 160.66 177.62 160.75 177.18 160.74V171.11V171.12ZM199.86 275.48C200.5 276.91 201.07 277.33 202.93 277.14C202.76 273.26 201.28 270.15 203.03 267.04C209.18 266.21 214.73 270.6 220.7 269.76L223.72 269.21C222.34 269.27 210.05 265.57 207.94 264.86C199.39 262.02 199.03 268.59 199.86 275.47V275.48ZM177.18 100.26V122.46C176.83 123.11 176.81 123.99 177.18 124.79V156.16C176.87 156.2 176.54 156.29 176.19 156.45C175.18 156.91 174.17 157.86 175.09 159.59C175.44 160.25 176.28 160.72 177.18 160.74V171.11C175.08 172.79 172.74 174.34 170.19 175.65C167.72 176.93 165.68 177.89 163.61 178.58V151.49C164.02 151.48 164.44 151.37 164.87 151.14C167.09 149.94 166.07 146.2 163.61 146.31V136.05C163.76 135.86 163.9 135.65 164.02 135.44C165.11 133.6 164.96 131.56 163.61 130.45V96.4196C164.91 96.7596 166.22 97.1096 167.53 97.4796C171.05 98.4696 174.23 99.2995 177.17 100.24L177.18 100.26ZM177.18 176.93C175.55 178.02 173.83 179.03 172.03 179.95C168.95 181.52 166.2 182.61 163.62 183.35V188.15C168.14 186.84 172.61 185.12 177.18 182.83V176.93ZM163.61 360.26V352.69C165.63 352.04 167.55 351.42 169.41 350.47L173.49 348.3C174.54 347.77 174.21 347.83 174.84 348.17C173.47 353.56 169.07 358.36 164.39 360.02C164.13 360.11 163.87 360.2 163.61 360.27V360.26ZM163.61 266.06V232.6C164.96 240.43 165.35 248.44 164.76 256.03C164.49 259.48 164.13 262.83 163.61 266.07V266.06ZM163.61 96.4395V130.47C163.2 130.14 162.69 129.89 162.07 129.75C161.07 128.88 159.75 128.8 158.35 129.12V99.3695C159.29 99.3495 160.2 99.3095 161.08 99.2395C160.79 98.9695 160.93 99.0295 160.44 98.7495C160.18 98.5995 160.09 98.5595 159.76 98.4295C159.32 98.2595 158.85 98.0995 158.35 97.9295V95.0995C160.08 95.5396 161.84 95.9796 163.61 96.4496V96.4395ZM163.61 136.06V146.32C163.29 146.33 162.95 146.41 162.59 146.57C161.8 146.91 161.59 146.6 161.25 147.89C161.05 148.65 161.1 149.36 161.39 150.09C161.74 150.98 162.61 151.54 163.61 151.51V178.6C161.95 179.16 160.27 179.53 158.35 179.76V166.86C158.75 166.85 159.15 166.75 159.52 166.56C161.9 165.36 160.9 161.67 158.35 161.8V139.93C158.66 139.75 158.97 139.56 159.29 139.37C161 138.33 162.56 137.44 163.62 136.06H163.61ZM163.61 183.36V188.16C161.87 188.67 160.12 189.11 158.35 189.51V184.44C160.05 184.23 161.79 183.88 163.61 183.36ZM163.61 232.6V266.06C162.59 272.46 160.97 278.38 158.35 283.56V214.07C160.75 219.88 162.5 226.18 163.61 232.6ZM163.61 352.68V360.25C161.75 360.78 159.98 360.83 158.35 360.55V353.87C159.91 353.68 161.58 353.34 163.6 352.69H163.61V352.68ZM158.35 95.0895V97.9196C149.23 94.9196 130.53 92.6995 122.21 92.3295C119.02 92.1895 109.44 91.7195 106.84 92.2495C104.98 92.5095 103.04 92.2495 101.14 92.4095C99.4099 92.5595 97.6498 93.0295 96.0398 93.1295C88.8998 94.2395 82.2799 95.1996 75.6299 97.1696C74.6799 97.4496 73.1299 97.8895 71.3399 98.4395V93.6195C82.2799 91.6295 91.4499 90.8195 99.3999 82.2795C99.6399 82.0295 100.14 81.3495 100.46 80.8595C102.22 78.1495 102.98 77.7995 104.77 74.9395C107.11 71.1895 109.35 65.0395 110.38 60.1295C113 47.7495 114.26 36.0596 112.07 23.2896L119.4 23.5195C119.72 26.1895 119.32 30.6395 119.24 33.5195C118.97 42.4795 119.44 53.7896 120.83 62.4796C124.63 86.3196 139.92 90.4195 158.34 95.0795L158.35 95.0895ZM158.35 99.3595C150.61 99.5495 141.23 98.4395 133.94 97.7395C111.95 95.6195 92.4798 96.4395 71.3498 102.11V129.35C72.6198 130.17 73.6899 131.03 74.1899 131.4C76.4299 133.11 79.9099 135.79 80.3999 139.73C82.7999 142.16 78.8499 144.27 75.3399 143.53C74.0899 143.27 72.7198 142.69 71.3498 141.89V158.71C74.2998 158.53 75.4399 163.34 72.4599 164.34C72.0799 164.47 71.6998 164.51 71.3498 164.5V167.36C74.9798 167.14 77.8898 167.26 81.6698 169.44C85.1198 171.43 88.8498 174.87 90.5499 178.43C97.5398 178.77 104.23 177.18 111.03 176.28C118.21 175.33 124.39 177.01 131.35 178C137.92 178.93 145.23 179.85 151.92 179.99C154.43 180.04 156.5 179.97 158.34 179.76V166.86C156.81 166.91 155.33 165.72 155.98 163.36C156.34 162.06 156.48 162.38 157.32 162.04C157.68 161.89 158.03 161.82 158.35 161.8V139.93C154.96 141.9 151.86 143.19 148.03 142.46C146.58 142.18 147.42 142.93 146.38 141.89C144.36 140.52 145.83 137.73 147.01 136.38C148.43 134.75 149.44 134.01 151.2 132.84C152.79 131.78 155.71 129.72 158.34 129.12V99.3695L158.35 99.3595ZM158.35 184.44V189.51C151.62 191.02 144.64 191.81 136.88 192.45C128.93 193.11 120.38 192.29 112.29 192.46C103.67 192.64 96.8398 191.64 88.5998 191.25C88.6398 191.17 88.7199 191.08 88.7599 191.02C88.7999 190.97 88.8698 190.86 88.9198 190.8L90.6098 188.98L90.3299 188.67C90.7699 186.72 91.1098 184.1 91.1698 183.31C91.2298 182.56 92.2198 183.15 93.0398 183.15C94.0398 182.46 110.35 180.97 112.92 180.7C119.77 179.95 126.62 182.44 133.35 182.9C143.96 183.63 150.79 185.37 158.35 184.43V184.44ZM158.35 214.07V283.56C153.84 292.46 146.36 299.19 133.79 302.46C128.25 303.9 123.63 305.75 117.55 305.93C112.27 306.08 105.16 305.12 100.03 304.08C95.3199 303.13 89.4298 301.06 85.5499 299.04C78.9999 295.64 75.1198 291.94 71.3498 286.15V228.81C72.2798 228.69 73.2199 228.57 74.1499 228.48C78.1999 228.1 84.2199 224.17 85.5599 220.16C86.7699 216.56 85.6098 214.6 84.7298 211.86C88.1298 210.92 89.1699 209.86 90.7499 207.7C93.3499 204.14 92.3199 203.99 92.8999 199.64C94.6399 199.75 97.4099 201.62 99.2699 202.3C98.6699 210.11 95.7999 219.77 101.9 217.63C104.15 216.84 105.88 216.7 108.36 216.75C107.8 217.96 107.26 217.96 105.67 220.16C97.1398 231.99 106.59 245.16 117.29 229.31C117.33 229.24 117.39 229.17 117.43 229.11C117.73 228.68 117.68 228.75 117.92 228.48C119.93 233.87 129.42 239.31 132.49 232.73C135.2 226.91 127.19 219.4 125.64 215.99C129.9 215.47 133.86 218.05 135.17 215.74C135.71 211.6 133.48 206.42 133.31 202.34C136.51 201.36 145.03 196 147.45 196.02C149.91 198.03 154.06 205.27 155.4 207.8C156.47 209.81 157.45 211.91 158.34 214.07H158.35ZM158.35 353.87V360.55C154.17 359.83 150.86 356.94 149.02 354.36C152.84 354.02 155.39 354.22 158.35 353.87ZM71.3498 360.69V354.76C77.5398 355.19 82.3999 354.31 83.2599 354.96C81.4599 357.57 76.6098 361.27 71.3498 360.7V360.69ZM59.4098 169.25C61.5298 168.13 61.1898 167.91 61.4098 165.15C62.0898 156.87 62.1499 155.8 60.7099 147.02C60.0799 143.2 58.8698 138.7 57.1598 135.09V146.88L57.3498 147.59C58.3698 152 59.7698 161.83 59.2298 166.65C59.0698 168.06 58.8198 168.39 59.4098 169.25ZM71.3498 93.6295V98.4496C66.1498 100.06 58.9499 102.61 58.7799 105.02C60.5199 105.78 67.1898 103.26 69.5398 102.6C70.1398 102.43 70.7399 102.27 71.3399 102.11V129.35C68.9699 127.83 65.9099 126.43 64.5699 128.51C59.9899 131.55 65.6099 138.58 71.3399 141.9V158.72C71.0799 158.74 70.8099 158.79 70.5199 158.89C66.9899 160.11 68.5599 164.36 71.3399 164.51V167.37C69.7299 167.47 67.9799 167.64 65.9399 167.72C66.0399 164.89 66.3499 162.05 66.4299 159.29C66.5099 156.6 65.9998 153.64 66.1598 151.28L66.0099 149.91C69.8999 149.05 69.3999 143.51 64.8699 143.72C63.1099 136.46 61.1699 131.13 57.1499 127.06V96.8395C59.5899 96.2395 62.0299 95.6796 64.2699 95.1396C66.7099 94.5396 69.0599 94.0796 71.3399 93.6696L71.3498 93.6295ZM71.3498 228.81V286.15C71.0898 285.74 70.8199 285.33 70.5599 284.9C62.7599 272.29 60.8998 260.52 61.9198 245.37C62.5898 235.45 63.5599 236.37 65.0799 229.39C67.1099 229.39 69.2198 229.08 71.3498 228.81ZM71.3498 354.76V360.69C71.2398 360.68 71.1299 360.67 71.0199 360.65C68.5699 360.3 66.1898 359.34 64.5998 358.06C63.3998 357.09 60.8399 354.67 60.3199 353.01C60.6799 351.79 62.1999 353.16 64.8299 353.79C67.0799 354.33 69.2898 354.62 71.3498 354.77V354.76ZM57.1598 135.09C55.8798 132.38 54.3199 130.18 52.5199 129.15C52.4899 129.22 52.4499 129.26 52.4499 129.37L57.1598 146.87V135.08V135.09ZM57.1598 96.8095V127.03C56.3598 126.22 55.4899 125.46 54.5099 124.75C51.4599 122.51 48.0498 121.15 43.2198 121.24C34.9798 121.39 29.7098 129.45 29.4098 136.64C28.6598 154.55 38.6499 166.9 38.7499 170.87C36.5399 168.79 35.4899 168.19 33.3799 165.39C28.5099 158.92 25.7199 148.75 25.2999 140.37C24.9099 132.48 26.0699 128.14 28.4499 121.56C30.3999 116.17 32.2498 110.39 35.0398 106.32C36.7598 105.89 38.9699 102.58 48.3299 99.3095C50.9799 98.3795 54.0698 97.5695 57.1598 96.8095Z" fill="#FAD9D0"/>
<path fill-rule="evenodd" clip-rule="evenodd" d="M124.25 206.46C126.23 206.41 128.21 207.2 127.86 208.54C127.24 209.37 125.88 208.14 124.25 208.23V211.91C125.5 211.55 126.82 211.47 130.23 211.74C129.55 206.98 128.07 202.04 127.84 197.24C126.96 197.22 125.63 197.13 124.25 197.06V198.12C127.39 198.07 129.15 201.14 125.11 200.02C124.8 199.93 124.51 199.89 124.25 199.87V201.74C124.94 201.74 125.66 201.86 126.33 202.17C127.55 202.74 127.27 202.55 127.25 203.99C125.79 204.34 125.43 203.76 124.26 203.71V206.46H124.25ZM120.6 208.87C120.63 207.23 122.44 206.5 124.25 206.46V203.71C123.95 203.7 123.59 203.71 123.15 203.8C118.07 204.74 120.9 201.75 124.25 201.74V199.87C122.57 199.77 121.8 200.91 121.06 200.55C119.17 199.63 122.3 198.49 123.06 198.29C123.47 198.18 123.88 198.13 124.26 198.12V197.06C122.32 196.96 120.3 196.92 119.3 197.21L119.41 211.86L119.99 213.41C122.19 212.74 123.2 212.22 124.26 211.92V208.24H124.13C122.64 208.4 122.03 209.07 120.61 208.88L120.6 208.87Z" fill="white"/>
<path fill-rule="evenodd" clip-rule="evenodd" d="M47.74 90.0097C49.08 89.4197 48.79 89.2297 50.11 87.1597C54.24 80.7097 59.02 63.3197 55.63 59.9097C53.45 61.1597 51.86 70.8397 50.97 74.0697C49.61 79.0497 47.89 84.4197 47.74 90.0097Z" fill="#E3E4E4"/>
<path fill-rule="evenodd" clip-rule="evenodd" d="M80.3999 139.73L80.4299 141.98C77.1399 140.46 74.3698 136.84 72.4698 135.28C69.5698 132.9 64.7099 130.3 64.5799 128.5C58.9099 132.27 68.8799 142.16 75.3399 143.53C78.8499 144.27 82.7999 142.17 80.3999 139.73Z" fill="#D7A1A2"/>
<path fill-rule="evenodd" clip-rule="evenodd" d="M146.38 141.88C147.42 142.92 146.57 142.17 148.03 142.45C152.21 143.25 155.53 141.64 159.29 139.37C161.24 138.19 163 137.19 164.03 135.45C165.45 133.06 164.77 130.33 162.08 129.74C162.72 132.83 161.24 132.87 158.89 133.68C156.57 134.48 152.01 137.46 150.39 139.12C149 140.55 148.75 142.22 146.39 141.87L146.38 141.88Z" fill="#D7A1A2"/>
<path fill-rule="evenodd" clip-rule="evenodd" d="M73.58 64.7599L75.5999 65.6299C75.0399 66.4499 74.3199 66.6299 73.1799 66.9199C73.4199 69.7099 74.2199 73.0999 76.6899 73.7399C80.9999 72.2099 81.8499 60.1599 76.9999 58.3399C75.0799 58.6299 72.1 61.9199 73.59 64.7599H73.58ZM147.36 63.5699L150.49 64.4699C149.63 65.6899 148.44 65.8799 147.14 66.2699C147.81 79.2299 157.39 75.1399 154.19 62.5399C153.51 59.8699 152.41 57.3399 149.68 57.3899C148.54 58.5199 147.2 60.9899 147.37 63.5699H147.36Z" fill="#381908"/>
<path fill-rule="evenodd" clip-rule="evenodd" d="M53.0299 27.0197C52.5899 22.2797 49.5699 16.6997 51.6299 13.4397C52.5199 12.0197 53.6699 11.8897 54.9599 11.2697C54.8499 5.12972 42.1199 12.6897 48.6299 22.5697C49.4199 23.7697 49.5999 24.0297 50.5099 25.0197C51.2799 25.8597 51.7299 26.5697 53.0299 27.0197Z" fill="#E3E4E4"/>
<path fill-rule="evenodd" clip-rule="evenodd" d="M202.11 289.07V284.08C210.37 281.7 215.22 282.71 224.14 283.51C223.19 281.38 219.64 276.96 218.15 275.1C216.95 273.6 214.96 273.79 212.79 273.32C210.88 272.91 208.84 272.22 207 271.9C207.24 274.45 208.14 277.55 206.86 279.82C206.18 281.03 204.18 281.83 202.12 281.86V277.17C202.36 277.17 202.63 277.17 202.94 277.13C202.77 273.25 201.29 270.14 203.04 267.03C209.19 266.2 214.74 270.59 220.71 269.75C223.82 269.6 228.57 269.74 230.05 267.31C228.92 262.92 213.56 255.93 209.08 254.15C206.93 253.29 207.29 252.69 205.24 249.31C204.26 247.69 203.19 245.9 202.12 244.05V234.47L207.67 244.4C209.84 249.23 207.83 248.46 211.92 250.06C216.7 251.93 220.52 254.31 224.8 256.69C228.49 258.75 233.7 261.79 234.67 266.35C236.1 273.07 226.91 273.7 223.77 274.43C224.32 275.47 225.16 276.59 225.89 277.57C227.54 279.8 231.7 284.57 229.44 287.22C228.44 288.39 227.67 288.4 225.62 288.38C223.92 288.36 222.8 288.17 221 288.03L214.21 287.38C213.3 287.28 213.25 287.12 211.99 287.1C208.82 287.04 205.28 287.86 202.1 289.05L202.11 289.07ZM202.11 161.87V116.58C202.33 117.28 202.53 117.99 202.71 118.69C203.9 123.22 204.2 127.64 204.59 132.61C205.61 145.8 205.38 148.33 202.4 161.12V161.43C202.3 161.57 202.21 161.72 202.11 161.87ZM202.11 116.58V161.87C201.28 163.17 200.42 164.83 199.88 166.34C199.21 168.21 198.55 169.44 197.65 171.23C196.42 173.7 194.8 175.46 193.04 177.46C190.69 180.11 187.86 181.87 184.87 183.85L173.6 190.23C174.29 191.26 174.88 192.04 175.64 193.14L180.18 198.51C182.58 200.92 184.86 204 186.67 206.88L202.11 234.49V244.07C200 240.43 197.87 236.55 196.25 233.22C191.89 224.23 183.29 208.98 176.95 201.42C175.57 199.78 174.5 198.54 173.21 196.8L169.88 191.7C166.37 192.1 162.42 193.35 158.91 194.12C157.5 194.43 155.66 194.67 153.8 194.92V190.42C161.87 188.99 169.42 186.75 177.3 182.78C183.11 179.85 188.34 176.31 191.61 172C194.2 168.58 198.29 159.67 199.18 154.49C200.64 146.03 200.58 140.02 199.79 131.43C199.43 127.48 199.33 124.34 198.28 120.66C197.72 118.73 195.79 112.53 194.91 111.57C192.64 102.32 183.71 87.0698 180.03 69.2198C179.18 65.0898 175.31 42.1398 175.59 37.8498C175.73 35.7198 177.42 34.5098 178.42 33.3898C182.37 28.9798 188.6 21.0998 188.62 14.6398C188.63 10.3798 185.8 7.31977 182.74 6.12977C178.8 4.60977 174.44 6.73977 172.03 8.71977C166.74 13.0798 165.92 16.6798 163.1 21.4698C160.07 26.6098 161.59 26.1498 153.81 25.3998V20.7198C155.52 20.9398 157.21 21.1398 158.75 21.1398C159.63 17.3798 162.02 13.0398 164.06 10.3398C165.18 8.85976 166.4 7.24975 167.83 6.04975C172.82 1.85975 179.18 -0.790244 185.7 2.23976C188.84 3.69976 191.83 7.31976 192.83 10.8998C195.29 19.6998 189.21 27.1598 184.46 33.5198C181.74 37.1598 179.79 37.2398 180.37 40.9998C180.91 44.4698 181.68 48.0098 181.97 51.4898C183.31 67.4798 188 81.5198 193.78 95.7198C194.18 96.6898 194.59 97.3998 195.03 98.4998L198.39 106.9C199.77 109.95 201.11 113.27 202.12 116.56L202.11 116.58ZM202.11 277.18C200.88 277.16 200.39 276.67 199.86 275.48C196.75 270.97 188.71 251.65 185.3 244.8L179.32 234.04C178.32 232.22 178.41 231.54 178.05 229.44C177.49 226.16 176.81 223.05 176.08 219.92C175.72 218.39 175.41 217 174.98 215.46C174.4 213.38 174.39 212.06 172.32 212.17C171.73 214.19 173.63 224.82 174.01 227.92C176.52 248.02 178.35 276.76 177.04 296.73C176.63 302.94 177 308.15 177 314.38C177 322.79 178.23 341.75 174.84 348.15C173.47 353.54 169.07 358.34 164.39 360C160.31 361.44 156.66 360.54 153.8 358.8V364.24C158.41 366.22 164.64 365.58 168.64 363.3C178.61 357.64 180.7 347.05 181.92 336.01C182.45 331.2 181.66 321.91 181.66 316.24C181.66 313.13 181.89 309.03 181.64 306.04C181.34 302.39 181.66 300.3 181.66 296.42C187.8 296.42 191.88 294.54 196.7 291.64C198.24 290.71 200.11 289.81 202.12 289.06V284.07C201.73 284.18 201.34 284.3 200.94 284.43C193.62 286.73 191.33 291.17 182.16 291.79C182.89 285.03 182.12 274.95 181.74 267.64C181.53 263.58 181.4 259.58 181.08 255.56C180.8 252.06 180.07 247.44 180.09 244.12C183.86 247.81 192.99 279.28 199.7 281.51C200.47 281.77 201.3 281.88 202.13 281.87V277.18H202.11ZM153.8 184.7C159.36 184.7 164.81 183.63 172.02 179.95C189.07 171.26 198.55 154.76 191.05 135.92C188.37 129.2 186.78 126.92 181.6 122.77C177.29 119.31 175.53 123.93 178.1 125.96C180.43 127.79 182.1 128.76 183.75 131.49C190.34 142.31 191.38 155.28 182.78 165.65C179.65 169.42 175.33 173.01 170.19 175.67C164.32 178.71 160.9 179.97 153.8 180.01V184.71V184.7ZM153.8 136.46C155.59 135.26 157.58 134.14 158.88 133.69C161.23 132.88 162.71 132.83 162.07 129.75C159.97 127.94 156.49 129.52 153.8 131.15V136.46ZM153.8 78.4598C155.27 77.8398 156.64 76.6098 157.74 74.6598C159.05 72.3298 159.42 69.3398 159.34 66.3597C159.19 60.9997 157.23 55.8498 153.8 53.7298V61.2198C153.94 61.6498 154.07 62.0998 154.19 62.5498C155.3 66.9298 154.87 70.2698 153.8 72.2398V78.4598ZM153.8 32.1298C154.83 32.8298 155.81 33.5698 156.78 34.2498C160.49 36.8698 162.22 34.0898 160.7 32.1998C160.32 31.7298 157.1 29.2698 153.8 27.6998V32.1198V32.1298ZM153.8 20.7298V25.4098C152.04 25.2398 149.82 25.0598 146.95 24.9198C142.44 24.6998 137.9 24.4998 133.36 24.2798V19.3898C134.92 19.4298 136.49 19.4798 137.95 19.6398C141.34 20.0198 144.73 20.0898 148.53 20.1998C150.18 20.2498 152 20.4998 153.8 20.7198V20.7298ZM153.8 27.6998V32.1198C153.03 31.5898 152.23 31.0898 151.39 30.6598C146.57 28.1798 143.78 36.4798 139.48 35.1198C138.88 33.4798 139.38 32.8298 140.39 31.9098C142.39 30.0798 145.64 26.8598 148.54 26.4098C149.97 26.1898 151.89 26.7998 153.79 27.6998H153.8ZM153.8 53.7198V61.2098C153.09 59.0898 151.95 57.3398 149.67 57.3898C148.53 58.5198 147.19 60.9898 147.36 63.5698L142.69 62.3698C143.39 57.3798 146.55 50.9798 152.49 53.0898C152.95 53.2498 153.38 53.4598 153.8 53.7198ZM153.8 72.2398V78.4598C148.91 80.5298 143 75.8198 142.76 68.3398L147.14 66.2798C147.58 74.7398 151.81 75.9298 153.81 72.2398H153.8ZM153.8 131.15V136.46C152.38 137.41 151.09 138.4 150.38 139.13C148.99 140.56 148.74 142.23 146.38 141.88C144.36 140.51 145.83 137.72 147.01 136.37C148.43 134.74 149.44 134 151.2 132.83C151.87 132.38 152.77 131.76 153.79 131.14L153.8 131.15ZM153.8 180V184.7C147.87 184.7 141.81 183.47 133.36 182.9V178.27C139.39 179.1 145.91 179.85 151.92 179.98C152.57 179.99 153.2 180 153.8 180ZM153.8 190.42V194.92C151.39 195.24 148.96 195.56 147.46 196.02C145.05 196.01 136.59 201.32 133.36 202.33V198.34C133.94 198.1 134.4 197.83 134.82 197.32H133.36V192.66C134.54 192.62 135.72 192.55 136.88 192.46C142.91 191.96 148.47 191.37 153.8 190.43V190.42ZM153.8 358.81V364.25C153.3 364.03 152.82 363.79 152.36 363.51C142.4 357.46 140.02 348.31 138.52 336.78C137.94 332.3 137.92 327.55 137.24 322.88C137.07 321.73 136.77 319.37 136.75 318.41C135.71 318.41 134.58 318.49 133.36 318.61V314C135.85 313.66 138.43 313.33 139.93 313.48C143.13 315.16 141.38 344.44 148.34 353.59L148.88 354.22C148.88 354.22 148.97 354.32 149.02 354.36C150.13 355.91 151.76 357.57 153.8 358.81ZM133.36 216.71V202.94C133.7 206.92 135.7 211.8 135.18 215.73C134.79 216.42 134.16 216.67 133.36 216.7V216.71ZM133.36 19.3898V24.2798C130.26 24.1298 127.17 23.9698 124.08 23.7998V18.9498L127.38 19.0698C129.17 19.3098 131.26 19.3398 133.36 19.3998V19.3898ZM133.36 178.27V182.9C130.29 182.69 127.2 182.06 124.09 181.5V176.81C126.47 177.19 128.86 177.63 131.36 177.99L133.37 178.27H133.36ZM133.36 192.65V197.31H131.9L132.31 198.71C132.71 198.57 133.05 198.45 133.37 198.32V202.31H133.33C133.33 202.52 133.35 202.73 133.37 202.93V216.7C131.49 216.77 128.65 215.61 125.66 215.97C127.21 219.37 135.22 226.88 132.51 232.71C130.85 236.27 127.31 236.31 124.09 234.74V229.19C125.44 230.59 126.93 231.39 128.23 230.88C128.83 228.85 126.22 224.74 124.09 221.77V211.95C125.39 211.54 126.67 211.44 130.24 211.72C129.56 206.96 128.08 202.02 127.85 197.22C126.94 197.2 125.53 197.1 124.08 197.03V192.61C127.2 192.69 130.31 192.74 133.36 192.64V192.65ZM133.36 314V318.61C130.75 318.86 127.69 319.31 124.08 319.62V314.9C125.46 314.82 126.95 314.71 128.6 314.59C129.87 314.49 131.6 314.24 133.36 314ZM124.08 18.9498V23.7998C122.52 23.7098 120.96 23.6198 119.41 23.5298L112.08 23.2998L110.76 23.3298V18.6598C112.62 18.6698 114.47 18.6798 116.32 18.6598L124.08 18.9398V18.9498ZM124.08 176.81V181.5C120.37 180.84 116.64 180.29 112.92 180.69C112.51 180.73 111.75 180.83 110.76 180.95V176.3L111.03 176.26C115.64 175.65 119.83 176.12 124.08 176.8V176.81ZM124.08 192.62V197.04C122.2 196.95 120.26 196.92 119.29 197.2L119.4 211.85L119.46 213.71L119.98 213.4C122.06 212.76 123.08 212.27 124.08 211.96V221.78C123.36 220.78 122.7 219.9 122.24 219.28C121.84 218.75 121.4 218.34 121.11 217.93C120.07 219.25 119.56 219.65 120.03 221.75C120.57 224.16 122.2 227.26 124.08 229.2V234.75C121.35 233.42 118.85 230.94 117.93 228.47C117.69 228.74 117.74 228.67 117.44 229.1C117.39 229.16 117.34 229.24 117.3 229.3C115.01 232.7 112.77 234.76 110.76 235.79V230.27C111.99 229.08 113.02 227.54 113.56 226.48C115.12 223.41 116.52 219.64 112.91 218.23C112.47 218.48 111.66 219.22 110.76 220.25V212.68C111.79 212.95 113.01 213.36 114.96 213.89C114.72 207.94 114.44 202.89 114.85 196.93L110.76 197.03V192.49C111.26 192.49 111.77 192.49 112.29 192.47C116.16 192.39 120.12 192.53 124.08 192.63V192.62ZM124.08 314.9V319.62C121.74 319.82 119.16 319.97 116.32 319.97C114.4 319.97 112.55 319.89 110.77 319.76V315C115.45 315.23 119.05 315.2 124.09 314.9H124.08ZM110.76 18.6598V23.3298C106.6 23.4098 102.59 23.4298 98.5699 23.5298V18.6898C102.56 18.5998 106.66 18.6398 110.76 18.6598ZM110.76 176.31V180.96C107.73 181.34 102.54 182.01 98.5699 182.63V178.11C102.65 177.65 106.69 176.87 110.76 176.31ZM110.76 192.48V197.02L104.33 197.17L102.76 212.6C107.44 212.1 108.7 212.13 110.76 212.68V220.25C108.09 223.3 104.6 228.91 107.33 232C108.5 232.05 109.7 231.29 110.76 230.27V235.79C103.37 239.57 98.9699 229.45 105.68 220.15C107.26 217.95 107.81 217.95 108.37 216.74C105.89 216.7 104.16 216.84 101.91 217.62C100.12 218.25 99.1099 217.86 98.5799 216.8V208.3C98.8399 206.32 99.1299 204.25 99.2799 202.29C99.0599 202.21 98.8199 202.11 98.5799 202V197.85C99.0799 198.12 99.3599 198.25 99.9099 198.49C100.41 197.91 100.46 197.81 100.45 196.88L98.5799 196.74V191.94C102.51 192.24 106.43 192.5 110.77 192.48H110.76ZM110.76 315V319.76C106.14 319.43 102.02 318.8 98.5699 318.54V313.91C100.79 314.19 103.04 314.52 104.31 314.61C106.76 314.79 108.85 314.92 110.76 315.01V315ZM98.5799 18.6898V23.5298C94.3199 23.6298 90.0699 23.8198 85.6599 24.2598C82.0599 24.6198 76.3199 25.4198 72.9599 25.4098C72.8099 25.4098 72.6599 25.4098 72.5099 25.3898V17.2598C72.9099 18.3498 73.1899 19.4398 73.2699 20.5198C78.3799 20.5198 83.9999 19.7598 89.0099 19.2298C92.0799 18.9098 95.2899 18.7498 98.5699 18.6798L98.5799 18.6898ZM98.5799 178.1V182.62C95.7499 183.06 93.5399 183.47 93.1899 183.71H91.5499C91.5499 184.54 91.6099 185.67 91.5199 186.46C91.2399 188.75 90.3899 189.22 88.9199 190.79C88.8699 190.85 88.7999 190.96 88.7599 191.01C88.7199 191.06 88.6499 191.16 88.5999 191.24C92.0999 191.41 95.3399 191.68 98.5799 191.93V196.73L96.7099 196.59C97.0699 197 96.7999 196.84 97.4999 197.27C97.4999 197.27 98.1699 197.61 98.3199 197.69L98.5899 197.84V201.99C96.7799 201.18 94.4499 199.72 92.9199 199.62C92.3299 203.97 93.3599 204.12 90.7699 207.68C89.1899 209.85 88.1499 210.9 84.7499 211.84C85.6399 214.58 86.7899 216.53 85.5799 220.14C84.2399 224.15 78.2199 228.08 74.1699 228.46C73.6199 228.51 73.0699 228.57 72.5299 228.64V223.92C73.7799 223.72 75.0399 223.4 76.4899 222.81C78.8899 221.81 81.9599 219.6 81.3299 215.95C80.6999 212.34 76.6199 211.87 72.5299 211.61V206.85C80.0999 207.81 79.1199 209.21 83.8099 207.21C86.1099 206.23 87.3499 205.28 88.0899 202.82C88.4599 201.58 88.4099 200.4 88.2099 199.13C87.9399 197.39 87.6399 197.23 86.6399 196.36C82.4699 192.75 77.0499 192.7 72.5299 192.96V188.57C76.7699 188.45 81.5599 189.13 83.5099 189.48C86.4699 187.26 87.8299 185.14 86.5499 180.64C84.7399 174.28 78.5299 171.63 72.5299 171.18V167.27C75.6399 167.16 78.3199 167.46 81.6999 169.41C85.1499 171.4 88.8799 174.84 90.5799 178.4C93.2899 178.53 95.9599 178.37 98.5999 178.08L98.5799 178.1ZM98.5799 208.31C98.1099 211.9 97.7499 215.17 98.5799 216.81V208.31ZM98.5799 313.9V318.53C97.6299 318.46 96.7299 318.42 95.8799 318.42C95.8799 319.66 95.6699 321.88 95.4799 323.29C94.9599 327.3 94.8399 332.67 94.2399 337.22C93.6199 341.86 91.8899 349.49 90.0999 353.21C89.4699 354.51 88.8899 355.47 88.1399 356.51L85.8899 359.22C82.7099 362.68 78.6699 365.18 73.7199 365.49H72.4999V360.75C77.2999 360.72 81.5799 357.37 83.2499 354.95C91.9499 345.7 89.1799 315.75 92.8099 313.53C93.8599 313.36 96.1899 313.59 98.5699 313.89L98.5799 313.9ZM72.5099 135.31V130.13C73.2599 130.66 73.8599 131.14 74.1899 131.39C76.4299 133.1 79.9099 135.78 80.3999 139.72L80.4299 141.97C77.1599 140.45 74.3999 136.87 72.5099 135.3V135.31ZM72.5099 76.8398V67.2298L73.1699 66.9098C73.4099 69.6998 74.2099 73.0898 76.6799 73.7298C80.9899 72.1998 81.8399 60.1498 76.9899 58.3298C75.0699 58.6198 72.0899 61.9098 73.5799 64.7498L72.5099 64.3898V55.3598C73.9599 54.1398 75.7499 53.4598 77.8099 53.7898C82.2799 54.4898 84.9799 60.2398 84.9099 65.7398C84.7599 76.8398 77.2699 80.7398 72.5099 76.8498V76.8398ZM72.5099 35.6198V29.6298C74.2999 28.0898 76.3399 26.8698 77.7899 26.5298C80.6299 25.8698 83.2799 27.3998 84.6199 28.6898C91.7399 35.5098 86.6399 39.1598 83.6399 34.6298C82.7999 33.3698 80.9799 30.4498 78.9299 30.5998C76.6399 30.7698 73.9799 33.7998 72.5099 35.6198ZM49.5199 140.68C49.0599 140.37 47.9099 140.38 47.1299 140.1V141.76C48.3199 142.03 49.1099 141.71 49.5199 140.68ZM47.1299 137.72V135.98C47.9499 135.63 48.9299 135.55 49.9399 135.8C54.7199 137.01 54.0399 144.01 50.2999 145.87C49.1699 146.43 48.1099 146.66 47.1299 146.62V145.01C47.3699 145.03 47.6099 145.03 47.8599 145.01C49.9599 144.84 50.8499 143.91 51.4499 142.37C53.1999 137.91 48.8799 136.31 47.1299 137.71V137.72ZM47.1299 133.14L48.1299 132.96C49.1199 132.64 48.1499 133.25 48.8099 132.62C48.3299 132.1 47.7499 131.86 47.1299 131.81V133.13V133.14ZM72.5099 17.2698V25.3998C68.7299 25.0698 68.6899 20.5398 67.2699 17.2398C62.3499 5.81976 52.1299 4.48977 47.1299 9.24977V3.63978C49.7599 2.11978 52.7699 1.46976 56.4299 2.05976C61.4299 2.85976 64.9099 5.54977 67.3899 8.74977C69.1199 10.9898 71.3399 14.0898 72.5099 17.2598V17.2698ZM72.5099 29.6298V35.6198C71.9099 36.3598 71.5099 36.8998 71.4099 36.9598C70.0799 37.8398 68.7599 37.1198 68.6199 35.6698C68.4499 33.8998 70.2899 31.5198 72.5099 29.6198V29.6298ZM72.5099 55.3698V64.3998L68.6299 63.0898C68.9399 60.2798 70.3299 57.1998 72.5099 55.3698ZM72.5099 67.2398V76.8498C70.6999 75.3698 69.2899 72.7698 68.8199 68.9998L72.5099 67.2398ZM72.5099 130.14V135.32L72.4799 135.29C69.5799 132.91 64.7199 130.31 64.5899 128.51C66.1599 126.07 70.1099 128.42 72.5099 130.14ZM72.5099 167.29V171.2C68.9099 170.93 65.3899 171.45 62.9199 172.44C61.9399 172.83 60.6099 173.86 59.1399 173.41C57.5499 172.91 57.0399 171.08 59.3999 169.24C61.5199 168.12 61.1799 167.9 61.3999 165.14C62.0799 156.86 62.1399 155.79 60.6999 147.01C59.5999 140.33 56.6999 131.54 52.5099 129.14C51.0599 127.88 49.1499 126.83 47.1299 126.24V121.51C50.0199 122.02 52.3499 123.16 54.5099 124.74C60.3899 129.05 62.7699 134.98 64.8799 143.68L66.1699 151.24C66.0099 153.6 66.5199 156.57 66.4399 159.25C66.3599 162.02 66.0499 164.86 65.9499 167.68C68.4799 167.57 70.5799 167.34 72.4999 167.27L72.5099 167.29ZM72.5099 188.59V192.98C69.2099 193.17 66.3899 193.52 64.8699 192.78C64.3099 189.7 68.1099 188.72 72.5099 188.59ZM72.5099 206.87V211.63C69.1199 211.42 65.7299 211.35 64.3399 209.76C64.0199 206.45 66.5999 206.32 69.5699 206.56C70.6799 206.65 71.6499 206.76 72.5099 206.86V206.87ZM72.5099 223.94V228.66C69.9999 228.97 67.4899 229.38 65.0899 229.39H53.6999C53.4699 234.67 53.2299 240.12 52.9499 245.33C52.5399 253.15 53.9599 268.67 54.3999 277.23C54.9299 287.4 56.1999 299.13 55.7399 308.52C55.4699 314.04 55.9099 319.68 55.5699 325.23C55.2399 330.57 55.4299 335.56 56.1599 340.79C56.6499 344.28 58.2199 351.29 60.3199 353.01C60.8399 354.67 63.3999 357.09 64.5999 358.06C66.1899 359.35 68.5699 360.3 71.0199 360.65C71.5199 360.72 72.0099 360.75 72.4999 360.75V365.49H71.6199C65.9599 365.15 61.8899 362.52 58.4699 358.61C56.9499 356.87 55.2999 354.64 54.4099 352.45C52.1399 346.83 51.4999 343.1 50.9499 335.79C50.6999 332.45 50.6599 309.89 51.1999 305.96C51.6499 302.69 50.9799 299.54 50.9799 296.45C49.4999 296.45 48.2699 296.33 47.1399 296.13V291.44C48.2299 291.66 49.3799 291.77 50.5999 291.73C50.0199 286.92 50.0399 281.3 49.7299 276.31C49.4099 271.07 49.0299 265.87 48.7499 260.53C48.2599 251.2 48.0099 237.96 50.0699 229.24L47.1299 228.94V224.16C54.4899 225.1 61.8099 225.48 66.8799 224.67C69.0499 224.32 70.7699 224.24 72.5099 223.96V223.94ZM47.1299 77.6798V61.3898C47.5099 60.1398 47.8799 58.8898 48.2499 57.4398C49.4199 52.7698 50.5999 47.6998 51.2999 42.8298C51.5799 40.9198 52.1699 40.8198 51.1899 39.5398C49.9399 37.9298 48.5399 36.1198 47.1399 34.1698V25.5198C48.7999 28.3598 50.5699 30.9098 52.4999 33.5598C54.5599 36.3898 56.4499 39.0298 55.9699 43.4798C55.1099 51.3698 50.7899 66.3698 47.1499 77.6798H47.1299ZM47.1299 140.09C46.4599 139.84 46.0699 139.37 46.6699 138.27C46.7899 138.05 46.9399 137.87 47.1299 137.72V135.98C45.8599 136.51 44.9799 137.66 44.9699 139.13C44.9699 140.58 45.5299 141.26 46.6399 141.62C46.8099 141.67 46.9699 141.72 47.1299 141.75V140.09ZM47.1299 145.02V146.63C41.4299 146.41 38.7499 137.14 43.1099 133.43C43.9999 132.68 45.6499 131.7 47.1299 131.82V133.14L46.3599 133.28C40.3999 134.99 41.7099 144.65 47.1299 145.02ZM47.1299 3.64976V9.25978C43.8499 12.3898 42.8199 18.1398 47.0499 25.3898L47.1299 25.5298V34.1798C41.0699 25.7398 35.1799 14.7498 43.4599 6.51975C44.6099 5.37975 45.8199 4.40976 47.1299 3.64976ZM47.1299 61.3898V77.6798C45.9399 81.3598 44.8299 84.6598 43.9299 87.1798C41.8499 93.0198 36.6699 101.93 35.0399 106.32C32.2499 110.39 30.3999 116.18 28.4499 121.56C26.0699 128.14 24.9099 132.48 25.2999 140.37C25.7099 148.75 28.4999 158.92 33.3799 165.39C35.4899 168.19 36.5399 168.78 38.7499 170.87C38.6499 166.9 28.6599 154.55 29.4099 136.64C29.7099 129.45 34.9899 121.39 43.2199 121.24C44.6399 121.21 45.9299 121.31 47.1299 121.52V126.25C42.2399 124.83 36.6399 126.09 34.8999 133.57C32.0599 145.82 38.0199 157.32 42.6999 168.14C45.2699 174.08 44.5299 174.02 43.0099 176.36C41.3499 178.91 40.2099 180.54 39.1099 183.3C38.2999 185.34 37.5599 186.18 36.9799 188.59C36.5599 190.33 35.9999 193.02 33.2499 191.53C31.5099 190.59 32.4199 188.05 32.8999 186.21C30.0499 186.16 29.2299 186.29 26.9899 185.38C27.3999 184.14 27.3499 184.15 30.0699 183.57C31.2699 183.31 33.1999 183.08 34.2299 182.77L35.7999 179.34C30.2299 180.55 23.1599 182.95 18.6799 185.19C13.1399 187.96 8.02991 190.05 5.84991 195.57C3.17991 202.35 6.93991 209.24 10.6299 211.95C15.2399 215.33 19.1599 218.1 25.8299 219.97C31.1199 221.46 39.1399 223.12 47.0999 224.13V228.91L44.8899 228.68C43.6899 233.1 34.8199 245.07 31.8299 249.74C30.2699 252.18 29.0299 254.31 27.4899 256.86C24.3199 262.07 9.3199 281.91 8.6199 283.39C17.5899 283.72 18.1899 280.53 31.7099 284.38C37.1299 285.93 41.2999 290.23 47.1099 291.4V296.09C45.4999 295.81 44.1099 295.37 42.5499 294.9C35.6799 292.82 30.8899 285.62 16.0499 287.51C14.9999 287.64 12.7599 287.93 11.5999 288.02C8.87991 288.23 4.5799 289.07 3.1799 287.2C1.1199 284.45 5.40992 279.37 6.97992 277.2C7.40992 276.6 7.6199 276.47 8.0899 275.83C8.43991 275.36 8.61991 275.01 8.96991 274.54L23.4499 254.34C24.1799 253.28 24.6199 252.71 25.3099 251.55C28.9799 245.4 33.0799 239.52 37.0799 233.59C37.7999 232.52 38.2399 231.62 38.9999 230.56C39.6899 229.61 40.4799 228.78 41.0399 227.95C38.8999 227.9 35.9699 227.05 33.9199 226.71C24.8999 225.21 17.9999 222.74 10.6299 217.8C4.52991 213.72 0.949922 208.13 0.169922 202.48V197.81C0.759922 193.62 2.9699 189.62 6.9299 186.41C10.8999 183.19 17.9499 179.89 22.8799 178.21C24.9599 177.5 33.2299 174.88 35.4599 174.69C35.1399 173.49 35.2799 174.01 34.3699 173.31C28.1099 168.5 24.2399 159.78 22.3299 152.22C20.2299 143.89 19.3099 129.44 23.2799 121.33C25.3199 117.16 26.3799 112.65 28.4399 108.53C30.9099 103.58 33.7199 98.7797 35.8199 93.6097C36.2299 92.5997 36.6799 91.7598 37.2199 90.6798C40.3099 84.5198 42.0499 77.8598 44.0199 71.1598C44.7399 68.7298 45.4399 66.8798 46.1899 64.3498C46.4999 63.2898 46.8099 62.3198 47.0999 61.3598L47.1299 61.3898Z" fill="#874623"/>
<path fill-rule="evenodd" clip-rule="evenodd" d="M49.85 178.67C45.46 176.89 37.52 189.53 40.49 192.7C42.81 195.17 42.35 190.2 44.96 186.06C46.04 184.34 50.22 180.51 49.85 178.67Z" fill="#E3E4E4"/>
<path fill-rule="evenodd" clip-rule="evenodd" d="M96.0498 93.1298C93.9498 97.0098 100.99 95.8997 103.65 95.5497C104.95 95.3797 111.17 94.3798 112.38 93.6998C112.78 93.4698 112.72 93.4897 112.96 93.2697L106.84 92.2598C104.98 92.5198 103.04 92.2598 101.14 92.4198C99.4099 92.5698 97.6498 93.0398 96.0398 93.1398L96.0498 93.1298Z" fill="white"/>
<path fill-rule="evenodd" clip-rule="evenodd" d="M169.71 18.8096C170.92 18.2296 172.81 16.2496 173.66 15.3096C174.67 14.1996 176.69 12.3996 176.33 10.3196C172.69 8.43959 168.49 15.9696 169.71 18.8096Z" fill="#E3E4E4"/>
<path fill-rule="evenodd" clip-rule="evenodd" d="M18.3298 192.52C20.6398 193 22.1098 191.92 24.8798 192.78C25.8898 193.1 26.7298 193.66 27.7398 193.61C28.9298 193.56 29.9298 192.68 29.1698 191.36C27.8598 189.07 19.0298 189.45 18.3298 192.51V192.52Z" fill="#E3E4E4"/>
<path fill-rule="evenodd" clip-rule="evenodd" d="M70.53 158.88C66.55 160.26 69.05 165.48 72.46 164.34C75.71 163.26 74.06 157.66 70.53 158.88Z" fill="#D7A1A2"/>
<path fill-rule="evenodd" clip-rule="evenodd" d="M162.59 146.56C161.8 146.9 161.59 146.59 161.25 147.88C161.05 148.64 161.1 149.35 161.39 150.08C161.88 151.33 163.4 151.94 164.87 151.15C167.38 149.79 165.76 145.2 162.59 146.56Z" fill="#D7A1A2"/>
<path fill-rule="evenodd" clip-rule="evenodd" d="M157.32 162.03C156.48 162.37 156.34 162.05 155.98 163.35C155.17 166.32 157.73 167.45 159.51 166.55C162.19 165.2 160.58 160.69 157.31 162.03H157.32Z" fill="#D7A1A2"/>
<path fill-rule="evenodd" clip-rule="evenodd" d="M176.19 156.46C175.18 156.92 174.17 157.87 175.09 159.6C175.61 160.58 177.2 161.15 178.49 160.43C180.77 159.15 179.44 154.98 176.19 156.46Z" fill="#D7A1A2"/>
<path fill-rule="evenodd" clip-rule="evenodd" d="M66.1799 151.26L66.0299 149.89C69.9199 149.03 69.4199 143.49 64.8899 143.7L66.1799 151.26Z" fill="#D7A1A2"/>
<path fill-rule="evenodd" clip-rule="evenodd" d="M93.1599 27.03C95.0399 28.43 99.98 27.38 101.7 26.1C100.79 25.45 98.6299 25.29 97.1099 25.33C96.3099 25.35 95.19 25.47 94.52 25.68C93.36 26.04 93.3299 26.11 93.1599 27.03Z" fill="#E3E4E4"/>
<path fill-rule="evenodd" clip-rule="evenodd" d="M124.89 28.5797C126.23 30.2797 130.49 29.2997 131.81 28.2697C130.54 26.9297 125.66 26.1197 124.89 28.5797Z" fill="#E3E4E4"/>
<path fill-rule="evenodd" clip-rule="evenodd" d="M120.6 208.87C122.02 209.07 122.63 208.4 124.12 208.24C125.81 208.07 127.23 209.39 127.87 208.54C128.54 205.97 120.67 205.44 120.6 208.87Z" fill="#CAC9C9"/>
<path fill-rule="evenodd" clip-rule="evenodd" d="M127.25 203.99C127.27 202.55 127.55 202.74 126.33 202.17C122.41 200.35 117.02 204.93 123.15 203.8C125.31 203.4 125.4 204.43 127.24 203.99H127.25Z" fill="#CAC9C9"/>
<path fill-rule="evenodd" clip-rule="evenodd" d="M112.44 204.61C112.8 201.28 107.3 202.01 106.22 202.77C104 204.33 107.03 204.12 108.26 204.02C110.66 203.83 110.54 204.88 112.44 204.61Z" fill="#CAC9C9"/>
<path fill-rule="evenodd" clip-rule="evenodd" d="M123.06 198.28C122.31 198.48 119.18 199.62 121.06 200.54C121.92 200.96 122.81 199.37 125.11 200.01C129.64 201.26 126.88 197.25 123.05 198.28H123.06Z" fill="#CAC9C9"/>
<path fill-rule="evenodd" clip-rule="evenodd" d="M105.56 208.43C107.19 208.89 108.04 208.27 109.72 208.6C111.17 208.89 111.4 209.56 112.9 209.15C112.62 206.92 108.74 206.83 107.03 207.26C105.84 207.56 105.81 207.46 105.57 208.42L105.56 208.43Z" fill="#CAC9C9"/>
<path fill-rule="evenodd" clip-rule="evenodd" d="M105.98 200.24C107.43 200.61 107.08 199.74 108.88 199.68C110.38 199.63 110.57 200.23 112.27 200.1C111.91 197.32 105.41 197.71 105.99 200.24H105.98Z" fill="#CAC9C9"/>
<path fill-rule="evenodd" clip-rule="evenodd" d="M42.9999 160.91L41.4 153.54C41.38 153.48 41.32 153.38 41.27 153.31C39.93 156.09 40.5099 159.23 42.9999 160.91Z" fill="#E3E4E4"/>
<path fill-rule="evenodd" clip-rule="evenodd" d="M132.3 198.72C133.43 198.32 134.16 198.1 134.82 197.32H131.9L132.31 198.72H132.3ZM8.64987 283.42C17.6199 283.75 18.2199 280.56 31.7399 284.41C38.1799 286.25 42.8499 291.98 50.5999 291.72C50.0199 286.91 50.0399 281.29 49.7299 276.3C49.4099 271.06 49.0299 265.86 48.7499 260.52C48.2599 251.19 48.0099 237.95 50.0699 229.23L44.9099 228.7C43.7099 233.12 34.8399 245.09 31.8499 249.76C30.2899 252.2 29.0499 254.33 27.5099 256.88C24.3399 262.09 9.33989 281.93 8.63989 283.41L8.64987 283.42ZM182.15 291.8C191.33 291.18 193.61 286.75 200.93 284.44C209.93 281.61 214.8 282.67 224.14 283.52C223.19 281.39 219.64 276.97 218.15 275.11C216.95 273.61 214.96 273.8 212.79 273.33C210.88 272.92 208.84 272.23 207 271.91C207.24 274.46 208.14 277.56 206.86 279.83C205.9 281.52 202.39 282.42 199.69 281.52C192.99 279.28 183.86 247.82 180.08 244.13C180.06 247.45 180.79 252.07 181.07 255.57C181.39 259.59 181.52 263.59 181.73 267.65C182.11 274.96 182.88 285.04 182.15 291.8ZM107.34 232C109.87 232.1 112.56 228.45 113.56 226.48C115.12 223.41 116.52 219.64 112.91 218.23C111.14 219.24 103.69 227.88 107.34 232ZM128.22 230.89C129.03 228.18 124.07 221.74 122.24 219.28C121.84 218.75 121.4 218.34 121.11 217.93C120.07 219.25 119.56 219.65 120.03 221.75C120.97 225.89 125.11 232.09 128.22 230.89ZM99.8999 198.5C100.4 197.92 100.45 197.82 100.44 196.89L96.6999 196.61C97.0599 197.02 96.7899 196.86 97.4899 197.29C97.4899 197.29 98.1599 197.63 98.3099 197.71C98.9999 198.08 99.2598 198.22 99.9099 198.5H99.8999Z" fill="#E95513"/>
<path fill-rule="evenodd" clip-rule="evenodd" d="M119.98 213.4L119.4 211.85L119.46 213.71L119.98 213.4Z" fill="#C7A894"/>
</svg>
