<svg width="216" height="266" viewBox="0 0 216 266" fill="none" xmlns="http://www.w3.org/2000/svg">
<path fill-rule="evenodd" clip-rule="evenodd" d="M51.26 191.32C50.67 195.58 48.62 200.54 47.33 204.65C42.8 219 40.62 231.96 37.8 246.91C34.9 262.27 31.4 273.72 27.38 288.21C26.17 292.57 24.59 297.11 23.46 301.35C28.83 302.14 32.28 302.43 36.51 304.83C40.97 307.35 42.03 308.92 48.69 308.65C53.44 308.46 57.99 307.56 62.2 306.14C75.02 301.84 79.48 302.92 92.19 306.77C97.06 308.24 102.4 309.44 107.79 309.38C119.12 309.26 128.17 303.39 138.26 303.39C149.82 303.39 153.84 308.35 166.52 308.66C173.04 308.82 174.23 307.19 178.58 304.71C182.99 302.19 185.8 302.18 191.39 301.35L183.71 274.72C177.47 252.53 176.17 238.21 171.27 218.16C169.64 211.49 164.03 194.29 163.59 191.32C159.35 191.93 155.25 189.73 150.93 188.92C131.19 185.23 83.21 185.14 63.63 188.98C59.42 189.81 55.51 191.91 51.28 191.32H51.26Z" fill="#E84D08"/>
<path fill-rule="evenodd" clip-rule="evenodd" d="M51.26 191.32C55.5 191.91 59.4 189.81 63.61 188.98C83.18 185.14 131.16 185.23 150.91 188.92C155.23 189.73 159.33 191.93 163.57 191.32C164.01 194.29 169.62 211.49 171.25 218.16C176.15 238.22 177.45 252.53 183.69 274.72L191.37 301.35C185.78 302.18 182.97 302.19 178.56 304.71C174.21 307.19 173.03 308.82 166.5 308.66C153.82 308.35 149.8 303.39 138.24 303.39C128.15 303.39 119.1 309.27 107.77 309.38C102.38 309.43 97.04 308.24 92.17 306.77C79.46 302.93 75 301.84 62.18 306.14C57.97 307.55 53.43 308.45 48.67 308.65C42.01 308.92 40.95 307.35 36.49 304.83C32.25 302.43 28.81 302.15 23.44 301.35C24.57 297.11 26.16 292.57 27.36 288.21C31.37 273.72 34.88 262.27 37.78 246.91C40.6 231.97 42.78 219 47.31 204.65C48.61 200.54 50.66 195.58 51.24 191.32H51.26ZM100.07 181.05C84.3 181.05 65.37 181.91 53.67 186.04L51.43 187.06C51.36 187.08 51.26 187.11 51.19 187.12C51.12 187.13 51.01 187.14 50.95 187.15C49.54 187.35 47.82 187.38 46.36 190.84L43.04 200.36C40.9 206.78 38.98 213.49 37.46 220.47C36.64 224.23 35.97 227.25 35.26 231.11L31.1 252.64C28.31 266.65 26.21 270.97 23.14 283.22C22.64 285.23 18.99 298.39 17.96 300.43C17.38 301.58 16.75 301.55 16.75 302.52C16.75 305.95 18.69 305.37 20.89 306.09C21.57 306.31 21.93 306.6 22.77 306.78C24.13 307.08 25.93 306.95 27.14 307.18C39.07 309.51 33.3 313.89 49.79 313.89C60.88 313.89 66.55 308.75 76.21 308.75C81.1 308.75 86.36 310.62 90.39 311.82C92.82 312.54 94.47 313.16 97.07 313.58C100.56 314.14 103.48 314.5 106.17 314.63H110.24C114.51 314.42 118.69 313.53 124.41 311.83C136.77 308.16 139.56 307.4 151.94 311.56C158.49 313.77 170.57 315.57 177.25 311.82C182.01 309.14 181.72 308.41 187.36 307.25C190.4 306.63 189.66 307.64 193.64 306.19C195.97 305.34 198.04 306.02 198.04 302.52C198.04 301.51 197.25 301.88 196.06 298.26C192.84 288.45 190.36 278.41 187.44 268.35C181.01 246.26 180.19 225.65 171.75 200.36L168.43 190.84C167.89 189.58 166.74 188.05 165.56 187.44C164.03 186.65 164.67 187.45 163.36 187.06C162.8 186.89 162.12 186.39 161.12 186.04C149.31 181.88 131.52 181.16 115.27 181.05H100.04H100.07Z" fill="#874623"/>
<path fill-rule="evenodd" clip-rule="evenodd" d="M51.26 191.32C50.67 195.58 48.62 200.54 47.33 204.65C42.8 219 40.62 231.96 37.8 246.91C34.9 262.27 31.4 273.72 27.38 288.21C26.17 292.57 24.59 297.11 23.46 301.35C28.83 302.14 32.28 302.43 36.51 304.83C40.97 307.35 42.03 308.92 48.69 308.65C53.44 308.46 57.99 307.56 62.2 306.14C75.02 301.84 79.48 302.92 92.19 306.77C97.06 308.24 102.4 309.44 107.79 309.38C119.12 309.26 128.17 303.39 138.26 303.39C149.82 303.39 153.84 308.35 166.52 308.66C173.04 308.82 174.23 307.19 178.58 304.71C182.99 302.19 185.8 302.18 191.39 301.35L183.71 274.72C177.47 252.53 176.17 238.21 171.27 218.16C169.64 211.49 164.03 194.29 163.59 191.32C159.35 191.93 155.25 189.73 150.93 188.92C131.19 185.23 83.21 185.14 63.63 188.98C59.42 189.81 55.51 191.91 51.28 191.32H51.26Z" fill="#E95513"/>
<path fill-rule="evenodd" clip-rule="evenodd" d="M51.26 191.32C55.5 191.91 59.4 189.81 63.61 188.98C83.18 185.14 131.16 185.23 150.91 188.92C155.23 189.73 159.33 191.93 163.57 191.32C164.01 194.29 169.62 211.49 171.25 218.16C176.15 238.22 177.45 252.53 183.69 274.72L191.37 301.35C185.78 302.18 182.97 302.19 178.56 304.71C174.21 307.19 173.03 308.82 166.5 308.66C153.82 308.35 149.8 303.39 138.24 303.39C128.15 303.39 119.1 309.27 107.77 309.38C102.38 309.43 97.04 308.24 92.17 306.77C79.46 302.93 75 301.84 62.18 306.14C57.97 307.55 53.43 308.45 48.67 308.65C42.01 308.92 40.95 307.35 36.49 304.83C32.25 302.43 28.81 302.15 23.44 301.35C24.57 297.11 26.16 292.57 27.36 288.21C31.37 273.72 34.88 262.27 37.78 246.91C40.6 231.97 42.78 219 47.31 204.65C48.61 200.54 50.66 195.58 51.24 191.32H51.26ZM100.07 181.05C84.3 181.05 65.37 181.91 53.67 186.04L51.43 187.06C51.36 187.08 51.26 187.11 51.19 187.12C51.12 187.13 51.01 187.14 50.95 187.15C49.54 187.35 47.82 187.38 46.36 190.84L43.04 200.36C40.9 206.78 38.98 213.49 37.46 220.47C36.64 224.23 35.97 227.25 35.26 231.11L31.1 252.64C28.31 266.65 26.21 270.97 23.14 283.22C22.64 285.23 18.99 298.39 17.96 300.43C17.38 301.58 16.75 301.55 16.75 302.52C16.75 305.95 18.69 305.37 20.89 306.09C21.57 306.31 21.93 306.6 22.77 306.78C24.13 307.08 25.93 306.95 27.14 307.18C39.07 309.51 33.3 313.89 49.79 313.89C60.88 313.89 66.55 308.75 76.21 308.75C81.1 308.75 86.36 310.62 90.39 311.82C92.82 312.54 94.47 313.16 97.07 313.58C100.56 314.14 103.48 314.5 106.17 314.63H110.24C114.51 314.42 118.69 313.53 124.41 311.83C136.77 308.16 139.56 307.4 151.94 311.56C158.49 313.77 170.57 315.57 177.25 311.82C182.01 309.14 181.72 308.41 187.36 307.25C190.4 306.63 189.66 307.64 193.64 306.19C195.97 305.34 198.04 306.02 198.04 302.52C198.04 301.51 197.25 301.88 196.06 298.26C192.84 288.45 190.36 278.41 187.44 268.35C181.01 246.26 180.19 225.65 171.75 200.36L168.43 190.84C167.89 189.58 166.74 188.05 165.56 187.44C164.03 186.65 164.67 187.45 163.36 187.06C162.8 186.89 162.12 186.39 161.12 186.04C149.31 181.88 131.52 181.16 115.27 181.05H100.04H100.07Z" fill="#874623"/>
<path fill-rule="evenodd" clip-rule="evenodd" d="M8.58997 236.46C11 236.63 12.13 237.9 13.62 238.86C17.38 241.28 19.84 241.93 23.19 243.98C24.09 244.53 24.55 245 25.38 245.44C26.79 246.19 26.67 245.63 27.38 247.14C29.21 245.54 41.57 226.72 44.79 223.03C45.76 221.93 46.63 220.78 47.55 219.54L57.65 205.8C58.65 204.2 60.88 199.24 61.1 197.13C61.44 193.82 59.12 190.48 56.45 189.79C50.84 188.33 52.12 190.31 48.61 192.35C46.01 193.86 35.64 202.97 32.57 206.02C26.6 211.96 23.51 214.59 17.96 221.49C15.63 224.4 9.58996 232.87 8.57996 236.44L8.58997 236.46Z" fill="#C7C8C8"/>
<path fill-rule="evenodd" clip-rule="evenodd" d="M27.39 247.15C25.56 251.93 18.73 261.73 11.28 257.38C10 256.63 8.37999 254.97 7.57999 253.73C4.59999 249.13 6.63001 240.18 8.60001 236.47C9.61001 232.91 15.65 224.43 17.98 221.52C23.53 214.61 26.62 211.99 32.59 206.05C35.66 203 46.03 193.89 48.63 192.38C52.15 190.33 50.86 188.35 56.47 189.82C59.13 190.51 61.46 193.86 61.12 197.16C60.9 199.27 58.67 204.22 57.67 205.83L47.57 219.57C46.64 220.8 45.77 221.95 44.81 223.06C41.59 226.75 29.23 245.57 27.4 247.17L27.39 247.15ZM54.34 184.35C53.57 184.46 52.77 184.68 51.94 185.03C48.28 186.54 52.17 183.93 46.75 187.18C41.03 190.61 43.36 189.24 38.53 193.27C36.6 194.88 36.27 195.75 32.92 198.3C31.27 199.56 30.5 200.16 28.97 201.69C20.74 209.95 15.46 214.53 8.84 224.5C5.09 230.14 0.619995 238.05 0.619995 245.27V247.85C0.659995 252.05 1.06999 255.43 4.73999 259.13C7.60999 262.02 10.6 263.59 13.61 263.99H16.7C19.84 263.59 22.99 261.97 26.04 259.31C28.67 257.01 33.79 247.26 38.17 242.08C44.09 235.08 43.93 232.11 50.45 224.64C52.26 222.57 60.95 210.92 62.86 207.69C66.19 202.09 68.69 193.82 63.66 188.47C61.63 186.31 59.38 184.74 56.83 184.35H54.34Z" fill="#874623"/>
<path fill-rule="evenodd" clip-rule="evenodd" d="M27.3901 247.15C26.6801 245.65 26.8001 246.2 25.3901 245.45C24.5601 245.01 24.09 244.53 23.2001 243.99C19.85 241.94 17.39 241.29 13.63 238.87C12.14 237.91 11.01 236.63 8.60004 236.47C6.64004 240.18 4.61003 249.13 7.58003 253.73C8.38003 254.97 10 256.64 11.28 257.38C18.73 261.73 25.5701 251.93 27.3901 247.15Z" fill="#F8D3D5"/>
<path fill-rule="evenodd" clip-rule="evenodd" d="M8.58997 236.46C11 236.63 12.13 237.9 13.62 238.86C17.38 241.28 19.84 241.93 23.19 243.98C24.09 244.53 24.55 245 25.38 245.44C26.79 246.19 26.67 245.63 27.38 247.14C29.21 245.54 41.57 226.72 44.79 223.03C45.76 221.93 46.63 220.78 47.55 219.54L57.65 205.8C58.65 204.2 60.88 199.24 61.1 197.13C61.44 193.82 59.12 190.48 56.45 189.79C50.84 188.33 52.12 190.31 48.61 192.35C46.01 193.86 35.64 202.97 32.57 206.02C26.6 211.96 23.51 214.59 17.96 221.49C15.63 224.4 9.58996 232.87 8.57996 236.44L8.58997 236.46Z" fill="#C7C8C8"/>
<path fill-rule="evenodd" clip-rule="evenodd" d="M27.39 247.15C25.56 251.93 18.73 261.73 11.28 257.38C10 256.63 8.37999 254.97 7.57999 253.73C4.59999 249.13 6.63001 240.18 8.60001 236.47C9.61001 232.91 15.65 224.43 17.98 221.52C23.53 214.61 26.62 211.99 32.59 206.05C35.66 203 46.03 193.89 48.63 192.38C52.15 190.33 50.86 188.35 56.47 189.82C59.13 190.51 61.46 193.86 61.12 197.16C60.9 199.27 58.67 204.22 57.67 205.83L47.57 219.57C46.64 220.8 45.77 221.95 44.81 223.06C41.59 226.75 29.23 245.57 27.4 247.17L27.39 247.15ZM54.34 184.35C53.57 184.46 52.77 184.68 51.94 185.03C48.28 186.54 52.17 183.93 46.75 187.18C41.03 190.61 43.36 189.24 38.53 193.27C36.6 194.88 36.27 195.75 32.92 198.3C31.27 199.56 30.5 200.16 28.97 201.69C20.74 209.95 15.46 214.53 8.84 224.5C5.09 230.14 0.619995 238.05 0.619995 245.27V247.85C0.659995 252.05 1.06999 255.43 4.73999 259.13C7.60999 262.02 10.6 263.59 13.61 263.99H16.7C19.84 263.59 22.99 261.97 26.04 259.31C28.67 257.01 33.79 247.26 38.17 242.08C44.09 235.08 43.93 232.11 50.45 224.64C52.26 222.57 60.95 210.92 62.86 207.69C66.19 202.09 68.69 193.82 63.66 188.47C61.63 186.31 59.38 184.74 56.83 184.35H54.34Z" fill="#874623"/>
<path fill-rule="evenodd" clip-rule="evenodd" d="M27.3901 247.15C26.6801 245.65 26.8001 246.2 25.3901 245.45C24.5601 245.01 24.09 244.53 23.2001 243.99C19.85 241.94 17.39 241.29 13.63 238.87C12.14 237.91 11.01 236.63 8.60004 236.47C6.64004 240.18 4.61003 249.13 7.58003 253.73C8.38003 254.97 10 256.64 11.28 257.38C18.73 261.73 25.5701 251.93 27.3901 247.15Z" fill="#FAD9D0"/>
<path fill-rule="evenodd" clip-rule="evenodd" d="M187.7 246.37L197.2 241.11C202.23 238.66 204.38 235.61 207.13 236.84C205.29 231.64 197.31 220.05 192.52 215.6C187.97 211.37 182.59 204.81 177.41 200.99C173.73 198.28 172.24 196.05 171.11 195.18C167.02 192.04 167.9 193.27 164.48 190.03C162.59 188.24 155.03 189.58 154.59 196.16C154.32 200.14 159.56 208.65 162.46 211.89C164.39 214.05 165.75 216.38 167.64 218.83C169.46 221.2 170.95 223.01 172.87 225.34C174.75 227.61 175.82 230.2 177.62 232.7L187.71 246.37H187.7Z" fill="#C7C8C8"/>
<path fill-rule="evenodd" clip-rule="evenodd" d="M207.12 236.83C209.84 241.56 212.02 253.78 203.85 257.66C196.27 261.27 190.23 251.87 187.69 246.36L177.6 232.69C175.8 230.19 174.73 227.6 172.85 225.33C170.93 223 169.44 221.19 167.62 218.82C165.74 216.37 164.38 214.04 162.44 211.88C159.54 208.64 154.3 200.13 154.57 196.15C155.01 189.57 162.57 188.23 164.46 190.02C167.88 193.26 167.01 192.04 171.09 195.17C172.22 196.04 173.71 198.26 177.39 200.98C182.57 204.8 187.95 211.36 192.5 215.59C197.29 220.04 205.26 231.62 207.11 236.83H207.12ZM149.25 195.36C149.25 199.93 150.92 204.5 153.21 208.28C154.28 210.05 154.97 211.07 156.17 212.66C160.85 218.92 168 227.43 171.8 233.73C172.29 234.54 172.75 235.23 173.19 236.02C175.88 240.86 172.26 235.18 175.83 239.98C176.5 240.88 176.9 241.1 177.52 241.96L186.58 254.92C190.62 259.86 191.85 263.98 201.74 263.98C204.26 263.98 206.86 262.5 208.35 261.42C214.69 256.84 216.31 249.78 214.56 241.62C212.26 230.88 205.96 222.93 199.79 215.29C199 214.31 198.49 213.57 197.62 212.69C196.02 211.07 194.64 209.73 193.02 208.11C190.09 205.18 186.95 201.47 183.7 199.08C179.67 196.11 175.66 191.56 174.06 190.37C172.12 188.92 167.8 185.91 165.4 185.45C161.36 184.67 165.16 184.36 159.44 184.35H159.16C153.8 184.35 149.25 191.31 149.25 195.36Z" fill="#874623"/>
<path fill-rule="evenodd" clip-rule="evenodd" d="M187.7 246.37C190.24 251.88 196.28 261.28 203.86 257.67C212.03 253.78 209.85 241.57 207.13 236.84C204.38 235.62 202.23 238.67 197.2 241.11L187.7 246.37Z" fill="#F8D3D5"/>
<path fill-rule="evenodd" clip-rule="evenodd" d="M173.84 239.41L173.95 239.3C173.95 239.3 173.8 239.37 173.84 239.41Z" fill="#874623"/>
<path fill-rule="evenodd" clip-rule="evenodd" d="M187.7 246.37L197.2 241.11C202.23 238.66 204.38 235.61 207.13 236.84C205.29 231.64 197.31 220.05 192.52 215.6C187.97 211.37 182.59 204.81 177.41 200.99C173.73 198.28 172.24 196.05 171.11 195.18C167.02 192.04 167.9 193.27 164.48 190.03C162.59 188.24 155.03 189.58 154.59 196.16C154.32 200.14 159.56 208.65 162.46 211.89C164.39 214.05 165.75 216.38 167.64 218.83C169.46 221.2 170.95 223.01 172.87 225.34C174.75 227.61 175.82 230.2 177.62 232.7L187.71 246.37H187.7Z" fill="#C7C8C8"/>
<path fill-rule="evenodd" clip-rule="evenodd" d="M207.12 236.83C209.84 241.56 212.02 253.78 203.85 257.66C196.27 261.27 190.23 251.87 187.69 246.36L177.6 232.69C175.8 230.19 174.73 227.6 172.85 225.33C170.93 223 169.44 221.19 167.62 218.82C165.74 216.37 164.38 214.04 162.44 211.88C159.54 208.64 154.3 200.13 154.57 196.15C155.01 189.57 162.57 188.23 164.46 190.02C167.88 193.26 167.01 192.04 171.09 195.17C172.22 196.04 173.71 198.26 177.39 200.98C182.57 204.8 187.95 211.36 192.5 215.59C197.29 220.04 205.26 231.62 207.11 236.83H207.12ZM149.25 195.36C149.25 199.93 150.92 204.5 153.21 208.28C154.28 210.05 154.97 211.07 156.17 212.66C160.85 218.92 168 227.43 171.8 233.73C172.29 234.54 172.75 235.23 173.19 236.02C175.88 240.86 172.26 235.18 175.83 239.98C176.5 240.88 176.9 241.1 177.52 241.96L186.58 254.92C190.62 259.86 191.85 263.98 201.74 263.98C204.26 263.98 206.86 262.5 208.35 261.42C214.69 256.84 216.31 249.78 214.56 241.62C212.26 230.88 205.96 222.93 199.79 215.29C199 214.31 198.49 213.57 197.62 212.69C196.02 211.07 194.64 209.73 193.02 208.11C190.09 205.18 186.95 201.47 183.7 199.08C179.67 196.11 175.66 191.56 174.06 190.37C172.12 188.92 167.8 185.91 165.4 185.45C161.36 184.67 165.16 184.36 159.44 184.35H159.16C153.8 184.35 149.25 191.31 149.25 195.36Z" fill="#874623"/>
<path fill-rule="evenodd" clip-rule="evenodd" d="M187.7 246.37C190.24 251.88 196.28 261.28 203.86 257.67C212.03 253.78 209.85 241.57 207.13 236.84C204.38 235.62 202.23 238.67 197.2 241.11L187.7 246.37Z" fill="#FAD9D0"/>
<path fill-rule="evenodd" clip-rule="evenodd" d="M173.84 239.41L173.95 239.3C173.95 239.3 173.8 239.37 173.84 239.41Z" fill="#874623"/>
<path fill-rule="evenodd" clip-rule="evenodd" d="M60.5401 200.84C57.1201 206.92 56.36 224.95 56.36 233.17C56.36 245.29 56.0101 255.35 59.9101 266.35C61.1501 269.86 64.5301 276.37 66.4501 278.17C68.9901 280.56 68.22 280.13 71.35 282.45C88.41 295.03 118.44 295.93 137.13 286.38C140.24 284.79 142.89 283.04 145.39 281.05C147.78 279.15 150.1 276.1 151.68 273.4C152.62 271.8 153.82 269.11 154.61 267.15C158.61 257.29 158.55 245.58 158.56 234.26C158.56 225.57 157.67 208.38 154.63 201.17C144.91 204.27 128.19 203.98 117.76 200.06C116.09 199.43 114.48 198.79 112.85 198C111.19 197.19 109.3 195.86 108.01 195.4C104.18 198.92 93.37 202.06 87 202.82C79.07 203.76 67.6501 203.09 60.5401 200.83V200.84Z" fill="#F8D3D6"/>
<path fill-rule="evenodd" clip-rule="evenodd" d="M154.64 201.18C157.68 208.38 158.58 225.58 158.57 234.27C158.56 245.59 158.62 257.29 154.62 267.16C153.83 269.12 152.63 271.81 151.69 273.41C150.11 276.11 147.79 279.16 145.4 281.06C142.9 283.05 140.25 284.8 137.14 286.39C118.45 295.94 88.41 295.04 71.36 282.46C68.22 280.15 69 280.58 66.46 278.18C64.55 276.38 61.17 269.87 59.92 266.36C56.02 255.36 56.37 245.3 56.37 233.18C56.37 224.96 57.13 206.93 60.55 200.85C56.78 199.77 54.9 198.67 52 197.23C49.21 201.07 47.91 218.86 47.47 225.07C45.98 245.96 47.8 265.09 51.31 285.27C53.18 296.05 53.43 304.14 52.2 315.08C51.16 324.4 50.76 337.04 57.12 341.47C61.12 344.26 65.77 343.61 69.84 341.66C74.03 339.65 75.52 337.49 77.07 332.76C79.84 324.31 81.72 315.71 83.47 306.85C84.74 300.39 83.88 297.84 90.99 298.68C95.96 299.27 118.22 299.49 122.86 298.9C130.4 297.95 130.51 298.01 131.86 305.28C133.5 314.14 135.44 322.96 138.08 331.33C139.57 336.06 140.81 338.93 144.54 341.01C148.46 343.19 152.7 344.52 157.32 342.16C164.68 338.41 164.56 326.15 163.57 316.47C160.66 288.19 166.63 282.62 167.97 257.75C168.54 247.19 168.82 236.57 168.22 225.9C167.92 220.63 166.16 201.41 163.94 197.69C161.28 198.61 159.62 200.1 154.64 201.17V201.18Z" fill="#C7C8C8"/>
<path fill-rule="evenodd" clip-rule="evenodd" d="M60.54 200.84C67.65 203.1 79.07 203.78 87 202.83C93.37 202.07 104.18 198.94 108.01 195.41C109.3 195.87 111.19 197.2 112.85 198.01C114.47 198.8 116.09 199.44 117.76 200.07C128.19 203.99 144.92 204.28 154.63 201.18C159.61 200.11 161.27 198.62 163.93 197.7C166.15 201.42 167.91 220.63 168.21 225.91C168.81 236.58 168.53 247.2 167.96 257.76C166.62 282.62 160.65 288.2 163.56 316.48C164.56 326.16 164.68 338.41 157.31 342.17C152.68 344.53 148.45 343.2 144.53 341.02C140.8 338.94 139.56 336.06 138.07 331.34C135.43 322.97 133.49 314.15 131.85 305.29C130.5 298.02 130.39 297.96 122.85 298.91C118.21 299.49 95.95 299.27 90.98 298.69C83.87 297.85 84.7301 300.4 83.4601 306.86C81.7101 315.72 79.83 324.31 77.06 332.77C75.51 337.5 74.0201 339.66 69.83 341.67C65.76 343.62 61.12 344.27 57.11 341.48C50.76 337.05 51.15 324.41 52.19 315.09C53.42 304.15 53.17 296.06 51.3 285.28C47.79 265.1 45.97 245.97 47.46 225.08C47.9 218.87 49.2 201.08 51.99 197.24C54.89 198.68 56.76 199.78 60.54 200.86V200.84ZM53.33 191.69C62.17 198.87 83.03 199.5 95.76 195.48C99.08 194.43 106.1 190.32 107.79 190.23C112.5 189.97 116.94 197.24 134.2 197.94C139.8 198.17 144.88 197.7 150.25 196.72C156.31 195.6 158.19 194.26 162.85 192.16C162.54 190.32 162.7 189.86 161.5 189.01C160.74 188.47 159.68 187.89 158.75 187.35C143.33 178.42 126.51 175.36 108.53 175.34C95.9601 175.33 88.23 175.88 76.8301 179.07C70.9801 180.71 63.04 183.86 57.8 186.84C55.09 188.38 53.88 188.31 53.34 191.7L53.33 191.69ZM47.59 303.63C47.59 310.05 46.12 315.6 46.12 322.35C46.12 328.11 45.65 331.73 47.74 337.25C50.35 344.16 55.38 349.14 63.37 349.14C68.16 349.14 73.34 346.43 76.17 344.32C82.06 339.94 83.39 330.41 85.81 322.76C87.53 317.29 88.48 309.65 89.8 304C92.3 304.58 93.08 304.47 95.99 304.79H119.59C122.5 304.47 123.28 304.58 125.78 304C126.33 306.36 126.87 308.79 127.3 311.29C128.38 317.65 130.84 326.42 132.68 332.7C134.81 340 137.57 344.44 144.81 347.36C148.73 348.94 152.19 349.73 156.67 348.47C158.05 348.08 159.18 347.52 160.29 346.95C167.44 343.23 169.83 333.55 169.83 324.92C169.83 321.55 169.27 319.37 169.11 316.47C168.93 313.17 168.37 311.08 168.37 307.67C168.37 292.16 168.81 293.67 171.26 278.99C172.6 270.95 172.41 269.04 173.25 262.63C173.45 261.09 173.39 258.64 173.67 256.81L174.25 245.28C174.19 233.93 173.51 221.54 172.07 211.12C170.84 202.25 169.33 194.37 166.14 186.59C165.46 184.93 164.45 184.48 162.95 183.54L154.93 179.08C144.44 174.08 126.92 169.67 115.16 169.67C97.65 169.67 95.51 168.98 78.73 172.88C73.95 173.99 51.08 181.54 49.21 187.04C46.34 195.51 44.42 202.86 43.29 212.31C42.83 216.17 42.41 219.16 42.09 223.23C41.8 226.96 41.31 230.9 41.37 235.02C41.4 237.22 41.77 238.3 41.75 240.88C41.67 256.14 42.16 266.57 44.84 281.47C45.19 283.4 45.52 284.77 45.89 286.66L47.26 297.77C47.37 300.13 47.63 301.49 47.63 303.64L47.59 303.63Z" fill="#874623"/>
<path fill-rule="evenodd" clip-rule="evenodd" d="M53.3301 191.69C62.1701 198.87 83.0301 199.5 95.7601 195.48C99.0801 194.43 106.1 190.32 107.79 190.23C112.5 189.97 116.94 197.24 134.2 197.94C139.8 198.17 144.88 197.7 150.25 196.72C156.31 195.6 158.19 194.26 162.85 192.16C162.54 190.32 162.7 189.86 161.5 189.01C160.74 188.47 159.68 187.89 158.75 187.35C143.33 178.42 126.51 175.36 108.53 175.34C95.9601 175.33 88.2301 175.88 76.8301 179.07C70.9801 180.71 63.0401 183.86 57.8001 186.84C55.0901 188.38 53.8801 188.31 53.3401 191.7L53.3301 191.69Z" fill="#E65008"/>
<path fill-rule="evenodd" clip-rule="evenodd" d="M60.5401 200.84C57.1201 206.92 56.36 224.95 56.36 233.17C56.36 245.29 56.0101 255.35 59.9101 266.35C61.1501 269.86 64.5301 276.37 66.4501 278.17C68.9901 280.56 68.22 280.13 71.35 282.45C88.41 295.03 118.44 295.93 137.13 286.38C140.24 284.79 142.89 283.04 145.39 281.05C147.78 279.15 150.1 276.1 151.68 273.4C152.62 271.8 153.82 269.11 154.61 267.15C158.61 257.29 158.55 245.58 158.56 234.26C158.56 225.57 157.67 208.38 154.63 201.17C144.91 204.27 128.19 203.98 117.76 200.06C116.09 199.43 114.48 198.79 112.85 198C111.19 197.19 109.3 195.86 108.01 195.4C104.18 198.92 93.37 202.06 87 202.82C79.07 203.76 67.6501 203.09 60.5401 200.83V200.84Z" fill="#FAD9D0"/>
<path fill-rule="evenodd" clip-rule="evenodd" d="M154.64 201.18C157.68 208.38 158.58 225.58 158.57 234.27C158.56 245.59 158.62 257.29 154.62 267.16C153.83 269.12 152.63 271.81 151.69 273.41C150.11 276.11 147.79 279.16 145.4 281.06C142.9 283.05 140.25 284.8 137.14 286.39C118.45 295.94 88.41 295.04 71.36 282.46C68.22 280.15 69 280.58 66.46 278.18C64.55 276.38 61.17 269.87 59.92 266.36C56.02 255.36 56.37 245.3 56.37 233.18C56.37 224.96 57.13 206.93 60.55 200.85C56.78 199.77 54.9 198.67 52 197.23C49.21 201.07 47.91 218.86 47.47 225.07C45.98 245.96 47.8 265.09 51.31 285.27C53.18 296.05 53.43 304.14 52.2 315.08C51.16 324.4 50.76 337.04 57.12 341.47C61.12 344.26 65.77 343.61 69.84 341.66C74.03 339.65 75.52 337.49 77.07 332.76C79.84 324.31 81.72 315.71 83.47 306.85C84.74 300.39 83.88 297.84 90.99 298.68C95.96 299.27 118.22 299.49 122.86 298.9C130.4 297.95 130.51 298.01 131.86 305.28C133.5 314.14 135.44 322.96 138.08 331.33C139.57 336.06 140.81 338.93 144.54 341.01C148.46 343.19 152.7 344.52 157.32 342.16C164.68 338.41 164.56 326.15 163.57 316.47C160.66 288.19 166.63 282.62 167.97 257.75C168.54 247.19 168.82 236.57 168.22 225.9C167.92 220.63 166.16 201.41 163.94 197.69C161.28 198.61 159.62 200.1 154.64 201.17V201.18Z" fill="#C7C8C8"/>
<path fill-rule="evenodd" clip-rule="evenodd" d="M60.54 200.84C67.65 203.1 79.07 203.78 87 202.83C93.37 202.07 104.18 198.94 108.01 195.41C109.3 195.87 111.19 197.2 112.85 198.01C114.47 198.8 116.09 199.44 117.76 200.07C128.19 203.99 144.92 204.28 154.63 201.18C159.61 200.11 161.27 198.62 163.93 197.7C166.15 201.42 167.91 220.63 168.21 225.91C168.81 236.58 168.53 247.2 167.96 257.76C166.62 282.62 160.65 288.2 163.56 316.48C164.56 326.16 164.68 338.41 157.31 342.17C152.68 344.53 148.45 343.2 144.53 341.02C140.8 338.94 139.56 336.06 138.07 331.34C135.43 322.97 133.49 314.15 131.85 305.29C130.5 298.02 130.39 297.96 122.85 298.91C118.21 299.49 95.95 299.27 90.98 298.69C83.87 297.85 84.7301 300.4 83.4601 306.86C81.7101 315.72 79.83 324.31 77.06 332.77C75.51 337.5 74.0201 339.66 69.83 341.67C65.76 343.62 61.12 344.27 57.11 341.48C50.76 337.05 51.15 324.41 52.19 315.09C53.42 304.15 53.17 296.06 51.3 285.28C47.79 265.1 45.97 245.97 47.46 225.08C47.9 218.87 49.2 201.08 51.99 197.24C54.89 198.68 56.76 199.78 60.54 200.86V200.84ZM53.33 191.69C62.17 198.87 83.03 199.5 95.76 195.48C99.08 194.43 106.1 190.32 107.79 190.23C112.5 189.97 116.94 197.24 134.2 197.94C139.8 198.17 144.88 197.7 150.25 196.72C156.31 195.6 158.19 194.26 162.85 192.16C162.54 190.32 162.7 189.86 161.5 189.01C160.74 188.47 159.68 187.89 158.75 187.35C143.33 178.42 126.51 175.36 108.53 175.34C95.9601 175.33 88.23 175.88 76.8301 179.07C70.9801 180.71 63.04 183.86 57.8 186.84C55.09 188.38 53.88 188.31 53.34 191.7L53.33 191.69ZM47.59 303.63C47.59 310.05 46.12 315.6 46.12 322.35C46.12 328.11 45.65 331.73 47.74 337.25C50.35 344.16 55.38 349.14 63.37 349.14C68.16 349.14 73.34 346.43 76.17 344.32C82.06 339.94 83.39 330.41 85.81 322.76C87.53 317.29 88.48 309.65 89.8 304C92.3 304.58 93.08 304.47 95.99 304.79H119.59C122.5 304.47 123.28 304.58 125.78 304C126.33 306.36 126.87 308.79 127.3 311.29C128.38 317.65 130.84 326.42 132.68 332.7C134.81 340 137.57 344.44 144.81 347.36C148.73 348.94 152.19 349.73 156.67 348.47C158.05 348.08 159.18 347.52 160.29 346.95C167.44 343.23 169.83 333.55 169.83 324.92C169.83 321.55 169.27 319.37 169.11 316.47C168.93 313.17 168.37 311.08 168.37 307.67C168.37 292.16 168.81 293.67 171.26 278.99C172.6 270.95 172.41 269.04 173.25 262.63C173.45 261.09 173.39 258.64 173.67 256.81L174.25 245.28C174.19 233.93 173.51 221.54 172.07 211.12C170.84 202.25 169.33 194.37 166.14 186.59C165.46 184.93 164.45 184.48 162.95 183.54L154.93 179.08C144.44 174.08 126.92 169.67 115.16 169.67C97.65 169.67 95.51 168.98 78.73 172.88C73.95 173.99 51.08 181.54 49.21 187.04C46.34 195.51 44.42 202.86 43.29 212.31C42.83 216.17 42.41 219.16 42.09 223.23C41.8 226.96 41.31 230.9 41.37 235.02C41.4 237.22 41.77 238.3 41.75 240.88C41.67 256.14 42.16 266.57 44.84 281.47C45.19 283.4 45.52 284.77 45.89 286.66L47.26 297.77C47.37 300.13 47.63 301.49 47.63 303.64L47.59 303.63Z" fill="#874623"/>
<path fill-rule="evenodd" clip-rule="evenodd" d="M53.3301 191.69C62.1701 198.87 83.0301 199.5 95.7601 195.48C99.0801 194.43 106.1 190.32 107.79 190.23C112.5 189.97 116.94 197.24 134.2 197.94C139.8 198.17 144.88 197.7 150.25 196.72C156.31 195.6 158.19 194.26 162.85 192.16C162.54 190.32 162.7 189.86 161.5 189.01C160.74 188.47 159.68 187.89 158.75 187.35C143.33 178.42 126.51 175.36 108.53 175.34C95.9601 175.33 88.2301 175.88 76.8301 179.07C70.9801 180.71 63.0401 183.86 57.8001 186.84C55.0901 188.38 53.8801 188.31 53.3401 191.7L53.3301 191.69Z" fill="#E95513"/>
<path fill-rule="evenodd" clip-rule="evenodd" d="M163.75 144.77C167.47 142.19 169.79 148.61 166.52 150.25C163.48 151.78 159.85 147.48 163.75 144.77ZM139.25 144.19C144.21 142.5 144.64 149.99 141.1 150.96C136.55 152.22 134.86 145.68 139.25 144.19ZM49.82 144.65C53.47 142.43 56.33 148.13 52.68 150.19C49.22 152.14 46.59 146.62 49.82 144.65ZM74.83 144.29C78.53 142.22 82.02 148.54 78.11 150.68C74.17 152.83 70.8 146.55 74.83 144.29ZM154.45 131.79C158.11 130.17 160.37 135.88 156.19 137.73C152.63 139.3 150.26 133.65 154.45 131.79ZM59.88 131.88C64.12 130.04 65.91 136.51 62.29 137.79C59.19 138.89 55.55 133.76 59.88 131.88ZM33.94 125.12C24.4 139.65 30.86 163.4 46.67 172.05C63.88 181.47 84.84 169.26 103.28 167.69C123.67 165.95 143.43 179.26 161.92 174.63C180.78 169.91 189.65 147.26 184.06 130.11C182.81 126.27 178.81 123.09 178.33 128.7C177.9 133.69 180.25 138.49 179.69 144.14C178.74 153.74 175.9 160.61 167.69 166.08C152.45 176.23 129.37 163.38 111.62 162.19C92.09 160.88 68.41 173.79 53.16 168.86C25.75 160.01 41.61 130.42 33.94 125.12ZM137.3 121.18C139.52 120.66 143.51 120.92 145.26 122.67C148.86 126.27 141.28 125.82 139.73 126.03C137.95 126.28 133.63 129.77 132.45 126.6C131.38 123.71 135.06 121.71 137.3 121.18ZM74.67 121.03C85.43 119.94 85.08 130.58 78.94 127.33C75.14 125.32 71.47 126.3 70.37 125.57C67.26 123.51 72.62 121.24 74.67 121.03ZM27.72 132.61C25.89 149.92 29.93 171.96 46.16 181.75C57.99 188.88 95.1 186.03 109.24 186.4C123.02 186.76 160.31 188.7 171.13 180.54C185.92 169.39 191.17 147.56 187.36 130.04C171.54 101.58 153.65 112.4 134 96.8601C124.91 89.6701 120.07 81.8001 116.9 70.6901C115.75 66.6401 113.05 56.9901 112.67 53.2101C112.27 49.2601 112.28 36.0101 111.06 33.5801H104.87C104.07 35.2801 102.11 63.0401 99.31 72.0601C95.96 82.8301 90.71 91.5101 81.21 97.9501C55.39 115.44 49.7 98.9301 27.72 132.62V132.61Z" fill="#F8D3D5"/>
<path fill-rule="evenodd" clip-rule="evenodd" d="M71.7299 62.3202C86.7299 59.4402 89.03 89.3702 75.06 91.5502C58.42 94.1502 58.4699 64.8702 71.7299 62.3202ZM27.72 132.61C49.7 98.9202 55.39 115.43 81.21 97.9402C90.71 91.5002 95.96 82.8202 99.31 72.0502C102.11 63.0302 104.07 35.2702 104.87 33.5702L70.7 35.1602C67.09 30.4602 69.2699 21.9102 63.5399 14.2602C59.1799 8.44023 51.75 4.05021 44.56 7.74021C29.9 15.2402 33.67 35.8502 45.03 44.1802C53.07 50.0702 46.49 82.2602 42.79 91.1002C36.22 106.75 30.81 115.09 27.73 132.62L27.72 132.61Z" fill="#C7C8C8"/>
<path fill-rule="evenodd" clip-rule="evenodd" d="M140.27 62.4604C154.76 58.1204 159.98 87.5004 146.06 91.2704C129.75 95.6904 127.29 66.3504 140.27 62.4604ZM111.06 33.5704C112.28 36.0004 112.27 49.2504 112.67 53.2004C113.05 56.9804 115.74 66.6204 116.9 70.6804C120.07 81.7904 124.91 89.6604 134 96.8504C153.65 112.39 171.53 101.57 187.36 130.03C185.05 114.38 177.65 103.58 172.2 89.4704C169.33 82.0404 168.51 74.3004 167.71 66.4304C166.88 58.2204 164.76 48.9904 171.2 43.7204C182.04 34.8504 185.5 14.9804 171.01 7.7404C164.01 4.2404 156.46 8.3204 152.17 14.0604C146.82 21.2204 149.06 29.1904 145.21 34.9704L111.06 33.5904V33.5704Z" fill="#C7C8C8"/>
<path fill-rule="evenodd" clip-rule="evenodd" d="M187.35 130.03C191.17 147.55 185.91 169.38 171.12 180.53C160.29 188.7 123 186.75 109.23 186.39C95.09 186.02 57.98 188.87 46.15 181.74C29.93 171.96 25.89 149.91 27.71 132.6C30.79 115.07 36.2 106.73 42.77 91.0802C46.48 82.2402 53.05 50.0502 45.01 44.1602C33.65 35.8302 29.88 15.2302 44.54 7.72019C51.74 4.04019 59.16 8.42018 63.5201 14.2402C69.25 21.8902 67.07 30.4402 70.68 35.1402L104.85 33.5502H111.04L145.19 34.9302C149.04 29.1602 146.8 21.1802 152.15 14.0202C156.44 8.29017 163.98 4.2002 170.99 7.7002C185.48 14.9502 182.02 34.8102 171.18 43.6802C164.74 48.9502 166.86 58.1802 167.69 66.3902C168.49 74.2602 169.31 82.0002 172.18 89.4302C177.62 103.54 185.03 114.35 187.34 129.99L187.35 130.03ZM194.03 138.47C193.18 124.54 188.19 110.55 182.02 97.6402C175.92 84.8702 172.91 72.5402 172.21 58.3202C171.36 41.0802 185.53 44.1902 186.15 24.5502C186.97 -1.73983 147.8 -13.6698 141.55 29.4802L74.39 28.5102V29.4802C68.16 -12.6798 29.21 -2.47981 29.46 23.9402C29.64 43.7302 43.73 41.1102 43.42 57.3502C43.16 71.0702 39.71 84.8602 33.8 97.1602C27.98 109.27 23.24 122.25 21.91 135.25V149.33C22.83 157.68 25.52 165.92 30.61 173.82C45.96 197.66 83.56 192.21 108.17 192.12C133.24 192.03 169.05 198.1 185 173.85C190.72 165.15 193.44 155.99 194.04 146.7V138.47H194.03Z" fill="#874623"/>
<path fill-rule="evenodd" clip-rule="evenodd" d="M33.94 125.12C24.4 139.65 30.86 163.4 46.67 172.05C63.88 181.47 84.84 169.26 103.28 167.69C123.67 165.95 143.43 179.26 161.92 174.63C180.78 169.91 189.65 147.26 184.06 130.11C182.81 126.27 178.81 123.09 178.33 128.7C177.9 133.69 180.25 138.49 179.69 144.14C178.74 153.74 175.9 160.61 167.69 166.08C152.45 176.23 129.37 163.38 111.62 162.19C92.09 160.88 68.41 173.79 53.16 168.86C25.75 160.01 41.61 130.42 33.94 125.12Z" fill="#874623"/>
<path fill-rule="evenodd" clip-rule="evenodd" d="M136.08 80.1202C133.75 64.9302 147.55 59.3402 150.3 73.5702C153.5 90.1902 137.98 92.4802 136.08 80.1202ZM140.27 62.4602C127.28 66.3502 129.74 95.6902 146.06 91.2702C159.98 87.5002 154.77 58.1202 140.27 62.4602Z" fill="white"/>
<path fill-rule="evenodd" clip-rule="evenodd" d="M71.26 65.8C81.55 62.07 83.72 84.9301 75.2 87.5701C63.54 91.1801 62.81 68.86 71.26 65.8ZM71.73 62.3201C58.46 64.8701 58.41 94.14 75.06 91.55C89.03 89.37 86.73 59.4401 71.73 62.3201Z" fill="white"/>
<path fill-rule="evenodd" clip-rule="evenodd" d="M139.79 73.8401C140.21 71.8501 141.34 69.5701 143.38 69.1001C147.89 70.3601 148.47 81.6801 144.17 84.1601C140.96 84.1601 140.14 82.0101 139.67 78.9901C139.42 77.0701 139.27 75.7301 139.79 73.8401ZM136.08 80.1201C137.98 92.4801 153.5 90.1901 150.3 73.5701C147.56 59.3501 133.75 64.9401 136.08 80.1201Z" fill="#874623"/>
<path fill-rule="evenodd" clip-rule="evenodd" d="M69.72 79.3399C68.99 78.2899 69.23 75.4699 69.84 74.1099C69.92 71.7199 70.83 69.4599 73.29 69.1099C78.39 71.2099 78.52 84.85 71.88 84.0599C70.18 82.9599 69.4 81.3699 69.72 79.3399ZM71.26 65.7999C62.81 68.8599 63.53 91.18 75.2 87.57C83.72 84.93 81.55 62.0699 71.26 65.7999Z" fill="#874623"/>
<path fill-rule="evenodd" clip-rule="evenodd" d="M139.79 73.8401L143.21 76.2201L139.67 78.9901C140.14 82.0101 140.96 84.1501 144.17 84.1601C148.47 81.6801 147.89 70.3601 143.38 69.1001C141.34 69.5701 140.21 71.8501 139.79 73.8401Z" fill="#381908"/>
<path fill-rule="evenodd" clip-rule="evenodd" d="M69.8401 74.1101C70.3001 74.3701 73.14 76.8301 73.47 77.3401L69.72 79.3501C69.4 81.3801 70.1801 82.9701 71.8801 84.0701C78.5201 84.8501 78.4 71.2101 73.29 69.1201C70.82 69.4601 69.9201 71.7301 69.8401 74.1201V74.1101Z" fill="#381908"/>
<path fill-rule="evenodd" clip-rule="evenodd" d="M74.67 121.03C72.62 121.24 67.26 123.51 70.37 125.57C71.47 126.3 75.14 125.33 78.94 127.33C85.09 130.57 85.43 119.93 74.67 121.03Z" fill="#874623"/>
<path fill-rule="evenodd" clip-rule="evenodd" d="M137.3 121.18C135.05 121.71 131.38 123.71 132.45 126.6C133.63 129.77 137.95 126.27 139.73 126.03C141.28 125.82 148.86 126.27 145.26 122.67C143.52 120.92 139.52 120.66 137.3 121.18Z" fill="#874623"/>
<path fill-rule="evenodd" clip-rule="evenodd" d="M139.25 144.19C134.86 145.69 136.55 152.22 141.1 150.96C144.64 149.98 144.21 142.49 139.25 144.19Z" fill="#D7A0A1"/>
<path fill-rule="evenodd" clip-rule="evenodd" d="M74.8301 144.29C70.8001 146.55 74.17 152.83 78.11 150.68C82.0201 148.54 78.5301 142.22 74.8301 144.29Z" fill="#D7A0A1"/>
<path fill-rule="evenodd" clip-rule="evenodd" d="M59.8801 131.88C55.5501 133.76 59.1901 138.89 62.2901 137.79C65.9001 136.51 64.1201 130.03 59.8801 131.88Z" fill="#D7A0A1"/>
<path fill-rule="evenodd" clip-rule="evenodd" d="M154.45 131.79C150.26 133.65 152.63 139.3 156.19 137.73C160.37 135.88 158.11 130.17 154.45 131.79Z" fill="#D7A0A1"/>
<path fill-rule="evenodd" clip-rule="evenodd" d="M49.82 144.65C46.58 146.62 49.22 152.14 52.68 150.19C56.33 148.13 53.47 142.43 49.82 144.65Z" fill="#D7A0A1"/>
<path fill-rule="evenodd" clip-rule="evenodd" d="M163.75 144.77C159.86 147.48 163.48 151.78 166.52 150.25C169.79 148.61 167.46 142.19 163.75 144.77Z" fill="#D7A0A1"/>
<path fill-rule="evenodd" clip-rule="evenodd" d="M69.72 79.3401L73.47 77.3301C73.15 76.8201 70.3001 74.3601 69.8401 74.1001C69.2301 75.4601 68.99 78.2901 69.72 79.3301V79.3401Z" fill="white"/>
<path fill-rule="evenodd" clip-rule="evenodd" d="M139.68 78.9903L143.22 76.2203L139.8 73.8403C139.28 75.7303 139.43 77.0803 139.68 78.9903Z" fill="white"/>
<path fill-rule="evenodd" clip-rule="evenodd" d="M163.75 144.77C167.47 142.19 169.79 148.61 166.52 150.25C163.48 151.78 159.85 147.48 163.75 144.77ZM139.25 144.19C144.21 142.5 144.64 149.99 141.1 150.96C136.55 152.22 134.86 145.68 139.25 144.19ZM49.82 144.65C53.47 142.43 56.33 148.13 52.68 150.19C49.22 152.14 46.59 146.62 49.82 144.65ZM74.83 144.29C78.53 142.22 82.02 148.54 78.11 150.68C74.17 152.83 70.8 146.55 74.83 144.29ZM154.45 131.79C158.11 130.17 160.37 135.88 156.19 137.73C152.63 139.3 150.26 133.65 154.45 131.79ZM59.88 131.88C64.12 130.04 65.91 136.51 62.29 137.79C59.19 138.89 55.55 133.76 59.88 131.88ZM33.94 125.12C24.4 139.65 30.86 163.4 46.67 172.05C63.88 181.47 84.84 169.26 103.28 167.69C123.67 165.95 143.43 179.26 161.92 174.63C180.78 169.91 189.65 147.26 184.06 130.11C182.81 126.27 178.81 123.09 178.33 128.7C177.9 133.69 180.25 138.49 179.69 144.14C178.74 153.74 175.9 160.61 167.69 166.08C152.45 176.23 129.37 163.38 111.62 162.19C92.09 160.88 68.41 173.79 53.16 168.86C25.75 160.01 41.61 130.42 33.94 125.12ZM137.3 121.18C139.52 120.66 143.51 120.92 145.26 122.67C148.86 126.27 141.28 125.82 139.73 126.03C137.95 126.28 133.63 129.77 132.45 126.6C131.38 123.71 135.06 121.71 137.3 121.18ZM74.67 121.03C85.43 119.94 85.08 130.58 78.94 127.33C75.14 125.32 71.47 126.3 70.37 125.57C67.26 123.51 72.62 121.24 74.67 121.03ZM27.72 132.61C25.89 149.92 29.93 171.96 46.16 181.75C57.99 188.88 95.1 186.03 109.24 186.4C123.02 186.76 160.31 188.7 171.13 180.54C185.92 169.39 191.17 147.56 187.36 130.04C171.54 101.58 153.65 112.4 134 96.8601C124.91 89.6701 120.07 81.8001 116.9 70.6901C115.75 66.6401 113.05 56.9901 112.67 53.2101C112.27 49.2601 112.28 36.0101 111.06 33.5801H104.87C104.07 35.2801 102.11 63.0401 99.31 72.0601C95.96 82.8301 90.71 91.5101 81.21 97.9501C55.39 115.44 49.7 98.9301 27.72 132.62V132.61Z" fill="#FAD9D0"/>
<path fill-rule="evenodd" clip-rule="evenodd" d="M71.7299 62.3202C86.7299 59.4402 89.03 89.3702 75.06 91.5502C58.42 94.1502 58.4699 64.8702 71.7299 62.3202ZM27.72 132.61C49.7 98.9202 55.39 115.43 81.21 97.9402C90.71 91.5002 95.96 82.8202 99.31 72.0502C102.11 63.0302 104.07 35.2702 104.87 33.5702L70.7 35.1602C67.09 30.4602 69.2699 21.9102 63.5399 14.2602C59.1799 8.44023 51.75 4.05021 44.56 7.74021C29.9 15.2402 33.67 35.8502 45.03 44.1802C53.07 50.0702 46.49 82.2602 42.79 91.1002C36.22 106.75 30.81 115.09 27.73 132.62L27.72 132.61Z" fill="#C7C8C8"/>
<path fill-rule="evenodd" clip-rule="evenodd" d="M140.27 62.4604C154.76 58.1204 159.98 87.5004 146.06 91.2704C129.75 95.6904 127.29 66.3504 140.27 62.4604ZM111.06 33.5704C112.28 36.0004 112.27 49.2504 112.67 53.2004C113.05 56.9804 115.74 66.6204 116.9 70.6804C120.07 81.7904 124.91 89.6604 134 96.8504C153.65 112.39 171.53 101.57 187.36 130.03C185.05 114.38 177.65 103.58 172.2 89.4704C169.33 82.0404 168.51 74.3004 167.71 66.4304C166.88 58.2204 164.76 48.9904 171.2 43.7204C182.04 34.8504 185.5 14.9804 171.01 7.7404C164.01 4.2404 156.46 8.3204 152.17 14.0604C146.82 21.2204 149.06 29.1904 145.21 34.9704L111.06 33.5904V33.5704Z" fill="#C7C8C8"/>
<path fill-rule="evenodd" clip-rule="evenodd" d="M187.35 130.03C191.17 147.55 185.91 169.38 171.12 180.53C160.29 188.7 123 186.75 109.23 186.39C95.09 186.02 57.98 188.87 46.15 181.74C29.93 171.96 25.89 149.91 27.71 132.6C30.79 115.07 36.2 106.73 42.77 91.0802C46.48 82.2402 53.05 50.0502 45.01 44.1602C33.65 35.8302 29.88 15.2302 44.54 7.72019C51.74 4.04019 59.16 8.42018 63.5201 14.2402C69.25 21.8902 67.07 30.4402 70.68 35.1402L104.85 33.5502H111.04L145.19 34.9302C149.04 29.1602 146.8 21.1802 152.15 14.0202C156.44 8.29017 163.98 4.2002 170.99 7.7002C185.48 14.9502 182.02 34.8102 171.18 43.6802C164.74 48.9502 166.86 58.1802 167.69 66.3902C168.49 74.2602 169.31 82.0002 172.18 89.4302C177.62 103.54 185.03 114.35 187.34 129.99L187.35 130.03ZM194.03 138.47C193.18 124.54 188.19 110.55 182.02 97.6402C175.92 84.8702 172.91 72.5402 172.21 58.3202C171.36 41.0802 185.53 44.1902 186.15 24.5502C186.97 -1.73983 147.8 -13.6698 141.55 29.4802L74.39 28.5102V29.4802C68.16 -12.6798 29.21 -2.47981 29.46 23.9402C29.64 43.7302 43.73 41.1102 43.42 57.3502C43.16 71.0702 39.71 84.8602 33.8 97.1602C27.98 109.27 23.24 122.25 21.91 135.25V149.33C22.83 157.68 25.52 165.92 30.61 173.82C45.96 197.66 83.56 192.21 108.17 192.12C133.24 192.03 169.05 198.1 185 173.85C190.72 165.15 193.44 155.99 194.04 146.7V138.47H194.03Z" fill="#874623"/>
<path fill-rule="evenodd" clip-rule="evenodd" d="M33.94 125.12C24.4 139.65 30.86 163.4 46.67 172.05C63.88 181.47 84.84 169.26 103.28 167.69C123.67 165.95 143.43 179.26 161.92 174.63C180.78 169.91 189.65 147.26 184.06 130.11C182.81 126.27 178.81 123.09 178.33 128.7C177.9 133.69 180.25 138.49 179.69 144.14C178.74 153.74 175.9 160.61 167.69 166.08C152.45 176.23 129.37 163.38 111.62 162.19C92.09 160.88 68.41 173.79 53.16 168.86C25.75 160.01 41.61 130.42 33.94 125.12Z" fill="#874623"/>
<path fill-rule="evenodd" clip-rule="evenodd" d="M136.08 80.1202C133.75 64.9302 147.55 59.3402 150.3 73.5702C153.5 90.1902 137.98 92.4802 136.08 80.1202ZM140.27 62.4602C127.28 66.3502 129.74 95.6902 146.06 91.2702C159.98 87.5002 154.77 58.1202 140.27 62.4602Z" fill="white"/>
<path fill-rule="evenodd" clip-rule="evenodd" d="M71.26 65.8C81.55 62.07 83.72 84.9301 75.2 87.5701C63.54 91.1801 62.81 68.86 71.26 65.8ZM71.73 62.3201C58.46 64.8701 58.41 94.14 75.06 91.55C89.03 89.37 86.73 59.4401 71.73 62.3201Z" fill="white"/>
<path fill-rule="evenodd" clip-rule="evenodd" d="M139.79 73.8401C140.21 71.8501 141.34 69.5701 143.38 69.1001C147.89 70.3601 148.47 81.6801 144.17 84.1601C140.96 84.1601 140.14 82.0101 139.67 78.9901C139.42 77.0701 139.27 75.7301 139.79 73.8401ZM136.08 80.1201C137.98 92.4801 153.5 90.1901 150.3 73.5701C147.56 59.3501 133.75 64.9401 136.08 80.1201Z" fill="#874623"/>
<path fill-rule="evenodd" clip-rule="evenodd" d="M69.72 79.3399C68.99 78.2899 69.23 75.4699 69.84 74.1099C69.92 71.7199 70.83 69.4599 73.29 69.1099C78.39 71.2099 78.52 84.85 71.88 84.0599C70.18 82.9599 69.4 81.3699 69.72 79.3399ZM71.26 65.7999C62.81 68.8599 63.53 91.18 75.2 87.57C83.72 84.93 81.55 62.0699 71.26 65.7999Z" fill="#874623"/>
<path fill-rule="evenodd" clip-rule="evenodd" d="M139.79 73.8401L143.21 76.2201L139.67 78.9901C140.14 82.0101 140.96 84.1501 144.17 84.1601C148.47 81.6801 147.89 70.3601 143.38 69.1001C141.34 69.5701 140.21 71.8501 139.79 73.8401Z" fill="#381908"/>
<path fill-rule="evenodd" clip-rule="evenodd" d="M69.8401 74.1101C70.3001 74.3701 73.14 76.8301 73.47 77.3401L69.72 79.3501C69.4 81.3801 70.1801 82.9701 71.8801 84.0701C78.5201 84.8501 78.4 71.2101 73.29 69.1201C70.82 69.4601 69.9201 71.7301 69.8401 74.1201V74.1101Z" fill="#381908"/>
<path fill-rule="evenodd" clip-rule="evenodd" d="M74.67 121.03C72.62 121.24 67.26 123.51 70.37 125.57C71.47 126.3 75.14 125.33 78.94 127.33C85.09 130.57 85.43 119.93 74.67 121.03Z" fill="#874623"/>
<path fill-rule="evenodd" clip-rule="evenodd" d="M137.3 121.18C135.05 121.71 131.38 123.71 132.45 126.6C133.63 129.77 137.95 126.27 139.73 126.03C141.28 125.82 148.86 126.27 145.26 122.67C143.52 120.92 139.52 120.66 137.3 121.18Z" fill="#874623"/>
<path fill-rule="evenodd" clip-rule="evenodd" d="M139.25 144.19C134.86 145.69 136.55 152.22 141.1 150.96C144.64 149.98 144.21 142.49 139.25 144.19Z" fill="#D7A0A1"/>
<path fill-rule="evenodd" clip-rule="evenodd" d="M74.8301 144.29C70.8001 146.55 74.17 152.83 78.11 150.68C82.0201 148.54 78.5301 142.22 74.8301 144.29Z" fill="#D7A0A1"/>
<path fill-rule="evenodd" clip-rule="evenodd" d="M59.8801 131.88C55.5501 133.76 59.1901 138.89 62.2901 137.79C65.9001 136.51 64.1201 130.03 59.8801 131.88Z" fill="#D7A0A1"/>
<path fill-rule="evenodd" clip-rule="evenodd" d="M154.45 131.79C150.26 133.65 152.63 139.3 156.19 137.73C160.37 135.88 158.11 130.17 154.45 131.79Z" fill="#D7A0A1"/>
<path fill-rule="evenodd" clip-rule="evenodd" d="M49.82 144.65C46.58 146.62 49.22 152.14 52.68 150.19C56.33 148.13 53.47 142.43 49.82 144.65Z" fill="#D7A0A1"/>
<path fill-rule="evenodd" clip-rule="evenodd" d="M163.75 144.77C159.86 147.48 163.48 151.78 166.52 150.25C169.79 148.61 167.46 142.19 163.75 144.77Z" fill="#D7A0A1"/>
<path fill-rule="evenodd" clip-rule="evenodd" d="M69.72 79.3401L73.47 77.3301C73.15 76.8201 70.3001 74.3601 69.8401 74.1001C69.2301 75.4601 68.99 78.2901 69.72 79.3301V79.3401Z" fill="white"/>
<path fill-rule="evenodd" clip-rule="evenodd" d="M139.68 78.9903L143.22 76.2203L139.8 73.8403C139.28 75.7303 139.43 77.0803 139.68 78.9903Z" fill="white"/>
<path fill-rule="evenodd" clip-rule="evenodd" d="M118.03 218.9C119.91 222.56 120.01 224.79 119.55 229.2C117.18 228.56 114.66 225.81 113.56 223.72C112.72 222.12 111 217.09 110.8 215.27C115.21 213.49 116.26 215.46 118.02 218.9H118.03ZM118.01 184.72C113.73 184.81 109.77 186.17 108.14 188.39C104.2 185.75 102.12 184.72 96.7601 184.72C93.1001 184.72 91.0101 185.45 88.5601 186.8C87.1501 187.58 83.54 190.33 83.54 192.06C83.54 197.25 83.92 201.58 83.91 206.37C83.9 211.02 83.86 221.09 89.48 217.45C90.96 216.49 93.42 215.25 95.29 214.81C91.89 219.89 90.2601 227.92 92.9401 232.94C95.4901 237.71 103.88 232.34 107.15 225.94C107.2 225.84 107.46 225.32 107.53 225.21C107.97 224.47 107.71 224.84 108.14 224.35C109.43 229.89 118.3 236.87 121.95 234.14C123.96 232.64 124.47 227.03 124.04 224.24C123.37 219.89 122.57 217.73 120.62 214.81C126.78 216.25 131.82 224.33 132.01 208.59C132.04 206.52 132.01 204.4 131.99 202.33C131.98 200.03 132.2 198.19 132.36 196.61V192.63C132.02 190.97 131.03 189.47 128.65 187.69C125.99 185.7 122.39 184.78 118.9 184.71H118.01V184.72ZM96.36 229.2C95.16 220.29 100.45 211.32 105.13 215.55C104.17 218.24 103.62 221.34 102.2 223.9C101.03 226 98.74 228.37 96.36 229.2ZM109.99 193.03C117.59 189.23 119.26 188.77 126.75 193.01L126.22 210.91C117.94 208.35 119.61 207.75 110.11 209.48L109.99 193.03ZM89.7101 210.87C89.5101 207.56 89.4101 204.3 89.3101 200.87C89.2201 198.14 88.4001 193.58 90.5901 192.11C96.0201 188.48 101.43 190.32 105.85 193.15L105.73 209.51C96.95 207.41 97.14 208.61 89.72 210.86L89.7101 210.87Z" fill="#874623"/>
<path fill-rule="evenodd" clip-rule="evenodd" d="M111.24 204.54C113.06 202.09 123.65 201.82 124.36 205.27C123.09 205.9 119.45 204.3 117.31 204.27C113.99 204.22 112.16 206.39 111.25 204.54H111.24ZM111.55 199.77C112.31 201.89 112.64 199.79 117.38 199.59C120.77 199.44 122.52 201.02 124.65 200.92C124.06 196.97 113.53 197.52 111.55 199.77ZM111.77 196.94C111.53 196.37 111.69 195.8 112.14 195.36C114.32 193.22 123.49 192.66 124.23 196.13C123 196.62 119.94 195.15 117.67 195.24C114.85 195.35 112.89 197.23 111.76 196.94H111.77ZM109.99 193.03L110.11 209.48C119.61 207.75 117.94 208.35 126.22 210.91L126.75 193.01C119.26 188.77 117.59 189.24 109.99 193.03Z" fill="white"/>
<path fill-rule="evenodd" clip-rule="evenodd" d="M91.0801 205.46C90.4601 202.2 99.88 202.58 101.85 203.13C103.53 203.6 104.06 203.61 104.01 205.2C102.82 205.64 100.01 204.16 97.5201 204.3C95.3801 204.42 92.5601 205.76 91.0801 205.46ZM90.7001 200.5C91.6101 197.77 98.3701 197.92 101.25 198.57C104.39 199.27 103.64 199.29 103.88 200.14C102.85 201.16 99.5401 199.54 97.1501 199.58C92.8301 199.65 92.1701 201.81 90.7001 200.51V200.5ZM91.29 196.1C91.66 193.23 98.4501 193.11 101.7 194.47C103.16 195.08 103.78 195.33 103.75 196.83C102.41 197.42 100.8 195.44 97.8901 195.25C95.8001 195.11 92.28 196.56 91.29 196.1ZM89.7101 210.87C97.1301 208.62 96.94 207.42 105.72 209.52L105.84 193.16C101.43 190.33 96.0101 188.49 90.5801 192.12C88.3901 193.58 89.21 198.15 89.3 200.88C89.41 204.3 89.5001 207.56 89.7001 210.88L89.7101 210.87Z" fill="white"/>
<path fill-rule="evenodd" clip-rule="evenodd" d="M110.81 215.27C111.01 217.08 112.73 222.11 113.57 223.72C114.67 225.82 117.19 228.56 119.56 229.2C120.02 224.79 119.91 222.56 118.04 218.9C116.28 215.46 115.23 213.5 110.82 215.27H110.81Z" fill="#E65008"/>
<path fill-rule="evenodd" clip-rule="evenodd" d="M96.36 229.2C98.74 228.38 101.03 226.01 102.2 223.9C103.62 221.33 104.17 218.24 105.13 215.55C100.45 211.32 95.16 220.29 96.36 229.2Z" fill="#E65008"/>
<path fill-rule="evenodd" clip-rule="evenodd" d="M91.0801 205.46C92.5701 205.76 95.3801 204.42 97.5201 204.3C100.01 204.16 102.82 205.64 104.01 205.2C104.06 203.6 103.53 203.6 101.85 203.13C99.87 202.58 90.4601 202.2 91.0801 205.46Z" fill="#CACAC9"/>
<path fill-rule="evenodd" clip-rule="evenodd" d="M111.24 204.54C112.15 206.4 113.98 204.22 117.3 204.27C119.44 204.3 123.08 205.9 124.35 205.27C123.65 201.81 113.05 202.09 111.23 204.54H111.24Z" fill="#CACAC9"/>
<path fill-rule="evenodd" clip-rule="evenodd" d="M91.29 196.1C92.28 196.56 95.8001 195.12 97.8901 195.25C100.81 195.44 102.41 197.42 103.75 196.83C103.78 195.33 103.16 195.08 101.7 194.47C98.4401 193.11 91.66 193.23 91.29 196.1Z" fill="#CACAC9"/>
<path fill-rule="evenodd" clip-rule="evenodd" d="M111.77 196.94C112.9 197.23 114.86 195.35 117.68 195.24C119.95 195.15 123 196.62 124.24 196.13C123.49 192.66 114.33 193.22 112.15 195.36C111.7 195.8 111.54 196.37 111.78 196.94H111.77Z" fill="#CACAC9"/>
<path fill-rule="evenodd" clip-rule="evenodd" d="M111.55 199.77C112.31 201.89 112.64 199.79 117.38 199.59C120.77 199.44 122.52 201.02 124.65 200.92C124.06 196.97 113.53 197.52 111.55 199.77Z" fill="#CACAC9"/>
<path fill-rule="evenodd" clip-rule="evenodd" d="M90.7001 200.5C92.1701 201.8 92.8401 199.64 97.1501 199.57C99.5401 199.53 102.85 201.15 103.88 200.13C103.64 199.29 104.39 199.27 101.25 198.56C98.3701 197.92 91.6101 197.76 90.7001 200.49V200.5Z" fill="#CACAC9"/>
<path fill-rule="evenodd" clip-rule="evenodd" d="M118.03 218.9C119.91 222.56 120.01 224.79 119.55 229.2C117.18 228.56 114.66 225.81 113.56 223.72C112.72 222.12 111 217.09 110.8 215.27C115.21 213.49 116.26 215.46 118.02 218.9H118.03ZM118.01 184.72C113.73 184.81 109.77 186.17 108.14 188.39C104.2 185.75 102.12 184.72 96.7601 184.72C93.1001 184.72 91.0101 185.45 88.5601 186.8C87.1501 187.58 83.54 190.33 83.54 192.06C83.54 197.25 83.92 201.58 83.91 206.37C83.9 211.02 83.86 221.09 89.48 217.45C90.96 216.49 93.42 215.25 95.29 214.81C91.89 219.89 90.2601 227.92 92.9401 232.94C95.4901 237.71 103.88 232.34 107.15 225.94C107.2 225.84 107.46 225.32 107.53 225.21C107.97 224.47 107.71 224.84 108.14 224.35C109.43 229.89 118.3 236.87 121.95 234.14C123.96 232.64 124.47 227.03 124.04 224.24C123.37 219.89 122.57 217.73 120.62 214.81C126.78 216.25 131.82 224.33 132.01 208.59C132.04 206.52 132.01 204.4 131.99 202.33C131.98 200.03 132.2 198.19 132.36 196.61V192.63C132.02 190.97 131.03 189.47 128.65 187.69C125.99 185.7 122.39 184.78 118.9 184.71H118.01V184.72ZM96.36 229.2C95.16 220.29 100.45 211.32 105.13 215.55C104.17 218.24 103.62 221.34 102.2 223.9C101.03 226 98.74 228.37 96.36 229.2ZM109.99 193.03C117.59 189.23 119.26 188.77 126.75 193.01L126.22 210.91C117.94 208.35 119.61 207.75 110.11 209.48L109.99 193.03ZM89.7101 210.87C89.5101 207.56 89.4101 204.3 89.3101 200.87C89.2201 198.14 88.4001 193.58 90.5901 192.11C96.0201 188.48 101.43 190.32 105.85 193.15L105.73 209.51C96.95 207.41 97.14 208.61 89.72 210.86L89.7101 210.87Z" fill="#874623"/>
<path fill-rule="evenodd" clip-rule="evenodd" d="M111.24 204.54C113.06 202.09 123.65 201.82 124.36 205.27C123.09 205.9 119.45 204.3 117.31 204.27C113.99 204.22 112.16 206.39 111.25 204.54H111.24ZM111.55 199.77C112.31 201.89 112.64 199.79 117.38 199.59C120.77 199.44 122.52 201.02 124.65 200.92C124.06 196.97 113.53 197.52 111.55 199.77ZM111.77 196.94C111.53 196.37 111.69 195.8 112.14 195.36C114.32 193.22 123.49 192.66 124.23 196.13C123 196.62 119.94 195.15 117.67 195.24C114.85 195.35 112.89 197.23 111.76 196.94H111.77ZM109.99 193.03L110.11 209.48C119.61 207.75 117.94 208.35 126.22 210.91L126.75 193.01C119.26 188.77 117.59 189.24 109.99 193.03Z" fill="white"/>
<path fill-rule="evenodd" clip-rule="evenodd" d="M91.0801 205.46C90.4601 202.2 99.88 202.58 101.85 203.13C103.53 203.6 104.06 203.61 104.01 205.2C102.82 205.64 100.01 204.16 97.5201 204.3C95.3801 204.42 92.5601 205.76 91.0801 205.46ZM90.7001 200.5C91.6101 197.77 98.3701 197.92 101.25 198.57C104.39 199.27 103.64 199.29 103.88 200.14C102.85 201.16 99.5401 199.54 97.1501 199.58C92.8301 199.65 92.1701 201.81 90.7001 200.51V200.5ZM91.29 196.1C91.66 193.23 98.4501 193.11 101.7 194.47C103.16 195.08 103.78 195.33 103.75 196.83C102.41 197.42 100.8 195.44 97.8901 195.25C95.8001 195.11 92.28 196.56 91.29 196.1ZM89.7101 210.87C97.1301 208.62 96.94 207.42 105.72 209.52L105.84 193.16C101.43 190.33 96.0101 188.49 90.5801 192.12C88.3901 193.58 89.21 198.15 89.3 200.88C89.41 204.3 89.5001 207.56 89.7001 210.88L89.7101 210.87Z" fill="white"/>
<path fill-rule="evenodd" clip-rule="evenodd" d="M110.81 215.27C111.01 217.08 112.73 222.11 113.57 223.72C114.67 225.82 117.19 228.56 119.56 229.2C120.02 224.79 119.91 222.56 118.04 218.9C116.28 215.46 115.23 213.5 110.82 215.27H110.81Z" fill="#E95513"/>
<path fill-rule="evenodd" clip-rule="evenodd" d="M96.36 229.2C98.74 228.38 101.03 226.01 102.2 223.9C103.62 221.33 104.17 218.24 105.13 215.55C100.45 211.32 95.16 220.29 96.36 229.2Z" fill="#E95513"/>
<path fill-rule="evenodd" clip-rule="evenodd" d="M91.0801 205.46C92.5701 205.76 95.3801 204.42 97.5201 204.3C100.01 204.16 102.82 205.64 104.01 205.2C104.06 203.6 103.53 203.6 101.85 203.13C99.87 202.58 90.4601 202.2 91.0801 205.46Z" fill="#CACAC9"/>
<path fill-rule="evenodd" clip-rule="evenodd" d="M111.24 204.54C112.15 206.4 113.98 204.22 117.3 204.27C119.44 204.3 123.08 205.9 124.35 205.27C123.65 201.81 113.05 202.09 111.23 204.54H111.24Z" fill="#CACAC9"/>
<path fill-rule="evenodd" clip-rule="evenodd" d="M91.29 196.1C92.28 196.56 95.8001 195.12 97.8901 195.25C100.81 195.44 102.41 197.42 103.75 196.83C103.78 195.33 103.16 195.08 101.7 194.47C98.4401 193.11 91.66 193.23 91.29 196.1Z" fill="#CACAC9"/>
<path fill-rule="evenodd" clip-rule="evenodd" d="M111.77 196.94C112.9 197.23 114.86 195.35 117.68 195.24C119.95 195.15 123 196.62 124.24 196.13C123.49 192.66 114.33 193.22 112.15 195.36C111.7 195.8 111.54 196.37 111.78 196.94H111.77Z" fill="#CACAC9"/>
<path fill-rule="evenodd" clip-rule="evenodd" d="M111.55 199.77C112.31 201.89 112.64 199.79 117.38 199.59C120.77 199.44 122.52 201.02 124.65 200.92C124.06 196.97 113.53 197.52 111.55 199.77Z" fill="#CACAC9"/>
<path fill-rule="evenodd" clip-rule="evenodd" d="M90.7001 200.5C92.1701 201.8 92.8401 199.64 97.1501 199.57C99.5401 199.53 102.85 201.15 103.88 200.13C103.64 199.29 104.39 199.27 101.25 198.56C98.3701 197.92 91.6101 197.76 90.7001 200.49V200.5Z" fill="#CACAC9"/>
</svg>
