<svg width="375" height="272" viewBox="0 0 375 272" fill="none" xmlns="http://www.w3.org/2000/svg">
<path fill-rule="evenodd" clip-rule="evenodd" d="M331.8 165.12V156.08C332.1 155.67 332.38 155.25 332.65 154.82C338.73 145.04 337.38 129.76 331.8 118.97V109.16C337.38 116.45 341.49 124.43 342.28 134.44C342.97 134.01 344.88 131.52 345.49 130.74L351.22 123.05C355.38 117.83 357.59 114.88 360.92 109.26C362.04 107.36 363.4 106.17 364.49 102.57C365.29 101.79 366.8 97.3199 367.21 95.9499C367.98 93.3799 368.4 90.6599 368.38 87.8499C368.34 81.9599 366.65 77.2298 362.09 75.3398C356.49 73.0198 351.16 74.6599 347.22 77.4998C344.98 79.1199 343.9 80.2099 342.21 82.0399C341.15 83.1899 338.76 85.9098 338.25 87.3098C337.02 88.3098 334.01 93.4698 331.79 96.9998V86.3899L333.67 83.5699C334.14 82.8899 334.42 82.4999 334.86 81.9199C335.27 81.3699 335.62 80.8798 336.09 80.3098L340.1 75.7998C345.58 71.2598 351.41 66.9198 361.09 68.8598C364.29 69.4998 366.86 70.6498 368.75 72.5598C374.89 78.7498 374.95 86.5298 373.56 94.7998C373.17 97.1098 371.54 101.21 370.6 103.46C368.98 107.34 364.92 115.18 362.41 118.24L345.2 140.68C344.7 141.02 345.04 140.2 344.73 141.3L342.52 144.3C342.06 145.14 341.85 147.21 341.59 148.27C340 154.82 337.91 158.27 333.78 162.92C332.95 163.86 332.9 164.22 331.81 165.14L331.8 165.12ZM331.8 86.3799V96.9898C331.08 98.1398 330.44 99.1098 329.97 99.7098C329 100.95 327.89 102.11 326.97 103.37C327.78 104.64 328.65 105.24 329.67 106.46C330.4 107.34 331.12 108.24 331.81 109.14V118.95C330.9 117.19 329.88 115.56 328.76 114.08C327.66 112.63 321.33 105.58 320.52 105.19C319.83 103.96 314.01 98.6599 313.16 97.9398C310.38 95.5698 308.25 93.3898 306.16 90.4898C296.86 77.6398 291.84 67.8899 286.96 52.1299C284.96 45.6699 284.75 45.4898 286.01 40.5498C288.89 29.2198 290.62 13.7499 279.81 7.88986C277.22 6.48986 274.12 6.14985 271.3 6.80985V0.829851C276.41 0.0598506 281.66 1.39985 284.73 4.01985C285.89 5.00985 286.97 5.83984 287.97 6.97984C294.05 13.8798 294.96 22.5798 293.7 31.6798C293.4 33.8198 293.14 35.3098 292.82 37.2498C292.15 41.2698 290.61 43.3798 291.87 47.7398C292.86 51.1598 293.72 54.1498 294.92 57.3398C296.02 60.2898 297.22 63.4798 298.55 66.3598C299.93 69.3598 301.39 71.9098 302.98 74.8398C303.44 75.6998 303.77 76.0798 304.27 76.9099C309.66 85.9698 312.29 89.3798 319.85 95.8398C320.25 96.6498 320.16 96.5399 320.97 96.9799L323.04 98.9398C323.81 97.7898 324.86 96.8699 325.68 95.6399L331.85 86.3799H331.8ZM331.8 156.07V165.11C331.68 165.21 331.55 165.32 331.4 165.43C321.25 173.38 322.14 167.47 320.13 176.36C318.96 181.53 315.94 187.72 313.18 191.61C310.42 195.51 309.98 195.51 307.58 198.4C304.64 201.92 304.68 201.29 302.66 203.29L298.8 206.91C295.94 209.69 292.28 212.24 288.97 214.38L282.81 218.03C281.27 218.8 281.1 218.77 280.83 219.92L279.77 224.8C279.44 226.32 279.1 227.21 278.78 228.71C278.52 229.95 278.11 231.2 277.72 232.56C276.07 238.3 273.58 245.99 271.27 252.13V233.95C272.26 230.71 273.06 227.78 273.32 226.11L271.27 226.08V220.72C271.67 220.67 272.07 220.61 272.44 220.56C273.46 220.41 274.28 220.48 274.86 219.74C274.28 219.35 272.62 219.31 271.27 219.4V213.7C279.98 213.38 278.89 213.84 287.07 208.6C291.8 205.57 294.84 202.26 298.62 198.98C304.17 194.16 313.14 184.15 314.82 172.87L309.91 173.38C307.99 181.17 305.61 184.08 300.73 187.93C296.47 191.3 291.15 193.81 285.38 196.08C280.9 197.85 276.15 199.21 271.27 200.16V194.32C274.51 193.57 277.93 192.55 279.62 191.98C280.19 191.81 280.64 191.65 281.26 191.44C281.56 191.34 281.78 191.28 282.02 191.16C282.71 190.84 282.25 191.14 282.7 190.74C285.24 190.56 294.73 185.4 296.33 183.89L299.02 181.78C300.78 180.49 303.32 176.77 303.87 173.52L297.99 173.34C297.93 173.3 297.85 173.26 297.8 173.24L296.43 172.97C295.9 172.95 295.24 172.97 294.69 172.95C291.31 172.35 282.84 173.79 279.76 174.78C278.79 174.99 277.62 175.16 276.92 175.57L271.28 177.13V171.02C279.17 168.7 286.65 166.68 293.56 166.95C299.16 167.16 304.55 167.94 310.35 167.52C316.62 167.06 324.85 164.11 328.78 159.71C329.77 158.61 330.83 157.4 331.8 156.06V156.07ZM271.28 0.839845V6.81986C270.2 7.07986 269.16 7.47984 268.21 8.01984C264.67 10.0398 263.57 11.8298 261.56 15.5598C258.38 21.4798 259.23 27.4598 260.66 34.0198C261.1 36.0398 260.98 35.1799 262.35 35.9398C264.57 37.1698 264.5 41.6799 259.93 41.1999C258.66 41.0699 257.26 41.0798 255.88 41.1198V13.7098C256.56 12.2298 257.39 10.7599 258.36 9.25986C260.18 6.44986 262.18 4.70985 265.03 3.01985C266.97 1.86985 269.12 1.15985 271.29 0.829851L271.28 0.839845ZM271.28 171.04V177.15L262.09 179.7C261.52 179.86 261.17 179.94 260.62 180.08C259.71 180.32 259.82 180.16 259.28 180.62C258.6 180.6 257.26 180.86 255.87 181.17V175.3C261.15 174.09 266.3 172.5 271.28 171.03V171.04ZM271.28 194.33V200.17C266.24 201.14 261.06 201.66 255.87 201.71V195.94C257.48 195.89 259.08 195.81 260.62 195.84L265.01 195.22C266.42 195.31 268.8 194.9 271.29 194.33H271.28ZM271.28 213.72V219.42C270.37 219.49 269.59 219.62 269.38 219.75L269.23 220.9C269.9 220.88 270.61 220.81 271.28 220.73V226.09L268.15 226.04C267.85 228.58 265.77 238.45 264.51 239.75C262.72 241.61 260.16 239.72 257.68 239.71C257.17 239.71 256.54 239.75 255.87 239.83V234.11C256.98 234.06 258.45 234.05 260.59 234.07C261.13 230.52 262.69 224.65 263.5 220.13C264.04 217.07 264.4 217.21 264.65 215.89C262.81 214.76 258.96 214.28 255.88 214.61V208.82C259.56 208.38 263.63 209.15 267.03 210.41C269.8 211.43 269.61 211.61 270.48 213.17C270.7 213.55 270.66 213.51 270.86 213.75L271.29 213.73L271.28 213.72ZM271.28 233.96C269.69 239.16 267.61 245.16 266.58 248C263.16 257.34 259.93 263.76 255.88 269.97V280.14C259.03 275.8 263.42 269.25 265.44 265.19C265.73 264.6 266.03 264.13 266.34 263.51C266.68 262.82 266.82 262.42 267.16 261.75C268.33 259.41 269.18 257.52 270.2 254.98C270.56 254.09 270.92 253.14 271.3 252.15V233.97L271.28 233.96ZM255.87 13.7198V41.1299C254.82 41.1699 253.77 41.2198 252.78 41.2498C250.88 41.3098 248.98 41.4098 247.08 41.5598V35.6699C250.56 35.3899 253.58 35.1898 254.84 35.1898L253.85 29.7299C252.97 23.5399 253.63 18.5998 255.87 13.7198ZM255.87 175.3V181.17C254.41 181.5 252.89 181.88 252 182.05C250.48 182.34 248.76 182.66 247.08 182.87V176.87C250.04 176.51 252.97 175.96 255.87 175.29V175.3ZM255.87 195.95V201.72C252.94 201.75 250 201.62 247.08 201.34V195.59C249.05 195.76 250.98 195.92 253.03 195.98C253.97 196 254.92 195.98 255.87 195.96V195.95ZM255.87 208.81V214.6C254.67 214.73 253.58 214.98 252.77 215.36C252.19 215.95 247.26 234.96 247.1 236.25C252.63 234.9 252.29 234.27 255.87 234.09V239.81C254 240.03 251.78 240.53 250.7 241.17C251.66 245.24 257.99 253.36 253.71 261.71C251.89 265.25 249.47 266.64 247.09 266.07V258.49L248.14 259.81C250.58 257.24 248.8 251.39 247.09 247.55V208.5C247.81 208.82 248.49 209.15 249.1 209.48C251 210.53 250.57 209.75 254.85 208.95C255.19 208.89 255.53 208.84 255.88 208.79L255.87 208.81ZM255.87 269.97V280.14C255.48 280.68 255.11 281.18 254.77 281.64C252.57 284.58 253.59 282.59 253.22 285C253.14 285.49 252.92 286.15 252.72 286.83C251.99 289.39 251.27 291.9 250.56 294.74C250.11 296.51 248.11 304.53 247.08 305.88V281.99C250.49 277.64 253.34 273.86 255.87 269.99V269.97ZM242.76 301L241.05 300.65V306.79C243.21 307.18 245.81 307.32 247.04 305.91C247.06 305.89 247.07 305.87 247.09 305.85V281.96C246.57 282.62 246.05 283.29 245.5 283.97C244.19 285.62 242.63 287.33 241.05 288.87V296.5C241.82 295.75 243.92 293.78 244.78 293.24L242.76 300.99V301ZM247.09 35.6699V41.5598C245.06 41.7098 243.04 41.9098 241.05 42.1498V36.1798C243.05 35.9998 245.14 35.8299 247.09 35.6699ZM247.09 176.88V182.88C246.18 182.99 245.28 183.08 244.43 183.1H241.05V177.31C243.08 177.27 245.09 177.11 247.09 176.87V176.88ZM247.09 195.58V201.33C245.06 201.13 243.05 200.86 241.05 200.51V194.57C241.22 194.59 241.36 194.59 241.47 194.59C242.09 195.13 242.61 195.01 243.55 195.14C244.34 195.25 244.92 195.39 245.73 195.45L247.08 195.57L247.09 195.58ZM247.09 208.51V247.56C246.6 246.46 246.12 245.52 245.75 244.88C244.17 248.37 244.88 253.34 246.34 256.91C246.56 257.46 246.8 257.98 247.08 258.49V266.08C244.85 265.54 242.66 263.28 241.04 259.44V235.62C241.04 235.62 241.14 235.56 241.24 235.53C241.56 235.43 241.36 235.62 241.45 235.16C241.71 232.18 246.69 215.85 246.73 214.93C245.46 214.05 243.33 213.18 241.04 212.56V206.55C243.13 207.02 245.25 207.71 247.08 208.51H247.09ZM241.05 300.65L237.32 299.88C238.19 298.73 239.92 297.61 241.02 296.53L241.05 296.5V288.87C240.2 289.7 239.34 290.49 238.52 291.19C237.84 291.78 236.32 293.18 234.75 294.53V305.58H234.82C236.59 305.84 237.41 305.91 238.99 306.31C239.57 306.46 240.28 306.63 241.05 306.77V300.63V300.65ZM241.05 36.1798V42.1498C240.64 42.1998 240.23 42.2498 239.83 42.2998L234.76 42.7599V36.7498C236.49 36.5898 238.71 36.3798 241.05 36.1798ZM241.05 177.32V183.09H237.76C236.81 183.06 235.79 182.96 234.76 182.83V177.07C236.87 177.29 238.97 177.37 241.05 177.32ZM241.05 194.58V200.52C238.93 200.15 236.83 199.69 234.76 199.15V192.99C237.39 193.82 239.85 194.47 241.05 194.59V194.58ZM241.05 206.55V212.56C238.91 211.98 236.62 211.62 234.76 211.66V205.83C235.72 205.82 236.87 205.91 238.3 206.08C239.19 206.18 240.12 206.35 241.06 206.56L241.05 206.55ZM241.05 235.62V259.44C240.82 258.89 240.6 258.3 240.39 257.68L236.94 262.24C236.24 263.06 235.51 263.76 234.76 264.33V255.74C237.22 252.04 239.48 247.02 239.68 244.24C238.26 244.78 236.34 246.18 234.76 247.58V240.53C235.22 240.28 235.65 240.09 236.04 240C236.25 239.86 237.18 239.28 236.24 239.27C235.76 238.97 235.28 238.64 234.76 238.31V231.72C237.09 232.58 238.96 233.89 240.83 235.45C241.16 235.8 240.87 235.74 241.06 235.62H241.05ZM234.76 36.7498V42.7599L231.25 43.0798C224.51 43.9198 219.16 44.4599 213.84 45.2198V39.1498C214.82 38.9998 215.8 38.8498 216.79 38.6898L224.14 37.7798C226.79 37.6398 229.47 37.2899 231.92 37.0399C232.52 36.9799 233.52 36.8799 234.77 36.7599L234.76 36.7498ZM234.76 177.06V182.82C233.75 182.69 232.73 182.53 231.78 182.38C230.11 182.11 227.48 181.38 226.04 181.43C225.48 180.81 224.08 180.76 223.23 180.35C221.55 180.05 219.26 178.91 217.68 178.19C216.57 177.69 215.09 176.76 213.84 176.19V169.69C216.08 170.95 218.4 172.11 220.65 173.16C225.4 175.37 230.11 176.57 234.77 177.06H234.76ZM234.76 192.98C230.6 191.67 225.98 189.94 225.16 189.27C224.2 189 222.99 188.58 222.43 187.83C220.73 187.56 216.46 184.27 213.83 182.12V189.51C220.06 193.96 227.2 197.14 234.76 199.14V192.98ZM234.76 205.83V211.66H234.63C234.32 212.86 233.35 214.95 232.81 216.29C232.15 217.91 231.62 219.32 230.98 220.92C230.13 223.06 228.12 228.36 227.95 230.6C230.69 230.62 232.88 231.03 234.76 231.73V238.32C233.7 237.65 232.51 236.99 230.99 236.65C228.42 236.07 224.65 237 223.17 236.49C219.3 235.14 223.22 227.06 223.66 224.11C221.93 223.66 218.05 221.61 213.83 219.28V212.59C219.42 215.69 223.84 218.18 225.78 218.58L226.7 215.86C224.85 215.01 222.62 214.2 220.65 213.42C218.88 212.71 216.48 211.47 213.83 209.95V203.1C219.19 206.26 224.81 209.13 228.99 210.41C230.59 207.06 231.6 205.89 234.75 205.84L234.76 205.83ZM234.76 240.54V247.59C233.71 248.52 232.81 249.46 232.32 250.15C230.36 252.89 229.39 256.35 230.05 260.34C231.32 260.17 233.09 258.26 234.76 255.75V264.34C229.97 268.01 224.56 266.53 224.03 259.51C223.66 254.69 225.35 250.15 227.53 247.15C228.74 245.49 232.17 241.95 234.76 240.53V240.54ZM234.76 294.53V305.58C231.32 305.08 230.28 305 228.3 306.52C224.84 309.16 219.08 312.14 213.84 314.28V307.97C217.28 306.44 220.44 304.73 222.87 303.15C223.59 302.68 224.23 302.28 224.9 301.83C226.07 301.04 230.08 298.34 230.52 297.55C231.32 297.36 233.07 295.98 234.76 294.53ZM213.83 39.1399V45.2098C208.67 45.9498 203.53 46.8898 197.15 48.4998C189.88 50.3398 191.3 48.9998 189.37 42.5798C186.65 33.5498 180 23.1999 167.66 25.7299C155.06 28.3099 153.18 42.8299 164.08 54.9499C166.34 57.4599 167.68 57.9398 168.38 58.6498C169.74 60.0398 169.24 63.1399 169.27 65.3799C169.63 87.2899 170.1 103.96 171.55 125.91C172.19 135.66 172.02 146.15 173.08 155.73L176.74 157.59C179.01 159.65 182.72 157.05 186.98 165.24C190.32 171.65 188.79 176.1 189.01 180.77C187.4 183.76 190.29 185.86 192.73 187.86C193.4 188.41 192.94 188.17 193.77 188.55C194.25 189.49 200.9 194.61 201.53 195.08C204.68 197.38 209.14 200.34 213.81 203.09V209.94C207.12 206.11 198.84 200.55 195.17 197.57C193.56 196.27 192.25 195.18 190.65 193.84C189.85 193.17 186.82 190.3 186.16 190.11C185.24 191.59 184.63 193.1 183.79 194.41C182.99 195.66 181.75 197.14 181.17 198.44C191.15 200.1 204.21 207.25 213.81 212.58V219.27C208.01 216.07 201.57 212.34 199.11 211.45C195.13 208.74 183.11 204.41 177.38 203.14L171.93 209.13C170.09 210.95 167.98 212.64 166.15 214.45C165.12 215.47 164.24 216.59 163.29 217.26C160.71 219.09 156.69 215.89 160.11 212.53C161.02 211.64 161.85 210.66 162.82 209.83C168.8 204.72 180.2 192.59 182.1 184.38C185.38 175.57 183.09 166.69 177.06 163.02C173.2 160.67 169.29 162.14 165.69 163.92C163.77 164.87 157.99 168.49 157.07 169.7C154.76 170.69 149.89 176.06 148.08 178.06C140.05 186.93 131.83 199.06 131.17 212.51C130.9 218.11 131.87 223.08 135.33 225.65C139.22 228.54 143.23 229.04 149.08 228.12C156.04 227.03 161.08 223.46 166.37 219.83C167.41 219.12 167.88 218.78 168.87 217.95C174.43 213.32 175.62 218.25 174.09 220.59C173.16 222.01 170.94 223.54 169.5 224.52C163.51 228.6 159.84 231.29 152.66 233.22C150.97 233.67 149.83 235.69 148.44 237.54C140.26 248.47 135.63 263.48 139.24 277.47C141.09 284.65 148.15 295.19 154.47 296.47C156.46 288.6 162.44 281.15 167.32 275.01C168.03 274.12 168.58 273.09 170.16 272.88C172.35 272.6 174.87 274.57 171.92 278.31C168.41 282.76 161.88 290.86 160.55 296.21C159.39 298.89 158.9 303.8 159.7 306.84C160.98 311.75 166.8 317.91 173.51 317.67C176.85 317.55 180.61 316.29 182.48 314.54C184.24 313.73 190.02 307.54 191.42 305.81C193.97 302.66 195.94 299.41 198.04 295.11C202.17 286.64 204.5 276.14 198.73 267.83C193.97 260.97 185.91 256.92 174.02 259.21C168.15 260.34 162.02 264.07 161.15 260.46C160.25 256.73 168.35 254.56 171.73 253.88C184.34 250.98 195.75 253.76 203.29 264.04C213.99 278.64 203.24 296.16 203.06 298.27C202.44 298.8 202.28 299.39 201.84 300.21C198.59 306.26 197.55 307.33 192.99 312.59C198.71 313.46 206.85 311.07 213.81 307.97V314.28C211.24 315.33 208.79 316.19 206.81 316.71L202 317.84C200.98 317.84 201.4 317.85 201.13 318.09H200.87C200.57 318.09 200.13 318.07 199.85 318.11L199.06 318.35H198.8L195.19 318.48H188.99C188.74 318.36 188.69 318.35 188.4 318.17C187.88 317.84 188.23 318.08 187.93 317.8L187.44 318.24L186.15 319.12L185.89 319.41C185.09 319.79 184.33 320.33 183.42 320.79C182.57 321.22 181.73 321.52 180.96 321.8C179.89 322.03 179.02 322.5 177.92 322.75C176.93 322.98 175.74 323 174.67 323.08L175.06 323.76C174.4 324.71 172.39 326.14 171.37 327.05L167.57 329.96C165.72 331.25 161.44 334.61 159.57 335.31C158.32 334.32 157.95 332.02 156.66 330.99C156.93 329.91 156.89 330.19 157.92 329.6C160.15 328.31 166.25 324.18 167.29 322.73C166.33 322.1 165.32 321.83 164.36 321.28C161.62 319.72 159.43 317.67 157.51 315.23C154.21 311.06 153.94 308.59 153.41 302.35L151.05 301.62C149.85 302.83 142.11 309.29 140.3 309.61C139.76 308.53 138 307.57 136.8 307.03L135.52 306.21L140.72 302.6C141.63 301.91 144.78 299.21 145.62 298.99C145.38 298.1 143.28 296.11 142.72 295.95C140.38 295.31 142.19 297.24 133.64 293.68C132.12 293.05 131.2 292.28 129.3 292.28C129.5 291.07 129.98 290.04 130.27 288.78C130.51 287.73 130.57 286.38 130.89 285.42L130.87 286.34C132.3 286.82 133.27 286.96 134.62 287.54C135.64 287.98 136.75 288.68 137.78 288.82C137.47 288.14 135.16 283.68 134.8 283.41C134.97 283.03 135.29 284.05 134.94 282.62C134.72 281.74 134.55 282.09 134.43 281.99L133.4 277.78C133.14 273.88 132.64 270.5 132.65 266.2C132.65 263.11 132.97 257.62 133.79 255.07C134.72 254.59 135.04 251.57 135.02 250.48C135.5 249.84 137.5 244.41 138.89 241.91C140.03 239.86 143.44 235.07 143.57 234.27C137.41 234.06 132.38 231.98 128.79 227.3C128.34 226.71 128.11 226.19 127.57 225.66C127.03 225.92 124.73 228.04 124.08 228.64C118.79 233.59 111.36 237.81 105.14 241.71C103.15 242.96 99.18 245.54 97.06 246.35C97.67 244.8 99.14 242.55 100.04 241C101.06 239.25 102.11 237.47 103.02 236C103.82 235.82 105.31 234.79 106.18 234.24C107.24 233.57 108.15 233.01 109.21 232.37C113.31 229.91 115.54 228.41 118.97 225.35C120.23 224.23 124.39 220.57 125.48 219.99C125.48 217.76 125.23 216.02 125.22 213.53C125.19 208.29 126.88 201.78 128.73 197.16C129.96 194.09 130.31 193.04 131.95 190.32C137.93 180.41 145.56 170.8 154.87 163.94C161.46 159.08 165.85 157.72 167.3 156.75L166.27 139.45C166.29 137.44 166 135.84 166.01 133.52L164.53 109.96C163.98 105.92 164.68 102.24 164.13 98.2299C163.63 94.5499 163.91 90.4598 163.69 86.2798C163.63 85.1098 163.42 84.8699 163.42 83.4499V62.2698C161.79 61.3998 160.66 59.9099 159.36 58.5999C156.06 55.2699 152.31 48.3999 151.44 43.5399C150.6 38.8299 151.12 33.5899 152.77 30.1899C153.98 27.6899 155.92 25.4899 158.08 23.8799C162.56 20.5499 165.63 19.3999 172.73 19.4099C180.29 19.4099 187.38 25.6499 191.06 31.7899C193.05 35.0999 194.53 38.7598 195.43 42.6498L202.49 41.1898C206.23 40.2499 209.97 39.6998 213.79 39.1198L213.83 39.1399ZM213.83 169.7C211.3 168.27 208.87 166.72 206.79 165.06C203.07 162.1 198.55 158 195.66 154.24C194.34 152.52 193.83 150.51 193 148.12C191.71 144.41 189.55 138.59 188.97 134.56C189.39 134.26 193.08 132.44 190.58 129.63C189.02 127.88 186.47 128.97 184.5 129.8C182.59 130.61 180.12 131.26 179.39 132.96C178.86 134.21 179.27 135.35 180.04 136.03C180.99 136.87 182.18 136.64 183.55 136.58C184.45 142.63 189.58 154.83 189.7 156.45L191.6 159.93C192.67 161.56 194.27 165.6 195.34 167.71C199.95 176.87 203.12 180.94 211.03 187.38C211.94 188.12 212.86 188.82 213.81 189.5V182.11C213 181.45 212.35 180.89 211.98 180.57L209.34 178.09C207.68 177.2 202.19 170.52 200.94 168.16C200.94 167.79 200.86 167.89 201.24 167.91C201.9 168.74 204.05 170.34 205.27 171.2C206.04 171.74 209.2 173.59 209.64 174.1C210.3 174.36 210.54 174.5 211.19 174.84C211.41 174.96 211.71 175.11 211.85 175.21C212.47 175.64 212.05 175.24 212.46 175.73C212.84 175.79 213.31 175.96 213.81 176.19V169.69L213.83 169.7Z" fill="#874623"/>
<path fill-rule="evenodd" clip-rule="evenodd" d="M128.13 412.29V407.44C135.09 407.61 141.27 403.25 144.25 402.38L144.29 404.47C149.34 404.32 152.75 404.79 155.34 401.35C158.82 396.72 156.04 392.41 157.31 390.42C157.97 389.38 160.07 388.63 161.14 387.29C163.97 383.75 163.12 379.5 163.11 375.41C163.11 371.81 162.6 372.85 161.62 370.03C150.48 369.57 151.65 368.27 146.42 367.65C144.04 371.79 145.73 373.54 146.66 377.22C145.24 378.95 142.97 379.74 141.76 384.43C141.31 386.2 141.18 387.67 138.94 387.67C136.17 387.67 136.34 383.67 130.41 383.84C129.57 383.86 128.82 384.06 128.12 384.31V379.13C130.26 378.56 132.97 378.23 137.9 380.84C138.23 379.42 139.97 376.88 141 376.19C140.6 374.46 140.23 374.06 140.23 371.8C140.23 368.82 141.6 367.54 142.55 366.12C140.51 365.04 139.34 364.5 137.65 363.02L128.13 370.43V364.61L134.35 359.93C133.21 357.85 131.86 356.44 130.64 353.78C130.1 352.61 129.66 351.52 129.26 350.26C128.27 347.08 128.45 346.31 128.13 346.08V341.16C130.57 341.58 131.41 341.47 132.85 343.8C133.69 349.82 136.63 356.78 141.38 359.83C146.07 362.84 153.53 364.99 160.37 365.13C166.99 365.26 164.67 365.97 167.18 370.42C175.48 385.2 190.67 375.75 192.51 375.29C194.09 374.9 195.51 375.96 197.34 376.13C212.29 377.55 217.95 362.12 214.21 352.56C212.23 347.49 209.73 347.61 211.35 344.04C213.29 339.78 211.24 333.25 209.16 329.48C208.14 327.63 207.95 327.36 205.71 326.73C201.32 325.5 202.56 322.57 201.98 318.11L202.02 317.85L206.83 316.72C206.85 317.77 207.16 319.77 207.28 320.76C207.56 322.98 207.73 321.91 209.59 322.84C210.29 323.19 211.59 324.21 212.04 324.78C212.66 325.56 213.24 326.54 213.72 327.49C215.24 330.52 217.75 336.72 217.06 341.5C216.66 344.27 216.54 343.8 216.27 345.13C216.1 345.95 216.32 346.05 216.71 346.69C221.31 354.13 221.29 361.69 217.94 369.22C214 378.07 204.48 382.75 194.99 380.8C192.92 380.38 193.76 380.12 191.87 381.09C189.36 382.39 184.29 383.51 181.28 383.68C174.16 384.08 168.89 379.73 168.12 379.54C168.12 383 167.88 385.3 166.75 387.72C166.07 389.17 163.9 392.25 162.18 392.7C162.18 396.8 162.24 398.27 161.01 401.34C158.95 406.46 155.13 408.59 149.69 409.38C144.83 410.08 144.15 409.08 142.05 407.68C141.24 408.22 140.94 408.84 140.14 409.38C137.24 411.36 132.57 412.38 128.14 412.29H128.13ZM128.13 255.45V250.4C129.8 250.14 132 250.13 135.04 250.5C135.06 251.59 134.74 254.61 133.81 255.09C131.33 255 130.6 254.41 128.15 255.44H128.13V255.45ZM128.13 250.4V255.45C126.38 256.19 125.33 257.04 124.33 258.31C121.28 262.18 120.13 257.91 114.16 261.05C112.01 262.18 110.03 264.14 108.7 266.63V258.99C109.6 258.21 110.57 257.52 111.61 256.94C116.99 253.97 119.63 255.7 121.04 254.75C123.13 253.35 123.8 251.06 128.13 250.39V250.4ZM128.13 341.15V346.07C127.81 345.84 127.02 346.12 124.22 345.21C118.78 343.43 116.45 339.88 114.94 338.99C114.19 339.64 111.45 342.82 108.7 346.11V339.47C110.29 337.7 111.9 335.97 112.36 335.66L109.78 330.76C109.21 330.89 109.01 331.07 108.7 331.17V319.28C108.96 317.73 109.05 317.35 108.7 317.01V310.66C111.61 313.32 114.33 314.27 113.84 318.08C113.44 321.18 112.82 323.56 113.69 326.83C114.27 329.01 115.59 331.66 116.79 333.27C117.46 334.17 118.21 335.2 118.84 335.88C119.26 336.34 119.56 336.6 120.02 337.03C121.62 338.5 121.22 337.83 121.42 337.63C121.47 337.68 121.53 337.69 121.55 337.78L122.43 338.75C123.51 339.87 125.28 340.57 126.95 340.93C127.38 341.02 127.77 341.1 128.12 341.16L128.13 341.15ZM128.13 364.6V370.42L125.75 372.27C124.89 372.96 122.41 374.72 121.91 375.4C122.76 376.67 123.75 377.53 125.27 379.79C126.22 379.71 127.11 379.39 128.14 379.12V384.3C125.6 385.22 123.89 386.9 121.78 383.55C115.81 374.05 111.21 375.38 108.71 374.45V359.28C108.84 359.46 108.97 359.65 109.09 359.83C111.24 363.06 111.42 365.49 111.79 369.98C112.67 370.44 113.98 370.54 115.04 370.91C116.26 371.35 117.01 371.96 118.12 372.28C118.98 371.38 120.76 370.15 121.95 369.24L128.13 364.59V364.6ZM128.13 407.43V412.28C125.13 412.22 122.25 411.64 120.1 410.51C120.1 416.5 114.47 422.62 108.7 425.34V419.68C112.22 417.39 115.07 413.69 115.22 409.74C112.93 409.54 110.75 409.01 108.7 408.24V402.97C110.41 403.71 112.16 404.27 113.87 404.63C116.72 405.23 115.46 404.78 116.94 403.97C118.46 403.14 119.13 404.26 119.91 404.78C122.67 406.63 125.46 407.36 128.13 407.43ZM108.7 282.04V280.96C108.73 281.38 108.73 281.74 108.7 282.04ZM90.41 409.48C90.27 409.39 89.44 408.62 88.5 407.74V414.66C89.87 415.72 91.16 415.93 92.87 414.26C95.48 411.72 98.91 408.53 102.52 407.12C103.93 406.57 104.37 406.25 105.64 406.89C106.63 407.39 107.65 407.84 108.7 408.23V402.96C102.94 400.48 97.61 395.99 95.65 390.55C94.53 387.44 95.55 386.96 92.89 385.31C91.5 384.45 89.99 383.48 88.51 382.4V388.29C91.02 389.72 91.58 389.75 91.5 393.5C90.58 393.94 89.57 394.98 88.71 395.63L88.51 395.78V402.14C88.89 401.85 89.25 401.58 89.53 401.35L93.77 397.85L98.54 402.37C99.14 402.9 98.96 402.41 99.19 403.27C96.95 403.79 91.94 408.44 90.41 409.47V409.48ZM108.7 258.99V266.63C106.78 270.22 106.23 274.88 108.52 279.66C108.61 280.15 108.67 280.58 108.7 280.95V282.03C108.5 284.04 107.12 283.9 106.73 285.58C105.27 286.19 103.96 289.5 103.36 291.57C102.56 294.36 102.54 297.36 103.13 300.19C104.29 305.82 106.55 308.7 108.7 310.66V317.01C108.34 316.65 107.51 316.33 105.91 314.74C103.84 312.69 101.96 310.58 100.66 307.87C99.91 306.31 100 306.74 98.45 305.94C95.11 304.23 91.63 303.24 88.52 303.87V298.91C90.18 298.66 91.94 298.69 93.79 299L98.17 300.04C97.32 298.26 97.88 293.18 98.32 291.16C99.17 287.21 100.9 285.43 101.27 284.02C101.89 283.71 103.13 282.24 103.51 281.61C104.06 280.72 103.34 279.15 102.9 278.14C101.99 272.84 101.87 269.45 104.14 264.96C105.3 262.67 106.85 260.63 108.72 259L108.7 258.99ZM108.7 319.28V331.17C108.52 331.23 108.31 331.27 107.97 331.27C105.67 331.27 104.69 331.27 102.53 330C101.78 329.56 100.86 328.99 100.34 328.31C100.04 327.92 100.16 328.18 99.97 327.65C98.78 328.52 97.31 331.83 91.97 333.07C91.97 335.58 92.68 336.16 91.71 340.3C97.26 344.01 96.89 348.23 98.16 350.88C99.47 350 100.37 348.52 101.84 347.07L105.31 343.31C105.78 342.75 107.23 341.09 108.7 339.45V346.09C105.5 349.92 102.28 353.88 102.18 354.14C104.95 355.22 107.13 357.12 108.7 359.28V374.45C108.22 374.27 107.81 374 107.49 373.56C104.9 369.96 110.6 363.5 98.92 357.87C97.51 357.19 95.41 357.15 93.93 356.7C93.29 355.27 93.72 347.69 89.54 344.8C89.1 344.49 88.79 344.24 88.51 344.02V329.51C88.77 329.34 89.08 329.17 89.46 329.03C93.35 327.48 94.63 327.78 97.34 323.73C98.08 322.63 98.44 321.87 100.28 322C101.57 323.65 101.27 323.61 103.56 325.11C104.96 326.03 106.62 326.43 108.58 326.75C108.4 323.86 108.22 322.24 108.69 319.35V319.28H108.7ZM108.7 419.68V425.34C107.86 425.73 107.02 426.06 106.2 426.3C105.25 426.58 103.26 427.01 102.04 427.05C99.81 427.12 99.27 426.56 97.65 426.52C96.05 429.55 92.64 432.07 88.51 433.3V428.08C89.77 427.54 90.96 426.79 92.02 425.8C93.77 424.16 93.53 422.63 94.61 421.42C96.37 419.43 98 421.35 99.56 421.79C102.3 422.55 105.74 421.62 108.71 419.69L108.7 419.68ZM88.5 407.75C87.16 406.49 85.61 404.99 85.5 404.84C86.01 404.07 87.37 403.02 88.5 402.16V395.8C87.61 396.49 86.93 397.09 85.99 397.84C84.13 399.3 82.4 400.66 80.65 402.24C78.47 401.91 77.58 401.29 74.89 401.23C74.32 399.24 73.66 397.08 72.87 395.03V406C74.19 406.29 75.82 405.99 77.62 406.52C83.39 408.24 86.09 412.79 88.51 414.67V407.75H88.5ZM88.5 298.9V303.86C86.01 304.36 83.75 305.88 81.96 308.88C80.38 311.53 79.63 310.92 76.52 311.67C75.12 312.01 73.9 312.59 72.85 313.35V307.65C75.13 306.69 76.9 306.67 77.42 306.4C78.59 305.79 78.3 304.35 81.14 302.12C83.32 300.41 85.78 299.29 88.49 298.89L88.5 298.9ZM88.5 329.51V344.02C87.86 343.5 87.42 343.15 86.02 342.67C86.13 340.39 87.39 338.46 87.36 335.13C87.33 332.44 86.76 330.68 88.5 329.51ZM88.5 382.42V388.31C87.46 387.71 86.08 386.87 84.27 385.42C83.23 384.58 82.08 383.59 81.3 382.71L78.53 379.54C77.26 380.69 74.94 383.23 72.86 385.51V378.15L73.56 377.4C76.99 373.84 76.21 376.43 74.4 368.69C73.87 369.3 73.36 369.83 72.86 370.3V362.6C72.96 362.32 73.04 362.02 73.09 361.72C73.02 361.64 72.94 361.56 72.86 361.47V355.15C73.2 355.45 73.55 355.74 73.9 356.02C79.12 360.24 78.09 358.87 79.18 366.69C79.44 368.54 80.01 371.71 80.58 373.34C81.81 376.87 85.08 379.92 88.5 382.41V382.42ZM88.5 428.07V433.29C85.66 434.14 82.48 434.37 79.33 433.72C76.78 433.2 74.76 432.43 72.87 431.39V425.59C77.23 428.89 83.48 430.19 88.51 428.06L88.5 428.07ZM72.87 307.66V313.36C68.91 316.24 67.35 321.73 67.6 326.88C67.71 329.09 68.72 332.36 68.2 334.11C67.56 336.23 66.46 337.02 66.02 339.95C65.05 346.48 68.58 351.42 72.86 355.16V361.48C71.98 360.6 70.38 359.45 69.45 358.67C65.86 355.67 65.43 354.25 63.22 350.96C61.95 349.07 53.58 349.42 50.98 357.7C49.72 361.74 51.08 367.09 48.42 369.06C46.42 370.54 42.76 371.25 40.91 375.24C39.37 378.56 40.27 383.74 41.5 386.87C42.98 390.65 44.94 392.4 47.69 394.38C52.65 397.94 49.02 398.76 50.56 404.91C52.32 411.96 60.49 417.65 67.51 418.97C68.94 419.24 69.31 418.93 69.61 420.18C70.3 423.09 69.79 422.97 71.93 424.86C72.23 425.12 72.53 425.37 72.85 425.61V431.41C71.94 430.91 71.06 430.35 70.15 429.73C67.95 428.21 64.91 425.3 64.83 421.88C63.88 422.13 60.59 424.99 59.73 425.82L44.95 437.88C40.29 441.44 26.86 452.34 23.79 452.6C24.24 450.69 27.79 448.07 28.95 446.43L43.67 432.99C45.9 430.81 57.77 421.12 58.69 420.07C58.18 419.56 55.38 418.24 53.04 416.37C50.58 414.4 49.34 412.38 48.57 411.75C47.74 412.18 46.28 413.98 45.44 414.88C38.41 422.4 31.92 429.37 23.79 435.71C23.19 436.28 22.13 437.04 21.21 437.11C21.58 435.5 25.7 430.66 26.89 429.1C28.86 426.53 31.11 424.17 33.09 421.61C33.67 420.86 34.1 420.49 34.75 419.66C37.57 416.06 41.85 411.92 44.37 408.89C45.08 408.04 45.04 407.8 45.99 407.16C45.43 404.78 44.18 401.59 45.47 398.9C45.03 398.6 44.88 398.44 44.44 398.13C44.12 397.9 43.69 397.65 43.37 397.39L40.75 394.85C40.45 394.49 40.29 394.39 39.99 394.06C34.92 388.43 31.95 373.69 40.87 367.72C42.02 366.95 43.78 365.68 45.21 365.35C45.21 358.72 46.01 354.83 48.89 350.96C51.98 346.82 55.82 345.21 61.21 345.21C60.29 341.92 61.17 337.98 62.02 335.7C63 333.05 63.51 333.5 63.19 331.64C62.92 330.11 62.59 328.48 62.5 326.88C62.13 319.97 64.9 314.13 68.17 310.86C69.8 309.23 71.42 308.26 72.84 307.66H72.87ZM72.87 362.61C71.55 366.36 66.39 368.48 64.46 370.11C62.15 372.07 63.29 373.86 63.01 377.18C62.37 384.79 57.01 387.49 61.25 389.07C70.16 392.4 68.38 400.74 70.95 404.68C71.47 405.48 72.12 405.83 72.87 405.99V395.02C72.41 393.84 71.9 392.69 71.34 391.64C70.83 390.7 70.08 389.72 69.79 388.83C70.58 388.01 71.68 386.8 72.87 385.51V378.15L69.96 381.28C69.69 381.56 69.62 381.67 69.35 381.96L66.16 385.22C66.36 382.85 67.97 383.38 67.97 373.6C70.02 372.52 71.45 371.64 72.88 370.3V362.6L72.87 362.61Z" fill="#AFCDDC"/>
<path fill-rule="evenodd" clip-rule="evenodd" d="M108.52 279.66C109.3 280.49 111 281.14 112.22 282.36C113.35 283.49 114.21 284.55 115.47 285.57C119.18 288.56 121.01 287.04 125.83 286.56C126.5 282.85 125.83 282.98 128.62 280.93C130.7 279.4 131.5 278.66 132.95 276.76L133.43 277.79C133.17 273.89 132.67 270.51 132.68 266.21C132.68 263.12 133 257.63 133.82 255.08C131.34 254.99 130.61 254.4 128.16 255.43C126.39 256.18 125.34 257.02 124.33 258.3C121.28 262.17 120.13 257.9 114.16 261.04C108.92 263.79 104.64 271.55 108.52 279.65V279.66Z" fill="#DEAA82"/>
<path fill-rule="evenodd" clip-rule="evenodd" d="M101.03 237.56L94.09 248.6L79.42 271.98C78.93 273.02 78.24 273.92 77.66 274.89C77.11 275.81 76.5 277.13 75.7 277.6C75.46 278.46 74.1 280.4 73.53 281.34L64.09 296.42C60.86 301.27 55.65 310.09 52.37 315.42L33.49 345.84C32.64 347.22 32.05 348.39 31.13 349.68C30.27 350.89 29.48 352.27 28.75 353.49C27.17 356.13 25.61 358.43 24.01 361.14L4.83997 391.28C3.20997 393.96 1.52996 396.17 0.0799561 398.91C1.16996 398.62 0.849977 398.39 1.56998 397.56C4.89998 393.72 7.93996 389.35 10.96 385.27C12.72 382.89 14.21 380.58 15.97 378.15L43.63 335.33C45.78 332.3 49.56 325.56 51.86 322.14L76.31 281.8C76.57 281.37 76.62 281.26 76.89 280.83L77.53 279.91C77.69 279.08 80.31 274.68 80.85 274.06C81.85 271.82 83.64 269.23 84.96 266.96L97.09 246.38C97.7 244.83 99.17 242.58 100.07 241.03C101.09 239.28 102.14 237.5 103.05 236.03C103.35 235.5 103.55 235.01 103.85 234.49C104.16 233.95 104.35 233.71 104.7 233.02C105.18 232.08 105.94 230.79 106.16 229.83C105.41 230.38 104.18 232.67 103.53 233.65C102.66 234.94 101.77 236.3 101.03 237.57V237.56Z" fill="#AFCDDC"/>
<path fill-rule="evenodd" clip-rule="evenodd" d="M69.79 256.67C69.36 257.8 62.86 268.51 62.27 268.97C61.51 270.72 60.23 272.28 59.26 274.06C58.76 274.98 58.37 275.67 57.83 276.5C57.23 277.43 56.86 278.14 56.28 279.08C55.74 279.97 55.39 280.58 54.86 281.53L26.21 329.54C24.17 332.95 22.2 336.21 20.21 339.54C19.41 340.87 14.56 348.54 14.26 349.85C15.36 349.11 20.05 342.34 21.23 340.56C23.36 337.35 25.71 334.08 27.69 330.76C28.16 329.97 28.71 329.21 29.23 328.43C29.79 327.59 30.23 326.78 30.83 325.9L58.77 280.27C59.87 278.44 60.77 276.94 61.87 275.11C62.45 274.15 62.84 273.5 63.42 272.53C63.93 271.68 64.41 270.75 64.97 270.1C65.31 268.94 67.51 265.45 68.14 264.67L68.52 264.04C69.29 262.3 70.65 260.33 71.68 258.59C72.71 256.86 73.91 254.94 74.86 253.32L75.18 253.06L75.44 252.8C75.7 251.7 77.29 249.5 77.93 248.32C81.08 242.53 87.39 232.21 91.17 225.94L116.33 183.21C116.83 182.36 117.28 181.78 117.51 180.78C116.58 181.46 113.89 186.1 112.92 187.54C107.2 196.07 101.86 204.96 96.4 213.61C95.36 215.26 94.42 216.65 93.4 218.35C92.86 219.25 92.45 219.94 91.95 220.77L69.79 256.66V256.67Z" fill="#AFCDDC"/>
<path fill-rule="evenodd" clip-rule="evenodd" d="M299.83 99.4V92.6401C300.02 92.8701 300.21 93.12 300.42 93.37C300.97 94.06 302.17 96.01 303.79 94.69C305.41 93.37 302.61 90.82 300.85 88.55C300.51 88.12 300.18 87.63 299.84 87.13V81.15C301.72 84.16 303.8 87.22 306.16 90.48C308.26 93.3801 310.38 95.56 313.16 97.93C314.01 98.66 319.83 103.95 320.52 105.18C316.31 103.46 314.69 101.35 307.89 99.82C305.52 99.29 302.79 99.2501 299.84 99.3901L299.83 99.4ZM364.49 102.56C359.48 104.73 350.65 102.19 347.06 99.93C344.59 98.37 342.89 96.98 341.31 94.82C340.1 93.17 338.25 89.93 338.26 87.31C336.63 88.63 331.88 97.27 329.96 99.72C328.99 100.96 327.88 102.12 326.96 103.38C327.77 104.65 328.64 105.25 329.66 106.47C336.31 114.49 341.4 123.18 342.28 134.43C342.97 134 344.88 131.51 345.49 130.73L351.22 123.04C355.38 117.82 357.59 114.87 360.92 109.25C362.04 107.35 363.4 106.16 364.49 102.56ZM299.83 81.1701V87.15C298.44 85.08 297.08 82.83 296.02 83.54C294.08 84.81 297.21 89.1001 298.17 90.48C298.75 91.3101 299.26 91.95 299.83 92.66V99.4201C293.77 99.7001 286.78 100.7 280.11 99.6V92.96C281.09 93.21 282.12 93.31 283.2 93.22C286.39 92.96 288.7 90.32 289.68 87.57C292.33 80.11 287.44 66.72 280.11 65.09V18.1401C281.19 20.0101 281.84 22.07 281.86 23.57C281.9 25.8 281.19 29.48 282.47 31.02C283.78 30.38 284.97 27.66 285.19 25.62C285.68 21.11 283.38 15.63 280.11 12.74V8.09004C290.57 14.07 288.85 29.35 286 40.57C284.74 45.51 284.95 45.69 286.95 52.15C290.59 63.92 294.31 72.33 299.83 81.19V81.1701ZM280.11 8.07005V12.72C278.71 11.48 277.12 10.71 275.5 10.71C273.2 10.71 270.6 12.27 275.14 13.58C277.15 14.16 278.9 16.03 280.11 18.13V65.08C279.15 64.87 278.16 64.85 277.13 65.08C265.08 67.75 269.18 90.12 280.11 92.94V99.58C278.22 99.27 276.36 98.79 274.55 98.08C272.19 97.15 269.55 95.61 267.38 94.05V59.52C268.46 59.02 269.67 58.3701 271.01 57.5401C271.91 56.98 274 55.7701 274.73 55.07C276.33 53.5401 274.8 51.17 272.83 51.83C272.06 52.09 269.78 53.82 267.38 55.19V8.52003C267.64 8.36003 267.92 8.19003 268.21 8.02003C271.67 6.04003 276.22 5.95006 279.8 7.89006C279.91 7.95006 280.01 8.01005 280.11 8.07005ZM267.38 8.52003V55.19C266.56 55.66 265.73 56.0801 264.94 56.3901C263.6 56.9201 260.45 57.14 259.97 57.6C258.37 59.12 259.66 63.11 267.38 59.52V94.05C266.93 93.73 266.51 93.41 266.11 93.09C262.3 90.07 258.91 84.77 256.24 80.25C255.18 78.45 254.11 77.1 253.12 75.49V61.68C253.27 61.68 253.43 61.64 253.61 61.57C254.94 61.03 255.06 54.9001 253.12 55.57V41.25C255.32 41.17 257.8 40.99 259.93 41.22C264.5 41.7 264.57 37.18 262.35 35.96C260.97 35.2 261.1 36.0601 260.66 34.0401C259.23 27.4901 258.38 21.5 261.56 15.58C263.4 12.16 264.48 10.37 267.38 8.54005V8.52003ZM253.12 41.24V55.56C253 55.6 252.87 55.67 252.73 55.77C251.3 56.79 251.15 61.78 253.12 61.68V75.49C252.98 75.26 252.83 75.02 252.69 74.77C248.64 67.62 249.94 68.3701 247.26 62.1401C246.35 60.0301 245.38 57.98 244.52 55.84C242.64 51.13 242.02 49.32 240.95 45.91V42.16C244.83 41.7 248.82 41.37 252.79 41.25H253.12V41.24ZM240.95 92.53C241.98 89.08 242.34 85.17 241.87 80.9C241.66 78.96 241.82 77.15 241.41 75.21C241.28 74.58 241.12 73.91 240.95 73.22V92.52V92.53ZM240.95 42.16V45.91C240.63 44.89 240.27 43.73 239.83 42.3C240.2 42.25 240.58 42.21 240.95 42.16ZM240.95 73.23C239.36 66.7401 236.35 57.91 234.14 52.27C233.27 50.06 231.17 45.55 231.25 43.07C222.84 44.1101 216.6 44.7001 209.87 45.82V59.4501C211.78 60.0701 213.49 60.83 214.62 61.46C217.29 62.94 215.7 66.2001 212.92 64.9801C211.71 64.4401 210.84 63.99 209.87 63.58V73.86C213.18 74.26 216.45 76.7001 217.56 78.4201C221.99 85.3 223.44 104.71 210.96 104.78C210.58 104.78 210.22 104.77 209.87 104.73V113.87C220.52 111.11 231.28 107.72 237.23 99.91C238.86 97.77 240.13 95.3 240.95 92.53V73.23ZM209.87 309.61V301.01C212.48 301.42 215.21 301.55 216.91 301.47C219.63 301.35 221.88 301.04 224.33 300.23C226.53 299.5 228.55 298.07 230.53 297.55C230.09 298.34 226.08 301.05 224.91 301.83C224.24 302.28 223.6 302.69 222.88 303.15C219.53 305.32 214.82 307.73 209.88 309.6L209.87 309.61ZM209.87 45.83V59.46C206.82 58.47 203.26 57.84 200.72 58.65C199.61 59 198.55 59.6401 197.62 60.4201V48.4C202.17 47.26 206.1 46.47 209.88 45.84L209.87 45.83ZM209.87 63.58V73.86C209.55 73.82 209.22 73.8 208.9 73.8C200.4 73.88 198.19 83.08 199.22 90.1701C200.22 97.0401 202.92 104.1 209.87 104.73V113.87C205.67 114.96 201.48 115.95 197.61 117.07V66.31C198.43 65.38 199.16 64.25 199.71 63.68C201.67 61.66 203.54 61.89 206.77 62.61C208.09 62.9 209.02 63.2201 209.87 63.57V63.58ZM209.87 301.01V309.61C205.73 311.18 201.42 312.36 197.61 312.68V307.12C198.99 305.31 200.1 303.49 201.86 300.21C202.3 299.39 202.46 298.8 203.08 298.27C203.89 299.65 206.79 300.52 209.87 301V301.01ZM197.61 296.04V266.32C198.01 266.81 198.39 267.31 198.76 267.84C204.53 276.15 202.2 286.65 198.07 295.12C197.92 295.43 197.77 295.74 197.62 296.04H197.61ZM197.61 213.36V210.55C198.2 210.87 198.71 211.17 199.13 211.46C198.94 212.07 198.36 212.68 197.61 213.36ZM153.82 327.15C154.11 327.46 154.41 327.79 154.71 328.14C156.29 329.97 156.2 330.4 156.68 331C156.95 329.92 156.91 330.2 157.94 329.61C160.17 328.32 166.27 324.19 167.31 322.74C166.35 322.11 165.34 321.84 164.38 321.29C161.64 319.73 159.45 317.68 157.53 315.24C155.02 312.07 154.27 309.88 153.81 306.28V327.14L153.82 327.15ZM197.61 48.3901V60.41C194.35 63.12 192.6 67.5301 195.22 67.7601C196.04 67.8301 196.86 67.15 197.61 66.31V117.07C193.27 118.33 189.32 119.76 186.2 121.68C180.65 125.1 177.62 129.37 176.09 135.86C174.45 142.8 174.68 150.88 176.76 157.59L173.1 155.73C172.03 146.15 172.21 135.66 171.57 125.91C170.12 103.96 169.65 87.29 169.29 65.38C169.25 63.14 169.76 60.04 168.4 58.65C167.7 57.93 166.36 57.4601 164.1 54.9501C153.19 42.8401 155.07 28.3201 167.68 25.7301C180.01 23.2001 186.67 33.55 189.39 42.58C191.32 49 189.9 50.33 197.17 48.5L197.63 48.3901H197.61ZM197.61 210.55V213.36C196.81 214.08 195.83 214.89 194.92 215.85C193.47 217.4 192.22 218.76 190.83 220.54C185.92 226.87 180.64 234.12 176.77 241.34C175.59 243.55 171.79 251.46 171.74 253.88C168.36 254.55 160.26 256.73 161.16 260.46C162.03 264.07 168.16 260.34 174.03 259.21C185.01 257.09 192.73 260.39 197.6 266.31V296.03C195.67 299.89 193.8 302.9 191.44 305.81C190.04 307.54 184.27 313.73 182.5 314.54C181.28 313.62 180.16 315.16 178.59 314.31C177.38 313.66 176.34 313.14 175.21 312.52C160.77 304.61 163.14 297.76 160.57 296.21C161.91 290.86 168.43 282.76 171.94 278.31C174.89 274.57 172.36 272.6 170.18 272.88C168.6 273.08 168.05 274.12 167.34 275.01C162.45 281.15 156.48 288.59 154.49 296.47C154.26 296.42 154.04 296.37 153.81 296.3V232.91C160.26 231.01 163.85 228.39 169.52 224.53C170.96 223.55 173.17 222.02 174.11 220.6C175.65 218.27 174.45 213.34 168.89 217.96C167.89 218.79 167.42 219.13 166.39 219.84C162.37 222.6 158.5 225.32 153.82 226.95V172.16C155.07 171.01 156.25 170.07 157.09 169.7C155.79 174.3 166.12 188.28 179.95 185.14C181.08 184.88 180.93 184.61 182.11 184.39C180.21 192.59 168.81 204.73 162.83 209.84C161.86 210.67 161.02 211.65 160.12 212.54C156.7 215.91 160.72 219.1 163.3 217.27C164.25 216.6 165.14 215.48 166.16 214.46C167.99 212.65 170.1 210.96 171.94 209.14L177.39 203.15C182.51 204.28 192.66 207.86 197.6 210.55H197.61ZM197.61 307.13C196.45 308.66 195.1 310.19 193.01 312.6C194.41 312.81 195.97 312.83 197.61 312.69V307.13ZM140.32 309.63L140.66 309.92C141.77 310.81 141.69 310.72 142.6 312.13C143.29 313.2 143.7 314.04 144.18 315.19C145.57 318.51 145.61 321.93 146.31 322.63C147.03 323.33 148.68 323.48 149.61 323.96C151.36 324.85 152.59 325.87 153.81 327.17V306.31C153.67 305.17 153.55 303.89 153.43 302.39L151.07 301.66C149.87 302.87 142.13 309.33 140.32 309.65V309.63ZM153.82 172.16V226.95C152.34 227.46 150.78 227.87 149.1 228.13C143.25 229.05 139.24 228.55 135.35 225.66C131.89 223.09 130.92 218.11 131.19 212.52C131.84 199.07 140.07 186.94 148.1 178.07C149.25 176.8 151.64 174.17 153.82 172.17V172.16ZM153.82 232.9V296.29C147.68 294.44 141.05 284.39 139.27 277.47C135.66 263.48 140.3 248.47 148.47 237.54C149.86 235.69 151 233.67 152.69 233.22C153.08 233.12 153.45 233.01 153.82 232.9Z" fill="#C7C8C8"/>
<path fill-rule="evenodd" clip-rule="evenodd" d="M262.09 179.7L264.32 194.96L265 195.22C268.24 195.43 276.64 192.99 279.62 191.99C279.8 186.35 278.44 180.91 277.81 175.52L276.91 175.59L262.08 179.7H262.09Z" fill="white"/>
<path fill-rule="evenodd" clip-rule="evenodd" d="M210.25 89.53L210.64 89.39L210.25 89.28V89.54V89.53ZM210.25 77.32V73.91C213.42 74.44 216.49 76.76 217.56 78.41C221.99 85.29 223.44 104.7 210.96 104.77C210.72 104.77 210.48 104.77 210.25 104.75V101.15C214.59 101.63 219.03 97.75 218.07 88.81C217.52 83.68 215.47 78.27 210.84 77.4C210.64 77.36 210.45 77.33 210.25 77.32ZM206.55 90.89L210.26 89.53V89.27L206.29 88.13L202.32 86.93C202.13 83.64 203.75 78.86 206.83 77.77C207.86 77.4 209.05 77.2 210.26 77.31V73.9C209.81 73.82 209.35 73.79 208.9 73.79C200.4 73.87 198.19 83.07 199.22 90.16C200.23 97.16 203.02 104.35 210.25 104.75V101.15C206.83 100.77 203.46 97.68 202.86 92.22C203.79 91.58 205.34 91.31 206.55 90.88V90.89Z" fill="white"/>
<path fill-rule="evenodd" clip-rule="evenodd" d="M244.43 183.1L243.08 183.61C242.86 187.4 244.23 191.48 244.7 194.99L245.73 195.46C248.19 195.67 250.52 195.9 253.03 195.96C255.58 196.02 258.18 195.79 260.61 195.84C261.47 195.21 259.58 196.47 261.06 195.57C261.28 195.44 261.3 195.71 261.42 195.34C261.45 195.24 261.55 195.26 261.61 195.21C261.34 192.64 261.01 190.11 260.66 187.63C260.5 186.47 260.03 181.05 259.27 180.61C257.88 180.56 253.74 181.71 252 182.04C249.66 182.49 246.83 183.01 244.42 183.09L244.43 183.1Z" fill="white"/>
<path fill-rule="evenodd" clip-rule="evenodd" d="M239.45 229.65C237.69 230.05 237.44 228.73 235.82 228.17C235.76 228.15 235.69 228.13 235.62 228.11V232.08C237.56 232.93 239.19 234.1 240.83 235.46C241.23 235.28 241.13 235.4 241.46 235.17C241.72 232.19 246.7 215.86 246.74 214.94C244.45 213.35 239.42 211.82 235.62 211.67V215.65C235.63 215.54 235.65 215.43 235.68 215.3C236.54 214.8 239.31 215.39 240.26 215.75C240.81 215.96 241.7 216.38 242.19 216.67C243 217.16 243.13 217.24 242.99 218.48C241.21 218.72 240.66 217.58 238.94 217.1C237.27 216.64 235.78 217.16 235.62 216.1V220.11C238.66 220.17 243.75 222.89 241.1 223.83C240.22 224.14 237.88 222.54 236.56 222.21C236.39 222.17 236.03 222.11 235.61 222.04V226.33C235.91 226.41 236.18 226.49 236.42 226.57C237.89 227.06 239.83 227.82 239.44 229.66L239.45 229.65ZM235.62 228.11C234.44 227.8 232.44 227.95 231.74 226.98C232.02 225.67 234.11 225.94 235.62 226.33V222.04C234.18 221.79 232.02 221.32 234.34 220.31C234.68 220.16 235.12 220.1 235.62 220.11V216.1C235.6 215.98 235.6 215.83 235.62 215.66V211.68C235.28 211.67 234.95 211.67 234.63 211.68C234.32 212.87 233.35 214.97 232.81 216.3C232.15 217.92 231.62 219.33 230.98 220.93C230.13 223.07 228.12 228.37 227.95 230.61C231.11 230.63 233.54 231.18 235.62 232.09V228.12V228.11Z" fill="white"/>
<path fill-rule="evenodd" clip-rule="evenodd" d="M279.76 174.79C279.67 175.91 280.95 180.54 281.23 182.24C281.69 184.96 281.96 187.8 282.19 190.58L282.71 190.75C285.25 190.57 294.74 185.41 296.34 183.9C296.63 181.86 295.08 175.45 294.7 172.97C291.32 172.37 282.85 173.81 279.77 174.8L279.76 174.79Z" fill="white"/>
<path fill-rule="evenodd" clip-rule="evenodd" d="M258.78 229.3C258.44 230.33 258.2 230.23 256.92 230.27C256.04 230.3 255.22 230.42 254.49 230.56V234.2C255.69 234.05 257.41 234.01 260.6 234.05C261.14 230.5 262.7 224.63 263.51 220.11C264.05 217.05 264.41 217.19 264.66 215.87C262.53 214.57 257.72 214.13 254.5 214.81V217.58C254.67 217.53 254.88 217.49 255.12 217.43C256.95 216.99 261.76 216.37 261.59 219.28C260.09 219.83 259.43 218.98 257.7 218.92C256.48 218.88 255.52 219.2 254.5 219.19V222.97C255.07 222.88 255.71 222.83 256.4 222.82C258.04 222.8 259.75 222.68 259.69 224.36C258.54 225 256.53 224.54 254.93 224.71C254.78 224.73 254.64 224.74 254.5 224.75V228.58C256.36 228.27 258.25 228.37 258.79 229.3H258.78ZM254.49 230.56C251.8 231.08 250.2 231.97 250.2 230.62C250.2 229.83 252.33 228.93 254.49 228.57V224.74C250.21 225.11 251.12 223.47 254.49 222.96V219.18C254.17 219.18 253.85 219.14 253.51 219.05C253.55 217.98 253.74 217.78 254.49 217.57V214.8C253.84 214.94 253.26 215.12 252.77 215.35C252.19 215.94 247.26 234.95 247.1 236.24C251.79 235.09 252.26 234.46 254.49 234.19V230.55V230.56Z" fill="white"/>
<path fill-rule="evenodd" clip-rule="evenodd" d="M280.4 80.14C280.7 80 280.98 79.84 281.24 79.56L280.4 79.4V80.14ZM280.4 67.73V65.15C287.57 67.06 292.3 80.2 289.68 87.56C288.7 90.31 286.38 92.9399 283.2 93.2099C282.23 93.2899 281.29 93.2099 280.4 93.0199V90.3299C281.45 90.6699 282.54 90.7099 283.62 90.2999C287.86 88.6799 288.64 83.04 287.45 77.67C286.15 71.82 283.27 68.6099 280.4 67.7399V67.73ZM277.96 81.12C278.43 80.89 278.97 80.6799 279.49 80.4899C279.83 80.3599 280.13 80.26 280.41 80.14V79.4L277.3 78.81L273 78.07C272.02 70.23 276.19 66.45 280.41 67.73V65.15C279.37 64.87 278.27 64.8299 277.14 65.0799C264.99 67.7699 269.27 90.52 280.41 93.01V90.32C277.17 89.27 274.4 85.3199 274.18 82.6799L277.96 81.12Z" fill="white"/>
<path fill-rule="evenodd" clip-rule="evenodd" d="M206.28 88.1398C205.71 85.0698 206.96 80.1998 210.48 81.3398C212.82 82.0998 213.78 86.0498 214.15 88.9698C215.53 99.7098 207.32 99.8198 206.54 90.8898C205.33 91.3198 203.78 91.5898 202.85 92.2298C204.23 104.62 219.79 104.8 218.06 88.8098C217.51 83.6798 215.46 78.2698 210.83 77.3998C209.43 77.1298 208.01 77.3498 206.81 77.7698C203.73 78.8598 202.11 83.6398 202.3 86.9298L206.27 88.1298L206.28 88.1398Z" fill="#874623"/>
<path fill-rule="evenodd" clip-rule="evenodd" d="M68.52 264.03L68.14 264.66C72.68 265.8 75.36 267.4 78.18 270.71L79.42 271.98L94.09 248.6C93.58 248.41 92.99 248.87 92.49 249.18L81.38 256.14C78.75 257.75 70.6 263.08 68.53 264.02L68.52 264.03Z" fill="#E95513"/>
<path fill-rule="evenodd" clip-rule="evenodd" d="M75.44 252.79L75.18 253.05C75.18 253.42 75.26 253.31 74.86 253.31C73.91 254.94 72.71 256.85 71.68 258.58C70.65 260.32 69.29 262.29 68.52 264.03C70.59 263.09 78.74 257.76 81.37 256.15L92.48 249.19C92.98 248.87 93.57 248.42 94.08 248.61L101.02 237.57C99.85 238.14 98.93 238.73 97.87 239.36C93.51 241.97 89.59 244.02 85.13 247.02C83.76 247.94 76.46 252.56 75.42 252.8L75.44 252.79Z" fill="#874623"/>
<path fill-rule="evenodd" clip-rule="evenodd" d="M277.3 78.8098C275.93 75.9498 276.8 72.7898 278.6 71.3698C281.24 71.4898 282.74 74.8798 283.46 77.5798C284.33 80.8498 284.94 84.9498 282.22 86.6298C280.2 86.5198 277.58 83.1998 277.97 81.1198L274.19 82.6798C274.48 86.1698 279.24 91.9598 283.63 90.2798C287.87 88.6598 288.65 83.0198 287.46 77.6498C284.25 63.1798 271.36 64.8898 273.01 78.0598L277.31 78.7998L277.3 78.8098Z" fill="#874623"/>
<path fill-rule="evenodd" clip-rule="evenodd" d="M225.16 189.27C226.58 190.43 239.19 194.71 241.48 194.6L242.35 194.57C241.25 187.89 241.68 189.31 241.1 183.62C239.94 183.54 238.58 183.56 237.77 183.08C235.89 183.04 233.7 182.69 231.79 182.39C230.12 182.12 227.49 181.39 226.05 181.44L225.31 181.5C225.29 181.45 225.2 181.54 225.15 181.55C224.99 183.5 224.35 187.68 225.18 189.27H225.16Z" fill="white"/>
<path fill-rule="evenodd" clip-rule="evenodd" d="M306.39 190.79V182.21C307.86 180.02 308.95 177.33 309.92 173.39L314.83 172.88C313.84 179.57 310.28 185.81 306.39 190.78V190.79ZM306.39 167.65V128.06C308.67 126.28 311.01 127.6 312.14 125.27C312.96 123.58 311.94 121.96 310.83 121.43C309.48 120.79 307.71 121.21 306.39 121.64V99.5798C306.9 99.6498 307.4 99.7398 307.88 99.8498C314.67 101.38 316.3 103.49 320.51 105.21C321.32 105.61 327.65 112.65 328.75 114.1C336.74 124.63 339.72 143.45 332.65 154.82C331.5 156.67 330.07 158.29 328.78 159.73C324.85 164.13 316.62 167.09 310.35 167.54C309.01 167.64 307.69 167.67 306.39 167.66V167.65ZM338.26 87.3098C338.26 89.9398 340.1 93.1698 341.31 94.8198C342.89 96.9798 344.59 98.3698 347.06 99.9298C350.65 102.19 359.49 104.73 364.49 102.56C365.29 101.78 366.8 97.3098 367.21 95.9398C367.98 93.3698 368.4 90.6498 368.38 87.8398C368.34 81.9498 366.65 77.2198 362.09 75.3298C356.49 73.0098 351.16 74.6498 347.22 77.4898C344.98 79.1098 343.9 80.1998 342.21 82.0298C341.15 83.1798 338.76 85.8998 338.25 87.2998L338.26 87.3098ZM306.39 99.5698V121.63L306.25 121.68C296.2 125 301.13 134.81 305.27 129.23C305.64 128.73 306.01 128.35 306.39 128.06V167.65C302.05 167.62 297.87 167.12 293.57 166.96C287.66 166.74 281.35 168.17 274.71 170.04V106.49C275.92 106.4 277.09 106.29 278.3 106.17C279.37 106.06 281.2 106.13 282.07 105.39C280.83 103.77 277.73 103.06 274.72 103.02V98.1398C285.38 102.24 297.82 98.3998 306.4 99.5698H306.39ZM306.39 182.21V190.79C303.72 194.21 300.89 197.04 298.63 199C294.85 202.28 291.81 205.59 287.08 208.62C280.18 213.04 279.88 213.4 274.71 213.6V199.43C278.38 198.56 281.96 197.44 285.39 196.09C291.16 193.82 296.48 191.3 300.74 187.94C303.15 186.03 304.95 184.36 306.39 182.21ZM274.71 98.1398V103.02C271.5 102.97 268.39 103.68 267.69 104.86C265.83 108 272.14 106.66 273.99 106.54L274.71 106.49V170.04C263.32 173.25 250.99 177.73 238.18 177.3V139.36C238.73 139.46 239.25 139.62 239.71 139.89C240.9 140.57 241.83 141.64 243.75 140.79C244.85 140.3 245.65 138.82 245.05 137.13C244.37 135.22 241.28 133.83 238.18 133.46V98.5598C241.2 93.9098 242.63 87.8998 241.87 80.9098C241.66 78.9698 241.82 77.1598 241.41 75.2198C240.72 71.9498 239.52 67.7898 238.18 63.6698V42.4498L239.83 42.2998C241.76 48.4998 242.08 49.7098 244.52 55.8398C245.38 57.9898 246.35 60.0298 247.26 62.1398C249.94 68.3698 248.64 67.6298 252.69 74.7698C253.8 76.7298 255.02 78.1898 256.24 80.2498C258.91 84.7698 262.3 90.0698 266.11 93.0898C268.46 94.9498 271.7 96.9598 274.55 98.0698L274.71 98.1298V98.1398ZM274.71 199.44V213.61C273.66 213.65 272.4 213.68 270.85 213.74C270.65 213.5 270.69 213.54 270.47 213.16C269.6 211.61 269.79 211.43 267.02 210.4C263.31 209.03 258.79 208.23 254.85 208.97C250.57 209.77 251 210.55 249.1 209.5C246.27 207.93 241.98 206.52 238.3 206.08H238.18V199.96C250.13 202.52 262.91 202.24 274.71 199.44ZM238.18 291.5V260.61L240.39 257.69C243.57 267.17 249.95 269.06 253.71 261.72C257.99 253.37 251.66 245.25 250.7 241.18C252.16 240.31 255.75 239.69 257.68 239.7C260.16 239.72 262.71 241.6 264.51 239.74C265.77 238.43 267.85 228.56 268.15 226.03L273.32 226.12C272.66 230.49 268.25 243.4 266.57 248C260.7 264.03 255.39 271.48 245.5 283.98C243.49 286.52 240.86 289.19 238.52 291.2C238.42 291.28 238.3 291.39 238.17 291.5H238.18ZM182.51 314.55C181.49 313.78 180.53 314.74 179.31 314.56V316.45C180.59 315.94 181.72 315.29 182.51 314.55ZM238.18 42.4498V63.6698C236.84 59.5198 235.36 55.4098 234.14 52.2798C233.27 50.0698 231.17 45.5598 231.25 43.0798L238.18 42.4498ZM238.18 98.5598V133.46C234.45 133.02 230.7 134.04 231.14 137.4C231.49 140.13 235.26 138.84 238.18 139.36V177.3C232.42 177.1 226.56 175.91 220.64 173.17C215.84 170.94 210.71 168.18 206.79 165.06C203.07 162.1 198.55 158 195.66 154.24C194.34 152.52 193.83 150.51 193 148.12C191.71 144.41 189.55 138.59 188.97 134.56C189.39 134.26 193.08 132.44 190.58 129.63C189.02 127.88 186.47 128.97 184.5 129.8C182.59 130.61 180.12 131.26 179.39 132.96C179.35 133.04 179.32 133.13 179.3 133.21V128.08C180.98 125.56 183.22 123.49 186.19 121.67C199.13 113.69 226.28 114.25 237.21 99.8998C237.54 99.4598 237.86 99.0098 238.16 98.5498L238.18 98.5598ZM238.18 199.96C228.19 197.82 218.79 193.7 211.05 187.4C203.14 180.96 199.97 176.89 195.36 167.73C194.3 165.62 192.7 161.58 191.62 159.95L189.72 156.47C189.6 154.85 184.46 142.65 183.57 136.6C182.2 136.66 181.02 136.89 180.06 136.05C179.73 135.76 179.47 135.39 179.32 134.96V158.65C181.43 159.1 184.09 159.66 187.01 165.25C190.35 171.66 188.82 176.11 189.04 180.78C189.2 181.54 190.84 183.84 191.35 184.64C191.94 185.57 193.43 187.6 193.8 188.56C194.28 189.5 200.93 194.62 201.56 195.09C208.33 200.04 221.17 208.02 229 210.41C231.07 206.07 232.17 205.38 238.18 206.08V199.98V199.96ZM238.18 260.61V291.5C236.42 293.06 231.95 297.22 230.52 297.55C228.54 298.07 226.52 299.51 224.32 300.23C221.87 301.04 219.62 301.34 216.9 301.47C213.2 301.63 204.57 300.83 203.08 298.28C203.27 296.18 214.01 278.65 203.31 264.05C197.31 255.87 188.87 252.44 179.31 252.84V236.92C182.79 231.19 186.92 225.57 190.83 220.54C192.21 218.76 193.47 217.4 194.92 215.85C196.67 213.97 198.73 212.72 199.13 211.45C203.37 212.98 219.55 223.02 223.66 224.1C223.22 227.05 219.3 235.13 223.17 236.48C224.65 237 228.42 236.07 230.99 236.64C233.25 237.15 234.8 238.38 236.24 239.27L236.04 240C233.46 240.63 228.95 245.2 227.53 247.15C225.35 250.14 223.66 254.69 224.03 259.51C224.65 267.62 231.78 268.33 236.94 262.24L238.18 260.6V260.61ZM179.32 185.27C179.53 185.23 179.75 185.19 179.96 185.14C181.09 184.88 180.94 184.61 182.12 184.39C184.96 176.77 183.62 169.1 179.32 164.79V185.28V185.27ZM179.32 314.57C179.09 314.54 178.85 314.46 178.61 314.33C177.4 313.68 176.36 313.16 175.23 312.54C160.79 304.63 163.16 297.78 160.59 296.23C159.43 298.91 158.94 303.82 159.74 306.86C161.02 311.77 166.84 317.93 173.55 317.69C175.49 317.62 177.56 317.17 179.33 316.46V314.57H179.32ZM179.32 128.09V133.22C179.11 133.84 179.14 134.43 179.32 134.94V158.63C178.34 158.42 177.48 158.24 176.76 157.58C174.69 150.87 174.46 142.78 176.09 135.85C176.8 132.82 177.84 130.28 179.31 128.08L179.32 128.09ZM179.32 164.79V185.28C165.81 187.86 155.82 174.24 157.1 169.71C158.01 168.5 163.8 164.88 165.72 163.93C169.32 162.15 173.23 160.68 177.09 163.03C177.91 163.53 178.65 164.12 179.33 164.79H179.32ZM179.32 236.92V252.84C176.87 252.94 174.34 253.3 171.76 253.89C171.8 251.47 175.6 243.56 176.79 241.35C177.58 239.87 178.43 238.4 179.32 236.93V236.92Z" fill="#FAD9D0"/>
<path fill-rule="evenodd" clip-rule="evenodd" d="M200.72 58.64C195.73 60.23 191.85 67.4599 195.23 67.7599C196.95 67.9099 198.67 64.7599 199.71 63.6799C201.67 61.6599 203.54 61.8899 206.77 62.6099C209.62 63.2499 210.66 63.9699 212.92 64.9699C215.7 66.1999 217.28 62.9299 214.62 61.4499C211.67 59.8099 204.86 57.3099 200.72 58.6299V58.64Z" fill="#874623"/>
<path fill-rule="evenodd" clip-rule="evenodd" d="M64.97 270.09C67.4 270.25 70.09 271.53 71.57 272.66C73.3 273.99 74.51 275.73 75.69 277.59C76.49 277.13 77.1 275.8 77.65 274.88C78.23 273.9 78.92 273.01 79.41 271.97L78.17 270.7C75.36 267.39 72.67 265.79 68.13 264.65C67.5 265.43 65.31 268.92 64.96 270.08L64.97 270.09Z" fill="#874623"/>
<path fill-rule="evenodd" clip-rule="evenodd" d="M231.14 137.41C231.56 140.65 236.81 138.22 239.72 139.89C240.91 140.57 241.84 141.64 243.76 140.79C244.86 140.3 245.66 138.82 245.06 137.13C243.55 132.91 230.35 131.26 231.15 137.41H231.14Z" fill="#874623"/>
<path fill-rule="evenodd" clip-rule="evenodd" d="M282.47 31.0097C283.78 30.3697 284.97 27.6497 285.19 25.6097C285.88 19.1697 280.91 10.7297 275.5 10.7197C273.2 10.7197 270.6 12.2797 275.14 13.5897C278.94 14.6897 281.8 20.3697 281.86 23.5697C281.9 25.7997 281.19 29.4797 282.47 31.0197V31.0097Z" fill="#E6E2EA"/>
<path fill-rule="evenodd" clip-rule="evenodd" d="M277.3 78.8096L281.25 79.5596C280.74 80.0796 280.22 80.2096 279.49 80.4896C278.97 80.6796 278.43 80.8896 277.96 81.1196C277.57 83.1996 280.19 86.5296 282.21 86.6296C284.93 84.9596 284.33 80.8596 283.45 77.5796C282.73 74.8796 281.24 71.4996 278.59 71.3696C276.79 72.7796 275.93 75.9496 277.29 78.8096H277.3ZM206.28 88.1396L210.64 89.3896L206.54 90.8996C207.32 99.8296 215.53 99.7096 214.15 88.9796C213.77 86.0596 212.82 82.1096 210.48 81.3496C206.96 80.1996 205.71 85.0796 206.28 88.1496V88.1396Z" fill="#381908"/>
<path fill-rule="evenodd" clip-rule="evenodd" d="M212 180.58C213.56 181.95 220.21 187.47 222.43 187.83L223.23 180.35C221.55 180.05 219.26 178.91 217.68 178.19C216.13 177.49 213.84 175.94 212.49 175.73L212.04 175.87L212.01 180.59L212 180.58Z" fill="white"/>
<path fill-rule="evenodd" clip-rule="evenodd" d="M312.14 125.27C312.96 123.58 311.94 121.96 310.83 121.43C309.44 120.76 307.59 121.24 306.25 121.68C296.2 125 301.13 134.81 305.27 129.23C307.86 125.75 310.82 127.99 312.14 125.27Z" fill="#874623"/>
<path fill-rule="evenodd" clip-rule="evenodd" d="M272.84 51.83C271.81 52.18 268.08 55.16 264.95 56.4C263.61 56.93 260.46 57.15 259.98 57.61C258.16 59.34 260.09 64.29 271.02 57.55C271.92 56.99 274.01 55.78 274.74 55.08C276.34 53.55 274.81 51.18 272.84 51.84V51.83Z" fill="#874623"/>
<path fill-rule="evenodd" clip-rule="evenodd" d="M62.2699 268.96C62.8599 268.51 69.35 257.8 69.79 256.66C67.9 257.59 61.89 261.13 60.6 262.21L59.6799 263.1C57.9499 265.4 59.6199 268.13 62.2699 268.95V268.96Z" fill="#874623"/>
<path fill-rule="evenodd" clip-rule="evenodd" d="M282.06 105.4C279.49 102.06 269.04 102.59 267.69 104.87C265.83 108.01 272.14 106.67 273.99 106.55C275.47 106.45 276.85 106.33 278.29 106.18C279.36 106.07 281.19 106.14 282.06 105.4Z" fill="white"/>
<path fill-rule="evenodd" clip-rule="evenodd" d="M296.02 83.53C294.08 84.8 297.21 89.09 298.17 90.47C298.94 91.57 299.6 92.35 300.42 93.38C300.97 94.07 302.17 96.02 303.79 94.7C305.41 93.38 302.61 90.83 300.85 88.56C299.11 86.32 297.35 82.65 296.03 83.52L296.02 83.53Z" fill="#E6E2EA"/>
<path fill-rule="evenodd" clip-rule="evenodd" d="M259.28 180.63C260.04 181.07 260.51 186.49 260.67 187.65C261.02 190.13 261.36 192.67 261.62 195.23C261.56 195.28 261.46 195.26 261.43 195.36C261.31 195.73 261.29 195.45 261.07 195.59C259.59 196.49 261.47 195.22 260.62 195.86L265.01 195.24L264.33 194.98L262.1 179.72C261.53 179.88 261.18 179.96 260.63 180.1C259.72 180.34 259.83 180.18 259.29 180.64L259.28 180.63Z" fill="#C7C6C7"/>
<path fill-rule="evenodd" clip-rule="evenodd" d="M276.92 175.59L277.82 175.52C278.45 180.92 279.81 186.36 279.63 191.99C280.2 191.82 280.65 191.66 281.27 191.45C281.57 191.35 281.79 191.29 282.03 191.17C282.72 190.85 282.26 191.15 282.71 190.75L282.19 190.58C281.96 187.8 281.69 184.97 281.23 182.24C280.95 180.54 279.67 175.91 279.76 174.79C278.79 175 277.62 175.17 276.92 175.58V175.59Z" fill="#C7C6C7"/>
<path fill-rule="evenodd" clip-rule="evenodd" d="M299.03 181.79C300.79 180.5 303.33 176.78 303.88 173.53L298 173.35L296.59 173.18L298.34 180.91C298.82 182.34 298.15 181.62 299.04 181.78L299.03 181.79Z" fill="white"/>
<path fill-rule="evenodd" clip-rule="evenodd" d="M241.48 194.6C242.1 195.14 242.62 195.02 243.56 195.15C244.35 195.26 244.93 195.4 245.74 195.46L244.71 194.99C244.24 191.48 242.87 187.4 243.09 183.61L244.44 183.1L237.77 183.07C238.59 183.54 239.95 183.52 241.1 183.61C241.68 189.3 241.25 187.89 242.35 194.56L241.48 194.59V194.6Z" fill="#C7C6C7"/>
<path fill-rule="evenodd" clip-rule="evenodd" d="M209.37 178.1C209.74 177.55 209.7 177.02 209.83 176.25C210.04 174.94 210.25 175.12 209.68 174.1C209.23 173.59 206.08 171.74 205.31 171.2C204.09 170.34 201.95 168.74 201.28 167.91C200.89 167.89 200.98 167.79 200.98 168.16C202.22 170.52 207.72 177.21 209.38 178.09L209.37 178.1Z" fill="white"/>
<path fill-rule="evenodd" clip-rule="evenodd" d="M296.34 183.9L299.03 181.79C298.14 181.63 298.81 182.34 298.33 180.92L296.58 173.19L297.99 173.36C297.93 173.32 297.85 173.28 297.8 173.26L296.43 172.99C295.9 172.97 295.24 172.99 294.69 172.97C295.08 175.45 296.63 181.85 296.33 183.9H296.34Z" fill="#C7C6C7"/>
<path fill-rule="evenodd" clip-rule="evenodd" d="M222.43 187.83C222.99 188.57 224.2 189 225.16 189.27C224.34 187.67 224.97 183.5 225.13 181.55C225.19 181.53 225.27 181.44 225.29 181.5L226.03 181.44C225.47 180.82 224.07 180.77 223.22 180.36L222.42 187.84L222.43 187.83Z" fill="#C7C6C7"/>
<path fill-rule="evenodd" clip-rule="evenodd" d="M234.34 220.31C231.35 221.62 235.83 222.03 236.57 222.21C237.89 222.54 240.23 224.14 241.11 223.83C244.19 222.74 236.81 219.24 234.35 220.31H234.34Z" fill="#C7C6C7"/>
<path fill-rule="evenodd" clip-rule="evenodd" d="M258.78 229.3C257.61 227.29 250.19 229.15 250.2 230.62C250.2 232.34 252.79 230.42 256.92 230.27C258.2 230.22 258.44 230.33 258.78 229.3Z" fill="#C7C6C7"/>
<path fill-rule="evenodd" clip-rule="evenodd" d="M252.73 55.7697C251.19 56.8697 251.13 62.5597 253.61 61.5597C255.02 60.9897 255.08 54.0897 252.73 55.7697Z" fill="#874623"/>
<path fill-rule="evenodd" clip-rule="evenodd" d="M253.51 219.06C254.94 219.43 256.09 218.87 257.69 218.92C259.42 218.98 260.08 219.83 261.58 219.28C261.75 216.38 256.94 216.99 255.11 217.43C253.83 217.74 253.55 217.73 253.51 219.06Z" fill="#C7C6C7"/>
<path fill-rule="evenodd" clip-rule="evenodd" d="M231.74 226.98C232.49 228.01 234.69 227.78 235.82 228.17C237.44 228.73 237.69 230.05 239.45 229.65C239.84 227.81 237.9 227.05 236.43 226.56C235.01 226.09 232.08 225.41 231.74 226.97V226.98Z" fill="#C7C6C7"/>
<path fill-rule="evenodd" clip-rule="evenodd" d="M259.68 224.36C259.74 222.68 258.03 222.8 256.39 222.82C251.45 222.88 249.37 225.32 254.92 224.71C256.51 224.54 258.53 225 259.68 224.36Z" fill="#C7C6C7"/>
<path fill-rule="evenodd" clip-rule="evenodd" d="M235.68 215.3C235.22 217.39 236.95 216.54 238.94 217.1C240.66 217.58 241.2 218.72 242.99 218.48C243.14 217.25 243.01 217.16 242.19 216.67C241.69 216.37 240.81 215.95 240.26 215.75C239.31 215.39 236.54 214.8 235.68 215.3Z" fill="#C7C6C7"/>
<path fill-rule="evenodd" clip-rule="evenodd" d="M209.37 178.1L212.01 180.58L212.04 175.86L212.49 175.72C212.08 175.23 212.49 175.62 211.88 175.2C211.74 175.1 211.44 174.95 211.22 174.83C210.57 174.49 210.33 174.35 209.67 174.09C210.24 175.11 210.03 174.93 209.82 176.24C209.7 177.01 209.74 177.54 209.36 178.09L209.37 178.1Z" fill="#C7C6C7"/>
<path fill-rule="evenodd" clip-rule="evenodd" d="M193.8 188.56C193.43 187.6 191.94 185.57 191.35 184.64C190.84 183.84 189.2 181.54 189.04 180.78C187.43 183.77 190.32 185.87 192.76 187.87C193.43 188.42 192.97 188.18 193.8 188.56Z" fill="#C7C8C7"/>
<path fill-rule="evenodd" clip-rule="evenodd" d="M269.23 220.9C270.31 220.87 271.46 220.71 272.45 220.57C273.47 220.42 274.29 220.49 274.87 219.75C273.9 219.1 269.91 219.41 269.38 219.75L269.23 220.9ZM186.18 190.11C185.26 191.59 184.65 193.1 183.81 194.41C183.01 195.66 181.77 197.14 181.19 198.44C196.99 201.07 220.52 217.46 225.78 218.57L226.7 215.85C224.85 215 222.62 214.19 220.65 213.41C214.43 210.92 200.32 201.72 195.19 197.57C193.58 196.27 192.27 195.18 190.67 193.84C189.87 193.17 186.84 190.3 186.18 190.11ZM97.08 246.37L84.95 266.95C83.63 269.22 81.83 271.81 80.84 274.05C81.64 276.23 86.23 279.41 89.63 279.59C91.79 279.7 93.93 279.15 95.99 278.73C98.5 278.23 100.14 278.08 102.87 278.13C101.96 272.83 101.84 269.44 104.11 264.95C105.82 261.56 108.41 258.7 111.59 256.94C116.97 253.97 119.61 255.7 121.02 254.75C123.91 252.81 124.09 249.16 135.02 250.5C135.5 249.86 137.5 244.43 138.89 241.93C140.03 239.88 143.44 235.09 143.57 234.29C137.41 234.08 132.38 232 128.79 227.32C128.34 226.73 128.11 226.21 127.57 225.68C127.03 225.94 124.73 228.06 124.08 228.66C118.79 233.61 111.36 237.83 105.14 241.73C103.15 242.98 99.18 245.56 97.06 246.37H97.08ZM130.91 285.43L130.89 286.35C132.32 286.83 133.29 286.97 134.64 287.55C135.66 287.99 136.77 288.69 137.8 288.83C137.49 288.15 135.18 283.69 134.82 283.42C134.3 282.52 134.77 282.89 133.98 282.53C133.04 283.64 131.81 284.34 130.91 285.43ZM230.05 260.34C233.2 259.91 239.34 248.92 239.67 244.25C237.31 245.16 233.55 248.42 232.31 250.15C230.35 252.89 229.38 256.35 230.04 260.34H230.05ZM245.75 244.87C244.17 248.36 244.88 253.33 246.34 256.9C246.56 257.45 246.8 257.97 247.08 258.48L248.13 259.81C251.26 256.5 247.42 247.77 245.74 244.87H245.75ZM244.78 293.25C243.91 293.8 241.77 295.8 241.02 296.53C239.92 297.61 238.19 298.73 237.32 299.88L242.76 301L244.78 293.25Z" fill="#E95513"/>
<path fill-rule="evenodd" clip-rule="evenodd" d="M320.93 96.9896C320.52 96.2096 320.58 96.2696 319.81 95.8496C320.21 96.6596 320.12 96.5496 320.93 96.9896Z" fill="#BBAAA1"/>
<path fill-rule="evenodd" clip-rule="evenodd" d="M344.72 141.28L345.17 141.57L345.19 140.67C344.69 141.01 345.03 140.19 344.72 141.29V141.28Z" fill="#C7C6C7"/>
<path fill-rule="evenodd" clip-rule="evenodd" d="M236.04 240.01C236.25 239.87 237.18 239.29 236.24 239.28L236.04 240.01Z" fill="#C58974"/>
<path fill-rule="evenodd" clip-rule="evenodd" d="M240.83 235.46C241.23 235.89 240.71 235.71 241.25 235.54C241.57 235.44 241.37 235.63 241.46 235.17C241.13 235.4 241.23 235.28 240.83 235.46Z" fill="#C9A186"/>
<path fill-rule="evenodd" clip-rule="evenodd" d="M106.42 229.3H106.67L106.46 229L106.42 229.3Z" fill="#AFCDDC"/>
<path fill-rule="evenodd" clip-rule="evenodd" d="M117.52 180.77H117.77L117.56 180.47L117.52 180.77Z" fill="#AFCDDC"/>
<path fill-rule="evenodd" clip-rule="evenodd" d="M117.77 180.26C117.77 180.26 117.85 180.15 117.85 180.18C117.85 180.18 117.75 180.23 117.77 180.26Z" fill="#AFCDDC"/>
</svg>
