<svg width="261" height="270" viewBox="0 0 261 270" fill="none" xmlns="http://www.w3.org/2000/svg">
<path fill-rule="evenodd" clip-rule="evenodd" d="M260.64 282.45V280.03C261.04 280.73 261.13 281.53 260.64 282.45ZM260.64 280.04V282.46C260.61 282.52 260.58 282.57 260.54 282.63C260.44 282.79 260.33 282.93 260.2 283.05V279.42C260.37 279.62 260.52 279.82 260.64 280.04ZM260.2 279.42V283.05C259.9 283.34 259.51 283.55 259.06 283.73V278.34C259.47 278.68 259.87 279.04 260.2 279.42ZM259.07 278.33V283.72C257.77 284.22 256.03 284.37 254.78 285.05L252.18 287.33C251.87 287.72 251.58 288.12 251.3 288.51V281.88C252.69 280.79 253.11 280.83 253.7 280.28L251.3 278.27V271.92L251.9 272.48C252.45 272.99 252.71 273.22 253.3 273.7L257.57 277.11C258.01 277.5 258.56 277.9 259.08 278.34L259.07 278.33ZM251.29 271.92V278.27L248.56 275.98C240.77 269.54 229.59 253.69 224.37 244.42V235.12C224.57 235.94 225.77 237.72 226.25 238.46L231.24 246.55C232.95 249.14 234.58 251.75 236.45 254.25L238.67 257.26C239.06 257.87 239.34 258.16 239.79 258.75C244.22 264.59 246.23 267.14 251.29 271.92ZM251.29 281.88C250.65 282.39 249.79 283.14 248.62 284.3C246.79 286.13 249.12 284.55 245.19 286.62C238.96 289.9 241.62 288.06 236.72 289.34C235.65 289.62 234.74 290.07 233.73 290.29C234.26 283.87 234.95 281.79 234.34 274.47C233.63 266.03 231.35 254.66 224.37 249.5V256.55C224.49 256.72 224.6 256.89 224.72 257.07C230.28 265.7 231.33 284.68 227.6 294.87C227.2 295.95 226.17 298.72 225.48 299.22C225.38 299.75 224.94 300.43 224.37 301.09V307.19C226.31 306.12 227.97 304.43 229.26 302.27C230.27 300.58 231.27 298.88 231.97 296.95C232.39 295.8 232.14 296.05 233.12 295.48C238.12 292.58 240.41 293.82 243.61 292.54C247.39 291.03 246.13 292.48 248.22 291.56L249.65 290.55C250.29 289.92 250.79 289.22 251.29 288.5V281.87V281.88ZM224.37 235.1V227.88C228.98 222.33 231.46 215.42 229.83 207.85C228.89 203.48 227.21 200.79 224.37 198.96V193.45C228.39 195.13 230.48 197.03 232.91 201.26C233.19 201.75 233.46 202.47 233.68 203.11C235.45 208.2 235.92 214.54 234.29 219.73L233.19 222.82C232.8 223.77 232.29 224.73 231.81 225.63C230.88 227.36 229.54 229.24 228.34 230.71L224.37 235.11V235.1ZM224.37 193.45V198.96C224.17 198.83 223.96 198.7 223.75 198.58C220.35 196.64 214.97 196.37 210.58 196.43C208.18 196.46 205.74 196.7 203.31 196.8C193.67 197.18 196.93 196.87 194.79 199.42C194.29 200.02 193.64 200.63 193.13 201.08C192.43 201.7 191.79 202.28 191.12 202.88V192.87C191.92 192.82 192.35 192.62 193.15 192.55L200.63 192.01C202.21 191.98 204.44 191.73 205.52 191.67C209.55 191.46 213.92 191.39 217.91 191.84C219.24 191.99 221.37 192.33 222.45 192.71C223.14 192.96 223.78 193.2 224.37 193.45ZM224.37 227.88V235.1V235.12V244.42L224.22 244.15L221.21 237.9L218.41 240.33C219.14 242.42 219.97 244.35 220.65 246.51C221.21 248.28 221.35 247.69 222.83 248.51C223.37 248.81 223.88 249.14 224.38 249.51V256.56C218.79 248.38 212.76 251.78 207.9 258.41C205.32 261.93 203.59 263.69 201.46 268.02C200.93 269.11 199.89 271.93 199.36 272.32C197.2 267.9 201.33 259.76 203.66 256.27C205.81 253.05 210.47 247.95 215.68 247.19C215.58 246.29 214.74 244.01 214.25 243.43L208.7 246.84C203.91 249.55 198.41 252.23 192.99 253.28C192.57 253.36 191.84 253.42 191.12 253.48V248.8C192.14 248.67 193.17 248.47 194.19 248.21C205.25 244.75 216.65 237.02 224.18 228.12L224.37 227.89V227.88ZM224.37 301.1V307.2C221.76 308.63 218.64 308.94 215.22 307.75C210.44 306.09 207.47 300.8 207.09 300.53C206.32 300.71 206.35 300.95 205.68 301.21C202.64 302.38 199.85 301.4 196.85 301.5C194.48 301.58 192.75 302.22 191.12 302.98V298.53C192.9 297.82 195.09 297.29 198.2 297.35C199.52 297.37 201.04 297.67 202.37 297.51C203.28 297.4 204.62 296.77 205.61 296.44L204.46 290.6C204.07 290.7 199.26 294.02 191.12 296.99V292.32C195.68 290.53 199.93 288.18 203.55 285.48C205.23 284.23 204.4 280.24 206.28 276.36C206.41 276.09 206.61 275.74 206.72 275.58C206.75 275.54 206.94 275.32 206.97 275.29C207.24 275.02 206.91 275.28 207.3 275.04C207.87 278.07 208.21 280.64 208.53 283.91C208.7 285.68 209.15 291.72 209.69 292.89C209.93 297.05 213.16 301.33 215.65 302.8C217.35 303.81 219.68 304.57 221.79 303.39C222.47 303.01 223.55 302.08 224.37 301.13V301.1ZM191.12 221.7V216.66L197.3 213.53C197.44 211.06 195.14 208.75 195.49 206.94C196.79 206.92 198 208.3 198.55 208.94C199.46 209.99 199.82 210.82 201.34 211.45C203.87 210.37 209.56 206.29 211.3 206.14C211.05 206.84 210.23 207.36 209.67 207.86C203.69 213.25 197.98 217.57 191.12 221.7ZM191.12 192.04C191.22 191.89 191.34 191.73 191.45 191.54C191.79 190.98 191.98 190.7 192.34 190.16C195 186.11 197.26 181.63 198.92 177.03C200.33 173.12 201.64 169.15 202.52 165.1C202.79 163.85 202.89 162.64 203.2 161.42C205.56 152.14 206.05 142.15 206.05 132.52C206.05 130.04 205.86 128.03 205.88 125.72C205.89 123.19 205.41 116.79 205.19 114.02C205.14 113.44 205.21 112.93 205.13 112.33C205.01 111.41 205.09 110.08 204.93 109.04L204.65 105.66C204.48 99.9699 204.15 94.5399 203.58 89.1099C202.96 83.1099 201.11 69.3 200.99 65.19L200.81 60.1099C200.86 59.1999 200.89 59.49 201.36 58.92C201.66 58.57 201.85 58.34 202.16 57.98L206.08 53C207.41 51.32 208.47 49.36 209.43 47.45C213.54 39.3 213.29 26.89 206.45 20.13C202.92 16.64 198.37 13.72 191.75 13.72C191.54 13.72 191.33 13.72 191.13 13.72V19.32C193.36 19.15 195.66 19.51 197.73 20.48C201.36 22.18 204.38 25.33 205.76 29.01C209.42 38.76 204.29 47.2799 198.3 54.2799C196.14 56.7999 196.9 56.3799 196.02 58.2799C194.63 61.2599 197.03 77.1799 197.43 80.7499C199.24 97.1299 199.78 110.75 200.81 127.16C201.13 132.32 201.11 138.07 200.64 143.13C200.42 145.52 199.69 156.55 198.88 157.78C199.05 160.8 195.65 171.42 194.54 174.36C193.63 176.78 192.45 179.44 191.15 182.05V192.03L191.12 192.04ZM191.12 13.73V19.3299C188.26 19.5499 185.51 20.6199 183.47 22.3699C183.06 22.7199 182.74 22.92 182.33 23.32C181.78 23.86 180.92 24.91 180.43 25.6C178.05 28.88 176.1 32.7299 175.03 36.7799C174.44 39.0199 174.37 41.51 173.87 43.98C173.64 45.13 173.83 46.47 172.78 47.19V27.7199C172.9 27.49 173.02 27.2699 173.15 27.0499C174.75 24.3799 176.23 21.7999 178.44 19.6099C181.85 16.2199 185.74 13.9 191.12 13.73ZM191.12 182.06V192.04C190.94 192.29 190.79 192.53 190.7 192.89C190.85 192.89 190.99 192.89 191.12 192.88V202.89C190.65 203.32 190.17 203.76 189.65 204.23C188.02 205.72 185.92 207.53 184.44 209.13L179.09 213.91C177.91 214.91 176.72 215.89 175.41 216.86L172.78 218.69V213.56C175.8 211 178.44 208.35 181.64 205.29C182.92 204.07 183.96 202.91 185.27 201.77L188.89 198.35C185.24 198.26 184.71 200.57 181.15 203.92C177.95 206.93 175.4 209.15 172.78 211.07V204.85L172.81 204.83C174.72 203.11 176.63 201.69 178.32 199.87C178.82 199.33 179.05 199.06 179.62 198.56C180.45 197.82 182.81 195.1 183.16 194.25C183.82 192.67 183.66 193.86 185.52 191.38C187.43 188.85 189.39 185.5 191.12 182.06ZM191.12 216.66L190.87 216.79C184.93 219.62 177.6 224.46 174.03 229.6C173.63 230.07 173.2 230.71 172.78 231.45V246.92C174.33 249.06 176.57 250.76 179.29 251.93C184.35 254.09 185.17 253.19 189.16 253.81C189.5 253.66 190.31 253.57 191.12 253.5V248.82C185.27 249.57 179.55 248.12 176.71 244.21C174.65 241.37 174.98 238.14 176.41 234.97C177.38 232.81 180.33 228.96 181.64 228.59C182.47 227.23 187.79 223.66 189 222.97C189.72 222.55 190.42 222.14 191.12 221.72V216.68V216.66ZM191.12 292.3V296.97C188.92 297.77 186.47 298.55 183.8 299.22C178.78 300.49 176.38 299.55 176.65 301.63C179.76 301.86 181.72 302.14 184.74 301.37C186.97 300.8 188.65 299.49 191.11 298.52V302.97C187.84 304.49 184.96 306.51 177.99 305.53C177.67 305.49 176.05 304.85 175.85 305.05C175.57 305.63 175.29 308.43 175.25 309.46C175.09 313.58 176.48 317.99 178.06 321.51C180.86 327.74 182.97 337.11 180.89 343.59C180.46 344.94 179.47 347.07 178.71 348.22C177.76 349.65 176.9 350.85 175.72 352.03C175.02 352.72 174.69 353.06 173.86 353.66C173.55 353.88 173.16 354.14 172.76 354.37V348.47C173.42 347.72 174.01 346.88 174.57 346C177.57 341.24 177.11 338.6 176.42 332.5C175.65 329.74 175.31 327.4 174.25 324.8C173.74 323.54 173.24 322.36 172.76 321.15V295.96C178.94 295.96 185.28 294.59 191.1 292.3H191.12ZM172.78 183.91C174.41 181.4 175.91 178.66 176.86 175.9C177.68 173.52 181.8 162.78 175.96 164.18C174.88 164.44 173.82 164.73 172.78 165.03V170.11C172.97 170.05 173.15 170 173.33 169.96C173.22 170.81 173.03 171.67 172.78 172.54V183.9V183.91ZM172.78 70.6V65.51C173.73 66.6 174.91 68.06 174.92 68.89C174.94 70.05 173.85 70.9099 172.78 70.6099V70.6ZM172.78 27.7199V47.19C172.19 47.6 171.2 47.8 169.52 47.66C166.65 47.42 163.41 47.2499 160.06 47.0899V41.73L168.89 42.16C168.89 38.71 169.8 35.79 170.77 32.7C170.94 32.17 170.98 31.9599 171.16 31.5199C171.66 30.2799 172.15 28.93 172.78 27.73V27.7199ZM172.78 65.5V70.5899C172.57 70.5299 172.37 70.43 172.17 70.2799C171.69 69.91 170.4 68.03 169.93 67.45C167.98 65.1 164.38 60.9499 160.93 62.1099C160.63 62.2099 160.34 62.33 160.06 62.47V58.67C160.29 58.59 160.52 58.5299 160.74 58.4899C165.67 57.4599 168.4 61.07 170.74 63.16C171.43 63.78 171.37 63.8499 171.89 64.4599C172.11 64.7199 172.43 65.0799 172.79 65.4899L172.78 65.5ZM172.78 165.04V170.12C171.29 170.56 169.55 171.3 168.04 171.78C165.42 172.61 162.76 173.33 160.06 173.96V168.9C160.92 168.69 161.75 168.46 162.56 168.23C166.14 167.21 169.42 166.02 172.79 165.03L172.78 165.04ZM172.78 172.55C171.73 176.1 169.59 179.68 167.83 182.41C167 183.7 165.94 184.92 165.3 185.97C164.61 185.77 162.8 184.53 161.86 184.06C161.29 183.77 160.68 183.5 160.05 183.24V188.24C160.92 188.49 161.88 188.75 162.45 189.23C162.21 189.69 161.25 190.76 160.05 191.99V198.75C163.12 196.03 165.77 193.17 167.99 190.42C169.44 188.62 171.17 186.38 172.77 183.91V172.55H172.78ZM172.78 204.85V211.07C169.51 213.48 166.13 215.42 161.24 217.86L160.06 218.44V213.1L160.23 213.01C164.82 210.53 168.89 208.35 172.78 204.85ZM172.78 213.55C170.83 215.2 168.72 216.8 166.21 218.46C165.18 219.14 162.36 220.89 160.06 222.15V226.08C161.04 225.68 162.04 225.28 162.84 224.87L167.47 222.37L172.78 218.69V213.56V213.55ZM172.78 231.44V246.91C170.96 244.4 170.1 241.29 170.52 237.76C170.76 235.8 171.72 233.31 172.78 231.44ZM172.78 295.96V321.15C172.35 320.06 171.94 318.94 171.56 317.72C170.71 314.94 170.41 312.02 170.47 308.89C170.5 307.42 170.77 306.07 171.03 304.58C171.22 303.47 171.74 301.53 171.79 300.57C169.67 300.14 170.98 300.3 169.47 299.77L163 297.15C162.37 296.81 161.24 296.17 160.06 295.44V293.71C161.09 294.08 162.11 294.42 162.89 294.64C166.07 295.54 169.41 295.95 172.78 295.95V295.96ZM172.78 348.47V354.37C172.44 354.57 172.1 354.76 171.8 354.9C167.36 356.97 163.71 355.75 160.41 353.14C160.29 353.05 160.18 352.94 160.06 352.83V339.78C160.28 340.68 160.47 341.68 160.64 342.84C161.01 345.38 162.06 349.46 164.57 350.59C166.27 352.27 169.18 351.38 170.72 350.33C171.48 349.81 172.16 349.18 172.79 348.47H172.78ZM160.06 255.06V242.26C166.3 249.74 164.24 254.11 160.06 255.06ZM160.06 111.42V107.96C163.44 107.36 164.26 100.87 164.88 98.51C165.46 96.32 165.11 93.6299 164.4 91.6499C163.71 89.7299 162.74 87.3599 160.74 87.8599C160.5 87.9199 160.28 87.9899 160.06 88.0799V84.4699C163.65 83.3299 165.51 86.32 166.67 88.35C170.81 95.6 167.21 110.57 160.48 111.38C160.34 111.4 160.2 111.41 160.06 111.42ZM160.06 41.73V47.0899C157.74 46.9799 155.38 46.89 153.06 46.79V41.39L160.06 41.73ZM160.06 58.6799V62.48C157.58 63.72 155.92 66.2699 155.48 66.6099C154.64 67.2599 153.59 67.06 153.06 66.38V64.23C154.14 62.29 157.45 59.55 160.06 58.69V58.6799ZM160.06 84.4699V88.0799C156.71 89.4099 155.58 93.8499 155.11 97.2399C154.65 100.55 154.93 107.65 159.3 107.99C159.57 108.01 159.82 107.99 160.06 107.95V111.41C156.83 111.62 154.34 109.67 153.29 107.65C153.21 107.49 153.13 107.33 153.06 107.17V91.5799C153.32 90.8899 153.6 90.2399 153.9 89.6199C155.37 86.5999 156.54 85.6999 159.86 84.5299C159.93 84.5099 159.99 84.4799 160.06 84.4599V84.4699ZM160.06 168.91V173.97C157.74 174.52 155.4 175 153.06 175.43V170.41C155.5 169.96 157.87 169.45 160.06 168.91ZM160.06 183.23V188.23C159.75 188.14 159.45 188.06 159.18 187.96C157.04 187.23 155.11 186.55 153.06 186.08V181.14C155.45 181.6 157.91 182.33 160.06 183.22V183.23ZM160.06 191.98V198.74C157.92 200.63 155.59 202.45 153.06 204.12V196.9C153.26 197.1 153.47 197.3 153.72 197.49C154.75 197.06 157.83 194.25 160.07 191.98H160.06ZM160.06 213.1V218.44L156.69 220.1C156.61 221.01 156.77 222.83 157.2 223.52C157.78 223.35 158.85 222.82 160.06 222.16V226.09C159.27 226.41 158.5 226.74 157.86 227.09C157.75 229.17 159.17 232.27 159.27 234.1C159.47 237.78 154.89 236.43 153.91 236.49C154.15 236.92 156.62 238.75 157.47 239.55L159.13 241.2C159.46 241.56 159.77 241.92 160.06 242.27V255.07C158.48 255.43 156.59 255.31 154.74 254.68C154.12 254.47 153.56 254.23 153.06 253.98V248.83C154.56 249.97 156.17 250.77 157.73 250.88C159.13 250.98 159.83 250.88 159.31 249.43C158.59 247.44 156.68 245.04 155.29 243.66L153.06 241.76V232.04C153.34 232.04 153.62 232.04 153.92 232.04C153.74 230.73 153.36 229.28 153.06 227.88V216.34C155.44 215.41 157.78 214.35 160.06 213.12V213.1ZM160.06 293.72V295.45C158.22 294.32 156.24 292.96 155.76 292.15C155.97 292.2 158.03 293 160.06 293.73V293.72ZM160.06 339.78V352.83C159.35 352.15 158.62 351.13 158.15 350.35C155.68 346.25 156.5 343.52 155.23 339.66C154.73 338.13 153.9 336.94 153.06 335.7V327.35C156.67 332.93 158.8 334.54 160.06 339.77V339.78ZM153.06 41.39V46.79C150.52 46.68 148.03 46.56 145.73 46.42C144.69 46.36 143.16 46.2699 141.45 46.1799V40.63C142.47 40.72 143.6 40.8899 144.48 40.9299C146.07 41.0199 147.34 41.03 148.84 41.1C149.65 41.14 149.92 41.2799 150.93 41.2799L153.07 41.38L153.06 41.39ZM153.06 64.23V66.38C152.84 66.11 152.7 65.76 152.7 65.35C152.7 65.03 152.83 64.6399 153.06 64.22V64.23ZM153.06 91.5899V107.18C151.93 104.7 151.52 101.38 151.64 98.3299C151.73 95.9699 152.28 93.6499 153.06 91.5899ZM153.06 170.41V175.43C152.46 175.54 151.87 175.65 151.27 175.75C148.06 176.31 144.78 176.81 141.44 177.23V172.2C145.26 171.71 149.25 171.12 153.05 170.41H153.06ZM153.06 181.15V186.09C151.58 185.75 150.04 185.52 148.31 185.46C146.13 185.39 143.68 185.63 141.44 186.19V181.16C143.95 180.66 146.68 180.5 149.53 180.69C150.65 180.76 151.84 180.93 153.05 181.16L153.06 181.15ZM153.06 196.91V204.13C149.56 206.44 145.68 208.44 141.45 209.92V204.73C142.76 204.24 144.03 203.68 145.24 203.06L149.61 200.39C149.32 199.84 148.39 198.74 147.96 198.29C147.05 198.47 144.54 200.1 141.44 201.04V195.89C144.56 194.55 147.81 192.39 149.44 192.8C151.23 193.25 151.4 195.22 153.05 196.91H153.06ZM153.06 216.32V227.86C152.99 227.54 152.93 227.22 152.87 226.91C152.56 225.26 152.25 223.35 151.98 221.59L149.85 222.37L145.29 223.72C144.72 223.84 144.24 223.82 143.8 224.19L141.63 224.63L145.05 234.35C146.34 233.81 146.98 233.02 148.87 232.51C150.35 232.11 151.57 232.04 153.06 232.02V241.74L148.31 237.68C147.72 237.93 146.95 238.76 146.7 239.43C146.18 240.82 149.24 245.91 153.06 248.81V253.96C150.39 252.63 149.15 250.81 147.26 249.3C147.05 249.57 146.45 252.77 146.19 253.53C145.74 254.85 145.16 256.22 144.39 257.15C143.46 258.26 142.45 258.91 141.45 259.1V254.34C142.45 252.95 142.87 250.27 143.09 248.36C143.46 245.16 143.24 243.26 142.38 240.41L141.44 240.29V219.7C145.4 218.87 149.28 217.75 153.05 216.29L153.06 216.32ZM153.06 327.36V335.71C152.74 335.24 152.41 334.76 152.09 334.25C150.58 331.83 148.99 329.71 147.4 327.08L146.16 324.84C145.91 324.38 145.86 324.1 145.64 323.62C142.89 317.72 141.86 312.77 141.86 305.77C141.73 305.7 141.59 305.63 141.45 305.57V300.51C141.69 300.61 141.95 300.7 142.28 300.78C142.68 296.43 143.52 293.93 144.43 290.07C143.93 289.44 142.76 288.43 141.45 287.13V280.31C142.11 281.15 142.67 281.73 143.08 281.94C143.43 282.8 146.5 285.77 147.48 286.54C148.24 287.13 148.58 287.14 148.46 288.39C148.18 291.46 148.47 290.36 147.9 293.88C146.4 303.11 145.7 310.69 148.9 319.32C149.88 321.97 151.53 325 152.92 327.16L153.06 327.37V327.36ZM141.44 145.49V142.17C142.96 142.06 144.42 142.1 145.53 142.26C147.66 142.56 148.44 142.82 148.33 144.89C146.89 146.26 146.87 145.75 144.78 145.52C143.96 145.43 142.58 145.43 141.44 145.5V145.49ZM141.44 40.63V46.1799L139.31 46.0599V40.5499C139.74 40.5599 140.13 40.57 140.46 40.57C140.76 40.57 141.1 40.5899 141.44 40.6199V40.63ZM141.44 142.17V145.49C140.97 145.52 140.54 145.56 140.21 145.61C139.88 145.66 139.58 145.72 139.31 145.78V142.43C140.01 142.3 140.73 142.22 141.44 142.17ZM141.44 172.2V177.23C140.73 177.32 140.02 177.41 139.31 177.49V172.46C140.01 172.38 140.72 172.29 141.44 172.2ZM141.44 181.16V186.19C140.7 186.37 139.98 186.59 139.31 186.84V181.68C140 181.48 140.71 181.31 141.44 181.16ZM141.44 195.89V201.04C141.09 201.15 140.73 201.25 140.36 201.33C140 201.42 139.65 201.48 139.3 201.54V196.65C139.99 196.47 140.71 196.2 141.43 195.89H141.44ZM141.44 204.73V209.92L141.17 210.01C140.56 210.22 139.94 210.41 139.31 210.59V205.46C140.03 205.23 140.74 204.99 141.44 204.73ZM141.44 219.73V240.32H141.33C139.62 242.9 138.79 252.42 140.81 255C141.05 254.84 141.26 254.63 141.45 254.36V259.12C140.72 259.26 139.99 259.16 139.32 258.82V235.57C139.83 235.64 140.36 235.73 140.97 235.79C140.82 234.49 139.98 232.28 139.59 230.94C139.5 230.64 139.41 230.34 139.32 230.02V220.15C140.03 220.02 140.74 219.88 141.45 219.73H141.44ZM141.44 280.3V287.12C140.75 286.43 140.01 285.67 139.31 284.83V277.25C140.08 278.45 140.81 279.49 141.44 280.3ZM141.44 300.5V305.56C141.22 305.46 141.01 305.35 140.81 305.23C140.42 304.99 140.45 304.93 139.99 304.66C139.79 304.54 139.55 304.42 139.31 304.3V299.58C140.27 299.84 140.7 300.21 141.44 300.51V300.5ZM139.31 40.5599V46.07C135.74 45.87 131.94 45.6399 130.28 45.4299L126.87 45.29L123.96 44.9899V39.44L127.81 39.79C130.08 40.13 135.93 40.4599 139.3 40.5599H139.31ZM139.31 142.43V145.78C135.47 146.69 136.55 148.92 133.59 147.33C133.5 146.3 133.3 145.96 133.94 145.03C134.89 143.66 137.01 142.84 139.31 142.43ZM139.31 172.47V177.5C134.29 178.08 129.15 178.51 123.97 178.76V173.82C126.9 173.67 129.79 173.45 132.62 173.19C134.7 172.99 136.96 172.76 139.31 172.48V172.47ZM139.31 181.67V186.83C137.3 187.57 135.66 188.61 134.86 189.92C133.7 191.84 134.13 195.46 135.97 196.49C136.89 197.01 138.05 196.97 139.31 196.64V201.53C129.01 203.1 126.35 190.07 132.72 184.97C134.53 183.52 136.78 182.41 139.31 181.67ZM139.31 205.46V210.59C134.61 211.94 129.32 212.53 123.97 212.48V207.69C129.24 207.66 134.52 206.95 139.31 205.45V205.46ZM139.31 220.15V230.02C138.92 228.67 138.54 227.21 138.38 225.91L138.28 225.24L130.61 226.3L128.97 226.4C128.93 226.86 130.55 235.93 131.38 237.06C132.9 236.55 133.76 235.87 135.63 235.54C137.16 235.27 138.18 235.4 139.31 235.57V258.82C137.12 257.72 135.47 254.11 135.76 248.18C135.96 244.07 137.74 240.18 137.73 239.97C137.65 238.56 133.73 240.47 133.11 240.84C127.94 243.9 127.48 238.94 125.92 232.19C125.07 232.07 124.49 231.91 123.96 231.74V228.07C124.3 228.44 124.41 228.63 125.25 228.76L125.16 226.66L123.96 226.69V221.79C129.13 221.57 134.27 221.07 139.3 220.15H139.31ZM139.31 277.25C135.59 271.49 130.74 262.25 129.53 259.65C127.59 255.49 126.17 251.1 124.95 246.27C124.75 245.47 124.38 243.94 123.97 242.15V259L124.73 260.77C125.83 263.46 125.18 262.44 125.74 264.3C126.23 265.93 127.02 267.33 127.55 268.94C128.71 272.51 128.09 271.26 128.56 274.56C128.93 277.12 129.62 279.56 129.94 282.08C130.52 286.65 130.86 291.03 130.86 295.81L130.74 298.3C130.54 299.74 130.18 302.43 131.08 303.45C132.35 304.91 133.9 304.09 135.45 303.88C136.6 303.73 136.93 303.71 137.99 303.86C138.42 303.92 138.89 304.09 139.31 304.29V299.57C138.55 299.36 137.45 299.23 135.6 299.25C135.43 297.8 135.72 291.73 135.41 288.11C135.26 286.35 135.13 284.68 134.93 282.95C134.76 281.43 134.28 279.46 134.19 278.01L138.95 284.4C139.07 284.54 139.18 284.69 139.3 284.83V277.25H139.31ZM123.97 39.44V44.9899L114.24 44L113.95 43.97V38.4899C114.51 38.5699 115.08 38.6399 115.67 38.6799L123.96 39.44H123.97ZM123.97 173.81V178.75C120.64 178.91 117.3 179 113.95 179.03V174.12C117.31 174.09 120.66 173.99 123.97 173.82V173.81ZM123.97 207.69V212.48C120.62 212.45 117.24 212.18 113.95 211.69V206.94C117.2 207.45 120.58 207.71 123.97 207.69ZM123.97 221.8V226.7L122.68 226.73C122.95 227.19 123.3 227.43 123.69 227.8C123.8 227.91 123.89 228 123.97 228.09V231.76C123.41 231.57 122.91 231.36 122.2 231.17C121.96 232.75 123.05 238.13 123.97 242.16V259.01L123.42 257.73C122 254.56 121.2 250.97 120.24 247.65C119.61 245.48 117.99 238.54 117.95 236.85C117.16 236.78 115.67 235.97 113.95 234.86V229.01C115.48 230.04 117 230.98 117.17 230.98L117.25 226.77L113.95 226.59V221.7C115.02 221.84 116.1 221.93 117.25 221.94C119.49 221.94 121.73 221.9 123.97 221.81V221.8ZM113.95 38.4899V43.97C109.93 43.53 105.49 43.24 101.6 42.47C99.65 42.09 98.22 41.0399 97.99 39.1099C97.77 37.2399 100.15 29.0099 96.13 21.0499C94.9 18.6099 93.45 16.6699 91.06 15.3399V9.32994C91.24 9.39994 91.42 9.46996 91.6 9.53996C100.17 12.97 103.81 23 103.81 31.7C103.81 33.16 103.96 36.2399 103.46 37.2799C104.69 37.3799 106.07 37.7399 107.47 37.7999C108.84 37.8599 110.19 38.0299 111.63 38.1799C112.38 38.2599 113.14 38.3799 113.94 38.4899H113.95ZM113.95 174.12V179.03C106.24 179.08 98.53 178.74 91.07 178V173.11C98.46 173.85 106.23 174.18 113.95 174.12ZM113.95 206.95V211.7C109.33 211.01 104.91 209.89 101.03 208.43C97.1701 206.97 93.96 205.3 91.07 203.35V197.35C94.44 199.94 98.42 202.3 103.08 204.1C106.37 205.37 110.07 206.34 113.96 206.95H113.95ZM113.95 221.69V226.58L110.65 226.4C110.79 226.76 112.37 227.93 113.95 229V234.85C110.53 232.63 106.24 229.23 104.94 228.22C104.37 227.77 103.91 227.44 103.42 226.94C101.9 225.4 101.52 225.82 99.55 225.4C97.58 224.98 95.75 224.81 93.81 224.34C93.25 224.2 93.44 224.21 92.83 224.1C92.25 224 91.66 223.88 91.07 223.76V218.24C93.53 218.85 96.0501 219.38 98.6501 219.84C101.83 220.41 104.65 220.66 107.94 220.89C110.08 221.04 111.99 221.42 113.95 221.67V221.69ZM91.07 103.7V100.19C91.27 100.14 91.47 100.06 91.68 99.95C96.49 97.54 96.48 87.71 94.32 83.76C93.83 82.87 92.46 80.94 91.08 80.89V77.3099C93.55 77.3799 95.58 79.6599 96.49 80.8999C101.49 87.6899 99.6701 100.67 92.5901 103.32C92.0701 103.52 91.5601 103.64 91.08 103.7H91.07ZM91.07 60.8299V55.07C92.08 54.09 93.37 53.29 95.33 52.95C100.23 52.09 104.68 56.21 106.07 59.1C106.66 60.32 106.19 61.83 104.86 61.91C103.36 62 103.14 60.77 102.48 59.89C101.33 58.37 99.9401 56.8299 97.3401 56.4899C94.0001 56.0599 92.55 58.62 91.07 60.82V60.8299ZM91.07 9.31996V15.3299C90.41 14.9699 89.69 14.65 88.88 14.38C79.84 11.37 67 21.49 74.66 37.14C75.44 38.73 76.23 40.13 77.05 41.72C79.1 45.7299 78.41 56.6999 78.24 61.3399C77.91 70.1299 77.4901 78.24 75.4601 86.85C74.3301 91.66 73.2101 95.64 71.8401 99.26V76.63C72.3601 72.92 72.73 69.2 72.94 65.35V59.41C72.93 58.08 73.11 57.0999 73.11 55.5799C73.11 54.2999 73.11 53.0199 73.11 51.7399L72.93 47.5599C72.89 44.3199 73.0501 44.8799 71.8401 42.8999V14.5899C72.3001 14.0599 72.8 13.5499 73.33 13.0599C74.39 12.0799 77.08 10.25 78.49 9.66996C79.99 9.05996 81.66 8.55995 83.42 8.30995C84.33 8.17995 84.3401 8.30995 85.1501 8.30995C85.7001 8.30995 85.4 8.15995 86.24 8.24995C87.93 8.42995 89.49 8.74996 91.06 9.31996H91.07ZM91.07 55.07C90.68 55.44 90.34 55.85 90.01 56.26C89.18 57.3 86.55 60.41 87.37 62.1C87.89 63.16 89.18 63.26 90.05 62.23C90.41 61.81 90.74 61.3299 91.07 60.8299V55.07ZM91.07 77.32C90.59 77.31 90.09 77.3799 89.58 77.5599C86.47 78.6599 86.55 80.21 85.66 81.57C85.27 82.16 84.97 82.63 84.66 83.35C80.96 91.99 84.1 104.56 91.08 103.71V100.2C87.67 101.14 86.49 94.57 86.45 91.54C86.4 88.39 87.13 85.6 88.74 83.07C90.13 80.91 89.13 81.76 90.3 81.1C90.56 80.95 90.82 80.8999 91.08 80.91V77.3299L91.07 77.32ZM91.07 173.11V178C87.41 177.64 83.81 177.17 80.3 176.61C79.01 176.4 75.71 175.62 74.58 175.67C75.07 177.02 76.32 178.96 77.01 180.27C79.46 184.89 82.53 189.31 85.95 192.79C87.47 194.34 89.18 195.87 91.08 197.34V203.34C87.23 200.75 83.97 197.68 80.55 194.01C78.78 192.12 77.08 189.68 75.57 187.3C74.29 185.29 73.07 183.21 71.86 180.94V169.92C76.87 171.18 81.89 172.06 88.16 172.79C89.13 172.9 90.1101 173.01 91.0901 173.11H91.07ZM91.07 218.25V223.77C84.84 222.45 77.92 219.83 72.83 217.08L71.85 216.54V210.53C75.35 212.52 78.93 214.23 82.12 215.46C85.05 216.58 88.01 217.49 91.08 218.25H91.07ZM71.8401 142.82V139.41C73.6701 139.86 75.68 140.75 77.7 142.25C78.63 142.94 81.0601 145.28 78.7801 146.47C76.7201 146.73 76.83 145.63 75.66 144.81C74.21 143.79 72.9501 143.17 71.8401 142.82ZM71.8401 14.6V42.91C71.7601 42.78 71.67 42.63 71.58 42.48L69.45 38.3299C68.91 37.2299 68.73 36.3999 68.3 35.1199C65.83 27.7599 66.9401 20.1999 71.8401 14.6099V14.6ZM71.8401 76.64V99.2699C69.6401 105.08 66.77 109.94 62.1 115.76C60.87 117.3 56.56 122.51 55.97 123.98C55.63 124.05 55.73 124.08 55.45 124.45C55.2 124.78 55.13 124.91 54.94 125.18C54.5 125.82 54.23 126.12 53.83 126.69C51.26 130.35 50.0001 132.22 48.0301 136.58C46.8901 139.12 45.05 143.64 43.96 147.64V133.26C44.73 131.71 45.48 130.35 45.87 129.39C45.47 128.52 44.67 127.77 43.96 126.49V112.94C44.07 112.72 44.19 112.5 44.29 112.28C44.94 110.95 45.25 109.39 47.09 109.36C48.66 109.33 49.9 110.62 49.76 112.3C49.63 113.86 47.1 117.67 47.01 118.11C46.9 118.65 46.79 124.04 48.7 125.04C49.42 123.95 53.0201 119.25 53.1501 118.63L58.5201 111.86C59.1501 110.93 58.22 105.61 55.24 103.47C52.13 101.23 47.81 100.45 43.96 101.35V96.04C44.8 95.95 45.63 95.92 46.38 95.76C48.13 95.68 49.51 96.0799 51.11 96.2399C51.12 94.1699 45.11 79.9099 43.96 77.2799V66.2699C44.81 67.4199 45.57 68.65 46.23 69.91C47.59 72.53 48.62 75.2999 49.83 77.9899L51.4601 82.1199C53.4901 86.6199 55.89 92.3999 56.67 97.3299C56.88 98.6399 56.8401 98.41 57.7801 99.01C59.5301 100.14 61.02 101.73 61.93 103.58C62.25 104.22 62.49 104.85 62.8 105.5C63.26 105.16 63.31 104.79 63.64 104.25C66.52 99.4399 68.58 93.8399 69.74 88.3599C70.58 84.3999 71.28 80.5399 71.82 76.66L71.8401 76.64ZM71.8401 139.41C66.0001 137.97 61.96 141.03 64.98 143.13C66.5 143.16 68.4201 141.72 71.8401 142.83V139.42V139.41ZM71.8401 169.92V180.94C71.6701 180.63 71.5101 180.32 71.3401 180C70.6301 178.66 70.02 177.59 69.43 176.16C68.43 173.74 69.43 174.41 66.19 173.46C61.35 172.03 55.24 169.89 51.75 166.11C51.35 165.67 51.4 165.42 51.23 165.15C52.99 163.06 57.72 165.51 59.82 166.24C64.19 167.77 68.02 168.96 71.85 169.93L71.8401 169.92ZM71.8401 210.53C67.2201 207.9 62.72 204.8 59.41 201.71C56.47 198.97 54.51 197.03 51.98 193.44C48.05 187.85 47.36 185.57 45.1 179.56C44.68 178.44 44.31 177.29 43.98 176.1V190.48L44.45 191.38C45.92 194.3 47.9201 196.83 49.8401 199.42C50.3301 200.08 50.7 200.31 51.16 200.89C52.74 202.86 54.66 204.64 56.6 206.27L63.36 211.55C64.7 212.42 66.11 213.44 67.54 214.17L71.85 216.54V210.53H71.8401ZM43.98 66.25V77.26V77.23C43.1 75.24 41.81 72.1799 40.39 70.0899V62.72C40.71 62.94 40.99 63.1699 41.23 63.3999C41.81 63.9599 42.27 64.1899 42.8 64.7999C43.21 65.2699 43.6 65.76 43.97 66.26L43.98 66.25ZM43.98 96.0199V101.33C42.71 101.62 41.5 102.1 40.39 102.76V96.9599C41.16 96.7199 41.96 96.4 42.7 96.23C43.13 96.13 43.56 96.0699 43.98 96.0299V96.0199ZM43.98 112.93V126.48C43.72 126.02 43.48 125.5 43.26 124.88C43.05 124.26 43 123.47 42.76 122.96L41.01 123.92C41.31 125.7 41.09 126.68 40.39 127.67V118.11C41.07 117.48 41.62 116.74 42.2 115.9C42.82 115 43.43 113.97 43.98 112.92V112.93ZM43.98 133.26V147.64C43.5 149.4 43.17 151.06 43.1 152.41C42.95 155.3 42.03 156.44 42.07 161.66C42.11 166.47 42.7 171.49 43.98 176.1V190.48L41.66 185.98C41.36 185.36 41.18 184.77 40.92 184.1C40.72 183.57 40.55 183.04 40.4 182.51V142.24C41.16 140.11 41.86 138.15 42.74 136C43.12 135.06 43.56 134.14 43.99 133.28L43.98 133.26ZM40.39 62.72V70.0899C40.05 69.5899 39.7 69.1399 39.35 68.7699C38.31 67.6899 37.07 66.7499 35.63 66.2699V60.73C37.36 61.11 39.13 61.85 40.39 62.72ZM40.39 96.95V102.75C38.27 104.02 36.55 105.97 35.63 108.68V89.67L36.02 90.5899C37.12 93.1799 38.85 96.01 39.35 97.2C39.69 97.15 40.04 97.06 40.4 96.95H40.39ZM40.39 118.12V127.68C40.25 127.88 40.09 128.08 39.91 128.28C39.49 128.76 38.99 129.17 38.41 129.57C37.73 130.04 37.1 130.26 36.56 130.66C36.61 132.36 36.19 133.69 35.62 134.73V125.23C35.97 124.94 36.24 124.6 36.36 124.26C36.09 124.2 35.84 124.12 35.62 124.03V117.31C35.73 117.5 35.85 117.68 35.98 117.83C36.42 119.33 37.85 119.87 39.4 118.86C39.76 118.63 40.08 118.37 40.38 118.1L40.39 118.12ZM40.39 142.22V182.49C40.15 181.66 39.92 180.83 39.57 180.02C37.38 174.93 37.12 167.45 36.74 161.94C36.58 159.63 37.12 156.78 37.36 154.5C37.45 153.67 37.58 153.02 37.71 152.23C37.95 150.76 38.55 149.2 38.58 147.69C37.78 147.62 36.74 147.21 35.64 146.59V140.57C37.05 141.72 38.77 142.78 40.13 142.95L40.4 142.2L40.39 142.22ZM35.63 60.73V66.2699C35.34 66.1699 35.04 66.1 34.74 66.04V60.57C35.03 60.61 35.33 60.67 35.63 60.73ZM35.63 89.6799V108.69C35.4 109.38 35.22 110.11 35.09 110.9C34.79 112.84 34.7 115.68 35.63 117.34V124.06C35.29 123.93 34.99 123.77 34.74 123.61V87.54C35.04 88.26 35.34 88.9799 35.63 89.6899V89.6799ZM35.63 125.25V134.75C35.35 135.26 35.04 135.7 34.74 136.08V125.8C35.07 125.65 35.38 125.46 35.63 125.25ZM35.63 140.59V146.61C35.34 146.45 35.04 146.27 34.74 146.07V139.81C35.02 140.07 35.32 140.33 35.63 140.59ZM34.74 60.57V66.04C34.02 65.91 33.25 65.9 32.44 66.04C31.2 66.27 30.95 66.5299 30.53 67.4899C28.89 71.3599 31.8 80.0499 33.14 83.5199C33.66 84.8699 34.2 86.1999 34.74 87.5199V123.59C33.98 123.1 33.5 122.53 32.77 122.15C31.28 119.3 29.9 118.39 29.79 113.16C29.68 107.71 31.86 105.2 32.1 103.59C30.76 103.51 29.43 104.4 28.38 105.47V99.0199C30.16 98.2599 32.13 98.02 34.21 98.51C34.07 97.99 32.96 96.0099 32.64 95.3699C31.05 92.1899 29.7 88.82 28.4 85.48L28.38 85.42V61.8599C29.46 61.1899 30.83 60.7399 32.52 60.5199C33.19 60.4299 33.95 60.46 34.74 60.57ZM34.74 125.79C33.91 126.16 32.89 126.29 31.98 125.93C30.52 125.28 29.34 124.14 28.38 122.85V129.58C28.46 129.63 28.54 129.68 28.62 129.73C29.96 130.55 31.02 130.78 31.48 131.12C31.25 132.47 30.53 133.66 29.2 133.79C28.95 133.86 28.68 133.87 28.39 133.84V139.46C28.97 141.4 31.94 144.27 34.75 146.06V139.8C33.98 139.09 33.39 138.4 33.11 137.92C33.3 137.55 34.01 136.97 34.75 136.06V125.78L34.74 125.79ZM28.38 61.85V85.41C26.68 81.0399 24.79 75.29 24.79 70.42C24.79 66.38 25.76 63.4699 28.38 61.8599V61.85ZM28.38 99.0199V105.47C27.8 106.06 27.3 106.71 26.94 107.28C24.32 111.36 25.06 117.33 27.41 121.37C27.7 121.87 28.03 122.38 28.38 122.86V129.59C27.53 129.02 26.81 128.26 26.16 127.88C25.5 126.85 23.28 124.94 21.99 121.71C21.69 120.95 21.39 119.85 20.95 119.31C19.26 120.48 18.8 127.77 24.73 132.24C25.42 132.76 27.06 133.72 28.38 133.86V139.48C28.33 139.31 28.3 139.15 28.28 138.99C25.36 138.93 21.93 136.65 19.86 134.68C19.49 134.33 19.32 134.13 19.04 133.76C18.46 133 17.99 132.57 17.46 131.68C15.95 129.15 15.03 126.87 15.03 123.47C15.03 120.32 16.34 115.01 20.09 114.92V112.48C20.09 107.13 23.48 101.13 28.39 99.04L28.38 99.0199Z" fill="#874623"/>
<path fill-rule="evenodd" clip-rule="evenodd" d="M165.31 185.96C165.95 184.92 167.01 183.69 167.84 182.4C170.02 179.02 172.8 174.31 173.34 169.97C171.74 170.36 169.75 171.24 168.04 171.78C162.6 173.51 156.94 174.75 151.27 175.75C128.96 179.67 102.86 180.22 80.3 176.6C79.01 176.39 75.7101 175.61 74.5801 175.66C75.0701 177.01 76.3201 178.95 77.0101 180.26C79.4601 184.88 82.5301 189.3 85.9501 192.78C90.1601 197.07 95.8001 201.26 103.08 204.08C115.26 208.79 133.06 209.3 145.24 203.04L149.61 200.37C149.32 199.82 148.39 198.72 147.96 198.27C146.95 198.47 143.95 200.47 140.37 201.32C129.2 203.97 126.15 190.24 132.72 184.96C136.72 181.76 142.81 180.22 149.53 180.67C153.51 180.94 158.38 182.29 161.87 184.04C162.81 184.51 164.62 185.75 165.31 185.95V185.96Z" fill="#C18B8B"/>
<path fill-rule="evenodd" clip-rule="evenodd" d="M114.35 118.05C114.99 118.39 115.95 118.4 117.19 118.63C118.11 118.8 119.03 118.97 119.94 119.18C121.41 119.51 123.95 119.97 124.92 120.81C122.3 121.37 114.79 121.03 111.67 121C109.49 120.98 107.27 120.89 105.04 120.87C102.78 120.84 99.94 121.17 99.95 119.2C101.86 117.39 107.03 117.96 110.22 117.85C109.29 117.41 105.39 117.7 104.34 117.71C98.6 117.78 93.17 118.14 87.51 118.94C84.11 119.42 69.09 121.72 68.22 124C71.14 124.35 78.92 122.94 82.33 122.57C105.23 120.11 129.62 121.57 151 129.87L168 136.42C168.72 136.7 172.37 138.02 173.18 138.09C174.42 138.2 173.72 138.1 174.02 137.86C173.54 137.54 173.2 137.18 172.66 136.77C169.9 134.61 164.94 131.91 161.86 130.28C157.47 127.96 152.71 126.2 147.72 124.53C139.94 121.93 122.38 117.74 114.34 118.06L114.35 118.05Z" fill="#FBE4E5"/>
<path fill-rule="evenodd" clip-rule="evenodd" d="M160.03 84.4799C163.64 83.3099 165.51 86.3199 166.68 88.3499C170.82 95.5999 167.22 110.57 160.49 111.38C160.34 111.4 160.19 111.41 160.04 111.42V115.13C163.69 114.84 166.64 112.23 168.37 109.14C170.12 106.02 171.1 101.94 171.37 97.8199C171.81 91.0999 169.78 79.3899 160.27 80.5099C160.19 80.5099 160.11 80.5299 160.03 80.5399V84.4799ZM159.86 84.5299C159.92 84.5099 159.97 84.4899 160.03 84.4699V80.5299C149.3 82.0699 146.15 101.04 150.71 109.87C152.71 113.74 155.48 115.47 160 115.12H160.02V111.4C156.81 111.59 154.33 109.65 153.28 107.64C151.97 105.12 151.5 101.56 151.63 98.3099C151.76 95.1599 152.69 92.0799 153.89 89.6099C155.36 86.5899 156.53 85.6899 159.85 84.5199L159.86 84.5299Z" fill="white"/>
<path fill-rule="evenodd" clip-rule="evenodd" d="M91.1999 77.32C93.6099 77.46 95.5799 79.6899 96.4799 80.9099C101.48 87.6999 99.6599 100.68 92.5799 103.33C92.0999 103.51 91.6399 103.63 91.1999 103.69V107.16C97.7399 106.8 101.24 98.7299 102.01 92.3999C102.5 88.3399 101.67 84.0299 100.1 80.7699C98.8599 78.1899 95.6999 74.8199 93.1599 74.0899C92.4799 73.8999 91.8299 73.8199 91.1999 73.8299V77.32ZM89.5799 77.5599C90.1399 77.3599 90.6799 77.2999 91.1999 77.3299V73.8399C87.8399 73.9099 85.2499 76.61 84.0999 78.45C82.5399 80.95 81.1099 85.3299 80.6999 88.6799C80.1499 93.1199 80.5199 96.7999 82.1899 100.44C83.5799 103.49 85.4999 106.41 89.1999 107.05C89.8999 107.17 90.57 107.21 91.21 107.17V103.7C84.14 104.72 80.9399 92.0499 84.6699 83.3599C84.9799 82.6299 85.2799 82.1699 85.6699 81.5799C86.5699 80.2299 86.48 78.67 89.59 77.57L89.5799 77.5599Z" fill="white"/>
<path fill-rule="evenodd" clip-rule="evenodd" d="M153.71 197.5C155.29 196.84 161.76 190.53 162.46 189.22C161.68 188.58 160.19 188.31 159.17 187.97C155.48 186.72 152.42 185.6 148.3 185.46C143.25 185.29 136.72 186.84 134.85 189.92C133.69 191.84 134.12 195.46 135.96 196.49C139.57 198.51 146.72 192.11 149.43 192.79C151.43 193.29 151.4 195.7 153.7 197.49L153.71 197.5Z" fill="#EF9293"/>
<path fill-rule="evenodd" clip-rule="evenodd" d="M161.68 107.08V100.84C161.91 100.84 162.16 100.77 162.44 100.63C162.71 99.6 162.19 99.12 161.68 99.16V87.84C163.06 88.16 163.83 90.06 164.4 91.65C165.11 93.63 165.46 96.32 164.88 98.51C164.37 100.43 163.73 105.1 161.68 107.09V107.08ZM157.87 100.51C158.47 100.51 159.07 100.96 159.16 102C159.29 103.39 158.58 104.05 157.87 103.99V107.59C158.29 107.81 158.76 107.96 159.29 108C160.25 108.07 161.03 107.72 161.68 107.09V100.85C160.97 100.87 160.58 100.3 161.04 99.57C161.2 99.32 161.44 99.1901 161.68 99.1701V87.85C161.39 87.78 161.08 87.78 160.73 87.87C159.55 88.17 158.61 88.82 157.87 89.68V91.19C158.2 90.89 158.6 90.66 159.05 90.5C162.09 89.43 162.43 97.93 159.09 98.33C158.61 98.39 158.21 98.3101 157.87 98.1401V100.53V100.51ZM156.6 102.52C156.4 101.25 157.14 100.52 157.88 100.51V98.12C156.79 97.56 156.38 95.98 156.5 94.5C156.62 93.02 157.07 91.9 157.88 91.18V89.6701C156.17 91.6401 155.46 94.73 155.11 97.24C154.71 100.15 154.87 105.97 157.88 107.58V103.98C157.31 103.94 156.75 103.45 156.6 102.51V102.52Z" fill="#481F0E"/>
<path fill-rule="evenodd" clip-rule="evenodd" d="M207.07 202.48C207.5 203.02 208.39 203.29 209.14 203.58L216.54 206.14C215.47 207.91 213.5 209.61 211.99 210.86C211.54 211.23 211.18 211.57 210.78 211.91C207.79 214.47 204.58 216.8 201.57 219.28C200.35 220.29 197.26 222.44 196.93 224.14C200.47 223.58 211.08 215.17 214.72 212.36C216.06 211.33 222.15 206.48 218.99 203.67C217.12 202 209.47 200.4 207.07 202.48Z" fill="#E2E2E2"/>
<path fill-rule="evenodd" clip-rule="evenodd" d="M93.1599 98.8398V93.5298C93.7799 93.5298 94.4099 92.9798 93.6799 91.8698L93.1599 91.8899V82.1699C93.6799 82.7399 94.0899 83.3698 94.3099 83.7798C96.2199 87.2698 96.4499 95.3498 93.1599 98.8498V98.8398ZM89.8899 94.1598C90.3199 94.1898 90.75 94.4998 90.9 95.0498C91.27 96.3898 90.5699 97.0998 89.8899 97.1098V100.21C90.4099 100.35 91.0099 100.29 91.6799 99.9499C92.2399 99.6698 92.7299 99.2898 93.1599 98.8298V93.5198C92.5299 93.5198 91.9 92.9698 92.65 91.8998L93.1599 91.8798V82.1598C92.3399 81.2598 91.2699 80.5298 90.2899 81.0898C90.1099 81.1898 89.9899 81.2598 89.8899 81.2998V84.0698C90.1899 84.0298 90.4999 84.0898 90.8099 84.2798C92.4499 85.3098 92.5299 90.4398 91.0699 91.4998C90.6699 91.7898 90.2699 91.9198 89.8899 91.9098V94.1399V94.1598ZM88.8599 96.2398C88.5299 94.7598 89.2199 94.1198 89.8899 94.1598V91.9298C88.7799 91.9198 87.83 90.8098 87.65 89.6098C87.41 88.0098 88.0499 85.6698 88.8199 84.7198C89.1099 84.3698 89.4899 84.1298 89.8899 84.0798V81.3098C89.3599 81.5698 89.9099 81.2298 88.7299 83.0698C87.1099 85.5898 86.3899 88.3898 86.4399 91.5398C86.4799 94.1898 87.3899 99.5498 89.8899 100.22V97.1198C89.4399 97.1298 88.9899 96.8398 88.8599 96.2398Z" fill="#481F0E"/>
<path fill-rule="evenodd" clip-rule="evenodd" d="M148.35 228.99C149.42 228.69 150.51 228.7 150.92 229.35C150.22 229.91 149.5 229.52 148.35 229.88V232.68C148.51 232.63 148.68 232.57 148.86 232.52C150.62 232.04 152 232.04 153.92 232.02C153.69 230.41 153.18 228.59 152.87 226.91C152.56 225.26 152.25 223.35 151.98 221.59L149.85 222.37C150.15 223.05 150.88 222.58 150.59 223.43C150.3 223.54 149.38 223.31 148.35 223.33V225.58C149.31 225.53 150.15 225.76 150.4 226.38C149.8 226.6 149.11 226.5 148.35 226.52V228.99ZM145.78 230.96C145.72 230.22 147.02 229.37 148.34 228.99V226.52C147.93 226.52 147.5 226.57 147.06 226.73C146.12 227.06 145.7 227.8 144.88 227.87C144.48 226.66 146.6 225.66 148.34 225.57V223.32C147.9 223.32 147.45 223.38 147.01 223.52C145.79 223.91 145.07 224.58 144.11 224.85C143.88 224.29 144.35 224.38 143.78 224.18L141.61 224.62L145.03 234.34C146.19 233.85 146.83 233.16 148.33 232.66V229.86C147.92 229.99 147.47 230.21 146.94 230.6C146.7 230.78 146.62 230.89 146.41 230.96L145.76 230.94L145.78 230.96Z" fill="white"/>
<path fill-rule="evenodd" clip-rule="evenodd" d="M135.21 232.06C135.88 231.95 138.7 231.84 138.08 232.89C137.79 233.38 136.96 233.01 136.45 232.97C136.02 232.94 135.6 232.97 135.19 233.05V235.63C135.33 235.6 135.48 235.57 135.63 235.54C137.85 235.15 138.98 235.59 140.96 235.78C140.81 234.48 139.97 232.27 139.58 230.93C139.12 229.36 138.58 227.5 138.38 225.9L138.01 225.42L136.75 225.6C137.1 226.1 137.1 225.89 136.79 226.37C136.1 226.37 135.66 226.24 135.19 226.18V228.28C136.26 228.25 137.13 228.56 137.1 229.47C136.26 229.6 135.78 229.43 135.19 229.38V232.06H135.21ZM135.19 233.06C133.21 233.45 131.61 234.8 132.43 233.41C132.81 232.76 134.25 232.23 135.19 232.06V229.38C134.74 229.34 134.22 229.38 133.43 229.65C133.09 229.77 130.32 231.11 131.43 229.6C131.88 228.99 133.72 228.32 135.19 228.28V226.18C134.73 226.12 134.24 226.13 133.47 226.37C132.56 226.65 131.85 227.25 131.03 227.38C131.03 226.72 131.38 226.55 131.77 226.29L130.61 226.31L128.97 226.41C128.93 226.87 130.55 235.94 131.38 237.07C132.77 236.6 133.61 235.99 135.19 235.64V233.06Z" fill="white"/>
<path fill-rule="evenodd" clip-rule="evenodd" d="M228.55 187.48C228.55 188.81 230.79 190.12 232.09 191.09C237.64 195.23 239.95 202.8 241.29 203.7C242.86 200.74 241.54 196.11 239.97 193.5C235.83 186.62 228.55 185.45 228.55 187.47V187.48Z" fill="#974D23"/>
<path fill-rule="evenodd" clip-rule="evenodd" d="M163.27 50.9199C159.97 49.1999 138.06 46.4098 135.84 49.0698C134.11 51.1598 139.37 51.1698 140.8 51.2298C145.26 51.4098 160.41 52.1998 163.26 50.9098L163.27 50.9199Z" fill="#E2E2E2"/>
<path fill-rule="evenodd" clip-rule="evenodd" d="M208.32 266.51C209.42 266.53 210.51 264.6 211.11 263.88C212.04 262.76 212.8 262.12 213.69 261.08C213.99 261.4 213.78 260.8 214.02 261.72C214.07 261.9 214.1 262.36 214.13 262.62C214.2 263.2 214.31 263.83 214.41 264.43C214.6 265.58 214.81 266.7 215.01 267.86C215.2 268.95 215.4 270.14 215.63 271.24C215.75 271.84 215.88 272.43 216 272.98L216.34 274.21C216.52 274.59 216.43 274.41 216.56 274.58L217.32 270.65C217.73 267.45 218.56 259.93 216.77 257.72C216.03 256.8 214.37 256.61 213.21 257.44C211.53 258.64 206.5 264.34 208.33 266.52L208.32 266.51Z" fill="#E2E2E2"/>
<path fill-rule="evenodd" clip-rule="evenodd" d="M114.35 118.05L110.23 117.84C107.04 117.95 101.87 117.39 99.96 119.19C99.95 121.16 102.79 120.83 105.05 120.86C107.28 120.88 109.5 120.97 111.68 120.99C114.8 121.02 122.31 121.37 124.93 120.8C123.97 119.96 121.42 119.5 119.95 119.17C119.04 118.97 118.13 118.79 117.2 118.62C115.96 118.39 115 118.38 114.36 118.04L114.35 118.05Z" fill="white"/>
<path fill-rule="evenodd" clip-rule="evenodd" d="M182.76 283.21V253.12C185.08 253.68 186.31 253.35 189.17 253.79C189.37 254.18 189.8 258.07 189.91 258.92C190.59 264.22 190.4 269.42 188.39 274.29C187.38 276.73 185.13 280.35 182.77 283.21H182.76ZM182.76 248.23V228.43C184.72 228.48 186.92 229.88 187.97 230.68C191.11 233.06 193.75 236.79 194.9 240.87C195.48 242.93 195.51 246.86 194.19 248.21C190.26 249.23 186.16 249.27 182.76 248.24V248.23ZM182.76 194.92V136.07C185.59 138.19 188.45 140.62 190.59 142.75C191.06 143.22 191.34 143.68 191.87 144.27C194.34 147.03 198.51 154.35 198.86 157.79C199.03 160.81 195.63 171.43 194.52 174.37C192.4 179.98 188.88 186.92 185.53 191.38C183.66 193.86 183.82 192.66 183.17 194.25C183.1 194.41 182.96 194.65 182.77 194.92H182.76ZM225.48 299.22C225.5 298.87 225.51 299.05 225.42 298.88C223.65 299.12 222.4 300.16 220.51 300.27C218.32 300.4 216.89 300.22 215.69 298.91C215.37 298.56 215.21 298.5 214.87 298.17L210.41 293.18C210.03 292.76 210.04 292.45 209.7 292.87C209.94 297.03 213.17 301.31 215.66 302.78C217.36 303.79 219.69 304.55 221.8 303.37C222.95 302.72 225.24 300.53 225.48 299.23V299.22ZM169 351.17C169.65 350.95 170.25 350.64 170.72 350.32C172.29 349.25 173.51 347.71 174.6 345.99C177.6 341.23 177.14 338.59 176.45 332.49L175.93 333.21C175.86 333.38 175.78 333.68 175.72 333.87C175.13 335.65 175.06 336.64 174.63 338.36C174.14 340.35 173.55 342.17 172.62 343.67C171.86 344.89 170.56 346.28 169.01 347.48V351.16L169 351.17ZM182.76 136.07V194.92C181.96 196.07 180.29 197.96 179.62 198.55C179.05 199.06 178.82 199.32 178.32 199.86C176.63 201.68 174.73 203.09 172.81 204.82C171.56 205.94 170.3 206.93 169 207.84V189.16C171.79 185.6 175.19 180.76 176.87 175.91C177.69 173.53 181.81 162.79 175.97 164.19C173.59 164.76 171.31 165.48 169 166.22V160.83C170.17 160.68 171.35 159.53 170.79 158.18C170.51 157.51 169.82 156.96 169 157.02V136.77C170.37 137.26 172.57 138.02 173.18 138.07C174.42 138.18 173.72 138.08 174.02 137.84C173.54 137.52 173.2 137.16 172.66 136.75C171.66 135.97 170.37 135.12 168.99 134.27V128.39C171.96 129.63 174.8 130.95 177.56 132.56C179.15 133.49 180.94 134.71 182.75 136.06L182.76 136.07ZM182.76 228.43V248.23C180.26 247.47 178.13 246.13 176.72 244.19C174.66 241.35 174.99 238.12 176.42 234.95C177.39 232.79 180.34 228.94 181.65 228.57C182 228.46 182.38 228.42 182.76 228.43ZM182.76 253.12C181.84 252.9 180.74 252.53 179.3 251.91C173.37 249.38 169.74 244.28 170.53 237.76C170.86 235.03 172.61 231.25 174.04 229.59C173.5 227.16 171.2 224.52 169.01 223.13V290.15C172.27 289.71 175.41 288.71 178.21 287.35C179.55 286.7 181.18 285.12 182.76 283.21V253.12ZM164.56 350.59C165.74 351.76 167.51 351.68 169 351.17V347.49C167.57 348.59 165.93 349.54 164.28 350.06C164.46 350.55 164.2 350.21 164.56 350.59ZM169 128.4V134.28C166.56 132.79 163.84 131.31 161.87 130.27C159.69 129.11 157.41 128.1 155.07 127.16V122.84C157.21 123.75 159.37 124.63 161.48 125.44C164.1 126.45 166.59 127.4 169 128.4ZM169 136.78C168.54 136.62 168.18 136.48 168 136.41L155.07 131.43V148.86C156.64 148.82 157.58 151.22 155.65 151.9C155.44 151.97 155.25 152.01 155.07 152.03V170.02C157.74 169.48 160.28 168.89 162.56 168.24C164.79 167.6 166.91 166.9 169 166.22V160.83C168.24 160.93 167.49 160.62 167.2 159.67C166.78 158.3 167.41 157.57 168.5 157.14C168.67 157.07 168.84 157.04 169 157.02V136.77V136.78ZM169 189.16V207.84C166.25 209.77 163.36 211.32 160.23 213.01C158.54 213.92 156.82 214.75 155.07 215.5V202.74C160.32 198.96 164.65 194.56 168 190.42C168.32 190.02 168.66 189.6 169 189.16ZM169 223.13V290.15C165.67 290.6 162.2 290.45 158.81 289.51C157.77 289.22 156.47 288.75 155.07 288.2V254.78C161.95 256.89 169 252.11 159.13 241.2L157.47 239.55C156.97 239.08 155.9 238.25 155.07 237.56V236.59C156.76 236.78 159.43 236.93 159.27 234.1C159.17 232.26 157.75 229.17 157.86 227.09C159.3 226.31 161.39 225.62 162.84 224.88L167.47 222.38C167.96 222.55 168.48 222.81 169 223.14V223.13ZM155.07 122.84V127.16C153.89 126.69 152.7 126.24 151.48 125.81V121.26C152.66 121.8 153.86 122.32 155.07 122.84ZM155.07 131.43V148.86C154.85 148.86 154.62 148.92 154.38 149.03C152.78 149.79 153.26 152.2 155.07 152.03V170.02C153.9 170.26 152.7 170.48 151.48 170.69V164.27C151.79 164.33 152.11 164.31 152.4 164.19C154.21 163.48 153.38 160.41 151.48 160.55V130.04L155.07 131.42V131.43ZM155.07 202.74V215.5C153.89 216.01 152.69 216.47 151.48 216.91V205.13C152.72 204.37 153.92 203.57 155.07 202.75V202.74ZM155.07 236.58V237.55C154.49 237.07 154.01 236.66 153.91 236.48C154.14 236.47 154.56 236.53 155.07 236.59V236.58ZM155.07 254.78V288.2C153.9 287.73 152.67 287.2 151.48 286.66V253.04C152.36 253.65 153.39 254.22 154.74 254.67C154.85 254.71 154.96 254.74 155.07 254.78ZM151.48 121.26V125.81C150.25 125.37 149 124.94 147.73 124.52C145.94 123.92 143.62 123.24 141.03 122.54V115.64C142.54 116.69 144.22 117.74 145.39 118.33C147.33 119.32 149.38 120.3 151.48 121.25V121.26ZM151.48 130.05V160.56C151.23 160.58 150.95 160.65 150.66 160.8C148.48 161.91 149.92 164.01 151.48 164.28V170.7C148.02 171.31 144.45 171.83 141.03 172.26V149.46C141.41 149.41 141.76 149.35 142.07 149.31C143.98 149.05 147.65 148.82 148.38 147.26C148.77 146.41 148.42 145.71 148.33 144.89C148.44 142.81 147.66 142.56 145.53 142.26C144.32 142.09 142.69 142.05 141.03 142.21V126.54C144.41 127.5 147.74 128.6 151 129.87L151.48 130.05ZM151.48 205.13V216.91C148.07 218.14 144.58 219.09 141.03 219.82V210.06L141.17 210.01C144.88 208.74 148.32 207.06 151.48 205.13ZM151.48 253.04V286.66C149.63 285.82 147.88 284.94 146.63 284.24C144.69 283.14 144.32 282.7 143.07 281.93C142.58 281.68 141.87 280.89 141.03 279.76V259.18C142.16 259.1 143.33 258.44 144.39 257.17C145.16 256.24 145.74 254.87 146.19 253.55C146.45 252.79 147.06 249.59 147.26 249.32C148.73 250.5 149.81 251.86 151.48 253.04ZM141.03 115.64V122.54C132.36 120.22 120.54 117.8 114.35 118.04L110.23 117.83C109.3 117.39 105.4 117.68 104.35 117.69C98.6101 117.76 93.1801 118.12 87.5201 118.92C84.1201 119.4 69.1001 121.7 68.2301 123.98C71.1501 124.33 78.9301 122.92 82.3401 122.55C101.75 120.47 122.23 121.2 141.04 126.52V142.19C138.15 142.46 135.13 143.3 133.95 145.02C133.31 145.95 133.51 146.29 133.6 147.32C133.76 150.36 138.14 149.85 141.04 149.44V172.24C138.07 172.61 135.21 172.92 132.63 173.17C118.29 174.52 102.37 174.45 88.1501 172.78C79.0601 171.72 72.5901 170.35 64.9701 167.94V161.17C65.1801 161.2 65.4001 161.2 65.6201 161.17C66.5401 161.02 67.1601 159.88 66.7301 158.8C66.4701 158.16 65.7701 157.57 64.9701 157.55V143.1L64.9901 143.12C65.8001 146.76 71.5301 147.38 74.7001 147.2C75.3901 147.16 76.1401 147.13 76.8301 147.06C77.4701 147 78.2601 146.88 78.7901 146.46C81.0701 145.27 78.6401 142.92 77.7101 142.24C72.3501 138.27 67.1001 138.56 64.9701 140.02V119.86C66.4601 119.58 68.0001 119.35 69.6001 119.03C74.1401 118.11 81.6201 117.04 85.2101 116.16C91.3701 114.65 97.7501 111.89 102.3 107.97C102.86 107.49 103.16 107.33 103.62 106.84C104.4 106 105.21 105.49 105.95 104.64C110.3 99.6399 112.04 97.3099 114.84 90.5199C118.97 80.5399 122.52 64.5999 124.13 53.5599L125.11 45.1699L126.88 45.2799L130.29 45.4199C128.72 51.0599 128.19 60.3099 127.94 66.4099C127.62 73.9799 127.61 81.6099 128.05 89.2099C128.5 97.1199 130.66 106.19 136.09 111.44L138.41 113.65C139.06 114.22 140.01 114.93 141.05 115.65L141.03 115.64ZM141.03 210.06C129.06 214.1 112.61 212.8 101.03 208.43C92.0401 205.04 86.5301 200.43 80.5401 194.02C78.7701 192.13 77.0701 189.69 75.5601 187.31C74.1001 185.02 72.7301 182.64 71.3501 180.01C70.6401 178.67 70.0301 177.6 69.4401 176.17C68.4401 173.75 69.4401 174.42 66.2001 173.47C65.8001 173.35 65.3901 173.23 64.9701 173.1V206.17C70.3201 209.97 76.7601 213.4 82.1301 215.46C87.4001 217.48 92.8201 218.81 98.6701 219.86C101.85 220.43 104.67 220.68 107.96 220.91C111.27 221.14 114.03 221.92 117.27 221.92C125.27 221.92 133.3 221.4 141.05 219.81V210.05L141.03 210.06ZM141.03 259.18V279.76C137.28 274.7 130.94 262.68 129.53 259.65C127.59 255.49 126.17 251.1 124.95 246.27C124.29 243.67 121.86 233.43 122.2 231.15C123.55 231.53 124.15 231.95 125.92 232.19C127.48 238.94 127.94 243.9 133.11 240.84C133.73 240.47 137.65 238.56 137.73 239.97C137.74 240.17 135.96 244.07 135.76 248.18C135.39 255.6 138.07 259.38 141.03 259.17V259.18ZM64.9601 119.87V140.03C63.7201 140.87 63.5301 142.1 64.9601 143.11V157.56C64.8001 157.56 64.6301 157.58 64.4601 157.62C62.0501 158.32 63.1201 160.92 64.9601 161.18V167.95C63.3901 167.45 61.7801 166.91 60.0801 166.32V150.63C60.2201 150.65 60.3601 150.65 60.5101 150.63C62.1801 150.31 61.8101 147.21 60.0801 147.26V121.23C61.6201 120.57 63.2501 120.19 64.9601 119.87ZM64.9601 173.09V206.16C63.1901 204.9 61.5401 203.61 60.0801 202.31V171.36C61.7201 172.03 63.3901 172.59 64.9601 173.08V173.09ZM60.0801 121.23V147.26C59.9601 147.26 59.8401 147.28 59.7101 147.31C57.7001 147.82 58.6801 150.41 60.0801 150.64V166.33L59.8101 166.24C57.7101 165.51 52.9801 163.06 51.2201 165.15C51.3901 165.42 51.3401 165.68 51.7401 166.11C53.8501 168.39 56.9201 170.08 60.0801 171.37V202.32C59.8501 202.12 59.6301 201.91 59.4101 201.71C56.4701 198.97 54.5101 197.03 51.9801 193.44C51.5401 192.81 51.1301 192.22 50.7701 191.66V157.15C51.0101 157.19 51.2501 157.15 51.5401 157.01C53.0601 156.35 52.4001 153.57 50.7701 153.61V131.28C51.6401 129.84 52.5801 128.48 53.8401 126.68C54.2401 126.11 54.5101 125.81 54.9501 125.17C55.1401 124.9 55.2001 124.77 55.4601 124.44C55.7401 124.08 55.6401 124.04 55.9801 123.97C57.2701 122.69 58.6401 121.84 60.0801 121.22V121.23ZM50.7701 122.2C51.9201 120.63 53.1101 118.97 53.1801 118.62C53.2801 115.23 53.9801 112.62 52.2801 109.59C51.8901 108.89 51.3901 108.25 50.7701 107.75V122.2ZM50.7701 107.75V122.2C49.8901 123.4 49.0401 124.55 48.7301 125.02C46.8201 124.02 46.9401 118.63 47.0401 118.09C47.1301 117.66 49.6601 113.84 49.7901 112.28C49.9301 110.6 48.6901 109.31 47.1201 109.34C45.2701 109.38 44.9701 110.93 44.3201 112.26L44.2401 112.42V107.29C44.5801 107.14 44.9201 107.02 45.2701 106.91C47.6901 106.2 49.4901 106.68 50.7801 107.74L50.7701 107.75ZM50.7701 131.28V153.61C50.5301 153.61 50.2701 153.68 50.0001 153.82C49.5501 154.05 49.4301 153.88 49.2101 154.66C48.9501 155.56 49.5201 156.29 50.1901 156.85C50.3901 157.02 50.5801 157.11 50.7801 157.15V191.66C47.8901 187.28 47.1201 184.89 45.1101 179.55C44.7901 178.71 44.5101 177.85 44.2401 176.98V146.74C45.3401 142.98 46.9901 138.93 48.0501 136.58C49.0501 134.36 49.8701 132.78 50.7701 131.29V131.28ZM44.2301 132.75C44.9101 131.41 45.5401 130.24 45.8901 129.39C45.5401 128.63 44.8701 127.95 44.2301 126.92V132.75ZM44.2301 95.9899V89.6699C45.4401 92.6299 46.4201 95.2299 46.4001 95.7399C45.7201 95.8899 44.9901 95.9199 44.2301 95.9899ZM44.2301 89.6699V95.9899C43.7201 96.0399 43.2001 96.0999 42.6901 96.2199C42.1201 96.3499 41.5201 96.5699 40.9301 96.7799V81.8199C41.7901 83.8399 43.1101 86.9199 44.2301 89.6799V89.6699ZM44.2301 107.3V112.43C43.6201 113.65 42.9201 114.88 42.2001 115.91C41.7801 116.52 41.3801 117.07 40.9301 117.56V109.45C41.9501 108.55 43.0701 107.8 44.2301 107.29V107.3ZM44.2301 126.92V132.75C43.7201 133.76 43.1901 134.85 42.7301 135.98C42.0601 137.62 41.5001 139.13 40.9401 140.7V126.64C41.1801 125.93 41.2101 125.1 41.0101 123.93L42.7601 122.97C42.9901 123.48 43.0401 124.26 43.2601 124.89C43.5401 125.71 43.8901 126.37 44.2301 126.92ZM44.2301 146.74V176.98C42.7701 172.13 42.1001 166.78 42.0601 161.66C42.0201 156.44 42.9401 155.3 43.0901 152.41C43.1701 150.83 43.6201 148.82 44.2301 146.74ZM40.9301 81.8099V96.7699C40.3901 96.9499 39.8501 97.1199 39.3401 97.1999C38.8701 96.0599 37.2701 93.4399 36.1701 90.9499V72.1199C36.2801 72.2799 36.3701 72.4199 36.4501 72.5399C37.9501 74.8499 38.9601 77.0999 40.1101 79.8699C40.2601 80.2399 40.5501 80.9199 40.9301 81.7999V81.8099ZM40.9301 109.45V117.56C40.4901 118.06 40.0001 118.5 39.4101 118.88C38.0301 119.77 36.7501 119.45 36.1701 118.31V116.33C36.7501 114.26 38.5901 111.49 40.9301 109.44V109.45ZM40.9301 126.64V140.7C40.6601 141.44 40.4001 142.19 40.1201 142.97C38.9301 142.82 37.4601 141.99 36.1701 141.02V133.5C36.4401 132.69 36.6001 131.76 36.5701 130.68C37.1001 130.27 37.7301 130.06 38.4201 129.59C39.0001 129.19 39.5001 128.78 39.9201 128.3C40.4001 127.75 40.7401 127.24 40.9401 126.66L40.9301 126.64ZM36.1701 124.66V124.23C36.2301 124.25 36.3001 124.26 36.3701 124.28C36.3201 124.41 36.2601 124.54 36.1701 124.66ZM36.1701 72.1299V90.9599C36.1201 90.8399 36.0601 90.7199 36.0101 90.5999C35.0301 88.2899 34.0601 85.9399 33.1301 83.5299C31.7801 80.0599 28.8801 71.3699 30.5201 67.4999C32.3901 67.0099 35.0401 70.4699 36.1701 72.1399V72.1299ZM36.1701 116.35V118.33C36.1001 118.19 36.0301 118.03 35.9801 117.86C35.9401 117.43 36.0101 116.92 36.1701 116.35ZM36.1701 124.23V124.66C35.4701 125.71 33.5601 126.56 31.9701 125.93C32.2801 125.4 32.3801 125.46 33.1901 125.41C33.0601 124.59 32.3901 122.85 32.7701 122.15C33.8601 122.72 34.4001 123.75 36.1701 124.22V124.23ZM36.1701 133.49V141.01C34.7401 139.93 33.5201 138.67 33.1001 137.93C33.4201 137.29 35.3301 136.02 36.1701 133.49ZM29.1901 133.8C30.5201 133.66 31.2401 132.48 31.4701 131.13C31.0101 130.79 29.9501 130.56 28.6101 129.74C27.6601 129.16 26.8701 128.29 26.1601 127.88C26.0101 128.26 27.3501 129.92 27.7401 130.61C28.4701 131.89 28.8701 132.48 28.4201 133.82L29.1901 133.8Z" fill="#FAD9D0"/>
<path fill-rule="evenodd" clip-rule="evenodd" d="M180.93 33.0401C182.17 32.6401 182.89 29.5701 186.51 26.9801C190.97 23.7801 192.79 25.3801 195.77 25.7301C195.95 23.8801 192.14 19.5101 185.89 23.5601C182.49 25.7601 178.59 31.1401 180.94 33.0501L180.93 33.0401Z" fill="#E2E2E2"/>
<path fill-rule="evenodd" clip-rule="evenodd" d="M81.05 72.21C81.05 72.21 81.14 72.06 81.15 72.09C81.29 72.36 82.05 69.65 82.06 69.6L83.7899 60.7C84.0599 58.82 84.91 48.27 84.03 47.27C83.13 46.24 82.4399 47.69 82.2899 48.53C82.0999 49.59 82.06 50.68 81.99 51.75C81.69 56.81 80.87 68.25 81.05 72.21Z" fill="#E2E2E2"/>
<path fill-rule="evenodd" clip-rule="evenodd" d="M93.7 3.25006C93.7 4.55006 94.8999 5.38006 95.9699 6.22006L100.11 9.58004C100.96 10.34 103.63 12.56 104.52 13.02C105.01 10.93 102.64 7.42006 101.66 5.94006C99.1499 2.13006 93.7 0.190058 93.7 3.25006Z" fill="#974D23"/>
<path fill-rule="evenodd" clip-rule="evenodd" d="M7 124.5C7 128.76 7.43001 131.25 9.89001 134.52C10.42 135.22 11.02 136.1 12.06 136.19C12.06 133.77 10.31 127.94 9.98001 123.62C9.89001 122.41 10.06 119.79 8.92001 119.79C7.63001 119.79 7 122.93 7 124.5Z" fill="#974D23"/>
<path fill-rule="evenodd" clip-rule="evenodd" d="M237.97 186.61C241.2 186.88 244.57 192.69 247.22 194.46C248.48 191.82 245.52 184.17 240.77 184.17C239.23 184.17 237.98 185.01 237.98 186.61H237.97Z" fill="#974D23"/>
<path fill-rule="evenodd" clip-rule="evenodd" d="M77.83 27.7401C79.15 27.0601 78.46 24.3101 81.34 21.5901C83.38 19.6601 85.23 19.6701 88.55 19.1501C88.22 17.7501 85.9 16.9701 84.11 17.1501C81.17 17.4401 78.2 20.3901 77.18 23.0101C76.53 24.6901 76.3 26.8301 77.84 27.7501L77.83 27.7401Z" fill="#E2E2E2"/>
<path fill-rule="evenodd" clip-rule="evenodd" d="M159.06 90.4802C157.5 91.0302 156.67 92.4002 156.5 94.4902C156.34 96.4302 157.09 98.5402 159.1 98.3102C162.44 97.9202 162.1 89.4102 159.06 90.4802Z" fill="white"/>
<path fill-rule="evenodd" clip-rule="evenodd" d="M87.6501 89.6099C87.8901 91.2099 89.51 92.6599 91.07 91.5199C92.53 90.4499 92.45 85.3199 90.81 84.2999C90.09 83.8499 89.32 84.12 88.82 84.73C88.05 85.68 87.4101 88.0199 87.6501 89.6199V89.6099Z" fill="white"/>
<path fill-rule="evenodd" clip-rule="evenodd" d="M117.22 47.7498C116.6 45.8398 109.33 44.4498 108.9 46.9198C108.46 49.4798 115.63 49.2198 117.22 47.7498Z" fill="#E2E2E2"/>
<path fill-rule="evenodd" clip-rule="evenodd" d="M208.41 282.57V266.51C209.48 266.43 210.53 264.58 211.11 263.88C212.04 262.76 212.8 262.12 213.69 261.08C213.99 261.4 213.78 260.8 214.02 261.72C214.07 261.9 214.1 262.36 214.13 262.62C214.2 263.2 214.31 263.83 214.41 264.43C214.6 265.58 214.81 266.7 215.01 267.86C215.2 268.95 215.4 270.14 215.63 271.24C215.75 271.84 215.88 272.43 216 272.98L216.34 274.21C216.52 274.59 216.43 274.41 216.56 274.58L217.32 270.65C217.73 267.45 218.56 259.93 216.77 257.72C216.03 256.8 214.37 256.61 213.21 257.44C212.09 258.24 209.49 261.03 208.41 263.45V257.73C213.28 251.43 219.23 248.55 224.72 257.08C230.28 265.71 231.33 284.69 227.6 294.88C227.2 295.96 226.17 298.73 225.48 299.23C225.5 298.88 225.51 299.06 225.42 298.89C223.65 299.13 222.4 300.17 220.51 300.28C218.32 300.41 216.89 300.23 215.69 298.92C215.37 298.57 215.21 298.51 214.87 298.18L210.41 293.19C210.03 292.77 210.04 292.46 209.7 292.88C209.16 291.71 208.71 285.67 208.54 283.9C208.5 283.45 208.45 283.01 208.41 282.58V282.57ZM208.41 250.9C210.52 249.08 213.03 247.57 215.68 247.19C215.58 246.29 214.74 244.01 214.25 243.43L208.7 246.84L208.41 247.01V250.91V250.9ZM208.41 241.56V217.2C211 215.28 213.35 213.43 214.72 212.37C216.06 211.34 222.15 206.49 218.99 203.68C217.39 202.26 211.57 200.88 208.41 201.81V196.52C209.14 196.48 209.86 196.45 210.58 196.44C214.97 196.38 220.35 196.65 223.75 198.59C226.98 200.43 228.83 203.18 229.83 207.86C231.48 215.54 228.9 222.53 224.17 228.13C219.9 233.17 214.39 237.84 208.4 241.57L208.41 241.56ZM208.41 213.88C209.21 213.24 210 212.59 210.78 211.92C211.18 211.57 211.54 211.24 211.99 210.87C213.49 209.62 215.46 207.92 216.54 206.15L209.14 203.59C208.9 203.5 208.65 203.41 208.41 203.31V207.4C209.65 206.71 210.71 206.19 211.3 206.14C211.05 206.84 210.23 207.36 209.67 207.86C209.25 208.24 208.82 208.62 208.4 208.99V213.89L208.41 213.88ZM208.41 196.51V201.8C207.88 201.96 207.42 202.18 207.07 202.48C207.36 202.85 207.87 203.09 208.41 203.3V207.39C206.04 208.72 203.01 210.73 201.34 211.44C199.82 210.81 199.46 209.98 198.55 208.93C198 208.29 196.79 206.91 195.49 206.93C195.14 208.74 197.44 211.05 197.3 213.52L190.87 216.78C189.94 217.22 188.97 217.72 187.99 218.26V205.72C188.57 205.2 189.13 204.7 189.65 204.23C190.91 203.08 191.94 202.14 193.13 201.08C193.64 200.63 194.29 200.02 194.79 199.42C196.92 196.87 193.67 197.17 203.31 196.8C205.02 196.73 206.72 196.6 208.41 196.51ZM208.41 208.98C202.28 214.38 196.33 218.71 189.01 222.94C188.79 223.07 188.44 223.29 188 223.57V230.68C191.13 233.06 193.76 236.78 194.9 240.85C195.48 242.91 195.51 246.84 194.19 248.19C198.98 246.69 203.83 244.39 208.41 241.54V217.18C204.11 220.38 199.14 223.78 196.93 224.13C197.27 222.43 200.35 220.28 201.57 219.27C203.79 217.44 206.13 215.69 208.4 213.86V208.96L208.41 208.98ZM208.41 247V250.9C206.38 252.65 204.72 254.68 203.66 256.27C201.32 259.76 197.19 267.9 199.36 272.32C199.89 271.93 200.93 269.11 201.46 268.02C203.59 263.69 205.32 261.93 207.9 258.41C208.07 258.18 208.24 257.95 208.42 257.73V263.45C207.88 264.67 207.72 265.79 208.33 266.52C208.36 266.52 208.39 266.52 208.42 266.52V282.58C208.14 279.92 207.82 277.65 207.33 275.04C206.94 275.28 207.27 275.02 207 275.29C206.97 275.32 206.78 275.54 206.75 275.58C206.63 275.74 206.44 276.09 206.31 276.36C204.42 280.24 205.26 284.22 203.58 285.48C199.14 288.78 193.76 291.57 188.02 293.44V275.17C188.16 274.87 188.29 274.58 188.41 274.3C190.42 269.43 190.61 264.23 189.93 258.93C189.82 258.08 189.39 254.19 189.19 253.8C189.83 253.52 192.12 253.45 193.01 253.28C198.32 252.25 203.71 249.66 208.43 247.01L208.41 247ZM187.99 140.33V26.03C191.42 24.14 193.14 25.42 195.76 25.73C195.92 24.1 192.97 20.51 187.99 22.46V19.93C191.1 18.97 194.66 19.06 197.72 20.49C201.35 22.19 204.37 25.34 205.75 29.02C209.41 38.77 204.28 47.29 198.29 54.29C196.13 56.81 196.89 56.39 196.01 58.29C194.62 61.27 197.02 77.19 197.42 80.76C199.23 97.14 199.77 110.76 200.8 127.17C201.12 132.33 201.1 138.08 200.63 143.14C200.41 145.53 199.68 156.56 198.87 157.79C198.52 154.35 194.34 147.03 191.88 144.27C191.36 143.68 191.08 143.22 190.6 142.75C189.82 141.97 188.94 141.16 188.01 140.33H187.99ZM187.99 19.92V22.45C187.32 22.71 186.62 23.07 185.88 23.55C182.48 25.75 178.58 31.13 180.93 33.04C182.17 32.64 182.89 29.57 186.51 26.98C187.04 26.6 187.53 26.29 187.99 26.04V140.34C184.72 137.45 180.73 134.42 177.56 132.58C172.57 129.67 167.32 127.71 161.47 125.46C160.99 125.28 160.52 125.09 160.04 124.9V115.14C163.68 114.84 166.62 112.23 168.35 109.15C170.1 106.03 171.08 101.95 171.35 97.8299C171.79 91.1099 169.76 79.3999 160.25 80.52C160.18 80.52 160.11 80.5399 160.04 80.5499V62.5C160.32 62.36 160.62 62.23 160.92 62.13C164.38 60.97 167.97 65.12 169.92 67.47C170.39 68.04 171.68 69.93 172.16 70.2999C173.37 71.2299 174.93 70.28 174.91 68.9C174.89 67.76 172.66 65.43 171.87 64.49C171.36 63.88 171.41 63.81 170.72 63.19C168.38 61.1 165.66 57.49 160.72 58.52C160.5 58.57 160.27 58.63 160.03 58.71V51.5C161.5 51.39 162.65 51.21 163.25 50.94C162.67 50.64 161.53 50.31 160.03 49.98V47.12C163.38 47.27 166.63 47.45 169.5 47.69C174.16 48.08 173.5 45.8 173.86 44.01C174.36 41.54 174.43 39.05 175.02 36.81C176.08 32.75 178.04 28.91 180.42 25.63C180.92 24.94 181.78 23.9 182.32 23.35C182.73 22.94 183.05 22.75 183.46 22.4C184.74 21.3 186.3 20.47 187.99 19.95V19.92ZM187.99 205.72V218.26C182.72 221.15 177.04 225.26 174.03 229.59C173.36 226.58 170 223.25 167.47 222.37L175.42 216.86C176.72 215.88 177.92 214.91 179.1 213.91L184.45 209.13C185.46 208.04 186.76 206.84 188.01 205.72H187.99ZM187.99 223.58C186.01 224.87 182.33 227.46 181.65 228.57C183.82 227.91 186.72 229.72 187.97 230.67L187.99 230.69V223.58ZM187.99 275.16V293.43C179.79 296.1 170.86 296.9 162.88 294.65C162.1 294.43 161.07 294.08 160.04 293.72V289.82C166.37 291.22 172.87 289.94 178.19 287.35C181.31 285.83 186 279.33 187.98 275.16H187.99ZM160.05 339.73C160.27 340.64 160.47 341.66 160.64 342.83C161.01 345.37 162.06 349.45 164.57 350.58C164.22 350.2 164.48 350.53 164.29 350.05C167.72 348.96 171.17 346.02 172.62 343.67C173.55 342.17 174.14 340.35 174.63 338.36C175.05 336.65 175.12 335.65 175.72 333.87C175.78 333.69 175.86 333.38 175.93 333.21L176.45 332.49C175.68 329.73 175.34 327.39 174.28 324.79C173.3 322.38 172.37 320.28 171.58 317.71C170.73 314.93 170.43 312.01 170.49 308.88C170.52 307.41 170.79 306.06 171.05 304.57C171.24 303.46 171.76 301.52 171.81 300.56C169.69 300.13 171 300.29 169.49 299.76L163.02 297.14C162.39 296.8 161.26 296.16 160.07 295.43V330.25C160.41 330.5 160.71 330.92 160.91 331.55C161.3 332.75 161.49 333.47 160.07 333.33V339.72L160.05 339.73ZM160.05 47.09V49.95C157.94 49.49 155.12 49.03 152.14 48.67V46.75C154.75 46.87 157.43 46.97 160.05 47.09ZM160.05 51.48V58.69C156.87 59.75 152.66 63.5799 152.69 65.3599C152.71 66.7499 154.29 67.5299 155.48 66.6099C155.92 66.2699 157.58 63.73 160.05 62.49V80.54C156.65 81.02 154.02 83.24 152.14 86.34V51.62C155.04 51.66 157.89 51.64 160.05 51.48ZM160.05 115.13V124.89C157.42 123.85 154.75 122.73 152.14 121.56V112.11C154 114.4 156.47 115.4 160 115.13H160.05ZM160.05 289.82V293.72C158.02 293 155.97 292.2 155.76 292.15C156.25 292.96 158.22 294.31 160.05 295.45V330.27C158.94 329.43 157.44 330.43 157.9 331.93C158.13 332.69 158.94 333.2 159.84 333.32C159.91 333.32 159.98 333.34 160.04 333.34V339.73C158.76 334.47 156.59 332.87 152.91 327.14C152.66 326.75 152.4 326.32 152.13 325.88V321.15C153.31 322.87 154.63 324.42 155.73 325.23C156.17 322.07 152.98 315.72 152.36 312.52C152.26 312 152.18 311.46 152.13 310.92V305.83C152.27 303.63 152.48 301.84 152.23 301.12C152.2 301.03 152.16 300.95 152.13 300.88V286.95C154.55 288.03 157.06 289.02 158.8 289.5C159.21 289.61 159.62 289.72 160.04 289.81L160.05 289.82ZM113.05 228.39C114.83 229.63 116.97 230.97 117.17 230.98L117.25 226.77L113.05 226.54V228.39ZM152.14 46.75V48.67C145.07 47.81 137.13 47.52 135.85 49.07C134.12 51.16 139.38 51.17 140.81 51.23C142.96 51.32 147.6 51.55 152.14 51.62V86.34C148.08 93.05 147.59 103.84 150.71 109.89C151.15 110.73 151.62 111.48 152.14 112.12V121.57C149.81 120.53 147.53 119.44 145.39 118.35C143.41 117.34 140 115.05 138.39 113.66L136.07 111.45C130.65 106.2 128.48 97.14 128.03 89.22C127.6 81.62 127.6 73.99 127.92 66.42C128.18 60.32 128.7 51.08 130.27 45.43C133.11 45.8 142.2 46.21 145.71 46.43C147.74 46.56 149.91 46.66 152.13 46.76L152.14 46.75ZM152.14 286.96V300.89C151.55 299.77 150.25 300.89 149.89 301.59C148.25 304.83 148.1 312.08 149.23 315.64C149.73 317.2 150.85 319.28 152.13 321.16V325.89C150.94 323.9 149.7 321.47 148.89 319.31C145.68 310.68 146.39 303.1 147.89 293.87C148.46 290.35 148.16 291.45 148.45 288.38C148.57 287.13 148.23 287.13 147.47 286.53C146.48 285.76 143.42 282.79 143.07 281.93C144.32 282.69 144.69 283.13 146.63 284.24C148.03 285.03 150.05 286.03 152.14 286.96ZM152.14 305.83C152.04 307.4 151.97 309.19 152.14 310.92V305.83ZM113.05 94.54V48.85C114.77 48.8 116.53 48.39 117.22 47.75C116.91 46.8 114.98 45.99 113.05 45.7V43.87C113.45 43.91 113.85 43.95 114.24 44L126.87 45.28L125.1 45.17L124.12 53.56C122.52 64.6 118.97 80.5499 114.83 90.52C114.19 92.06 113.61 93.37 113.04 94.53L113.05 94.54ZM110.65 226.41C110.76 226.7 111.82 227.52 113.05 228.39V226.54L110.65 226.41ZM113.05 43.87V45.7C111.08 45.41 109.12 45.67 108.9 46.92C108.65 48.36 110.82 48.91 113.05 48.85V94.54C111.11 98.51 109.31 100.78 105.94 104.65C105.2 105.5 104.39 106.01 103.61 106.85C103.15 107.34 102.86 107.49 102.29 107.98C99.24 110.61 95.37 112.72 91.29 114.27V107.16C97.77 106.72 101.23 98.7 101.99 92.41C102.48 88.35 101.65 84.04 100.08 80.78C98.84 78.2 95.68 74.83 93.14 74.1C92.5 73.92 91.8801 73.84 91.2801 73.84V60.49C92.6801 58.37 94.15 56.1 97.32 56.51C99.92 56.84 101.31 58.39 102.46 59.91C103.12 60.79 103.34 62.02 104.84 61.93C106.17 61.85 106.63 60.34 106.05 59.12C104.67 56.23 100.21 52.11 95.31 52.97C93.5 53.29 92.2601 53.99 91.2801 54.87V15.48C93.5301 16.8 94.92 18.69 96.11 21.05C100.13 29.01 97.75 37.2399 97.97 39.1099C98.2 41.0499 99.63 42.09 101.58 42.47C105.19 43.18 109.26 43.49 113.03 43.88L113.05 43.87ZM91.3 15.47V54.8599C90.82 55.2999 90.4 55.77 90.01 56.27C89.18 57.31 86.55 60.4199 87.37 62.1099C87.89 63.1699 89.18 63.27 90.05 62.24C90.49 61.72 90.9 61.11 91.31 60.49V73.84C87.9 73.85 85.26 76.59 84.1 78.45C83.62 79.22 83.16 80.16 82.73 81.2V66.23L83.8 60.72C84.07 58.84 84.92 48.29 84.04 47.29C83.51 46.68 83.05 46.94 82.73 47.42V20.56C84.3 19.66 85.99 19.57 88.55 19.17C88.22 17.77 85.9 16.99 84.11 17.17C83.65 17.21 83.19 17.33 82.73 17.49V14.22C84.79 13.72 86.93 13.76 88.88 14.41C89.79 14.71 90.59 15.08 91.31 15.5L91.3 15.47ZM91.3 107.15V114.26C89.29 115.03 87.24 115.66 85.2 116.16C84.5 116.33 83.66 116.51 82.72 116.69V101.55C84.07 104.16 85.95 106.48 89.18 107.04C89.92 107.17 90.62 107.2 91.3 107.16V107.15ZM82.72 14.19V17.46C80.27 18.34 78.03 20.79 77.16 23C76.51 24.68 76.28 26.82 77.82 27.74C79.14 27.06 78.45 24.31 81.33 21.59C81.8 21.15 82.25 20.81 82.72 20.54V47.4C82.5 47.74 82.35 48.18 82.29 48.53C82.1 49.59 82.06 50.68 81.99 51.75C81.69 56.81 80.87 68.25 81.05 72.21C81.09 72.17 81.14 72.06 81.15 72.09C81.29 72.36 82.05 69.65 82.06 69.6L82.72 66.22V81.19C81.75 83.53 80.98 86.34 80.69 88.66C80.14 93.1 80.51 96.78 82.18 100.42C82.35 100.8 82.53 101.17 82.72 101.54V116.68C78.82 117.44 73.25 118.28 69.59 119.02C65.0201 119.95 60.92 120.11 57.35 122.78V121.79C58.9 119.66 61.24 116.81 62.1 115.74C69.67 106.32 72.5 99.4 75.46 86.85C77.49 78.23 77.91 70.13 78.24 61.34C78.41 56.69 79.11 45.72 77.05 41.72C76.23 40.12 75.44 38.73 74.66 37.14C68.65 24.87 75.24 16.01 82.73 14.19H82.72ZM57.35 113.35L58.54 111.85C58.99 111.19 58.65 108.32 57.35 105.94V113.35ZM57.35 105.93V113.34L53.17 118.61C53.27 115.22 53.97 112.61 52.27 109.58C51.05 107.41 48.84 105.86 45.26 106.91C40.34 108.35 35.72 114.92 35.99 117.84C34.69 116.32 34.76 113.04 35.1 110.88C36.71 100.49 48.68 98.71 55.27 103.44C56.14 104.06 56.83 104.95 57.36 105.92L57.35 105.93ZM57.35 121.8V122.79C56.88 123.14 56.42 123.53 55.97 123.98C56.15 123.53 56.67 122.74 57.35 121.81V121.8ZM27.24 133.57V129.83C27.45 130.13 27.64 130.41 27.75 130.6C28.48 131.88 28.88 132.47 28.43 133.81L29.2 133.79C28.65 133.94 27.94 133.81 27.24 133.56V133.57ZM27.24 121.07V106.84C28.33 105.31 30.2 103.47 32.1 103.59C31.86 105.21 29.68 107.71 29.79 113.16C29.9 118.39 31.28 119.3 32.77 122.15C32.39 122.85 33.06 124.59 33.19 125.41C32.38 125.46 32.28 125.4 31.97 125.93C29.97 125.03 28.48 123.23 27.4 121.37C27.34 121.27 27.29 121.17 27.23 121.07H27.24ZM30.52 67.49C32.57 66.96 35.55 71.1499 36.45 72.5499C37.95 74.86 38.96 77.11 40.11 79.88C40.99 82.01 46.46 94.5499 46.4 95.74C48.15 95.66 49.53 96.06 51.13 96.22C51.14 94.14 45.08 79.77 43.97 77.23C42.89 74.77 41.16 70.65 39.36 68.77C37.62 66.9599 35.29 65.52 32.44 66.0499C31.2 66.2799 30.95 66.54 30.53 67.5L30.52 67.49ZM27.24 106.84V121.07C25.03 117.04 24.38 111.26 26.94 107.28C27.03 107.14 27.13 106.99 27.24 106.84ZM27.24 129.83C26.71 129.07 26.06 128.15 26.17 127.87C25.51 126.84 23.29 124.93 22 121.7C21.7 120.94 21.4 119.84 20.96 119.3C19.27 120.47 18.81 127.76 24.74 132.23C25.24 132.61 26.24 133.21 27.25 133.57V129.83H27.24Z" fill="#C7C8C8"/>
<path fill-rule="evenodd" clip-rule="evenodd" d="M4.20998 137.41C4.18998 136.53 3.24001 133.43 2.92001 132.6L1.60998 129.37C1.35998 128.86 1.42999 128.75 0.719994 128.69C0.189994 130.96 0.480002 131.97 1.26 133.9C1.72 135.05 2.95 137.08 4.2 137.41H4.20998Z" fill="#974D23"/>
<path fill-rule="evenodd" clip-rule="evenodd" d="M105.56 1.33999C105.56 4.11999 109.7 5.37 110.19 5.1C110.89 4.72 109.41 2.74 109.12 2.32C107.92 0.560003 105.56 0.170002 105.56 1.35V1.33999Z" fill="#974D23"/>
<path fill-rule="evenodd" clip-rule="evenodd" d="M168.5 157.15C167.41 157.57 166.78 158.3 167.2 159.68C167.94 162.09 171.71 160.4 170.79 158.19C170.46 157.38 169.53 156.75 168.5 157.15ZM50 153.82C49.55 154.05 49.43 153.88 49.21 154.66C48.95 155.56 49.52 156.29 50.19 156.85C50.63 157.21 51.0199 157.25 51.5499 157.01C53.2899 156.26 52.18 152.71 50 153.82ZM59.71 147.31C57.5 147.87 58.9 150.94 60.51 150.63C62.3 150.29 61.75 146.79 59.71 147.31ZM64.46 157.62C61.77 158.39 63.3999 161.53 65.6099 161.18C66.5299 161.03 67.1499 159.89 66.7199 158.81C66.4099 158.03 65.44 157.34 64.46 157.62ZM64.9799 143.12C65.7899 146.76 71.52 147.38 74.69 147.2C75.38 147.16 76.13 147.13 76.82 147.06C77.46 147 78.25 146.88 78.78 146.46C76.72 146.72 76.8299 145.62 75.6599 144.8C69.6899 140.63 66.9999 143.14 64.9799 143.11V143.12ZM133.59 147.33C133.77 150.76 139.35 149.67 142.07 149.31C143.98 149.05 147.65 148.82 148.38 147.26C148.77 146.41 148.42 145.71 148.33 144.89C146.89 146.26 146.87 145.75 144.78 145.52C143.62 145.39 141.35 145.44 140.21 145.62C135.29 146.36 136.76 149.04 133.59 147.34V147.33ZM150.66 160.79C148.04 162.12 150.66 164.88 152.4 164.19C154.46 163.38 153.11 159.55 150.66 160.79ZM154.37 149.03C152.62 149.86 153.37 152.69 155.64 151.89C157.85 151.12 156.3 148.11 154.37 149.03Z" fill="#DFB5AA"/>
<path fill-rule="evenodd" clip-rule="evenodd" d="M156.6 102.52C156.93 104.63 159.4 104.48 159.17 102C158.96 99.6898 156.24 100.22 156.6 102.52Z" fill="white"/>
<path fill-rule="evenodd" clip-rule="evenodd" d="M137.1 229.47C137.17 227.31 132.21 228.55 131.43 229.6C130.32 231.1 133.08 229.76 133.43 229.65C135.28 229 135.62 229.7 137.1 229.47Z" fill="#CAC9C9"/>
<path fill-rule="evenodd" clip-rule="evenodd" d="M135.21 232.06C134.28 232.22 132.82 232.76 132.44 233.41C131.45 235.08 133.97 232.77 136.46 232.97C136.96 233.01 137.79 233.38 138.09 232.89C138.71 231.84 135.89 231.94 135.22 232.06H135.21Z" fill="#CAC9C9"/>
<path fill-rule="evenodd" clip-rule="evenodd" d="M88.86 96.2402C89.19 97.7602 91.5101 97.2802 90.9001 95.0602C90.5101 93.6402 88.32 93.8102 88.86 96.2402Z" fill="white"/>
<path fill-rule="evenodd" clip-rule="evenodd" d="M144.89 227.87C145.71 227.8 146.13 227.05 147.07 226.73C148.32 226.3 149.48 226.73 150.4 226.38C149.7 224.62 144.26 226 144.89 227.87Z" fill="#CCCBCE"/>
<path fill-rule="evenodd" clip-rule="evenodd" d="M146.43 230.98C146.64 230.91 146.71 230.8 146.96 230.62C148.99 229.12 149.98 230.11 150.92 229.35C150.01 227.9 145.68 229.63 145.79 230.96L146.44 230.98H146.43Z" fill="#CAC9C9"/>
<path fill-rule="evenodd" clip-rule="evenodd" d="M130.61 226.3L131.77 226.28C131.38 226.54 131.02 226.72 131.03 227.37C131.85 227.24 132.56 226.64 133.47 226.36C135.02 225.88 135.43 226.34 136.79 226.36C137.1 225.88 137.1 226.09 136.75 225.59L138.01 225.41L138.38 225.89L138.28 225.22L130.61 226.28V226.3Z" fill="#C7C6C4"/>
<path fill-rule="evenodd" clip-rule="evenodd" d="M143.79 224.19C144.35 224.38 143.89 224.3 144.12 224.86C145.08 224.6 145.8 223.93 147.02 223.53C148.5 223.05 150.18 223.58 150.59 223.43C150.87 222.59 150.15 223.06 149.85 222.37L145.29 223.72C144.72 223.84 144.24 223.82 143.8 224.19H143.79Z" fill="#C7C8C7"/>
<path fill-rule="evenodd" clip-rule="evenodd" d="M125.26 228.77L125.17 226.67L122.68 226.73C122.95 227.19 123.3 227.43 123.69 227.8C124.3 228.38 124.22 228.61 125.26 228.77ZM218.41 240.34C219.14 242.43 219.97 244.36 220.65 246.52C221.21 248.29 221.35 247.7 222.83 248.52C231.03 253.06 233.58 265.45 234.35 274.49C234.97 281.81 234.27 283.89 233.74 290.31C234.75 290.1 235.66 289.64 236.73 289.36C241.62 288.08 238.97 289.92 245.2 286.64C249.14 284.57 246.8 286.15 248.63 284.32C252.32 280.64 252.84 281.11 253.7 280.3L248.57 275.99C240.71 269.49 229.38 253.39 224.23 244.16L221.22 237.91L218.42 240.34H218.41ZM176.65 301.64C179.76 301.87 181.72 302.15 184.74 301.38C188.59 300.4 190.78 297.22 198.2 297.34C199.52 297.36 201.04 297.66 202.37 297.5C203.28 297.39 204.62 296.76 205.61 296.43L204.46 290.59C203.96 290.71 196.34 296.05 183.8 299.23C178.78 300.5 176.38 299.56 176.65 301.64ZM138.96 284.4L134.2 278.01C134.29 279.46 134.76 281.43 134.94 282.95C135.14 284.68 135.27 286.36 135.42 288.11C135.73 291.73 135.44 297.81 135.61 299.25C140.51 299.19 140.13 300.25 142.28 300.77C142.68 296.42 143.52 293.92 144.43 290.06C143.62 289.05 141.08 287.04 138.96 284.41V284.4ZM140.8 255C142.27 254.02 142.82 250.66 143.08 248.39C143.45 245.19 143.23 243.29 142.37 240.44L141.32 240.31C139.61 242.9 138.78 252.43 140.8 255ZM148.3 237.69C147.71 237.94 146.94 238.77 146.69 239.44C145.96 241.38 152.18 250.47 157.73 250.87C159.13 250.97 159.83 250.87 159.31 249.42C158.59 247.43 156.68 245.03 155.29 243.65L148.31 237.69H148.3ZM156.69 220.1C156.61 221.01 156.77 222.83 157.2 223.52C158.88 223.04 164.63 219.5 166.2 218.46C172.62 214.25 176.37 210.32 181.64 205.29C182.92 204.07 183.96 202.91 185.27 201.77L188.89 198.35C185.24 198.26 184.71 200.57 181.15 203.92C173.93 210.7 170.04 213.47 161.24 217.86L156.69 220.1Z" fill="#E95513"/>
<path fill-rule="evenodd" clip-rule="evenodd" d="M92.6499 91.9101C91.1499 94.0501 95.1399 94.1101 93.6799 91.8701L92.6499 91.9101Z" fill="white"/>
<path fill-rule="evenodd" clip-rule="evenodd" d="M162.44 100.63C162.84 99.11 161.53 98.79 161.04 99.56C160.44 100.52 161.3 101.2 162.44 100.63Z" fill="white"/>
</svg>
