<svg width="96" height="83" viewBox="0 0 96 83" fill="none" xmlns="http://www.w3.org/2000/svg">
<path d="M20.99 30.7598C20.99 30.7598 27.08 24.3097 31.19 14.2397C32.62 20.9697 35.15 32.2798 35.15 32.2798C35.15 32.2798 21.93 37.3198 20.99 30.7598Z" fill="#F4A024"/>
<path d="M66.11 53.2196C66.11 53.2196 67.58 44.4696 73.14 35.1196C66.91 38.0396 56.36 42.8396 56.36 42.8396C56.36 42.8396 60.31 56.4296 66.11 53.2196Z" fill="#F4A024"/>
<path d="M6.01172 41.2349L66.772 71.4759L64.2991 76.4445C62.7218 79.6137 58.8737 80.9042 55.7045 79.3269L6.43013 54.8026C3.26096 53.2252 1.97043 49.3771 3.54776 46.2079L6.02068 41.2393L6.01172 41.2349Z" fill="#F4A024"/>
<path d="M61.3 6.31958C42.07 28.8896 24.36 30.8696 24.36 30.8696C24.36 30.8696 14.08 20.3996 10.33 9.21957C11.44 21.3896 6.03003 41.1996 6.03003 41.1996L36.42 56.3196C36.42 56.3196 47.51 34.0396 61.31 6.30957L61.3 6.31958Z" fill="#F6B245"/>
<path d="M63.99 50.5993C63.99 50.5993 54.89 35.2693 61.3 6.31934C48.21 32.6193 36.41 56.3293 36.41 56.3293L66.8 71.4493C66.8 71.4493 79.34 55.1893 89.72 48.7393C78.54 52.4893 63.99 50.5993 63.99 50.5993Z" fill="#F6C346"/>
<path d="M62.05 9.31982C64.5353 9.31982 66.55 7.30511 66.55 4.81982C66.55 2.33454 64.5353 0.319824 62.05 0.319824C59.5647 0.319824 57.55 2.33454 57.55 4.81982C57.55 7.30511 59.5647 9.31982 62.05 9.31982Z" fill="#FA6348"/>
<path d="M10.93 10.4597C13.0839 10.4597 14.83 8.71357 14.83 6.55966C14.83 4.40575 13.0839 2.65967 10.93 2.65967C8.77608 2.65967 7.03003 4.40575 7.03003 6.55966C7.03003 8.71357 8.77608 10.4597 10.93 10.4597Z" fill="#FA6348"/>
<path d="M91.48 50.5495C93.6339 50.5495 95.38 48.8034 95.38 46.6495C95.38 44.4956 93.6339 42.7495 91.48 42.7495C89.3261 42.7495 87.58 44.4956 87.58 46.6495C87.58 48.8034 89.3261 50.5495 91.48 50.5495Z" fill="#FA6348"/>
<path d="M74.46 38.08C76.1279 38.08 77.48 36.7279 77.48 35.06C77.48 33.3921 76.1279 32.04 74.46 32.04C72.7921 32.04 71.44 33.3921 71.44 35.06C71.44 36.7279 72.7921 38.08 74.46 38.08Z" fill="#F53D21"/>
<path d="M30.45 16.1699C32.1179 16.1699 33.47 14.8178 33.47 13.1499C33.47 11.482 32.1179 10.1299 30.45 10.1299C28.7821 10.1299 27.43 11.482 27.43 13.1499C27.43 14.8178 28.7821 16.1699 30.45 16.1699Z" fill="#F53D21"/>
<path d="M47.07 34.9199L40.56 36.8599L36.44 45.1399L38.82 51.4999L47.07 34.9199Z" fill="#F33F1E"/>
<path d="M45.32 49.5699L49.45 41.2799L47.07 34.9199L38.82 51.4999L45.32 49.5699Z" fill="#FA6348"/>
<path d="M9.96509 46.2625L7.98663 45.2778L5.09486 51.088L7.07331 52.0727L9.96509 46.2625Z" fill="#E7812A"/>
<path d="M15.7877 49.1532L13.8093 48.1685L10.9175 53.9786L12.896 54.9633L15.7877 49.1532Z" fill="#E7812A"/>
<path d="M21.6059 52.0526L19.6274 51.0679L16.7357 56.878L18.7141 57.8627L21.6059 52.0526Z" fill="#E7812A"/>
<path d="M27.4241 54.952L25.4456 53.9673L22.5538 59.7774L24.5323 60.7621L27.4241 54.952Z" fill="#E7812A"/>
<path d="M33.2422 57.8514L31.2637 56.8667L28.372 62.6769L30.3505 63.6616L33.2422 57.8514Z" fill="#E7812A"/>
<path d="M39.0649 60.7421L37.0864 59.7573L34.1946 65.5675L36.1731 66.5522L39.0649 60.7421Z" fill="#E7812A"/>
<path d="M44.892 63.6459L42.9135 62.6611L40.0217 68.4713L42.0003 69.456L44.892 63.6459Z" fill="#E7812A"/>
<path d="M50.7101 66.5452L48.7317 65.5605L45.8399 71.3707L47.8184 72.3554L50.7101 66.5452Z" fill="#E7812A"/>
<path d="M56.5327 69.4359L54.5543 68.4512L51.6625 74.2613L53.641 75.246L56.5327 69.4359Z" fill="#E7812A"/>
<path d="M62.351 72.3353L60.3725 71.3506L57.4807 77.1607L59.4592 78.1454L62.351 72.3353Z" fill="#E7812A"/>
</svg>
