<svg width="96" height="83" viewBox="0 0 96 83" fill="none" xmlns="http://www.w3.org/2000/svg">
<path d="M20.9902 30.7598C20.9902 30.7598 27.0802 24.3097 31.1902 14.2397C32.6202 20.9697 35.1503 32.2798 35.1503 32.2798C35.1503 32.2798 21.9302 37.3198 20.9902 30.7598Z" fill="#9E9E9F"/>
<path d="M66.1104 53.2196C66.1104 53.2196 67.5804 44.4696 73.1404 35.1196C66.9104 38.0396 56.3604 42.8396 56.3604 42.8396C56.3604 42.8396 60.3104 56.4296 66.1104 53.2196Z" fill="#9E9E9F"/>
<path d="M6.01196 41.2349L66.7723 71.4759L64.2994 76.4445C62.722 79.6137 58.8739 80.9042 55.7047 79.3269L6.43038 54.8026C3.26121 53.2252 1.97067 49.3771 3.548 46.2079L6.02092 41.2393L6.01196 41.2349Z" fill="#B4B4B5"/>
<path d="M61.3002 6.31958C42.0702 28.8896 24.3602 30.8696 24.3602 30.8696C24.3602 30.8696 14.0803 20.3996 10.3303 9.21957C11.4403 21.3896 6.03027 41.1996 6.03027 41.1996L36.4202 56.3196C36.4202 56.3196 47.5102 34.0396 61.3102 6.30957L61.3002 6.31958Z" fill="#C8C9CA"/>
<path d="M63.9902 50.5993C63.9902 50.5993 54.8902 35.2693 61.3002 6.31934L36.4102 56.3293L66.8002 71.4493C66.8002 71.4493 79.3402 55.1893 89.7202 48.7393C78.5402 52.4893 63.9902 50.5993 63.9902 50.5993Z" fill="#EEEEEF"/>
<path d="M62.0503 9.31982C64.5356 9.31982 66.5503 7.30511 66.5503 4.81982C66.5503 2.33454 64.5356 0.319824 62.0503 0.319824C59.565 0.319824 57.5503 2.33454 57.5503 4.81982C57.5503 7.30511 59.565 9.31982 62.0503 9.31982Z" fill="#00A199"/>
<path d="M10.9302 10.4597C13.0841 10.4597 14.8303 8.71357 14.8303 6.55966C14.8303 4.40575 13.0841 2.65967 10.9302 2.65967C8.77633 2.65967 7.03027 4.40575 7.03027 6.55966C7.03027 8.71357 8.77633 10.4597 10.9302 10.4597Z" fill="#00A199"/>
<path d="M91.4803 50.5495C93.6342 50.5495 95.3803 48.8034 95.3803 46.6495C95.3803 44.4956 93.6342 42.7495 91.4803 42.7495C89.3264 42.7495 87.5803 44.4956 87.5803 46.6495C87.5803 48.8034 89.3264 50.5495 91.4803 50.5495Z" fill="#00A199"/>
<path d="M74.4602 38.08C76.1281 38.08 77.4802 36.7279 77.4802 35.06C77.4802 33.3921 76.1281 32.04 74.4602 32.04C72.7923 32.04 71.4402 33.3921 71.4402 35.06C71.4402 36.7279 72.7923 38.08 74.4602 38.08Z" fill="#00918E"/>
<path d="M30.4502 16.1699C32.1181 16.1699 33.4702 14.8178 33.4702 13.1499C33.4702 11.482 32.1181 10.1299 30.4502 10.1299C28.7823 10.1299 27.4302 11.482 27.4302 13.1499C27.4302 14.8178 28.7823 16.1699 30.4502 16.1699Z" fill="#00918E"/>
<path d="M47.0702 34.9199L40.5602 36.8599L36.4402 45.1399L38.8202 51.4999L47.0702 34.9199Z" fill="#00918E"/>
<path d="M45.3203 49.5699L49.4503 41.2799L47.0703 34.9199L38.8203 51.4999L45.3203 49.5699Z" fill="#00A199"/>
<path d="M9.96527 46.2625L7.98682 45.2778L5.09504 51.088L7.0735 52.0727L9.96527 46.2625Z" fill="#888888"/>
<path d="M15.7878 49.1532L13.8093 48.1685L10.9176 53.9786L12.896 54.9633L15.7878 49.1532Z" fill="#888888"/>
<path d="M21.6059 52.0526L19.6274 51.0679L16.7357 56.878L18.7141 57.8627L21.6059 52.0526Z" fill="#888888"/>
<path d="M27.4241 54.952L25.4456 53.9673L22.5538 59.7774L24.5323 60.7621L27.4241 54.952Z" fill="#888888"/>
<path d="M33.2424 57.8514L31.2639 56.8667L28.3721 62.6769L30.3507 63.6616L33.2424 57.8514Z" fill="#888888"/>
<path d="M39.0649 60.7421L37.0864 59.7573L34.1947 65.5675L36.1732 66.5522L39.0649 60.7421Z" fill="#888888"/>
<path d="M44.8921 63.6459L42.9136 62.6611L40.0218 68.4713L42.0003 69.456L44.8921 63.6459Z" fill="#888888"/>
<path d="M50.7101 66.5452L48.7317 65.5605L45.8399 71.3707L47.8184 72.3554L50.7101 66.5452Z" fill="#888888"/>
<path d="M56.5329 69.4359L54.5544 68.4512L51.6627 74.2613L53.6411 75.246L56.5329 69.4359Z" fill="#888888"/>
<path d="M62.351 72.3353L60.3726 71.3506L57.4808 77.1607L59.4593 78.1454L62.351 72.3353Z" fill="#888888"/>
</svg>
