<svg width="23" height="24" viewBox="0 0 23 24" fill="none" xmlns="http://www.w3.org/2000/svg">
<path d="M15.7298 6.32968L15.5899 6.21963C15.5099 6.18963 15.4499 6.13968 15.3999 6.07968C15.3399 6.07968 15.3099 6.02966 15.2599 5.99966C15.2199 5.97966 15.1899 5.94965 15.1499 5.92965C15.1199 5.89965 15.0698 5.88965 15.0398 5.85965C15.0398 5.85965 14.9499 5.83965 14.9199 5.79965C14.8699 5.77965 14.8299 5.75963 14.7899 5.71963C14.7299 5.73963 14.7098 5.65963 14.6498 5.65963C14.6198 5.64963 14.5898 5.62966 14.5598 5.61966C14.3898 5.56966 14.2299 5.49964 14.0699 5.41964C14.0499 5.41964 14.0299 5.39968 14.0099 5.38968C13.8899 5.35968 13.7699 5.35969 13.6699 5.27969C13.6699 5.27969 13.6598 5.27969 13.6498 5.27969C13.5498 5.29969 13.4699 5.21968 13.3799 5.20968C13.3299 5.20968 13.2698 5.20964 13.2198 5.16964H13.2098C13.0598 5.18964 12.9198 5.12964 12.7798 5.09964C12.6698 5.09964 12.5698 5.05968 12.4598 5.07968C12.4398 5.07968 12.4198 5.07966 12.3998 5.05966C12.3898 5.05966 12.3698 5.05966 12.3598 5.05966C12.2998 5.03966 12.2398 5.05966 12.1898 5.05966C11.9498 5.05966 11.6998 5.08965 11.4598 5.04965C11.4298 5.04965 11.3898 5.04965 11.3598 5.04965C11.3498 5.04965 11.3399 5.04965 11.3199 5.04965C11.2599 5.09965 11.1798 5.02967 11.1098 5.06967C11.0998 5.06967 11.0799 5.06967 11.0699 5.06967C11.0199 5.09967 10.9599 5.06969 10.9099 5.08969C10.7799 5.09969 10.6598 5.16963 10.5298 5.15963C10.4898 5.15963 10.4499 5.15965 10.4199 5.17965C10.3099 5.19965 10.1998 5.26967 10.0798 5.25967C10.0298 5.27967 9.97984 5.28966 9.92984 5.30966C9.84984 5.32966 9.78986 5.37967 9.69986 5.37967C9.64986 5.43967 9.57986 5.43963 9.50986 5.46963C9.36986 5.52963 9.22984 5.59967 9.08984 5.62967C9.05984 5.63967 9.02986 5.65964 9.00986 5.66964C8.97986 5.71964 8.91984 5.71965 8.86984 5.73965C8.80984 5.76965 8.75986 5.79968 8.69986 5.82968C8.65986 5.87968 8.58986 5.87964 8.53986 5.91964C8.51986 5.92964 8.49986 5.93968 8.47986 5.95968C8.36986 6.06968 8.23985 6.14968 8.09985 6.20968C7.96985 6.34968 7.79985 6.43967 7.65985 6.56967C7.53985 6.67967 7.38986 6.75968 7.28986 6.88968C7.26986 6.91968 7.22986 6.93967 7.19986 6.94967C7.12986 6.99967 7.07984 7.05966 7.01984 7.11966C6.97984 7.20966 6.91983 7.27967 6.82983 7.31967C6.81983 7.32967 6.80986 7.34965 6.78986 7.35965C6.78986 7.41965 6.72985 7.43964 6.68985 7.47964C6.68985 7.47964 6.68984 7.48966 6.67984 7.49966C6.67984 7.55966 6.61983 7.57966 6.57983 7.61966C6.56983 7.62966 6.55984 7.64963 6.54984 7.65963C6.41984 7.87963 6.27984 8.08964 6.11984 8.28964C6.09984 8.30964 6.07983 8.31965 6.07983 8.35965C6.02983 8.48965 5.96985 8.61963 5.87985 8.71963C5.87985 8.71963 5.86984 8.82964 5.80984 8.84964C5.78984 8.84964 5.78986 8.87968 5.78986 8.88968C5.78986 8.98968 5.70984 9.05968 5.67984 9.13968C5.65984 9.18968 5.66983 9.25965 5.60983 9.29965C5.60983 9.29965 5.58984 9.37963 5.55984 9.40963C5.53984 9.41963 5.53984 9.43968 5.54984 9.45968C5.54984 9.55968 5.50986 9.65965 5.44986 9.73965C5.38986 9.74965 5.34984 9.70964 5.29984 9.66964C4.67984 9.18964 4.06986 8.71965 3.44986 8.23965C2.86986 7.78965 2.28984 7.33968 1.70984 6.88968C1.66984 6.85968 1.60985 6.82968 1.59985 6.76968C1.89985 6.14968 2.25984 5.57969 2.67984 5.02969C3.77984 3.56969 5.13984 2.43967 6.76984 1.62967C7.87984 1.07967 9.05986 0.719649 10.2899 0.549649C11.3199 0.409649 12.3398 0.409639 13.3598 0.539639C14.8598 0.729639 16.2599 1.18968 17.5699 1.95968C17.9199 2.16968 18.2599 2.38968 18.5799 2.63968C18.5999 2.64968 18.6199 2.65964 18.6399 2.66964C18.6799 2.68964 18.7098 2.70965 18.7298 2.73965C18.7498 2.76965 18.7698 2.79965 18.8098 2.79965C18.8498 2.79965 18.8699 2.83966 18.8799 2.86966C18.8799 2.88966 18.8998 2.88968 18.9198 2.88968C18.9598 2.88968 18.9798 2.92968 18.9898 2.95968C19.0798 3.02968 19.1699 3.10965 19.2599 3.17965C19.3099 3.19965 19.3398 3.23969 19.3698 3.27969C19.3998 3.30969 19.4299 3.32965 19.4599 3.35965C19.4899 3.37965 19.5398 3.39967 19.5398 3.44967C19.5198 3.48967 19.4899 3.50964 19.4599 3.53964C18.4299 4.56964 17.3898 5.60968 16.3598 6.63968C16.3198 6.67968 16.2798 6.77966 16.1898 6.68966C16.0998 6.65966 16.0498 6.56967 15.9798 6.50967C15.9598 6.49967 15.9498 6.47963 15.9298 6.46963C15.8998 6.43963 15.8698 6.42969 15.8498 6.39969C15.7898 6.39969 15.7798 6.33967 15.7298 6.31967V6.32968Z" fill="#E94335"/>
<path d="M9.30981 23.1597C9.30981 23.1597 9.22983 23.1698 9.19983 23.1398C9.09983 23.1398 9.01981 23.0998 8.92981 23.0698C8.89981 23.0698 8.86982 23.0698 8.84982 23.0498C8.72982 23.0598 8.63982 22.9998 8.52982 22.9598C8.45982 22.9398 8.37981 22.9198 8.30981 22.8898C8.15981 22.8398 7.9998 22.8197 7.8598 22.7297C7.8598 22.7297 7.76982 22.7298 7.74982 22.6898C7.67982 22.6898 7.62982 22.6498 7.56982 22.6198C7.52982 22.6198 7.49982 22.5998 7.46982 22.5698C7.39982 22.5698 7.3598 22.5298 7.2998 22.4998C7.2698 22.4898 7.23981 22.4698 7.20981 22.4598C7.15981 22.4498 7.09981 22.4398 7.05981 22.3898C7.03981 22.3898 7.02983 22.3798 7.00983 22.3698C6.91983 22.3698 6.85981 22.2798 6.76981 22.2598C6.76981 22.2598 6.74981 22.2498 6.73981 22.2398C6.54981 22.1498 6.34982 22.0898 6.18982 21.9398C6.04982 21.8898 5.91981 21.8198 5.80981 21.7098C5.74981 21.6798 5.67982 21.6597 5.62982 21.5997C5.62982 21.5997 5.60982 21.5898 5.59982 21.5798C5.50982 21.5498 5.4198 21.4997 5.3598 21.4197C5.2698 21.3897 5.19982 21.3298 5.12982 21.2698C5.12982 21.2698 5.10982 21.2598 5.09982 21.2498C5.04982 21.2298 5.00982 21.1998 4.96982 21.1498C4.87982 21.1298 4.82983 21.0598 4.75983 20.9998C4.75983 20.9998 4.73983 20.9797 4.72983 20.9797C4.69983 20.9597 4.67983 20.9297 4.63983 20.9097C4.52983 20.8197 4.42982 20.7298 4.31982 20.6398C4.28982 20.6198 4.25983 20.5898 4.22983 20.5698C4.20983 20.5598 4.19981 20.5398 4.17981 20.5298C4.08981 20.4898 4.05983 20.3997 3.97983 20.3497C3.80983 20.1797 3.63982 20.0098 3.46982 19.8398C3.35982 19.7198 3.21982 19.6098 3.12982 19.4598C3.03982 19.3498 2.9498 19.2498 2.8598 19.1398C2.8398 19.1098 2.81983 19.0798 2.78983 19.0498C2.78983 19.0498 2.77981 19.0298 2.76981 19.0298C2.71981 18.9698 2.64982 18.9297 2.62982 18.8497C2.58982 18.7897 2.53982 18.7297 2.49982 18.6697C2.46982 18.6297 2.42982 18.5897 2.40982 18.5397C2.36982 18.4897 2.3298 18.4298 2.2998 18.3798C2.1898 18.2398 2.07983 18.0998 2.00983 17.9298C1.98983 17.8898 1.96982 17.8498 1.93982 17.8198C1.89982 17.7698 1.85982 17.7297 1.84982 17.6697C1.84982 17.6497 1.8298 17.6398 1.8298 17.6198C1.7798 17.5698 1.73981 17.4998 1.70981 17.4298C1.69981 17.3998 1.67982 17.3698 1.65982 17.3398C1.65982 17.3298 1.63982 17.3198 1.65982 17.2998C1.62982 17.2298 1.57981 17.1697 1.55981 17.0997C1.61981 16.9897 1.7398 16.9297 1.8298 16.8597C2.9598 15.9797 4.08983 15.0997 5.22983 14.2297C5.27983 14.1897 5.32982 14.1298 5.40982 14.1398C5.48982 14.2198 5.49983 14.3197 5.50983 14.4197C5.50983 14.4397 5.50981 14.4497 5.51981 14.4697C5.56981 14.5397 5.60981 14.6098 5.61981 14.6998C5.61981 14.7198 5.61983 14.7298 5.63983 14.7398C5.67983 14.8198 5.73983 14.8898 5.75983 14.9898C5.87983 15.1598 5.9698 15.3398 6.0498 15.5298C6.0498 15.5598 6.06981 15.5798 6.08981 15.5898C6.22981 15.7598 6.34981 15.9398 6.45981 16.1298C6.45981 16.1298 6.5398 16.1898 6.5498 16.2398C6.5498 16.2398 6.64982 16.2998 6.65982 16.3798C6.65982 16.3798 6.75981 16.4398 6.76981 16.5098C6.83981 16.5798 6.93982 16.6298 6.96982 16.7398V16.7598C7.07982 16.8498 7.16983 16.9398 7.25983 17.0298C7.35983 17.0698 7.41981 17.1497 7.48981 17.2297C7.54981 17.2497 7.59982 17.2798 7.62982 17.3398C7.62982 17.3398 7.63981 17.3497 7.64981 17.3597C7.71981 17.3897 7.7998 17.4198 7.8298 17.4998H7.84982C7.93982 17.5498 8.0198 17.5998 8.0798 17.6798C8.0798 17.6798 8.08982 17.6798 8.09982 17.6898C8.25982 17.7498 8.39982 17.8498 8.52982 17.9598C8.63982 17.9898 8.73982 18.0398 8.81982 18.1198C8.81982 18.1398 8.8398 18.1398 8.8598 18.1398C8.9098 18.1498 8.95983 18.1598 9.00983 18.1898C9.11983 18.2698 9.2498 18.2898 9.3598 18.3698C9.4398 18.3798 9.51981 18.4098 9.58981 18.4598C9.62981 18.4798 9.65983 18.4998 9.69983 18.4998C9.77983 18.5198 9.85983 18.4998 9.91983 18.5798C9.95983 18.5998 10.0098 18.6197 10.0598 18.6097C10.2098 18.6297 10.3698 18.6397 10.5098 18.7197C10.5198 18.7197 10.5398 18.7197 10.5498 18.7197C10.6998 18.7197 10.8298 18.7698 10.9798 18.7798C11.0198 18.7798 11.0598 18.7798 11.0998 18.7998C11.0998 18.7998 11.1098 18.7998 11.1198 18.7998C11.1598 18.8198 11.2198 18.7998 11.2598 18.8198C11.2898 18.8198 11.3098 18.8198 11.3398 18.8198C11.6898 18.7998 12.0398 18.7998 12.3898 18.8198C12.4098 18.8198 12.4298 18.8198 12.4498 18.8198C12.5098 18.7598 12.5898 18.8398 12.6498 18.7998C12.7298 18.7498 12.8198 18.8198 12.8998 18.7798C13.0498 18.7798 13.1798 18.6998 13.3298 18.7098C13.3998 18.7098 13.4698 18.6997 13.5298 18.6697C13.6298 18.6697 13.7198 18.5797 13.8298 18.6097C13.8798 18.6097 13.9398 18.5898 13.9798 18.5598C14.0598 18.5598 14.1198 18.4698 14.2098 18.4998C14.2098 18.4998 14.2198 18.4998 14.2298 18.4998C14.2798 18.4398 14.3598 18.4397 14.4298 18.4097C14.5698 18.3597 14.7098 18.2998 14.8598 18.2498C14.9198 18.1798 15.0098 18.1598 15.0898 18.1398C15.1998 18.0698 15.3098 18.0098 15.4298 17.9598C15.4598 17.9398 15.4798 17.9297 15.5098 17.9097C15.5798 17.8397 15.6598 17.7798 15.7598 17.7598C15.8798 17.7898 15.9598 17.8898 16.0498 17.9598C16.9098 18.6198 17.7598 19.2898 18.6098 19.9498C18.8598 20.1498 19.1198 20.3497 19.3698 20.5397C19.4098 20.5697 19.4498 20.5898 19.4698 20.6398C19.4198 20.7498 19.3298 20.8098 19.2298 20.8698C19.2298 20.8698 19.2198 20.8698 19.2098 20.8798C19.1898 20.9198 19.1498 20.9398 19.1198 20.9598C19.1098 20.9698 19.0898 20.9798 19.0798 20.9998C19.0498 21.0398 19.0198 21.0797 18.9698 21.0997C18.9698 21.0997 18.9598 21.0997 18.9498 21.1097C18.8898 21.1797 18.8298 21.2498 18.7398 21.2698C18.7198 21.2898 18.6998 21.2998 18.6798 21.3198C18.5898 21.4198 18.4698 21.4898 18.3598 21.5598C18.2298 21.6398 18.1098 21.7598 17.9498 21.7998C17.8798 21.8498 17.8098 21.8898 17.7398 21.9398C17.6298 22.0398 17.4998 22.0998 17.3598 22.1398C17.2698 22.1798 17.2098 22.2698 17.0998 22.2698C17.0898 22.2698 17.0798 22.2797 17.0598 22.2897C16.9698 22.3697 16.8698 22.3998 16.7598 22.4298C16.7398 22.4298 16.7198 22.4498 16.6998 22.4598C16.6198 22.5098 16.5498 22.5598 16.4498 22.5598L16.3398 22.6097C16.3398 22.6097 16.2598 22.6398 16.2198 22.6498C16.1698 22.6898 16.0998 22.6697 16.0498 22.7197C15.9698 22.7897 15.8698 22.7798 15.7798 22.8098C15.6998 22.8698 15.5998 22.8998 15.4998 22.8998C15.4698 22.8998 15.4398 22.8998 15.4198 22.9298C15.3298 22.9998 15.2098 23.0098 15.0998 23.0198C15.0498 23.0298 14.9898 23.0298 14.9498 23.0598C14.8698 23.1198 14.7698 23.1198 14.6698 23.1298C14.5898 23.1298 14.5198 23.1598 14.4498 23.1798C14.3398 23.2298 14.2198 23.2498 14.0998 23.2398C14.0898 23.2398 14.0798 23.2398 14.0598 23.2398C13.9798 23.2798 13.8898 23.2698 13.8098 23.2798C13.6398 23.3098 13.4598 23.3397 13.2898 23.3497H13.2098C13.2098 23.3497 13.1198 23.3498 13.0698 23.3698C13.0698 23.3698 13.0498 23.3898 13.0298 23.3898C12.4498 23.4298 11.8598 23.4397 11.2798 23.4197C11.0998 23.4197 10.9198 23.3798 10.7298 23.3898C10.7198 23.3898 10.6998 23.3798 10.6898 23.3698C10.6298 23.3398 10.5598 23.4097 10.5098 23.3497C10.3098 23.3497 10.1098 23.3098 9.90982 23.2798C9.71982 23.2398 9.5098 23.2598 9.3298 23.1498L9.30981 23.1597Z" fill="#34A753"/>
<path d="M19.4298 20.6497C18.1998 19.6897 16.9598 18.7297 15.7298 17.7697C15.7298 17.7497 15.7399 17.7396 15.7599 17.7396C15.7899 17.7196 15.8199 17.6896 15.8399 17.6696C15.9099 17.6096 15.9798 17.5496 16.0598 17.5096C16.0598 17.5096 16.0799 17.4896 16.0899 17.4896C16.2199 17.3896 16.3298 17.2496 16.4698 17.1596C16.4698 17.1596 16.4798 17.1496 16.4898 17.1396C16.5198 17.1196 16.5398 17.0996 16.5598 17.0696C16.5698 17.0596 16.5898 17.0397 16.5998 17.0297C16.6698 16.9297 16.7598 16.8396 16.8498 16.7596C16.9598 16.5996 17.0799 16.4396 17.1999 16.2896C17.2199 16.2696 17.2298 16.2396 17.2498 16.2196C17.2898 16.1596 17.2998 16.0896 17.3598 16.0396C17.3798 15.9396 17.4398 15.8696 17.4898 15.7896C17.5298 15.7096 17.5598 15.6396 17.5998 15.5596C17.6198 15.4796 17.6299 15.3997 17.6999 15.3397C17.7099 15.2597 17.7498 15.1896 17.7898 15.1096C17.7898 15.0896 17.7898 15.0596 17.8098 15.0396C17.8198 14.9096 17.8798 14.7996 17.9198 14.6796C17.9298 14.6496 17.9199 14.5996 17.9499 14.5696C17.9399 14.4996 17.9699 14.4196 17.9499 14.3496C17.9499 14.3196 17.9199 14.3096 17.8899 14.3096C17.8599 14.3096 17.8198 14.3096 17.7898 14.3096C15.8498 14.3096 13.9098 14.3096 11.9698 14.3096C11.8765 14.3096 11.8298 14.263 11.8298 14.1696C11.8298 12.7696 11.8298 11.3696 11.8298 9.97961C11.8298 9.89295 11.8732 9.84961 11.9598 9.84961C15.4898 9.84961 19.0098 9.84961 22.5398 9.84961C22.6198 9.84961 22.6798 9.84965 22.6798 9.94965C22.6798 9.94965 22.6799 10.0397 22.6999 10.0897C22.6999 10.1497 22.6998 10.2096 22.7298 10.2596C22.7498 10.2996 22.7298 10.3396 22.7498 10.3796C22.7498 10.3796 22.7498 10.3897 22.7498 10.3997C22.7798 10.5097 22.7798 10.6296 22.7898 10.7396C22.8298 10.8096 22.7898 10.8896 22.8098 10.9696C22.8098 10.9996 22.8098 11.0296 22.8098 11.0496C22.8298 11.1096 22.8099 11.1696 22.8299 11.2296C22.8299 11.2496 22.8299 11.2696 22.8299 11.2896C22.8599 11.3996 22.8298 11.4996 22.8498 11.6096C22.8498 11.6196 22.8498 11.6397 22.8498 11.6497C22.8698 11.6797 22.8598 11.7096 22.8598 11.7496C22.8598 12.0596 22.8598 12.3696 22.8598 12.6796C22.8598 12.7096 22.8598 12.7497 22.8498 12.7797C22.8498 12.7897 22.8498 12.8096 22.8498 12.8196C22.8198 12.9296 22.8499 13.0296 22.8299 13.1396C22.8299 13.1696 22.8299 13.1996 22.8299 13.2196C22.8099 13.2696 22.8298 13.3296 22.8098 13.3796C22.8098 13.4096 22.8098 13.4396 22.8098 13.4696C22.7898 13.6696 22.7798 13.8596 22.7398 14.0596C22.7398 14.0596 22.7398 14.0597 22.7398 14.0797C22.7198 14.1197 22.7398 14.1796 22.7198 14.2196C22.6798 14.2696 22.6999 14.3196 22.6999 14.3696C22.6699 14.4096 22.6998 14.4696 22.6798 14.5096C22.6798 14.5096 22.6798 14.5996 22.6598 14.6396C22.6598 14.6396 22.6599 14.7196 22.6399 14.7496C22.6099 14.8196 22.5998 14.8896 22.5998 14.9696C22.5698 15.0096 22.5999 15.0497 22.5799 15.0897C22.5599 15.1497 22.5699 15.2097 22.5299 15.2697C22.5099 15.3597 22.4898 15.4496 22.4698 15.5396C22.4498 15.5996 22.4598 15.6696 22.4198 15.7196C22.3998 15.7896 22.3698 15.8596 22.3598 15.9396C22.3398 15.9896 22.3498 16.0496 22.3098 16.0996C22.2198 16.3696 22.1199 16.6396 22.0299 16.9096C22.0099 16.9496 22.0098 16.9897 21.9798 17.0197C21.9598 17.0697 21.9398 17.1196 21.9198 17.1796C21.8998 17.2096 21.8998 17.2596 21.8698 17.2896C21.6998 17.6496 21.5199 17.9996 21.3199 18.3496C21.3199 18.3596 21.3199 18.3796 21.3199 18.3896C21.1499 18.7096 20.9599 19.0196 20.7099 19.2896L20.6898 19.3096C20.6498 19.4196 20.5698 19.5097 20.4798 19.5797C20.4798 19.5797 20.4798 19.5896 20.4698 19.5996C20.4698 19.6196 20.4598 19.6496 20.4398 19.6696C20.3198 19.7896 20.2299 19.9496 20.0799 20.0496C20.0599 20.0696 20.0399 20.0896 20.0199 20.1196C19.9999 20.1596 19.9698 20.1897 19.9298 20.2097C19.9298 20.2097 19.9198 20.2196 19.9098 20.2296C19.8898 20.2696 19.8599 20.2996 19.8199 20.3196C19.8099 20.3196 19.7998 20.3197 19.7998 20.3397C19.7798 20.3797 19.7499 20.4096 19.7099 20.4296C19.7099 20.4296 19.6998 20.4396 19.6898 20.4496C19.6698 20.4896 19.6398 20.5196 19.5998 20.5396C19.5998 20.5396 19.5899 20.5496 19.5799 20.5596C19.5499 20.5996 19.5298 20.6497 19.4698 20.6497H19.4298Z" fill="#4284F3"/>
<path d="M5.40988 14.1398C4.94988 14.4898 4.48988 14.8498 4.02988 15.1998C3.20988 15.8398 2.38989 16.4698 1.56989 17.1098C1.51989 17.0098 1.46989 16.9198 1.41989 16.8198C1.39989 16.7698 1.37988 16.7198 1.34988 16.6698C1.28988 16.5298 1.20989 16.3898 1.16989 16.2398C1.14989 16.2098 1.14988 16.1698 1.12988 16.1298C1.10988 16.0698 1.07988 16.0098 1.05988 15.9498C1.03988 15.9098 1.03987 15.8698 1.01987 15.8398C0.999867 15.7698 0.97989 15.7098 0.94989 15.6398C0.91989 15.5998 0.919872 15.5498 0.899872 15.5098C0.869872 15.4098 0.839875 15.3098 0.809875 15.2198C0.789875 15.1698 0.779867 15.1098 0.769867 15.0598C0.689867 14.8598 0.659863 14.6498 0.609863 14.4398C0.589863 14.3698 0.579875 14.2898 0.559875 14.2098C0.559875 14.2098 0.559886 14.1298 0.539886 14.0898C0.539886 14.0498 0.519867 13.9998 0.519867 13.9598C0.489867 13.9198 0.519878 13.8798 0.499878 13.8398C0.499878 13.8398 0.499878 13.8298 0.499878 13.8198C0.479878 13.7298 0.469869 13.6398 0.459869 13.5498C0.419869 13.4898 0.45988 13.4298 0.43988 13.3698C0.43988 13.3498 0.43988 13.3298 0.43988 13.3098C0.41988 13.2698 0.439891 13.2298 0.419891 13.1898C0.419891 13.1698 0.419891 13.1498 0.419891 13.1298C0.399891 13.0698 0.419872 12.9998 0.399872 12.9398C0.399872 12.9398 0.399872 12.9398 0.399872 12.9298C0.379872 12.7998 0.369873 12.6698 0.369873 12.5298C0.369873 12.1398 0.369873 11.7598 0.369873 11.3698C0.369873 11.2398 0.389872 11.1098 0.399872 10.9698C0.399872 10.9698 0.399872 10.9598 0.399872 10.9498C0.429872 10.8898 0.399891 10.8198 0.419891 10.7598C0.419891 10.7498 0.419891 10.7298 0.419891 10.7198C0.439891 10.6798 0.41988 10.6298 0.43988 10.5798C0.43988 10.5698 0.43988 10.5498 0.43988 10.5398C0.45988 10.4298 0.459868 10.3098 0.489868 10.1998C0.489868 10.1998 0.489888 10.1098 0.509888 10.0698C0.509888 10.0698 0.509877 9.98984 0.529877 9.95984C0.539877 9.91984 0.519866 9.86983 0.549866 9.82983C0.579866 9.78983 0.539865 9.72982 0.579865 9.68982C0.589865 9.61982 0.599873 9.54981 0.619873 9.48981C0.639873 9.33981 0.689889 9.19981 0.729889 9.05981C0.939889 8.27981 1.21987 7.5198 1.58987 6.7998C2.07987 7.1798 2.56988 7.55982 3.05988 7.93982C3.81988 8.52982 4.57986 9.10983 5.32986 9.69983C5.35986 9.71983 5.38989 9.73983 5.41989 9.75983C5.42989 9.76983 5.42989 9.7898 5.41989 9.7998C5.41989 9.7998 5.41989 9.80982 5.41989 9.81982C5.41989 9.94982 5.36988 10.0698 5.30988 10.1798C5.30988 10.1798 5.30988 10.1898 5.30988 10.1998C5.32988 10.2998 5.26988 10.3798 5.24988 10.4698C5.24988 10.5298 5.22987 10.5898 5.20987 10.6498C5.20987 10.6498 5.20987 10.6598 5.20987 10.6698C5.21987 10.8198 5.14989 10.9498 5.13989 11.0998C5.10989 11.1598 5.14987 11.2398 5.11987 11.2998C5.08987 11.3598 5.11988 11.4398 5.09988 11.4998C5.09988 11.5298 5.09988 11.5498 5.09988 11.5798C5.07988 11.8198 5.07988 12.0698 5.09988 12.3098V12.3898C5.12988 12.4598 5.09987 12.5298 5.11987 12.5998C5.11987 12.6098 5.11987 12.6298 5.11987 12.6398C5.14987 12.6898 5.11989 12.7498 5.13989 12.7998C5.15989 12.9398 5.21987 13.0798 5.20987 13.2298C5.20987 13.2298 5.20987 13.2398 5.20987 13.2498C5.27987 13.4998 5.33989 13.7498 5.41989 13.9898C5.42989 14.0198 5.41989 14.0598 5.41989 14.0898V14.0998C5.42989 14.1098 5.42989 14.1298 5.41989 14.1398H5.40988Z" fill="#FABB05"/>
</svg>
