<svg width="24" height="24" viewBox="0 0 24 24" fill="none" xmlns="http://www.w3.org/2000/svg">
<path d="M19.7499 0.599609H3.81995C1.80411 0.599609 0.169922 2.23379 0.169922 4.24963V20.1796C0.169922 22.1955 1.80411 23.8297 3.81995 23.8297H19.7499C21.7658 23.8297 23.4 22.1955 23.4 20.1796V4.24963C23.4 2.23379 21.7658 0.599609 19.7499 0.599609Z" fill="#3D5A98"/>
<path d="M12.4399 14.8694C12.3499 14.8694 12.2799 14.8694 12.2099 14.8694C11.3399 14.8694 10.4799 14.8694 9.60986 14.8694C9.39986 14.8694 9.3999 14.8693 9.3999 14.6593C9.3999 13.6193 9.3999 12.5794 9.3999 11.5294C9.3999 11.3294 9.39986 11.3294 9.60986 11.3294C10.4799 11.3294 11.3498 11.3294 12.2198 11.3294C12.2798 11.3294 12.3399 11.3294 12.4299 11.3294C12.4299 11.2494 12.4299 11.1894 12.4299 11.1294C12.4299 10.2694 12.4299 9.40935 12.4299 8.54935C12.4399 7.77935 12.5899 7.02939 12.9499 6.33939C13.5599 5.13939 14.5599 4.47934 15.8599 4.22934C16.5699 4.08934 17.2899 4.11934 18.0099 4.15934C18.4099 4.17934 18.8099 4.20934 19.2099 4.22934C19.3299 4.22934 19.4499 4.24938 19.5699 4.26938C19.6099 4.26938 19.6399 4.32936 19.6699 4.36936C19.6799 4.38936 19.6699 4.42939 19.6699 4.45939C19.6699 5.38939 19.6699 6.31935 19.6699 7.23935C19.6699 7.39935 19.6198 7.43937 19.4698 7.43937C18.8498 7.43937 18.2299 7.43937 17.6099 7.43937C17.4199 7.43937 17.2299 7.46938 17.0399 7.51938C16.4799 7.66938 16.1399 8.02934 16.1199 8.59934C16.0799 9.48934 16.0999 10.3893 16.0899 11.2893C16.0899 11.2893 16.0899 11.2894 16.1099 11.3294H19.5499C19.5199 11.6094 19.4899 11.8593 19.4599 12.1093C19.3599 12.8893 19.2499 13.6794 19.1599 14.4594C19.1099 14.8694 19.1199 14.8694 18.7099 14.8694C17.9099 14.8694 17.0999 14.8694 16.2999 14.8694C16.2399 14.8694 16.1799 14.8694 16.0999 14.8694C16.0999 14.9594 16.0999 15.0194 16.0999 15.0894C16.0999 17.9294 16.0999 23.8294 16.0999 23.8294H12.4499C12.4499 23.8294 12.4499 17.9294 12.4499 15.0894V14.8593L12.4399 14.8694Z" fill="white"/>
</svg>
