<svg width="278" height="79" viewBox="0 0 278 79" fill="none" xmlns="http://www.w3.org/2000/svg">
<path d="M41.5399 53.2397C41.6899 55.3797 42.6099 57.2097 44.2099 58.5697C50.9699 62.1797 62.2799 63.8297 62.2799 63.8297C65.4899 64.2897 68.52 62.0497 69.0099 58.8497L69.5799 55.1697C62.3399 55.0197 55.1499 53.3597 48.0899 50.1197C47.1299 49.5397 46.1099 49.2897 45.1199 49.3697C42.7399 49.8097 41.5099 51.0897 41.5399 53.2397ZM65.4899 36.6497C65.0099 33.8697 62.4999 32.5997 58.0299 32.7897C49.7899 33.6297 42.2999 34.4097 35.3799 35.1497C35.3199 34.2397 35.3199 33.2297 35.2399 32.2297C34.9699 28.1197 34.76 24.4697 34.67 21.2597C40.61 20.5897 47.4299 19.8697 55.2499 19.0597C58.0299 18.4997 59.4499 16.9097 59.4099 14.1597C58.9299 11.2897 56.5799 9.9897 52.2599 10.1797C45.7599 10.8797 39.7599 11.4597 34.1599 12.0797C33.9799 9.92971 33.9299 8.2897 33.8399 7.1997C33.2199 3.6797 31.4999 1.9897 28.6199 2.0597C25.6599 2.6397 24.0699 4.58971 23.8499 7.99971C23.9199 9.73971 24.07 11.4897 24.2 13.2197C13.68 14.5697 5.07993 16.1197 5.07993 16.1197C3.21993 16.4497 1.67995 17.6597 0.699951 19.2497V26.0697C5.52995 25.4897 10.5499 24.7697 15.7699 23.7897C18.2999 23.4097 21.3399 22.8997 24.7899 22.4597C25.0199 27.2497 25.2999 31.7997 25.6599 36.2497C13.9299 37.7097 3.76993 39.5497 3.76993 39.5497C2.61993 39.7597 1.56995 40.3097 0.699951 41.0697V49.6597C5.78995 49.0697 11.0199 48.2597 16.4299 47.2997C19.2299 46.8197 22.4999 46.2997 26.2699 45.7497C26.3899 47.0597 26.4099 48.3897 26.5299 49.6297C23.7699 50.5897 20.55 52.8597 16.7 56.4097C11.27 61.3297 4.75995 67.4897 4.75995 67.4897C2.41995 69.6897 2.28995 73.4597 4.47995 75.8497L6.58994 78.1597C13.9999 72.0797 20.9199 66.4297 27.2799 61.0297C27.6499 66.6397 27.9799 70.4897 27.9799 70.4897C28.24 73.7297 31.0999 76.1497 34.3299 75.8897L38.0999 75.5697C37.2499 64.8697 36.5599 54.5297 35.8999 44.5497C43.1499 43.6997 51.4499 42.8597 61.0099 41.9197C64.0499 41.4097 65.5499 39.6197 65.4799 36.6397" fill="#1C9ACD"/>
<path d="M104.48 39.7797C104.43 40.0697 106.18 38.2597 108.35 35.8197C108.35 35.8197 115.12 28.1197 120.24 23.2997C114.91 22.8097 110.13 22.3597 105.83 21.9797C105.47 26.5597 105.05 32.5597 104.48 39.7797ZM95.1 35.8097C95.56 30.4097 95.95 25.4797 96.28 21.1797C94.65 21.0697 93.11 20.9897 91.74 20.8497C91.67 21.2297 91.74 21.5597 91.7 21.8697C91.52 23.4497 90.59 25.0397 89.03 26.6297C87.53 28.3197 86.22 29.8497 84.99 31.3297C87.37 32.7097 90.67 35.2397 94.83 38.7497C94.96 37.7097 94.99 36.7597 95.09 35.8097M136.28 20.4897C135.8 23.0897 134.1 24.3497 131.31 24.3497C130.13 24.2297 129.16 24.4797 129.23 24.9197L129.25 25.3397C129 26.7297 128.2 28.0997 126.89 29.4897C124.86 31.5097 122.92 33.5397 121.07 35.5097C123.76 37.5697 127.43 40.5997 131.85 44.7897L130.22 47.1397C128.37 49.8197 124.84 50.2597 122.36 48.1097C122.36 48.1097 118.53 44.7697 115.09 41.8197C112.6 44.4497 110.09 47.1397 107.63 49.8997C105.58 47.7497 103.7 48.3397 103.39 51.2197L103.2 53.5197C107.14 54.1897 115.96 58.6797 129.65 67.0897L128.02 69.4297C126.14 72.1197 122.26 73.0397 119.39 71.4897C119.39 71.4897 108.82 65.8797 102.46 62.2597C101.81 69.3397 101.33 74.3398 100.99 77.4198L97.17 77.0098C93.9 76.6497 91.49 73.7097 91.82 70.4897C91.82 70.4897 92.58 62.8597 93.14 57.2297C85.91 61.8997 78.4 66.8398 70.6 72.1698L68.71 70.1997C66.44 67.8497 66.78 64.3197 69.4 62.3497C69.4 62.3497 81.58 53.4097 89.88 48.6097C91.27 47.8097 92.72 47.3297 94.11 47.3097C94.32 44.7697 94.5 42.3697 94.77 40.1597L93.91 41.3597C92.03 44.0097 88.39 44.5097 85.82 42.4797C85.82 42.4797 82.82 40.1297 79.84 37.6497C76.69 41.6197 74.18 45.0497 72.37 47.9797L69.92 45.7797C67.47 43.6397 67.03 39.6797 68.95 37.0397C68.95 37.0397 78.16 24.3997 81.73 20.2797C77.68 20.1697 73.69 19.8797 69.9 19.4697L70.16 16.9897C70.54 13.7797 73.52 11.2597 76.83 11.4197C76.83 11.4197 86.02 11.8597 96.91 12.7197C96.98 11.2897 97.12 10.0897 97.24 8.98974C97.58 6.13974 99.27 4.80973 102.5 5.14973C105.64 5.56973 107.06 7.48973 106.66 10.9797C106.59 11.4697 106.52 12.2497 106.43 13.5197C113.64 14.1597 121.58 14.8597 130.33 15.7197C134.35 16.3397 136.28 17.9097 136.26 20.4697" fill="#1C9ACD"/>
<path d="M171.76 8.07986C171.96 10.2599 170.84 11.7699 168.51 12.6899C161.63 14.3999 154.87 16.2099 148.24 18.0699C148.28 18.3699 148.39 18.6099 148.39 18.7499C148.43 19.0599 148.26 19.8699 147.97 21.1999C147.27 23.7799 146.79 26.0099 146.43 27.9099C150.94 27.6499 154.91 27.5899 158.35 27.5899C160.86 27.9799 162.22 29.1799 162.59 31.1899C162.73 33.6699 161.39 35.1399 158.45 35.5499C153.51 35.9999 149.14 36.2399 145.42 36.2799C145.86 41.0899 148.47 44.1199 153.27 45.3099C159.35 47.0899 165.83 47.6699 172.64 47.0399C180.22 46.3399 185.84 44.5799 189.62 41.5799C191.39 40.3199 192.39 37.8099 192.69 34.1999C189.81 34.3699 184.3 34.5699 176.04 34.8799L176 32.5399C175.95 29.2899 177.68 26.4699 179.85 26.3199L184.52 26.0299C188.04 25.8799 190.5 25.7999 192.06 25.6599C191.31 22.5299 189.92 20.3099 187.93 18.9299C186.2 18.2399 184.01 17.9699 181.21 18.2199C179.67 18.3599 177.51 18.7299 174.58 19.1499L174.45 16.5499C174.26 13.2799 176.63 10.2399 179.73 9.78986L182.3 9.53986C187.4 9.07986 191.63 10.1499 194.86 12.8399C198.32 15.7899 200.43 20.8299 201.1 27.9599C201.91 36.7799 200.31 43.0999 196.29 47.0499C194.28 48.8099 191.83 50.2899 188.98 51.4799C189.09 51.9399 189.22 52.3899 189.33 52.8599C189.39 53.2399 189.26 53.7299 189.09 54.2999C188.07 58.2899 187.66 60.7399 187.71 61.5199C187.91 63.3799 189.36 64.0999 192.16 63.8399C193.7 63.6899 197.97 62.5999 204.97 60.5499L205.19 62.7699C205.47 66.0199 203.18 69.4899 200.07 70.4899C200.07 70.4899 195.04 72.0799 191.48 72.4999C190.72 72.5699 187.72 72.3799 184.87 72.0798L182.55 70.4399C180.7 69.0399 179.65 67.0299 179.42 64.4599C179.19 62.1499 179.73 58.5699 180.94 53.8599C178.49 54.3899 175.88 54.7299 173.09 54.9999C167.81 55.4699 162.96 55.4599 158.73 54.8899C158.56 55.1499 158.5 55.3099 158.45 55.3999C156.98 58.2599 155.61 61.9799 154.17 66.6499C152.68 70.8499 151.75 74.2999 151.29 76.8298L149.12 76.4399C145.91 75.8599 144.04 72.8199 144.99 69.6999C144.99 69.6999 149.12 56.0199 150.56 53.0699C150.34 53.0999 150.1 53.0499 149.91 52.9199C142.59 50.3099 138.58 45.0499 137.87 37.1499C137.44 32.7399 138.19 27.1299 140.14 20.3799C139.47 20.5899 138.85 20.8199 138.25 20.9599L137.27 18.5699C136.03 15.5399 137.58 12.3399 140.75 11.4499C140.75 11.4499 162.19 5.46986 166.9 4.89986C169.94 4.74986 171.6 5.83986 171.8 8.08986" fill="#1C9ACD"/>
<path d="M144.63 70.6395L141.72 69.7695C141.72 69.7695 137.34 72.7495 140.05 75.2895C142.75 77.8295 147.97 79.3195 149.44 78.8895C150.89 78.4795 151.3 76.3595 151.3 76.3595L144.64 70.6395H144.63Z" fill="#1C9ACD"/>
<path d="M237.53 46.9397C232.9 46.4197 228.96 45.5796 225.76 44.3396C223.83 43.6596 222.42 42.5597 221.73 40.9996C226.49 41.7696 231.86 42.4496 237.79 43.1496C237.68 44.3796 237.64 45.6296 237.53 46.9296M238.36 37.1696C234.09 36.6096 229.44 36.1096 224.58 35.5596C229.02 34.4796 233.67 33.9196 238.59 33.8996C238.51 34.6196 238.45 35.4497 238.45 36.2697C238.42 36.5997 238.39 36.8497 238.37 37.1597M246.45 47.8297C246.49 46.5196 246.58 45.3897 246.69 44.2397C249.17 44.5597 251.74 44.7897 254.45 45.0497C256.52 45.0697 257.71 44.1896 257.95 42.3896C257.98 41.1596 257.25 40.2597 255.63 39.6297C253 39.2197 250.13 38.7797 247.07 38.3297C247.26 36.4397 247.29 35.1297 247.36 34.4697C253.96 35.2397 258.54 36.2597 261.11 37.3197C263.98 38.6697 265.32 40.3497 265.12 42.4897C264.94 44.3697 263.63 45.7996 261.29 46.7596C258.15 48.1196 253.2 48.4797 246.44 47.8297M214.09 64.4597C210.93 64.3597 208.11 66.8697 207.8 70.0197L207.68 71.3396C213.39 71.6996 219.37 71.9197 225.68 72.1897C235.84 72.4697 250.92 73.5496 270.86 75.2396C273.11 75.1996 274.36 74.1496 274.73 72.0596C274.79 69.8196 272.99 68.4796 269.53 68.0096C260.61 67.2596 252.41 66.5797 244.95 66.0497C244.93 65.2997 245.03 64.3196 245.12 63.1796C251.36 63.5996 258.47 64.1796 266.59 64.8396C268.81 64.8796 270.11 63.7797 270.46 61.6597C270.49 59.6797 268.85 58.4496 265.64 57.9796C258.36 57.3996 251.73 56.8497 245.69 56.4597L245.74 55.9697C245.78 55.3797 246.06 54.9096 246.31 54.9496C255.32 55.7896 262.6 54.7396 268.22 51.7796C271.79 50.0696 272.1 49.2896 272.1 49.2896C273.23 46.3196 274.22 43.0296 274.32 41.9296C274.67 38.4096 273.02 35.4496 269.42 33.0596C266.1 31.0796 262.58 29.5997 258.81 28.7397C255.03 28.1597 252.08 27.8197 252.08 27.8197C248.95 27.4797 244.77 27.0297 242.81 26.8497C235.36 26.3197 229.16 26.4097 224.19 27.1897C223.63 26.0497 222.51 25.3797 220.88 25.1397C218.7 25.0296 216.95 26.0297 215.64 28.1297C213.64 31.0897 213.38 32.2596 213.38 32.2596C212.71 35.3696 212.13 38.2996 212.06 38.7896C211.64 43.2096 214.05 46.8996 219.37 49.7896C223.68 51.7496 229.55 53.2096 236.89 54.0596C236.85 54.5596 236.78 55.1296 236.73 55.7796C226.52 55.1596 218.24 54.8797 218.24 54.8797C215.07 54.7597 212.23 57.2496 211.93 60.3996L211.85 61.3896C216.81 61.7796 221.96 61.9996 227.45 62.1796C229.95 62.2396 232.85 62.4197 236.1 62.5797C235.99 63.5597 235.91 64.4497 235.91 65.4397C224.3 64.7697 214.07 64.4597 214.07 64.4597M254.96 13.2796C254.45 14.4096 253.79 15.9897 253.03 17.8897C247.25 17.4396 241.94 17.0196 237.06 16.5596C236.45 15.1796 236.01 13.6497 235.84 11.9897C240.99 12.3097 247.35 12.7397 254.96 13.2697M277.23 11.6297C277.3 9.30966 275.51 8.00965 272.03 7.60965C264.33 6.96965 257.22 6.39964 250.77 5.78964C248.09 2.31964 245.92 0.459644 244.37 0.149644C241.48 0.0396444 239.86 1.30964 239.52 3.92964C239.5 4.22964 239.54 4.57966 239.66 4.98966C230.24 4.36966 222.78 4.04965 222.78 4.04965C219.6 3.92965 216.77 6.37965 216.47 9.51966L216.34 10.8297C219.73 11.1497 223.3 11.3097 227.04 11.4897C227 12.0597 227.12 13.4097 227.42 15.5697C227.4 15.6597 227.4 15.7297 227.45 15.8297C220.99 15.3797 216.9 15.1496 216.9 15.1496C213.72 14.9596 210.89 17.3796 210.59 20.5396L210.46 22.1796C216.4 22.7196 222.69 23.1596 229.26 23.5096C239.84 24.2596 255.57 25.5497 276.42 27.3497C276.88 27.3497 277.27 27.2997 277.66 27.2197V20.3497C277.02 20.1497 276.29 19.9997 275.45 19.8897C270.83 19.5396 266.43 19.1297 262.12 18.7397C262.56 17.6997 262.98 16.6696 263.5 15.7296C263.82 15.0896 264.03 14.5296 264.25 14.0396C267.04 14.3096 270.04 14.4997 273.35 14.7997C275.61 14.8697 276.88 13.7597 277.23 11.6097" fill="#1C9ACD"/>
</svg>
