<svg width="125" height="114" viewBox="0 0 125 114" fill="none" xmlns="http://www.w3.org/2000/svg">
<path fill-rule="evenodd" clip-rule="evenodd" d="M114.33 130.54L113.8 128.06C114.25 127.86 114.74 127.68 115.27 127.54C117.47 126.98 120.27 127.51 121.91 126.27C121.51 125.55 117.35 119.96 116.54 118.76C114.79 116.17 113.02 113.57 111.26 110.97C110.69 110.13 110.13 109.28 109.57 108.42L108.13 101.72L111.02 106.12C111.89 107.43 112.65 108.7 113.55 109.96L117.46 115.71C119.38 118.56 120.91 120.55 122.79 123.2C123.25 123.85 123.67 124.42 124.11 125.08C124.44 125.57 125.09 126.2 124.55 127.05C124.28 127.47 124.1 127.68 123.69 128.01C121.61 129.66 119.9 129.49 117.59 129.64C116.17 129.73 115.18 130.07 114.32 130.51L114.33 130.54ZM101.01 68.6699L99.2498 60.4799C99.6198 60.0199 100.21 59.4399 100.52 59.1399C101.09 58.5799 101.73 57.8399 102.26 57.3799L102.32 57.2799L102.46 57.1699L102.52 57.0699L102.66 56.9599L102.72 56.8599L102.78 56.7599L102.92 56.6499L102.98 56.5499L103.04 56.4499L103.18 56.3399L103.24 56.2399L103.3 56.1399C103.86 55.5799 104.03 55.1699 104.33 54.7499C104.47 54.5499 104.57 54.4399 104.7 54.2299C105 53.7799 105.66 52.6499 105.75 52.0199C106.15 51.6199 107.77 45.6799 104.15 44.1799C102.76 43.6099 100.82 44.3399 99.8298 45.3099C98.8898 46.2299 98.1698 47.4399 97.6898 48.6699C97.1098 50.1599 97.3198 49.7599 97.8298 50.5599C98.5798 51.7299 98.9898 53.8599 98.3798 55.0899C98.3298 55.1899 98.2498 55.3099 98.1398 55.4399L95.2198 41.8799C96.1298 42.5099 96.7398 43.5599 97.0598 44.7099C97.2698 44.5599 97.5898 44.1099 97.8098 43.8699C98.3498 43.2899 98.2098 43.6699 98.1698 42.7299C98.1198 41.4299 98.3298 39.1899 98.2898 37.4399L98.2098 35.3999C98.1798 34.6499 98.2398 34.8599 98.3498 34.7299C98.8198 35.0199 100.24 35.1899 100.7 35.5699C100.72 36.6499 100.79 37.7999 100.76 38.8299L100.66 41.9199L101.93 41.6499C103.2 41.4199 104.17 41.5099 105.29 41.9799C105.89 42.2299 106.5 42.6499 106.96 43.1099C109.75 45.8599 109.14 50.7399 107.68 53.8899C107.36 54.5799 107.11 55.0399 106.71 55.6699C106.49 56.0099 106.31 56.1799 106.1 56.5099L104.9 58.1399C104.42 58.7299 101.46 61.5299 101.36 61.8299C101.34 61.8799 101.51 68.8099 101.39 69.0399C101.28 68.9599 101.13 68.8199 100.98 68.6599L101.01 68.6699ZM88.2998 9.5699L87.5398 6.03991C88.2798 5.07991 89.1698 4.2399 90.3098 3.5699C92.7798 2.1199 95.3798 1.56991 97.9598 2.22991C99.5398 2.63991 101.11 3.40989 102.32 4.51989C104.78 6.77989 105.35 10.2199 105.11 13.4699C104.94 15.7899 103.88 17.7999 102.68 19.6599C102.05 20.6399 101.51 21.4199 100.6 22.2299C100.31 22.4899 100.18 22.5699 100.22 23.0199L100.54 26.1099C100.64 27.4599 100.55 28.7499 100.66 30.0999C100.76 31.3999 100.78 32.7699 100.74 33.9899C100.09 33.8699 98.9598 33.3399 98.3098 33.4099C98.1898 32.3799 98.2298 31.0299 98.1798 29.9399C98.0198 26.9699 98.2098 26.3399 97.7398 22.9499C97.5498 21.5599 97.8298 21.2899 98.9798 20.3599L99.0398 20.2599L99.1798 20.1499L99.2398 20.0499L99.2998 19.9499L99.3798 19.9299L99.4398 19.8299L99.4998 19.7299L99.6398 19.6199L99.6998 19.5199L99.7598 19.4199L99.8198 19.3199L99.9598 19.2099L100.02 19.1099L100.08 19.0099L100.14 18.9099C101.2 17.8099 102.45 15.0199 102.63 13.1699C102.9 10.4799 102.38 7.93989 100.54 6.26989C99.7998 5.59989 98.8698 5.09991 97.7998 4.75991C93.7998 3.48991 89.9498 5.97991 88.4498 9.16991C88.3798 9.30991 88.3298 9.42988 88.2698 9.54988L88.2998 9.5699ZM87.5398 6.03991L88.2998 9.5699C88.2498 9.6799 88.1998 9.78991 88.1398 9.91991C87.4998 11.4099 87.3398 13.4799 87.5698 15.1199C87.7498 16.4199 88.6798 17.9699 87.3598 18.5499C86.8198 18.7899 84.6198 18.2999 83.9398 18.1799C81.2798 17.7299 78.4998 17.4199 75.7198 17.1499L75.1798 14.6199C76.2798 14.7399 77.3698 14.8599 78.4498 14.9799C79.6198 15.1099 80.7398 15.1999 81.8998 15.3799C82.5198 15.4799 84.6498 15.8599 85.2298 15.8699C84.6898 13.3499 85.0498 10.7099 86.0398 8.55989C86.4698 7.63989 86.9498 6.7899 87.5298 6.0299L87.5398 6.03991ZM95.2498 41.8899L98.1698 55.4499C97.8098 55.8699 97.1798 56.3099 96.7298 55.7099C95.9698 54.7099 96.5698 53.5399 95.9398 52.1499C95.6898 51.5999 95.6198 51.7099 95.1498 51.4599C93.4798 50.5799 95.4998 49.5499 95.0098 47.4099C95.0498 47.2999 95.0498 47.4099 95.0498 47.2299C95.0498 47.1399 95.0198 47.0799 94.9998 46.9999L94.9298 46.6799C95.0098 46.4799 94.9298 46.2699 94.8898 46.0199C94.8498 45.8399 94.7998 45.5399 94.6598 45.3999C94.5698 44.9499 94.4898 44.6799 94.2798 44.3999L94.1798 44.3399C93.9998 44.0099 93.7498 43.7599 93.3398 43.7299C92.9698 43.6999 92.4398 43.8899 92.3098 44.1599C90.7798 45.1199 90.2898 50.8099 90.2098 52.6299C90.1598 53.7299 90.2998 54.8599 90.2298 55.9399C90.1598 57.0699 90.1898 57.9899 90.2898 59.2099C90.3798 60.3499 90.3198 61.3999 90.2898 62.5099C90.2698 63.5899 90.2998 64.7199 90.3398 65.8399C90.3698 66.9399 90.2998 68.0099 90.2598 69.0799C90.2098 70.1399 90.2298 71.2299 90.2098 72.2799C90.1898 73.3599 90.0998 74.3799 90.0398 75.4799C89.9998 76.2599 89.9398 79.5499 89.8598 82.9599L87.7298 73.0499C87.7798 72.1299 87.8298 70.9499 87.7298 70.2999C87.8098 70.0199 87.8898 67.4899 87.8798 66.9899C87.9198 66.0699 87.8498 65.0899 87.8198 64.1699C87.7598 61.8899 87.9498 61.0599 87.7498 58.4899C87.6798 57.6499 87.8498 56.1899 87.7198 55.5699C87.8298 55.2699 87.7198 53.1999 87.7498 52.6399C87.7798 51.6599 87.8698 50.7199 87.9798 49.7699C88.3398 46.7299 89.0998 41.2399 93.2598 41.2899C94.0298 41.2999 94.6798 41.5299 95.2298 41.8999L95.2498 41.8899ZM99.2498 60.4799C99.0798 60.6899 98.9598 60.8699 98.9198 60.9999C98.8498 61.2499 98.9398 66.3999 99.0198 66.7699C99.4298 67.0799 99.8598 67.4999 100.27 67.8899C100.47 68.0899 100.75 68.4099 101.01 68.6699L99.2498 60.4799ZM108.13 101.74L105.9 98.3399C104.62 96.4199 103.34 94.2199 102.12 92.3899C101.74 91.8199 101.29 90.8599 100.87 90.3899C100.42 89.8899 100.57 90.2199 100.6 89.4099C100.62 88.9499 100.64 88.5999 100.68 88.1599C101.05 84.5899 101.17 81.9399 101.36 78.4299L101.44 75.9199C101.27 75.4799 100.55 74.6899 100.26 74.3199C99.9898 73.9799 99.1898 73.1799 99.0798 72.9099C98.8598 73.2599 98.9298 75.1399 98.9898 75.4499L98.9298 75.5499L98.9798 75.7899L98.9198 75.8899L98.9698 76.1299L98.9098 76.2299L98.9598 76.4699L98.9098 76.6499L98.9498 76.8099L98.8998 76.9899L98.9398 77.1499L98.8898 77.3299L98.9298 77.4899L98.8798 77.6699L98.9198 77.8299L98.8598 77.9299L98.9098 78.1699L98.8498 78.2699L98.7398 81.4999C98.6498 84.4399 98.2698 87.8199 98.0598 90.8799C97.7598 95.1899 97.4998 93.0499 98.9898 97.1799C101.69 104.67 103.16 110.05 103.43 118.2C103.48 119.79 103.52 126.39 103.13 127.82C102.99 128.35 102.6 128.38 102.9 129.31C103.07 129.83 103.46 130.17 103.61 130.67L103.72 130.73C106.12 134.6 107.97 137.22 108.21 142.51C108.31 144.73 108.18 146.56 107.88 148.62C107.75 149.51 107.31 150.66 107.72 151.63C108.07 152.47 108.81 153.92 108.63 154.81C108.86 155.8 108.51 157.6 108.08 158.09C107.69 158.53 107 158.7 106.18 158.62L106.71 161.1C107.04 161.1 107.36 161.08 107.66 161.02L108.01 160.94C110.42 160.32 111.1 157.82 111.15 155.61C111.18 154.19 110.99 153.2 110.46 151.75C110.13 150.85 109.91 150.95 110.11 150.06C110.94 146.32 111 140.39 109.74 136.8C109.53 136.19 109.29 135.63 109.03 135.03C108.81 134.53 108.35 133.87 108.19 133.35C108.56 133.28 108.49 133.37 108.85 133.29L110.71 132.63C112.22 131.97 113.17 131.16 114.36 130.56L113.83 128.08C112.39 128.73 111.26 129.63 109.81 130.33C106.67 131.83 106.64 130.71 105.82 129.48C105.38 128.82 105.48 128.85 105.57 128.08C105.81 126.09 105.89 124.08 105.94 121.99C106.15 112.21 104.59 105.55 101.43 96.6999C101.26 96.2199 100.88 95.4399 100.99 95.0999C101.34 95.9099 105.59 102.3 106.14 103.14C107.31 104.89 108.45 106.68 109.61 108.45L108.17 101.75L108.13 101.74ZM79.8898 36.5199L79.5398 34.8899C80.6098 34.4699 82.0498 34.7399 82.9398 35.5999C84.4198 37.0299 84.6498 40.7799 84.1898 41.4499C83.7698 42.0599 82.8298 41.7699 82.7298 41.0599C82.5898 40.0499 82.9898 38.2299 81.9398 36.9299C81.5698 36.4699 80.8998 36.1499 80.1298 36.3999C80.0498 36.4299 79.9698 36.4699 79.8898 36.5099V36.5199ZM75.1798 14.6299L75.7198 17.1599C73.8398 16.9799 71.9498 16.8199 70.0898 16.6399L66.9898 16.4199C66.8998 16.3999 66.7898 16.3899 66.6898 16.3799L66.1598 13.8899C66.7598 13.9199 67.3598 13.9599 67.9698 13.9899C70.3598 14.1299 72.7798 14.3599 75.1898 14.6199L75.1798 14.6299ZM79.5398 34.8899L79.8898 36.5199C79.4198 36.8099 79.0998 37.4299 78.9498 37.7299C78.0198 39.5099 78.7198 40.7799 77.6098 40.9599C75.7998 41.2599 76.9698 36.2399 79.2698 35.0099C79.3598 34.9599 79.4498 34.9199 79.5398 34.8899ZM87.7498 73.0399L89.8798 82.9499C89.7898 87.0399 89.6798 91.2999 89.5398 91.5599C88.9898 92.6099 87.7298 91.8699 86.7898 92.7699C86.4598 92.8399 86.6398 92.7699 86.5998 92.8899L86.4398 92.9199L86.2998 93.0299C85.5598 93.1999 84.2398 93.8799 83.4398 94.2099L82.9198 91.7799L83.6598 91.4599C83.7498 91.4199 83.8998 91.3699 83.9798 91.3199L84.2698 91.1099C83.7698 91.2099 83.2898 91.2999 82.8398 91.3899L82.3298 89.0299C84.1798 88.6799 86.1998 88.2099 87.3098 87.6999L87.4998 80.3599C86.7798 80.9499 86.1498 81.5399 85.2498 82.1099C84.1298 82.8199 82.7398 83.5499 81.2898 84.1699L80.7598 81.7199C81.2698 81.4899 81.7698 81.2399 82.2598 80.9999C84.4498 79.8999 85.9798 78.6199 87.2198 77.0599C87.7498 76.3999 87.5598 76.5199 87.6198 75.5299C87.6498 74.9299 87.6798 74.3899 87.7098 73.8099C87.7198 73.5899 87.7398 73.3299 87.7598 73.0399H87.7498ZM106.15 158.58L106.68 161.06C105.32 161.06 103.82 160.62 102.73 160.02L101.39 159.22C100.47 158.63 99.7498 157.92 99.0698 156.96C96.7698 153.71 96.8798 151.78 96.6098 147.85C96.5798 147.33 96.5098 146.43 96.4098 145.87C96.2998 145.25 95.9798 144.44 95.7598 143.88C94.6598 141.06 94.2398 140.92 93.3398 139.01C93.2798 139.05 93.1998 139.1 93.0898 139.16L92.5598 136.68C92.7098 136.61 92.8598 136.53 92.9998 136.46C94.2898 135.79 96.9398 134.1 98.5298 134.5C98.5698 134.91 98.2998 135.29 98.1198 135.52C97.1198 136.78 96.9298 136.94 95.5298 137.89C96.0098 139.02 96.8298 140.1 97.3798 141.36C97.9398 142.66 98.5499 144.08 98.8198 145.53C99.3098 148.2 98.8998 151.95 100.23 154.19C101.49 156.82 104.19 158.4 106.13 158.59L106.15 158.58ZM75.3798 56.7399L75.0398 55.1699C76.2798 54.7699 77.5998 54.7999 77.8698 55.7199C78.0298 57.2499 76.5498 56.3899 75.5598 56.6799C75.4998 56.6999 75.4398 56.7199 75.3798 56.7399ZM66.1598 13.8999L66.6898 16.3899C65.7198 16.2699 64.2598 16.2599 63.2998 16.2199L57.5298 16.1199C56.4298 16.1299 54.6198 16.6799 54.5398 14.9499C54.5098 14.3799 54.5598 13.7799 54.4998 13.2099C54.3398 11.7399 54.2298 10.8399 53.7498 9.30989C53.3898 8.15989 52.3598 6.6899 51.6998 6.0999C50.8198 5.3099 49.8998 4.60989 48.3198 4.51989C48.0598 4.50989 47.8198 4.49991 47.5798 4.50991L47.0598 2.07988C47.1098 2.07988 47.1698 2.07988 47.2198 2.07988C49.8898 1.95988 50.9998 2.5199 52.8598 3.8799C53.3998 4.2699 53.7798 4.65991 54.2098 5.19991C55.8598 7.25991 56.8398 9.83988 56.9698 12.5499C56.9898 12.9099 56.9698 13.3599 57.0398 13.6899C57.4998 13.5999 58.4198 13.6499 58.9198 13.6499C61.3398 13.6799 63.7498 13.7799 66.1598 13.9099V13.8999ZM75.0398 55.1699L75.3798 56.7399C74.9798 56.8899 74.5698 57.1599 74.3198 57.3899C73.8598 57.8199 73.5998 57.8999 73.0498 57.6899C72.1198 56.7999 73.5098 55.6599 75.0398 55.1599V55.1699ZM80.7498 81.7299L81.2798 84.1799C79.5198 84.9299 77.6498 85.5199 76.0498 85.7099C73.9798 85.9599 71.6198 85.7999 69.6898 85.5699C67.9298 85.3599 66.1998 84.8199 64.7698 84.3899L64.1698 81.5999C64.5598 81.7299 64.9598 81.8599 65.3498 81.9799C66.3098 82.2699 67.3098 82.6199 68.3598 82.8499C70.2598 83.2599 73.0498 83.5199 75.1798 83.3499C77.1698 83.1899 79.0098 82.5299 80.7498 81.7399V81.7299ZM82.3198 89.0399L82.8298 91.3999C81.4598 91.6699 80.2098 91.8899 78.6098 92.0599C77.0498 92.2199 75.4598 92.2199 73.9198 92.3899L74.0298 94.7599C75.8598 94.2699 77.7398 93.7999 79.4998 93.1799C80.3398 92.8799 81.1298 92.5499 81.9398 92.2099L82.9198 91.7899L83.4398 94.2299C81.0998 95.1999 79.9498 95.7099 77.4198 96.3799C76.3998 96.6499 75.0998 96.9099 74.1398 97.2699C74.1998 98.0599 74.2298 98.8599 74.2898 99.6499C74.3598 100.64 74.4398 101.1 73.8698 101.64C72.6698 102.78 71.5298 100.73 70.1998 100.56C70.4398 100.88 72.1698 101.89 73.4498 104.11C74.4498 105.86 74.6298 107.98 73.7198 109.3C72.9298 110.44 71.6798 110.8 70.4098 110.59L69.8098 107.8C72.0698 109.22 73.0598 106.85 70.0398 103.66C69.4898 103.08 69.0498 102.71 68.6698 102.49L67.7498 98.1899C69.3298 97.7499 70.2698 97.9799 71.7698 98.4899C71.7298 97.6399 71.6298 93.5499 71.4598 93.0699C71.4798 93.0199 71.5798 93.0399 71.4798 92.7399C71.4098 92.5299 71.5398 92.5499 70.7498 92.5799C70.3498 92.5899 69.9298 92.5699 69.5298 92.6499L68.7198 92.6199C68.1198 92.6299 67.1198 92.5699 66.5498 92.6299L66.0298 90.1899C68.0298 90.1899 70.0198 90.1299 71.9798 90.0399C74.4298 89.9199 76.9998 89.8399 79.4598 89.5099C80.2098 89.4099 81.2398 89.2499 82.3298 89.0399H82.3198ZM92.5698 136.68L93.0998 139.16C92.5698 139.42 91.5298 139.77 91.0698 139.95C90.3198 140.23 89.4198 140.45 88.5898 140.76C88.3298 140.86 88.1798 140.87 87.9098 140.94C87.5698 141.03 87.6298 141.06 87.2898 141.16L83.3198 142.1C81.9898 142.39 79.5798 142.69 77.3398 142.9L76.8098 140.45C80.4198 140.13 83.4798 139.69 87.3098 138.56C89.0598 138.05 90.9498 137.45 92.5598 136.69L92.5698 136.68ZM47.0698 2.08989L47.5898 4.51989C46.2098 4.55989 45.2298 4.97989 44.1998 5.86989C43.7898 6.21989 43.4798 6.51988 43.2398 6.82988L42.6198 3.95989C42.7598 3.83989 42.8998 3.72989 43.0498 3.61989C44.1698 2.76989 45.3798 2.19989 47.0598 2.08989H47.0698ZM64.1698 81.5999L64.7698 84.3899C64.5398 84.3199 64.3298 84.2599 64.1198 84.1999L64.0198 84.1399L63.9398 84.1599L63.8398 84.0999L63.4898 84.0099L63.3898 83.9499C62.6898 83.7699 60.9998 83.0699 59.4998 82.4299L58.8698 79.5099C60.6098 80.2599 62.4098 81.0199 64.1698 81.6199V81.5999ZM66.0198 90.1899L66.5398 92.6299C66.4698 92.6299 66.4098 92.6499 66.3498 92.6599L66.4998 93.3799L66.6998 98.5399C67.0798 98.3999 67.4198 98.2799 67.7298 98.1899L68.6498 102.49C67.6798 101.91 67.1298 102.2 66.2198 101.9C66.7898 103.87 68.0498 106.65 69.7198 107.75C69.7498 107.77 69.7698 107.78 69.7998 107.8L70.3998 110.59C69.2398 110.4 68.0498 109.73 67.1498 108.75C66.6398 108.19 65.7498 106.89 65.6298 106.8L65.5898 106.6L65.4298 106.63C65.4298 106.83 65.3598 107.24 65.2998 107.44C65.2098 107.76 65.1098 107.84 65.0998 108.21C65.0798 108.23 65.0598 108.25 65.0498 108.26L62.9698 98.5999C63.3498 98.6399 63.7698 98.7099 64.2598 98.7899C64.2098 97.9299 64.2098 96.9499 64.2198 96.0999C64.2198 95.4199 64.3798 93.9999 64.2598 93.4499C64.2598 93.4299 64.2698 93.4099 64.2798 93.3899C64.2798 93.3799 64.2898 93.3499 64.2998 93.3299L64.4098 92.5799C64.0098 92.6699 62.4998 92.5999 62.0098 92.5799C61.8998 92.5799 61.7898 92.5799 61.6798 92.5799L61.1498 90.1099C62.7798 90.1799 64.3998 90.2099 66.0198 90.1999V90.1899ZM76.8298 140.44L77.3598 142.89C75.6698 143.04 74.0798 143.14 73.1198 143.12C73.2298 143.62 73.2798 144.62 73.3198 145.1C73.3998 146.1 73.9098 148.33 73.9998 149.18C74.0598 149.81 74.2098 150.47 74.3598 151.2C74.8298 153.37 75.7398 157.16 76.1598 159.86L71.9998 140.52C72.4398 140.44 72.6898 140.62 73.1298 140.66C73.6098 140.7 74.1698 140.66 74.6698 140.62C75.4198 140.56 76.1298 140.5 76.8298 140.44ZM49.1098 34.1199L48.7598 32.4999C50.1598 32.0299 51.6298 32.6799 52.2898 33.2699C53.6998 34.5299 54.1998 38.6499 53.4498 39.1799C52.6998 39.6999 52.1798 39.0399 52.1598 38.2799C52.1198 36.9599 51.9998 34.9099 50.9398 34.2999C50.1798 33.8599 49.5798 33.8599 49.1098 34.1199ZM46.0698 19.9899L45.7898 18.6999C45.9798 19.0199 46.0798 19.3999 46.0698 19.9899ZM42.6198 3.95989L43.2398 6.82988C42.7698 7.40988 42.5298 8.00989 42.2798 9.02989C41.5998 11.8399 42.7698 15.1899 44.5098 17.2399C45.0798 17.9099 45.5298 18.2499 45.7898 18.6999L46.0698 19.9899C46.0698 20.2199 46.0498 20.4799 46.0098 20.7799C45.8398 22.1399 45.6598 23.4699 45.4698 24.8299C45.3398 25.7299 45.2398 26.6399 45.1398 27.5499L43.5898 20.3199C43.6398 19.9799 43.6498 19.9499 43.4698 19.7699L40.5998 6.42989C41.0898 5.50989 41.7598 4.68989 42.6198 3.95989ZM48.7598 32.5099L49.1098 34.1299C48.1298 34.6699 47.7098 36.3599 47.5298 37.4899C47.4998 37.6999 47.4698 37.9399 47.4198 38.1499L46.6598 34.6399C47.1298 33.6999 47.7898 32.8999 48.5698 32.5799C48.6298 32.5499 48.6998 32.5299 48.7598 32.5099ZM58.8698 79.4899L59.4998 82.4099C58.5598 82.0099 57.6998 81.6299 57.1898 81.4199C57.0198 81.3499 56.8498 81.2799 56.6898 81.2099L56.0598 78.2999C56.3198 78.3999 56.5698 78.4999 56.8198 78.5999C57.4898 78.8899 58.1798 79.1899 58.8798 79.4899H58.8698ZM61.1498 90.0899L61.6798 92.5599C61.4198 92.5599 61.1398 92.5499 60.8698 92.5299C60.5198 92.4999 60.0698 92.4499 59.7198 92.4999C59.8898 93.2999 59.6898 94.2799 59.8498 95.0599C59.7898 95.1699 59.7398 94.9399 59.8198 95.3199L59.8398 95.3999L59.7898 95.5799C59.7898 95.5799 59.7898 95.6899 59.7998 95.7599L58.5498 89.9699C59.4098 90.0299 60.2698 90.0699 61.1398 90.1099L61.1498 90.0899ZM62.9798 98.5899L65.0598 108.25C64.9698 108.33 65.0098 108.27 64.9998 108.47L64.9398 108.57L64.8898 108.75L64.8298 108.85L64.7698 108.95L64.7098 109.05C64.4598 109.67 63.8598 110.46 63.0998 110.99L62.4698 108.04C63.1698 106.65 63.3798 104.29 63.2298 102.95C62.6898 103.27 62.1398 103.91 61.7098 104.52L61.0798 101.6C61.2598 101.42 61.4098 101.27 61.4998 101.15C61.3198 101.17 61.1598 101.21 61.0098 101.25L60.4998 98.8699C61.4998 98.5599 62.1698 98.5199 62.9998 98.5999L62.9798 98.5899ZM71.9998 140.52L76.1598 159.86C76.2598 160.5 76.3298 161.08 76.3598 161.57C76.5098 163.83 76.2798 165.56 75.0198 166.45L73.8398 160.94C73.3498 156.94 70.7998 148.18 70.6398 142.76C70.6098 141.65 70.7398 140.97 71.7598 140.59C71.8498 140.56 71.9298 140.53 71.9998 140.52ZM40.5998 6.42989L43.4698 19.7699C43.4698 19.7699 43.3598 19.6599 43.2798 19.5799C42.5698 18.8899 41.9798 18.0799 41.4398 17.2199C40.2698 15.3499 39.5298 12.5599 39.6098 10.3899C39.6698 8.90991 39.9898 7.5999 40.5998 6.4399V6.42989ZM43.5798 20.3199L45.1298 27.5499C44.9398 29.3699 44.7698 31.1999 44.4298 32.9599C44.2898 33.6599 44.0798 34.4799 43.8098 35.3199L42.4898 29.1699C42.6098 28.1699 42.7098 27.1599 42.8198 26.1499L43.5598 20.5099C43.5598 20.4399 43.5798 20.3799 43.5798 20.3299V20.3199ZM46.6698 34.6399C45.7298 36.4799 45.5198 38.8199 46.5498 38.8699C47.1298 38.8999 47.3298 38.5599 47.4198 38.1499L46.6598 34.6399H46.6698ZM56.0598 78.2999L56.6898 81.2099C55.6298 80.7599 54.6098 80.3299 53.4498 80.0599L52.8898 77.4799C54.0298 77.6499 55.0998 77.9499 56.0598 78.2999ZM58.5698 89.9599L59.8198 95.7499C59.8298 96.4399 59.6898 98.3199 59.7398 99.1199C60.0098 99.0199 60.2598 98.9399 60.4898 98.8599L60.9998 101.24C60.0798 101.52 59.6798 102.18 59.3598 102.42C59.0198 102.67 58.6498 102.76 58.3198 102.71L57.2998 97.9899C57.3298 97.3799 57.3398 96.8399 57.3098 96.4799L56.9498 96.3599L56.3098 93.3999C56.6498 93.5899 57.0598 93.7999 57.3398 93.8299L57.4398 92.3099L56.0598 92.2199L55.5198 89.6999C56.5298 89.7999 57.5498 89.8799 58.5698 89.9499V89.9599ZM61.0698 101.58C60.4698 102.18 59.4698 103.14 58.9098 104.33C58.8498 104.45 58.7998 104.57 58.7398 104.69L60.1498 111.25C60.4998 111.43 60.8798 111.54 61.2798 111.56C61.9198 111.59 62.5498 111.35 63.0898 110.97L62.4598 108.02C62.1598 108.62 61.7598 109.05 61.2698 109.12C60.1898 108.17 60.4698 106.59 61.0398 105.56C61.1898 105.28 61.4198 104.9 61.7098 104.5L61.0798 101.58H61.0698ZM73.8398 160.94L75.0198 166.45C74.3698 166.91 73.4498 167.14 72.1698 167.11L71.6298 164.61C72.3598 164.67 73.0998 164.63 73.7198 164.33C73.9898 163.79 73.9998 162.86 73.9098 162.17C73.9098 161.84 73.8898 161.43 73.8298 160.95L73.8398 160.94ZM69.4898 154.62L69.3798 154.13C69.4998 154.34 69.5298 154.5 69.4898 154.62ZM42.4898 29.1599L43.8098 35.3099C43.2698 36.9999 42.5098 38.7899 41.7498 40.0199L40.0098 42.4999L39.3098 39.2699C39.3098 39.2699 39.3498 39.1999 39.3698 39.1699C39.8898 38.3799 40.2798 37.5099 40.6698 36.6399C41.7498 34.2499 42.1798 31.7199 42.4798 29.1599H42.4898ZM52.8898 77.4799L53.4498 80.0599C52.5298 79.8499 51.5298 79.7399 50.3398 79.7999C49.5498 79.8399 48.8198 79.9699 48.1198 80.1499L47.5998 77.7199C48.3898 77.5399 49.3298 77.3999 50.4898 77.3499C51.3098 77.3199 52.1198 77.3699 52.8998 77.4799H52.8898ZM55.5198 89.7099L56.0598 92.2299L54.6798 92.1399C54.9398 92.5599 55.5898 93.0099 55.9098 93.1799C56.0198 93.2399 56.1598 93.3199 56.3198 93.3999L56.9598 96.3599L56.6298 96.2499C56.4198 96.8799 56.0098 101.84 55.9798 102.49C55.7198 107.68 55.8198 113.85 56.5598 119.36L53.4498 104.92C53.5198 102.39 53.6898 99.8799 53.9998 97.4999C54.0498 97.0799 54.0898 96.6999 54.1398 96.2799C54.1898 95.8299 54.3098 95.4099 54.3398 95.0299L53.5498 94.5299C53.4698 95.0599 52.9698 96.1999 52.7298 96.7299C52.4998 97.2399 52.2698 97.7799 52.0398 98.3299L51.1398 94.1399C51.3898 93.5399 51.6598 92.9399 51.9598 92.3799C51.9598 92.3699 51.9798 92.3399 51.9898 92.3299L52.0598 92.1699C52.1198 91.9899 52.0998 91.9199 52.1498 91.7399C51.8298 91.7799 51.3198 91.6899 51.0398 91.6399C50.8898 91.6099 50.7398 91.5999 50.5898 91.5799L50.0298 88.9599C51.8398 89.2499 53.6698 89.4799 55.5298 89.6599L55.5198 89.7099ZM57.2998 97.9899C57.2398 99.4199 57.1098 101.22 57.3098 101.85C57.4598 102.32 57.8498 102.64 58.3098 102.71L57.2898 97.9899H57.2998ZM58.7398 104.7C58.2398 105.82 57.8098 107.08 58.2698 108.76C58.5798 109.91 59.2798 110.81 60.1498 111.26L58.7398 104.7ZM69.3798 154.13L69.4898 154.62C69.3598 154.95 68.6298 154.95 67.2798 154.62C66.1398 154.35 65.0698 153.64 63.8598 153.28L63.3098 150.74C64.1998 150.81 64.6598 150.82 66.4398 151.67C67.1798 152.02 67.6598 152.26 68.2498 152.81C68.8298 153.36 69.2098 153.8 69.3898 154.13H69.3798ZM71.6298 164.6L72.1698 167.1C72.0298 167.1 71.8798 167.1 71.7298 167.08C70.4998 167 69.6198 166.71 68.4898 166.56C67.9498 166.49 67.3098 166.39 66.6398 166.26L66.0698 163.62C67.1698 163.86 68.2098 163.99 69.3798 164.21C69.9998 164.32 70.8098 164.52 71.6198 164.6H71.6298ZM60.3398 136.98L58.5498 128.68C58.7298 129.31 58.9198 129.94 59.1198 130.55C59.4598 131.63 59.8298 132.69 60.2198 133.73C60.4498 134.34 60.6898 134.7 60.5098 135.32C60.4198 135.63 60.3698 136.24 60.3498 136.99L60.3398 136.98ZM42.9198 55.9899L42.5398 54.2099C42.7298 54.2399 42.9198 54.2699 43.0898 54.3199C43.3898 54.4099 43.8698 54.5899 44.0698 54.7199C44.3198 54.8799 44.5198 55.1899 44.8098 55.2899C45.1898 55.8599 45.5498 56.6199 44.6198 56.8799C43.8598 57.0899 43.6998 56.3399 42.9198 55.9799V55.9899ZM36.8298 27.6899L33.1998 10.8199C34.6698 12.2299 35.1298 14.3599 35.7598 16.1099L36.4898 18.5999C37.0798 20.9799 37.8298 24.2199 37.3598 26.3799C37.2498 26.8799 37.0698 27.3199 36.8298 27.6899ZM32.2098 6.19991L31.0198 0.679889L31.0698 0.709888C33.3298 2.11989 33.3098 4.51991 32.2098 6.19991ZM55.0498 124.81C55.8698 128.37 56.7498 131.48 58.0398 134.87C58.2998 135.54 57.9998 135.97 57.9498 136.69C57.9198 137.09 57.8998 137.53 57.8798 137.99L61.1598 153.26C62.1498 152.96 63.0298 153.04 63.8398 153.29L63.2898 150.75C62.9598 150.72 62.5698 150.69 62.0398 150.6C61.3898 149.21 60.7698 145.06 60.5798 143.4C60.4698 142.39 60.2798 139.11 60.3298 136.99L58.5398 128.69C58.0398 126.98 57.5898 125.22 57.2398 123.5C56.9598 122.19 56.7198 120.81 56.5298 119.39L53.4198 104.95C53.3398 107.68 53.3898 110.43 53.4998 113.03C53.5398 113.83 53.7498 115.03 53.4398 115.6C53.3398 115.79 53.2398 115.97 53.1598 116.14L55.0298 124.82L55.0498 124.81ZM31.0198 0.679889L32.2098 6.19991C31.6598 7.02991 30.8498 7.68991 29.9198 7.94991L29.3998 5.51989C30.0498 5.28989 30.3998 4.56989 30.4598 4.11989C30.5998 3.03989 29.6598 2.5499 28.9498 2.5999C28.8998 2.5999 28.8398 2.61991 28.7798 2.63991L28.2498 0.199909C29.2198 0.0599085 30.2898 0.239889 31.0198 0.679889ZM33.1998 10.8299L36.8298 27.6999C36.2798 28.5499 35.4298 29.0499 34.4698 29.1399L33.9398 26.6999C34.1198 26.7299 34.3098 26.6999 34.5098 26.6199C35.8798 26.0299 34.3398 20.0899 33.9498 18.7399C33.6898 17.8299 32.4698 12.4099 30.8698 12.3899L30.3598 10.0099C31.3498 9.86991 32.3798 10.1099 32.9898 10.6299C33.0698 10.6899 33.1398 10.7599 33.2098 10.8299H33.1998ZM39.3198 39.2599L40.0198 42.4899L39.6398 43.0299C39.1798 43.5899 38.5198 44.5299 37.9498 45.2899L37.2498 42.0499C37.3898 41.8599 37.5398 41.6799 37.6898 41.4999C38.1298 40.9799 38.4198 40.4899 38.8398 39.9799C39.0098 39.7699 39.1598 39.5099 39.3198 39.2599ZM42.5398 54.2199L42.9198 55.9999C42.7498 55.9199 42.5598 55.8699 42.3298 55.8399C41.8398 55.7799 41.5998 55.9599 41.2298 55.9399C40.8798 55.9199 40.1298 55.4299 40.7498 54.5399C41.2898 54.2099 41.9498 54.1599 42.5398 54.2299V54.2199ZM47.5898 77.7099L48.1098 80.1399C47.2498 80.3599 46.4298 80.6599 45.6198 80.9699L45.0998 78.5499C45.7998 78.2499 46.5698 77.9399 47.5898 77.6999V77.7099ZM50.0198 89.0099L50.5798 91.6299C50.3998 91.6099 50.2098 91.5899 50.0198 91.5599C49.2898 91.4499 48.5498 91.3299 47.8198 91.1899L47.2398 88.5099C48.1598 88.6899 49.0798 88.8599 50.0198 89.0099ZM51.1298 94.1799L52.0298 98.3699C51.4298 99.8299 50.8498 101.41 50.3198 102.86L49.3498 98.3699C49.5798 97.8099 49.8098 97.2699 50.0398 96.7599C50.2898 96.2099 50.5398 95.6399 50.7498 95.0899C50.8698 94.7899 50.9898 94.4799 51.1198 94.1799H51.1298ZM66.0798 163.62L66.6498 166.26C65.6598 166.08 64.6298 165.84 63.8298 165.58L63.2098 162.7C63.9998 163.01 64.8398 163.32 65.4098 163.47C65.6398 163.53 65.8598 163.58 66.0798 163.63V163.62ZM53.8398 140.63C53.7398 139.8 53.9698 137.49 54.0398 136.57C54.3098 133.07 54.7998 130.22 54.8898 126.47C54.9098 125.79 54.8598 125.02 54.9498 124.39L55.0498 124.81L53.1798 116.13C52.5898 117.32 52.3598 118.29 51.8798 119.85C50.7798 123.4 50.5598 124.89 48.8598 128.41C48.5598 129.03 47.8898 130.18 47.1898 131.04L47.7998 133.88C48.3098 133.49 48.7698 133.01 49.2498 132.44C50.6498 130.76 52.3098 126.7 52.3698 126.63C52.4498 127.07 52.2898 128.96 52.2498 129.5C52.0498 132.35 51.6898 135.06 51.4798 137.93C51.4098 138.88 51.3798 139.85 51.3298 140.79C51.2798 141.79 51.0898 142.87 52.0698 143.37C52.8398 143.76 54.0098 142.74 56.6798 142.93C57.1598 142.96 57.6298 143.15 58.0798 143.1L58.3098 145.03C58.3598 145.6 58.5598 146.49 58.6198 147.09C58.7498 148.41 59.2998 149.93 59.5798 151.21C58.7298 151.47 57.3298 152.47 56.8098 152.99C54.2498 155.54 54.2398 159.24 57.0598 161.92C58.9898 163.76 60.0198 164.01 62.2898 164.98C62.7798 165.19 63.1698 165.36 63.7098 165.55L63.8198 165.59L63.1998 162.71C62.6798 162.51 62.1798 162.3 61.7998 162.14C61.2198 161.9 59.0698 160.73 58.7798 160.05C57.7998 159.71 57.0098 157.66 57.6898 155.97C58.1198 154.89 59.4398 153.86 61.0098 153.32C61.0698 153.3 61.1198 153.28 61.1798 153.27L57.8998 138C57.8698 138.89 57.8698 139.83 57.9398 140.6C57.2698 140.58 56.6998 140.45 55.9698 140.45C55.2698 140.45 54.5698 140.51 53.8498 140.64L53.8398 140.63ZM28.2498 0.199909L28.7798 2.63991C28.0198 2.88991 26.5898 4.35991 27.8398 5.19991C28.4798 5.62991 28.9998 5.6699 29.3998 5.5299L29.9198 7.95989C29.4398 8.09989 28.9298 8.1399 28.4098 8.03991C27.9698 7.95991 27.4098 7.77989 27.0498 7.58989C25.6898 6.86989 25.2498 6.31989 24.9398 4.89989C24.6698 3.64989 25.6898 1.68989 26.5498 0.929889C26.9898 0.539889 27.5998 0.299888 28.2498 0.209888V0.199909ZM30.3498 10.0099L30.8598 12.3899C30.7098 12.3899 30.5598 12.4299 30.3998 12.5299C29.8898 12.8499 29.7798 13.4599 29.8298 14.0599C29.9798 16.0399 30.3698 18.5799 30.7998 20.4899C31.1098 21.8599 31.4898 23.1799 32.0798 24.4399C32.4098 25.1499 33.0298 26.5499 33.9398 26.6899L34.4698 29.1299C34.0398 29.1699 33.5898 29.1299 33.1298 29.0099L32.2198 28.6099C30.1198 27.2999 28.8998 23.3199 28.3498 20.7699C28.2098 20.1199 28.1398 19.6199 28.0598 19.0699C27.8098 17.1399 27.1798 14.9299 27.5198 12.8799C27.5998 12.3799 27.7798 12.1499 27.9498 11.7199C28.3698 10.6799 29.3398 10.1399 30.3498 9.9999V10.0099ZM37.2498 42.0599L37.9498 45.2999C37.7498 45.5599 37.5698 45.7999 37.3998 45.9899C36.5998 46.9199 35.6898 47.8599 34.9298 48.7899C34.5098 49.2999 32.8498 51.3399 32.6798 51.7499C32.2798 51.9899 31.4998 53.3699 30.7898 54.7899L30.0098 51.1399L31.1298 49.6299C31.3298 49.3799 31.5098 49.1699 31.7098 48.9099C33.0198 47.2299 33.9798 46.1499 35.3798 44.5499C36.0598 43.7599 36.6298 42.8899 37.2598 42.0599H37.2498ZM45.0998 78.5599L45.6198 80.9799C43.1398 81.9499 40.6698 83.0899 36.7898 82.6999L36.2498 80.1999C36.3798 80.2199 36.5098 80.2399 36.6398 80.2599C38.9398 80.5599 40.0798 80.1099 42.3398 79.6199C42.7098 79.5399 42.4898 79.5899 42.5598 79.4899L42.8798 79.4199L43.0198 79.3099C43.7398 79.1499 44.3698 78.8699 45.0898 78.5599H45.0998ZM47.2398 88.4999L47.8198 91.1799C46.8598 90.9999 45.9098 90.7799 44.9798 90.5399L40.2898 89.0699C39.7198 88.8299 39.0998 88.5699 38.5498 88.2499C38.3298 88.1299 38.1198 88.0199 37.9098 87.8999L37.1998 84.5899L39.1198 85.7699C40.9298 86.6999 42.7798 87.4799 44.8498 87.9699C45.6398 88.1599 46.4398 88.3299 47.2398 88.4999ZM49.3598 98.3599L50.3298 102.85L50.0898 103.51C48.2398 108.54 46.0998 114.4 44.7998 119.67C44.7998 119.71 44.7798 119.75 44.7698 119.79L43.6498 114.59L43.8698 113.84C44.6498 111.18 45.9498 107.87 46.8398 105.24C47.5498 103.13 48.4498 100.57 49.3698 98.3499L49.3598 98.3599ZM28.5198 44.2399C29.4898 44.7499 30.6398 44.9899 31.9998 44.6999C31.7298 43.8099 29.0198 42.3399 28.2698 41.5499C28.1198 41.3899 27.9798 41.2399 27.8398 41.0899L28.5198 44.2499V44.2399ZM25.5898 30.6399L24.3698 24.9799C24.3498 24.6199 24.3098 24.2999 24.2898 24.0699C24.0798 22.3199 23.6098 20.4299 22.9898 18.5499L20.4598 6.80989C21.1898 8.02989 21.7898 9.36991 22.2298 10.2599C23.9998 13.8799 25.5498 17.8499 26.4298 21.9499C27.3098 26.0499 26.7998 29.0799 25.5898 30.6599V30.6399ZM52.3798 126.63L20.4598 6.79988L22.9898 18.5399C21.9998 15.5199 20.6398 12.5099 19.4098 10.0599C18.9498 9.13989 18.3198 7.85989 17.7398 7.11989C16.5098 5.53989 15.2598 5.8299 15.0598 6.2799C14.4398 7.6699 15.7798 12.3099 16.1498 13.9699C16.7598 16.7199 16.2598 16.3899 12.7498 17.4399L12.2298 14.9999C12.8798 14.7999 13.5198 14.6199 13.7598 14.5699C13.4598 13.1699 13.1398 12.0699 12.8398 10.6799C12.2498 7.95989 12.0698 4.2499 14.6798 3.6899C16.0498 3.3899 16.6198 3.3999 17.8698 3.9699C18.8598 4.4299 19.7398 5.55988 20.4898 6.79988L52.3798 126.63ZM24.3698 24.9799C24.4898 26.8499 24.3898 29.9699 22.3198 29.6799C20.3698 29.4099 19.4498 26.2899 18.7598 24.1699C18.1298 22.2399 18.0898 19.4199 16.5798 19.4399C16.1098 19.4399 15.2498 19.8399 14.7498 19.9899C14.2598 20.1399 13.7998 20.2599 13.3698 20.3599L13.8798 22.7499C14.0598 22.6899 14.4898 22.5799 14.7798 22.5199C15.2398 22.4199 15.3798 22.3399 15.7198 22.2299C16.2598 24.7199 17.0298 26.9799 17.9798 28.8399C19.7798 32.3899 23.5798 33.2599 25.5898 30.6399L24.3698 24.9799ZM27.8398 41.0799L28.5198 44.2399C27.7798 43.8499 27.1398 43.3099 26.5998 42.7399C24.9098 40.9399 23.9898 38.9399 23.4098 36.1999C23.2098 35.2799 23.0398 34.0599 23.7098 33.7099C24.2198 33.9099 24.4198 34.5499 24.6598 35.2099C25.6098 37.7499 26.1398 39.1799 27.8398 41.0799ZM29.9998 51.1499L30.7798 54.7999C30.0898 56.1699 29.4698 57.5599 29.3198 57.9599C28.9298 59.0199 28.6498 60.3499 28.4298 61.5799C28.2998 62.2899 27.9198 64.9699 28.0798 65.6099C27.8798 65.9999 28.0998 68.1799 28.1498 68.7699C28.4798 72.0599 29.3298 74.0499 30.8298 76.8099C30.9898 77.1099 31.2798 77.6799 31.4598 77.8599L32.3898 78.5499C33.8198 79.4999 34.5498 79.9399 36.2498 80.2099L36.7898 82.7099C36.0398 82.6399 35.2298 82.4999 34.3598 82.2999C34.7698 82.7699 36.0598 83.8599 36.5598 84.2199L37.1898 84.6099L37.8998 87.9199C37.5698 87.7499 37.2498 87.5699 36.9198 87.3599C35.5998 86.4999 35.1598 86.3399 33.7998 85.1699C31.2398 82.9599 29.0498 80.0799 27.8998 76.8699C27.7198 76.3699 27.7598 76.2199 27.5198 75.7499C24.5798 69.9299 25.4598 61.5699 26.9798 57.1399C27.3898 55.9399 27.9898 54.7699 28.5898 53.6399C28.8998 53.0599 29.6298 51.6199 29.9798 51.1699V51.1499H29.9898H29.9998ZM43.6498 114.6L44.7698 119.8C44.6098 120.53 44.5098 121.58 43.9598 121.96C43.0398 122.6 42.6498 121.81 41.5898 121.64C39.8498 121.35 37.6398 121.08 36.0098 121.98C35.7898 122.1 35.5498 122.26 35.3198 122.44L34.7698 119.87C36.6298 118.89 38.7298 118.68 40.7998 119.03C41.2998 119.11 41.8798 119.16 42.3598 119.28C42.5298 118.68 42.6698 118.09 42.8298 117.45L43.6498 114.61V114.6ZM47.1898 131.05L47.7998 133.89C47.0898 134.43 46.2798 134.81 45.1598 135.03C43.5198 135.36 41.8198 134.53 41.2398 133.01C40.9398 132.21 40.8098 131.19 41.0098 130.49C39.5698 130.8 38.3098 130.86 37.0698 130.59L36.4698 127.79C40.2998 129.46 42.8598 126.31 44.1898 127.71C45.1098 128.68 43.8998 129.56 43.7298 129.92C43.4798 130.42 43.0998 131.86 43.7698 132.41C44.3798 132.91 45.6698 132.47 46.2298 131.97C46.5398 131.78 46.8698 131.45 47.1898 131.06V131.05ZM12.2198 14.9999L12.7398 17.4399C12.3298 17.5599 11.8898 17.6999 11.3898 17.8699C10.8498 18.0499 10.0798 18.3799 9.52984 18.2999C9.03984 18.2199 8.57984 17.8699 8.38984 17.3099C8.03984 16.2799 7.74984 14.4499 7.49984 13.3299C7.07984 11.4899 5.86984 7.14991 3.62984 8.72991C2.86984 9.26991 2.63984 10.3699 2.54984 11.5499C2.47984 12.5699 2.53984 14.0499 2.61984 15.0899C3.01984 20.1099 3.81984 25.5399 6.10984 30.0599C6.69984 31.2299 7.31984 32.0099 8.16984 32.4299C9.49984 33.0799 10.1798 32.2199 10.3998 31.0899C10.7898 29.0499 10.2198 25.7199 9.67983 23.6099C8.90983 20.5899 10.3098 21.0399 13.3598 20.3499L13.8698 22.7399H13.8498C13.3598 22.9299 12.7198 22.9499 12.0598 23.0999L12.4898 25.0899C14.7298 35.4899 9.03983 36.3099 6.28983 34.1599C5.37983 33.4499 4.67985 32.5799 4.06985 31.4199C3.47985 30.3099 2.95984 29.0399 2.51984 27.6499L1.86984 25.5799C1.68984 25.1199 1.64984 24.5399 1.43984 23.9299L0.919838 21.5899C0.919838 21.5899 0.919838 21.5499 0.919838 21.5399L0.779838 20.6799C0.149838 17.8699 -0.120159 10.8999 0.969841 8.50991C1.90984 6.44991 5.99985 4.09991 8.59985 8.88991C9.48985 10.5399 10.0298 13.2699 10.5298 15.5799C10.6498 15.4899 11.4298 15.2299 12.2098 14.9899L12.2198 14.9999ZM34.7798 119.86L35.3298 122.43C34.8298 122.82 34.3798 123.3 34.2998 123.68L34.2298 123.78L34.2498 123.86L34.1898 123.95C34.0498 124.12 34.0398 124.16 33.9898 124.45C33.7398 126.13 34.9998 127.11 36.3498 127.73C36.3898 127.75 36.4398 127.77 36.4798 127.79L37.0798 130.59C36.6698 130.5 36.2598 130.37 35.8398 130.21C34.4498 129.65 33.0998 128.88 32.2698 127.55C30.7198 125.07 31.6798 121.91 33.9998 120.33C34.2498 120.16 34.5098 120 34.7698 119.86H34.7798Z" fill="#874623"/>
<path fill-rule="evenodd" clip-rule="evenodd" d="M64.1198 84.1999L64.0199 84.1399L63.9398 84.1598L63.8398 84.0998L63.4899 84.0099L63.3898 83.9499C62.2598 83.6599 58.5098 81.9899 57.1798 81.4399C55.0798 80.5599 53.2498 79.6599 50.3298 79.8199C44.9898 80.1099 42.3699 84.1699 34.3499 82.3099C34.7599 82.7799 36.0499 83.8698 36.5499 84.2298L39.1098 85.7999C40.9198 86.7299 42.7698 87.5099 44.8398 87.9999C53.3598 90.0399 63.0099 90.4899 71.9599 90.0499C74.4099 89.9299 76.9799 89.8499 79.4398 89.5199C81.4599 89.2499 85.5198 88.5298 87.2898 87.7198L87.4798 80.3799C86.7598 80.9699 86.1298 81.5599 85.2298 82.1299C82.7498 83.6999 78.9598 85.3698 76.0398 85.7298C73.9698 85.9798 71.6098 85.8199 69.6798 85.5899C67.6498 85.3499 65.6499 84.6598 64.0999 84.2198L64.1198 84.1999Z" fill="#FAD9D0"/>
<path fill-rule="evenodd" clip-rule="evenodd" d="M121.9 126.28C121.5 125.56 117.34 119.97 116.53 118.77C114.78 116.18 113.01 113.58 111.25 110.98C109.5 108.39 107.82 105.72 106.09 103.12C105.53 102.28 101.29 95.9 100.94 95.08C100.83 95.41 101.21 96.1999 101.38 96.6799C104.54 105.52 106.1 112.19 105.89 121.97C105.85 124.06 105.76 126.06 105.52 128.06C105.43 128.83 105.33 128.8 105.77 129.46C106.59 130.69 106.62 131.81 109.76 130.31C111.67 129.4 113.02 128.12 115.26 127.55C117.46 126.99 120.26 127.52 121.9 126.28Z" fill="#E95513"/>
<path fill-rule="evenodd" clip-rule="evenodd" d="M101.51 58.1199L101.22 56.7499C101.28 56.7099 101.34 56.6699 101.41 56.6299C102.4 55.9699 103.08 55.26 103.81 54.54C104.21 54.1399 104.48 53.7799 104.82 53.3399L105.79 52.04C105.7 52.67 105.04 53.7999 104.74 54.2499C104.6 54.4499 104.51 54.5699 104.37 54.7699C104.07 55.1899 103.9 55.5999 103.34 56.1599L103.28 56.26L103.22 56.3599L103.08 56.4699L103.02 56.57L102.96 56.67L102.82 56.7799L102.76 56.8799L102.7 56.98L102.56 57.0899L102.5 57.1899L102.36 57.2999L102.3 57.3999C102.07 57.5999 101.81 57.86 101.55 58.14L101.51 58.1199ZM98.2099 42.8099L96.3599 34.2199L98.3799 34.7399C98.2599 34.8799 98.2099 34.6699 98.2399 35.4099L98.3199 37.45C98.3599 39.2 98.1499 41.4399 98.1999 42.7399V42.7999L98.2099 42.8099ZM96.0999 32.9599L90.8999 8.76993C90.9799 8.63993 91.0499 8.52995 91.0999 8.46995C91.3099 8.25995 91.4799 8.05994 91.7099 7.83994C92.0299 7.52994 92.9199 7.03994 93.1099 6.74994C92.7499 6.31994 91.9799 6.32996 91.3099 6.47996C90.9199 6.56996 90.6699 6.65994 90.4699 6.77994L90.4299 6.57993C92.3299 4.83993 95.0499 3.88994 97.8399 4.77994C98.9099 5.11994 99.8399 5.60995 100.58 6.28995C102.42 7.96995 102.94 10.4999 102.67 13.1899C102.48 15.0399 101.24 17.8399 100.18 18.9299L100.12 19.0299L100.06 19.1299L99.9999 19.23L99.8599 19.3399L99.7999 19.4399L99.7399 19.54L99.6799 19.64L99.5399 19.7499L99.4799 19.8499L99.4199 19.95L99.3399 19.9699L99.2799 20.07L99.2199 20.17L99.0799 20.2799L99.0199 20.3799C97.8699 21.3099 97.5899 21.5899 97.7799 22.9699C98.2499 26.3599 98.0599 26.9899 98.2199 29.9599C98.2799 31.0599 98.2399 32.3999 98.3499 33.4299C97.8899 33.1999 97.9899 33.2699 97.4099 33.1599C97.0599 33.0899 96.6099 33.02 96.1399 32.98L96.0999 32.9599ZM90.4199 6.57993L90.4599 6.77994C90.1899 6.93994 90.0099 7.14996 89.7199 7.44996C89.3599 7.82996 88.4599 9.81993 88.6699 10.7999C88.8999 11.8199 89.7699 11.32 90.0099 10.73C90.1599 10.35 90.5799 9.31994 90.8799 8.77994L96.0799 32.9699C95.3799 32.9099 94.6599 32.9499 94.2099 33.2399C94.2799 33.7099 94.6599 33.7499 95.0799 33.8999L96.3399 34.23L98.1899 42.82C98.2299 43.68 98.3499 43.3299 97.8199 43.8999C97.5999 44.1399 97.2799 44.5899 97.0699 44.7399C96.5599 42.8999 95.3199 41.3299 93.2599 41.2999C89.0999 41.2499 88.3499 46.7399 87.9799 49.7799C87.8699 50.7299 87.7799 51.6699 87.7499 52.6499C87.7299 53.1999 87.8399 55.2799 87.7199 55.5799C87.6699 55.1799 87.0199 54.8199 86.7399 54.5799C86.1399 54.0799 86.1899 54.2 85.5999 53.79C84.7699 53.2099 84.0399 52.6999 83.3199 52.2199L80.0799 37.17C80.3799 37 80.8699 37.07 81.1499 37.17C81.4899 37.3 81.6599 37.5999 81.8099 38.07C82.4299 39.9899 81.2499 41.6499 82.8699 42.4699C83.5599 42.8199 84.4499 42.4299 84.8599 41.8399C85.2299 41.2999 85.1599 40.3299 85.1199 39.5999C85.0299 37.8299 84.3899 36.1599 83.3699 35.1099C82.6499 34.3699 80.8999 33.6199 79.4299 34.1099L75.7899 17.1799C78.5399 17.4399 81.2899 17.75 83.9299 18.2C84.6099 18.32 86.7999 18.81 87.3499 18.57C88.6699 17.99 87.7399 16.43 87.5599 15.14C87.3299 13.5 87.4899 11.4299 88.1299 9.93995C88.2599 9.63995 88.3499 9.45996 88.4699 9.19996C88.9199 8.23996 89.5899 7.33994 90.4099 6.58994L90.4199 6.57993ZM101.21 56.7499C100.24 57.3799 99.1599 57.9099 97.8899 58.0599C96.7699 58.1999 95.6099 57.8999 94.7199 57.3399C92.7199 56.0699 91.8599 53.2799 91.4899 51.07C91.2299 49.5499 90.9799 46.2199 91.8699 44.8399C91.9999 44.6299 92.2099 44.41 92.3099 44.17C90.7799 45.13 90.2899 50.82 90.2099 52.64C90.1599 53.74 90.2999 54.87 90.2299 55.95C90.1599 57.08 90.1899 57.9999 90.2899 59.2199C90.3799 60.3599 90.3199 61.41 90.2899 62.52C90.2699 63.6 90.2999 64.7299 90.3399 65.8499C90.3699 66.9499 90.2999 68.02 90.2599 69.09C90.2099 70.15 90.2299 71.2399 90.2099 72.2899C90.1899 73.3699 90.0999 74.3899 90.0399 75.4899C89.9999 76.2399 89.9399 79.35 89.8699 82.63L105.9 157.14C106.36 157.12 106.81 157.01 107.22 156.78C108.13 156.28 108.24 155.65 108.45 154.96C108.52 154.73 108.41 154.69 108.6 154.79C108.78 153.9 108.04 152.45 107.69 151.61C107.28 150.64 107.72 149.49 107.85 148.6C108.15 146.54 108.28 144.71 108.18 142.49C107.94 137.2 106.09 134.58 103.69 130.71C103.57 130.74 103.6 130.76 103.58 130.65C103.43 130.16 103.04 129.81 102.87 129.29C102.56 128.36 102.95 128.33 103.1 127.8C103.49 126.37 103.46 119.77 103.4 118.18C103.12 110.03 101.66 104.65 98.9599 97.1599C97.4699 93.0299 97.7299 95.1699 98.0299 90.8599C98.2399 87.7999 98.6199 84.4099 98.7099 81.4799L98.8199 78.2499L98.8799 78.15L98.8299 77.9099L98.8899 77.8099L98.8499 77.65L98.8999 77.4699L98.8599 77.3099C98.7999 77.0399 98.8099 77.2199 98.9099 77.13L98.8699 76.9699L98.9199 76.7899L98.8799 76.63L98.9299 76.45L98.8799 76.21L98.9399 76.1099L98.8899 75.8699L98.9499 75.77L98.8999 75.53L98.9599 75.4299C98.8999 75.1199 98.8399 73.24 99.0499 72.89C99.0299 72.88 99.0099 72.8599 98.9899 72.8499L98.0799 71.9999C97.7799 71.6999 97.4399 71.3699 97.1399 71.1199C96.6099 70.6699 95.3999 69.8599 95.2599 69.4099C95.9299 69.0299 97.0199 69.75 97.3399 69.96L98.9199 71.1799C98.9199 71.1799 98.9599 71.2 98.9799 71.21L98.9999 68.3699C98.0699 67.4499 96.7999 66.4799 95.6699 65.8499C95.0599 65.5099 94.6899 65.42 94.6299 65.02C95.8299 64.36 97.8399 65.7199 98.7699 66.5599L99.0099 66.76C98.9299 66.39 98.8299 61.2399 98.9099 60.9899C99.0299 60.5799 100.06 59.5699 100.51 59.1299C100.83 58.8199 101.17 58.4499 101.5 58.0999L101.21 56.73V56.7499ZM75.8099 17.17L79.4499 34.1C79.4499 34.1 79.3699 34.1299 79.3199 34.1499C76.1499 35.3799 75.3699 40.4499 76.7399 41.4599C77.2999 41.8699 78.3299 41.6899 78.7599 41.1099C79.1299 40.6199 78.9699 39.33 79.4899 38.01C79.5699 37.8 79.8899 37.2799 80.0899 37.1599L83.3299 52.2C82.2099 51.47 81.0999 50.8399 79.6599 50.2199C77.9599 49.4799 75.7399 48.24 74.2999 47.04C74.0999 46.87 73.9299 46.7399 73.7599 46.5999C73.0099 45.9699 72.2499 45.28 71.5599 44.45L68.3099 29.3399C68.3299 29.0999 68.3399 28.8599 68.3599 28.6199C68.5299 26.5299 68.7699 24.53 68.9699 22.42C69.0599 21.47 69.3299 18.7099 69.5199 17.8299C69.6899 17.0499 69.8099 17.1899 70.0799 16.6499C71.9699 16.8299 73.8799 16.99 75.7899 17.17H75.8099ZM89.8899 82.6099L105.92 157.12C104.96 157.17 103.95 156.86 103.18 156.46L102.13 155.86C101.19 155.25 100.72 154.31 100.26 154.17C98.9299 151.93 99.3399 148.17 98.8499 145.51C98.5799 144.06 97.9799 142.65 97.4099 141.34C96.8599 140.08 96.0399 138.99 95.5599 137.87C96.9599 136.92 97.1499 136.76 98.1499 135.5C98.3299 135.27 98.5899 134.89 98.5599 134.48C96.9699 134.09 94.3199 135.78 93.0299 136.44C92.5599 136.68 92.0499 136.91 91.5299 137.13L89.5099 127.73C89.6699 127.51 89.8099 127.31 89.8999 127.14C90.4799 126.09 90.6399 126.17 91.4699 124.44C95.2199 116.65 92.2599 104.95 88.9299 97.26C88.3999 96.03 86.9899 93.38 86.7699 92.83L86.7999 92.7399C87.7399 91.8499 88.9999 92.58 89.5499 91.53C89.6899 91.27 89.7999 86.78 89.8899 82.58V82.6099ZM66.3699 20.2699C66.4899 19.5299 66.6099 18.81 66.7099 18.14C66.7899 17.61 66.9599 16.94 66.9899 16.42C66.5999 16.35 66.0699 16.3099 65.5099 16.2799L66.3699 20.26V20.2699ZM65.5199 16.29L66.3799 20.2699C65.8799 23.2999 65.2299 26.74 64.4699 29.26C63.9699 30.91 62.4899 34.9799 61.5499 36.3699C61.2299 36.8499 61.0799 37.1999 60.7699 37.6499C60.2299 38.4299 59.6399 39.23 58.8899 40.01C57.0199 41.96 54.3999 43.5499 51.4499 44.6899L49.3399 34.8599C50.0099 34.4599 50.7299 34.7799 51.0799 35.2699C52.0799 36.6699 50.7299 38.9099 52.2599 39.8299C52.7999 40.1599 53.9299 40.14 54.2999 39.45C54.6299 38.83 54.5899 37.9999 54.5299 37.1299C54.3799 34.9699 53.9899 32.9999 51.9299 32.1599C50.9699 31.7699 49.7799 31.44 48.6799 31.79L47.7299 27.3599C47.8799 26.6299 48.0099 25.8599 48.0899 25.1199C48.1999 24.0399 48.4599 22.26 48.4599 21.23C48.4599 20.43 48.3099 20.4599 47.9199 20.0499C46.9699 20.1699 46.9099 20.79 46.7399 22.14L46.6999 22.51L46.0899 19.6899C46.0699 19.3699 46.0099 19.1299 45.9199 18.9099L44.4599 12.14C44.4299 11.03 44.5299 10.0199 45.0199 9.12995C45.1099 8.95995 45.2499 8.82995 45.3499 8.65995C46.2199 7.23995 47.9999 7.59993 48.7899 6.73993C48.6999 6.26993 48.3199 6.19993 47.8799 6.07993C46.2599 5.61993 44.6499 6.45996 43.9099 7.72996C43.8099 7.89996 43.7099 8.01996 43.5999 8.16996L43.2999 6.76993C43.5399 6.47993 43.8299 6.19994 44.2099 5.86994C45.4199 4.82994 46.5499 4.42994 48.3299 4.52994C49.9099 4.61994 50.8299 5.31993 51.7099 6.10993C52.4199 6.74993 53.5799 8.43994 53.8399 9.61994C54.2199 10.6699 54.3999 12.0699 54.4799 12.9099C54.6099 13.5699 54.5199 14.2799 54.5499 14.9599C54.6299 16.6899 56.4499 16.1399 57.5399 16.1299L63.3099 16.23C63.9299 16.26 64.7499 16.2699 65.5199 16.3099V16.29ZM68.3199 29.3399C68.0599 33.3399 68.2499 38.4199 70.0599 42.1299C70.4999 43.0299 71.0099 43.79 71.5699 44.45L68.3199 29.3399ZM89.4999 127.75L91.5199 137.15C90.1699 137.7 88.7099 138.15 87.3299 138.56C82.7599 139.91 79.2899 140.27 74.6699 140.62C74.1699 140.66 73.6099 140.69 73.1299 140.66C72.7099 140.63 72.4499 140.46 72.0499 140.51L70.9199 135.27C71.9499 135.36 73.0699 135.34 74.4299 135.25C79.8699 134.89 84.2199 133.36 87.8999 129.6C88.2899 129.2 88.9999 128.41 89.4799 127.76L89.4999 127.75ZM53.5299 115.46C53.7499 114.85 53.5599 113.77 53.5299 113.02C53.3099 108.01 53.3599 102.47 53.9999 97.52C54.0499 97.1 54.0899 96.7199 54.1399 96.2999C54.1899 95.8499 54.3099 95.4299 54.3399 95.0499L53.5499 94.5499C53.4699 95.0799 52.9699 96.2199 52.7299 96.7499C51.9999 98.3499 51.2899 100.23 50.6399 102L53.5299 115.45V115.46ZM43.2899 6.76993L43.5899 8.16996C43.4199 8.40996 43.2499 8.69995 43.1199 9.28995C42.9099 10.2 42.7399 11 43.0599 12.01C43.4199 13.13 44.4899 13.6299 44.4499 12.1599V12.1299L45.9099 18.8999C45.6699 18.3299 45.1799 18 44.5199 17.23C42.7799 15.17 41.5999 11.8299 42.2899 9.01993C42.5499 7.96993 42.7999 7.35995 43.2999 6.75995L43.2899 6.76993ZM46.0599 19.6799L46.6699 22.4999C46.4899 24.0299 46.3099 25.7599 45.9999 27.1599C45.9199 27.5399 45.7599 28.0099 45.6899 28.3299C45.5799 28.8899 45.8499 29.4399 46.3599 29.4899C47.3999 29.5999 47.4899 28.3399 47.6599 27.5799C47.6799 27.4999 47.6899 27.4199 47.7099 27.3399L48.6599 31.7699C48.6099 31.7899 48.5499 31.8099 48.4999 31.8299C46.2599 32.6899 45.6399 34.9999 45.2899 36.9999C44.7799 39.8299 46.5699 40.0499 47.6899 39.0199C48.6499 38.1299 47.9299 36.1 49.0799 35.04C49.1599 34.96 49.2499 34.9 49.3299 34.85L51.4399 44.6799C49.7399 45.3299 47.9299 45.84 46.0799 46.17C43.1899 46.69 41.5199 46.9099 38.9999 47.9599L38.3199 44.7799C38.7899 44.1399 39.2699 43.4699 39.6299 43.0299L41.7499 40.01C42.8799 38.17 44.0199 35.0599 44.4299 32.9399C44.9399 30.2999 45.0699 27.5099 45.4599 24.8099C45.6599 23.4499 45.8299 22.12 45.9999 20.76C46.0499 20.32 46.0699 19.96 46.0599 19.67V19.6799ZM70.9299 135.26L72.0599 140.5C71.9699 140.51 71.8699 140.54 71.7599 140.58C70.7399 140.96 70.6099 141.64 70.6399 142.75C70.8199 148.83 73.9899 159.09 73.9199 162.15L73.4399 161.77C73.2999 161.65 73.1599 161.53 72.9999 161.38L71.2199 160C70.9099 159.79 70.6499 159.56 70.3399 159.34C69.9999 159.1 69.6999 158.99 69.3299 158.77C67.6899 157.79 64.5599 156.53 62.3699 156.5L61.6399 153.12C63.8699 152.69 65.4999 154.17 67.2799 154.6C69.8999 155.23 70.1999 154.65 68.2399 152.79C67.6599 152.24 67.1699 152 66.4299 151.65C63.9899 150.48 64.0299 150.9 62.0499 150.57C61.3999 149.18 60.7799 145.03 60.5899 143.37C60.4399 142.01 60.1399 136.47 60.5099 135.29C60.6999 134.68 60.4599 134.31 60.2199 133.7C59.8299 132.67 59.4599 131.6 59.1199 130.52C58.4099 128.25 57.7299 125.81 57.2599 123.46L59.3899 127.86C60.7499 130.33 63.1099 132.49 65.5499 133.64C67.5999 134.61 69.1299 135.08 70.9299 135.23V135.26ZM34.2999 123.67L34.2299 123.77L34.2499 123.85L34.3099 123.92C34.4599 124.15 36.2399 125.55 36.5699 125.79C39.3299 127.79 42.1799 126.02 44.4499 126.55C45.0599 126.69 45.8099 127.09 46.0899 127.74C46.5899 128.87 45.6099 129.91 45.6599 131.01C45.6899 131.81 45.9599 131.46 46.2199 131.95C47.2099 131.34 48.4199 129.31 48.8599 128.4C50.5599 124.88 50.7799 123.39 51.8799 119.84C52.4299 118.05 52.6599 117.04 53.4699 115.58C53.4899 115.54 53.5099 115.5 53.5299 115.45L50.6399 102C50.4499 102.51 50.2699 103.02 50.0899 103.5C48.2399 108.53 46.0999 114.39 44.7999 119.66C44.6199 120.38 44.5399 121.54 43.9699 121.94C43.0499 122.58 42.6599 121.79 41.5999 121.62C39.8599 121.33 37.6499 121.06 36.0199 121.96C35.3099 122.35 34.4199 123.12 34.2999 123.66V123.67ZM38.3299 44.79L39.0099 47.9699C38.7999 48.0599 38.5799 48.1499 38.3499 48.2499C37.0199 48.8399 34.9899 49.8199 33.8999 50.7399C33.5099 51.0699 33.1499 51.51 32.6799 51.76C32.8499 51.35 34.5099 49.3099 34.9299 48.7999C35.6799 47.8699 36.5999 46.9299 37.3999 45.9999C37.6699 45.6799 37.9999 45.2499 38.3299 44.7999V44.79ZM61.6399 153.14L62.3699 156.52C62.0599 156.52 61.7699 156.54 61.4999 156.59C59.7499 156.92 57.9099 158.24 58.7799 160.05C57.7999 159.71 57.0099 157.66 57.6899 155.97C58.1199 154.89 59.4399 153.86 61.0099 153.32C61.2299 153.25 61.4399 153.19 61.6399 153.15V153.14Z" fill="#C7C8C8"/>
<path fill-rule="evenodd" clip-rule="evenodd" d="M98.3897 34.7399C98.8597 35.0299 100.28 35.1999 100.74 35.5799C101.05 35.5899 102.52 36.2499 102.93 36.4599C103.98 36.9899 105.05 37.5 106.04 38.14L107.9 39.51C109.31 40.68 109.27 40.67 110.54 41.91C111.08 42.44 111.7 43.12 112.18 43.73C114.39 46.49 116.22 49.2599 117.66 52.5799C119.13 55.9699 120.67 60.2 121.16 63.76C121.31 64.86 121.61 65.8899 121.76 66.9699L122.08 69.9899C122.26 69.7799 122.19 69.7399 122.24 69.4099L122.4 67.25C122.33 59.3699 120.33 53.42 116.28 46.75L114.76 44.53C113.57 42.79 111.18 40.2399 109.51 38.8399C108.73 38.1899 106.81 36.7699 105.98 36.3299C105.09 35.8599 104.1 35.29 103.18 34.92L100.74 33.9899C100.09 33.8699 98.9597 33.34 98.3097 33.41C97.8497 33.18 97.9497 33.25 97.3697 33.14C96.4897 32.98 94.9797 32.74 94.2297 33.23C94.2997 33.7 94.6797 33.74 95.0997 33.89L98.3897 34.7399Z" fill="#D7D8D8"/>
<path fill-rule="evenodd" clip-rule="evenodd" d="M124.34 54.4699C123.94 52.6099 124.03 52.7499 123.43 50.9899C123.3 50.5899 123.16 50.2399 123.04 49.8999C122.77 49.1699 122.53 48.5699 122.22 47.8699C121.91 47.1499 121.64 46.6499 121.31 45.9799C119.59 42.4599 115.54 37.2599 112.28 35.1799C111.95 34.9699 111.84 34.8799 111.53 34.6399C111.34 34.4899 111.02 34.2899 110.81 34.1699L109.23 33.3099C107.91 32.6599 106.28 31.9399 104.71 31.9099C104.9 32.2899 107.26 33.3899 107.82 33.6899C107.96 33.7699 108.02 33.8199 108.16 33.9099L112.27 36.6999C113.43 37.6199 115.26 39.4799 116.19 40.6299C117.61 42.4099 118.34 43.4299 119.5 45.3999L121.47 48.9399C121.81 49.5599 122.09 50.1199 122.41 50.7799C122.73 51.4199 123.02 51.9799 123.33 52.6499C123.51 53.0399 123.61 53.2799 123.8 53.6299C123.95 53.9099 124.11 54.3099 124.35 54.4799L124.34 54.4699Z" fill="#D7D8D8"/>
<path fill-rule="evenodd" clip-rule="evenodd" d="M92.6399 121.05L86.5799 92.89H86.5999L86.7599 92.8499C86.9799 93.3999 88.3899 96.05 88.9199 97.28C91.7899 103.91 94.3899 113.53 92.6399 121.04V121.05ZM83.8399 80.0999L80.4799 64.5099C80.6199 64.4799 80.7599 64.42 80.9099 64.34C82.3199 63.53 81.4399 61.24 79.8699 61.7L78.9899 57.5899C79.4999 57.3799 79.8799 57.09 79.8299 56.5099C79.7599 55.6199 79.0999 55.5399 78.5599 55.6099L77.1299 48.95C78.0099 49.45 78.8999 49.8999 79.6799 50.2399C82.0399 51.2699 83.5099 52.3099 85.6299 53.7899C86.2199 54.1999 86.1699 54.0899 86.7699 54.5799C87.0499 54.8099 87.6999 55.1799 87.7499 55.5799C87.8799 56.1999 87.7099 57.6599 87.7799 58.4999C87.9799 61.0699 87.7899 61.8999 87.8499 64.1799C87.8699 65.0999 87.9399 66.0799 87.9099 66.9999C86.1099 67.3499 86.2599 69.5599 87.3199 69.9999C87.7499 70.1799 87.6699 70.0299 87.7599 70.3099C87.8799 71.1699 87.7599 72.92 87.7099 73.83C87.6799 74.41 87.6499 74.9599 87.6199 75.5499C87.5699 76.5399 87.7499 76.42 87.2199 77.08C86.2999 78.23 85.2299 79.2299 83.8499 80.1199L83.8399 80.0999ZM92.3199 44.1599C92.2199 44.3999 92.0099 44.6299 91.8799 44.8299C90.9899 46.2199 91.2499 49.5399 91.4999 51.0599C91.8699 53.2699 92.7299 56.0599 94.7299 57.3299C95.6199 57.8899 96.7799 58.1899 97.8999 58.0499C99.2499 57.8799 100.39 57.2899 101.4 56.6099C102.39 55.9499 103.07 55.2399 103.8 54.5199C104.2 54.1199 104.47 53.7599 104.81 53.3199L105.78 52.0199C106.18 51.6199 107.8 45.6799 104.18 44.1799C102.79 43.6099 100.85 44.3399 99.8599 45.3099C98.9199 46.2299 98.1999 47.44 97.7199 48.67C97.1399 50.16 97.3499 49.7599 97.8599 50.5599C98.6099 51.7299 99.0199 53.8599 98.4099 55.0899C98.1999 55.5099 97.3099 56.4799 96.7299 55.7099C95.9699 54.7099 96.5699 53.5399 95.9399 52.1499C95.6899 51.5999 95.6199 51.7099 95.1499 51.4599C93.4799 50.5799 95.4999 49.5499 95.0099 47.4099C95.0099 47.3599 94.9699 47.2199 94.9699 47.1799C94.9699 47.0399 94.9699 47.0699 94.9999 46.9999L94.9299 46.6799L94.6599 45.3999C94.5699 44.9499 94.4899 44.6799 94.2799 44.3999L94.1799 44.3399C93.9999 44.0099 93.7499 43.76 93.3399 43.7299C92.9699 43.6999 92.4399 43.8899 92.3099 44.1599H92.3199ZM108.61 154.77C108.42 154.67 108.53 154.71 108.46 154.94C108.25 155.63 108.14 156.26 107.23 156.76C105.98 157.45 104.32 157.05 103.17 156.46L102.12 155.86C101.18 155.25 100.71 154.31 100.25 154.17C102.05 157.91 106.74 159.53 108.05 158.05C108.49 157.56 108.83 155.76 108.6 154.77H108.61ZM77.1299 48.9299L78.5599 55.5899C78.2299 55.6299 77.9499 55.7199 77.8699 55.7099C77.3799 54.0499 73.4599 55.2999 72.8299 56.6899L69.2399 40.0199C69.4699 40.7499 69.7399 41.4599 70.0599 42.1199C71.0499 44.1499 72.4199 45.4499 73.7699 46.5899C73.9299 46.7299 74.1099 46.8699 74.3099 47.0299C75.0899 47.6799 76.0999 48.3399 77.1199 48.9299H77.1299ZM78.9899 57.5899L79.8699 61.7C79.7599 61.7299 79.6399 61.7799 79.5199 61.8399C77.9099 62.6899 78.9899 64.8799 80.4699 64.5099L83.8299 80.0999C83.3399 80.4099 82.8199 80.7099 82.2499 80.9999C81.0299 81.6199 79.7499 82.21 78.4199 82.65L76.1999 72.3499C76.1999 72.3499 76.2899 72.3299 76.3299 72.3099C77.8599 71.7399 77.0599 68.6099 75.6199 69.5999L73.0499 57.6799C73.3899 58.5299 74.2199 58.4399 75.1599 58.3799C76.1599 58.3199 77.0799 58.1699 78.0699 57.8699C78.3899 57.7699 78.7199 57.6899 78.9999 57.5699L78.9899 57.5899ZM86.5899 92.89L92.6499 121.05C92.3699 122.25 91.9799 123.39 91.4699 124.47C90.6399 126.2 90.4799 126.12 89.8999 127.17C89.6299 127.66 88.9599 128.47 88.4099 129.08L81.1199 95.1899C81.8199 94.9199 82.5499 94.6099 83.4599 94.2299C84.2599 93.8999 85.5799 93.2099 86.3199 93.0499L86.4599 92.9399L86.5999 92.9099L86.5899 92.89ZM68.5199 36.6299L65.7599 23.7799C66.1299 21.8299 66.4599 19.8499 66.7299 18.1499C66.8099 17.6199 66.9799 16.9499 67.0099 16.4299L70.1099 16.6499C69.8299 17.1899 69.7199 17.0499 69.5499 17.8299C69.3499 18.7099 69.0899 21.47 68.9999 22.42C68.7999 24.53 68.5599 26.5399 68.3899 28.6199C68.1999 31.0099 68.1499 33.8699 68.5299 36.6299H68.5199ZM65.7499 23.7799L68.5099 36.6299C68.6699 37.7999 68.9099 38.9399 69.2399 40.0299L72.8299 56.7C72.6799 57.04 72.7199 57.3799 73.0399 57.6899L75.6099 69.6099C73.6399 70.9799 75.0999 72.5899 76.1999 72.3499L78.4199 82.65C77.3799 82.99 76.3099 83.24 75.1799 83.33C73.0499 83.51 70.2599 83.25 68.3599 82.83C67.3099 82.6 66.3099 82.25 65.3499 81.96C62.5399 81.11 59.5199 79.75 56.8199 78.58C55.7499 78.12 54.4899 77.7099 53.1199 77.4899L46.9499 48.8299H47.1099C47.5099 48.7999 50.1699 48.85 49.3799 47.67C48.9899 47.09 47.7299 47.0699 46.5999 47.2099L46.3599 46.0999C51.2999 45.1699 55.9799 43 58.8799 39.9799C59.6299 39.1999 60.2199 38.3999 60.7599 37.6199C61.0699 37.1699 61.2199 36.8199 61.5399 36.3399C62.4799 34.9499 63.9599 30.87 64.4599 29.2299C64.9399 27.66 65.3699 25.7199 65.7499 23.7499V23.7799ZM81.1099 95.1699L88.3999 129.06C88.2099 129.27 88.0399 129.45 87.9099 129.59C84.2299 133.35 79.8799 134.88 74.4399 135.24C70.7299 135.49 68.7899 135.2 65.5599 133.67C65.4299 133.61 65.2899 133.54 65.1599 133.47L60.3999 111.36C60.6799 111.47 60.9799 111.54 61.2799 111.55C62.8399 111.63 64.2699 110.08 64.6999 109.02L64.7599 108.92L64.8199 108.82L64.8799 108.72L64.9299 108.54L64.9899 108.44C65.1399 108.28 65.0899 108.41 65.0999 108.17C65.3299 107.92 65.5399 107.13 65.6299 106.76C65.7499 106.85 66.6399 108.15 67.1499 108.71C69.0299 110.77 72.1999 111.44 73.7099 109.27C74.6199 107.96 74.4399 105.83 73.4399 104.08C72.1699 101.85 70.4299 100.85 70.1899 100.53C71.5199 100.69 72.6599 102.75 73.8599 101.61C74.4299 101.07 74.3499 100.61 74.2799 99.6199C74.2199 98.8299 74.1899 98.0399 74.1299 97.2399C75.0899 96.8799 76.3899 96.6199 77.4099 96.3499C78.9599 95.9299 79.9999 95.58 81.0999 95.15L81.1099 95.1699ZM71.8599 164.62L70.8099 159.72C70.9399 159.82 71.0699 159.92 71.2199 160.02L72.9999 161.4C73.1599 161.54 73.2999 161.66 73.4399 161.79L73.9199 162.17C74.0099 162.87 73.9899 163.8 73.7299 164.33C73.1699 164.6 72.5199 164.66 71.8599 164.62ZM58.8899 104.37L58.9099 104.33C59.6399 102.77 61.1099 101.62 61.4899 101.13C60.1999 101.29 59.7299 102.14 59.3599 102.42C59.0999 102.62 58.8099 102.71 58.5499 102.72L58.8999 104.36L58.8899 104.37ZM57.3299 97.09L57.1899 96.4399L57.3199 96.4799C57.3299 96.6499 57.3399 96.85 57.3299 97.09ZM46.3699 46.1299L46.6099 47.2399C45.9099 47.3299 45.2699 47.4799 44.9199 47.5999C44.2199 47.8299 43.9499 47.9799 44.1899 48.7199C45.0199 49.0499 45.8899 48.9099 46.9599 48.8499L53.1299 77.5099C52.2799 77.3699 51.3999 77.31 50.4899 77.34C49.2199 77.39 48.2199 77.5499 47.3799 77.7599L42.9499 57.1499C43.6899 57.3599 44.7599 57.5999 45.4399 57.2799C45.8699 57.0799 46.1399 56.6399 45.9599 56.0499C45.7599 55.4099 45.3899 55.4699 44.8099 55.2899C44.5099 55.1899 44.3199 54.8799 44.0699 54.7199C43.8699 54.5899 43.3899 54.4099 43.0899 54.3199C42.8499 54.2499 42.5899 54.1999 42.3099 54.1799L40.8299 47.2899C42.4799 46.7699 43.9499 46.55 46.0999 46.17C46.1899 46.15 46.2799 46.1399 46.3799 46.1199L46.3699 46.1299ZM57.1899 96.45L57.3299 97.0999C57.3099 98.5599 57.0699 101.08 57.3099 101.86C57.4799 102.4 57.9799 102.75 58.5399 102.73L58.8899 104.37C58.3299 105.58 57.7599 106.91 58.2699 108.75C58.6099 110 59.4099 110.97 60.3999 111.37L65.1599 133.48C62.8699 132.29 60.6799 130.23 59.3999 127.89L57.2699 123.49C55.8999 117.13 55.6499 109.03 55.9799 102.51C56.0099 101.86 56.4199 96.9 56.6299 96.27L57.1999 96.45H57.1899ZM70.7999 159.71L71.8499 164.61C70.9599 164.56 70.0599 164.33 69.3799 164.21C68.1199 163.98 67.0099 163.84 65.8299 163.57L64.3699 156.79C66.1899 157.22 68.1299 158.08 69.3099 158.78C69.6799 159 69.9799 159.11 70.3199 159.35C70.4899 159.47 70.6399 159.59 70.7899 159.71H70.7999ZM40.8199 47.2999L42.2999 54.1899C41.7699 54.1599 41.2099 54.2299 40.7399 54.5199C40.1399 54.5199 39.6299 54.3799 39.3699 54.9599C38.8199 56.1599 41.4199 56.6899 42.5099 57.0299C42.6299 57.0699 42.7799 57.1099 42.9399 57.1599L47.3699 77.77C45.4499 78.25 44.3999 79.0099 43.0299 79.3099L42.8899 79.4199L42.5699 79.4899C42.1899 79.5699 42.4199 79.5199 42.3499 79.6199C41.0999 79.8899 40.1899 80.15 39.2399 80.27L37.1199 70.4C37.1899 70.38 37.2499 70.3499 37.3199 70.3199C38.7899 69.6199 38.0699 66.9799 36.4999 67.5599L33.0499 51.5099C33.3499 51.2699 33.6199 50.9799 33.8999 50.7299C34.9899 49.81 37.0199 48.8399 38.3499 48.2399C39.2599 47.8299 40.0599 47.5299 40.8199 47.2899V47.2999ZM64.3799 156.8L65.8399 163.58C65.6999 163.55 65.5599 163.51 65.4099 163.48C64.4599 163.24 62.7899 162.55 61.7999 162.15C61.2199 161.91 59.0699 160.74 58.7799 160.06C57.9099 158.25 59.7499 156.93 61.4999 156.6C62.2899 156.45 63.3199 156.56 64.3899 156.82L64.3799 156.8ZM33.0499 51.5099L36.4999 67.5599C36.4999 67.5599 36.4199 67.5899 36.3699 67.6099C34.8599 68.3199 35.4599 70.95 37.1099 70.4L39.2299 80.27C38.6499 80.35 38.0599 80.37 37.3699 80.33L33.7299 63.4299C33.8499 63.4099 33.9799 63.3599 34.0899 63.2999C35.6499 62.4699 34.6399 59.8599 33.0499 60.3099L31.5499 53.3299C31.9999 52.5299 32.4099 51.91 32.6699 51.7599C32.7999 51.6899 32.9199 51.6099 33.0399 51.5199L33.0499 51.5099ZM46.2299 131.96C45.9699 131.47 45.6999 131.82 45.6699 131.02C45.6199 129.92 46.5999 128.88 46.0999 127.75C45.8099 127.1 45.0699 126.7 44.4599 126.56C42.1899 126.03 39.3299 127.8 36.5799 125.8C36.2499 125.56 34.4599 124.16 34.3199 123.93L34.1999 123.95C34.0599 124.12 34.0499 124.16 33.9999 124.45C33.7499 126.13 35.0099 127.11 36.3599 127.73C40.2599 129.53 42.8599 126.29 44.2099 127.7C45.1299 128.67 43.9199 129.55 43.7499 129.91C43.4999 130.41 43.1199 131.85 43.7899 132.4C44.3999 132.9 45.6899 132.46 46.2499 131.96H46.2299ZM31.5599 53.3299L33.0599 60.3099C32.9599 60.3399 32.8599 60.3799 32.7499 60.4299C32.1699 60.7299 31.6099 61.6999 32.1099 62.4899C32.1399 62.5299 32.8499 63.2699 32.8899 63.2999C33.0999 63.4399 33.4199 63.4899 33.7299 63.4299L37.3699 80.33C37.1399 80.31 36.8999 80.2899 36.6399 80.2599C34.6499 80 33.9299 79.5599 32.3899 78.5499L31.4599 77.8599C31.2799 77.6799 30.9899 77.0999 30.8299 76.8099C29.3399 74.0499 28.4799 72.06 28.1499 68.77C28.5699 68.64 29.5099 68.65 29.4599 67.27C29.4399 66.65 29.2999 66.51 29.0299 66.08C28.7899 65.7 28.6699 65.42 28.1499 65.71L28.0799 65.6099C27.9199 64.9699 28.2999 62.2999 28.4299 61.5799C28.6499 60.3499 28.9299 59.0199 29.3199 57.9599C29.5199 57.4099 30.6199 54.9899 31.5599 53.3299Z" fill="#FAD9D0"/>
<path fill-rule="evenodd" clip-rule="evenodd" d="M48.7598 32.5099C50.1598 32.0399 51.6298 32.6899 52.2898 33.2799C53.6998 34.5399 54.1998 38.6599 53.4498 39.1899C52.6998 39.7099 52.1798 39.0499 52.1598 38.2899C52.1198 36.9699 51.9998 34.9199 50.9398 34.3099C50.1798 33.8699 49.5798 33.8699 49.1098 34.1299L49.2798 34.8999C49.9598 34.4499 50.7198 34.7799 51.0698 35.2699C52.0698 36.6699 50.7198 38.9099 52.2498 39.8299C52.7898 40.1599 53.9198 40.1399 54.2898 39.4499C54.6198 38.8299 54.5798 37.9999 54.5198 37.1299C54.3698 34.9699 53.9798 32.9999 51.9198 32.1599C50.9398 31.7599 49.7298 31.4299 48.6198 31.8099L48.7698 32.5099H48.7598ZM48.5698 32.5799C48.6298 32.5499 48.6998 32.5299 48.7598 32.5099L48.6098 31.8099C48.6098 31.8099 48.5398 31.8299 48.4998 31.8499C46.2598 32.7099 45.6398 35.0199 45.2898 37.0199C44.7798 39.8499 46.5698 40.0699 47.6898 39.0399C48.6498 38.1499 47.9298 36.1199 49.0798 35.0599C49.1498 34.9999 49.2098 34.9499 49.2798 34.8999L49.1098 34.1299C48.1298 34.6699 47.7098 36.3599 47.5298 37.4899C47.4298 38.1099 47.4298 38.9199 46.5498 38.8799C44.9898 38.7999 46.2698 33.5299 48.5698 32.5799Z" fill="white"/>
<path fill-rule="evenodd" clip-rule="evenodd" d="M79.5399 34.89C80.6099 34.47 82.05 34.7399 82.94 35.5999C84.42 37.0299 84.65 40.7799 84.19 41.4499C83.77 42.0599 82.8299 41.7699 82.7299 41.0599C82.5899 40.0499 82.99 38.2299 81.94 36.9299C81.57 36.4699 80.9 36.1499 80.13 36.3999C80.05 36.4299 79.97 36.4699 79.89 36.5099L80.0399 37.1999C80.0399 37.1999 80.08 37.1699 80.1 37.1599C80.4 36.9799 80.8999 37.0499 81.1799 37.1599C81.5199 37.2899 81.6899 37.5899 81.8399 38.0599C82.4599 39.9799 81.2799 41.6399 82.8999 42.4599C83.5899 42.8099 84.48 42.4199 84.89 41.8299C85.26 41.2899 85.1899 40.3199 85.1499 39.5899C85.0599 37.8199 84.4199 36.1499 83.3999 35.0999C82.6699 34.3499 80.87 33.5799 79.38 34.1299L79.5399 34.8799V34.89ZM79.27 35.0099C79.36 34.9599 79.4499 34.92 79.5399 34.89L79.38 34.14L79.33 34.1599C76.16 35.3899 75.38 40.4599 76.75 41.4699C77.31 41.8799 78.34 41.6999 78.77 41.1199C79.14 40.6299 78.98 39.3399 79.5 38.0199C79.57 37.8299 79.8399 37.3899 80.0399 37.2199L79.89 36.5299C79.42 36.8199 79.1 37.4399 78.95 37.7399C78.02 39.5199 78.72 40.7899 77.61 40.9699C75.8 41.2699 76.97 36.2499 79.27 35.0199V35.0099Z" fill="white"/>
<path fill-rule="evenodd" clip-rule="evenodd" d="M63.3199 97.77C62.7199 97.99 62.4499 97.62 61.9199 97.58L62.1299 98.5599C62.7699 98.5399 63.3899 98.6399 64.2699 98.7899C64.2199 97.9299 64.2199 96.9499 64.2299 96.0999C64.2299 95.4199 64.3899 94 64.2699 93.45C63.2699 93.17 62.5899 92.53 60.9399 93.03L61.1999 94.2299C61.7799 93.8599 63.3899 94.2 63.6099 94.59C63.8899 95.08 62.7699 94.63 62.5699 94.59C62.1999 94.51 61.6499 94.6199 61.2699 94.6199L61.4599 95.51C62.2999 95.39 63.5099 95.73 63.7099 96.32C63.0199 96.46 62.6999 96.08 62.1599 95.96C62.0099 95.93 61.7999 95.96 61.5699 96.01L61.7999 97.08C62.4899 97.1 63.2299 97.3899 63.3099 97.7899L63.3199 97.77ZM61.9199 97.57C61.9199 97.57 61.8899 97.57 61.8699 97.57C61.4099 97.55 60.2399 98.18 60.6899 97.45C60.8699 97.15 61.3299 97.0399 61.8099 97.0499L61.5799 95.9799C61.0599 96.0899 60.5199 96.27 60.7199 95.89C60.8399 95.67 61.1199 95.5399 61.4699 95.4899L61.2799 94.5999C61.1599 94.5999 61.0599 94.5899 60.9899 94.5599C60.9899 94.4099 61.0699 94.2999 61.1899 94.2199L60.9299 93.02C60.8399 93.05 60.7599 93.0799 60.6599 93.1099C60.2899 93.2399 60.1699 93.2299 60.0699 93.5499C59.9399 93.9699 59.9999 94.6699 59.8399 95.0499C59.9199 95.4299 59.8699 95.1999 59.8099 95.3099L59.8299 95.39L59.7799 95.57C59.8399 96.02 59.6499 98.2399 59.7099 99.1199C60.7399 98.7399 61.4299 98.5799 62.1099 98.5599L61.8999 97.58L61.9199 97.57Z" fill="white"/>
<path fill-rule="evenodd" clip-rule="evenodd" d="M69.1298 96.5299C69.8998 96.4699 70.6098 96.5599 70.7498 96.8299C71.0998 97.5299 70.1598 97.0299 69.2398 97.0199L69.4398 97.9499C70.1798 97.9799 70.8798 98.1799 71.7598 98.4799C71.7198 97.6299 71.6198 93.5399 71.4498 93.0599C71.1298 92.9699 70.8998 92.8699 70.5298 92.7799L69.5798 92.6499C69.5798 92.6499 69.5398 92.6499 69.5198 92.6399C69.1198 92.7299 68.7098 92.7299 68.3098 92.7599L68.4998 93.6499C69.1198 93.5799 69.8098 93.6599 70.3398 94.0099C70.7398 94.2699 70.9798 94.1299 70.9898 94.6899C70.3398 94.9299 69.8698 93.9599 68.5998 94.1299L68.8098 95.0999C69.8298 95.0399 70.9198 95.2999 70.6198 95.8799C70.1298 95.9699 70.3698 95.7999 69.8898 95.6799C69.5498 95.5999 69.2197 95.5899 68.9297 95.6199L69.1298 96.5299ZM67.0198 97.4799C66.9698 96.9599 68.0998 96.6099 69.1298 96.5299L68.9297 95.6199C68.1497 95.6799 67.5598 95.9899 67.2598 95.9299C67.0898 95.4299 67.9298 95.1499 68.8098 95.0999L68.5998 94.1299C68.3298 94.1599 68.0198 94.2499 67.6698 94.4099C67.2498 94.5999 66.5598 94.6499 67.0198 94.1999C67.2698 93.9499 67.8498 93.7199 68.4998 93.6499L68.3098 92.7599C68.1898 92.7699 68.0798 92.7799 67.9598 92.7999C67.3898 92.8999 66.9598 93.2299 66.4998 93.3699L66.6998 98.5299C67.8398 98.0899 68.6597 97.9299 69.4297 97.9599L69.2298 97.0299C69.2298 97.0299 69.1798 97.0299 69.1598 97.0299C67.7298 97.0699 67.5298 97.6999 67.0098 97.4899L67.0198 97.4799Z" fill="white"/>
<path fill-rule="evenodd" clip-rule="evenodd" d="M99.0199 68.3899C99.4499 68.7299 101.21 70.5498 101.47 71.1598C101.68 71.3198 101.65 71.3699 101.81 71.5899L102.83 73.0899C103.29 73.7999 103.66 74.4699 104.07 75.2099C104.42 75.8399 106.12 79.1499 106.34 79.8899C106.64 79.5499 106.34 78.6999 106.25 78.3199C105.89 76.6499 105.35 75.1799 104.62 73.7099C104.08 72.6099 103.09 71.1099 102.32 70.1499C102.02 69.7799 101.69 69.4399 101.42 69.0599C101.12 68.8499 100.59 68.2199 100.27 67.8999C99.8599 67.4999 99.4299 67.0899 99.0199 66.7799L98.7799 66.5799C97.8499 65.7399 95.8399 64.3798 94.6399 65.0398C94.6999 65.4398 95.0699 65.5299 95.6799 65.8699C96.8099 66.4999 98.0899 67.4699 99.0099 68.3899H99.0199Z" fill="#D7D8D8"/>
<path fill-rule="evenodd" clip-rule="evenodd" d="M66.2297 101.89C66.7997 103.86 68.0597 106.64 69.7297 107.74C72.0397 109.26 73.0897 106.88 70.0397 103.65C68.0797 101.57 67.5097 102.3 66.2397 101.89H66.2297Z" fill="#E95513"/>
<path fill-rule="evenodd" clip-rule="evenodd" d="M47.8898 20.0399C46.9398 20.1599 46.8799 20.7799 46.7099 22.1299C46.5199 23.7499 46.3298 25.6499 45.9998 27.1599C45.9198 27.5399 45.7599 28.0099 45.6899 28.3299C45.5799 28.8899 45.8498 29.4399 46.3598 29.4899C47.3998 29.5999 47.4899 28.3399 47.6599 27.5799C47.8299 26.7799 47.9899 25.9099 48.0699 25.0999C48.1799 24.0199 48.4399 22.2399 48.4399 21.2099C48.4399 20.4099 48.2898 20.4399 47.8998 20.0299L47.8898 20.0399Z" fill="#D7D8D8"/>
<path fill-rule="evenodd" clip-rule="evenodd" d="M48.7699 6.7399C48.6799 6.2699 48.2999 6.19989 47.8599 6.07989C46.2399 5.61989 44.6299 6.45992 43.8899 7.72992C43.6399 8.15992 43.3399 8.3299 43.1099 9.2999C42.8999 10.2099 42.7299 11.0099 43.0499 12.0199C43.4099 13.1399 44.4799 13.6399 44.4399 12.1699C44.4099 11.0499 44.5099 10.0299 44.9999 9.1199C45.0899 8.9499 45.2299 8.8199 45.3299 8.6499C46.1999 7.2299 47.9799 7.58992 48.7699 6.72992V6.7399Z" fill="#D7D8D8"/>
<path fill-rule="evenodd" clip-rule="evenodd" d="M74.0299 94.7599C75.8599 94.2699 77.7399 93.7999 79.4999 93.1799C80.3399 92.8799 81.1299 92.5499 81.9399 92.2099L83.6599 91.4698C83.7499 91.4298 83.8999 91.3799 83.9799 91.3299L84.2699 91.1199C82.2499 91.5199 80.7599 91.8399 78.6099 92.0599C77.0499 92.2199 75.4599 92.2199 73.9199 92.3899L74.0299 94.7599Z" fill="#E95513"/>
<path fill-rule="evenodd" clip-rule="evenodd" d="M99.0598 72.9099C99.1698 73.1799 99.9698 73.98 100.24 74.32C100.53 74.69 101.25 75.4899 101.42 75.9199C101.78 76.2599 103.16 78.2299 103.5 78.7399C103.63 78.9399 103.71 79.06 103.85 79.26C104.05 79.55 104.09 79.61 104.29 79.64C103.93 77.96 103.13 76.52 102.31 75.15L101.46 73.89C101.28 73.79 100.45 72.77 100.22 72.52C99.9398 72.22 99.0798 71.45 98.9798 71.21C98.9598 71.21 98.9198 71.1599 98.9198 71.1799L97.3398 69.96C97.0198 69.75 95.9198 69.0299 95.2598 69.4099C95.4098 69.8599 96.6198 70.6699 97.1398 71.1199C97.4398 71.3699 97.7798 71.6999 98.0798 71.9999L98.9898 72.8499C98.9898 72.8499 99.0298 72.88 99.0498 72.89L99.0598 72.9099Z" fill="#D7D8D8"/>
<path fill-rule="evenodd" clip-rule="evenodd" d="M61.2599 109.13C62.8899 108.89 63.4299 104.87 63.2099 102.94C62.3099 103.48 61.4099 104.87 61.0299 105.56C60.4599 106.59 60.1899 108.17 61.2599 109.12V109.13Z" fill="#E95513"/>
<path fill-rule="evenodd" clip-rule="evenodd" d="M77.8698 55.72C78.0298 57.25 76.5498 56.3899 75.5598 56.6799C75.1098 56.8099 74.6098 57.1299 74.3198 57.3999C73.8598 57.8299 73.5998 57.91 73.0498 57.7C73.3898 58.55 74.2198 58.4599 75.1598 58.3999C76.1598 58.3399 77.0798 58.19 78.0698 57.89C78.9698 57.62 79.9098 57.42 79.8398 56.51C79.7298 55.09 78.0998 55.75 77.8798 55.72H77.8698Z" fill="#DFB5AA"/>
<path fill-rule="evenodd" clip-rule="evenodd" d="M93.0998 6.74987C92.7398 6.31987 91.9698 6.32988 91.2998 6.47988C90.3898 6.68988 90.2198 6.91988 89.7198 7.44988C89.3598 7.82988 88.4598 9.81986 88.6698 10.7999C88.8998 11.8199 89.7698 11.3199 90.0098 10.7299C90.1998 10.2499 90.7898 8.77988 91.0898 8.47988C91.2998 8.26988 91.4698 8.06988 91.6998 7.84988C92.0198 7.53988 92.9098 7.04988 93.0998 6.75988V6.74987Z" fill="#D7D8D8"/>
<path fill-rule="evenodd" clip-rule="evenodd" d="M44.1798 48.7198C45.0498 49.0598 45.9698 48.8998 47.0998 48.8398C47.4998 48.8198 50.1598 48.8698 49.3698 47.6898C48.7398 46.7398 45.8198 47.2898 44.9098 47.5898C44.2098 47.8198 43.9398 47.9698 44.1798 48.7098V48.7198Z" fill="white"/>
<path fill-rule="evenodd" clip-rule="evenodd" d="M32.7599 60.4299C32.1799 60.7299 31.6199 61.6999 32.1199 62.4899C32.1499 62.5299 32.8599 63.2699 32.8999 63.2999C33.1899 63.4899 33.6899 63.5199 34.0999 63.2999C35.7499 62.4099 34.5199 59.5299 32.7599 60.4299Z" fill="#DFB5AA"/>
<path fill-rule="evenodd" clip-rule="evenodd" d="M98.9897 71.2198C99.0897 71.4698 99.9497 72.2299 100.23 72.5299C100.46 72.7799 101.29 73.7899 101.47 73.8999C101.41 73.5799 101.45 72.8899 101.46 72.5299C101.48 72.0899 101.52 71.5899 101.46 71.1599C101.19 70.5499 99.4297 68.7299 99.0097 68.3899L98.9897 71.2299V71.2198Z" fill="#974D23"/>
<path fill-rule="evenodd" clip-rule="evenodd" d="M44.8099 55.3C45.1899 55.87 45.5499 56.63 44.6199 56.89C43.6999 57.15 43.6599 55.99 42.3299 55.83C41.8399 55.77 41.5999 55.95 41.2299 55.93C40.8799 55.91 40.1299 55.42 40.7499 54.53C40.1499 54.53 39.6399 54.39 39.3799 54.97C38.8299 56.17 41.4299 56.7 42.5199 57.04C43.1999 57.25 44.6099 57.69 45.4399 57.3C45.8699 57.1 46.1399 56.66 45.9599 56.07C45.7599 55.43 45.3899 55.49 44.8099 55.31V55.3Z" fill="#DFB5AA"/>
<path fill-rule="evenodd" clip-rule="evenodd" d="M79.5297 61.8299C77.7597 62.7599 79.2297 65.2899 80.9097 64.3299C82.4297 63.4599 81.2997 60.8899 79.5297 61.8299Z" fill="#DFB5AA"/>
<path fill-rule="evenodd" clip-rule="evenodd" d="M36.3799 67.6199C34.7999 68.3599 35.5199 71.1799 37.3199 70.3299C38.8299 69.6199 38.0299 66.8499 36.3799 67.6199Z" fill="#DFB5AA"/>
<path fill-rule="evenodd" clip-rule="evenodd" d="M75.6199 69.6098C73.5699 71.0398 75.22 72.7299 76.33 72.3199C77.86 71.7499 77.0599 68.6198 75.6199 69.6098Z" fill="#DFB5AA"/>
<path fill-rule="evenodd" clip-rule="evenodd" d="M28.1599 68.7599C28.5799 68.6299 29.5199 68.6399 29.4699 67.2599C29.4499 66.6399 29.3099 66.4999 29.0399 66.0699C28.7999 65.6899 28.6799 65.4099 28.1599 65.6999L28.0899 65.5999C27.8899 65.9899 28.1099 68.1699 28.1599 68.7599Z" fill="#DFB5AA"/>
<path fill-rule="evenodd" clip-rule="evenodd" d="M87.7598 70.2899C87.8398 70.0099 87.9198 67.4799 87.9098 66.9799C86.1098 67.3299 86.2598 69.5399 87.3198 69.9799C87.7498 70.1599 87.6698 70.0099 87.7598 70.2899Z" fill="#DFB5AA"/>
<path fill-rule="evenodd" clip-rule="evenodd" d="M57.3399 93.8399L57.4399 92.3199L54.6799 92.1399C54.9399 92.5599 55.5899 93.0099 55.9099 93.1799C56.2599 93.3599 56.9499 93.7899 57.3399 93.8399Z" fill="#E95513"/>
<path fill-rule="evenodd" clip-rule="evenodd" d="M70.9999 94.6899C70.9999 94.1299 70.7399 94.2699 70.3499 94.0099C69.2599 93.2999 67.5099 93.7099 67.0199 94.1899C66.5699 94.6399 67.2499 94.5899 67.6699 94.3999C69.6899 93.4899 70.1999 94.9799 70.9999 94.6799V94.6899Z" fill="#C7C8C7"/>
<path fill-rule="evenodd" clip-rule="evenodd" d="M67.0199 97.4799C67.5299 97.6899 67.7299 97.0599 69.1699 97.0199C70.1099 96.9899 71.1199 97.5499 70.7499 96.8299C70.4299 96.1999 66.9399 96.5699 67.0199 97.4799Z" fill="#C7C8C7"/>
<path fill-rule="evenodd" clip-rule="evenodd" d="M67.2698 95.9198C67.6798 96.0098 68.6498 95.3898 69.8998 95.6798C70.3898 95.7898 70.1398 95.9699 70.6298 95.8799C71.1898 94.7799 66.9098 94.8498 67.2698 95.9198Z" fill="#C7C8C7"/>
<path fill-rule="evenodd" clip-rule="evenodd" d="M63.7198 96.2999C63.4398 95.4699 61.1297 95.1299 60.7297 95.8999C60.4297 96.4599 61.6797 95.8399 62.1697 95.9499C62.7097 96.0699 63.0298 96.4499 63.7198 96.3099V96.2999Z" fill="#C7C8C7"/>
<path fill-rule="evenodd" clip-rule="evenodd" d="M63.3198 97.7699C63.1798 97.0899 61.1298 96.7399 60.6898 97.4599C60.2398 98.1899 61.4098 97.5599 61.8698 97.5799C62.4398 97.5999 62.6998 98 63.3198 97.78V97.7699Z" fill="#C7C8C7"/>
<path fill-rule="evenodd" clip-rule="evenodd" d="M60.9897 94.5599C61.2897 94.6899 62.0897 94.4699 62.5697 94.5699C62.7597 94.6099 63.8897 95.0599 63.6097 94.5699C63.3397 94.0999 61.0097 93.7099 60.9897 94.5599Z" fill="#C7C8C7"/>
<path fill-rule="evenodd" clip-rule="evenodd" d="M16.1399 13.9699C16.8199 17.0399 16.1199 16.2699 11.3899 17.8699C10.8499 18.0499 10.0799 18.3799 9.52994 18.2999C9.03994 18.2199 8.57994 17.8699 8.38994 17.3099C8.03994 16.2799 7.74994 14.4499 7.49994 13.3299C7.07994 11.4899 5.86994 7.14994 3.62994 8.72994C2.86994 9.26994 2.63994 10.3699 2.54994 11.5499C2.47994 12.5699 2.53994 14.0499 2.61994 15.0899C3.01994 20.1099 3.81994 25.5399 6.10994 30.0599C6.69994 31.2299 7.31994 32.0099 8.16994 32.4299C9.49994 33.0799 10.1799 32.2199 10.3999 31.0899C10.7899 29.0499 10.2199 25.7199 9.67993 23.6099C8.79993 20.1699 10.7499 21.2399 14.7499 19.9799C15.2499 19.8199 16.1099 19.4299 16.5799 19.4299C18.0999 19.4099 18.1399 22.2299 18.7599 24.1599C19.4499 26.2799 20.3699 29.3999 22.3199 29.6699C24.7899 30.0099 24.4499 25.5099 24.2799 24.0599C23.7399 19.4999 21.3999 14.0399 19.3999 10.0499C18.9399 9.12991 18.3099 7.84991 17.7299 7.10991C16.4999 5.52991 15.2499 5.81992 15.0499 6.26992C14.4299 7.65992 15.7699 12.2999 16.1399 13.9599V13.9699ZM30.4499 4.12993C30.5899 3.04993 29.6499 2.55991 28.9399 2.60991C28.2499 2.65991 26.4799 4.29994 27.8299 5.19994C29.4799 6.29994 30.3499 4.86992 30.4499 4.11992V4.12993ZM30.4099 12.5299C29.8999 12.8499 29.7899 13.4599 29.8399 14.0599C29.9899 16.0399 30.3799 18.5799 30.8099 20.4899C31.1199 21.8599 31.4999 23.1799 32.0899 24.4399C32.4799 25.2899 33.2999 27.1299 34.5099 26.5999C35.8799 26.0099 34.3399 20.0699 33.9499 18.7199C33.6599 17.7299 32.2399 11.3499 30.4099 12.5199V12.5299Z" fill="#F0AECC"/>
</svg>
