<svg width="256" height="309" viewBox="0 0 256 309" fill="none" xmlns="http://www.w3.org/2000/svg">
<path fill-rule="evenodd" clip-rule="evenodd" d="M104.63 282.4L107.27 278.99C108.03 279.36 108.79 279.79 109.56 280.34C112.71 282.58 115.09 286.81 118.5 287.58C118.99 286.27 121.7 274.72 122.37 272.35C123.82 267.22 125.25 262.07 126.71 256.93C127.18 255.26 127.67 253.6 128.17 251.93L135.3 242.7L132.75 251.3C132 253.86 131.18 256.26 130.53 258.82L127.34 270.23C125.74 275.86 124.84 280.04 123.45 285.39C123.11 286.71 122.83 287.87 122.45 289.18C122.17 290.15 122.08 291.68 120.37 291.91C119.52 292.02 119.05 292.02 118.18 291.84C113.74 290.95 112.09 288.54 109.36 285.7C107.68 283.96 106.16 283.04 104.64 282.39L104.63 282.4ZM170.52 197.14L179.24 185.86C180.25 185.84 181.65 185.97 182.38 186.04C183.73 186.16 185.39 186.18 186.58 186.37L186.78 186.34L187.08 186.4L187.28 186.37L187.58 186.43L187.77 186.41L187.97 186.38L188.27 186.44L188.46 186.42L188.66 186.39L188.96 186.45L189.16 186.42L189.36 186.39C190.71 186.51 191.43 186.27 192.3 186.21C192.71 186.18 192.97 186.18 193.38 186.13C194.29 186.02 196.49 185.64 197.4 185.07C198.35 185.15 207.87 180.73 205.85 174.38C205.07 171.94 201.98 170.22 199.64 170C197.41 169.79 195.04 170.17 192.92 170.9C190.34 171.78 191.09 171.61 190.61 173.17C189.92 175.43 187.59 178.3 185.32 178.87C185.14 178.91 184.88 178.94 184.59 178.94L199.03 160.25C199.21 162.13 198.51 164.07 197.37 165.75C197.8 165.86 198.74 165.78 199.29 165.81C200.64 165.87 199.99 166.12 201.17 165.03C202.8 163.53 205.95 161.35 208.18 159.38L210.75 157.03C211.69 156.17 211.47 156.48 211.78 156.48C211.92 157.42 213.25 159.45 213.26 160.46C211.87 161.67 210.46 163.03 209.08 164.11L204.94 167.38L206.7 168.74C208.4 170.14 209.35 171.5 209.97 173.48C210.31 174.54 210.43 175.78 210.34 176.9C209.82 183.55 202.8 188.12 197.1 189.68C195.86 190.02 194.97 190.21 193.72 190.38C193.03 190.47 192.62 190.42 191.95 190.5L188.51 190.72C187.21 190.74 180.31 189.97 179.82 190.16C179.74 190.19 170.9 198.02 170.48 198.12C170.46 197.89 170.48 197.54 170.52 197.17V197.14ZM233.45 115.69L237.21 110.82C239.27 110.72 241.34 110.97 243.47 111.72C248.07 113.33 251.64 116.11 253.61 120.2C254.82 122.71 255.53 125.6 255.41 128.39C255.17 134.08 251.32 138.58 246.83 141.85C243.63 144.18 239.84 145 236.1 145.48C234.13 145.73 232.53 145.88 230.47 145.59C229.82 145.5 229.55 145.42 229.03 145.96L225.36 149.77C223.71 151.39 221.94 152.68 220.29 154.3C218.71 155.86 216.95 157.39 215.32 158.67C214.76 157.7 214.21 155.64 213.4 154.88C214.61 153.59 216.41 152.17 217.77 150.89C221.46 147.42 222.48 146.97 226.38 142.64C227.97 140.87 228.63 140.93 231.11 141.41L231.31 141.38L231.61 141.45L231.81 141.42L232.01 141.39L232.12 141.47L232.31 141.45L232.51 141.42L232.81 141.48L233 141.46L233.2 141.43L233.39 141.4L233.7 141.46L233.89 141.44L234.08 141.42L234.28 141.39C236.87 141.57 241.88 140.12 244.49 138.33C248.29 135.73 251.02 132.27 251.18 128.03C251.24 126.33 250.86 124.57 250.13 122.81C247.39 116.21 239.92 113.94 234.13 115.49C233.87 115.56 233.66 115.61 233.43 115.67L233.45 115.69ZM237.21 110.82L233.45 115.69C233.26 115.74 233.06 115.8 232.81 115.87C230.17 116.68 227.3 118.74 225.42 120.84C223.93 122.5 222.92 125.41 220.72 124.34C219.81 123.9 218.04 120.5 217.45 119.49C215.12 115.53 212.47 111.58 209.76 107.67L212.46 104.18C213.51 105.74 214.56 107.29 215.59 108.83C216.7 110.49 217.82 112.05 218.86 113.76C219.42 114.68 221.25 117.86 221.88 118.62C224.56 115.15 228.39 112.72 232.28 111.65C233.94 111.2 235.58 110.89 237.22 110.81L237.21 110.82ZM199.03 160.23L184.59 178.92C183.64 178.92 182.39 178.57 182.67 177.34C183.14 175.24 185.32 174.74 186.44 172.4C186.88 171.48 186.66 171.49 186.47 170.62C185.79 167.48 189.34 168.98 191.59 165.99C191.78 165.93 191.64 166.03 191.87 165.84C191.98 165.75 192.04 165.63 192.12 165.52L192.46 165.08C192.81 164.97 193 164.64 193.27 164.3C193.47 164.05 193.8 163.65 193.82 163.32C194.31 162.72 194.57 162.31 194.71 161.73L194.68 161.53C194.91 160.93 194.96 160.33 194.54 159.77C194.17 159.27 193.35 158.78 192.85 158.9C189.92 157.96 181.97 163.58 179.53 165.47C178.04 166.62 176.73 168.03 175.25 169.13C173.7 170.28 172.53 171.33 171.06 172.8C169.68 174.17 168.25 175.25 166.77 176.44C165.34 177.59 163.91 178.88 162.49 180.16C161.1 181.41 159.63 182.49 158.19 183.6C156.76 184.7 155.36 185.92 153.98 187.05C152.55 188.22 151.12 189.22 149.64 190.34C148.58 191.14 144.23 194.68 139.72 198.32L150.27 184.67C151.53 183.72 153.11 182.5 153.86 181.66C154.32 181.46 157.69 178.78 158.34 178.22C159.58 177.26 160.77 176.09 161.95 175.05C164.85 172.47 166.13 171.8 169.26 168.72C170.28 167.71 172.36 166.32 173.02 165.48C173.53 165.3 176.12 162.89 176.86 162.3C178.16 161.26 179.49 160.34 180.85 159.45C185.2 156.58 193.18 151.53 197.67 157.01C198.5 158.02 198.92 159.12 199.03 160.24V160.23ZM179.24 185.85C178.79 185.85 178.41 185.9 178.21 185.99C177.81 186.17 171.21 191.95 170.82 192.46C170.86 193.33 170.8 194.35 170.73 195.32C170.7 195.8 170.59 196.51 170.53 197.13L179.25 185.85H179.24ZM135.3 242.71L137.27 236.07C138.35 232.3 139.82 228.22 140.85 224.61C141.17 223.48 141.93 221.85 142.07 220.79C142.22 219.65 141.96 220.21 143.04 219.36C143.66 218.88 144.14 218.52 144.76 218.09C149.81 214.65 153.38 211.9 158.16 208.28L161.51 205.64C161.89 204.93 162.14 203.13 162.3 202.34C162.45 201.61 162.61 199.69 162.84 199.25C162.15 199.35 159.77 201.5 159.43 201.92L159.24 201.95L158.98 202.28L158.79 202.31L158.54 202.64L158.34 202.66L158.09 202.99L157.81 203.12L157.64 203.34L157.36 203.47L157.19 203.69L156.91 203.82L156.74 204.04L156.46 204.17L156.29 204.39L156.09 204.41L155.84 204.74L155.64 204.76L151.32 208.17C147.4 211.28 142.58 214.51 138.36 217.59C132.42 221.93 134.93 219.24 131.19 225.72C124.42 237.46 119.02 245.27 108.72 254.58C106.71 256.4 98.16 263.69 95.8699 264.75C95.02 265.14 94.5499 264.68 93.6799 266.09C93.1999 266.88 93.16 267.76 92.69 268.5L92.7299 268.71C90.3299 276.08 88.95 281.37 82.34 287.49C79.56 290.06 77.04 291.9 74.03 293.77C72.72 294.58 70.75 295.27 69.94 296.87C69.24 298.25 68.1599 300.8 66.7999 301.55C65.7599 302.93 63.0399 304.46 61.9199 304.43C60.9199 304.41 59.94 303.69 59.15 302.53L56.51 305.95C56.87 306.38 57.25 306.77 57.65 307.11L58.14 307.49C61.6 309.94 65.59 308.1 68.53 305.72C70.41 304.19 71.4999 302.86 72.7899 300.57C73.5899 299.15 73.2299 298.98 74.5999 298.26C80.3899 295.23 88.16 288.8 91.44 283.22C91.99 282.28 92.47 281.36 92.96 280.35C93.36 279.52 93.7199 278.19 94.2199 277.42C94.7199 277.83 94.52 277.83 95.01 278.21L97.9 279.91C100.42 281.15 102.52 281.5 104.61 282.38L107.25 278.97C104.83 277.8 102.41 277.33 99.9099 276.2C94.5199 273.76 95.94 272.5 96.64 270.08C97.01 268.79 97.08 268.94 98.19 268.22C101.04 266.34 103.75 264.25 106.51 262.02C119.46 251.55 126.42 242.2 134.46 228.38C134.89 227.63 135.5 226.27 136.05 226.05C135.38 227.4 131.73 239.94 131.25 241.58C130.25 245.02 129.19 248.47 128.15 251.92L135.28 242.69L135.3 242.71ZM189.16 134.34L190.9 132.09C192.62 133.03 193.85 135.18 193.71 137.3C193.47 140.8 188.85 145.22 187.46 145.35C186.2 145.47 185.54 143.93 186.36 143.02C187.52 141.74 190.33 140.25 190.87 137.46C191.06 136.48 190.75 135.25 189.57 134.52C189.44 134.44 189.3 134.38 189.16 134.33V134.34ZM212.46 104.18L209.76 107.67C207.93 105.02 206.06 102.39 204.25 99.7798L201.13 95.5098C201.05 95.3698 200.96 95.2198 200.86 95.0698L203.51 91.6398C204.13 92.4598 204.75 93.2797 205.36 94.0997C207.8 97.3597 210.16 100.77 212.47 104.18H212.46ZM190.89 132.09L189.15 134.34C188.26 134.05 187.1 134.31 186.55 134.44C183.21 135.19 182.33 137.49 180.88 136.25C178.5 134.22 186.32 130.23 190.44 131.88C190.59 131.94 190.75 132.01 190.89 132.09ZM150.26 184.67L139.71 198.32C134.28 202.7 128.62 207.23 128.14 207.34C126.18 207.78 125.74 205.33 123.55 205.09C123.09 204.74 123.38 204.91 123.18 204.98L122.96 204.81L122.66 204.75C121.63 203.97 119.29 203.01 117.99 202.33H117.97L120.57 198.96L121.8 199.58C121.95 199.66 122.18 199.79 122.33 199.84L122.92 199.98C122.24 199.43 121.6 198.92 120.98 198.43L123.5 195.17C125.98 197.19 128.82 199.3 130.7 200.18L140.46 192.37C138.9 192.08 137.44 191.91 135.71 191.36C133.56 190.68 131.08 189.68 128.67 188.47L131.28 185.1C132.14 185.51 133.01 185.89 133.87 186.26C137.71 187.9 141.06 188.48 144.44 188.39C145.89 188.35 145.52 188.25 146.87 187.23C147.68 186.62 148.42 186.05 149.22 185.46C149.52 185.24 149.88 184.97 150.27 184.67H150.26ZM59.1699 302.56L56.53 305.98C55.04 304.2 53.9599 301.78 53.5499 299.7L53.1199 297.08C52.8799 295.24 53.01 293.52 53.51 291.58C55.22 285.02 57.8399 283.04 62.6599 278.38C63.2999 277.77 64.4 276.7 65.02 275.94C65.7 275.12 66.41 273.82 66.9 272.92C69.36 268.4 69.08 267.69 70.58 264.42C70.46 264.39 70.2999 264.34 70.1199 264.25L72.76 260.83C73.02 260.95 73.28 261.06 73.53 261.17C75.82 262.12 80.9199 263.71 82.1599 266.21C81.6699 266.71 80.88 266.78 80.39 266.8C77.65 266.89 77.2399 266.82 74.4699 266.04C73.5299 267.9 73.0299 270.16 71.9799 272.26C70.9099 274.42 69.73 276.77 68.14 278.7C65.2 282.27 59.8799 285.86 58.4199 290.05C56.3899 294.58 57.2899 299.82 59.1699 302.56ZM157.88 150.68L159.56 148.51C161.44 149.68 162.86 151.44 161.96 152.8C160.15 154.69 159.64 151.81 158.17 150.85C158.08 150.79 157.99 150.74 157.89 150.68H157.88ZM203.5 91.6398L200.85 95.0698C199.95 93.6798 198.35 91.7697 197.36 90.4697L191.15 82.8497C189.93 81.4297 187.22 79.6797 189.38 77.6697C190.09 77.0097 190.93 76.4198 191.6 75.7098C193.34 73.8798 194.39 72.7498 195.84 70.4498C196.93 68.7198 197.72 65.7498 197.77 64.2598C197.83 62.2498 197.74 60.2798 196.12 58.1298C195.85 57.7798 195.59 57.4498 195.32 57.1598L197.9 53.8198C197.96 53.8898 198.03 53.9497 198.09 54.0197C201.18 57.3597 201.67 59.4198 201.95 63.3298C202.03 64.4698 201.95 65.3898 201.72 66.5298C200.85 70.9398 198.58 75.0498 195.19 78.1898C194.74 78.6098 194.14 79.0798 193.78 79.5298C194.4 80.0298 195.36 81.2797 195.89 81.9297C198.51 85.1097 201.02 88.3598 203.5 91.6298V91.6398ZM159.56 148.51L157.88 150.68C157.24 150.33 156.44 150.09 155.86 150.02C154.8 149.88 154.4 149.65 154.08 148.7C154.22 146.51 157.23 147.07 159.55 148.51H159.56ZM131.27 185.11L128.66 188.48C125.74 187.01 122.93 185.23 120.92 183.37C118.33 180.96 115.95 177.71 114.12 174.94C112.46 172.42 111.27 169.58 110.25 167.24L113.22 163.4C113.48 164.06 113.74 164.71 114.02 165.35C114.7 166.92 115.35 168.6 116.2 170.22C117.75 173.15 120.47 177.06 123.05 179.64C125.45 182.05 128.32 183.73 131.26 185.12L131.27 185.11ZM123.49 195.18L120.97 198.44C119.11 196.95 117.45 195.58 115.47 193.67C113.54 191.81 111.8 189.74 109.89 187.93L106.93 190.68C109.58 192.52 112.26 194.45 115 196.06C116.31 196.83 117.6 197.49 118.94 198.16L120.56 198.97L117.96 202.33C114.13 200.36 112.21 199.41 108.55 196.86C107.08 195.84 105.32 194.43 103.79 193.57C102.82 194.52 101.83 195.43 100.86 196.37C99.6499 197.55 99.14 198.16 97.81 198.01C95 197.71 96.4299 193.97 95.1799 192.06C95.0199 192.73 95.6199 196.08 94.1199 200.19C92.9399 203.41 90.3799 205.99 87.6699 206.24C85.3199 206.46 83.4899 205.23 82.3599 203.34L85.33 199.49C85.97 203.98 90.1299 202.68 90.9699 195.24C91.1199 193.88 91.1099 192.91 90.9899 192.17L95.57 186.24C97.87 187.81 98.61 189.3 99.59 191.8C100.66 190.82 105.86 186.2 106.3 185.45C106.39 185.42 106.47 185.57 106.75 185.1C106.94 184.78 107.06 184.97 106.16 183.98C105.7 183.48 105.28 182.91 104.73 182.48L103.88 181.4C103.21 180.64 102.2 179.26 101.48 178.58L104.07 175.22C106.28 177.82 108.53 180.35 110.8 182.79C113.65 185.84 116.58 189.1 119.71 191.95C120.66 192.82 122.01 193.98 123.47 195.18H123.49ZM72.76 260.84L70.1199 264.26C69.2 263.86 67.6 262.9 66.8699 262.49C65.6899 261.83 64.4099 260.89 63.0999 260.15C62.6899 259.92 62.5 259.74 62.1199 259.47C61.6199 259.12 61.6499 259.25 61.1599 258.9L55.58 254.76C53.75 253.34 50.6999 250.55 47.9799 247.86L50.59 244.49C54.97 248.83 58.9 252.33 64.57 256.08C67.16 257.79 70 259.6 72.77 260.85L72.76 260.84ZM197.91 53.8198L195.33 57.1598C193.76 55.4098 192.14 54.5997 189.85 54.2397C188.95 54.0997 188.22 54.0198 187.55 54.0398L190.6 50.0898C190.9 50.1398 191.21 50.1997 191.52 50.2697C193.86 50.7997 195.92 51.7398 197.91 53.8198ZM113.23 163.4L110.26 167.24C110.1 166.87 109.94 166.52 109.79 166.18L109.76 165.98L109.65 165.9L109.62 165.71L109.35 165.15L109.32 164.96C108.78 163.86 107.84 160.89 107.03 158.22L110.14 154.19C111.07 157.27 112.07 160.46 113.22 163.4H113.23ZM104.09 175.23L101.5 178.59C101.41 178.51 101.33 178.44 101.25 178.38L100.49 179.37L94 185.29C94.6 185.62 95.12 185.94 95.58 186.25L91 192.18C90.7 190.28 89.7099 189.89 89.0999 188.37C87.1699 191.27 84.92 195.96 85.33 199.35C85.33 199.4 85.3399 199.45 85.3499 199.5L82.38 203.35C81.35 201.63 80.91 199.35 81.21 197.11C81.38 195.83 82.09 193.24 82.08 192.98L82.2899 192.71L82.07 192.54C81.8 192.76 81.2 193.11 80.8699 193.25C80.35 193.48 80.1499 193.44 79.6599 193.83C79.6099 193.83 79.5699 193.83 79.5399 193.83L89.82 180.52C90.19 181.06 90.5499 181.67 90.9799 182.41C92.0299 181.4 93.32 180.33 94.44 179.39C95.33 178.65 97.35 177.28 97.94 176.53C97.97 176.53 98.01 176.5 98.03 176.49C98.05 176.49 98.1 176.46 98.1199 176.45L99.2199 175.77C98.6599 175.34 97.11 173.31 96.58 172.64C96.47 172.5 96.3499 172.35 96.2299 172.2L98.8599 168.8C100.56 170.99 102.31 173.14 104.08 175.24L104.09 175.23ZM50.57 244.49L47.96 247.86C45.91 245.83 44.04 243.87 43.01 242.6C42.47 243.29 41.24 244.45 40.65 245.04C39.44 246.25 37.09 249.36 36.09 250.4C35.34 251.18 34.6399 252.08 33.8599 253.09C31.5399 256.09 27.62 261.43 24.58 264.94L45.1799 238.29C45.7699 238.76 45.81 239.3 46.25 239.91C46.72 240.57 47.3899 241.27 47.9799 241.87C48.8799 242.78 49.74 243.65 50.58 244.49H50.57ZM158.47 91.6597L160.19 89.4297C162.35 90.7397 163.11 93.3698 163.06 94.8698C162.96 98.0798 158.15 103.27 156.64 102.86C155.14 102.46 155.43 101.06 156.4 100.19C158.08 98.6898 160.61 96.2797 160.24 94.2397C159.97 92.7697 159.32 91.9897 158.46 91.6697L158.47 91.6597ZM173.52 72.1797L174.89 70.4097C174.68 71.0097 174.3 71.5498 173.52 72.1797ZM190.59 50.0898L187.54 54.0398C186.27 54.0698 185.22 54.4097 183.63 55.2097C179.22 57.4097 176.15 62.6098 175.39 67.1398C175.14 68.6198 175.19 69.5697 174.89 70.4097L173.52 72.1797C173.22 72.4197 172.86 72.6797 172.43 72.9697C170.48 74.2397 168.56 75.4698 166.57 76.7098C165.26 77.5298 163.96 78.3998 162.67 79.2698L170.36 69.3098C170.86 68.9998 170.91 68.9798 170.94 68.5598L185.14 50.1797C186.87 49.7997 188.68 49.7698 190.58 50.0998L190.59 50.0898ZM160.19 89.4297L158.47 91.6597C156.68 90.9797 154.03 92.2897 152.36 93.2897C152.04 93.4797 151.71 93.7098 151.38 93.8798L155.12 89.0397C156.86 88.6297 158.63 88.5998 159.9 89.2598C160 89.3098 160.1 89.3698 160.2 89.4297H160.19ZM110.15 154.19L107.04 158.22C106.53 156.56 106.07 155.02 105.79 154.12C105.7 153.82 105.61 153.53 105.51 153.24L108.61 149.22C108.77 149.67 108.91 150.11 109.04 150.54C109.4 151.73 109.76 152.95 110.14 154.2L110.15 154.19ZM98.8599 168.8L96.2299 172.2C95.9499 171.85 95.66 171.49 95.38 171.11C95.03 170.63 94.5999 169.98 94.1599 169.58C93.3099 170.68 91.8099 171.49 90.9799 172.56C90.7699 172.59 91.02 172.28 90.6199 172.8L90.53 172.91L90.25 173.04C90.2 173.1 90.12 173.17 90.03 173.25L96.19 165.27C97.06 166.45 97.9499 167.62 98.8499 168.78L98.8599 168.8ZM89.82 180.5L79.5399 193.81C79.3399 193.79 79.4599 193.76 79.1799 193.98L78.9899 194L78.71 194.13L78.52 194.16L78.33 194.19L78.13 194.21C77.05 194.57 75.37 194.65 73.83 194.24L76.9699 190.18C79.5399 189.56 82.8499 187.25 84.4199 185.58C83.3999 185.23 81.9799 185.22 80.7199 185.33L83.83 181.3C84.27 181.34 84.63 181.37 84.88 181.36C84.65 181.15 84.42 180.98 84.2 180.83L86.7399 177.54C88.2299 178.5 89.04 179.33 89.83 180.5H89.82ZM45.1699 238.29L24.57 264.94C23.84 265.78 23.17 266.51 22.57 267.08C19.79 269.76 17.29 271.36 14.75 270.69L20.6099 263.1C25.2699 258.07 33.87 245.14 40.75 238.98C42.16 237.72 43.1899 237.14 44.7999 238.05C44.9399 238.13 45.0599 238.21 45.1599 238.29H45.1699ZM185.15 50.1698L170.95 68.5497C170.95 68.4297 170.97 68.2898 170.98 68.0898C171.11 66.4098 171.51 64.7497 172.04 63.0997C173.19 59.5197 176 55.4998 178.92 53.2198C180.91 51.6698 182.97 50.6398 185.15 50.1698ZM170.36 69.3098L162.67 79.2698C160.09 81.0198 157.53 82.7997 154.86 84.2897C153.79 84.8897 152.5 85.4998 151.11 86.0698L157.65 77.5997C159.09 76.6497 160.51 75.6698 161.95 74.7098L170.1 69.4797C170.2 69.4197 170.29 69.3598 170.36 69.3098ZM155.11 89.0497C151.68 89.8597 148.41 92.1397 149.47 93.5497C150.07 94.3397 150.73 94.2198 151.37 93.8898L155.11 89.0497ZM108.62 149.21L105.52 153.23C104.94 151.36 104.38 149.55 103.46 147.74L106.21 144.18C107.25 145.85 108.04 147.57 108.62 149.21ZM96.2 165.28L90.0399 173.26C89.1599 174.04 86.54 175.91 85.57 176.85C86 177.09 86.3799 177.33 86.7299 177.55L84.19 180.84C82.81 179.95 81.5199 180.16 80.8499 180.01C80.1499 179.85 79.63 179.46 79.33 178.98L84.3599 172.48C85.1799 171.85 85.9 171.27 86.34 170.84L86.09 170.24L89.2399 166.16C89.3699 166.82 89.54 167.58 89.81 167.97L91.9 166.43L90.5 164.54L93.19 161.06C94.17 162.48 95.1799 163.9 96.2199 165.29L96.2 165.28ZM83.82 181.3C82.37 181.17 80.0399 180.93 77.8699 181.51C77.6499 181.57 77.43 181.63 77.21 181.69L70.2299 190.73C70.3799 191.38 70.66 192 71.07 192.53C71.74 193.4 72.74 193.94 73.82 194.24L76.96 190.18C75.84 190.45 74.8599 190.4 74.2199 189.84C74.2799 187.39 76.6399 186.02 78.5999 185.63C79.1199 185.53 79.88 185.4 80.71 185.33L83.82 181.3ZM20.6099 263.11L14.75 270.7C13.45 270.36 12.13 269.41 10.76 267.71L13.4199 264.26C14.1399 265.28 15 266.2 16.08 266.68C17.07 266.44 18.2999 265.43 19.1099 264.55C19.5499 264.2 20.0499 263.71 20.6099 263.1V263.11ZM24.0499 250.5L24.58 249.82C24.44 250.2 24.2599 250.43 24.0499 250.5ZM157.66 77.5997L151.12 86.0698C148.33 87.2198 145.16 88.1998 142.73 88.5598L137.58 89.0198L141.02 84.5598C141.09 84.5598 141.15 84.5398 141.22 84.5298C142.82 84.3298 144.38 83.8898 145.94 83.4498C150.23 82.2298 153.99 80.0098 157.66 77.5898V77.5997ZM106.21 144.19L103.46 147.75C102.73 146.32 101.77 144.89 100.39 143.42C99.46 142.44 98.49 141.62 97.5 140.91L100.09 137.56C101.2 138.39 102.41 139.46 103.74 140.92C104.69 141.96 105.51 143.06 106.21 144.2V144.19ZM93.1799 161.05L90.4899 164.53L89.09 162.64C88.82 163.44 88.95 164.78 89.09 165.38C89.14 165.58 89.1899 165.86 89.2399 166.15L86.09 170.23L85.8599 169.68C84.8099 170.1 77.91 175.02 77.03 175.69C70 181.05 62.0699 187.96 55.7199 194.97L71.09 175.07C74.45 172.39 77.9099 169.85 81.3499 167.64C81.9599 167.25 82.48 166.88 83.08 166.48C83.72 166.05 84.3999 165.74 84.9199 165.37L84.7 163.79C83.92 164.28 81.8899 164.87 80.9299 165.14C80.0099 165.4 79.06 165.69 78.09 166L82.5499 160.23C83.5999 159.9 84.6799 159.59 85.7399 159.37C85.7699 159.37 85.81 159.36 85.84 159.35L86.13 159.27C86.43 159.16 86.5 159.05 86.78 158.91C86.38 158.54 85.93 157.78 85.69 157.37C85.56 157.15 85.42 156.93 85.27 156.72L88.06 153.11C89.66 155.78 91.3799 158.43 93.1799 161.04V161.05ZM84.3499 172.46C82.4199 173.95 79.95 175.76 79.34 176.72C78.89 177.43 78.9 178.29 79.33 178.97L84.3599 172.47L84.3499 172.46ZM77.2199 181.7C75.2099 182.28 73.0999 183.1 71.4299 185.54C70.2799 187.21 69.8699 189.11 70.2399 190.74L77.2199 181.7ZM24.58 249.82L24.0499 250.5C23.4799 250.7 22.6799 249.74 21.6199 247.62C20.7299 245.84 20.4599 243.66 19.5999 241.69L22.2999 238.19C23.1799 239.42 23.68 240.03 24.53 243.28C24.88 244.62 25.11 245.52 25.03 246.88C24.95 248.24 24.8 249.21 24.57 249.81L24.58 249.82ZM13.4299 264.26L10.77 267.71C10.62 267.52 10.4599 267.32 10.3099 267.11C9.06995 265.42 8.46995 263.96 7.42995 262.33C6.92995 261.55 6.35993 260.6 5.78993 259.6L8.59993 255.96C9.49993 257.65 10.4599 259.15 11.4799 260.92C12.0199 261.85 12.64 263.12 13.44 264.26H13.4299ZM36.96 219.24L45.7999 207.8C45.1799 208.73 44.5699 209.67 43.9899 210.59C42.9599 212.21 41.9799 213.86 41.06 215.51C40.52 216.48 40.31 217.2 39.31 217.63C38.8 217.85 37.96 218.45 36.96 219.25V219.24ZM123.21 107.62L125.1 105.17C125.28 105.45 125.43 105.73 125.55 106.01C125.77 106.5 126.05 107.32 126.1 107.72C126.17 108.23 125.98 108.81 126.18 109.31C125.85 110.44 125.26 111.73 123.91 110.81C122.8 110.06 123.6 109.02 123.21 107.61V107.62ZM153.35 68.6198L171.31 45.3798C171.1 48.8398 168.82 51.7798 167.24 54.5098L164.8 58.1898C162.35 61.5698 158.96 66.0998 155.63 67.8698C154.86 68.2798 154.09 68.5198 153.35 68.6198ZM176.23 38.9998L182.11 31.3898L182.13 31.4897C182.78 35.9697 179.64 38.5898 176.24 38.9998H176.23ZM47 198.98C43.27 203.95 40.18 208.52 37.19 213.93C36.6 215 35.7099 215.08 34.7299 215.81C34.1799 216.21 33.5799 216.67 32.9699 217.15L16.71 238.19C18.19 239.15 19.0399 240.38 19.6199 241.7L22.32 238.2C21.99 237.74 21.61 237.2 21.14 236.41C22.24 234.04 26.95 228.66 28.9 226.61C30.08 225.36 34.1499 221.51 36.9699 219.24L45.81 207.8C47.49 205.28 49.29 202.75 51.14 200.41C52.53 198.61 54.0699 196.79 55.7199 194.97L71.09 175.07C67.45 177.97 63.9299 181.04 60.6699 184.05C59.6599 184.98 58.34 186.58 57.26 186.79C56.9 186.86 56.5699 186.94 56.2399 187.02L47 198.98ZM182.11 31.3997L176.23 39.0098C174.55 39.2098 172.81 38.8698 171.43 37.9498L174.02 34.5998C175.03 35.1898 176.35 34.8598 177.01 34.4398C178.56 33.4398 178.18 31.6698 177.33 30.8098C177.27 30.7498 177.19 30.6898 177.1 30.6298L179.7 27.2598C180.95 28.3798 181.88 29.9597 182.12 31.3997H182.11ZM171.31 45.3798L153.35 68.6198C151.64 68.8398 150.06 68.2798 148.88 67.1298L151.48 63.7698C151.64 64.0298 151.88 64.2497 152.21 64.4197C154.49 65.5497 160.52 57.0198 161.85 55.0398C162.74 53.6998 168.46 46.1698 166.72 44.0598L169.26 40.7798C170.52 41.9098 171.34 43.5198 171.34 44.8798C171.34 45.0498 171.34 45.2198 171.32 45.3898L171.31 45.3798ZM141.02 84.5698L137.58 89.0298L136.46 89.1298C135.22 89.1398 133.28 89.3297 131.66 89.4097L135.11 84.9398C135.51 84.9198 135.91 84.9097 136.31 84.9097C137.46 84.9097 138.43 84.7497 139.56 84.7397C140.03 84.7397 140.53 84.6398 141.02 84.5698ZM125.1 105.17L123.21 107.62C123.13 107.32 122.99 107 122.77 106.67C122.31 105.97 121.81 105.85 121.43 105.34C121.08 104.86 120.89 103.35 122.73 103.18C123.75 103.52 124.55 104.32 125.09 105.17H125.1ZM100.08 137.55L97.4899 140.9C96.2499 140.02 94.9699 139.28 93.6699 138.57L96.25 135.23C97.4 135.81 98.66 136.48 100.08 137.54V137.55ZM88.0499 153.12L85.26 156.73C85.08 156.47 84.8999 156.21 84.7299 155.92C84.0699 154.85 83.4199 153.76 82.7999 152.65L85.6599 148.95C86.4299 150.34 87.2299 151.73 88.06 153.12H88.0499ZM82.5499 160.25L78.09 166.02C75.53 166.85 72.84 167.83 70.38 168.73L75.1599 162.54C76.1399 162.22 77.1 161.93 78.01 161.67C79 161.39 80.0199 161.09 80.9699 160.77C81.4899 160.59 82.02 160.42 82.56 160.25H82.5499ZM8.58998 255.96L5.77998 259.6C4.92998 258.11 4.09996 256.51 3.56996 255.19L6.63997 251.22C7.09997 252.59 7.61995 254.02 8.05995 254.93C8.22995 255.29 8.40998 255.63 8.58998 255.97V255.96ZM25.08 214.79C26.05 213.75 29.31 211.51 30.59 210.59C35.45 207.1 39.6899 204.6 44.6699 200.6C45.5699 199.88 46.53 198.96 47.44 198.4L47 198.98L56.2399 187.02C54.0499 187.56 52.5199 188.33 49.9699 189.41C44.1399 191.88 41.96 193.23 35.51 194.89C34.37 195.18 32.14 195.58 30.25 195.6L27.2299 199.51C28.2999 199.75 29.43 199.82 30.7 199.81C34.43 199.79 41.54 197.49 41.7 197.49C41.22 198.08 38.57 199.94 37.82 200.49C33.89 203.36 29.96 205.87 26 208.74C24.69 209.69 23.3899 210.72 22.1199 211.69C20.7699 212.73 19.14 213.66 19.58 215.48C19.93 216.91 22.5299 217.32 25.2199 221C25.6999 221.66 25.9699 222.48 26.5499 223.01L24.28 225.43C23.59 226.12 22.65 227.36 21.95 228.09C20.38 229.71 19 232.1 17.64 233.86C16.36 233.03 13.52 232.31 12.28 232.21C6.13998 231.68 1.32996 235.74 0.939955 242.35C0.669955 246.88 1.47996 248.5 2.69997 252.53C2.95996 253.4 3.16997 254.08 3.51997 255L3.58998 255.18L6.65993 251.21C6.35993 250.31 6.07994 249.44 5.85994 248.76C5.52994 247.75 4.69996 243.67 5.25996 242.52C4.62996 240.87 6.42995 237.59 9.36995 236.61C11.2499 235.98 14.0399 236.57 16.4699 238.02C16.5599 238.07 16.6399 238.12 16.7199 238.18L32.9799 217.14C31.7899 218.08 30.56 219.11 29.64 220.06C28.93 219.17 28.4599 218.28 27.6699 217.33C26.8999 216.42 26.0499 215.57 25.0999 214.78L25.08 214.79ZM179.69 27.2598L177.09 30.6298C175.92 29.9198 172.44 29.6597 172.73 32.2097C172.87 33.4997 173.39 34.2298 174.02 34.5998L171.43 37.9498C170.72 37.4798 170.12 36.8498 169.66 36.0698C169.28 35.4098 168.9 34.4898 168.75 33.8098C168.2 31.2498 168.43 30.0697 169.94 28.1097C171.28 26.3797 174.94 25.5597 176.88 25.8398C177.88 25.9797 178.85 26.5198 179.68 27.2598H179.69ZM169.25 40.7697L166.71 44.0497C166.55 43.8497 166.32 43.6997 166.02 43.6097C165.04 43.3097 164.13 43.8297 163.4 44.5497C160.99 46.9197 158.11 50.2198 156.1 52.8798C154.66 54.7898 153.36 56.7298 152.36 58.8898C151.8 60.0998 150.66 62.4498 151.48 63.7698L148.88 67.1298C148.35 66.6098 147.9 65.9798 147.57 65.2498L147.09 63.6298C146.48 59.4498 150.34 53.4997 153.05 49.9897C153.75 49.0897 154.31 48.4498 154.94 47.7598C157.18 45.3098 159.35 42.0698 162.4 40.2598C163.14 39.8198 163.63 39.7997 164.39 39.5497C166.21 38.9497 167.97 39.6198 169.26 40.7798L169.25 40.7697ZM135.12 84.9398L131.67 89.4097C131.12 89.4397 130.6 89.4598 130.17 89.4498C128.08 89.4298 125.85 89.2798 123.81 89.3198C122.68 89.3398 118.21 89.4098 117.49 89.6398C116.75 89.3798 114.08 89.8898 111.45 90.5098L115.33 85.4797L118.53 85.2798C119.09 85.2698 119.54 85.2697 120.11 85.2397C123.73 85.0897 126.19 85.1597 129.82 85.2197C131.6 85.2497 133.35 85.0197 135.12 84.9297V84.9398ZM96.25 135.24L93.6699 138.58C89.6899 136.41 85.4999 134.45 81.7299 128.98L84.39 125.53C84.5 125.71 84.62 125.9 84.75 126.1C86.88 129.43 88.72 130.41 91.84 132.82C92.36 133.21 92.05 132.98 92.25 132.96L92.69 133.3L92.9899 133.36C93.9899 134.12 95.0599 134.63 96.2399 135.23L96.25 135.24ZM85.65 148.95L82.7899 152.65C81.9799 151.2 81.21 149.72 80.5 148.24L77.27 140.53C76.96 139.52 76.6199 138.43 76.4199 137.37C76.3399 136.96 76.2499 136.56 76.1699 136.16L79.7 131.59L80.28 135.39C81.07 138.77 82.08 142.03 83.71 145.26C84.33 146.49 84.98 147.72 85.65 148.95ZM75.1599 162.54L70.38 168.73L69.25 169.14C60.67 172.25 50.6999 175.91 42.4199 180.01C42.3599 180.04 42.2999 180.07 42.2299 180.11L47.76 172.95L48.9699 172.41C53.2799 170.5 59.0299 168.56 63.4099 166.83C66.9399 165.43 71.2499 163.8 75.1599 162.55V162.54ZM122.69 75.9697C123.1 77.7897 124.04 79.5598 125.91 80.9998C126.77 79.6698 125.71 74.5297 125.91 72.6797C125.95 72.3097 126 71.9597 126.04 71.6198L122.68 75.9697H122.69ZM137.16 57.2397L143.19 49.4297C143.64 48.9997 144.01 48.6098 144.29 48.3198C146.34 46.1198 148.28 43.4298 150.05 40.5598L162.56 24.3697C161.77 26.6697 160.7 28.9098 160.01 30.4698C157.25 36.7598 153.77 43.1297 149.42 48.7697C144.86 54.6797 140.55 57.0697 137.17 57.2397H137.16ZM41.69 197.5L162.56 24.3697L150.05 40.5598C152.89 35.9598 155.32 30.8797 157.16 26.5898C157.85 24.9897 158.82 22.7497 159.15 21.1797C159.85 17.8397 158.11 16.5297 157.29 16.7697C154.8 17.4897 150.23 24.3298 148.48 26.6298C145.58 30.4498 145.46 29.4297 140.23 26.0197L142.83 22.6598C143.8 23.2898 144.75 23.9198 145.07 24.1698C146.56 22.2398 147.64 20.6198 149.12 18.6998C152.02 14.9498 156.63 10.6298 160.23 13.4098C162.12 14.8698 162.74 15.6097 163.37 17.8597C163.87 19.6497 163.36 22.0398 162.56 24.3798L41.69 197.5ZM143.2 49.4297C140.9 51.6397 136.73 54.9297 134.84 51.9297C133.05 49.0997 136.1 44.4698 138.1 41.2498C139.92 38.3098 143.55 35.1597 141.86 33.2097C141.33 32.5997 139.88 31.9198 139.13 31.4398C138.39 30.9698 137.73 30.4997 137.13 30.0497L134.59 33.3398C134.86 33.4998 135.48 33.9498 135.88 34.2598C136.51 34.7598 136.78 34.8398 137.28 35.1698C134.62 38.6098 132.55 42.0898 131.16 45.3698C128.51 51.6097 131.55 57.5197 137.18 57.2397L143.21 49.4297H143.2ZM126.05 71.6198L122.69 75.9697C122.38 74.5797 122.39 73.1598 122.54 71.8298C123.02 67.6498 124.63 64.2597 127.54 60.4897C128.52 59.2197 129.92 57.6497 131.1 58.1497C131.4 59.0397 130.79 59.9897 130.2 61.0397C127.93 65.0597 126.67 67.3197 126.05 71.6198ZM115.33 85.4897L111.45 90.5198C108.92 91.1198 106.42 91.8398 105.74 92.0898C103.94 92.7498 101.89 93.8497 100.06 94.9097C98.99 95.5297 95.09 97.9598 94.44 98.8798C93.71 99.0398 91.1199 101.73 90.4099 102.44C86.4899 106.49 84.83 109.78 82.89 114.75C82.68 115.28 82.25 116.29 82.21 116.72L82.33 118.68C82.67 121.58 82.8999 123.02 84.4099 125.52L81.75 128.97C81.02 127.91 80.3099 126.71 79.6099 125.36C79.4499 126.42 79.45 129.29 79.53 130.33L79.7199 131.58L76.19 136.15C76.06 135.53 75.93 134.92 75.84 134.27C75.51 131.6 75.24 130.87 75.27 127.8C75.34 122.05 76.68 116.02 79.59 111C80.04 110.22 80.29 110.1 80.63 109.28C84.96 99.0598 96.82 91.0198 104.25 88.1298C106.27 87.3398 108.45 86.8398 110.56 86.3798C111.65 86.1398 114.33 85.4997 115.3 85.4697H115.34L115.33 85.4897ZM47.76 172.94L42.2299 180.1C41.1099 180.69 39.63 181.72 38.53 181.42C36.68 180.93 37.2799 179.55 36.3499 177.98C34.8199 175.4 32.73 172.23 29.78 171.1C29.38 170.95 28.9099 170.81 28.4299 170.71L31.1599 167.17C34.4799 168.5 37.06 171.02 38.88 174.09C39.32 174.83 39.89 175.64 40.26 176.39C41.23 175.95 42.15 175.48 43.15 175L47.75 172.94H47.76ZM30.2399 195.61L27.2199 199.52C25.7399 199.19 24.36 198.55 22.84 197.34C20.6 195.57 19.8199 192.44 21.1699 190.02C21.8799 188.74 23.07 187.47 24.19 186.96C22.2 185.42 20.7499 183.84 19.7399 181.94L22.7299 178.08C24.7699 184.89 31.67 184.76 31.3099 188.03C31.0599 190.3 28.5899 189.69 27.9199 189.85C26.9899 190.08 24.7099 191.16 24.7199 192.64C24.7199 193.98 26.7299 195.17 27.9899 195.35C28.5799 195.54 29.3799 195.61 30.2399 195.6V195.61ZM142.83 22.6497L140.23 26.0098C139.62 25.6098 138.95 25.1898 138.19 24.7298C137.35 24.2298 136.09 23.5898 135.59 22.7898C135.15 22.0698 135.11 21.0798 135.63 20.2198C136.59 18.6298 138.65 16.2498 139.83 14.6898C141.76 12.1298 146.08 5.77974 141.57 4.60974C140.03 4.20974 138.35 5.10975 136.71 6.30975C135.31 7.32975 133.44 9.03976 132.18 10.2898C126.09 16.3298 119.9 23.3298 116.53 31.2798C115.66 33.3298 115.31 34.9898 115.71 36.5598C116.32 38.9998 118.19 38.9397 119.9 37.9897C122.98 36.2597 126.69 31.8498 128.83 28.8398C131.91 24.5198 132.87 26.8398 137.11 30.0598L134.57 33.3498L134.53 33.3297C133.75 32.8897 133.02 32.0798 132.12 31.3898L130 34.1398C118.93 48.4698 111.62 41.9798 111.38 36.0298C111.3 34.0698 111.67 32.2098 112.5 30.1398C113.3 28.1598 114.38 26.0898 115.7 23.9798L117.68 20.8498C118.09 20.1098 118.79 19.4098 119.36 18.4798L121.84 15.2298C121.84 15.2298 121.88 15.1798 121.9 15.1698L122.86 14.0497C125.82 10.1497 134.59 2.12976 138.91 0.939757C142.62 -0.0902429 150.17 2.62975 146.8 11.2798C145.64 14.2498 142.67 17.9598 140.21 21.1398C140.46 21.1898 141.66 21.9298 142.82 22.6698L142.83 22.6497ZM31.1699 167.17L28.44 170.71C27.38 170.49 26.2599 170.44 25.6799 170.74L25.4799 170.76L25.4 170.87L25.2199 170.89C24.8399 170.89 24.7799 170.92 24.3499 171.19C21.8999 172.71 21.9899 175.42 22.6699 177.87C22.6899 177.95 22.7199 178.03 22.7399 178.1L19.75 181.96C19.41 181.32 19.13 180.65 18.89 179.93C18.09 177.5 17.6099 174.91 18.4299 172.36C19.9499 167.62 25.1199 165.39 29.7199 166.68C30.2199 166.82 30.7099 166.99 31.1799 167.18L31.1699 167.17Z" fill="#874623"/>
<path fill-rule="evenodd" clip-rule="evenodd" d="M109.79 166.18L109.76 165.98L109.65 165.9L109.62 165.71L109.35 165.15L109.32 164.96C108.45 163.17 106.51 156.46 105.77 154.12C104.61 150.43 103.77 147.04 100.36 143.42C94.1099 136.79 85.9499 137.84 79.5699 125.37C79.4099 126.43 79.4099 129.3 79.4899 130.34L80.2599 135.39C81.0499 138.77 82.0599 142.03 83.6899 145.26C90.3999 158.59 100.4 171.65 110.8 182.8C113.65 185.85 116.58 189.11 119.71 191.96C122.27 194.29 127.68 198.79 130.68 200.2L140.44 192.39C138.88 192.1 137.42 191.93 135.69 191.38C130.93 189.89 124.58 186.78 120.92 183.37C118.33 180.96 115.95 177.71 114.12 174.94C112.2 172.03 110.91 168.68 109.78 166.18H109.79Z" fill="#FAD9D0"/>
<path fill-rule="evenodd" clip-rule="evenodd" d="M118.5 287.58C118.99 286.27 121.7 274.72 122.37 272.35C123.82 267.22 125.25 262.07 126.71 256.93C128.16 251.81 129.79 246.68 131.27 241.59C131.75 239.95 135.4 227.41 136.07 226.06C135.52 226.29 134.91 227.65 134.48 228.39C126.44 242.21 119.48 251.56 106.53 262.03C103.77 264.26 101.06 266.35 98.2099 268.23C97.1099 268.96 97.0399 268.81 96.6599 270.09C95.9599 272.51 94.5399 273.78 99.9299 276.21C103.22 277.69 106.36 278.04 109.56 280.33C112.71 282.57 115.09 286.8 118.5 287.57V287.58Z" fill="#E95513"/>
<path fill-rule="evenodd" clip-rule="evenodd" d="M184.79 186.19L186.25 184.3C186.37 184.34 186.49 184.37 186.61 184.41C188.56 184.97 190.23 185.08 191.97 185.23C192.93 185.32 193.7 185.27 194.64 185.23L197.39 185.06C196.48 185.64 194.28 186.02 193.37 186.12C192.96 186.17 192.7 186.17 192.29 186.2C191.42 186.27 190.7 186.5 189.35 186.38L189.15 186.41L188.95 186.44L188.65 186.38L188.45 186.41L188.26 186.43L187.96 186.37L187.76 186.4L187.57 186.42L187.27 186.36L187.07 186.39L186.77 186.33L186.57 186.36C186.05 186.28 185.43 186.23 184.79 186.19ZM201.09 165.09L210.24 153.25L211.78 156.46C211.47 156.46 211.69 156.16 210.75 157.01L208.18 159.36C205.95 161.33 202.8 163.51 201.17 165.01L201.09 165.08V165.09ZM211.58 151.52L237.34 118.18C237.6 118.13 237.81 118.11 237.95 118.12C238.45 118.16 238.9 118.16 239.44 118.22C240.19 118.3 241.81 118.91 242.4 118.84C242.57 117.9 241.71 116.92 240.77 116.21C240.23 115.8 239.83 115.57 239.46 115.44L239.68 115.16C244.02 115.72 248.24 118.22 250.16 122.83C250.89 124.59 251.27 126.35 251.21 128.05C251.05 132.28 248.32 135.74 244.52 138.35C241.91 140.14 236.9 141.59 234.31 141.41L234.11 141.44L233.92 141.46L233.73 141.48L233.42 141.42L233.23 141.45L233.03 141.48L232.84 141.5L232.54 141.44L232.34 141.47L232.15 141.49L232.04 141.41L231.84 141.44L231.64 141.47L231.34 141.4L231.14 141.43C228.66 140.95 228 140.89 226.41 142.66C222.51 146.99 221.49 147.44 217.8 150.91C216.44 152.19 214.64 153.61 213.43 154.9C213.22 154.05 213.24 154.27 212.75 153.39C212.45 152.86 212.05 152.19 211.59 151.54L211.58 151.52ZM239.67 115.16L239.45 115.44C238.94 115.26 238.48 115.25 237.77 115.22C236.87 115.17 233.3 116.18 232.27 117.53C231.19 118.95 232.8 119.53 233.83 119.19C234.5 118.97 236.28 118.38 237.33 118.18L211.57 151.52C210.88 150.55 210.04 149.65 209.17 149.39C208.64 150 209 150.54 209.28 151.25L210.24 153.25L201.09 165.09C200.01 166.1 200.61 165.86 199.29 165.8C198.74 165.77 197.8 165.85 197.37 165.74C199.2 163.06 199.89 159.72 197.67 157.01C193.17 151.54 185.2 156.59 180.85 159.45C179.49 160.34 178.16 161.26 176.86 162.3C176.12 162.89 173.53 165.3 173.02 165.48C173.48 164.97 173.24 163.73 173.23 163.1C173.22 161.78 173.12 161.97 173.01 160.75C172.85 159.03 172.72 157.52 172.54 156.06L188.57 135.32C189.12 135.53 189.58 136.24 189.74 136.71C189.94 137.3 189.74 137.84 189.29 138.56C187.47 141.47 184.02 141.76 184.73 144.78C185.03 146.06 186.53 146.79 187.73 146.67C188.83 146.56 190.02 145.41 190.93 144.55C193.12 142.49 194.6 139.83 194.84 137.34C195.01 135.6 194.07 132.49 191.81 131.11L209.84 107.77C212.52 111.64 215.14 115.55 217.45 119.48C218.04 120.49 219.81 123.89 220.72 124.33C222.92 125.4 223.93 122.49 225.42 120.83C227.3 118.73 230.16 116.67 232.81 115.86C233.34 115.7 233.67 115.62 234.15 115.5C235.9 115.03 237.8 114.91 239.67 115.15V115.16ZM186.25 184.3C184.37 183.73 182.49 182.91 180.9 181.43C179.49 180.12 178.61 178.29 178.36 176.51C177.81 172.52 180.5 168.33 182.97 165.42C184.67 163.42 188.72 159.43 191.5 159.07C191.92 159.01 192.43 159.03 192.86 158.9C189.93 157.96 181.98 163.58 179.54 165.47C178.05 166.62 176.74 168.03 175.26 169.13C173.71 170.28 172.54 171.33 171.07 172.8C169.69 174.17 168.26 175.25 166.78 176.44C165.35 177.59 163.92 178.88 162.5 180.16C161.11 181.41 159.64 182.49 158.2 183.6C156.77 184.7 155.37 185.92 153.99 187.05C152.56 188.22 151.13 189.22 149.65 190.34C148.63 191.11 144.53 194.45 140.17 197.96L60.82 300.65C61.36 301.22 61.99 301.69 62.73 301.97C64.38 302.6 65.32 302.05 66.45 301.57C66.82 301.41 66.75 301.22 66.83 301.57C68.18 300.83 69.27 298.27 69.9699 296.89C70.7799 295.29 72.76 294.6 74.06 293.79C77.07 291.92 79.59 290.08 82.37 287.51C88.98 281.39 90.36 276.1 92.76 268.73C92.59 268.6 92.59 268.67 92.7199 268.52C93.2 267.78 93.23 266.9 93.71 266.11C94.58 264.69 95.05 265.16 95.9 264.77C98.2 263.71 106.74 256.42 108.75 254.6C119.05 245.29 124.45 237.48 131.22 225.74C134.96 219.26 132.46 221.95 138.39 217.61C142.61 214.53 147.43 211.3 151.35 208.19L155.67 204.78L155.87 204.76L156.12 204.43L156.32 204.41L156.49 204.19L156.77 204.06L156.94 203.84C157.22 203.46 157.01 203.68 157.22 203.71L157.39 203.49L157.67 203.36L157.84 203.14L158.12 203.01L158.37 202.68L158.57 202.66L158.82 202.33L159.01 202.3L159.27 201.97L159.46 201.94C159.8 201.52 162.18 199.37 162.87 199.27C162.87 199.23 162.87 199.18 162.87 199.15L162.98 197.03C163.04 196.31 163.09 195.5 163.1 194.83C163.1 193.66 162.83 191.19 163.25 190.5C164.47 190.95 164.74 193.16 164.82 193.82L164.97 197.21C164.97 197.21 164.99 197.29 165 197.32L168.72 194.24C168.9 192.02 168.76 189.31 168.34 187.13C168.12 185.97 167.83 185.39 168.28 184.87C170.46 185.71 170.89 189.82 170.83 191.95V192.48C171.24 191.97 177.84 186.19 178.24 186.01C178.91 185.71 181.36 185.95 182.41 186.05C183.16 186.12 184.02 186.16 184.83 186.21L186.29 184.32L186.25 184.3ZM209.84 107.78L191.81 131.12C191.75 131.08 191.68 131.04 191.61 131.01C186.53 128.24 179.07 132.79 179.27 135.68C179.35 136.85 180.71 138 181.94 137.92C182.98 137.86 184.5 136.24 186.78 135.46C187.14 135.34 188.17 135.18 188.54 135.31H188.56L172.53 156.06C172.25 153.8 171.86 151.67 171.09 149.11C170.18 146.09 169.36 141.84 169.34 138.63C169.34 138.19 169.32 137.81 169.32 137.44C169.32 135.77 169.38 134.03 169.7 132.21L185.79 111.39C186.12 111.14 186.45 110.9 186.78 110.67C189.67 108.6 192.56 106.71 195.51 104.65C196.84 103.72 200.73 101.03 202.09 100.33C203.3 99.6996 203.24 100.01 204.25 99.7696C206.09 102.42 207.98 105.09 209.84 107.78ZM140.16 197.97L60.81 300.66C59.69 299.47 58.99 297.81 58.65 296.37L58.27 294.34C58.02 292.45 58.74 290.8 58.42 290.05C59.88 285.86 65.21 282.27 68.14 278.7C69.73 276.77 70.91 274.42 71.98 272.26C73.02 270.16 73.5299 267.9 74.4699 266.04C77.2399 266.82 77.65 266.89 80.39 266.8C80.88 266.78 81.67 266.71 82.16 266.21C80.9299 263.71 75.82 262.12 73.53 261.17C72.69 260.82 71.84 260.42 70.99 259.97L81 247.02C81.47 246.99 81.88 246.95 82.2 246.89C84.2 246.49 84.27 246.79 87.44 245.97C101.69 242.3 113.67 225.6 120.02 212.82C121.04 210.78 122.93 206.03 123.41 205.14L123.56 205.08C125.75 205.32 126.19 207.77 128.15 207.33C128.64 207.22 134.61 202.44 140.17 197.95L140.16 197.97ZM195.45 98.9095C196.55 98.2595 197.6 97.6196 198.59 97.0196C199.38 96.5396 200.42 96.0195 201.13 95.4995C200.79 94.9095 200.26 94.1795 199.68 93.4295L195.44 98.9095H195.45ZM199.68 93.4295L195.44 98.9095C190.95 101.58 185.76 104.52 181.65 106.29C178.96 107.45 172.03 109.99 169.18 110.3C168.2 110.4 167.59 110.6 166.66 110.69C165.05 110.85 163.36 110.96 161.53 110.84C156.93 110.54 151.99 108.89 147.27 106.3L157.74 92.7495C158.99 93.1795 159.37 94.4796 159.12 95.4596C158.4 98.2996 154 98.9995 154.48 102C154.65 103.06 155.91 104.51 157.22 104.23C158.38 103.98 159.42 103.02 160.5 101.98C163.14 99.4095 165.28 96.7396 164.11 93.1396C163.56 91.4596 162.69 89.5596 161.03 88.5096L165.75 82.4095C166.87 81.7995 168.02 81.1295 169.06 80.4095C170.58 79.3695 173.19 77.7595 174.52 76.6095C175.55 75.7295 175.36 75.5695 175.46 74.6095C174.26 73.4995 173.39 74.0995 171.44 75.3795L170.91 75.7295L173.92 71.8396C174.31 71.4696 174.57 71.1196 174.75 70.7696L181.96 61.4395C183.37 60.1895 184.79 59.2095 186.49 58.8595C186.82 58.7895 187.13 58.8295 187.46 58.7795C190.26 58.3495 191.74 61.0596 193.74 61.1496C194.25 60.5096 193.93 59.9495 193.6 59.2395C192.42 56.6195 189.56 55.4496 187.09 55.8896C186.77 55.9496 186.49 55.9496 186.18 55.9796L187.67 54.0495C188.3 54.0495 189 54.1195 189.84 54.2495C192.52 54.6695 194.29 55.7096 196.12 58.1396C197.74 60.2896 197.83 62.2596 197.77 64.2696C197.72 65.8996 196.79 69.2696 195.54 70.8996C194.59 72.5396 192.97 74.3196 191.96 75.3396C191.25 76.2296 190.22 76.8995 189.38 77.6795C187.22 79.6895 189.93 81.4395 191.15 82.8595L197.36 90.4795C198 91.3095 198.89 92.3995 199.68 93.4395V93.4295ZM185.79 111.41C180.31 115.47 173.9 121.28 171.06 127.72C170.37 129.28 169.95 130.78 169.7 132.23L185.79 111.41ZM81 247.03L70.99 259.98C68.79 258.83 66.59 257.42 64.55 256.07C57.78 251.6 53.49 247.48 47.96 241.87C47.37 241.27 46.7 240.57 46.23 239.91C45.81 239.32 45.75 238.81 45.24 238.35L50.82 231.12C51.84 232.56 53.1 234 54.7 235.66C61.15 242.35 67.91 246.32 76.85 246.99C77.79 247.06 79.61 247.11 80.99 247.03H81ZM57.49 186.73C58.52 186.36 59.7299 184.91 60.66 184.05C66.9399 178.25 74.19 172.24 81.34 167.64C81.95 167.25 82.47 166.88 83.07 166.48C83.71 166.05 84.39 165.74 84.91 165.37L84.69 163.79C83.91 164.28 81.88 164.87 80.92 165.14C78.04 165.94 74.81 167.09 71.8 168.19L57.48 186.72L57.49 186.73ZM187.66 54.0396L186.17 55.9695C185.68 56.0095 185.11 56.1195 184.19 56.5895C182.77 57.3195 181.54 57.9695 180.58 59.4995C179.52 61.1995 180.04 63.1395 181.91 61.4695L181.95 61.4295L174.74 70.7596C175.21 69.8196 175.1 68.8195 175.39 67.1195C176.15 62.5895 179.22 57.3895 183.63 55.1895C185.28 54.3695 186.35 54.0295 187.67 54.0195L187.66 54.0396ZM173.91 71.8396L170.9 75.7295C168.71 77.1795 166.26 78.8495 164.1 79.9795C163.51 80.2895 162.72 80.5995 162.23 80.8695C161.39 81.3395 160.96 82.2896 161.45 83.0196C162.45 84.4796 164.19 83.2295 165.36 82.6095C165.48 82.5395 165.61 82.4795 165.73 82.4095L161.01 88.5096C160.93 88.4596 160.84 88.4095 160.76 88.3595C157.17 86.3895 153.5 88.1195 150.51 89.8495C146.27 92.2995 147.94 94.8595 150.51 95.1895C152.72 95.4695 154.58 92.2895 157.21 92.6295C157.4 92.6495 157.57 92.6995 157.73 92.7495L147.26 106.3C144.54 104.81 141.9 103 139.44 100.97C135.6 97.7795 133.46 95.8495 129.34 93.7195L132.72 89.3396C134.06 89.2496 135.47 89.1295 136.44 89.1195L142.7 88.5595C146.33 88.0195 151.63 86.0795 154.83 84.2895C158.83 82.0495 162.6 79.1596 166.54 76.6996C168.53 75.4596 170.45 74.2396 172.4 72.9596C173.04 72.5396 173.52 72.1796 173.88 71.8296L173.91 71.8396ZM50.83 231.12L45.25 238.35C45.13 238.25 44.99 238.15 44.82 238.05C43.2 237.14 42.18 237.72 40.77 238.98C33.06 245.88 23.19 261.29 19.12 264.55L19.08 263.51C19.08 263.2 19.09 262.88 19.1 262.52L18.94 258.68C18.87 258.04 18.89 257.46 18.83 256.81C18.77 256.11 18.58 255.59 18.46 254.87C17.93 251.66 16.15 246.2 13.78 243.32L17.37 238.67C20.38 241.1 20.23 244.84 21.63 247.63C23.69 251.73 24.77 251.49 25.05 246.89C25.13 245.53 24.9 244.64 24.55 243.29C23.39 238.84 22.89 239.34 21.14 236.41C22.24 234.04 26.95 228.66 28.9 226.61C30.5 224.92 37.39 218.45 39.32 217.62C40.32 217.19 40.53 216.48 41.07 215.5C41.98 213.86 42.96 212.21 44 210.58C46.17 207.16 48.6 203.6 51.15 200.4L47.77 208C46.05 212.49 45.84 217.93 47.01 222.37C48 226.11 49.07 228.62 50.84 231.11L50.83 231.12ZM25.67 170.73L25.4699 170.75L25.39 170.86L25.37 171.02C25.23 171.46 25.37 175.32 25.42 176.01C25.85 181.79 31.28 183.56 33.08 187.11C33.57 188.07 33.86 189.47 33.33 190.56C32.41 192.44 29.98 192.32 28.6 193.59C27.6 194.51 28.34 194.48 27.99 195.36C29.88 195.97 33.84 195.32 35.5 194.9C41.95 193.24 44.13 191.9 49.96 189.42C52.89 188.18 54.46 187.35 57.25 186.8C57.33 186.78 57.41 186.76 57.49 186.73L71.81 168.2C70.93 168.52 70.08 168.83 69.25 169.13C60.67 172.24 50.7 175.9 42.42 180C41.28 180.56 39.69 181.73 38.53 181.42C36.68 180.93 37.28 179.55 36.35 177.98C34.82 175.4 32.73 172.23 29.78 171.1C28.48 170.6 26.51 170.3 25.68 170.74L25.67 170.73ZM132.74 89.3396L129.36 93.7195C129.01 93.5395 128.65 93.3595 128.27 93.1695C126.04 92.0895 122.53 90.5195 120.15 90.1095C119.28 89.9595 118.33 89.9896 117.49 89.6396C118.22 89.4096 122.69 89.3396 123.81 89.3195C125.85 89.2795 128.08 89.4296 130.17 89.4496C130.88 89.4496 131.8 89.3996 132.75 89.3396H132.74ZM17.36 238.66L13.77 243.31C13.43 242.9 13.09 242.54 12.73 242.25C10.39 240.34 6.64997 239.4 5.23997 242.52C4.60997 240.87 6.40995 237.59 9.34995 236.61C11.23 235.98 14.02 236.57 16.45 238.02C16.78 238.22 17.09 238.43 17.36 238.65V238.66Z" fill="#C7C8C8"/>
<path fill-rule="evenodd" clip-rule="evenodd" d="M211.78 156.46C211.92 157.4 213.25 159.43 213.26 160.44C213.58 160.85 214.34 163.5 214.52 164.25C214.99 166.2 215.49 168.15 215.75 170.14L216.02 174.07C216.05 177.19 216.02 177.13 215.79 180.14C215.69 181.43 215.49 182.97 215.23 184.27C214.06 190.18 212.48 195.6 209.74 201.12C206.95 206.76 203.13 213.41 199.05 217.95C197.79 219.35 196.77 220.88 195.53 222.25L191.95 225.99C192.42 226 192.4 225.87 192.89 225.56L195.88 223.39C206.05 214.64 211.61 205.51 215.82 192.91L217.03 188.49C218 185.03 218.68 179.11 218.66 175.4C218.66 173.68 218.38 169.62 218.04 168.05C217.67 166.39 217.32 164.46 216.8 162.86L215.33 158.67C214.77 157.7 214.22 155.64 213.41 154.88C213.2 154.03 213.22 154.25 212.73 153.37C211.98 152.05 210.63 149.83 209.17 149.39C208.64 150 209 150.54 209.28 151.25L211.78 156.46Z" fill="#D7D8D8"/>
<path fill-rule="evenodd" clip-rule="evenodd" d="M25.08 214.79C26.03 215.58 26.88 216.43 27.65 217.34C28.45 218.29 28.9099 219.18 29.6199 220.07C31.0099 218.64 33.1099 217.01 34.7199 215.81C35.7099 215.08 36.5899 215 37.1799 213.93C40.2799 208.31 43.4999 203.6 47.4199 198.4C46.5099 198.96 45.54 199.88 44.65 200.6C39.67 204.6 35.4299 207.11 30.5699 210.59C29.2999 211.51 26.0299 213.74 25.0599 214.79H25.08Z" fill="#E95513"/>
<path fill-rule="evenodd" clip-rule="evenodd" d="M214.61 211.88C216.59 209.32 216.5 209.59 218.15 206.87C218.52 206.26 218.83 205.7 219.14 205.16C219.8 204.01 220.3 203.03 220.88 201.87C221.47 200.68 221.83 199.77 222.35 198.61C225.04 192.51 227.35 181.53 226.49 175C226.4 174.33 226.4 174.1 226.38 173.43C226.36 173.02 226.28 172.37 226.2 171.97L225.59 168.98C224.98 166.55 224.14 163.63 222.44 161.56C222.16 162.23 223.32 166.51 223.55 167.56C223.61 167.83 223.6 167.97 223.65 168.24L224.53 176.65C224.61 179.18 224.2 183.6 223.71 186.07C222.95 189.88 222.42 191.95 221.14 195.61L218.7 202.06C218.26 203.18 217.84 204.16 217.34 205.31C216.85 206.43 216.45 207.42 215.91 208.56C215.6 209.21 215.4 209.61 215.15 210.24C214.95 210.75 214.61 211.39 214.64 211.89L214.61 211.88Z" fill="#D7D8D8"/>
<path fill-rule="evenodd" clip-rule="evenodd" d="M93.1699 243.77L123.15 204.97L123.18 204.99L123.39 205.16C122.91 206.05 121.02 210.8 120 212.84C114.52 223.86 104.86 237.8 93.1699 243.78V243.77ZM136.77 187.34L153.38 165.85C153.58 165.99 153.81 166.12 154.08 166.22C156.68 167.17 158.7 163.5 156.38 161.97L160.75 156.31C161.58 156.75 162.37 156.92 163.08 156.21C164.15 155.14 163.54 154.2 162.87 153.57L169.97 144.38C170.28 146.07 170.68 147.72 171.1 149.11C172.36 153.31 172.62 156.37 173.01 160.75C173.12 161.97 173.22 161.78 173.23 163.1C173.23 163.72 173.48 164.97 173.02 165.48C172.35 166.33 170.28 167.71 169.26 168.72C166.13 171.8 164.85 172.47 161.95 175.05C160.77 176.1 159.58 177.26 158.34 178.22C155.91 176.26 153.19 178.89 153.78 180.75C154.02 181.51 154.11 181.24 153.86 181.66C152.88 182.77 150.46 184.52 149.22 185.46C148.43 186.06 147.68 186.62 146.87 187.23C145.52 188.25 145.88 188.35 144.44 188.39C141.94 188.46 139.46 188.16 136.78 187.34H136.77ZM192.86 158.91C192.43 159.04 191.92 159.02 191.5 159.08C188.72 159.45 184.67 163.43 182.97 165.43C180.5 168.34 177.82 172.53 178.36 176.52C178.6 178.3 179.49 180.13 180.9 181.44C182.6 183.01 184.61 183.84 186.62 184.42C188.57 184.98 190.24 185.09 191.98 185.24C192.94 185.33 193.71 185.28 194.65 185.24L197.4 185.07C198.35 185.15 207.87 180.73 205.85 174.38C205.07 171.94 201.98 170.22 199.64 170C197.41 169.79 195.04 170.17 192.92 170.9C190.34 171.78 191.09 171.61 190.61 173.17C189.92 175.43 187.59 178.3 185.32 178.87C184.55 179.06 182.31 178.97 182.67 177.36C183.14 175.26 185.32 174.76 186.44 172.42C186.88 171.5 186.66 171.51 186.47 170.64C185.79 167.5 189.34 169 191.59 166.01C191.64 165.95 191.8 165.75 191.85 165.7C192.04 165.55 191.99 165.59 192.12 165.54L192.46 165.1L193.82 163.34C194.31 162.74 194.57 162.33 194.71 161.75L194.68 161.55C194.91 160.95 194.96 160.35 194.54 159.79C194.17 159.29 193.35 158.8 192.85 158.92L192.86 158.91ZM66.8199 301.58C66.7399 301.22 66.8099 301.42 66.4399 301.58C65.3099 302.07 64.3699 302.61 62.7199 301.98C60.4499 301.11 59.1499 298.5 58.6499 296.37L58.2699 294.34C58.0199 292.45 58.7399 290.8 58.4199 290.05C55.5299 296.5 58.5799 304.38 61.9499 304.46C63.0699 304.49 65.7899 302.96 66.8299 301.58H66.8199ZM169.97 144.38L162.87 153.57C162.46 153.19 162.04 152.91 161.96 152.8C163.59 150.34 157.65 146.61 155.15 147.33L172.91 124.35C172.2 125.45 171.59 126.58 171.08 127.72C169.53 131.25 169.34 134.45 169.34 137.45C169.34 137.81 169.35 138.19 169.36 138.64C169.37 140.37 169.62 142.41 169.98 144.39L169.97 144.38ZM160.75 156.31L156.38 161.97C156.21 161.86 156.03 161.76 155.81 161.68C152.93 160.52 151.27 164.32 153.38 165.86L136.77 187.35C135.83 187.06 134.86 186.7 133.86 186.28C131.71 185.36 129.54 184.36 127.5 183.11L138.47 168.91C138.53 168.96 138.59 169 138.66 169.04C141.07 170.4 144.28 165.92 141.4 165.14H141.39L154.09 148.71C153.36 150.09 154.39 151.06 155.5 152.22C156.68 153.45 157.87 154.49 159.35 155.44C159.83 155.75 160.3 156.08 160.76 156.32L160.75 156.31ZM123.16 204.96L93.1799 243.76C91.3099 244.71 89.3999 245.47 87.4399 245.97C84.2699 246.79 84.2099 246.49 82.1999 246.89C81.2699 247.07 79.4699 247.09 78.09 247.05L114.18 200.34C115.31 200.95 116.51 201.56 118 202.33C119.31 203 121.65 203.97 122.67 204.75L122.97 204.81L123.16 204.96ZM176.52 119.66L190.2 101.95C193.15 100.3 196.08 98.5399 198.59 97.0199C199.38 96.5399 200.42 96.0199 201.13 95.4999L204.25 99.7699C203.24 100.01 203.31 99.6999 202.09 100.33C200.74 101.04 196.84 103.73 195.51 104.65C192.55 106.71 189.67 108.6 186.78 110.67C183.46 113.05 179.68 116.13 176.51 119.65L176.52 119.66ZM190.2 101.95L176.52 119.66C175.18 121.15 173.94 122.72 172.9 124.34L155.14 147.32C154.54 147.49 154.13 147.92 154.08 148.69L141.38 165.12C137.44 164.07 136.94 167.73 138.46 168.89L127.49 183.09C125.91 182.12 124.4 180.99 123.05 179.63C120.48 177.05 117.75 173.13 116.2 170.21C115.34 168.59 114.7 166.91 114.02 165.34C112.04 160.75 110.5 155.33 109.04 150.53C108.46 148.63 107.61 146.54 106.4 144.52L136.92 105.02L137.11 105.22C137.58 105.72 140.43 109.24 141.1 106.92C141.43 105.77 140.07 104.11 138.64 102.81L139.82 101.28C146.46 106.68 154.41 110.39 161.53 110.85C163.36 110.97 165.05 110.85 166.66 110.7C167.59 110.61 168.21 110.41 169.18 110.31C172.03 110 178.96 107.46 181.65 106.3C184.22 105.19 187.22 103.63 190.2 101.96V101.95ZM114.17 200.35L78.0799 247.06C77.5999 247.05 77.1799 247.02 76.8499 247C67.9099 246.33 61.1499 242.36 54.6999 235.67C50.3099 231.11 48.5499 228.28 46.9899 222.39C46.9299 222.15 46.8699 221.9 46.8099 221.66L70.3499 191.19C70.5099 191.68 70.7499 192.14 71.0599 192.55C72.6699 194.66 76.2599 194.84 78.0999 194.23L78.2999 194.21L78.4899 194.18L78.6799 194.15L78.9599 194.02L79.1499 194C79.5099 194.02 79.3099 194.1 79.6199 193.84C80.1999 193.85 81.4499 193.27 82.0399 192.98C82.0399 193.24 81.3399 195.83 81.1699 197.11C80.5499 201.82 83.16 206.67 87.6499 206.25C90.3599 206 92.9199 203.43 94.0999 200.2C95.5999 196.09 94.9999 192.74 95.1599 192.07C96.4099 193.98 94.9799 197.72 97.7899 198.02C99.1199 198.16 99.63 197.55 100.84 196.38C101.81 195.44 102.8 194.53 103.77 193.58C105.3 194.44 107.06 195.84 108.53 196.87C110.78 198.43 112.37 199.39 114.14 200.36L114.17 200.35ZM13.6499 264.57L18.8699 257.81C18.8799 258.09 18.8899 258.38 18.9299 258.67L19.09 262.51C19.09 262.87 19.0899 263.19 19.0699 263.5L19.1099 264.54C18.2999 265.42 17.0699 266.42 16.0799 266.67C15.1199 266.24 14.3199 265.45 13.6499 264.56V264.57ZM77.8099 181.54L77.8699 181.52C80.6999 180.76 83.8199 181.41 84.8599 181.36C83.2399 179.86 81.6199 180.18 80.84 180C80.2899 179.87 79.8599 179.61 79.5499 179.27L77.7999 181.53L77.8099 181.54ZM85.5599 171.51L86.2499 170.62L86.34 170.83C86.14 171.03 85.8699 171.26 85.5599 171.51ZM139.83 101.27L138.65 102.8C137.77 101.99 136.87 101.32 136.33 101C135.26 100.35 134.77 100.15 134.06 101.28C134.54 102.72 135.68 103.71 136.93 105.02L106.41 144.52C105.66 143.27 104.77 142.05 103.73 140.91C102.27 139.32 100.96 138.19 99.7699 137.33L121.71 108.93C122.25 110.12 123.12 111.78 124.28 112.32C125.01 112.66 125.88 112.53 126.44 111.65C127.05 110.69 126.57 110.28 126.18 109.32C125.99 108.82 126.18 108.24 126.1 107.73C126.05 107.33 125.77 106.51 125.55 106.02C125.38 105.64 125.15 105.23 124.87 104.85L132.21 95.3499C134.69 96.9299 136.6 98.5999 139.46 100.97C139.58 101.07 139.71 101.17 139.83 101.27ZM86.2499 170.62L85.5599 171.51C83.6499 173.09 80.09 175.55 79.34 176.72C78.82 177.54 78.9199 178.57 79.5599 179.27L77.8099 181.53C75.6199 182.12 73.2699 182.85 71.4199 185.54C70.1699 187.36 69.7799 189.46 70.3499 191.18L46.8099 221.65C45.8399 217.35 46.1199 212.25 47.7499 208.01L51.1299 200.41C57.8999 191.64 68.1699 182.43 77.0199 175.69C77.8999 175.02 84.7999 170.1 85.8499 169.68L86.2399 170.62H86.2499ZM18.8699 257.81L13.6499 264.57C12.7399 263.36 12.0499 261.94 11.4599 260.92C10.3699 259.03 9.33994 257.43 8.38994 255.59L15.6099 246.25C17.0399 249.09 18.0699 252.56 18.4499 254.87C18.5699 255.59 18.7499 256.1 18.8199 256.81C18.8499 257.16 18.8599 257.49 18.8699 257.82V257.81ZM132.21 95.3499L124.87 104.85C124.34 104.13 123.62 103.48 122.73 103.19C122.08 102.4 121.69 101.59 120.65 101.88C118.49 102.49 120.65 106.45 121.41 108.23C121.49 108.43 121.6 108.67 121.71 108.93L99.7699 137.33C97.0299 135.36 94.8999 134.82 92.9899 133.37L92.6899 133.31L92.2499 132.97C91.7199 132.56 92.0499 132.8 91.84 132.83C90.1099 131.5 88.7799 130.6 87.5699 129.5L98.0799 115.9C98.1799 115.96 98.2899 116.02 98.4099 116.08C100.93 117.24 103.57 113.38 101.11 111.98L118.2 89.8599C118.84 89.9899 119.52 90.0099 120.14 90.1199C122.53 90.5299 126.03 92.0999 128.26 93.1799C129.8 93.9199 131.06 94.6299 132.21 95.3599V95.3499ZM15.6099 246.25L8.38994 255.59C8.27994 255.37 8.15991 255.15 8.04991 254.92C7.31991 253.42 6.37994 250.48 5.82994 248.76C5.49994 247.75 4.6699 243.67 5.2299 242.52C6.6299 239.4 10.3699 240.34 12.7199 242.25C13.7899 243.12 14.7699 244.57 15.6099 246.24V246.25ZM118.2 89.8599L101.11 111.98C101.04 111.94 100.98 111.91 100.91 111.87C98.3299 110.68 95.56 114.35 98.09 115.89L87.5799 129.49C86.8499 128.82 86.1599 128.08 85.4599 127.13L103.46 103.83C103.63 103.97 103.82 104.08 104.03 104.16C106.82 105.27 109.11 101.11 106.78 99.5299L114.22 89.9099C115.76 89.6199 117.02 89.4699 117.49 89.6399C117.72 89.7399 117.96 89.7999 118.21 89.8499L118.2 89.8599ZM27.9899 195.36C28.3399 194.48 27.5999 194.51 28.5999 193.59C29.9799 192.32 32.4099 192.44 33.3299 190.56C33.8599 189.47 33.5699 188.07 33.0799 187.11C31.2799 183.56 25.8399 181.8 25.4199 176.01C25.3699 175.32 25.2299 171.46 25.3699 171.02L25.2099 170.88C24.8299 170.88 24.77 170.91 24.34 171.18C21.8899 172.7 21.9799 175.41 22.6599 177.86C24.6099 184.91 31.6699 184.74 31.3099 188.04C31.0599 190.31 28.5899 189.7 27.9199 189.86C26.9899 190.09 24.7099 191.17 24.7199 192.65C24.7199 193.99 26.7299 195.18 27.9899 195.36ZM114.21 89.9199L106.77 99.5399C106.62 99.4399 106.46 99.3499 106.27 99.2699C105.25 98.8499 103.36 99.1799 102.89 100.69C102.87 100.77 102.68 102.51 102.69 102.6C102.74 103.02 103.02 103.49 103.44 103.84L85.4399 127.14C85.2099 126.82 84.9699 126.48 84.7299 126.11C82.8899 123.24 82.6599 121.81 82.2899 118.69L82.1699 116.73C82.2099 116.3 82.6399 115.29 82.8499 114.76C84.7999 109.79 86.4499 106.49 90.3699 102.45C90.9999 102.86 92.0199 104.1 93.7599 102.51C94.5399 101.79 94.57 101.47 94.84 100.65C95.0799 99.9199 95.3099 99.4599 94.3499 99.0999L94.3999 98.8899C95.06 97.9699 98.9499 95.5399 100.02 94.9199C101.86 93.8599 103.9 92.7599 105.7 92.0999C106.64 91.7599 110.99 90.5299 114.17 89.9299L114.21 89.9199Z" fill="#FAD9D0"/>
<path fill-rule="evenodd" clip-rule="evenodd" d="M160.19 89.4298C162.35 90.7398 163.11 93.3698 163.06 94.8698C162.96 98.0798 158.15 103.27 156.64 102.86C155.14 102.46 155.43 101.06 156.4 100.19C158.08 98.6898 160.61 96.2798 160.24 94.2398C159.97 92.7698 159.32 91.9898 158.46 91.6698L157.64 92.7398C158.97 93.1298 159.38 94.4698 159.12 95.4798C158.4 98.3198 154 99.0198 154.48 102.02C154.65 103.08 155.91 104.53 157.22 104.25C158.38 104 159.42 103.04 160.5 102C163.14 99.4298 165.28 96.7598 164.11 93.1598C163.55 91.4498 162.66 89.5098 160.94 88.4798L160.19 89.4498V89.4298ZM159.89 89.2598C159.99 89.3098 160.09 89.3698 160.19 89.4298L160.94 88.4598C160.89 88.4298 160.83 88.3898 160.77 88.3598C157.18 86.3898 153.51 88.1198 150.52 89.8498C146.28 92.2998 147.95 94.8598 150.52 95.1898C152.73 95.4698 154.59 92.2898 157.22 92.6298C157.37 92.6498 157.51 92.6798 157.64 92.7198L158.46 91.6498C156.67 90.9698 154.02 92.2798 152.35 93.2798C151.43 93.8298 150.38 94.7298 149.47 93.5298C147.86 91.4098 156.12 87.2998 159.89 89.2498V89.2598Z" fill="white"/>
<path fill-rule="evenodd" clip-rule="evenodd" d="M190.89 132.09C192.61 133.03 193.84 135.18 193.7 137.3C193.46 140.8 188.84 145.22 187.45 145.35C186.19 145.47 185.53 143.93 186.35 143.02C187.51 141.74 190.32 140.25 190.86 137.46C191.05 136.48 190.74 135.25 189.56 134.52C189.43 134.44 189.29 134.38 189.15 134.33L188.42 135.28C188.42 135.28 188.51 135.3 188.54 135.31C189.1 135.51 189.56 136.23 189.73 136.71C189.93 137.3 189.73 137.84 189.28 138.56C187.46 141.47 184.01 141.76 184.72 144.78C185.02 146.06 186.52 146.79 187.72 146.67C188.82 146.56 190.01 145.41 190.92 144.55C193.11 142.49 194.59 139.83 194.83 137.34C195 135.57 194.03 132.39 191.68 131.04L190.88 132.08L190.89 132.09ZM190.44 131.88C190.59 131.94 190.75 132.01 190.89 132.09L191.69 131.05L191.61 131C186.53 128.23 179.07 132.78 179.27 135.67C179.35 136.84 180.71 137.99 181.94 137.91C182.98 137.85 184.5 136.23 186.78 135.45C187.11 135.34 187.98 135.2 188.42 135.27L189.15 134.32C188.26 134.03 187.1 134.29 186.55 134.42C183.21 135.17 182.33 137.47 180.88 136.23C178.5 134.2 186.32 130.21 190.44 131.86V131.88Z" fill="white"/>
<path fill-rule="evenodd" clip-rule="evenodd" d="M91.2599 180.05C90.3199 179.51 90.5099 178.75 89.9699 178.01L88.9299 179.36C89.6599 180.17 90.2099 181.09 90.9799 182.39C92.0299 181.38 93.3199 180.31 94.4399 179.37C95.3299 178.63 97.3499 177.26 97.9399 176.51C97.2099 174.9 97.29 173.32 94.83 171.72L93.5599 173.37C94.6699 173.72 95.9999 176.18 95.7499 176.9C95.4299 177.8 94.7699 175.84 94.6199 175.55C94.3199 174.99 93.56 174.39 93.15 173.9L92.2 175.13C93.28 176.09 94.1699 178.04 93.6199 178.94C92.6799 178.2 92.8199 177.36 92.3799 176.53C92.2599 176.3 91.9799 176.06 91.6699 175.82L90.53 177.29C91.26 178.21 91.7 179.49 91.27 180.04L91.2599 180.05ZM89.9699 178.01C89.9699 178.01 89.9399 177.97 89.9199 177.94C89.4299 177.32 87.34 176.49 88.78 176.28C89.37 176.19 90.01 176.66 90.52 177.3L91.6599 175.83C90.9499 175.28 90.11 174.77 90.84 174.61C91.26 174.52 91.7399 174.75 92.1899 175.14L93.14 173.91C93.01 173.76 92.9199 173.62 92.8799 173.49C93.0799 173.33 93.3099 173.3 93.5499 173.38L94.8199 171.73C94.6899 171.65 94.5599 171.56 94.4099 171.48C93.8299 171.14 93.7199 170.98 93.1899 171.2C92.4999 171.48 91.6499 172.34 90.9899 172.55C90.5899 173.07 90.8299 172.76 90.6299 172.79L90.5399 172.9L90.2599 173.03C89.7399 173.6 86.6399 175.79 85.5599 176.83C87.1799 177.75 88.1499 178.48 88.9199 179.35L89.96 178L89.9699 178.01Z" fill="white"/>
<path fill-rule="evenodd" clip-rule="evenodd" d="M99.24 186.25C100.16 187.18 100.83 188.21 100.63 188.68C100.11 189.91 99.72 188.12 98.72 186.93L97.73 188.21C98.51 189.21 99.01 190.33 99.6 191.82C100.67 190.84 105.87 186.22 106.31 185.47C106.07 184.95 105.95 184.54 105.66 183.97L104.79 182.6C104.79 182.6 104.75 182.54 104.74 182.51C104.19 182.09 103.73 181.55 103.26 181.07L102.31 182.3C103.08 183.04 103.74 184.03 103.86 185.1C103.96 185.9 104.41 186.06 103.69 186.69C102.66 186.11 103.4 184.44 101.8 182.96L100.77 184.3C101.96 185.57 102.83 187.26 101.73 187.51C101.07 186.97 101.57 187.1 101.18 186.34C100.9 185.81 100.56 185.38 100.21 185.02L99.24 186.28V186.25ZM95.69 184.54C96.32 183.9 98.01 184.99 99.25 186.25L100.22 184.99C99.28 184.05 98.24 183.62 97.99 183.16C98.45 182.39 99.74 183.17 100.78 184.27L101.81 182.93C101.47 182.62 101.02 182.31 100.42 182.02C99.71 181.68 98.89 180.85 99.97 180.94C100.57 180.99 101.5 181.5 102.31 182.27L103.26 181.04C103.12 180.9 102.97 180.76 102.82 180.63C102.06 179.99 101.17 179.8 100.48 179.35L93.99 185.27C95.81 186.27 96.93 187.16 97.73 188.19L98.72 186.91C98.72 186.91 98.67 186.85 98.64 186.82C97.01 185 95.97 185.43 95.69 184.53V184.54Z" fill="white"/>
<path fill-rule="evenodd" clip-rule="evenodd" d="M168.69 194.22C168.72 195.15 168.28 199.44 167.78 200.46C167.8 200.9 167.71 200.93 167.6 201.37L166.77 204.35C166.35 205.73 165.88 206.96 165.38 208.29C164.95 209.44 162.5 215.28 161.79 216.38C162.57 216.4 163.33 215.07 163.73 214.55C165.51 212.25 166.83 209.93 167.94 207.37C168.77 205.46 169.65 202.52 170.04 200.46C170.19 199.66 170.27 198.85 170.47 198.09C170.41 197.47 170.65 196.09 170.71 195.32C170.78 194.35 170.84 193.33 170.8 192.46V191.93C170.85 189.8 170.42 185.69 168.24 184.85C167.78 185.37 168.07 185.95 168.3 187.11C168.72 189.28 168.86 192 168.68 194.22H168.69Z" fill="#D7D8D8"/>
<path fill-rule="evenodd" clip-rule="evenodd" d="M89.09 188.36C87.16 191.26 84.91 195.95 85.32 199.34C85.88 204.02 90.1299 202.77 90.9799 195.25C91.5299 190.41 89.9599 190.47 89.0999 188.36H89.09Z" fill="#E95513"/>
<path fill-rule="evenodd" clip-rule="evenodd" d="M175.45 74.6099C174.25 73.4999 173.38 74.0999 171.43 75.3799C169.11 76.8999 166.44 78.7599 164.1 79.9799C163.51 80.2899 162.72 80.5999 162.23 80.8699C161.39 81.3399 160.96 82.29 161.45 83.02C162.45 84.48 164.19 83.2299 165.36 82.6099C166.6 81.9499 167.89 81.2099 169.04 80.4099C170.56 79.3699 173.17 77.7599 174.5 76.6099C175.53 75.7299 175.34 75.5699 175.44 74.6099H175.45Z" fill="#D7D8D8"/>
<path fill-rule="evenodd" clip-rule="evenodd" d="M193.73 61.1397C194.24 60.4997 193.92 59.9396 193.59 59.2296C192.41 56.6096 189.55 55.4397 187.08 55.8797C186.24 56.0297 185.69 55.8197 184.18 56.5897C182.76 57.3197 181.53 57.9697 180.57 59.4997C179.51 61.1997 180.03 63.1396 181.9 61.4696C183.32 60.1996 184.76 59.1997 186.48 58.8497C186.81 58.7797 187.12 58.8196 187.45 58.7696C190.25 58.3396 191.73 61.0497 193.73 61.1397Z" fill="#D7D8D8"/>
<path fill-rule="evenodd" clip-rule="evenodd" d="M106.94 190.68C109.59 192.52 112.27 194.45 115.01 196.06C116.32 196.83 117.61 197.49 118.95 198.16L121.8 199.59C121.95 199.67 122.18 199.8 122.33 199.85L122.92 199.99C120.19 197.8 118.12 196.21 115.48 193.67C113.55 191.81 111.81 189.74 109.9 187.93L106.94 190.68Z" fill="#E95513"/>
<path fill-rule="evenodd" clip-rule="evenodd" d="M162.86 199.25C162.63 199.69 162.47 201.61 162.32 202.34C162.16 203.12 161.91 204.93 161.53 205.64C161.48 206.47 160.43 210.44 160.14 211.44C160.03 211.83 159.95 212.06 159.84 212.47C159.68 213.05 159.65 213.18 159.84 213.46C161.63 211.15 162.62 208.52 163.51 205.96L164.22 203.48C164.15 203.13 164.57 200.95 164.64 200.37C164.72 199.67 164.77 197.71 164.99 197.31C164.98 197.27 164.99 197.19 164.96 197.2L164.81 193.81C164.73 193.15 164.46 190.94 163.24 190.49C162.82 191.17 163.09 193.64 163.09 194.82C163.09 195.49 163.03 196.29 162.97 197.02L162.86 199.14C162.86 199.14 162.86 199.22 162.86 199.26V199.25Z" fill="#D7D8D8"/>
<path fill-rule="evenodd" clip-rule="evenodd" d="M74.22 189.84C76.33 191.69 82.15 187.99 84.41 185.58C82.72 184.99 79.92 185.36 78.6 185.62C76.64 186.01 74.28 187.39 74.22 189.83V189.84Z" fill="#E95513"/>
<path fill-rule="evenodd" clip-rule="evenodd" d="M161.95 152.8C160.14 154.69 159.63 151.81 158.16 150.85C157.5 150.41 156.53 150.1 155.86 150.02C154.8 149.88 154.4 149.65 154.08 148.7C153.35 150.08 154.38 151.05 155.49 152.21C156.67 153.44 157.86 154.48 159.34 155.43C160.68 156.3 161.97 157.31 163.08 156.21C164.81 154.5 162.16 153.1 161.95 152.8Z" fill="#DFB5AA"/>
<path fill-rule="evenodd" clip-rule="evenodd" d="M242.4 118.84C242.57 117.9 241.71 116.92 240.77 116.21C239.5 115.25 239.01 115.28 237.78 115.22C236.88 115.17 233.31 116.18 232.28 117.53C231.2 118.95 232.81 119.53 233.84 119.19C234.67 118.92 237.24 118.06 237.95 118.12C238.45 118.16 238.9 118.16 239.44 118.22C240.19 118.3 241.81 118.91 242.4 118.84Z" fill="#D7D8D8"/>
<path fill-rule="evenodd" clip-rule="evenodd" d="M134.06 101.28C134.56 102.79 135.79 103.8 137.11 105.22C137.58 105.72 140.43 109.24 141.1 106.92C141.63 105.06 137.73 101.86 136.33 101.01C135.26 100.36 134.77 100.16 134.06 101.29V101.28Z" fill="white"/>
<path fill-rule="evenodd" clip-rule="evenodd" d="M106.28 99.2798C105.26 98.8598 103.37 99.1897 102.9 100.7C102.88 100.78 102.69 102.52 102.7 102.61C102.77 103.2 103.28 103.88 104.02 104.18C106.99 105.36 109.39 100.58 106.28 99.2798Z" fill="#DFB5AA"/>
<path fill-rule="evenodd" clip-rule="evenodd" d="M164.97 197.31C164.76 197.71 164.71 199.67 164.62 200.37C164.55 200.95 164.14 203.129 164.2 203.479C164.55 203.049 165.49 202.34 165.97 201.96C166.56 201.5 167.26 200.999 167.76 200.469C168.26 199.459 168.7 195.169 168.67 194.229L164.95 197.31H164.97Z" fill="#974D23"/>
<path fill-rule="evenodd" clip-rule="evenodd" d="M126.18 109.31C125.85 110.44 125.26 111.73 123.91 110.81C122.57 109.9 124.02 108.57 122.77 106.66C122.31 105.96 121.81 105.84 121.43 105.33C121.08 104.85 120.89 103.34 122.73 103.17C122.08 102.38 121.69 101.57 120.65 101.86C118.49 102.47 120.65 106.43 121.41 108.21C121.88 109.32 122.87 111.64 124.28 112.3C125.01 112.64 125.88 112.51 126.44 111.63C127.05 110.67 126.57 110.26 126.18 109.3V109.31Z" fill="#DFB5AA"/>
<path fill-rule="evenodd" clip-rule="evenodd" d="M155.81 161.67C152.65 160.4 150.97 165.08 154.08 166.22C156.87 167.24 158.99 162.95 155.81 161.67Z" fill="#DFB5AA"/>
<path fill-rule="evenodd" clip-rule="evenodd" d="M100.9 111.88C98.2099 110.64 95.3299 114.67 98.4099 116.08C101 117.27 103.71 113.18 100.9 111.88Z" fill="#DFB5AA"/>
<path fill-rule="evenodd" clip-rule="evenodd" d="M141.4 165.13C137.29 164.02 136.91 168.04 138.66 169.03C141.07 170.39 144.28 165.91 141.4 165.13Z" fill="#DFB5AA"/>
<path fill-rule="evenodd" clip-rule="evenodd" d="M90.3999 102.44C91.0299 102.85 92.0499 104.09 93.7899 102.5C94.5699 101.78 94.5999 101.46 94.8699 100.64C95.1099 99.9099 95.3399 99.4499 94.3799 99.0899L94.4299 98.8799C93.6999 99.0399 91.1099 101.73 90.3999 102.44Z" fill="#DFB5AA"/>
<path fill-rule="evenodd" clip-rule="evenodd" d="M153.85 181.659C154.31 181.459 157.68 178.779 158.33 178.219C155.9 176.259 153.18 178.89 153.77 180.75C154.01 181.51 154.1 181.239 153.85 181.659Z" fill="#DFB5AA"/>
<path fill-rule="evenodd" clip-rule="evenodd" d="M89.8 167.96L91.89 166.42L89.08 162.63C88.81 163.43 88.94 164.77 89.08 165.37C89.23 166.02 89.42 167.39 89.8 167.96Z" fill="#E95513"/>
<path fill-rule="evenodd" clip-rule="evenodd" d="M103.7 186.66C104.42 186.04 103.96 185.87 103.87 185.07C103.61 182.87 101.14 181.04 99.9699 180.94C98.8899 180.85 99.6999 181.68 100.42 182.02C103.82 183.64 102.45 185.95 103.7 186.66Z" fill="#C7C8C7"/>
<path fill-rule="evenodd" clip-rule="evenodd" d="M95.6899 184.54C95.9799 185.44 97.02 185.01 98.64 186.83C99.7 188.02 100.09 189.94 100.63 188.68C101.1 187.57 96.7799 183.43 95.6899 184.54Z" fill="#C7C8C7"/>
<path fill-rule="evenodd" clip-rule="evenodd" d="M97.99 183.15C98.33 183.79 100.19 184.37 101.19 186.31C101.58 187.07 101.08 186.94 101.74 187.48C103.78 187 98.99 181.51 97.99 183.16V183.15Z" fill="#C7C8C7"/>
<path fill-rule="evenodd" clip-rule="evenodd" d="M93.6099 178.95C94.3899 177.68 92.2899 174.3 90.8499 174.61C89.7999 174.83 91.97 175.78 92.37 176.54C92.81 177.37 92.6699 178.21 93.6099 178.95Z" fill="#C7C8C7"/>
<path fill-rule="evenodd" clip-rule="evenodd" d="M91.26 180.05C91.99 179.12 90.2 176.07 88.78 176.28C87.34 176.49 89.4399 177.32 89.9199 177.94C90.5199 178.7 90.29 179.49 91.26 180.04V180.05Z" fill="#C7C8C7"/>
<path fill-rule="evenodd" clip-rule="evenodd" d="M92.8799 173.49C93.0399 174.02 94.2099 174.82 94.6099 175.56C94.7699 175.85 95.4199 177.81 95.7399 176.91C96.0499 176.03 94.0099 172.58 92.8799 173.49Z" fill="#C7C8C7"/>
<path fill-rule="evenodd" clip-rule="evenodd" d="M148.49 26.6298C145.25 30.8898 145.48 29.1197 138.2 24.7397C137.36 24.2397 136.1 23.5997 135.6 22.7997C135.16 22.0797 135.12 21.0898 135.64 20.2298C136.6 18.6398 138.66 16.2598 139.84 14.6998C141.77 12.1398 146.09 5.78975 141.58 4.61975C140.04 4.21975 138.36 5.11977 136.72 6.31977C135.32 7.33977 133.45 9.04975 132.19 10.2997C126.1 16.3397 119.91 23.3398 116.54 31.2898C115.67 33.3398 115.32 34.9998 115.72 36.5698C116.33 39.0098 118.2 38.9498 119.91 37.9998C122.99 36.2698 126.7 31.8598 128.84 28.8498C132.35 23.9198 133.1 27.6397 139.12 31.4597C139.87 31.9397 141.32 32.6198 141.85 33.2298C143.54 35.1798 139.91 38.3397 138.09 41.2697C136.09 44.4997 133.04 49.1198 134.83 51.9498C137.1 55.5298 142.59 50.1498 144.29 48.3398C149.63 42.6298 154.16 33.5897 157.16 26.6097C157.85 25.0097 158.82 22.7698 159.15 21.1998C159.85 17.8598 158.11 16.5498 157.29 16.7898C154.8 17.5098 150.23 24.3498 148.48 26.6498L148.49 26.6298ZM177 34.4298C178.55 33.4298 178.17 31.6597 177.32 30.7997C176.5 29.9697 172.42 29.4498 172.73 32.1998C173.1 35.5498 175.94 35.1198 177.01 34.4298H177ZM166.02 43.6097C165.04 43.3097 164.13 43.8297 163.4 44.5497C160.99 46.9197 158.11 50.2198 156.1 52.8798C154.66 54.7898 153.36 56.7298 152.36 58.8898C151.69 60.3298 150.19 63.4197 152.21 64.4197C154.49 65.5497 160.52 57.0198 161.85 55.0398C162.83 53.5798 169.57 44.7098 166.03 43.6198L166.02 43.6097Z" fill="#F0AECC"/>
</svg>
