<svg width="171" height="59" viewBox="0 0 171 59" fill="none" xmlns="http://www.w3.org/2000/svg">
<path d="M146.88 0.459961C133.94 0.459961 121.16 8.92997 114.89 20.62C113.68 8.92997 104.56 0.459961 91.6199 0.459961C78.6799 0.459961 65.8999 8.92997 59.6299 20.62C58.4199 8.92997 49.2999 0.459961 36.3599 0.459961C20.3399 0.459961 4.53993 13.45 1.06993 29.47C-2.40007 45.49 7.77991 58.48 23.7999 58.48C36.7399 58.48 49.5199 50.01 55.7899 38.32C56.9999 50.01 66.1199 58.48 79.0599 58.48C91.9999 58.48 104.78 50.01 111.05 38.32C112.26 50.01 121.38 58.48 134.32 58.48C150.34 58.48 166.14 45.49 169.61 29.47C173.08 13.45 162.9 0.459961 146.88 0.459961Z" fill="#3E3A39"/>
<path d="M29.3598 27.4503C29.6498 27.8403 29.7399 28.3103 29.6299 28.8503C29.5199 29.3903 29.2199 29.8503 28.7599 30.2303C28.2999 30.6103 27.7899 30.8003 27.2399 30.8003H21.3399C21.1399 30.8003 20.9898 30.9203 20.9098 31.1503C20.4998 32.2603 20.2599 32.8803 20.1999 33.0303C20.1199 33.2603 20.1399 33.4503 20.2499 33.6003C21.3499 35.0003 23.1199 37.5203 25.5599 41.1603C25.8899 41.6603 25.9799 42.2503 25.8299 42.9503C25.6899 43.5903 25.3799 44.1603 24.8899 44.6603C24.4499 45.0703 23.9699 45.2703 23.4499 45.2703H23.3598C22.7798 45.2703 22.3798 45.0403 22.1598 44.5703C20.9898 42.3003 19.6899 40.0703 18.2699 37.8803C18.2199 37.8203 18.1698 37.8003 18.1098 37.8103C18.0498 37.8203 17.9999 37.8603 17.9599 37.9203C15.5099 42.3503 12.3699 45.9803 8.51988 48.8103C8.06988 49.1303 7.60989 49.2903 7.14989 49.2903C7.05989 49.2903 6.95984 49.2703 6.84984 49.2503C6.27984 49.1903 5.83989 48.9303 5.52989 48.4603C5.25989 48.0803 5.18985 47.6303 5.29985 47.1003C5.42985 46.5203 5.74989 46.0203 6.27989 45.6103C11.0899 42.1103 14.5699 37.2903 16.7099 31.1403C16.7899 30.9103 16.7098 30.7903 16.4798 30.7903H10.2699C9.71988 30.7903 9.28985 30.6003 8.98985 30.2203C8.68985 29.8403 8.59983 29.3803 8.71983 28.8403C8.83983 28.3003 9.12989 27.8303 9.58989 27.4403C10.0499 27.0503 10.5599 26.8503 11.1199 26.8503H17.5899C17.8199 26.8503 17.9599 26.7503 18.0099 26.5403L18.2298 25.5303L19.5998 19.1903C19.6498 18.9603 19.5599 18.8403 19.3299 18.8403H17.2699C17.0399 18.8403 16.8699 18.9403 16.7699 19.1503C15.8199 20.7203 14.7998 22.2003 13.7198 23.5703C13.3298 24.0403 12.8399 24.3103 12.2699 24.4003C12.1499 24.4303 12.0298 24.4403 11.9098 24.4403C11.4998 24.4403 11.1498 24.3103 10.8598 24.0503C10.4598 23.7303 10.2699 23.2903 10.2699 22.7403C10.2699 22.5903 10.2899 22.4503 10.3199 22.3003C10.3999 21.9203 10.5998 21.5603 10.9098 21.2103C12.9798 18.6503 14.9399 15.2903 16.7999 11.1503C17.0399 10.6003 17.4199 10.1703 17.9499 9.88028C18.3499 9.65028 18.7498 9.53027 19.1598 9.53027C19.2798 9.53027 19.3998 9.55028 19.5398 9.57028C20.0698 9.66028 20.4498 9.93027 20.6698 10.4003C20.7998 10.7203 20.8299 11.0703 20.7499 11.4503C20.7199 11.6003 20.6698 11.7603 20.5998 11.9303C20.1598 12.8603 19.7399 13.7703 19.3099 14.6403C19.2599 14.7303 19.2599 14.8003 19.3099 14.8603C19.3599 14.9203 19.4199 14.9503 19.5099 14.9503H29.4299C29.9799 14.9503 30.4099 15.1403 30.7099 15.5203C31.0099 15.9003 31.0998 16.3603 30.9798 16.9003C30.8598 17.4403 30.5698 17.9003 30.1098 18.2803C29.6498 18.6603 29.1399 18.8503 28.5899 18.8503H24.2198C23.9898 18.8503 23.8398 18.9703 23.7898 19.2003L22.4098 25.5803L22.1999 26.5403C22.1599 26.7403 22.2498 26.8503 22.4798 26.8503H28.0799C28.6299 26.8503 29.0598 27.0503 29.3498 27.4403L29.3598 27.4503ZM33.8099 15.5803C33.9699 14.8503 34.3498 14.2403 34.9698 13.7403C35.5898 13.2403 36.2499 13.0003 36.9499 13.0003H48.1899C48.8899 13.0003 49.4399 13.2503 49.8399 13.7403C50.2399 14.2403 50.3699 14.8503 50.2099 15.5803L43.5499 46.3603C43.4198 46.9403 43.1099 47.4403 42.6199 47.8503C42.1199 48.2603 41.5799 48.4603 40.9999 48.4603C40.4199 48.4603 39.9699 48.2603 39.6499 47.8503C39.3299 47.4403 39.2298 46.9503 39.3598 46.3603L39.4499 45.9203C39.4999 45.6903 39.4099 45.5703 39.1799 45.5703H31.6999C31.4699 45.5703 31.3199 45.6903 31.2699 45.9203L31.0499 46.9303C30.9298 47.4803 30.6299 47.9603 30.1499 48.3503C29.6699 48.7403 29.1498 48.9403 28.5998 48.9403C28.0498 48.9403 27.6199 48.7403 27.3099 48.3503C26.9999 47.9603 26.9099 47.4803 27.0299 46.9303L33.8099 15.5803ZM32.2499 41.3703C32.2099 41.5703 32.2999 41.6803 32.5299 41.6803H40.0099C40.2399 41.6803 40.3799 41.5803 40.4299 41.3703L45.6399 17.2803C45.6899 17.0503 45.5999 16.9303 45.3699 16.9303H37.8899C37.6599 16.9303 37.5099 17.0503 37.4599 17.2803L32.2499 41.3703Z" fill="white"/>
<path d="M73.27 34.6401C73.97 34.6401 74.5199 34.8901 74.9199 35.3801C75.3199 35.8701 75.4499 36.4901 75.2899 37.2201L73.58 45.1301C73.43 45.8301 73.0399 46.4301 72.4199 46.9401C71.7999 47.4501 71.1399 47.7001 70.4399 47.7001H65.3699C65.2199 47.7001 65.1399 47.7701 65.0999 47.9201L65.08 48.0101C64.98 48.4801 64.73 48.8701 64.34 49.1901C63.95 49.5101 63.53 49.6701 63.08 49.6701C62.63 49.6701 62.28 49.5101 62.03 49.1901C61.78 48.8701 61.6999 48.4801 61.7999 48.0101L64.14 37.2101C64.3 36.4801 64.68 35.8701 65.28 35.3701C65.88 34.8701 66.55 34.6301 67.28 34.6301H73.27V34.6401ZM67.0599 31.8401C66.6199 31.8401 66.28 31.6801 66.03 31.3601C65.78 31.0401 65.6999 30.6501 65.7999 30.2001C65.8999 29.7501 66.14 29.3601 66.53 29.0401C66.92 28.7201 67.33 28.5601 67.77 28.5601H75.4199C75.8899 28.5601 76.2399 28.7201 76.4999 29.0401C76.7499 29.3601 76.8299 29.7501 76.7299 30.2001C76.6299 30.6501 76.3899 31.0401 75.9999 31.3601C75.6099 31.6801 75.1799 31.8401 74.7199 31.8401H67.07H67.0599ZM71.7399 38.3101C71.7899 38.0801 71.71 37.9601 71.51 37.9601H67.58C67.38 37.9601 67.25 38.0801 67.2 38.3101L65.95 44.0801C65.9 44.3101 65.9799 44.4301 66.1799 44.4301H70.1199C70.3199 44.4301 70.4499 44.3101 70.4999 44.0801L71.7499 38.3101H71.7399ZM79.07 16.5401C79.54 16.5401 79.89 16.7001 80.15 17.0201C80.4 17.3401 80.4799 17.7301 80.3799 18.1801C80.2799 18.6301 80.04 19.0301 79.64 19.3601C79.25 19.6901 78.8199 19.8601 78.3499 19.8601H67.9C67.43 19.8601 67.08 19.6901 66.83 19.3601C66.58 19.0301 66.5099 18.6301 66.5999 18.1801C66.6999 17.7301 66.94 17.3401 67.33 17.0201C67.72 16.7001 68.1499 16.5401 68.6099 16.5401H79.0599H79.07ZM76.7499 22.6201C77.1899 22.6201 77.53 22.7801 77.78 23.1001C78.03 23.4201 78.11 23.8001 78.02 24.2401C77.93 24.6801 77.6799 25.0601 77.2899 25.3801C76.8999 25.7001 76.4899 25.8601 76.0499 25.8601H68.3499C67.9099 25.8601 67.57 25.7001 67.32 25.3801C67.07 25.0601 66.99 24.6801 67.09 24.2401C67.18 23.8001 67.43 23.4201 67.82 23.1001C68.21 22.7801 68.6199 22.6201 69.0599 22.6201H76.76H76.7499ZM79.2499 10.6401C79.7199 10.6401 80.07 10.8001 80.33 11.1201C80.58 11.4401 80.6599 11.8301 80.5599 12.2801C80.4599 12.7301 80.22 13.1101 79.83 13.4201C79.44 13.7301 79.0199 13.8801 78.5499 13.8801H71.1199C70.6799 13.8801 70.34 13.7301 70.08 13.4201C69.83 13.1101 69.7499 12.7401 69.8499 12.2801C69.9499 11.8301 70.19 11.4401 70.58 11.1201C70.97 10.8001 71.38 10.6401 71.82 10.6401H79.2499ZM99.95 31.1901C100.19 30.7501 100.55 30.4501 101.02 30.2701C101.49 30.1001 101.91 30.1101 102.28 30.3101C102.69 30.5701 102.93 30.9401 103.01 31.4001C103.07 31.6601 103.07 31.9101 103.02 32.1401C102.97 32.3701 102.86 32.6101 102.69 32.8401C100.94 35.7801 98.9699 38.4701 96.7499 40.8801C96.5999 41.0501 96.5099 41.2401 96.4999 41.4501C96.5499 42.8201 96.73 43.8801 97.02 44.6201C97.31 45.3601 97.7399 45.7801 98.2999 45.8701H98.34C98.89 45.8701 99.5899 44.5901 100.44 42.0201C100.54 41.7001 100.76 41.4801 101.11 41.3601C101.46 41.2401 101.73 41.3001 101.95 41.5401C102.57 42.1801 102.79 42.9101 102.61 43.7301C102.57 43.9101 102.52 44.1001 102.44 44.3001C101.49 46.5501 100.58 48.1201 99.71 49.0201C98.87 49.9201 98.0499 50.3801 97.2299 50.3801H97.1899C94.8999 50.2001 93.55 48.3501 93.14 44.8301C93.12 44.7701 93.08 44.7401 93.01 44.7201C92.94 44.7101 92.8699 44.7201 92.8099 44.7401C90.8999 46.4301 88.89 47.9201 86.77 49.2001C86.33 49.4601 85.8899 49.5601 85.4399 49.4801C84.9899 49.4001 84.62 49.2101 84.34 48.8901C84.11 48.6001 84.06 48.2501 84.2 47.8401C84.33 47.4301 84.58 47.1101 84.95 46.8801C85.79 46.3801 86.5799 45.8601 87.3499 45.3101C87.3899 45.2801 87.4 45.2401 87.4 45.1801C87.4 45.1201 87.3699 45.0901 87.3099 45.0901H79.6199C79.4699 45.0901 79.3899 45.1601 79.3499 45.3101L79.2999 45.5301C79.2099 45.9701 78.96 46.3501 78.57 46.6701C78.18 46.9901 77.7599 47.1501 77.3099 47.1501C76.8599 47.1501 76.51 46.9901 76.26 46.6701C76.01 46.3501 75.93 45.9701 76.03 45.5301L78.84 32.5401C78.99 31.8401 79.3799 31.2401 79.9999 30.7301C80.6199 30.2201 81.2799 29.9701 81.9799 29.9701H89.2399C89.9399 29.9701 90.49 30.2301 90.89 30.7301C91.29 31.2401 91.41 31.8501 91.26 32.5401L88.7899 43.9501C88.7799 44.0101 88.7899 44.0501 88.8499 44.0801C88.8999 44.1101 88.9499 44.1101 88.9799 44.0801C90.2799 43.0601 91.5299 41.9401 92.7299 40.7101C92.9099 40.5301 92.9999 40.3301 92.9899 40.1001C93.1599 37.0401 93.6699 32.9701 94.5399 27.9001C94.5799 27.7001 94.4999 27.5901 94.2999 27.5901H79.52C79.05 27.5901 78.6899 27.4201 78.4299 27.0901C78.1699 26.7601 78.0899 26.3501 78.1899 25.8701C78.2899 25.3901 78.55 24.9801 78.96 24.6501C79.37 24.3101 79.8 24.1501 80.27 24.1501H90.3699C90.3699 24.1501 90.4199 24.1501 90.4199 24.1301C90.4199 24.1201 90.4199 24.0901 90.4299 24.0601C89.7799 23.9401 89.3499 23.5901 89.1299 23.0101C88.9799 22.6001 88.9599 22.1801 89.0499 21.7401C89.0899 21.5701 89.1399 21.3801 89.2199 21.1701C89.5699 20.3501 89.9 19.5701 90.21 18.8101C90.4 18.3401 90.71 17.9701 91.15 17.7001C91.59 17.4201 92.0299 17.3301 92.4799 17.4201C92.9299 17.5101 93.23 17.7501 93.4 18.1401C93.56 18.5301 93.53 18.9601 93.32 19.4301C92.08 21.9101 91.3399 23.3801 91.0999 23.8501C91.0599 23.9101 91.05 23.9701 91.08 24.0501C91.11 24.1201 91.1699 24.1601 91.2499 24.1601H94.8799C95.1099 24.1601 95.2599 24.0401 95.3099 23.8101C95.9899 20.1101 96.8599 15.8401 97.9099 11.0001C98.0199 10.5001 98.28 10.0801 98.71 9.73013C99.14 9.38013 99.6 9.21011 100.09 9.21011C100.58 9.21011 100.96 9.39013 101.22 9.73013C101.48 10.0801 101.56 10.4901 101.46 10.9501L100.54 15.1901C99.9399 17.9601 99.35 20.8301 98.76 23.8001C98.71 24.0301 98.7899 24.1501 98.9899 24.1501H104.37C104.87 24.1501 105.24 24.3201 105.51 24.6501C105.77 24.9901 105.85 25.3901 105.75 25.8701C105.65 26.3501 105.39 26.7601 104.98 27.0901C104.57 27.4301 104.12 27.5901 103.63 27.5901H98.34C98.14 27.5901 98.0099 27.6901 97.9699 27.9001C97.5599 30.3201 97.1899 32.9101 96.8499 35.6801C96.8499 35.7101 96.86 35.7301 96.9 35.7501C96.94 35.7601 96.98 35.7501 97.01 35.7301C98.05 34.3001 99.03 32.7901 99.96 31.1801L99.95 31.1901ZM80.14 41.7201C80.09 41.9501 80.1699 42.0701 80.3699 42.0701H85.4C85.63 42.0701 85.78 41.9501 85.83 41.7201L86.3799 39.1801C86.42 38.9801 86.3299 38.8701 86.0999 38.8701H81.07C80.86 38.8701 80.74 38.9701 80.7 39.1801L80.15 41.7201H80.14ZM87.64 33.2801C87.68 33.0801 87.5899 32.9701 87.3599 32.9701H82.33C82.13 32.9701 82 33.0701 81.96 33.2801L81.4399 35.6801C81.3999 35.8801 81.4799 35.9901 81.6799 35.9901H86.71C86.94 35.9901 87.08 35.8901 87.1299 35.6801L87.65 33.2801H87.64ZM94.71 13.7801C95.15 13.7801 95.4799 13.9401 95.7199 14.2601C95.9599 14.5801 96.0299 14.9601 95.9299 15.4001C95.8399 15.8401 95.5999 16.2101 95.2299 16.5101C94.8599 16.8201 94.45 16.9701 94.02 16.9701H82.83C82.39 16.9701 82.0499 16.8201 81.8099 16.5101C81.5699 16.2001 81.5 15.8301 81.59 15.4001C81.68 14.9601 81.9199 14.5801 82.2999 14.2601C82.6799 13.9401 83.08 13.7801 83.52 13.7801H86.9299C87.1599 13.7801 87.2999 13.6801 87.3499 13.4701L87.8699 11.0701C87.9799 10.5501 88.26 10.0901 88.71 9.71011C89.16 9.33011 89.6499 9.14014 90.1899 9.14014C90.7299 9.14014 91.1499 9.33011 91.4399 9.71011C91.7399 10.0901 91.8299 10.5401 91.7199 11.0701L91.2 13.4701C91.16 13.6701 91.2399 13.7801 91.4399 13.7801H94.7199H94.71ZM82.7499 19.3401C82.7499 18.9301 82.88 18.5601 83.14 18.2301C83.4 17.9001 83.7299 17.6801 84.1299 17.6001C84.5899 17.5101 84.9699 17.5701 85.2899 17.7801C85.6099 17.9801 85.7799 18.2901 85.8099 18.7001C85.8999 19.7801 85.8999 20.8401 85.8099 21.8901C85.8099 22.3301 85.62 22.7301 85.27 23.0901C84.91 23.4501 84.5099 23.6901 84.0399 23.8101C83.6399 23.9001 83.3 23.8101 83.02 23.5701C82.74 23.3201 82.6299 22.9901 82.6899 22.5901C82.8099 21.5101 82.8199 20.4301 82.7299 19.3501L82.7499 19.3401ZM107.3 17.6301C107.34 17.8601 107.33 18.1001 107.28 18.3301C107.23 18.5601 107.13 18.8101 106.99 19.0701C106.68 19.5401 106.26 19.8701 105.72 20.0801C105.24 20.2601 104.8 20.2401 104.4 20.0401C103.99 19.8401 103.74 19.5001 103.63 19.0301C103.32 17.3701 102.83 15.7201 102.16 14.0901C102 13.7401 102.03 13.3601 102.23 12.9501C102.43 12.5401 102.76 12.2701 103.2 12.1201C103.49 12.0001 103.76 11.9501 104.02 11.9501C104.22 11.9501 104.42 11.9801 104.61 12.0401C105.07 12.1901 105.41 12.4601 105.61 12.8701C106.35 14.4401 106.91 16.0301 107.29 17.6401L107.3 17.6301Z" fill="white"/>
<path d="M163.54 13.3699C163.83 13.7299 163.91 14.1699 163.8 14.6799C163.69 15.1899 163.41 15.6299 162.97 15.9899C162.53 16.3599 162.04 16.5399 161.52 16.5399H130.57C130.37 16.5399 130.24 16.6399 130.2 16.8499L128.01 26.9499C125.99 36.3099 123.25 43.4799 119.81 48.4599C119.48 48.9299 119.04 49.1999 118.49 49.2899C118.37 49.3199 118.25 49.3299 118.13 49.3299C117.72 49.3299 117.39 49.1999 117.12 48.9399C116.72 48.6199 116.51 48.1999 116.48 47.6699C116.5 47.4399 116.53 47.2199 116.58 47.0099C116.65 46.6899 116.78 46.3699 116.96 46.0499C118.75 43.4599 120.17 40.5599 121.24 37.3699C122.31 34.1799 123.25 30.6999 124.06 26.9399L126.56 15.3999C126.72 14.6699 127.1 14.0599 127.7 13.5599C128.3 13.0599 128.97 12.8199 129.7 12.8199H142.99C143.22 12.8199 143.36 12.6999 143.42 12.4699L143.67 11.3299C143.8 10.7199 144.13 10.1999 144.64 9.77991C145.15 9.35991 145.71 9.1499 146.31 9.1499C146.91 9.1499 147.37 9.35991 147.7 9.77991C148.03 10.1999 148.13 10.7199 148 11.3299L147.75 12.4699C147.7 12.6999 147.78 12.8199 147.98 12.8199H162.32C162.84 12.8199 163.25 12.9999 163.53 13.3699H163.54ZM156.51 41.7199C157.01 41.7199 157.38 41.8899 157.65 42.2199C157.91 42.5599 157.99 42.9599 157.89 43.4399C157.79 43.9199 157.53 44.3299 157.12 44.6599C156.71 44.9999 156.26 45.1599 155.77 45.1599H142.83C142.63 45.1599 142.5 45.2799 142.45 45.5099L141.85 48.2599C141.73 48.8099 141.43 49.2899 140.95 49.6799C140.47 50.0699 139.95 50.2699 139.4 50.2699C138.85 50.2699 138.42 50.0699 138.13 49.6799C137.84 49.2899 137.75 48.8099 137.87 48.2599L138.47 45.5099C138.52 45.2799 138.43 45.1599 138.2 45.1599H126.09C125.59 45.1599 125.21 44.9899 124.95 44.6599C124.69 44.3299 124.61 43.9199 124.71 43.4399C124.81 42.9599 125.07 42.5499 125.48 42.2199C125.89 41.8899 126.34 41.7199 126.83 41.7199H138.94C139.17 41.7199 139.31 41.6199 139.36 41.4099L139.81 39.3099C139.85 39.1099 139.76 38.9999 139.53 38.9999H131.62C130.89 38.9999 130.33 38.7499 129.95 38.2299C129.56 37.7199 129.45 37.1199 129.6 36.4199L131.43 27.9799C131.59 27.2499 131.97 26.6399 132.57 26.1399C133.17 25.6399 133.84 25.3999 134.57 25.3999H142.48C142.71 25.3999 142.85 25.2799 142.9 25.0499L143.31 23.1699C143.36 22.9399 143.27 22.8199 143.04 22.8199H132.68C132.24 22.8199 131.9 22.6699 131.64 22.3599C131.39 22.0499 131.31 21.6799 131.41 21.2199C131.51 20.7699 131.75 20.3799 132.14 20.0599C132.53 19.7399 132.94 19.5799 133.38 19.5799H143.74C143.97 19.5799 144.11 19.4799 144.16 19.2699L144.27 18.7499C144.39 18.1999 144.68 17.7199 145.15 17.3299C145.62 16.9399 146.12 16.7399 146.68 16.7399C147.24 16.7399 147.67 16.9399 147.97 17.3299C148.27 17.7199 148.37 18.1999 148.25 18.7499L148.14 19.2699C148.1 19.4699 148.18 19.5799 148.38 19.5799H159.97C160.44 19.5799 160.79 19.7399 161.02 20.0599C161.26 20.3799 161.33 20.7699 161.23 21.2199C161.13 21.6699 160.9 22.0499 160.52 22.3599C160.15 22.6699 159.73 22.8199 159.26 22.8199H147.67C147.47 22.8199 147.34 22.9399 147.29 23.1699L146.88 25.0499C146.83 25.2799 146.91 25.3999 147.11 25.3999H155.55C156.25 25.3999 156.8 25.6499 157.2 26.1399C157.6 26.6399 157.72 27.2499 157.57 27.9799L155.74 36.4199C155.59 37.1199 155.2 37.7199 154.58 38.2299C153.96 38.7399 153.3 38.9999 152.6 38.9999H144.16C143.96 38.9999 143.83 39.0999 143.79 39.3099L143.34 41.4099C143.3 41.6099 143.38 41.7199 143.58 41.7199H156.52H156.51ZM133.39 36.0399C133.35 36.2399 133.43 36.3499 133.63 36.3499H140.1C140.33 36.3499 140.47 36.2499 140.52 36.0399L141.01 33.7699C141.05 33.5699 140.96 33.4599 140.73 33.4599H134.26C134.06 33.4599 133.93 33.5599 133.89 33.7699L133.4 36.0399H133.39ZM135.42 28.0799C135.22 28.0799 135.09 28.1999 135.04 28.4299L134.58 30.5699C134.53 30.7999 134.61 30.9199 134.81 30.9199H141.28C141.51 30.9199 141.66 30.7999 141.71 30.5699L142.17 28.4299C142.22 28.1999 142.13 28.0799 141.9 28.0799H135.43H135.42ZM151.56 36.3399C151.79 36.3399 151.93 36.2399 151.98 36.0299L152.47 33.7599C152.51 33.5599 152.42 33.4499 152.19 33.4499H145.37C145.17 33.4499 145.04 33.5499 145 33.7599L144.51 36.0299C144.47 36.2299 144.55 36.3399 144.75 36.3399H151.57H151.56ZM153.62 28.4299C153.67 28.1999 153.58 28.0799 153.35 28.0799H146.53C146.33 28.0799 146.2 28.1999 146.15 28.4299L145.69 30.5699C145.64 30.7999 145.72 30.9199 145.92 30.9199H152.74C152.97 30.9199 153.12 30.7999 153.17 30.5699L153.63 28.4299H153.62Z" fill="white"/>
</svg>
