<svg width="290" height="105" viewBox="0 0 290 105" fill="none" xmlns="http://www.w3.org/2000/svg">
<path d="M79.8099 18.84L78.4399 26.59H105.95L102.94 43.4799C101.46 46.59 99.33 49.5399 96.78 52.2599L98.0599 44.9299C94.7199 43.1599 92.71 40.44 91.95 36.61C92.05 36.17 92.23 35.59 92.33 35.02L93.33 29.22H86.2499L85.15 35.35C84.25 39.98 80.8699 43.4 75.0599 45.63L73.7399 53.21C80.0199 50.97 84.7699 48.0299 87.9799 44.2899C89.7599 47.8799 92.4899 50.75 96.2599 52.81C90.2599 58.94 81.2699 64.2 69.4199 68.59L67.96 76.8999C81.78 72.2599 92.6199 65.96 100.36 58.16L96.3099 81.19H104.35L108.58 57.2C114.51 66.06 123.17 72.66 134.43 77.05L135.97 68.2899C126.88 64.7099 119.81 59.51 114.78 52.82C120.58 50.75 124.97 47.88 128 44.3C129.92 47.95 132.82 50.9 136.66 53.05L138.08 44.94C134.81 43.17 132.77 40.31 132.01 36.47C132.1 35.99 132.27 35.54 132.35 35.03L133.38 29.2299H126.28L125.18 35.36C124.31 39.99 120.9 43.41 115.1 45.64L114 51.77C112.74 50.02 111.56 48.11 110.56 45.94L113.99 26.59H143.02L144.38 18.84H115.35L118.87 0.209961H110.83L107.3 18.84H79.8099Z" fill="#87B828"/>
<path d="M174.25 15.3799C173.26 24.1399 171.92 33.5499 170.15 43.5999C168.94 50.4499 167.98 54.6799 167.35 56.3399C166.96 58.5899 165.06 59.6899 161.81 59.6899C158.56 59.6899 156.02 59.4499 153.72 58.9999L152.4 66.4899C154.54 66.9699 157.54 67.2099 161.35 67.2099C167.81 67.2099 171.93 65.1299 173.79 60.9999C175.05 58.2699 176.48 52.5399 177.99 43.9199C180.38 30.3699 181.82 20.7899 182.3 15.3899H174.25V15.3799ZM188.09 50.8399C183.81 59.7599 177.36 66.3799 168.62 70.7799C161.85 75.2299 150.87 77.4899 135.64 77.4899L134.29 85.1299C151.67 85.1299 164.53 82.2699 172.85 76.6099C183.38 70.6899 191.28 62.0899 196.42 50.9399L188.09 50.8499V50.8399ZM192.12 19.3799C191.55 37.6299 195.62 49.7299 204.36 55.6299L205.99 46.3899C200.77 40.8099 198.77 31.7899 199.84 19.3799H192.11H192.12ZM157.46 19.2099C154.26 31.1699 148.16 40.8199 139.21 48.1499L137.59 57.2299C151.2 48.9499 160.34 36.3599 165.19 19.2699L157.46 19.1999V19.2099Z" fill="#87B828"/>
<path d="M234.65 67.9298H218.7L221.17 53.8998H237.13L234.65 67.9298ZM222.41 35.1498H240.42L238.42 46.4698H214.84L211.05 67.9198H202.67L201.35 75.4198H233.32L228.16 104.29H235.91L241.06 75.4198H288.19L289.51 67.9198H242.39L244.83 53.8898H268.59L269.92 46.4698H246.16L248.14 35.1498H272.95L274.22 27.8998H227.26C228.39 26.1398 229.43 24.1498 230.53 22.0698H222.47C218.32 30.2198 213.74 35.9598 208.77 39.2198L207.03 49.0298C212.59 45.9198 217.72 41.2998 222.4 35.1498" fill="#87B828"/>
<path d="M3.4198 48.8901L2.1098 56.3001H21.8598C18.7998 66.3401 12.2898 74.0201 2.1098 79.2501L0.569824 87.9601C7.15982 85.3301 13.2298 81.2601 18.6898 75.6001C23.1498 71.1501 26.6698 64.7501 29.1898 56.3001H34.8598L26.8198 102.22H34.5698L42.6098 56.3001H48.3198C48.9398 71.9301 54.9098 82.3901 66.1298 87.8201L67.7598 78.5501C60.2998 74.4101 56.2698 67.0001 55.5898 56.3101H71.2198L72.5398 48.9001H43.8998L46.0198 36.8701H71.9298L73.2198 29.6001H47.2998L48.8898 20.6001H41.1498L39.5698 29.6001H13.8298L12.5398 36.8701H38.2898L36.1698 48.9001H3.42981L3.4198 48.8901Z" fill="#87B828"/>
</svg>
