<svg width="386" height="65" viewBox="0 0 386 65" fill="none" xmlns="http://www.w3.org/2000/svg">
<path d="M365.5 8.05542C354.67 8.05542 343.97 15.1454 338.72 24.9354C337.71 15.1454 330.07 8.05542 319.24 8.05542C308.41 8.05542 297.71 15.1454 292.46 24.9354C291.45 15.1454 283.81 8.05542 272.98 8.05542C259.57 8.05542 246.34 18.9254 243.44 32.3454C240.54 45.7554 249.06 56.6354 262.47 56.6354C273.3 56.6354 284 49.5454 289.25 39.7554C290.26 49.5454 297.9 56.6354 308.73 56.6354C319.56 56.6354 330.26 49.5454 335.51 39.7554C336.52 49.5454 344.16 56.6354 354.99 56.6354C368.4 56.6354 381.63 45.7654 384.53 32.3454C387.43 18.9254 378.91 8.05542 365.5 8.05542Z" fill="#86B728"/>
<path d="M267.12 30.6355C267.37 30.9655 267.44 31.3555 267.34 31.8055C267.24 32.2555 267 32.6455 266.61 32.9555C266.22 33.2755 265.8 33.4255 265.34 33.4255H260.4C260.23 33.4255 260.11 33.5255 260.04 33.7155C259.69 34.6455 259.49 35.1655 259.44 35.2855C259.37 35.4855 259.39 35.6355 259.48 35.7655C260.4 36.9355 261.88 39.0455 263.93 42.0955C264.21 42.5055 264.28 43.0155 264.15 43.5955C264.03 44.1355 263.77 44.6055 263.37 45.0255C263 45.3655 262.6 45.5355 262.16 45.5355H262.09C261.6 45.5355 261.26 45.3355 261.08 44.9555C260.1 43.0555 259.02 41.1855 257.83 39.3555C257.79 39.3055 257.75 39.2855 257.7 39.3055C257.65 39.3155 257.6 39.3455 257.57 39.3955C255.52 43.1055 252.89 46.1455 249.67 48.5055C249.29 48.7755 248.91 48.9055 248.52 48.9055C248.45 48.9055 248.36 48.8955 248.27 48.8655C247.79 48.8155 247.43 48.5955 247.17 48.2055C246.95 47.8855 246.88 47.5055 246.98 47.0755C247.09 46.5855 247.36 46.1755 247.8 45.8355C251.83 42.9055 254.74 38.8655 256.53 33.7155C256.6 33.5255 256.53 33.4255 256.34 33.4255H251.14C250.68 33.4255 250.32 33.2655 250.07 32.9555C249.82 32.6355 249.75 32.2555 249.84 31.8055C249.94 31.3555 250.18 30.9655 250.57 30.6355C250.96 30.3055 251.38 30.1355 251.85 30.1355H257.27C257.46 30.1355 257.58 30.0555 257.62 29.8755L257.8 29.0355L258.95 23.7255C258.99 23.5255 258.91 23.4355 258.72 23.4355H257C256.8 23.4355 256.66 23.5255 256.58 23.6955C255.78 25.0155 254.93 26.2455 254.02 27.3955C253.69 27.7855 253.29 28.0155 252.81 28.0955C252.71 28.1255 252.61 28.1355 252.51 28.1355C252.17 28.1355 251.88 28.0255 251.63 27.8055C251.3 27.5355 251.13 27.1755 251.14 26.7055C251.14 26.5855 251.16 26.4655 251.18 26.3355C251.25 26.0155 251.41 25.7155 251.67 25.4155C253.4 23.2655 255.05 20.4655 256.6 16.9955C256.8 16.5355 257.12 16.1755 257.56 15.9355C257.89 15.7355 258.23 15.6455 258.58 15.6455C258.68 15.6455 258.78 15.6555 258.9 15.6855C259.35 15.7555 259.66 15.9955 259.85 16.3855C259.96 16.6555 259.98 16.9455 259.92 17.2655C259.89 17.3855 259.85 17.5255 259.8 17.6655C259.44 18.4455 259.08 19.2055 258.72 19.9355C258.68 20.0055 258.68 20.0655 258.72 20.1155C258.76 20.1655 258.81 20.1855 258.89 20.1855H267.2C267.66 20.1855 268.02 20.3455 268.27 20.6655C268.52 20.9855 268.59 21.3655 268.5 21.8155C268.4 22.2655 268.16 22.6555 267.78 22.9655C267.4 23.2755 266.97 23.4455 266.51 23.4455H262.85C262.65 23.4455 262.54 23.5455 262.49 23.7355L261.33 29.0755L261.16 29.8855C261.12 30.0555 261.2 30.1455 261.4 30.1455H266.08C266.54 30.1455 266.9 30.3155 267.14 30.6455L267.12 30.6355ZM270.84 20.6955C270.97 20.0855 271.3 19.5755 271.81 19.1555C272.32 18.7355 272.88 18.5355 273.46 18.5355H282.87C283.45 18.5355 283.92 18.7455 284.25 19.1555C284.58 19.5655 284.69 20.0855 284.56 20.6955L278.98 46.4655C278.87 46.9555 278.61 47.3655 278.2 47.7055C277.78 48.0455 277.33 48.2155 276.84 48.2155C276.35 48.2155 275.97 48.0455 275.71 47.7055C275.45 47.3655 275.36 46.9455 275.47 46.4655L275.55 46.0955C275.59 45.9055 275.52 45.8055 275.32 45.8055H269.06C268.86 45.8055 268.75 45.9055 268.7 46.0955L268.52 46.9355C268.42 47.3955 268.17 47.7955 267.77 48.1255C267.37 48.4555 266.94 48.6155 266.47 48.6155C266 48.6155 265.64 48.4455 265.39 48.1255C265.13 47.7955 265.05 47.3955 265.15 46.9355L270.83 20.6955H270.84ZM269.54 42.2955C269.5 42.4655 269.58 42.5555 269.78 42.5555H276.04C276.24 42.5555 276.35 42.4655 276.39 42.2955L280.75 22.1255C280.79 21.9355 280.72 21.8355 280.52 21.8355H274.26C274.06 21.8355 273.95 21.9355 273.9 22.1255L269.54 42.2955Z" fill="white"/>
<path d="M303.88 36.6554C304.47 36.6554 304.93 36.8654 305.26 37.2754C305.6 37.6954 305.7 38.2054 305.57 38.8154L304.14 45.4354C304.01 46.0254 303.69 46.5254 303.17 46.9554C302.65 47.3854 302.1 47.5954 301.51 47.5954H297.26C297.14 47.5954 297.06 47.6554 297.04 47.7754L297.02 47.8454C296.94 48.2354 296.73 48.5654 296.4 48.8354C296.07 49.1054 295.72 49.2354 295.34 49.2354C294.96 49.2354 294.67 49.1054 294.46 48.8354C294.25 48.5654 294.19 48.2354 294.27 47.8454L296.23 38.8054C296.36 38.1954 296.68 37.6854 297.19 37.2654C297.69 36.8554 298.25 36.6454 298.86 36.6454H303.87L303.88 36.6554ZM298.68 34.3154C298.31 34.3154 298.03 34.1854 297.82 33.9154C297.61 33.6454 297.54 33.3254 297.63 32.9454C297.72 32.5654 297.92 32.2454 298.24 31.9754C298.57 31.7054 298.91 31.5754 299.28 31.5754H305.69C306.08 31.5754 306.38 31.7054 306.59 31.9754C306.8 32.2454 306.87 32.5654 306.78 32.9454C306.69 33.3254 306.49 33.6454 306.17 33.9154C305.85 34.1854 305.49 34.3154 305.09 34.3154H298.68ZM302.59 39.7354C302.63 39.5354 302.57 39.4454 302.4 39.4454H299.11C298.94 39.4454 298.83 39.5454 298.79 39.7354L297.75 44.5654C297.71 44.7654 297.77 44.8554 297.94 44.8554H301.23C301.4 44.8554 301.51 44.7554 301.55 44.5654L302.59 39.7354ZM308.73 21.5054C309.12 21.5054 309.42 21.6354 309.63 21.9054C309.84 22.1754 309.9 22.4954 309.82 22.8754C309.74 23.2554 309.53 23.5854 309.2 23.8654C308.87 24.1454 308.51 24.2854 308.12 24.2854H299.37C298.98 24.2854 298.68 24.1454 298.47 23.8654C298.26 23.5854 298.2 23.2554 298.28 22.8754C298.36 22.4954 298.57 22.1754 298.89 21.9054C299.22 21.6354 299.57 21.5054 299.97 21.5054H308.72H308.73ZM306.79 26.5954C307.16 26.5954 307.44 26.7254 307.65 26.9954C307.86 27.2654 307.93 27.5854 307.85 27.9454C307.77 28.3154 307.57 28.6254 307.24 28.8954C306.91 29.1654 306.57 29.2954 306.2 29.2954H299.76C299.39 29.2954 299.11 29.1654 298.9 28.8954C298.69 28.6254 298.62 28.3054 298.7 27.9454C298.78 27.5754 298.98 27.2654 299.31 26.9954C299.64 26.7254 299.98 26.5954 300.35 26.5954H306.79ZM308.89 16.5654C309.28 16.5654 309.58 16.6954 309.79 16.9654C310 17.2354 310.06 17.5554 309.98 17.9354C309.9 18.3154 309.69 18.6354 309.37 18.8854C309.05 19.1354 308.69 19.2654 308.3 19.2654H302.08C301.71 19.2654 301.42 19.1354 301.21 18.8854C301 18.6354 300.93 18.3154 301.01 17.9354C301.09 17.5554 301.3 17.2354 301.62 16.9654C301.95 16.6954 302.29 16.5654 302.66 16.5654H308.88H308.89ZM326.21 33.7654C326.41 33.3954 326.71 33.1454 327.11 32.9954C327.51 32.8454 327.86 32.8654 328.16 33.0354C328.5 33.2554 328.7 33.5654 328.77 33.9554C328.82 34.1754 328.82 34.3854 328.78 34.5754C328.74 34.7754 328.65 34.9654 328.51 35.1654C327.05 37.6254 325.39 39.8754 323.54 41.9054C323.41 42.0554 323.34 42.2154 323.33 42.3854C323.37 43.5354 323.52 44.4154 323.76 45.0354C324 45.6554 324.36 46.0054 324.83 46.0754H324.87C325.33 46.0754 325.92 45.0054 326.63 42.8554C326.71 42.5854 326.9 42.4054 327.19 42.3054C327.48 42.2054 327.71 42.2554 327.89 42.4554C328.41 42.9954 328.59 43.6054 328.45 44.2854C328.42 44.4354 328.37 44.5854 328.31 44.7554C327.51 46.6354 326.75 47.9554 326.03 48.7054C325.33 49.4654 324.64 49.8354 323.95 49.8354H323.91C321.99 49.6854 320.86 48.1354 320.52 45.1854C320.51 45.1354 320.47 45.1054 320.41 45.0954C320.35 45.0854 320.3 45.0954 320.24 45.1154C318.64 46.5354 316.96 47.7754 315.19 48.8454C314.82 49.0654 314.45 49.1454 314.08 49.0854C313.7 49.0254 313.4 48.8554 313.16 48.5954C312.97 48.3554 312.93 48.0554 313.04 47.7154C313.15 47.3754 313.36 47.1054 313.67 46.9154C314.37 46.4954 315.04 46.0654 315.67 45.5954C315.7 45.5754 315.71 45.5354 315.71 45.4854C315.71 45.4354 315.68 45.4154 315.63 45.4154H309.19C309.07 45.4154 308.99 45.4754 308.97 45.5954L308.93 45.7754C308.85 46.1454 308.65 46.4554 308.32 46.7254C307.99 46.9954 307.64 47.1254 307.26 47.1254C306.88 47.1254 306.59 46.9954 306.38 46.7254C306.17 46.4554 306.1 46.1354 306.18 45.7754L308.53 34.9054C308.66 34.3154 308.98 33.8154 309.5 33.3854C310.02 32.9554 310.57 32.7454 311.16 32.7454H317.24C317.83 32.7454 318.29 32.9554 318.62 33.3854C318.95 33.8154 319.06 34.3154 318.93 34.9054L316.86 44.4554C316.86 44.4554 316.86 44.5454 316.91 44.5654C316.95 44.5854 316.99 44.5854 317.02 44.5654C318.11 43.7154 319.15 42.7754 320.15 41.7454C320.3 41.5954 320.38 41.4254 320.37 41.2354C320.51 38.6754 320.94 35.2654 321.66 31.0254C321.7 30.8554 321.63 30.7654 321.46 30.7654H309.09C308.7 30.7654 308.39 30.6254 308.17 30.3454C307.95 30.0654 307.88 29.7254 307.97 29.3154C308.06 28.9054 308.27 28.5754 308.61 28.2854C308.95 28.0054 309.32 27.8654 309.71 27.8654H318.17C318.17 27.8654 318.21 27.8654 318.21 27.8454C318.21 27.8254 318.21 27.8154 318.22 27.7854C317.68 27.6854 317.32 27.3954 317.13 26.9054C317.01 26.5654 316.99 26.2054 317.07 25.8454C317.1 25.6954 317.15 25.5454 317.21 25.3654C317.5 24.6854 317.78 24.0254 318.04 23.3854C318.2 22.9954 318.46 22.6854 318.83 22.4554C319.2 22.2254 319.57 22.1454 319.94 22.2154C320.31 22.2854 320.57 22.4854 320.71 22.8154C320.85 23.1454 320.82 23.5054 320.64 23.8954C319.61 25.9654 318.99 27.2054 318.78 27.5954C318.74 27.6454 318.74 27.6954 318.76 27.7654C318.78 27.8354 318.83 27.8554 318.9 27.8554H321.94C322.14 27.8554 322.25 27.7554 322.3 27.5654C322.87 24.4654 323.6 20.8954 324.47 16.8454C324.56 16.4254 324.78 16.0754 325.14 15.7854C325.5 15.4954 325.88 15.3454 326.3 15.3454C326.72 15.3454 327.03 15.4954 327.25 15.7854C327.47 16.0754 327.53 16.4154 327.45 16.8154L326.68 20.3654C326.18 22.6854 325.68 25.0854 325.19 27.5754C325.15 27.7754 325.21 27.8654 325.38 27.8654H329.88C330.29 27.8654 330.61 28.0054 330.83 28.2854C331.05 28.5654 331.12 28.9054 331.03 29.3154C330.94 29.7154 330.73 30.0554 330.39 30.3454C330.05 30.6254 329.67 30.7654 329.26 30.7654H324.83C324.66 30.7654 324.55 30.8554 324.52 31.0254C324.18 33.0554 323.87 35.2254 323.59 37.5354C323.59 37.5654 323.59 37.5754 323.63 37.5854C323.66 37.5954 323.7 37.5854 323.73 37.5654C324.6 36.3654 325.42 35.1054 326.2 33.7554L326.21 33.7654ZM309.62 42.5854C309.58 42.7854 309.64 42.8754 309.81 42.8754H314.02C314.22 42.8754 314.33 42.7754 314.38 42.5854L314.84 40.4654C314.88 40.2954 314.8 40.2054 314.6 40.2054H310.39C310.22 40.2054 310.12 40.2954 310.08 40.4654L309.62 42.5854ZM315.91 35.5254C315.95 35.3554 315.87 35.2654 315.67 35.2654H311.46C311.29 35.2654 311.19 35.3454 311.15 35.5254L310.71 37.5354C310.67 37.7054 310.74 37.7954 310.91 37.7954H315.12C315.31 37.7954 315.43 37.7154 315.47 37.5354L315.91 35.5254ZM321.82 19.1954C322.19 19.1954 322.47 19.3254 322.67 19.5954C322.87 19.8654 322.93 20.1854 322.85 20.5454C322.77 20.9054 322.58 21.2254 322.26 21.4754C321.94 21.7254 321.61 21.8554 321.24 21.8554H311.87C311.5 21.8554 311.22 21.7254 311.02 21.4754C310.82 21.2154 310.76 20.9054 310.84 20.5454C310.92 20.1854 311.12 19.8654 311.43 19.5954C311.74 19.3254 312.08 19.1954 312.45 19.1954H315.3C315.5 19.1954 315.61 19.1154 315.65 18.9354L316.09 16.9254C316.19 16.4854 316.42 16.1054 316.79 15.7954C317.16 15.4754 317.58 15.3254 318.03 15.3254C318.48 15.3254 318.83 15.4854 319.08 15.7954C319.33 16.1154 319.41 16.4954 319.31 16.9254L318.87 18.9354C318.83 19.1054 318.9 19.1954 319.07 19.1954H321.82ZM311.81 23.8454C311.81 23.5054 311.92 23.1954 312.14 22.9154C312.36 22.6354 312.64 22.4554 312.97 22.3854C313.35 22.3154 313.68 22.3654 313.94 22.5354C314.2 22.7054 314.35 22.9654 314.38 23.3054C314.45 24.2054 314.46 25.0954 314.38 25.9754C314.38 26.3454 314.22 26.6754 313.92 26.9854C313.62 27.2954 313.28 27.4954 312.89 27.5854C312.56 27.6554 312.27 27.5854 312.04 27.3854C311.8 27.1754 311.71 26.9054 311.76 26.5654C311.86 25.6654 311.87 24.7654 311.8 23.8554L311.81 23.8454ZM332.36 22.4154C332.39 22.6154 332.39 22.8054 332.34 23.0054C332.3 23.2054 332.22 23.4054 332.09 23.6254C331.84 24.0154 331.48 24.2954 331.03 24.4654C330.63 24.6154 330.26 24.5954 329.92 24.4254C329.58 24.2554 329.36 23.9754 329.28 23.5854C329.02 22.1954 328.61 20.8154 328.05 19.4454C327.92 19.1554 327.94 18.8354 328.11 18.4954C328.28 18.1554 328.55 17.9254 328.92 17.7954C329.16 17.6954 329.39 17.6454 329.61 17.6454C329.78 17.6454 329.95 17.6754 330.11 17.7154C330.5 17.8354 330.78 18.0654 330.95 18.4154C331.57 19.7354 332.04 21.0654 332.36 22.4054V22.4154Z" fill="white"/>
<path d="M379.45 18.8555C379.69 19.1655 379.76 19.5255 379.67 19.9555C379.58 20.3855 379.35 20.7455 378.97 21.0555C378.6 21.3555 378.19 21.5155 377.75 21.5155H351.84C351.67 21.5155 351.56 21.6055 351.53 21.7755L349.7 30.2355C348 38.0655 345.72 44.0755 342.84 48.2455C342.56 48.6355 342.19 48.8655 341.74 48.9455C341.64 48.9655 341.54 48.9855 341.44 48.9855C341.1 48.9855 340.82 48.8755 340.6 48.6555C340.27 48.3855 340.09 48.0355 340.06 47.5955C340.08 47.3955 340.1 47.2155 340.14 47.0455C340.2 46.7755 340.31 46.5055 340.46 46.2455C341.95 44.0755 343.15 41.6555 344.04 38.9755C344.93 36.2955 345.72 33.3955 346.4 30.2455L348.49 20.5855C348.62 19.9755 348.94 19.4655 349.45 19.0455C349.95 18.6255 350.51 18.4255 351.12 18.4255H362.25C362.45 18.4255 362.56 18.3255 362.61 18.1355L362.82 17.1855C362.93 16.6755 363.2 16.2355 363.63 15.8855C364.06 15.5355 364.53 15.3555 365.03 15.3555C365.53 15.3555 365.92 15.5355 366.2 15.8855C366.48 16.2355 366.56 16.6755 366.45 17.1855L366.24 18.1355C366.2 18.3355 366.26 18.4255 366.43 18.4255H378.44C378.88 18.4255 379.22 18.5755 379.46 18.8855L379.45 18.8555ZM373.57 42.5855C373.98 42.5855 374.3 42.7255 374.52 43.0055C374.74 43.2855 374.81 43.6255 374.72 44.0355C374.63 44.4355 374.42 44.7755 374.08 45.0555C373.74 45.3355 373.36 45.4755 372.95 45.4755H362.12C361.95 45.4755 361.84 45.5755 361.8 45.7655L361.3 48.0755C361.2 48.5355 360.95 48.9355 360.55 49.2655C360.15 49.5955 359.72 49.7555 359.25 49.7555C358.78 49.7555 358.43 49.5855 358.19 49.2655C357.94 48.9355 357.87 48.5355 357.97 48.0755L358.47 45.7655C358.51 45.5655 358.44 45.4755 358.24 45.4755H348.1C347.68 45.4755 347.37 45.3355 347.15 45.0555C346.93 44.7755 346.86 44.4355 346.95 44.0355C347.04 43.6355 347.25 43.2955 347.59 43.0055C347.93 42.7255 348.31 42.5855 348.72 42.5855H358.86C359.06 42.5855 359.17 42.5055 359.21 42.3255L359.59 40.5655C359.63 40.3955 359.55 40.3055 359.35 40.3055H352.73C352.12 40.3055 351.65 40.0955 351.33 39.6655C351.01 39.2355 350.91 38.7355 351.04 38.1455L352.57 31.0855C352.7 30.4755 353.02 29.9655 353.53 29.5455C354.03 29.1255 354.59 28.9255 355.2 28.9255H361.82C362.02 28.9255 362.13 28.8255 362.18 28.6355L362.52 27.0655C362.56 26.8655 362.48 26.7755 362.29 26.7755H353.62C353.25 26.7755 352.96 26.6455 352.75 26.3955C352.54 26.1355 352.47 25.8255 352.55 25.4455C352.63 25.0655 352.84 24.7455 353.16 24.4755C353.49 24.2055 353.83 24.0755 354.2 24.0755H362.87C363.07 24.0755 363.18 23.9955 363.22 23.8255L363.31 23.3855C363.41 22.9255 363.65 22.5255 364.04 22.1955C364.43 21.8655 364.85 21.6955 365.32 21.6955C365.79 21.6955 366.14 21.8655 366.4 22.1955C366.66 22.5255 366.74 22.9255 366.64 23.3855L366.54 23.8255C366.5 23.9955 366.57 24.0755 366.74 24.0755H376.44C376.83 24.0755 377.12 24.2055 377.32 24.4755C377.52 24.7455 377.58 25.0655 377.49 25.4455C377.41 25.8255 377.21 26.1455 376.9 26.3955C376.59 26.6555 376.24 26.7755 375.85 26.7755H366.15C365.98 26.7755 365.87 26.8755 365.83 27.0655L365.49 28.6355C365.45 28.8355 365.51 28.9255 365.68 28.9255H372.74C373.33 28.9255 373.79 29.1355 374.12 29.5455C374.46 29.9555 374.56 30.4755 374.43 31.0855L372.9 38.1455C372.77 38.7355 372.45 39.2355 371.93 39.6655C371.41 40.0955 370.86 40.3055 370.27 40.3055H363.21C363.04 40.3055 362.93 40.3955 362.9 40.5655L362.52 42.3255C362.48 42.4955 362.55 42.5855 362.72 42.5855H373.55H373.57ZM354.21 37.8255C354.17 37.9955 354.24 38.0855 354.41 38.0855H359.83C360.02 38.0855 360.14 38.0055 360.18 37.8255L360.59 35.9255C360.63 35.7555 360.55 35.6655 360.35 35.6655H354.93C354.76 35.6655 354.65 35.7455 354.62 35.9255L354.21 37.8255ZM355.91 31.1655C355.74 31.1655 355.63 31.2655 355.59 31.4555L355.2 33.2455C355.16 33.4455 355.22 33.5355 355.39 33.5355H360.81C361.01 33.5355 361.12 33.4355 361.17 33.2455L361.56 31.4555C361.6 31.2655 361.52 31.1655 361.33 31.1655H355.91ZM369.42 38.0855C369.62 38.0855 369.73 38.0055 369.77 37.8255L370.18 35.9255C370.22 35.7555 370.14 35.6655 369.94 35.6655H364.23C364.06 35.6655 363.95 35.7455 363.92 35.9255L363.51 37.8255C363.47 37.9955 363.54 38.0855 363.71 38.0855H369.42ZM371.14 31.4555C371.18 31.2655 371.11 31.1655 370.91 31.1655H365.2C365.03 31.1655 364.92 31.2655 364.88 31.4555L364.49 33.2455C364.45 33.4455 364.51 33.5355 364.68 33.5355H370.39C370.59 33.5355 370.7 33.4355 370.75 33.2455L371.14 31.4555Z" fill="white"/>
<path d="M33.85 44.0153C33.97 45.7853 34.74 47.3053 36.07 48.4353C41.67 51.4253 51.05 52.7953 51.05 52.7953C53.71 53.1753 56.22 51.3153 56.63 48.6653L57.1 45.6153C51.1 45.4953 45.13 44.1153 39.28 41.4253C38.48 40.9453 37.64 40.7353 36.82 40.8053C34.85 41.1653 33.83 42.2353 33.85 44.0153ZM53.71 30.2553C53.31 27.9553 51.23 26.8953 47.53 27.0553C40.7 27.7453 34.48 28.3953 28.75 29.0153C28.7 28.2553 28.7 27.4253 28.63 26.5953C28.41 23.1853 28.23 20.1653 28.16 17.4953C33.09 16.9453 38.74 16.3353 45.22 15.6753C47.52 15.2153 48.7 13.8953 48.67 11.6053C48.27 9.22533 46.32 8.14533 42.75 8.30533C37.36 8.88533 32.38 9.36533 27.74 9.87533C27.59 8.08533 27.55 6.72533 27.48 5.83533C26.97 2.91533 25.54 1.51534 23.15 1.57534C20.7 2.05534 19.38 3.67534 19.19 6.50534C19.25 7.94534 19.38 9.39533 19.48 10.8353C10.76 11.9553 3.63 13.2353 3.63 13.2353C2.09 13.5053 0.81 14.5153 0 15.8353V21.4853C4.01 21.0053 8.16999 20.4053 12.5 19.5953C14.6 19.2753 17.12 18.8553 19.98 18.4953C20.17 22.4753 20.4 26.2453 20.7 29.9253C10.97 31.1353 2.55 32.6553 2.55 32.6553C1.6 32.8253 0.719994 33.2853 0.00999451 33.9153V41.0353C4.22999 40.5453 8.56999 39.8753 13.06 39.0853C15.38 38.6853 18.1 38.2553 21.22 37.8053C21.32 38.8953 21.33 39.9953 21.44 41.0253C19.15 41.8153 16.48 43.7053 13.29 46.6453C8.78 50.7253 3.39 55.8353 3.39 55.8353C1.45 57.6553 1.34 60.7853 3.16 62.7753L4.91 64.6853C11.05 59.6453 16.79 54.9653 22.06 50.4853C22.37 55.1353 22.64 58.3253 22.64 58.3253C22.86 61.0153 25.23 63.0153 27.9 62.8053L31.03 62.5353C30.32 53.6553 29.76 45.0853 29.2 36.8153C35.21 36.1053 42.09 35.4153 50.02 34.6353C52.54 34.2153 53.79 32.7353 53.72 30.2553" fill="#86B728"/>
<path d="M86.0298 32.8552C85.9898 33.0952 87.4398 31.5952 89.2398 29.5652C89.2398 29.5652 94.8598 23.1852 99.0998 19.1852C94.6798 18.7752 90.7098 18.4052 87.1598 18.0952C86.8598 21.8952 86.5099 26.8652 86.0399 32.8552M78.2599 29.5552C78.6399 25.0752 78.9598 20.9852 79.2398 17.4252C77.8898 17.3352 76.6099 17.2752 75.4799 17.1452C75.4299 17.4652 75.4798 17.7352 75.4498 17.9952C75.2998 19.3052 74.5299 20.6252 73.2299 21.9452C71.9899 23.3452 70.8998 24.6152 69.8798 25.8352C71.8498 26.9852 74.5899 29.0752 78.0399 31.9852C78.1499 31.1152 78.1699 30.3352 78.2599 29.5452M112.4 16.8652C112 19.0152 110.59 20.0652 108.28 20.0652C107.3 19.9652 106.5 20.1652 106.55 20.5352L106.57 20.8852C106.37 22.0452 105.7 23.1752 104.62 24.3252C102.94 26.0052 101.33 27.6852 99.7998 29.3152C102.03 31.0252 105.07 33.5352 108.74 37.0052L107.39 38.9552C105.86 41.1752 102.93 41.5452 100.87 39.7552C100.87 39.7552 97.6899 36.9852 94.8399 34.5452C92.7799 36.7252 90.6998 38.9552 88.6598 41.2452C86.9598 39.4552 85.3999 39.9552 85.1499 42.3352L84.9998 44.2352C88.2698 44.7852 95.5799 48.5152 106.93 55.4852L105.58 57.4252C104.02 59.6552 100.81 60.4252 98.4198 59.1352C98.4198 59.1352 89.6598 54.4852 84.3898 51.4852C83.8498 57.3552 83.4498 61.5052 83.1698 64.0552L79.9998 63.7152C77.2898 63.4152 75.2898 60.9852 75.5598 58.3052C75.5598 58.3052 76.1898 51.9752 76.6598 47.3152C70.6698 51.1852 64.4398 55.2852 57.9698 59.7052L56.3999 58.0652C54.5199 56.1152 54.7998 53.1852 56.9698 51.5552C56.9698 51.5552 67.0698 44.1452 73.9498 40.1652C75.1098 39.5052 76.3099 39.1052 77.4599 39.0952C77.6299 36.9852 77.7898 35.0052 77.9998 33.1752L77.2899 34.1652C75.7299 36.3652 72.7098 36.7752 70.5798 35.0952C70.5798 35.0952 68.0899 33.1452 65.6199 31.0952C63.0099 34.3852 60.9199 37.2252 59.4299 39.6652L57.3999 37.8352C55.3699 36.0552 54.9999 32.7752 56.5999 30.5852C56.5999 30.5852 64.2298 20.1052 67.1998 16.6952C63.8398 16.5952 60.5398 16.3652 57.3898 16.0252L57.6098 13.9752C57.9198 11.3152 60.3898 9.22523 63.1398 9.35523C63.1398 9.35523 70.7599 9.71523 79.7899 10.4252C79.8499 9.23523 79.9699 8.24522 80.0699 7.33522C80.3499 4.97522 81.7499 3.86523 84.4299 4.14523C87.0299 4.49523 88.2098 6.08522 87.8798 8.97522C87.8198 9.38522 87.7598 10.0352 87.6898 11.0852C93.6698 11.6152 100.25 12.1952 107.51 12.9052C110.84 13.4152 112.44 14.7252 112.43 16.8452" fill="#86B728"/>
<path d="M141.82 6.5653C141.98 8.3653 141.06 9.6253 139.12 10.3953C133.42 11.8153 127.81 13.3153 122.31 14.8553C122.34 15.1053 122.43 15.3053 122.43 15.4153C122.46 15.6753 122.32 16.3453 122.08 17.4553C121.5 19.5953 121.11 21.4353 120.81 23.0153C124.55 22.8053 127.84 22.7553 130.69 22.7553C132.77 23.0753 133.9 24.0753 134.2 25.7453C134.31 27.7953 133.2 29.0153 130.77 29.3553C126.68 29.7253 123.05 29.9253 119.97 29.9553C120.33 33.9453 122.5 36.4553 126.48 37.4453C131.52 38.9253 136.89 39.4053 142.54 38.8753C148.83 38.2953 153.49 36.8353 156.62 34.3453C158.09 33.3053 158.92 31.2253 159.17 28.2253C156.79 28.3653 152.21 28.5353 145.36 28.7853L145.33 26.8453C145.29 24.1453 146.73 21.8053 148.52 21.6853L152.39 21.4453C155.31 21.3253 157.35 21.2553 158.64 21.1353C158.01 18.5353 156.87 16.6953 155.22 15.5553C153.79 14.9853 151.97 14.7553 149.65 14.9653C148.37 15.0853 146.58 15.3853 144.16 15.7353L144.05 13.5753C143.89 10.8653 145.86 8.3453 148.43 7.9653L150.56 7.7653C154.79 7.3853 158.3 8.2753 160.97 10.5053C163.84 12.9553 165.59 17.1253 166.14 23.0453C166.81 30.3553 165.48 35.5953 162.15 38.8653C160.49 40.3253 158.45 41.5553 156.09 42.5353C156.18 42.9153 156.29 43.2953 156.38 43.6853C156.43 44.0053 156.33 44.4053 156.18 44.8753C155.33 48.1853 155 50.2153 155.04 50.8653C155.2 52.4053 156.41 53.0053 158.73 52.7953C160.01 52.6653 163.54 51.7653 169.35 50.0653L169.53 51.9053C169.76 54.6053 167.86 57.4753 165.28 58.3053C165.28 58.3053 161.11 59.6253 158.16 59.9753C157.53 60.0353 155.04 59.8753 152.68 59.6253L150.75 58.2653C149.22 57.1053 148.34 55.4353 148.15 53.3153C147.96 51.4053 148.41 48.4253 149.41 44.5253C147.38 44.9653 145.21 45.2453 142.9 45.4653C138.52 45.8553 134.5 45.8453 130.99 45.3753C130.85 45.5853 130.8 45.7253 130.76 45.7953C129.54 48.1653 128.41 51.2553 127.21 55.1253C125.98 58.6053 125.2 61.4653 124.82 63.5653L123.02 63.2453C120.36 62.7653 118.81 60.2453 119.6 57.6553C119.6 57.6553 123.02 46.3153 124.22 43.8653C124.03 43.8953 123.84 43.8553 123.68 43.7453C117.61 41.5753 114.29 37.2253 113.7 30.6753C113.34 27.0153 113.96 22.3653 115.58 16.7753C115.03 16.9553 114.51 17.1353 114.01 17.2553L113.2 15.2653C112.17 12.7553 113.46 10.0953 116.08 9.36531C116.08 9.36531 133.86 4.40531 137.77 3.93531C140.29 3.80531 141.66 4.7153 141.84 6.5753" fill="#86B728"/>
<path d="M196.36 38.7853C192.52 38.3553 189.26 37.6553 186.6 36.6353C185 36.0753 183.83 35.1553 183.26 33.8653C187.21 34.5053 191.66 35.0653 196.58 35.6453C196.49 36.6653 196.46 37.6953 196.37 38.7853M197.04 30.6853C193.5 30.2253 189.65 29.8053 185.61 29.3553C189.29 28.4653 193.15 27.9953 197.22 27.9753C197.16 28.5753 197.1 29.2653 197.1 29.9453C197.08 30.2153 197.05 30.4253 197.03 30.6853M203.75 39.5253C203.78 38.4453 203.86 37.4953 203.95 36.5453C206.01 36.8153 208.13 37.0053 210.39 37.2153C212.1 37.2353 213.09 36.5053 213.3 35.0153C213.33 33.9953 212.72 33.2553 211.38 32.7253C209.2 32.3853 206.82 32.0253 204.28 31.6553C204.43 30.0853 204.46 29.0053 204.52 28.4553C210 29.0953 213.79 29.9353 215.92 30.8153C218.3 31.9353 219.41 33.3253 219.25 35.1053C219.1 36.6653 218.01 37.8553 216.07 38.6453C213.46 39.7753 209.36 40.0753 203.76 39.5353M176.92 53.3153C174.3 53.2353 171.96 55.3153 171.71 57.9253L171.61 59.0153C176.35 59.3153 181.3 59.4953 186.53 59.7153C194.95 59.9453 207.46 60.8453 223.99 62.2453C225.85 62.2053 226.9 61.3453 227.2 59.6053C227.25 57.7553 225.76 56.6453 222.89 56.2453C215.5 55.6253 208.69 55.0653 202.51 54.6153C202.5 53.9953 202.58 53.1853 202.65 52.2353C207.82 52.5853 213.72 53.0653 220.46 53.6153C222.3 53.6553 223.38 52.7353 223.67 50.9753C223.69 49.3353 222.33 48.3153 219.68 47.9253C213.65 47.4453 208.15 46.9953 203.14 46.6653L203.19 46.2553C203.22 45.7653 203.46 45.3753 203.67 45.4053C211.14 46.1053 217.18 45.2253 221.84 42.7753C224.8 41.3553 225.06 40.7153 225.06 40.7153C225.99 38.2553 226.82 35.5253 226.9 34.6153C227.19 31.6953 225.82 29.2453 222.84 27.2653C220.09 25.6253 217.17 24.3953 214.04 23.6853C210.91 23.2053 208.46 22.9253 208.46 22.9253C205.86 22.6453 202.4 22.2653 200.78 22.1153C194.6 21.6753 189.46 21.7553 185.35 22.3953C184.89 21.4553 183.96 20.8953 182.6 20.6953C180.79 20.6053 179.34 21.4353 178.26 23.1753C176.6 25.6253 176.39 26.5953 176.39 26.5953C175.83 29.1753 175.35 31.6053 175.3 32.0153C174.95 35.6753 176.95 38.7353 181.36 41.1353C184.93 42.7653 189.8 43.9753 195.89 44.6753C195.86 45.0853 195.8 45.5653 195.75 46.1053C187.28 45.5953 180.42 45.3553 180.42 45.3553C177.79 45.2553 175.44 47.3253 175.19 49.9353L175.12 50.7553C179.23 51.0753 183.5 51.2653 188.05 51.4053C190.12 51.4553 192.53 51.6053 195.22 51.7353C195.13 52.5453 195.07 53.2853 195.07 54.1053C185.44 53.5553 176.96 53.2853 176.96 53.2853M210.81 10.8753C210.39 11.8053 209.84 13.1253 209.21 14.7053C204.42 14.3353 200.02 13.9853 195.97 13.6053C195.46 12.4553 195.1 11.1953 194.96 9.81533C199.23 10.0753 204.5 10.4353 210.81 10.8853M229.27 9.51532C229.33 7.59532 227.84 6.50533 224.96 6.18533C218.58 5.65533 212.68 5.18533 207.33 4.67533C205.11 1.80533 203.31 0.25533 202.03 0.00533019C199.64 -0.0846698 198.29 0.965327 198 3.13533C197.98 3.38533 198.01 3.67532 198.12 4.01532C190.31 3.50532 184.12 3.23533 184.12 3.23533C181.49 3.13533 179.13 5.16533 178.89 7.77533L178.78 8.86533C181.59 9.12533 184.55 9.26533 187.65 9.41533C187.62 9.88533 187.72 11.0053 187.97 12.7953C187.96 12.8653 187.96 12.9253 188 13.0053C182.64 12.6353 179.25 12.4453 179.25 12.4453C176.61 12.2853 174.27 14.2953 174.02 16.9153L173.91 18.2753C178.84 18.7253 184.05 19.0853 189.5 19.3753C198.27 19.9953 211.32 21.0653 228.6 22.5653C228.98 22.5653 229.31 22.5253 229.63 22.4553V16.7653C229.1 16.5953 228.5 16.4753 227.8 16.3853C223.97 16.0953 220.32 15.7553 216.75 15.4353C217.12 14.5753 217.47 13.7153 217.89 12.9353C218.15 12.4053 218.33 11.9353 218.51 11.5353C220.82 11.7653 223.31 11.9153 226.06 12.1653C227.93 12.2153 228.98 11.3053 229.28 9.52533" fill="#86B728"/>
</svg>
