<svg width="385" height="85" viewBox="0 0 385 85" fill="none" xmlns="http://www.w3.org/2000/svg">
<path d="M365.23 19.9199C354.4 19.9199 343.7 27.0099 338.45 36.7999C337.44 27.0099 329.8 19.9199 318.97 19.9199C308.14 19.9199 297.44 27.0099 292.19 36.7999C291.18 27.0099 283.54 19.9199 272.71 19.9199C259.3 19.9199 246.07 30.7899 243.17 44.2099C240.27 57.6299 248.79 68.4999 262.2 68.4999C273.03 68.4999 283.73 61.4099 288.98 51.6199C289.99 61.4099 297.63 68.4999 308.46 68.4999C319.29 68.4999 329.99 61.4099 335.24 51.6199C336.25 61.4099 343.89 68.4999 354.72 68.4999C368.13 68.4999 381.36 57.6299 384.26 44.2099C387.16 30.7999 378.64 19.9199 365.23 19.9199Z" fill="#87B828"/>
<path d="M266.851 42.4998C267.101 42.8298 267.171 43.2198 267.071 43.6698C266.971 44.1198 266.731 44.5098 266.341 44.8198C265.951 45.1398 265.531 45.2998 265.071 45.2998H260.131C259.961 45.2998 259.841 45.3998 259.771 45.5898C259.421 46.5198 259.221 47.0398 259.171 47.1598C259.101 47.3598 259.121 47.5098 259.211 47.6398C260.131 48.8098 261.611 50.9198 263.661 53.9698C263.941 54.3898 264.011 54.8898 263.881 55.4698C263.761 56.0098 263.501 56.4798 263.101 56.8998C262.731 57.2398 262.331 57.4098 261.891 57.4098H261.821C261.331 57.4098 261.001 57.2098 260.811 56.8198C259.831 54.9198 258.751 53.0498 257.561 51.2198C257.521 51.1698 257.481 51.1498 257.431 51.1698C257.381 51.1798 257.331 51.2098 257.301 51.2598C255.251 54.9698 252.621 58.0098 249.401 60.3698C249.021 60.6398 248.641 60.7698 248.251 60.7698C248.181 60.7698 248.091 60.7598 248.001 60.7298C247.521 60.6798 247.161 60.4598 246.901 60.0698C246.681 59.7498 246.611 59.3698 246.711 58.9398C246.821 58.4498 247.091 58.0398 247.531 57.6998C251.561 54.7698 254.471 50.7298 256.261 45.5798C256.331 45.3898 256.261 45.2898 256.071 45.2898H250.871C250.411 45.2898 250.051 45.1298 249.801 44.8098C249.551 44.4898 249.481 44.1098 249.571 43.6598C249.671 43.2098 249.911 42.8198 250.301 42.4898C250.691 42.1598 251.111 41.9998 251.581 41.9998H257.001C257.191 41.9998 257.311 41.9198 257.351 41.7398L257.531 40.8998L258.681 35.5898C258.721 35.3998 258.641 35.2998 258.451 35.2998H256.731C256.531 35.2998 256.391 35.3898 256.311 35.5598C255.511 36.8798 254.661 38.1098 253.751 39.2598C253.421 39.6498 253.021 39.8798 252.541 39.9598C252.441 39.9798 252.341 39.9998 252.241 39.9998C251.901 39.9998 251.611 39.8898 251.361 39.6698C251.031 39.3998 250.861 39.0398 250.871 38.5698C250.871 38.4498 250.891 38.3298 250.911 38.1998C250.981 37.8798 251.141 37.5798 251.401 37.2798C253.131 35.1298 254.781 32.3298 256.331 28.8598C256.531 28.3998 256.851 28.0398 257.291 27.7998C257.621 27.5998 257.961 27.5098 258.311 27.5098C258.411 27.5098 258.511 27.5198 258.631 27.5498C259.081 27.6198 259.391 27.8598 259.581 28.2498C259.691 28.5198 259.711 28.8098 259.651 29.1298C259.621 29.2498 259.581 29.3898 259.531 29.5298C259.171 30.3098 258.811 31.0698 258.451 31.7998C258.411 31.8698 258.411 31.9298 258.451 31.9798C258.491 32.0298 258.541 32.0498 258.621 32.0498H266.931C267.391 32.0498 267.751 32.2098 268.001 32.5298C268.251 32.8498 268.321 33.2298 268.231 33.6798C268.141 34.1298 267.891 34.5198 267.501 34.8298C267.111 35.1498 266.691 35.3098 266.231 35.3098H262.571C262.371 35.3098 262.261 35.4098 262.211 35.5998L261.051 40.9398L260.881 41.7498C260.841 41.9198 260.921 42.0098 261.121 42.0098H265.811C266.271 42.0098 266.631 42.1798 266.871 42.4998H266.851ZM270.571 32.5598C270.701 31.9498 271.031 31.4398 271.541 31.0198C272.061 30.6098 272.611 30.3998 273.191 30.3998H282.601C283.191 30.3998 283.651 30.6098 283.981 31.0198C284.321 31.4398 284.421 31.9498 284.291 32.5598L278.711 58.3298C278.601 58.8198 278.341 59.2298 277.931 59.5698C277.511 59.9098 277.061 60.0798 276.571 60.0798C276.081 60.0798 275.701 59.9098 275.441 59.5698C275.171 59.2298 275.091 58.8098 275.201 58.3298L275.281 57.9598C275.321 57.7698 275.251 57.6698 275.051 57.6698H268.791C268.591 57.6698 268.481 57.7698 268.431 57.9598L268.251 58.7998C268.151 59.2598 267.901 59.6598 267.501 59.9898C267.101 60.3198 266.671 60.4798 266.201 60.4798C265.731 60.4798 265.381 60.3098 265.121 59.9898C264.861 59.6598 264.781 59.2598 264.881 58.7998L270.561 32.5598H270.571ZM269.271 54.1598C269.231 54.3298 269.311 54.4198 269.511 54.4198H275.771C275.971 54.4198 276.081 54.3298 276.121 54.1598L280.481 33.9898C280.521 33.7998 280.451 33.6998 280.251 33.6998H273.991C273.791 33.6998 273.681 33.7998 273.631 33.9898L269.271 54.1598Z" fill="white"/>
<path d="M303.611 48.5197C304.201 48.5197 304.661 48.7297 304.991 49.1397C305.331 49.5597 305.431 50.0697 305.301 50.6797L303.871 57.2997C303.741 57.8897 303.421 58.3897 302.901 58.8197C302.381 59.2497 301.831 59.4597 301.241 59.4597H296.991C296.871 59.4597 296.791 59.5197 296.771 59.6397L296.751 59.7097C296.671 60.0997 296.461 60.4297 296.131 60.6997C295.801 60.9697 295.451 61.0997 295.071 61.0997C294.691 61.0997 294.401 60.9697 294.191 60.6997C293.981 60.4297 293.921 60.0997 294.001 59.7097L295.961 50.6697C296.091 50.0597 296.411 49.5497 296.911 49.1297C297.411 48.7197 297.971 48.5097 298.581 48.5097H303.591L303.611 48.5197ZM298.411 46.1797C298.041 46.1797 297.761 46.0497 297.551 45.7797C297.341 45.5097 297.281 45.1897 297.361 44.8097C297.441 44.4297 297.651 44.1097 297.971 43.8397C298.301 43.5697 298.641 43.4397 299.011 43.4397H305.421C305.811 43.4397 306.111 43.5697 306.321 43.8397C306.531 44.1097 306.591 44.4297 306.511 44.8097C306.431 45.1897 306.221 45.5097 305.901 45.7797C305.571 46.0497 305.211 46.1797 304.821 46.1797H298.411ZM302.321 51.5997C302.361 51.3997 302.301 51.3097 302.131 51.3097H298.841C298.671 51.3097 298.561 51.4097 298.521 51.5997L297.471 56.4297C297.431 56.6297 297.491 56.7197 297.661 56.7197H300.951C301.121 56.7197 301.231 56.6197 301.271 56.4297L302.321 51.5997ZM308.461 33.3697C308.851 33.3697 309.151 33.4997 309.361 33.7697C309.571 34.0397 309.631 34.3597 309.551 34.7397C309.471 35.1197 309.261 35.4497 308.931 35.7297C308.601 36.0097 308.241 36.1497 307.851 36.1497H299.101C298.711 36.1497 298.411 36.0097 298.201 35.7297C297.991 35.4497 297.931 35.1197 298.011 34.7397C298.091 34.3597 298.301 34.0397 298.621 33.7697C298.951 33.4997 299.301 33.3697 299.701 33.3697H308.451H308.461ZM306.521 38.4597C306.891 38.4597 307.171 38.5897 307.381 38.8597C307.591 39.1297 307.661 39.4497 307.581 39.8097C307.501 40.1797 307.301 40.4897 306.971 40.7597C306.641 41.0297 306.301 41.1597 305.931 41.1597H299.491C299.121 41.1597 298.841 41.0297 298.631 40.7597C298.421 40.4897 298.351 40.1697 298.431 39.8097C298.511 39.4397 298.711 39.1297 299.041 38.8597C299.371 38.5897 299.711 38.4597 300.081 38.4597H306.521ZM308.621 28.4297C309.011 28.4297 309.311 28.5597 309.521 28.8297C309.731 29.0997 309.791 29.4197 309.711 29.7997C309.631 30.1797 309.421 30.4997 309.101 30.7497C308.781 31.0097 308.421 31.1297 308.031 31.1297H301.811C301.441 31.1297 301.151 30.9997 300.941 30.7497C300.731 30.4897 300.661 30.1797 300.741 29.7997C300.821 29.4197 301.031 29.0997 301.351 28.8297C301.681 28.5597 302.021 28.4297 302.391 28.4297H308.611H308.621ZM325.941 45.6297C326.141 45.2597 326.441 45.0097 326.841 44.8597C327.241 44.7097 327.591 44.7297 327.891 44.8997C328.231 45.1197 328.431 45.4297 328.501 45.8197C328.551 46.0397 328.551 46.2497 328.511 46.4397C328.471 46.6397 328.381 46.8297 328.241 47.0297C326.781 49.4897 325.121 51.7397 323.271 53.7597C323.141 53.9097 323.071 54.0697 323.061 54.2397C323.101 55.3897 323.251 56.2697 323.491 56.8897C323.731 57.5097 324.091 57.8597 324.561 57.9297H324.601C325.061 57.9297 325.651 56.8597 326.361 54.7097C326.441 54.4397 326.631 54.2597 326.921 54.1597C327.211 54.0597 327.441 54.1097 327.621 54.3097C328.141 54.8497 328.321 55.4597 328.181 56.1397C328.151 56.2897 328.101 56.4497 328.041 56.6197C327.241 58.4997 326.481 59.8197 325.761 60.5697C325.061 61.3297 324.371 61.6997 323.681 61.6997H323.641C321.721 61.5497 320.591 59.9997 320.251 57.0497C320.241 56.9997 320.201 56.9697 320.141 56.9597C320.081 56.9497 320.031 56.9597 319.971 56.9797C318.371 58.3997 316.691 59.6397 314.921 60.7097C314.551 60.9297 314.181 61.0097 313.811 60.9497C313.431 60.8897 313.131 60.7197 312.891 60.4597C312.701 60.2197 312.661 59.9197 312.771 59.5797C312.881 59.2397 313.091 58.9697 313.401 58.7697C314.101 58.3497 314.771 57.9197 315.401 57.4497C315.431 57.4297 315.441 57.3897 315.441 57.3397C315.441 57.2897 315.411 57.2697 315.361 57.2697H308.921C308.801 57.2697 308.721 57.3297 308.701 57.4497L308.661 57.6297C308.581 57.9997 308.381 58.3097 308.051 58.5797C307.721 58.8497 307.371 58.9797 306.991 58.9797C306.611 58.9797 306.321 58.8497 306.111 58.5797C305.901 58.3097 305.831 57.9897 305.911 57.6297L308.261 46.7597C308.391 46.1697 308.711 45.6697 309.231 45.2397C309.751 44.8097 310.301 44.5997 310.891 44.5997H316.971C317.561 44.5997 318.021 44.8097 318.351 45.2397C318.681 45.6697 318.791 46.1697 318.661 46.7597L316.591 56.3097C316.591 56.3097 316.591 56.3997 316.641 56.4197C316.681 56.4397 316.721 56.4397 316.751 56.4197C317.841 55.5697 318.881 54.6297 319.891 53.5997C320.041 53.4497 320.121 53.2797 320.111 53.0897C320.251 50.5297 320.681 47.1197 321.401 42.8797C321.441 42.7097 321.371 42.6197 321.201 42.6197H308.831C308.441 42.6197 308.131 42.4797 307.911 42.1997C307.691 41.9197 307.621 41.5797 307.711 41.1797C307.801 40.7797 308.011 40.4397 308.351 40.1597C308.691 39.8797 309.061 39.7397 309.451 39.7397H317.911C317.911 39.7397 317.951 39.7397 317.951 39.7197C317.951 39.7097 317.951 39.6897 317.961 39.6597C317.421 39.5597 317.061 39.2697 316.871 38.7797C316.751 38.4397 316.731 38.0797 316.811 37.7197C316.841 37.5697 316.891 37.4197 316.951 37.2397C317.241 36.5597 317.521 35.8997 317.781 35.2597C317.941 34.8697 318.201 34.5597 318.571 34.3297C318.941 34.0997 319.311 34.0197 319.681 34.0897C320.051 34.1597 320.311 34.3597 320.451 34.6897C320.591 35.0197 320.561 35.3797 320.381 35.7697C319.351 37.8397 318.731 39.0797 318.521 39.4697C318.481 39.5197 318.481 39.5697 318.501 39.6297C318.521 39.6897 318.571 39.7197 318.651 39.7197H321.691C321.891 39.7197 322.001 39.6197 322.051 39.4297C322.621 36.3297 323.351 32.7597 324.221 28.7097C324.311 28.2997 324.531 27.9397 324.891 27.6497C325.251 27.3597 325.631 27.2097 326.051 27.2097C326.471 27.2097 326.781 27.3597 327.001 27.6497C327.221 27.9397 327.281 28.2797 327.201 28.6697L326.431 32.2197C325.931 34.5397 325.431 36.9397 324.941 39.4297C324.901 39.6297 324.961 39.7197 325.131 39.7197H329.631C330.041 39.7197 330.361 39.8597 330.581 40.1397C330.801 40.4197 330.871 40.7597 330.781 41.1597C330.691 41.5597 330.481 41.8997 330.141 42.1797C329.801 42.4597 329.421 42.5997 329.011 42.5997H324.581C324.411 42.5997 324.311 42.6897 324.271 42.8597C323.931 44.8897 323.621 47.0597 323.341 49.3797C323.341 49.3997 323.341 49.4197 323.381 49.4297C323.411 49.4397 323.451 49.4297 323.481 49.4097C324.351 48.2097 325.171 46.9497 325.951 45.5997L325.941 45.6297ZM309.351 54.4497C309.311 54.6497 309.371 54.7397 309.541 54.7397H313.751C313.941 54.7397 314.061 54.6397 314.111 54.4497L314.571 52.3297C314.611 52.1597 314.531 52.0697 314.331 52.0697H310.121C309.951 52.0697 309.851 52.1597 309.811 52.3297L309.351 54.4497ZM315.641 47.3897C315.681 47.2197 315.601 47.1297 315.401 47.1297H311.191C311.021 47.1297 310.921 47.2197 310.881 47.3897L310.441 49.3997C310.401 49.5697 310.471 49.6597 310.641 49.6597H314.851C315.041 49.6597 315.161 49.5797 315.201 49.3997L315.641 47.3897ZM321.551 31.0597C321.921 31.0597 322.201 31.1897 322.401 31.4597C322.601 31.7297 322.661 32.0497 322.581 32.4097C322.501 32.7797 322.311 33.0897 321.991 33.3397C321.681 33.5997 321.341 33.7197 320.971 33.7197H311.601C311.231 33.7197 310.951 33.5897 310.751 33.3397C310.551 33.0897 310.491 32.7697 310.571 32.4097C310.651 32.0397 310.851 31.7297 311.161 31.4597C311.471 31.1897 311.811 31.0597 312.181 31.0597H315.031C315.221 31.0597 315.341 30.9697 315.381 30.7997L315.821 28.7897C315.921 28.3497 316.151 27.9697 316.521 27.6597C316.891 27.3397 317.311 27.1797 317.761 27.1797C318.211 27.1797 318.561 27.3397 318.811 27.6597C319.061 27.9797 319.141 28.3597 319.041 28.7897L318.601 30.7997C318.561 30.9697 318.631 31.0597 318.801 31.0597H321.551ZM311.541 35.7097C311.541 35.3697 311.651 35.0597 311.871 34.7797C312.091 34.4997 312.371 34.3197 312.701 34.2497C313.081 34.1797 313.411 34.2297 313.671 34.3997C313.941 34.5697 314.081 34.8297 314.111 35.1697C314.181 36.0697 314.191 36.9597 314.111 37.8397C314.111 38.2097 313.951 38.5397 313.651 38.8497C313.351 39.1597 313.011 39.3597 312.621 39.4497C312.291 39.5197 312.001 39.4497 311.771 39.2497C311.531 39.0397 311.441 38.7697 311.491 38.4297C311.591 37.5297 311.601 36.6197 311.531 35.7197L311.541 35.7097ZM332.091 34.2797C332.121 34.4797 332.121 34.6697 332.071 34.8697C332.031 35.0697 331.951 35.2697 331.831 35.4897C331.571 35.8797 331.221 36.1597 330.771 36.3297C330.371 36.4797 330.001 36.4597 329.661 36.2897C329.321 36.1197 329.101 35.8397 329.021 35.4497C328.761 34.0597 328.351 32.6797 327.791 31.3097C327.661 31.0197 327.681 30.6997 327.851 30.3597C328.021 30.0197 328.291 29.7897 328.661 29.6597C328.901 29.5597 329.131 29.5097 329.351 29.5097C329.521 29.5097 329.691 29.5297 329.851 29.5797C330.241 29.6997 330.521 29.9297 330.691 30.2797C331.311 31.5997 331.781 32.9297 332.101 34.2697L332.091 34.2797Z" fill="white"/>
<path d="M379.181 30.7195C379.421 31.0295 379.491 31.3895 379.401 31.8195C379.311 32.2495 379.081 32.6095 378.701 32.9195C378.331 33.2295 377.921 33.3795 377.481 33.3795H351.571C351.401 33.3795 351.301 33.4695 351.261 33.6395L349.431 42.0995C347.731 49.9295 345.451 55.9395 342.571 60.1095C342.291 60.4995 341.921 60.7295 341.471 60.8095C341.371 60.8295 341.271 60.8495 341.171 60.8495C340.831 60.8495 340.551 60.7395 340.331 60.5195C340.001 60.2495 339.821 59.8995 339.791 59.4595C339.811 59.2595 339.831 59.0795 339.871 58.9095C339.931 58.6395 340.041 58.3695 340.191 58.0995C341.681 55.9295 342.881 53.5095 343.781 50.8295C344.681 48.1595 345.461 45.2495 346.141 42.0995L348.231 32.4395C348.361 31.8295 348.681 31.3195 349.191 30.8995C349.691 30.4795 350.251 30.2795 350.861 30.2795H361.991C362.181 30.2795 362.301 30.1795 362.351 29.9895L362.561 29.0395C362.671 28.5295 362.941 28.0895 363.371 27.7395C363.801 27.3895 364.271 27.2095 364.771 27.2095C365.271 27.2095 365.661 27.3895 365.941 27.7395C366.221 28.0895 366.301 28.5295 366.191 29.0395L365.981 29.9895C365.941 30.1895 366.001 30.2795 366.171 30.2795H378.181C378.621 30.2795 378.961 30.4295 379.201 30.7395L379.181 30.7195ZM373.301 54.4495C373.711 54.4495 374.031 54.5895 374.251 54.8695C374.471 55.1495 374.541 55.4895 374.451 55.8895C374.361 56.2895 374.151 56.6295 373.811 56.9095C373.471 57.1895 373.091 57.3295 372.681 57.3295H361.851C361.681 57.3295 361.571 57.4295 361.531 57.6195L361.031 59.9295C360.931 60.3895 360.681 60.7895 360.281 61.1195C359.881 61.4495 359.451 61.6095 358.981 61.6095C358.511 61.6095 358.161 61.4495 357.921 61.1195C357.671 60.7895 357.601 60.3895 357.701 59.9295L358.201 57.6195C358.241 57.4295 358.171 57.3295 357.971 57.3295H347.831C347.411 57.3295 347.101 57.1895 346.881 56.9095C346.661 56.6295 346.591 56.2895 346.681 55.8895C346.771 55.4895 346.981 55.1495 347.321 54.8695C347.661 54.5895 348.041 54.4495 348.451 54.4495H358.591C358.781 54.4495 358.901 54.3695 358.941 54.1895L359.321 52.4295C359.361 52.2595 359.281 52.1695 359.081 52.1695H352.461C351.851 52.1695 351.381 51.9595 351.061 51.5295C350.741 51.0995 350.641 50.5995 350.771 50.0095L352.301 42.9495C352.431 42.3395 352.751 41.8295 353.261 41.4095C353.761 40.9995 354.321 40.7895 354.931 40.7895H361.551C361.751 40.7895 361.861 40.6895 361.911 40.4995L362.251 38.9295C362.291 38.7295 362.211 38.6395 362.021 38.6395H353.351C352.981 38.6395 352.691 38.5095 352.481 38.2595C352.271 37.9995 352.201 37.6895 352.281 37.3095C352.361 36.9295 352.571 36.6095 352.891 36.3395C353.221 36.0695 353.561 35.9395 353.931 35.9395H362.601C362.791 35.9395 362.911 35.8595 362.951 35.6795L363.051 35.2395C363.151 34.7795 363.391 34.3795 363.781 34.0495C364.171 33.7195 364.591 33.5595 365.061 33.5595C365.531 33.5595 365.881 33.7195 366.141 34.0495C366.401 34.3795 366.481 34.7795 366.381 35.2395L366.281 35.6795C366.241 35.8495 366.311 35.9395 366.481 35.9395H376.181C376.571 35.9395 376.861 36.0695 377.061 36.3395C377.261 36.6095 377.321 36.9295 377.231 37.3095C377.151 37.6895 376.951 38.0095 376.641 38.2595C376.331 38.5195 375.981 38.6395 375.591 38.6395H365.891C365.721 38.6395 365.611 38.7395 365.571 38.9295L365.231 40.4995C365.191 40.6995 365.251 40.7895 365.421 40.7895H372.481C373.071 40.7895 373.531 40.9995 373.861 41.4095C374.201 41.8295 374.301 42.3395 374.171 42.9495L372.641 50.0095C372.511 50.5995 372.191 51.0995 371.671 51.5295C371.151 51.9595 370.601 52.1695 370.011 52.1695H362.951C362.781 52.1695 362.671 52.2595 362.641 52.4295L362.261 54.1895C362.221 54.3595 362.291 54.4495 362.461 54.4495H373.291H373.301ZM353.941 49.6895C353.901 49.8595 353.971 49.9495 354.141 49.9495H359.561C359.751 49.9495 359.871 49.8595 359.911 49.6895L360.321 47.7895C360.361 47.6195 360.281 47.5295 360.081 47.5295H354.661C354.491 47.5295 354.381 47.6195 354.351 47.7895L353.941 49.6895ZM355.641 43.0295C355.471 43.0295 355.361 43.1295 355.321 43.3195L354.931 45.1095C354.891 45.3095 354.951 45.3995 355.121 45.3995H360.541C360.741 45.3995 360.851 45.2995 360.901 45.1095L361.291 43.3195C361.331 43.1295 361.261 43.0295 361.061 43.0295H355.641ZM369.151 49.9495C369.351 49.9495 369.461 49.8595 369.501 49.6895L369.911 47.7895C369.951 47.6195 369.871 47.5295 369.671 47.5295H363.961C363.791 47.5295 363.681 47.6195 363.651 47.7895L363.241 49.6895C363.201 49.8595 363.271 49.9495 363.441 49.9495H369.151ZM370.871 43.3295C370.911 43.1395 370.841 43.0395 370.641 43.0395H364.931C364.761 43.0395 364.651 43.1395 364.611 43.3295L364.221 45.1195C364.181 45.3195 364.241 45.4095 364.411 45.4095H370.121C370.321 45.4095 370.431 45.3095 370.481 45.1195L370.871 43.3295Z" fill="white"/>
<path d="M63.3206 15.89L62.2306 22.07H84.1806L81.7806 35.54C80.6006 38.02 78.9006 40.37 76.8706 42.54L77.8906 36.7C75.2306 35.28 73.6206 33.12 73.0206 30.06C73.1006 29.71 73.2506 29.25 73.3206 28.79L74.1206 24.16H68.4706L67.5906 29.05C66.8806 32.74 64.1706 35.47 59.5406 37.25L58.4806 43.29C63.4906 41.51 67.2806 39.16 69.8406 36.17C71.2606 39.03 73.4406 41.32 76.4506 42.97C71.6606 47.86 64.4906 52.06 55.0306 55.56L53.8706 62.19C64.8906 58.49 73.5406 53.46 79.7206 47.24L76.4906 65.61H82.9106L86.2906 46.47C91.0206 53.54 97.9306 58.8 106.911 62.31L108.141 55.32C100.891 52.46 95.2506 48.31 91.2306 42.97C95.8606 41.32 99.3606 39.03 101.781 36.17C103.311 39.08 105.621 41.44 108.691 43.15L109.821 36.68C107.211 35.26 105.581 32.99 104.981 29.92C105.051 29.54 105.191 29.18 105.251 28.77L106.071 24.14H100.411L99.5306 29.03C98.8306 32.72 96.1206 35.45 91.4806 37.23L90.6006 42.12C89.5906 40.73 88.6606 39.2 87.8506 37.47L90.5906 22.03H113.751L114.831 15.85H91.6706L94.4806 0.97998H88.0606L85.2406 15.85H63.3106L63.3206 15.89Z" fill="#87B828"/>
<path d="M138.671 13.1399C137.881 20.1299 136.811 27.6399 135.401 35.6599C134.441 41.1299 133.671 44.4999 133.161 45.8199C132.851 47.6099 131.341 48.4899 128.741 48.4899C126.141 48.4899 124.121 48.2999 122.291 47.9399L121.241 53.9099C122.951 54.2899 125.341 54.4799 128.381 54.4799C133.541 54.4799 136.821 52.8199 138.311 49.5199C139.321 47.3399 140.451 42.7699 141.661 35.8999C143.571 25.0899 144.721 17.4399 145.101 13.1299H138.681L138.671 13.1399ZM149.711 41.4299C146.291 48.5499 141.151 53.8299 134.171 57.3399C128.771 60.8899 120.011 62.6899 107.861 62.6899L106.781 68.7799C120.651 68.7799 130.901 66.4999 137.551 61.9799C145.951 57.2599 152.261 50.3999 156.361 41.4999L149.711 41.4199V41.4299ZM152.931 16.3199C152.471 30.8799 155.721 40.5399 162.701 45.2399L164.001 37.8699C159.831 33.4199 158.241 26.2199 159.091 16.3199H152.921H152.931ZM125.271 16.1899C122.711 25.7299 117.851 33.4299 110.711 39.2799L109.421 46.5299C120.281 39.9199 127.581 29.8799 131.441 16.2499L125.271 16.1999V16.1899Z" fill="#87B828"/>
<path d="M186.861 55.06H174.131L176.101 43.87H188.831L186.851 55.06H186.861ZM177.101 28.91H191.471L189.881 37.95H171.061L168.041 55.06H161.351L160.301 61.04H185.811L181.691 84.08H187.871L191.981 61.04H229.591L230.651 55.06H193.061L195.001 43.87H213.961L215.021 37.95H196.061L197.641 28.91H217.431L218.441 23.13H180.971C181.871 21.73 182.701 20.14 183.581 18.48H177.151C173.841 24.98 170.181 29.56 166.221 32.17L164.831 39.99C169.271 37.51 173.361 33.83 177.101 28.91Z" fill="#87B828"/>
<path d="M2.37059 39.87L1.33059 45.78H17.0906C14.6506 53.79 9.45059 59.92 1.33059 64.09L0.100586 71.04C5.36059 68.94 10.2006 65.69 14.5506 61.18C18.1106 57.63 20.9206 52.53 22.9306 45.78H27.4506L21.0306 82.42H27.2106L33.6206 45.78H38.1806C38.6806 58.25 43.4406 66.6 52.3906 70.93L53.6906 63.53C47.7406 60.23 44.5206 54.32 43.9806 45.78H56.4506L57.5006 39.87H34.6506L36.3406 30.27H57.0106L58.0406 24.47H37.3606L38.6306 17.29H32.4606L31.2006 24.47H10.6606L9.63059 30.27H30.1706L28.4806 39.87H2.35059H2.37059Z" fill="#87B828"/>
</svg>
