<svg width="71" height="71" viewBox="0 0 71 71" fill="none" xmlns="http://www.w3.org/2000/svg">
<path d="M35.14 69.79C53.9342 69.79 69.17 54.5542 69.17 35.76C69.17 16.9657 53.9342 1.72998 35.14 1.72998C16.3457 1.72998 1.10999 16.9657 1.10999 35.76C1.10999 54.5542 16.3457 69.79 35.14 69.79Z" stroke="white" stroke-width="2" stroke-miterlimit="10"/>
<path d="M49.62 48.62L36.98 35.98L49.62 23.34C50.36 22.6 50.54 21.62 50.02 21.09C49.52 20.59 48.52 20.76 47.78 21.5L35.14 34.14L22.5 21.5C21.76 20.76 20.76 20.59 20.26 21.09C19.76 21.59 19.92 22.6 20.66 23.34L33.3 35.98L20.66 48.62C19.92 49.36 19.74 50.36 20.24 50.87C20.76 51.39 21.76 51.2 22.5 50.46L35.14 37.82L47.78 50.46C48.52 51.2 49.51 51.39 50.04 50.87C50.57 50.35 50.36 49.36 49.62 48.62Z" fill="white" stroke="white" stroke-width="0.5" stroke-miterlimit="10"/>
</svg>
