<svg width="69" height="69" viewBox="0 0 69 69" fill="none" xmlns="http://www.w3.org/2000/svg">
<path d="M34.14 68.79C52.9342 68.79 68.17 53.5542 68.17 34.76C68.17 15.9657 52.9342 0.72998 34.14 0.72998C15.3457 0.72998 0.109985 15.9657 0.109985 34.76C0.109985 53.5542 15.3457 68.79 34.14 68.79Z" fill="#3E3A39"/>
<path d="M17.5399 22.8901C16.6399 22.8901 15.9199 22.1801 15.9199 21.2601C15.9199 20.3401 16.6399 19.6401 17.5399 19.6401H50.7299C51.6299 19.6401 52.3599 20.3701 52.3599 21.2601C52.3599 22.1501 51.6299 22.8901 50.7299 22.8901H17.5399ZM17.5399 36.5101C16.6399 36.5101 15.9199 35.7901 15.9199 34.8701C15.9199 33.9501 16.6399 33.2501 17.5399 33.2501H50.7299C51.6299 33.2501 52.3599 33.9801 52.3599 34.8701C52.3599 35.7601 51.6299 36.5101 50.7299 36.5101H17.5399ZM17.5399 49.8801C16.6399 49.8801 15.9199 49.1601 15.9199 48.2501C15.9199 47.3401 16.6399 46.6201 17.5399 46.6201H50.7299C51.6299 46.6201 52.3599 47.3501 52.3599 48.2501C52.3599 49.1501 51.6299 49.8801 50.7299 49.8801H17.5399Z" fill="white"/>
</svg>
