<svg width="63" height="63" viewBox="0 0 63 63" fill="none" xmlns="http://www.w3.org/2000/svg">
<path d="M31.66 62.4601C48.8692 62.4601 62.8199 48.5093 62.8199 31.3001C62.8199 14.0909 48.8692 0.140137 31.66 0.140137C14.4508 0.140137 0.5 14.0909 0.5 31.3001C0.5 48.5093 14.4508 62.4601 31.66 62.4601Z" fill="white"/>
<path d="M46.33 18.8701L28.2 36.9801L20.7801 29.5401C19.5101 28.3101 17.51 28.3101 16.29 29.5401C15 30.7901 15 32.8101 16.29 34.0501L25.82 43.6001L25.9601 43.7401C27.1901 44.9601 29.23 44.9601 30.5 43.7401L50.83 23.4101C52.08 22.1401 52.08 20.1401 50.83 18.8701C49.61 17.6201 47.57 17.6201 46.34 18.8701H46.33Z" fill="#8DC21F"/>
</svg>
