<svg width="35" height="32" viewBox="0 0 35 32" fill="none" xmlns="http://www.w3.org/2000/svg">
<path d="M16.77 30.73L3.79995 17.76C2.43995 16.4 1.45996 14.8 0.999963 13.05C0.549963 11.39 0.579955 9.59998 1.17996 7.78998C1.70996 6.20998 2.61995 4.77997 3.79995 3.62997C4.98995 2.46997 6.43996 1.56998 8.02996 1.06998C9.88996 0.479977 11.73 0.469975 13.45 0.919975C14.99 1.31998 16.43 2.08998 17.69 3.14998C18.97 2.08998 20.4 1.31998 21.94 0.919975C23.67 0.469975 25.4999 0.479977 27.3599 1.06998C28.9499 1.56998 30.41 2.47998 31.59 3.63998C32.76 4.79998 33.69 6.21998 34.21 7.79998C34.81 9.59998 34.83 11.38 34.38 13.05C33.91 14.79 32.94 16.39 31.58 17.75L31.51 17.81L18.59 30.72C18.08 31.22 17.26 31.22 16.75 30.72L16.77 30.73Z" fill="#C1272D"/>
</svg>
