<svg width="26" height="31" viewBox="0 0 26 31" fill="none" xmlns="http://www.w3.org/2000/svg">
<path d="M6.48999 16.99C5.87999 16.99 5.35999 17.49 5.35999 18.12C5.35999 18.75 5.87999 19.26 6.48999 19.26C7.09999 19.26 7.63 18.74 7.63 18.12C7.63 17.5 7.11999 16.99 6.48999 16.99ZM6.48999 12.23C5.87999 12.23 5.35999 12.74 5.35999 13.36C5.35999 13.98 5.87999 14.49 6.48999 14.49C7.09999 14.49 7.63 13.98 7.63 13.36C7.63 12.74 7.11999 12.23 6.48999 12.23ZM6.48999 21.75C5.87999 21.75 5.35999 22.25 5.35999 22.89C5.35999 23.53 5.87999 23.99 6.48999 23.99C7.09999 23.99 7.63 23.5 7.63 22.89C7.63 22.28 7.11999 21.75 6.48999 21.75ZM19.66 22.2H9.85999C9.49999 22.2 9.20001 22.5 9.20001 22.89C9.20001 23.28 9.49999 23.55 9.85999 23.55H19.66C20.03 23.55 20.34 23.25 20.34 22.89C20.34 22.53 20.03 22.2 19.66 22.2ZM19.66 12.67H9.85999C9.49999 12.67 9.20001 12.97 9.20001 13.35C9.20001 13.73 9.49999 14.03 9.85999 14.03H19.66C20.03 14.03 20.34 13.72 20.34 13.35C20.34 12.98 20.03 12.67 19.66 12.67ZM24.8 5.09003H21.7V4.47003C21.7 4.09003 21.4 3.79004 21.02 3.79004H17.42C17.21 2.99004 16.81 2.26004 16.23 1.70004C15.42 0.900043 14.32 0.400024 13.09 0.400024C11.86 0.400024 10.75 0.900043 9.95001 1.70004C9.38001 2.26004 8.97 2.99004 8.78 3.79004H5.14999C4.77999 3.79004 4.48999 4.09003 4.48999 4.47003V5.09003H1.38C0.760005 5.09003 0.26001 5.59003 0.26001 6.22003V29.31C0.26001 29.93 0.760005 30.44 1.38 30.44H24.79C25.41 30.44 25.92 29.94 25.92 29.31V6.22003C25.92 5.59003 25.41 5.09003 24.79 5.09003H24.8ZM10.92 2.67004C11.48 2.11004 12.25 1.77002 13.1 1.77002C13.95 1.77002 14.73 2.11004 15.29 2.67004C15.59 2.99004 15.85 3.37002 16 3.80002H10.19C10.35 3.38002 10.59 2.99004 10.92 2.67004ZM5.85001 5.15002H20.35V7.28003H5.85001V5.15002ZM23.68 28.18H2.53V7.36002H4.51001V7.97003C4.51001 8.35003 4.81001 8.64005 5.17001 8.64005H21.03C21.41 8.64005 21.71 8.34003 21.71 7.97003V7.36002H23.68V28.18ZM19.66 17.44H9.85999C9.49999 17.44 9.20001 17.74 9.20001 18.12C9.20001 18.5 9.49999 18.79 9.85999 18.79H19.66C20.03 18.79 20.34 18.49 20.34 18.12C20.34 17.75 20.03 17.44 19.66 17.44Z" fill="#3E3A39"/>
</svg>
