<svg width="29" height="29" viewBox="0 0 29 29" fill="none" xmlns="http://www.w3.org/2000/svg">
<path d="M28.55 9.74001C28.55 8.64001 28.12 7.54 27.3 6.72L22.46 1.88C21.62 1.04 20.52 0.619995 19.43 0.619995C18.34 0.619995 17.23 1.04 16.42 1.88C11.33 6.95001 6.25 12.05 1.16 17.13L1.14001 17.15L1.12 17.17L1.10001 17.19V17.21H1.07999V17.23V17.25L1.06 17.27V17.29H1.04001L1.01999 17.31L1 17.33V17.35H0.980011V17.37L0.959991 17.39V17.41L0.940002 17.43V17.46L0.920013 17.48V17.5V17.52H0.899994V17.54V17.56L0.880005 17.58V17.6V17.62L0.859985 17.64V17.66L0.839996 17.69V17.75L0.820007 17.77V17.8V17.9V27.22C0.820007 27.86 1.33 28.37 1.97 28.37H11.35H11.38H11.45L11.48 28.35H11.51H11.53H11.56L11.61 28.32H11.64L11.67 28.3L11.69 28.28L11.71 28.26L11.73 28.24H11.75L11.77 28.22L11.8 28.2L11.82 28.18H11.85L11.87 28.16L11.89 28.14L11.92 28.12L11.94 28.1L11.97 28.08L11.99 28.05L12.01 28.03C17.1 22.93 22.18 17.86 27.27 12.78C28.1 11.94 28.52 10.85 28.52 9.75999L28.55 9.74001ZM14.49 7.08L15.87 8.46001L5.01001 19.33L3.63 17.96L14.49 7.08ZM3.13 26.04V20.73L8.42999 26.04H3.13ZM5.98999 20.31L16.85 9.45L19.74 12.34L8.85999 23.2L5.98999 20.31ZM11.24 25.56L9.85001 24.17L20.73 13.29L22.11 14.68L11.25 25.55L11.24 25.56ZM26.25 9.74001H26.23C26.23 10.25 26.05 10.74 25.66 11.13L23.74 13.05L16.12 5.45L16.3 5.25L17 4.55L18.05 3.5C18.44 3.12 18.94 2.92999 19.44 2.92999C19.94 2.92999 20.45 3.13 20.82 3.5L25.67 8.35001C26.06 8.73001 26.26 9.23 26.26 9.73L26.25 9.74001Z" fill="#EF9C3C"/>
<path d="M14.49 7.08002L15.87 8.46002L5 19.33L3.63 17.96L14.49 7.08002Z" fill="#FFE500"/>
<path d="M3.13 26.04V20.73L8.42999 26.04H3.13Z" fill="white"/>
<path d="M5.98999 20.31L16.85 9.44L19.74 12.33L8.85999 23.19L5.98999 20.31Z" fill="#FFE500"/>
<path d="M11.24 25.56L9.83997 24.18L20.7199 13.3L22.0999 14.69L11.24 25.56Z" fill="#FFE500"/>
<path d="M26.25 9.74001H26.23C26.23 10.25 26.05 10.74 25.66 11.13L23.74 13.05L16.12 5.45L16.3 5.25L17 4.55L18.05 3.5C18.44 3.12 18.94 2.92999 19.44 2.92999C19.94 2.92999 20.45 3.13 20.82 3.5L25.67 8.35001C26.06 8.73001 26.26 9.23 26.26 9.73L26.25 9.74001Z" fill="white"/>
</svg>
