<svg width="29" height="29" viewBox="0 0 29 29" fill="none" xmlns="http://www.w3.org/2000/svg">
<path d="M28.37 9.74001C28.37 8.64001 27.94 7.54 27.12 6.72L22.28 1.88C21.44 1.04 20.34 0.619995 19.25 0.619995C18.16 0.619995 17.05 1.04 16.24 1.88C11.15 6.95001 6.07001 12.05 0.980011 17.13L0.959991 17.15L0.940002 17.17L0.920013 17.19V17.21H0.899994V17.23V17.25L0.880005 17.27V17.29H0.859985L0.839996 17.31L0.820007 17.33V17.35H0.799988V17.37L0.779999 17.39V17.41L0.76001 17.43V17.46L0.73999 17.48V17.5V17.52H0.720001V17.54V17.56L0.700012 17.58V17.6V17.62L0.679993 17.64V17.66L0.660004 17.69V17.75L0.640015 17.77V17.8V17.9V27.22C0.640015 27.86 1.15001 28.37 1.79001 28.37H11.17H11.2H11.27L11.3 28.35H11.33H11.35H11.38L11.43 28.32H11.46L11.49 28.3L11.51 28.28L11.53 28.26L11.55 28.24H11.57L11.59 28.22L11.62 28.2L11.64 28.18H11.67L11.69 28.16L11.71 28.14L11.74 28.12L11.76 28.1L11.79 28.08L11.81 28.05L11.83 28.03C16.92 22.93 22 17.86 27.09 12.78C27.92 11.94 28.34 10.85 28.34 9.75999L28.37 9.74001ZM14.31 7.08L15.69 8.46001L4.82999 19.33L3.45001 17.96L14.31 7.08ZM2.95999 26.04V20.73L8.26001 26.04H2.95999ZM5.81 20.31L16.67 9.45L19.56 12.34L8.67999 23.2L5.81 20.31ZM11.06 25.56L9.67001 24.17L20.55 13.29L21.93 14.68L11.07 25.55L11.06 25.56ZM26.07 9.74001H26.05C26.05 10.25 25.87 10.74 25.48 11.13L23.56 13.05L15.94 5.45L16.12 5.25L16.82 4.55L17.87 3.5C18.26 3.12 18.76 2.92999 19.26 2.92999C19.76 2.92999 20.27 3.13 20.64 3.5L25.49 8.35001C25.88 8.73001 26.08 9.23 26.08 9.73L26.07 9.74001Z" fill="#00A6DE"/>
</svg>
