<svg width="30" height="22" viewBox="0 0 30 22" fill="none" xmlns="http://www.w3.org/2000/svg">
<path d="M29.6277 1.39004C29.6477 1.51004 29.6477 1.64004 29.6277 1.77004L26.5076 17.59V17.64C26.2176 18.98 25.3176 20.05 24.0376 20.68C22.8576 21.27 21.3576 21.51 19.8276 21.2C18.3176 20.9 17.0077 20.13 16.1477 19.13H16.1277C15.1977 18.05 14.7477 16.7 15.0177 15.32C15.2877 13.97 16.2077 12.89 17.4877 12.25C18.6777 11.66 20.1676 11.42 21.6976 11.73C22.9776 11.98 24.0876 12.56 24.9176 13.32L26.3476 6.06003L14.1976 6.50004L11.9277 18.05V18.1C11.6377 19.44 10.7276 20.5 9.47764 21.14C8.28764 21.73 6.78764 21.96 5.25764 21.66C3.74764 21.36 2.43764 20.59 1.56764 19.59C0.637639 18.51 0.187643 17.16 0.447643 15.8C0.717643 14.44 1.63764 13.36 2.91764 12.72C4.09764 12.13 5.60766 11.91 7.11766 12.2C8.39766 12.45 9.50766 13.02 10.3377 13.78L12.6976 1.77004V1.70003L12.7177 1.67003L12.7377 1.65003V1.63004V1.61004L12.7477 1.57004H12.7677V1.54003V1.51003V1.49004L12.7876 1.48003V1.46004V1.44004L12.8176 1.40003H12.8377C12.8677 1.32003 12.8977 1.28004 12.9377 1.22004L12.9577 1.20003V1.18003H12.9677L13.0076 1.14004H13.0277L13.0476 1.13004L13.0676 1.09003H13.0877V1.08004V1.06003H13.1076V1.04003H13.1277V1.02004H13.1477L13.2177 0.960043H13.2477L13.2677 0.930028H13.2876L13.3476 0.910039H13.3677V0.890035H13.3876L13.4476 0.870031H13.4677H13.5076H13.5277C13.5877 0.830031 13.6277 0.820043 13.6877 0.820043C13.7377 0.820043 13.7976 0.810043 13.8576 0.820043L28.3876 0.290029C29.0176 0.260029 29.5376 0.740031 29.6076 1.37003V1.39004H29.6277Z" fill="#63A531"/>
</svg>
