<svg width="30" height="22" viewBox="0 0 30 22" fill="none" xmlns="http://www.w3.org/2000/svg">
<path d="M29.73 1.39004C29.75 1.51004 29.75 1.64004 29.73 1.77004L26.61 17.59V17.64C26.32 18.98 25.42 20.05 24.14 20.68C22.96 21.27 21.46 21.51 19.93 21.2C18.42 20.9 17.11 20.13 16.25 19.13H16.23C15.3 18.05 14.85 16.7 15.12 15.32C15.39 13.97 16.31 12.89 17.59 12.25C18.78 11.66 20.27 11.42 21.8 11.73C23.08 11.98 24.19 12.56 25.02 13.32L26.45 6.06003L14.3 6.50004L12.03 18.05V18.1C11.74 19.44 10.83 20.5 9.58 21.14C8.39 21.73 6.88999 21.96 5.35999 21.66C3.84999 21.36 2.54002 20.59 1.67002 19.59C0.740022 18.51 0.289997 17.16 0.549997 15.8C0.819997 14.44 1.74 13.36 3.02 12.72C4.2 12.13 5.71001 11.91 7.22001 12.2C8.50001 12.45 9.61001 13.02 10.44 13.78L12.8 1.77004V1.70003L12.82 1.67003L12.84 1.65003V1.63004V1.61004L12.85 1.57004H12.87V1.54003V1.51003V1.49004L12.89 1.48003V1.46004V1.44004L12.92 1.40003H12.94C12.97 1.32003 13 1.28004 13.04 1.22004L13.06 1.20003V1.18003H13.07L13.11 1.14004H13.13L13.15 1.13004L13.17 1.09003H13.19V1.08004V1.06003H13.21V1.04003H13.23V1.02004H13.25L13.32 0.960043H13.35L13.37 0.930028H13.39L13.45 0.910039H13.47V0.890035H13.49L13.55 0.870031H13.57H13.61H13.63C13.69 0.830031 13.73 0.820043 13.79 0.820043C13.84 0.820043 13.9 0.810043 13.96 0.820043L28.49 0.290029C29.12 0.260029 29.64 0.740031 29.71 1.37003V1.39004H29.73Z" fill="#3E3A39"/>
</svg>
