<svg width="35" height="32" viewBox="0 0 35 32" fill="none" xmlns="http://www.w3.org/2000/svg">
<path d="M16.18 30.73L3.20998 17.76C1.84998 16.4 0.869997 14.8 0.409997 13.05C-0.0400031 11.39 -0.0100105 9.59998 0.58999 7.78998C1.11999 6.20998 2.02998 4.77997 3.20998 3.62997C4.39998 2.46997 5.85 1.56998 7.44 1.06998C9.3 0.479977 11.14 0.469975 12.86 0.919975C14.4 1.31998 15.84 2.08998 17.1 3.14998C18.38 2.08998 19.81 1.31998 21.35 0.919975C23.08 0.469975 24.91 0.479977 26.77 1.06998C28.36 1.56998 29.82 2.47998 31 3.63998C32.17 4.79998 33.1 6.21998 33.62 7.79998C34.22 9.59998 34.24 11.38 33.79 13.05C33.32 14.79 32.35 16.39 30.99 17.75L30.92 17.81L18 30.72C17.49 31.22 16.67 31.22 16.16 30.72L16.18 30.73ZM18.65 5.25998L17.08 6.81998L16.03 5.67998L15.98 5.62997C14.86 4.56997 13.58 3.79998 12.2 3.43998C10.94 3.10998 9.59 3.11998 8.23 3.54998C7.04 3.92998 5.94 4.60997 5.04 5.48997C4.14 6.36997 3.44999 7.43998 3.05999 8.61998C2.62999 9.90998 2.60999 11.19 2.92999 12.38C3.26999 13.66 4.00998 14.87 5.04998 15.9L17.1 27.95L29.09 15.96L29.15 15.89C30.19 14.85 30.93 13.65 31.27 12.37C31.59 11.19 31.57 9.90998 31.13 8.60998C30.74 7.43998 30.05 6.35997 29.15 5.48997C28.25 4.60997 27.15 3.92998 25.96 3.54998C24.6 3.11998 23.26 3.10998 21.99 3.43998C20.78 3.75998 19.64 4.38998 18.63 5.24998L18.65 5.25998Z" fill="#3E3A39"/>
</svg>
