<svg width="35" height="32" viewBox="0 0 35 32" fill="none" xmlns="http://www.w3.org/2000/svg">
<path d="M16.59 30.73L3.62002 17.76C2.26002 16.4 1.28003 14.8 0.820031 13.05C0.370031 11.39 0.400024 9.59998 1.00002 7.78998C1.53002 6.20998 2.44002 4.77997 3.62002 3.62997C4.81002 2.46997 6.26003 1.56998 7.85003 1.06998C9.71003 0.479977 11.55 0.469975 13.27 0.919975C14.81 1.31998 16.25 2.08998 17.51 3.14998C18.79 2.08998 20.22 1.31998 21.76 0.919975C23.49 0.469975 25.32 0.479977 27.18 1.06998C28.77 1.56998 30.23 2.47998 31.41 3.63998C32.58 4.79998 33.51 6.21998 34.03 7.79998C34.63 9.59998 34.65 11.38 34.2 13.05C33.73 14.79 32.76 16.39 31.4 17.75L31.33 17.81L18.41 30.72C17.9 31.22 17.08 31.22 16.57 30.72L16.59 30.73ZM19.06 5.25998L17.49 6.81998L16.44 5.67998L16.39 5.62997C15.27 4.56997 13.99 3.79998 12.61 3.43998C11.35 3.10998 10 3.11998 8.64004 3.54998C7.45004 3.92998 6.35004 4.60997 5.45004 5.48997C4.55004 6.36997 3.86002 7.43998 3.47002 8.61998C3.04002 9.90998 3.02002 11.19 3.34002 12.38C3.68002 13.66 4.42002 14.87 5.46002 15.9L17.51 27.95L29.5 15.96L29.56 15.89C30.6 14.85 31.34 13.65 31.68 12.37C32 11.19 31.98 9.90998 31.54 8.60998C31.15 7.43998 30.46 6.35997 29.56 5.48997C28.66 4.60997 27.56 3.92998 26.37 3.54998C25.01 3.11998 23.67 3.10998 22.4 3.43998C21.19 3.75998 20.05 4.38998 19.04 5.24998L19.06 5.25998Z" fill="#00A6DE"/>
</svg>
