<svg width="27" height="31" viewBox="0 0 27 31" fill="none" xmlns="http://www.w3.org/2000/svg">
<path d="M6.89999 16.99C6.28999 16.99 5.76999 17.49 5.76999 18.12C5.76999 18.75 6.28999 19.26 6.89999 19.26C7.50999 19.26 8.04001 18.74 8.04001 18.12C8.04001 17.5 7.52999 16.99 6.89999 16.99ZM6.89999 12.23C6.28999 12.23 5.76999 12.74 5.76999 13.36C5.76999 13.98 6.28999 14.49 6.89999 14.49C7.50999 14.49 8.04001 13.98 8.04001 13.36C8.04001 12.74 7.52999 12.23 6.89999 12.23ZM6.89999 21.75C6.28999 21.75 5.76999 22.25 5.76999 22.89C5.76999 23.53 6.28999 23.99 6.89999 23.99C7.50999 23.99 8.04001 23.5 8.04001 22.89C8.04001 22.28 7.52999 21.75 6.89999 21.75ZM20.07 22.2H10.27C9.90999 22.2 9.60999 22.5 9.60999 22.89C9.60999 23.28 9.90999 23.55 10.27 23.55H20.07C20.44 23.55 20.75 23.25 20.75 22.89C20.75 22.53 20.44 22.2 20.07 22.2ZM20.07 12.67H10.27C9.90999 12.67 9.60999 12.97 9.60999 13.35C9.60999 13.73 9.90999 14.03 10.27 14.03H20.07C20.44 14.03 20.75 13.72 20.75 13.35C20.75 12.98 20.44 12.67 20.07 12.67ZM25.22 5.09003H22.12V4.47003C22.12 4.09003 21.82 3.79004 21.44 3.79004H17.84C17.63 2.99004 17.23 2.26004 16.65 1.70004C15.84 0.900043 14.74 0.400024 13.51 0.400024C12.28 0.400024 11.17 0.900043 10.37 1.70004C9.8 2.26004 9.39001 2.99004 9.20001 3.79004H5.57001C5.20001 3.79004 4.91 4.09003 4.91 4.47003V5.09003H1.79999C1.17999 5.09003 0.679993 5.59003 0.679993 6.22003V29.31C0.679993 29.93 1.17999 30.44 1.79999 30.44H25.21C25.83 30.44 26.34 29.94 26.34 29.31V6.22003C26.34 5.59003 25.83 5.09003 25.21 5.09003H25.22ZM11.33 2.67004C11.89 2.11004 12.66 1.77002 13.51 1.77002C14.36 1.77002 15.14 2.11004 15.7 2.67004C16 2.99004 16.26 3.37002 16.41 3.80002H10.6C10.76 3.38002 11 2.99004 11.33 2.67004ZM6.26001 5.15002H20.76V7.28003H6.26001V5.15002ZM24.09 28.18H2.94V7.36002H4.92001V7.97003C4.92001 8.35003 5.21999 8.64005 5.57999 8.64005H21.44C21.82 8.64005 22.12 8.34003 22.12 7.97003V7.36002H24.09V28.18ZM20.07 17.44H10.27C9.90999 17.44 9.60999 17.74 9.60999 18.12C9.60999 18.5 9.90999 18.79 10.27 18.79H20.07C20.44 18.79 20.75 18.49 20.75 18.12C20.75 17.75 20.44 17.44 20.07 17.44Z" fill="#00A6DE"/>
</svg>
