<svg width="28" height="29" viewBox="0 0 28 29" fill="none" xmlns="http://www.w3.org/2000/svg">
<path d="M27.96 9.74001C27.96 8.64001 27.53 7.54 26.71 6.72L21.87 1.88C21.03 1.04 19.93 0.619995 18.84 0.619995C17.75 0.619995 16.64 1.04 15.83 1.88C10.74 6.95001 5.65998 12.05 0.569977 17.13L0.549957 17.15L0.529968 17.17L0.509979 17.19V17.21H0.48996V17.23V17.25L0.469971 17.27V17.29H0.449982L0.429962 17.31L0.409973 17.33V17.35H0.389984V17.37L0.369965 17.39V17.41L0.349976 17.43V17.46L0.329956 17.48V17.5V17.52H0.309967V17.54V17.56L0.289978 17.58V17.6V17.62L0.269958 17.64V17.66L0.249969 17.69V17.75L0.22998 17.77V17.8V17.9V27.22C0.22998 27.86 0.739974 28.37 1.37997 28.37H10.76H10.79H10.86L10.89 28.35H10.92H10.94H10.97L11.02 28.32H11.05L11.08 28.3L11.1 28.28L11.12 28.26L11.14 28.24H11.16L11.18 28.22L11.21 28.2L11.23 28.18H11.26L11.28 28.16L11.3 28.14L11.33 28.12L11.35 28.1L11.38 28.08L11.4 28.05L11.42 28.03C16.51 22.93 21.59 17.86 26.68 12.78C27.51 11.94 27.93 10.85 27.93 9.75999L27.96 9.74001ZM13.9 7.08L15.28 8.46001L4.41998 19.33L3.03998 17.96L13.9 7.08ZM2.54996 26.04V20.73L7.84998 26.04H2.54996ZM5.39996 20.31L16.26 9.45L19.15 12.34L8.26996 23.2L5.39996 20.31ZM10.65 25.56L9.25998 24.17L20.14 13.29L21.52 14.68L10.66 25.55L10.65 25.56ZM25.66 9.74001H25.64C25.64 10.25 25.46 10.74 25.07 11.13L23.15 13.05L15.53 5.45L15.71 5.25L16.41 4.55L17.46 3.5C17.85 3.12 18.35 2.92999 18.85 2.92999C19.35 2.92999 19.86 3.13 20.23 3.5L25.08 8.35001C25.47 8.73001 25.67 9.23 25.67 9.73L25.66 9.74001Z" fill="#3E3A39"/>
</svg>
