<svg width="28" height="29" viewBox="0 0 28 29" fill="none" xmlns="http://www.w3.org/2000/svg">
<path d="M27.8577 9.74001C27.8577 8.64001 27.4277 7.54 26.6077 6.72L21.7677 1.88C20.9277 1.04 19.8277 0.619995 18.7377 0.619995C17.6477 0.619995 16.5377 1.04 15.7277 1.88C10.6377 6.95001 5.55768 12.05 0.467682 17.13L0.447662 17.15L0.427673 17.17L0.407684 17.19V17.21H0.387665V17.23V17.25L0.367676 17.27V17.29H0.347656L0.327667 17.31L0.307678 17.33V17.35H0.287659V17.37L0.26767 17.39V17.41L0.247681 17.43V17.46L0.227661 17.48V17.5V17.52H0.207672V17.54V17.56L0.187683 17.58V17.6V17.62L0.167664 17.64V17.66L0.147675 17.69V17.75L0.127686 17.77V17.8V17.9V27.22C0.127686 27.86 0.637679 28.37 1.27768 28.37H10.6577H10.6877H10.7577L10.7877 28.35H10.8177H10.8377H10.8677L10.9177 28.32H10.9477L10.9777 28.3L10.9977 28.28L11.0177 28.26L11.0377 28.24H11.0577L11.0777 28.22L11.1077 28.2L11.1277 28.18H11.1577L11.1777 28.16L11.1977 28.14L11.2277 28.12L11.2477 28.1L11.2777 28.08L11.2977 28.05L11.3177 28.03C16.4077 22.93 21.4877 17.86 26.5777 12.78C27.4077 11.94 27.8277 10.85 27.8277 9.75999L27.8577 9.74001ZM13.7977 7.08L15.1777 8.46001L4.31766 19.33L2.93768 17.96L13.7977 7.08ZM2.44766 26.04V20.73L7.74768 26.04H2.44766ZM5.29767 20.31L16.1577 9.45L19.0477 12.34L8.16766 23.2L5.29767 20.31ZM10.5477 25.56L9.15768 24.17L20.0377 13.29L21.4177 14.68L10.5577 25.55L10.5477 25.56ZM25.5577 9.74001H25.5377C25.5377 10.25 25.3577 10.74 24.9677 11.13L23.0477 13.05L15.4277 5.45L15.6077 5.25L16.3077 4.55L17.3577 3.5C17.7477 3.12 18.2477 2.92999 18.7477 2.92999C19.2477 2.92999 19.7577 3.13 20.1277 3.5L24.9777 8.35001C25.3677 8.73001 25.5677 9.23 25.5677 9.73L25.5577 9.74001Z" fill="#63A531"/>
</svg>
