<svg width="29" height="26" viewBox="0 0 29 26" fill="none" xmlns="http://www.w3.org/2000/svg">
<path d="M27.32 2.51996C26.38 1.56996 25.07 0.97998 23.62 0.97998H5.41C3.99 0.97998 2.67999 1.56997 1.73999 2.49997L1.72 2.51996C0.770001 3.45996 0.190002 4.77997 0.190002 6.21997V19.96C0.190002 21.38 0.770002 22.69 1.69 23.63L1.72 23.65C2.66 24.6 3.98 25.19 5.41 25.19H23.62C25.04 25.19 26.31 24.63 27.26 23.72L27.32 23.66C28.28 22.71 28.86 21.4 28.86 19.96V6.21997C28.86 4.77997 28.28 3.45996 27.32 2.51996ZM26.65 19.95C26.65 20.79 26.3 21.54 25.77 22.09L25.72 22.14C25.18 22.66 24.44 22.98 23.62 22.98H5.41C4.59 22.98 3.81999 22.64 3.26999 22.09C2.71999 21.54 2.38 20.79 2.38 19.95V6.20996C2.38 5.37996 2.71999 4.60996 3.26999 4.07996C3.81999 3.51996 4.58 3.17996 5.41 3.17996H23.62C24.46 3.17996 25.21 3.52996 25.77 4.07996C26.3 4.60996 26.65 5.37996 26.65 6.20996V19.95ZM16.25 9.39996L10.89 6.31998C10.8 6.23998 10.65 6.19998 10.51 6.19998C10.15 6.19998 9.87 6.48996 9.87 6.86996V19.31C9.87 19.42 9.90001 19.52 9.95001 19.62C10.13 19.94 10.54 20.06 10.86 19.87L16.25 16.76L21.57 13.68C21.7 13.62 21.79 13.52 21.87 13.4C22.04 13.1 21.93 12.7 21.62 12.51L16.25 9.39996Z" fill="#00A6DE"/>
</svg>
