<svg width="30" height="26" viewBox="0 0 30 26" fill="none" xmlns="http://www.w3.org/2000/svg">
<path d="M27.91 2.51996C26.97 1.56996 25.66 0.97998 24.21 0.97998H6.00003C4.58003 0.97998 3.27002 1.56997 2.33002 2.49997L2.31003 2.51996C1.36003 3.45996 0.780029 4.77997 0.780029 6.21997V19.96C0.780029 21.38 1.36003 22.69 2.28003 23.63L2.31003 23.65C3.25003 24.6 4.57003 25.19 6.00003 25.19H24.21C25.63 25.19 26.9 24.63 27.85 23.72L27.91 23.66C28.87 22.71 29.45 21.4 29.45 19.96V6.21997C29.45 4.77997 28.87 3.45996 27.91 2.51996ZM27.23 19.95C27.23 20.79 26.88 21.54 26.35 22.09L26.3 22.14C25.76 22.66 25.02 22.98 24.2 22.98H5.99002C5.17002 22.98 4.40004 22.64 3.85004 22.09C3.30004 21.54 2.96002 20.79 2.96002 19.95V6.20996C2.96002 5.37996 3.30004 4.60996 3.85004 4.07996C4.40004 3.51996 5.16002 3.17996 5.99002 3.17996H24.2C25.04 3.17996 25.79 3.52996 26.35 4.07996C26.88 4.60996 27.23 5.37996 27.23 6.20996V19.95ZM16.84 9.39996L11.48 6.31998C11.39 6.23998 11.24 6.19998 11.1 6.19998C10.74 6.19998 10.46 6.48996 10.46 6.86996V19.31C10.46 19.42 10.49 19.52 10.54 19.62C10.72 19.94 11.13 20.06 11.45 19.87L16.84 16.76L22.16 13.68C22.29 13.62 22.38 13.52 22.46 13.4C22.63 13.1 22.52 12.7 22.21 12.51L16.84 9.39996Z" fill="#3E3A39"/>
</svg>
