<svg xmlns="http://www.w3.org/2000/svg" width="28" height="28" fill="none"><path fill="#1C1C1E" d="M11.583 20.72c.773 0 1.424-.588 1.424-1.66v-5.063c.114.422.43.782.958 1.09l9.009 5.29c.378.23.712.344 1.098.344.774 0 1.424-.59 1.424-1.661V8.223c0-1.073-.65-1.661-1.424-1.661-.386 0-.72.114-1.098.342l-9.01 5.291c-.527.308-.843.66-.957 1.081V8.223c0-1.073-.642-1.661-1.415-1.661-.396 0-.72.114-1.108.342l-9.008 5.291c-.668.396-.994.844-.994 1.442 0 .589.334 1.063.994 1.45l9.008 5.29c.378.23.712.344 1.099.344Zm-.518-2.038a.403.403 0 0 1-.194-.062l-8.068-4.764c-.106-.061-.158-.114-.158-.22 0-.105.052-.149.158-.21l8.068-4.764c.08-.044.14-.07.194-.07.114 0 .202.079.202.228v9.642c0 .15-.088.22-.202.22Zm12.489 0a.355.355 0 0 1-.194-.062l-8.077-4.764c-.096-.061-.158-.114-.158-.22 0-.105.053-.149.158-.21l8.077-4.764c.08-.044.132-.07.185-.07.114 0 .21.079.21.228v9.642c0 .15-.096.22-.201.22Z"/></svg>