<svg xmlns="http://www.w3.org/2000/svg" width="28" height="28" fill="none"><path fill="#1C1C1E" d="M9.87 22.232h8.26c1.363 0 2.031-.676 2.031-2.153V13.83c0-1.31-.527-1.986-1.6-2.127V9.655c0-3.34-2.223-4.948-4.561-4.948S9.438 6.315 9.438 9.655v2.048c-1.072.14-1.6.818-1.6 2.127v6.25c0 1.476.669 2.152 2.031 2.152Zm1.256-12.735c0-2.048 1.3-3.173 2.874-3.173 1.565 0 2.874 1.125 2.874 3.173v2.18h-5.748v-2.18Zm-.976 11.145c-.386 0-.58-.185-.58-.642v-6.09c0-.467.194-.634.58-.634h7.708c.387 0 .572.167.572.633V20c0 .457-.185.642-.572.642H10.15Z"/></svg>