<svg xmlns="http://www.w3.org/2000/svg" width="28" height="28" fill="none"><path fill="#1C1C1E" d="M13.991 23.032c5.001 0 9.097-4.096 9.097-9.097C23.088 8.944 19 4.848 14 4.848c-.545 0-.852.325-.852.852v3.235c0 .448.316.8.764.8s.765-.352.765-.8v-2.26a7.255 7.255 0 0 1 6.583 7.26 7.25 7.25 0 0 1-7.269 7.278 7.25 7.25 0 0 1-7.268-7.278 7.26 7.26 0 0 1 1.634-4.579c.334-.457.387-.94.01-1.318-.379-.378-.985-.343-1.38.176-1.293 1.564-2.084 3.56-2.084 5.721 0 5.001 4.096 9.097 9.088 9.097Zm1.415-7.743c.721-.765.571-1.802-.29-2.39L10.651 9.83c-.527-.352-1.037.167-.685.694l3.067 4.456c.59.87 1.626 1.029 2.373.308Z"/></svg>