<svg xmlns="http://www.w3.org/2000/svg" width="100" height="100" fill="none"><path fill="#D85E2D" d="M38.09 76.576h24.786c4.087 0 6.09-2.03 6.09-6.46V51.37c0-3.929-1.581-5.959-4.798-6.38v-6.144c0-10.02-6.67-14.845-13.685-14.845C43.47 24 36.8 28.825 36.8 38.845v6.143c-3.218.422-4.8 2.452-4.8 6.382v18.747c0 4.43 2.004 6.46 6.09 6.46Zm3.771-38.206c0-6.143 3.903-9.518 8.622-9.518 4.694 0 8.623 3.375 8.623 9.518v6.54H41.86v-6.54Zm-2.926 33.434c-1.16 0-1.74-.554-1.74-1.925V51.606c0-1.397.58-1.898 1.74-1.898h23.124c1.16 0 1.714.501 1.714 1.898V69.88c0 1.371-.554 1.925-1.714 1.925H38.935Z"/></svg>