<svg xmlns="http://www.w3.org/2000/svg" width="28" height="28" fill="none"><path fill="#1C1C1E" d="M18.509 15.799V6.975c0-.66-.492-1.187-1.16-1.187-.457 0-.774.202-1.266.65L12.418 9.69l1.125 1.134 3.015-2.742a.23.23 0 0 1 .149-.061c.062 0 .114.043.114.123v5.967L18.51 15.8Zm2.927 6.583c.272.263.72.272.984 0a.697.697 0 0 0 0-.993L7.02 5.999a.698.698 0 0 0-.993 0 .695.695 0 0 0 0 .984l15.408 15.399ZM9.544 17.416h2.496c.07 0 .14.018.193.07l3.859 3.446c.457.413.808.606 1.274.606.413 0 .765-.21.976-.554l-1.486-1.476-3.832-3.463c-.184-.167-.307-.202-.544-.202H9.701c-.29 0-.43-.14-.43-.43v-3.499L7.97 10.622c-.246.308-.387.765-.387 1.362v3.375c0 1.38.668 2.057 1.96 2.057Z"/></svg>