<?xml version="1.0" encoding="UTF-8"?>
<svg id="_圖層_1" data-name="圖層 1" xmlns="http://www.w3.org/2000/svg" viewBox="0 0 395.96 148.31">
  <defs>
    <style>
      .cls-1, .cls-2 {
        stroke-width: 0px;
      }

      .cls-2 {
        fill: #fff;
      }

      .cls-3 {
        font-family: NotoSansTC-Medium-90ms-RKSJ-H, 'Noto Sans TC';
        font-size: 103.81px;
        font-weight: 500;
        letter-spacing: .03em;
      }
    </style>
  </defs>
  <g>
    <g>
      <path class="cls-1" d="m72.46,28.44c-5.81-.67-11.25-1.16-16.31-1.5-5.06-.33-9.54-.5-13.44-.5-6.48,0-10.64,1.15-12.51,3.44-1.87,2.29-4.59,9.68-8.15,22.17,17.42,1.55,30.7,5.65,39.83,12.3,9.13,6.65,13.69,15.48,13.69,26.49,0,9.68-3.36,18.68-10.08,26.99-6.72,8.31-16.18,15.13-28.38,20.45-5.56,2.44-11.43,4.45-17.61,6.04-6.18,1.59-10.52,2.38-13.01,2.38-.5,0-.87-.3-1.12-.89-.25-.59-.38-1.44-.38-2.55,0-.52,2.91-1.42,8.71-2.72,5.81-1.29,11.12-2.93,15.93-4.93,9.37-3.84,16.82-9.42,22.34-16.74,5.52-7.32,8.28-15.22,8.28-23.72,0-9.38-3.17-16.57-9.52-21.56-6.35-4.99-15.58-7.48-27.7-7.48-.58,0-1.7.05-3.36.16-1.66.11-3.86.28-6.6.5l-1.74-1.55c1.16-3.03,3.69-10.46,7.59-22.27,3.9-11.83,7.8-21.28,11.7-28.38h12.82c4.23,0,8.79.15,13.69.44,4.89.3,7.63.45,8.21.45,5.06,0,8.76-1.5,11.08-4.49,2.32-2.99,3.9-4.49,4.73-4.49.67,0,1.39.18,2.18.55.78.37,1.18.78,1.18,1.22,0,.22-1.45,2.44-4.35,6.65-2.91,4.21-5.48,8.72-7.72,13.52Z"/>
      <path class="cls-1" d="m168.4,19.94v13.09h-5.21v-13.09h-12.38v-5.21h12.38V1.64h5.21v13.09h12.38v5.21h-12.38Z"/>
      <path class="cls-1" d="m122.21,13.99c-26.29,0-47.61,21.32-47.61,47.61s21.32,47.61,47.61,47.61,47.61-21.31,47.61-47.61-21.31-47.61-47.61-47.61Z"/>
    </g>
    <g>
      <path class="cls-2" d="m159.84,52.54l-1.97,1.95c-1.19-.65-2.29-.97-3.29-.97-1.12,0-2.02.25-2.68.75-.67.5-1.01,1.15-1.01,1.96,0,.73.67,1.85,2.01,3.36.22.26.93.97,2.12,2.15,1.65,1.57,2.48,3.1,2.48,4.6,0,1.79-.8,3.23-2.41,4.33-1.61,1.1-3.69,1.65-6.25,1.65s-4.92-.66-6.72-1.97l1.86-2.21c1.65,1.06,3.18,1.59,4.56,1.59,1.19,0,2.18-.3,2.96-.88.78-.59,1.17-1.34,1.17-2.24,0-.96-.55-2.05-1.64-3.27-.03-.02-.85-.85-2.48-2.5-1.63-1.65-2.45-3.15-2.45-4.51,0-1.55.75-2.83,2.27-3.83,1.51-1,3.42-1.5,5.73-1.5,2.12,0,4.03.52,5.73,1.56Z"/>
      <path class="cls-2" d="m102.1,52.23c-1.39-.9-3.58-1.35-6.56-1.35h-6.04l-4.93,21.41c1.55.15,3.52-.98,4.87-2.97.63-.93,1.04-1.91,1.23-2.83h.02l2.98-12.94h1.1c1.44,0,2.47.14,3.07.43,1.16.55,1.75,1.53,1.75,2.94s-.55,2.56-1.65,3.4c-1.1.84-2.57,1.25-4.42,1.23l-.57,2.48c.23.02.49.03.8.03,3.01,0,5.62-.72,7.82-2.17,2-1.31,3-3.05,3-5.24,0-1.88-.83-3.35-2.47-4.41Z"/>
      <path class="cls-2" d="m114.63,69.43h-.71c-.13,0-.39,0-.39,0h-3.36l4.13-18.09h-4.6l-4.75,20.63h13.66c-.35-1.37-1.97-2.42-3.98-2.53Z"/>
      <path class="cls-2" d="m142.79,51.33c-2.15,0-3.95,1.44-4.4,3.36l-1.79,7.86c-.39,1.77-.9,3.17-1.53,4.21-1.05,1.75-2.73,2.62-5.04,2.62-1.19,0-2.14-.29-2.85-.87-.71-.58-1.06-1.36-1.06-2.34,0-.77.21-2.05.62-3.86l2.52-10.99h-4.6l-2.45,10.7c-.51,2.24-.77,3.85-.77,4.83,0,1.69.7,3.02,2.12,3.99,1.41.97,3.35,1.46,5.81,1.46,3.26,0,5.89-.89,7.89-2.68.88-.78,1.55-1.64,2.01-2.58.46-.93.91-2.35,1.35-4.26l2.66-11.43c-.16-.02-.32-.03-.49-.03Z"/>
    </g>
  </g>
  <text class="cls-3" transform="translate(184.7 100.87) skewX(-5)"><tspan x="0" y="0">週報</tspan></text>
</svg>