<?xml version="1.0" encoding="utf-8"?>
<!-- Generator: Adobe Illustrator 16.0.3, SVG Export Plug-In . SVG Version: 6.00 Build 0)  -->
<!DOCTYPE svg PUBLIC "-//W3C//DTD SVG 1.1//EN" "http://www.w3.org/Graphics/SVG/1.1/DTD/svg11.dtd">
<svg version="1.1" id="圖層_1" xmlns="http://www.w3.org/2000/svg" xmlns:xlink="http://www.w3.org/1999/xlink" x="0px" y="0px"
	 width="853.228px" height="150.236px" viewBox="0 0 853.228 150.236" enable-background="new 0 0 853.228 150.236"
	 xml:space="preserve">
<rect x="-105.226" y="376.005" fill="#FCEE21" width="1040" height="340"/>
<path d="M290.844,566.287c0,1.392,0.487,2.356,1.46,2.877c0.98,0.523,2.791,1.061,5.441,1.612c0.699,0.146,1.045,0.7,1.045,1.688
	c0,0.414-0.067,0.974-0.21,1.67c-2.158-0.146-4.319-0.27-6.485-0.375c-2.161-0.093-4.221-0.154-6.166-0.154
	c-1.879,0-3.959,0.062-6.226,0.154c-2.266,0.105-4.41,0.229-6.432,0.375c-0.143-0.696-0.211-1.256-0.211-1.67
	c0-0.987,0.347-1.542,1.048-1.688c2.646-0.484,4.463-1.005,5.435-1.568c0.978-0.556,1.469-1.529,1.469-2.921v-53.245
	c0-1.388-0.491-2.388-1.469-2.978c-0.972-0.599-2.789-1.093-5.435-1.525c-0.418-0.057-0.701-0.269-0.837-0.625
	c-0.143-0.348-0.211-0.727-0.211-1.146c0-0.422,0.068-0.973,0.211-1.669c2.088,0.132,4.274,0.259,6.536,0.347
	c2.267,0.111,4.309,0.177,6.122,0.177c1.747,0,3.747-0.066,6.009-0.177c2.272-0.088,4.484-0.215,6.642-0.347
	c0.143,0.696,0.21,1.247,0.21,1.669c0,1.045-0.346,1.639-1.045,1.771c-2.65,0.432-4.461,0.926-5.441,1.525
	c-0.973,0.59-1.46,1.59-1.46,2.978V566.287z"/>
<path d="M363.39,537.785c-0.101,1.983,0.037,0.891,0.037,2.349c0,1.189,0,1.189-0.207,3.925c-0.041,0.569-1.504,0.379-1.989,0.379
	c-0.564,0-1.011-0.084-1.363-0.264c-0.351-0.163-0.58,0.105-1.207-1.283c-0.624-1.401-18.239-0.77-18.239-0.77v24.268
	c0,1.4,0.893,2.365,2.668,2.89c1.774,0.516,3.959,0.944,6.532,1.3c0.837,0.065,1.255,0.665,1.255,1.784
	c0,0.485-0.07,1.075-0.202,1.771c-1.47-0.078-3.032-0.146-4.708-0.212c-1.394-0.066-3.02-0.132-4.862-0.212
	c-1.85-0.07-3.784-0.105-5.811-0.105c-1.877,0-4.007,0.062-6.382,0.154c-2.372,0.105-4.562,0.229-6.584,0.375
	c-0.141-0.696-0.207-1.256-0.207-1.684c0-1.044,0.348-1.595,1.044-1.674c2.302-0.554,4.111-1.089,5.439-1.612
	c1.326-0.521,1.989-1.485,1.989-2.873v-53.244c0-1.393-0.544-2.366-1.625-2.939c-1.085-0.546-3.016-1.071-5.803-1.569
	c-0.489-0.123-0.787-0.316-0.886-0.564c-0.108-0.255-0.158-0.648-0.158-1.207c0-0.422,0.066-0.986,0.207-1.67
	c2.298,0.133,4.529,0.265,6.695,0.357c2.16,0.106,4.212,0.168,6.165,0.168h20.71c2.725,0,5.3-0.115,7.75-0.326
	c2.438-0.199,4.11-0.3,5.013-0.3c0.835,0,1.437,0.564,1.785,1.718c0.341,1.155-0.817,9.512-0.115,10.839
	c-0.209,0.282-0.482,0.467-0.846,0.573c-0.341,0.109-0.689,0.158-1.037,0.158c-0.832,0-1.403-0.309-1.679-0.934
	c-0.833-1.894-0.026-0.78-0.83-2.097c-0.8-1.349-0.19-2.106-1.196-2.934c-1.014-0.846-2.217-1.45-3.611-1.847
	c-1.388-0.374-3.137-0.563-5.234-0.563h-15.476v27.813h15.586"/>
<path d="M242.869,537.785c-0.106,1.983,0.038,0.891,0.038,2.349c0,1.189,0,1.189-0.21,3.925c-0.049,0.569-1.511,0.379-1.994,0.379
	c-0.563,0-1.011-0.084-1.363-0.264c-0.346-0.163-0.584,0.105-1.207-1.283c-0.626-1.401-18.236-0.77-18.236-0.77v24.268
	c0,1.4,0.886,2.365,2.67,2.89c1.771,0.516,3.956,0.944,6.531,1.3c0.837,0.065,1.256,0.665,1.256,1.784
	c0,0.485-0.066,1.075-0.209,1.771c-1.463-0.078-3.029-0.146-4.703-0.212c-1.404-0.066-3.027-0.132-4.869-0.212
	c-1.852-0.07-3.78-0.105-5.807-0.105c-1.885,0-4.007,0.062-6.377,0.154c-2.371,0.105-4.567,0.229-6.589,0.375
	c-0.148-0.696-0.207-1.256-0.207-1.684c0-1.044,0.341-1.595,1.042-1.674c2.302-0.554,4.112-1.089,5.443-1.612
	c1.317-0.521,1.985-1.485,1.985-2.873v-53.244c0-1.393-0.542-2.366-1.626-2.939c-1.081-0.546-3.015-1.071-5.802-1.569
	c-0.482-0.123-0.787-0.316-0.892-0.564c-0.097-0.255-0.15-0.648-0.15-1.207c0-0.422,0.059-0.986,0.207-1.67
	c2.3,0.133,4.531,0.265,6.694,0.357c2.157,0.106,4.215,0.168,6.175,0.168h20.705c2.724,0,5.301-0.115,7.744-0.326
	c2.445-0.199,4.115-0.3,5.02-0.3c0.835,0,1.426,0.564,1.778,1.718c0.346,1.155-0.811,9.512-0.11,10.839
	c-0.214,0.282-0.491,0.467-0.842,0.573c-0.345,0.109-0.698,0.158-1.046,0.158c-0.835,0-1.395-0.309-1.677-0.934
	c-0.834-1.894-0.023-0.78-0.828-2.097c-0.804-1.349-0.19-2.106-1.196-2.934c-1.015-0.846-2.219-1.45-3.608-1.847
	c-1.395-0.374-3.139-0.563-5.235-0.563h-15.477v27.813h15.583"/>
<path d="M428.912,509.905v55.854c0,1.607,0.665,2.739,1.989,3.405c1.324,0.66,3.558,1.167,6.696,1.52c0.763,0,1.144,0.56,1.144,1.67
	c0,0.493-0.065,1.084-0.209,1.781c-2.229-0.146-4.582-0.271-7.055-0.375c-2.478-0.094-4.969-0.155-7.479-0.155
	c-2.445,0-4.932,0.062-7.483,0.155c-2.543,0.104-4.932,0.229-7.164,0.375c-0.136-0.697-0.209-1.288-0.209-1.781
	c0-0.979,0.348-1.538,1.048-1.67c3.135-0.427,5.406-0.951,6.801-1.572c1.396-0.622,2.09-1.745,2.09-3.353v-55.854h-10.774
	c-2.093,0-3.855,0.203-5.285,0.625c-1.43,0.415-2.668,1.058-3.712,1.882c-1.044,0.846-2.469,4.261-3.307,6.014
	c-0.14,0.357-0.363,0.594-0.682,0.736c-0.309,0.137-0.608,0.198-0.881,0.198c-0.774,0-1.432-0.198-1.99-0.621
	c0.694-2.521,1.265-11.997,1.58-12.698c0.308-0.705,0.817-1.044,1.515-1.044c0.492,0,1.186,0.035,2.094,0.101
	c0.9,0.075,1.865,0.133,2.872,0.207c1.018,0.066,2.046,0.137,3.086,0.207c1.044,0.066,2.02,0.111,2.928,0.111h34.938
	c0.835,0,1.782-0.045,2.826-0.111c1.047-0.07,2.089-0.141,3.138-0.207c1.044-0.074,2.004-0.132,2.877-0.207
	c0.872-0.066,1.586-0.101,2.141-0.101c0.701,0,1.207,0.361,1.521,1.093c0.313,0.727-0.233,9.697,0.541,12.085
	c-0.352,0.127-0.683,0.264-0.995,0.418c-0.313,0.137-0.679,0.199-1.102,0.199c-0.277,0-0.591-0.062-0.938-0.199
	c-0.348-0.154-0.595-0.378-0.735-0.74c-0.767-1.749-1.098-4.595-2.106-5.441c-1.013-0.824-2.229-1.467-3.658-1.882
	c-1.431-0.422-3.197-0.625-5.281-0.625H428.912z"/>
<path d="M491.886,513.148l12.971,23.421l12.239-21.742c0.696-1.27,1.044-2.23,1.044-2.939c0-0.899-0.472-1.6-1.41-2.094
	c-0.938-0.479-2.428-0.898-4.449-1.259c-0.767-0.053-1.15-0.644-1.15-1.767c0-0.352,0.035-0.661,0.105-0.947
	c0-0.198,0.036-0.45,0.106-0.723c1.533,0.133,3.331,0.26,5.388,0.348c2.049,0.111,3.952,0.177,5.697,0.177
	c1.604,0,3.296-0.066,5.075-0.177c1.779-0.088,3.538-0.215,5.278-0.348c0,0.273,0.035,0.525,0.105,0.723
	c0,0.22,0.022,0.392,0.058,0.528c0.03,0.137,0.047,0.274,0.047,0.419c0,0.978-0.378,1.568-1.148,1.767
	c-2.445,0.361-4.163,0.793-5.177,1.308c-1.009,0.542-1.859,1.414-2.564,2.674l-16.949,30.027v23.429c0,1.524,0.582,2.6,1.728,3.19
	c1.149,0.595,3.089,1.093,5.807,1.52c0.771,0.132,1.15,0.692,1.15,1.67c0,0.132-0.018,0.313-0.045,0.533
	c-0.044,0.199-0.062,0.379-0.062,0.511c-0.071,0.273-0.105,0.493-0.105,0.621c-1.665-0.062-3.305-0.128-4.917-0.202
	c-1.392-0.062-2.873-0.146-4.441-0.212c-1.568-0.074-2.938-0.097-4.132-0.097c-1.181,0-2.547,0.022-4.071,0.097
	c-1.546,0.066-3.005,0.15-4.401,0.212c-1.6,0.074-3.212,0.141-4.812,0.202c-0.07-0.128-0.101-0.348-0.101-0.621
	c-0.075-0.132-0.106-0.312-0.106-0.511v-0.533c0-0.978,0.344-1.538,1.044-1.67c2.719-0.56,4.675-1.105,5.855-1.621
	c1.189-0.524,1.78-1.564,1.78-3.089v-22.487l-17.469-31.378c-0.697-1.053-1.564-1.833-2.617-2.353
	c-1.044-0.529-2.463-0.929-4.287-1.22c-0.348-0.053-0.612-0.265-0.784-0.626c-0.177-0.344-0.257-0.758-0.257-1.242v-0.476
	c0-0.163,0.032-0.331,0.098-0.476c0-0.203,0.035-0.419,0.106-0.617c1.537,0.133,3.489,0.26,5.859,0.348
	c2.37,0.111,4.671,0.177,6.904,0.177c0.837,0,1.814-0.023,2.93-0.066"/>
<path d="M663.819,566.079c0,1.186,0.476,2.014,1.436,2.508c0.952,0.489,2.256,0.739,3.913,0.739h10.423
	c1.86,0,3.446-0.264,4.786-0.788c1.33-0.529,2.484-1.273,3.437-2.247c0.96-0.978,1.802-2.176,2.537-3.604
	c0.731-1.44,1.384-3.053,1.956-4.877c0.194-0.555,0.573-0.837,1.146-0.837c0.317,0,0.657,0.093,1.01,0.265
	c0.356,0.172,0.718,0.365,1.097,0.572c-0.44,2.093-0.872,4.318-1.286,6.645c-0.419,2.335-0.775,4.974-1.102,7.908
	c-0.07,0.749-0.256,1.242-0.573,1.454c-0.326,0.207-0.705,0.317-1.146,0.317c-1.092,0-2.44-0.093-4.071-0.27
	c-1.622-0.158-3.035-0.26-4.247-0.26h-23.896c-1.472,0-3.322,0.062-5.556,0.154c-2.234,0.105-4.362,0.229-6.397,0.375
	c-0.133-0.696-0.198-1.256-0.198-1.67c0-0.987,0.317-1.542,0.961-1.688c2.607-0.484,4.396-1.018,5.348-1.612
	c0.961-0.591,1.437-1.516,1.437-2.776v-53.346c0-1.388-0.45-2.388-1.339-2.978c-0.891-0.599-2.617-1.093-5.164-1.525
	c-0.326-0.057-0.56-0.255-0.714-0.572c-0.158-0.313-0.246-0.665-0.246-1.102c0-0.48,0.062-1.07,0.193-1.766
	c2.172,0.132,4.305,0.264,6.406,0.356c2.106,0.106,3.886,0.168,5.357,0.168c2.168,0,4.458-0.062,6.882-0.168
	c2.424-0.092,4.582-0.224,6.499-0.356c0.132,0.696,0.197,1.247,0.197,1.669c0,1.19-0.348,1.807-1.048,1.882
	c-2.75,0.352-4.768,0.859-6.071,1.519c-1.313,0.666-1.965,1.864-1.965,3.604V566.079z"/>
<path d="M770.448,548.192c0,3.969-0.427,7.582-1.251,10.82c-0.819,3.243-2.203,6.058-4.149,8.415
	c-1.939,2.379-4.512,4.203-7.685,5.499c-3.198,1.295-7.173,1.934-11.957,1.934c-5.472,0-9.896-0.749-13.271-2.238
	c-3.383-1.511-5.974-3.48-7.793-5.917c-1.811-2.445-3.026-5.241-3.635-8.41c-0.604-3.186-0.898-6.406-0.898-9.68v-35.573
	c0-1.388-0.45-2.392-1.344-3.027c-0.886-0.625-2.573-1.119-5.054-1.476c-0.644-0.057-0.97-0.648-0.97-1.771
	c0-0.419,0.069-0.978,0.203-1.67c1.903,0.133,3.868,0.26,5.868,0.348c2.009,0.111,3.939,0.177,5.781,0.177
	c1.665,0,3.599-0.066,5.828-0.177c2.234-0.088,4.301-0.215,6.208-0.348c0.142,0.692,0.194,1.251,0.194,1.67
	c0,1.123-0.317,1.714-0.952,1.771c-2.419,0.357-4.159,0.851-5.207,1.476c-1.054,0.635-1.578,1.639-1.578,3.027v33.268
	c0,7.252,1.326,12.813,3.961,16.681c2.648,3.864,7.124,5.807,13.425,5.807c3.577,0,6.6-0.44,9.08-1.304
	c2.48-0.886,4.142-3.019,5.732-4.825c1.586-1.814,2.734-4.172,3.44-7.063c0.692-2.895,1.049-6.361,1.049-10.42l0.212-33.365
	c0-1.392-0.684-1.978-1.652-2.603c-0.956-0.626-2.287-0.322-4.771-0.679c-0.7-0.057-1.049-0.648-1.049-1.771
	c0-0.419,0.066-0.978,0.189-1.67c1.851,0.133,3.652,0.26,5.4,0.348c1.755,0.111,3.271,0.177,4.539,0.177
	c1.542,0,3.075-0.066,4.635-0.177c1.556-0.088,3.102-0.215,4.635-0.348c0.124,0.692,0.186,1.251,0.186,1.67
	c0,0.352-0.093,0.714-0.282,1.092c-0.193,0.384-0.449,0.622-0.758,0.679c-2.357,0.287-4.009,0.754-4.926,1.415
	c-0.925,0.665-1.384,1.7-1.384,3.088V548.192z"/>
<path d="M832.275,517.885c-2.67-2.626-2.269-4.177-4.789-5.988c-2.502-1.811-5.921-2.723-10.243-2.723
	c-1.67,0-3.265,0.22-4.759,0.679c-1.497,0.453-2.807,1.115-3.93,1.991c-1.11,0.863-2.005,1.93-2.657,3.199
	c-0.665,1.242-0.995,2.639-0.995,4.167c0,3.283,1.374,5.962,4.128,8.059c2.754,2.097,6.816,4.22,12.182,6.384
	c6.706,2.648,11.632,5.595,14.813,8.834c3.172,3.238,4.749,7.239,4.749,11.979c0,2.863-0.427,5.538-1.304,8.006
	c-0.873,2.477-2.229,4.644-4.08,6.48c-1.851,1.851-4.238,3.3-7.16,4.34c-2.938,1.044-6.458,1.568-10.568,1.568
	c-4.327,0-8.239-0.444-11.765-1.353c-3.533-0.912-6.511-2.102-8.943-3.556c-0.211-2.935-0.524-5.763-0.943-8.481
	c-0.422-2.714-0.092-3.058-0.643-5.771c0.484-0.216,1.07-0.304,1.771-0.304c0.838,0,1.489,0.193,1.931,0.573
	c0.467,0.379,0.854,0.99,1.207,1.819c1.745,5.022,3.172,6.34,5.93,8.701c2.75,2.379,6.601,3.568,11.562,3.568
	c2.229,0,4.177-0.325,5.859-0.946c1.666-0.622,3.062-1.499,4.177-2.622c1.119-1.11,1.956-2.361,2.516-3.758
	c0.56-1.393,0.833-2.899,0.833-4.503c0-3.617-1.242-6.477-3.71-8.569c-2.48-2.087-6.022-3.979-10.618-5.648
	c-3-1.119-5.714-2.286-8.155-3.507c-2.453-1.221-4.542-2.635-6.286-4.238c-1.736-1.6-3.076-3.468-4.027-5.596
	c-0.938-2.123-1.401-4.657-1.401-7.582c0-2.578,0.463-5.001,1.401-7.266c0.951-2.268,2.309-4.233,4.088-5.916
	c1.771-1.675,3.922-3.005,6.433-3.97c2.512-0.978,5.327-1.463,8.473-1.463c3.273,0,6.42,0.308,9.405,0.934
	c3.006,0.63,6.381,1.67,10.157,3.142C837.042,510.65,833.961,519.554,832.275,517.885"/>
<path d="M581.404,509.667c2.246-1.383,4.859-2.198,7.656-2.48c2.873-0.287,3.975-0.578,5.155-0.652l15.028-0.344
	c0.701-0.066,1.291-0.102,1.775-0.102h1.577c3.834,0,7.146,0.542,9.94,1.622c2.775,1.083,5.07,2.507,6.846,4.291
	c1.776,1.771,3.098,3.82,3.975,6.124c0.872,2.291,1.313,4.702,1.313,7.204c0,2.736-0.555,5.273-1.63,7.644
	c-1.079,2.365-2.538,4.437-4.389,6.163c-1.85,1.745-4.019,3.129-6.485,4.133c-2.484,1.018-5.11,1.521-7.895,1.521
	c-4.393,0-7.741-1.358-10.045-4.077l0.625-0.625c1.739,0.625,3.626,0.939,5.648,0.939c2.097,0,4.022-0.344,5.807-1.049
	c1.771-0.696,3.313-1.683,4.6-2.974c1.296-1.299,2.317-2.873,3.084-4.758c0.771-1.899,1.154-4.023,1.154-6.384
	c0-1.956-0.313-3.856-0.938-5.715c-0.63-1.832-1.577-3.489-2.824-4.961c-1.26-1.453-2.828-2.683-4.714-3.652
	c-1.877-0.987-4.11-1.643-6.688-1.991c-0.768-0.15-1.552-0.23-2.354-0.265c-0.811-0.035-1.621-0.013-2.463,0.053
	c-1.114,0-2.11,0.062-2.982,0.212c-0.868,0.136-1.621,0.317-2.247,0.515v55.967c0,1.049,0.229,1.807,0.679,2.291
	c0.454,0.503,1.449,0.926,2.982,1.261l7.534,1.674v1.789c-2.93-0.146-5.521-0.26-7.75-0.326c-2.229-0.053-4.142-0.093-5.746-0.093
	c-3.074,0-8.088,0.093-15.066,0.313v-1.788l5.859-0.943c1.058-0.202,1.74-0.581,2.098-1.141c0.343-0.564,0.523-1.503,0.523-2.838
	V516.66c0-2.653-0.819-4.437-2.458-5.345c-1.639-0.898-2.754-0.929-7.186,0.463V509.667z"/>
<path d="M57.443,505.722c-5.996-0.684-11.612-1.2-16.84-1.543c-5.225-0.341-9.855-0.517-13.875-0.517
	c-6.693,0-10.994,1.186-12.926,3.552c-1.926,2.363-4.734,9.995-8.415,22.888c17.996,1.599,31.704,5.84,41.131,12.707
	c9.422,6.865,14.143,15.976,14.143,27.353c0,9.991-3.473,19.282-10.414,27.871c-6.941,8.578-16.713,15.618-29.306,21.114
	c-5.748,2.52-11.808,4.597-18.191,6.238c-6.384,1.642-10.861,2.455-13.43,2.455c-0.519,0-0.903-0.303-1.155-0.914
	c-0.262-0.608-0.391-1.478-0.391-2.632c0-0.533,3.002-1.463,8.997-2.804c6.002-1.337,11.486-3.036,16.458-5.093
	c9.678-3.968,17.369-9.732,23.069-17.28c5.698-7.554,8.545-15.719,8.545-24.501c0-9.681-3.271-17.102-9.823-22.255
	c-6.558-5.145-16.097-7.723-28.605-7.723c-0.596,0-1.758,0.06-3.469,0.166c-1.718,0.119-3.987,0.29-6.816,0.517l-1.798-1.6
	c1.2-3.131,3.814-10.797,7.842-23c4.025-12.212,8.053-21.985,12.082-29.308h13.239c4.371,0,9.083,0.153,14.141,0.459
	c5.049,0.306,7.878,0.461,8.479,0.461c5.231,0,9.043-1.546,11.443-4.639c2.395-3.087,4.024-4.631,4.883-4.631
	c0.689,0,1.433,0.188,2.25,0.566c0.816,0.389,1.217,0.804,1.217,1.26c0,0.228-1.497,2.522-4.495,6.87
	C62.413,496.102,59.758,500.765,57.443,505.722"/>
<polygon points="156.519,496.939 156.519,510.46 151.139,510.46 151.139,496.939 138.36,496.939 138.36,491.564 151.139,491.564 
	151.139,478.043 156.519,478.043 156.519,491.564 169.302,491.564 169.302,496.939 "/>
<path d="M108.811,490.806c-27.146,0-49.158,22.012-49.158,49.159c0,27.15,22.012,49.159,49.158,49.159
	c27.152,0,49.163-22.009,49.163-49.159C157.974,512.818,135.963,490.806,108.811,490.806 M87.505,540.253
	c-2.273,1.495-4.966,2.242-8.075,2.242c-0.312,0-0.583-0.006-0.821-0.029l0.585-2.561c1.91,0.02,3.428-0.399,4.564-1.267
	c1.138-0.86,1.703-2.028,1.703-3.509c0-1.457-0.595-2.47-1.795-3.032c-0.629-0.295-1.687-0.447-3.176-0.447h-1.135l-3.083,13.364
	h-0.021c-0.199,0.955-0.614,1.971-1.266,2.932c-1.403,2.057-3.434,3.226-5.037,3.07l5.096-22.119h6.23
	c3.078,0,5.339,0.467,6.777,1.39c1.698,1.1,2.547,2.62,2.547,4.554C90.598,537.1,89.571,538.904,87.505,540.253 M90.984,550.666
	l4.902-21.302h4.754l-4.262,18.685h3.471c0,0,0.268,0.006,0.403,0h0.738c2.066,0.115,3.744,1.2,4.102,2.617H90.984z
	 M126.428,545.597c-0.48,0.967-1.17,1.851-2.077,2.663c-2.057,1.85-4.777,2.771-8.141,2.771c-2.543,0-4.543-0.503-5.999-1.513
	c-1.459-1.001-2.189-2.368-2.189-4.117c0-1.013,0.266-2.675,0.795-4.992l2.526-11.045h4.756l-2.605,11.351
	c-0.43,1.864-0.641,3.197-0.641,3.984c0,1.01,0.364,1.821,1.095,2.416c0.727,0.605,1.705,0.906,2.941,0.906
	c2.388,0,4.123-0.906,5.197-2.715c0.655-1.073,1.187-2.523,1.585-4.349l1.85-8.119c0.462-1.979,2.321-3.474,4.543-3.474
	c0.173,0,0.336,0.021,0.505,0.032l-2.746,11.803C127.371,543.167,126.906,544.636,126.428,545.597 M140.511,537.885
	c0.224,0.265,0.953,1.004,2.186,2.224c1.71,1.622,2.565,3.2,2.565,4.744c0,1.844-0.833,3.338-2.489,4.472
	c-1.662,1.14-3.81,1.706-6.445,1.706c-2.77,0-5.08-0.682-6.941-2.044l1.922-2.282c1.706,1.099,3.279,1.65,4.714,1.65
	c1.23,0,2.251-0.306,3.05-0.914c0.811-0.61,1.211-1.382,1.211-2.314c0-0.995-0.569-2.12-1.697-3.378
	c-0.025-0.017-0.882-0.877-2.564-2.589c-1.686-1.699-2.524-3.251-2.524-4.653c0-1.601,0.774-2.92,2.337-3.953
	c1.556-1.036,3.531-1.555,5.919-1.555c2.19,0,4.159,0.539,5.917,1.616l-2.034,2.004c-1.231-0.669-2.358-1.003-3.391-1.003
	c-1.157,0-2.082,0.256-2.773,0.779c-0.692,0.513-1.037,1.188-1.037,2.025C138.437,535.163,139.128,536.321,140.511,537.885"/>
<path fill="#FFFFFF" d="M100.99,548.049h-0.738c-0.135,0.006-0.403,0-0.403,0h-3.471l4.262-18.685h-4.754l-4.902,21.302h14.108
	C104.734,549.249,103.056,548.164,100.99,548.049"/>
<path fill="#FFFFFF" d="M130.064,529.364c-2.222,0-4.081,1.494-4.543,3.474l-1.85,8.119c-0.398,1.826-0.93,3.275-1.585,4.348
	c-1.073,1.809-2.809,2.715-5.196,2.715c-1.237,0-2.215-0.301-2.942-0.906c-0.731-0.595-1.094-1.405-1.094-2.415
	c0-0.787,0.21-2.12,0.64-3.984l2.605-11.351h-4.756l-2.526,11.045c-0.528,2.316-0.795,3.978-0.795,4.991
	c0,1.749,0.73,3.116,2.189,4.117c1.457,1.01,3.456,1.512,5.999,1.512c3.365,0,6.084-0.92,8.141-2.769
	c0.907-0.814,1.597-1.697,2.077-2.665c0.478-0.961,0.944-2.429,1.396-4.397l2.745-11.804
	C130.4,529.385,130.237,529.364,130.064,529.364"/>
<path fill="#FFFFFF" d="M88.051,530.287c-1.438-0.923-3.699-1.391-6.777-1.391h-6.23l-5.097,22.12
	c1.604,0.155,3.635-1.014,5.038-3.07c0.652-0.961,1.066-1.976,1.266-2.931h0.021l3.083-13.365h1.135
	c1.489,0,2.547,0.153,3.176,0.448c1.2,0.562,1.795,1.575,1.795,3.032c0,1.48-0.565,2.648-1.703,3.509
	c-1.136,0.868-2.654,1.287-4.564,1.266l-0.585,2.562c0.238,0.023,0.509,0.029,0.821,0.029c3.109,0,5.802-0.747,8.075-2.242
	c2.066-1.35,3.093-3.154,3.093-5.412C90.598,532.907,89.749,531.387,88.051,530.287"/>
<path fill="#FFFFFF" d="M142.247,531.615c1.033,0,2.16,0.334,3.392,1.003l2.033-2.005c-1.758-1.076-3.727-1.615-5.917-1.615
	c-2.387,0-4.363,0.518-5.919,1.555c-1.563,1.033-2.337,2.351-2.337,3.953c0,1.402,0.838,2.954,2.524,4.653
	c1.682,1.712,2.539,2.571,2.564,2.589c1.128,1.258,1.698,2.383,1.698,3.378c0,0.932-0.401,1.705-1.212,2.314
	c-0.799,0.608-1.82,0.914-3.05,0.914c-1.435,0-3.007-0.551-4.714-1.649l-1.921,2.281c1.86,1.362,4.17,2.043,6.94,2.043
	c2.635,0,4.783-0.565,6.445-1.705c1.657-1.134,2.489-2.628,2.489-4.472c0-1.544-0.855-3.122-2.565-4.744
	c-1.233-1.22-1.962-1.959-2.186-2.223c-1.383-1.565-2.074-2.722-2.074-3.466c0-0.837,0.345-1.512,1.037-2.026
	C140.165,531.871,141.09,531.615,142.247,531.615"/>
<g>
	<path d="M-510.821,513.285c-5.996-0.685-11.612-1.2-16.84-1.543c-5.226-0.341-9.855-0.517-13.875-0.517
		c-6.693,0-10.994,1.186-12.927,3.552c-1.926,2.362-4.733,9.995-8.415,22.888c17.996,1.6,31.704,5.84,41.132,12.707
		c9.422,6.865,14.143,15.977,14.143,27.354c0,9.99-3.473,19.281-10.414,27.871c-6.941,8.578-16.713,15.617-29.306,21.113
		c-5.748,2.52-11.809,4.598-18.191,6.238c-6.384,1.643-10.861,2.455-13.43,2.455c-0.52,0-0.903-0.303-1.155-0.914
		c-0.262-0.607-0.391-1.477-0.391-2.631c0-0.533,3.002-1.463,8.997-2.805c6.002-1.336,11.485-3.035,16.458-5.092
		c9.678-3.969,17.368-9.732,23.068-17.281c5.698-7.553,8.545-15.719,8.545-24.5c0-9.682-3.271-17.102-9.822-22.256
		c-6.559-5.145-16.098-7.723-28.605-7.723c-0.596,0-1.758,0.061-3.469,0.166c-1.718,0.119-3.987,0.29-6.816,0.518l-1.798-1.601
		c1.2-3.131,3.814-10.797,7.842-23c4.025-12.212,8.054-21.985,12.082-29.308h13.239c4.371,0,9.083,0.153,14.141,0.459
		c5.05,0.306,7.878,0.461,8.479,0.461c5.23,0,9.043-1.546,11.442-4.639c2.396-3.087,4.024-4.631,4.884-4.631
		c0.688,0,1.433,0.188,2.25,0.566c0.815,0.389,1.217,0.804,1.217,1.26c0,0.228-1.497,2.522-4.495,6.87
		C-505.851,503.665-508.506,508.328-510.821,513.285"/>
	<polygon points="-411.746,504.502 -411.746,518.023 -417.125,518.023 -417.125,504.502 -429.905,504.502 -429.905,499.127 
		-417.125,499.127 -417.125,485.606 -411.746,485.606 -411.746,499.127 -398.962,499.127 -398.962,504.502 	"/>
	<path d="M-459.454,498.369c-27.146,0-49.157,22.012-49.157,49.16c0,27.15,22.012,49.158,49.157,49.158
		c27.152,0,49.163-22.008,49.163-49.158C-410.291,520.381-432.301,498.369-459.454,498.369 M-480.759,547.815
		c-2.272,1.495-4.966,2.242-8.075,2.242c-0.312,0-0.583-0.006-0.82-0.029l0.585-2.561c1.909,0.02,3.428-0.398,4.563-1.268
		c1.138-0.859,1.703-2.027,1.703-3.508c0-1.457-0.595-2.471-1.795-3.033c-0.629-0.295-1.688-0.446-3.176-0.446h-1.136l-3.082,13.364
		h-0.021c-0.199,0.955-0.614,1.971-1.266,2.932c-1.403,2.057-3.435,3.225-5.037,3.07l5.096-22.119h6.23
		c3.077,0,5.339,0.467,6.776,1.39c1.698,1.101,2.547,2.62,2.547,4.554C-477.667,544.663-478.693,546.467-480.759,547.815
		 M-477.28,558.229l4.901-21.303h4.754l-4.262,18.686h3.471c0,0,0.269,0.006,0.403,0h0.738c2.065,0.115,3.744,1.199,4.102,2.617
		H-477.28z M-441.836,553.159c-0.479,0.968-1.17,1.852-2.077,2.664c-2.057,1.85-4.776,2.77-8.141,2.77
		c-2.543,0-4.543-0.502-5.999-1.512c-1.459-1.002-2.188-2.369-2.188-4.117c0-1.014,0.266-2.676,0.795-4.992l2.525-11.045h4.756
		l-2.604,11.352c-0.43,1.863-0.642,3.196-0.642,3.983c0,1.011,0.364,1.821,1.096,2.415c0.727,0.605,1.705,0.906,2.94,0.906
		c2.389,0,4.123-0.906,5.197-2.715c0.655-1.072,1.188-2.522,1.585-4.348l1.85-8.119c0.463-1.979,2.321-3.475,4.544-3.475
		c0.173,0,0.336,0.021,0.505,0.032l-2.746,11.803C-440.893,550.729-441.358,552.198-441.836,553.159 M-427.753,545.448
		c0.225,0.265,0.953,1.004,2.187,2.224c1.71,1.622,2.564,3.2,2.564,4.743c0,1.845-0.833,3.338-2.488,4.473
		c-1.662,1.139-3.811,1.705-6.445,1.705c-2.771,0-5.08-0.682-6.941-2.043l1.922-2.282c1.706,1.099,3.279,1.649,4.715,1.649
		c1.229,0,2.251-0.305,3.05-0.914c0.811-0.609,1.211-1.381,1.211-2.314c0-0.994-0.569-2.119-1.697-3.378
		c-0.025-0.017-0.882-0.877-2.563-2.589c-1.687-1.699-2.524-3.251-2.524-4.652c0-1.602,0.774-2.92,2.337-3.953
		c1.556-1.037,3.531-1.556,5.919-1.556c2.19,0,4.159,0.539,5.917,1.616l-2.034,2.004c-1.23-0.669-2.357-1.003-3.391-1.003
		c-1.157,0-2.082,0.256-2.773,0.778c-0.691,0.514-1.037,1.189-1.037,2.025C-429.828,542.726-429.136,543.884-427.753,545.448"/>
	<path fill="#FFFFFF" d="M-467.274,555.612h-0.738c-0.135,0.006-0.403,0-0.403,0h-3.471l4.262-18.686h-4.754l-4.901,21.303h14.107
		C-463.53,556.812-465.208,555.728-467.274,555.612"/>
	<path fill="#FFFFFF" d="M-438.201,536.927c-2.222,0-4.081,1.494-4.543,3.475l-1.85,8.119c-0.398,1.826-0.931,3.275-1.585,4.348
		c-1.073,1.809-2.81,2.715-5.196,2.715c-1.237,0-2.215-0.301-2.942-0.906c-0.73-0.594-1.094-1.404-1.094-2.414
		c0-0.787,0.21-2.121,0.641-3.984l2.604-11.352h-4.756l-2.526,11.045c-0.527,2.316-0.795,3.979-0.795,4.992
		c0,1.748,0.73,3.115,2.189,4.117c1.457,1.01,3.456,1.512,5.999,1.512c3.364,0,6.084-0.92,8.141-2.77
		c0.907-0.814,1.597-1.697,2.077-2.664c0.478-0.961,0.944-2.429,1.396-4.396l2.745-11.805
		C-437.865,536.948-438.028,536.927-438.201,536.927"/>
	<path fill="#FFFFFF" d="M-480.213,537.851c-1.438-0.924-3.699-1.392-6.776-1.392h-6.23l-5.097,22.12
		c1.604,0.154,3.635-1.014,5.038-3.07c0.651-0.962,1.065-1.977,1.266-2.932h0.021l3.083-13.365h1.136
		c1.488,0,2.547,0.153,3.176,0.448c1.2,0.562,1.795,1.575,1.795,3.032c0,1.479-0.565,2.647-1.703,3.509
		c-1.136,0.868-2.654,1.287-4.563,1.267l-0.585,2.562c0.237,0.022,0.509,0.028,0.82,0.028c3.109,0,5.803-0.746,8.075-2.242
		c2.066-1.35,3.093-3.153,3.093-5.411C-477.667,540.47-478.515,538.95-480.213,537.851"/>
	<path fill="#FFFFFF" d="M-426.017,539.179c1.032,0,2.16,0.334,3.392,1.002l2.033-2.004c-1.758-1.076-3.728-1.615-5.917-1.615
		c-2.387,0-4.363,0.518-5.919,1.555c-1.563,1.033-2.337,2.352-2.337,3.953c0,1.402,0.838,2.954,2.523,4.652
		c1.683,1.713,2.539,2.572,2.564,2.59c1.128,1.258,1.698,2.383,1.698,3.378c0,0.932-0.401,1.704-1.212,2.313
		c-0.8,0.609-1.82,0.914-3.051,0.914c-1.435,0-3.007-0.551-4.714-1.648l-1.921,2.281c1.86,1.361,4.17,2.043,6.94,2.043
		c2.635,0,4.782-0.566,6.444-1.705c1.657-1.135,2.489-2.629,2.489-4.473c0-1.544-0.854-3.121-2.565-4.744
		c-1.232-1.22-1.962-1.959-2.186-2.223c-1.383-1.564-2.074-2.723-2.074-3.466c0-0.837,0.346-1.513,1.037-2.026
		C-428.099,539.435-427.174,539.179-426.017,539.179"/>
</g>
<rect x="-105.226" y="376.005" fill="none" width="1040" height="340"/>
<g>
	<path fill="#FFFFFF" d="M303.184,88.463c0,1.392,0.487,2.356,1.46,2.877c0.98,0.523,2.791,1.061,5.441,1.612
		c0.699,0.146,1.045,0.7,1.045,1.688c0,0.414-0.067,0.974-0.21,1.67c-2.158-0.146-4.319-0.27-6.485-0.375
		c-2.161-0.093-4.221-0.154-6.166-0.154c-1.879,0-3.959,0.062-6.226,0.154c-2.266,0.105-4.41,0.229-6.432,0.375
		c-0.143-0.696-0.211-1.256-0.211-1.67c0-0.987,0.347-1.542,1.048-1.688c2.646-0.484,4.463-1.005,5.435-1.568
		c0.978-0.556,1.469-1.529,1.469-2.921V35.218c0-1.388-0.491-2.388-1.469-2.978c-0.972-0.6-2.789-1.093-5.435-1.525
		c-0.418-0.057-0.701-0.269-0.837-0.625c-0.143-0.348-0.211-0.727-0.211-1.146c0-0.422,0.068-0.974,0.211-1.669
		c2.088,0.132,4.274,0.259,6.536,0.347c2.267,0.111,4.309,0.177,6.122,0.177c1.747,0,3.747-0.065,6.009-0.177
		c2.272-0.088,4.484-0.215,6.642-0.347c0.143,0.695,0.21,1.247,0.21,1.669c0,1.045-0.346,1.639-1.045,1.771
		c-2.65,0.433-4.461,0.926-5.441,1.525c-0.973,0.59-1.46,1.59-1.46,2.978V88.463z"/>
	<path fill="#FFFFFF" d="M375.73,59.961c-0.101,1.983,0.037,0.892,0.037,2.35c0,1.188,0,1.188-0.207,3.925
		c-0.041,0.569-1.504,0.379-1.989,0.379c-0.564,0-1.011-0.084-1.363-0.264c-0.351-0.163-0.58,0.104-1.207-1.283
		c-0.624-1.401-18.239-0.771-18.239-0.771v24.268c0,1.4,0.893,2.365,2.668,2.89c1.774,0.516,3.959,0.944,6.532,1.3
		c0.837,0.065,1.255,0.665,1.255,1.784c0,0.485-0.07,1.075-0.202,1.771c-1.47-0.078-3.032-0.146-4.708-0.212
		c-1.394-0.066-3.02-0.132-4.862-0.212c-1.85-0.07-3.784-0.105-5.811-0.105c-1.877,0-4.007,0.062-6.382,0.154
		c-2.372,0.105-4.562,0.229-6.584,0.375c-0.141-0.696-0.207-1.256-0.207-1.684c0-1.044,0.348-1.595,1.044-1.674
		c2.302-0.554,4.111-1.089,5.439-1.612c1.326-0.521,1.989-1.485,1.989-2.873V35.224c0-1.394-0.544-2.366-1.625-2.939
		c-1.085-0.546-3.016-1.071-5.803-1.569c-0.489-0.123-0.787-0.315-0.886-0.563c-0.108-0.255-0.158-0.648-0.158-1.207
		c0-0.422,0.066-0.986,0.207-1.67c2.298,0.133,4.529,0.265,6.695,0.356c2.16,0.106,4.212,0.168,6.165,0.168h20.71
		c2.725,0,5.3-0.114,7.75-0.325c2.438-0.199,4.11-0.301,5.013-0.301c0.835,0,1.437,0.564,1.785,1.719
		c0.341,1.154-0.817,9.512-0.115,10.839c-0.209,0.282-0.482,0.467-0.846,0.572c-0.341,0.109-0.689,0.158-1.037,0.158
		c-0.832,0-1.403-0.309-1.679-0.934c-0.833-1.895-0.026-0.78-0.83-2.097c-0.8-1.35-0.19-2.106-1.196-2.935
		c-1.014-0.846-2.217-1.45-3.611-1.847c-1.388-0.374-3.137-0.563-5.234-0.563h-15.476v27.813h15.586"/>
	<path fill="#FFFFFF" d="M255.209,59.961c-0.106,1.983,0.038,0.892,0.038,2.35c0,1.188,0,1.188-0.21,3.925
		c-0.049,0.569-1.511,0.379-1.994,0.379c-0.563,0-1.011-0.084-1.363-0.264c-0.346-0.163-0.584,0.104-1.207-1.283
		c-0.626-1.401-18.236-0.771-18.236-0.771v24.268c0,1.4,0.886,2.365,2.67,2.89c1.771,0.516,3.956,0.944,6.531,1.3
		c0.837,0.065,1.256,0.665,1.256,1.784c0,0.485-0.066,1.075-0.209,1.771c-1.463-0.078-3.029-0.146-4.703-0.212
		c-1.404-0.066-3.027-0.132-4.869-0.212c-1.852-0.07-3.78-0.105-5.807-0.105c-1.885,0-4.007,0.062-6.377,0.154
		c-2.371,0.105-4.567,0.229-6.589,0.375c-0.148-0.696-0.207-1.256-0.207-1.684c0-1.044,0.341-1.595,1.042-1.674
		c2.302-0.554,4.112-1.089,5.443-1.612c1.317-0.521,1.985-1.485,1.985-2.873V35.224c0-1.394-0.542-2.366-1.626-2.939
		c-1.081-0.546-3.015-1.071-5.802-1.569c-0.482-0.123-0.787-0.315-0.892-0.563c-0.097-0.255-0.15-0.648-0.15-1.207
		c0-0.422,0.059-0.986,0.207-1.67c2.3,0.133,4.531,0.265,6.694,0.356c2.157,0.106,4.215,0.168,6.175,0.168h20.705
		c2.724,0,5.301-0.114,7.744-0.325c2.445-0.199,4.115-0.301,5.02-0.301c0.835,0,1.426,0.564,1.778,1.719
		c0.346,1.154-0.811,9.512-0.11,10.839c-0.214,0.282-0.491,0.467-0.842,0.572c-0.345,0.109-0.698,0.158-1.046,0.158
		c-0.835,0-1.395-0.309-1.677-0.934c-0.834-1.895-0.023-0.78-0.828-2.097c-0.804-1.35-0.19-2.106-1.196-2.935
		c-1.015-0.846-2.219-1.45-3.608-1.847c-1.395-0.374-3.139-0.563-5.235-0.563h-15.477v27.813h15.583"/>
	<path fill="#FFFFFF" d="M441.252,32.081v55.854c0,1.607,0.664,2.739,1.988,3.405c1.324,0.66,3.559,1.167,6.697,1.52
		c0.762,0,1.143,0.56,1.143,1.67c0,0.493-0.064,1.084-0.209,1.781c-2.229-0.146-4.582-0.271-7.055-0.375
		c-2.477-0.094-4.969-0.155-7.479-0.155c-2.445,0-4.932,0.062-7.482,0.155c-2.545,0.104-4.932,0.229-7.164,0.375
		c-0.137-0.697-0.209-1.288-0.209-1.781c0-0.979,0.348-1.538,1.047-1.67c3.137-0.427,5.406-0.951,6.803-1.572
		c1.396-0.622,2.09-1.745,2.09-3.353V32.081h-10.775c-2.092,0-3.854,0.203-5.285,0.625c-1.429,0.415-2.667,1.059-3.711,1.882
		c-1.044,0.847-2.469,4.262-3.307,6.015c-0.141,0.356-0.363,0.594-0.682,0.735c-0.31,0.138-0.609,0.198-0.882,0.198
		c-0.774,0-1.432-0.198-1.989-0.621c0.693-2.521,1.265-11.997,1.58-12.697c0.307-0.705,0.816-1.045,1.514-1.045
		c0.492,0,1.187,0.035,2.095,0.102c0.899,0.075,1.864,0.133,2.872,0.207c1.018,0.065,2.045,0.137,3.086,0.207
		c1.043,0.065,2.02,0.11,2.928,0.11h34.938c0.836,0,1.783-0.045,2.826-0.11c1.047-0.07,2.09-0.142,3.139-0.207
		c1.043-0.074,2.004-0.132,2.877-0.207c0.871-0.066,1.586-0.102,2.141-0.102c0.701,0,1.207,0.361,1.52,1.094
		c0.313,0.727-0.232,9.696,0.541,12.085c-0.352,0.127-0.682,0.264-0.994,0.418c-0.313,0.137-0.68,0.199-1.102,0.199
		c-0.277,0-0.592-0.063-0.939-0.199c-0.348-0.154-0.594-0.378-0.734-0.74c-0.768-1.749-1.098-4.595-2.107-5.441
		c-1.012-0.823-2.229-1.467-3.658-1.882c-1.43-0.422-3.197-0.625-5.281-0.625H441.252z"/>
	<path fill="#FFFFFF" d="M504.227,35.324l12.971,23.421l12.238-21.741c0.697-1.271,1.045-2.23,1.045-2.939
		c0-0.899-0.473-1.6-1.41-2.094c-0.939-0.479-2.428-0.898-4.449-1.259c-0.768-0.054-1.15-0.645-1.15-1.768
		c0-0.352,0.035-0.661,0.105-0.947c0-0.197,0.035-0.449,0.105-0.723c1.533,0.133,3.332,0.26,5.389,0.348
		c2.049,0.111,3.951,0.178,5.697,0.178c1.604,0,3.295-0.066,5.074-0.178c1.779-0.088,3.539-0.215,5.279-0.348
		c0,0.273,0.035,0.525,0.105,0.723c0,0.221,0.021,0.393,0.057,0.528c0.031,0.137,0.047,0.274,0.047,0.419
		c0,0.979-0.377,1.568-1.148,1.768c-2.445,0.36-4.162,0.793-5.176,1.308c-1.01,0.542-1.859,1.414-2.564,2.674l-16.949,30.027v23.429
		c0,1.524,0.582,2.6,1.727,3.19c1.15,0.595,3.09,1.093,5.807,1.52c0.771,0.132,1.15,0.692,1.15,1.67
		c0,0.132-0.018,0.313-0.045,0.533c-0.043,0.199-0.061,0.379-0.061,0.511c-0.072,0.273-0.105,0.493-0.105,0.621
		c-1.666-0.062-3.305-0.128-4.918-0.202c-1.391-0.062-2.873-0.146-4.441-0.212c-1.568-0.074-2.938-0.097-4.131-0.097
		c-1.182,0-2.547,0.022-4.072,0.097c-1.545,0.066-3.004,0.15-4.4,0.212c-1.6,0.074-3.213,0.141-4.813,0.202
		c-0.07-0.128-0.1-0.348-0.1-0.621c-0.076-0.132-0.107-0.312-0.107-0.511v-0.533c0-0.978,0.344-1.538,1.045-1.67
		c2.719-0.56,4.674-1.105,5.855-1.621c1.189-0.524,1.779-1.564,1.779-3.089V65.662l-17.469-31.378
		c-0.697-1.053-1.564-1.833-2.617-2.353c-1.043-0.529-2.463-0.929-4.287-1.22c-0.348-0.054-0.611-0.266-0.783-0.626
		c-0.178-0.345-0.258-0.759-0.258-1.242v-0.477c0-0.163,0.033-0.331,0.098-0.476c0-0.203,0.035-0.419,0.107-0.617
		c1.537,0.133,3.488,0.26,5.859,0.348c2.369,0.111,4.67,0.178,6.904,0.178c0.836,0,1.814-0.023,2.93-0.066"/>
	<path fill="#FFFFFF" d="M676.159,88.255c0,1.186,0.477,2.014,1.436,2.508c0.953,0.489,2.256,0.739,3.914,0.739h10.422
		c1.861,0,3.447-0.264,4.787-0.788c1.33-0.529,2.484-1.273,3.436-2.247c0.961-0.978,1.803-2.176,2.537-3.604
		c0.732-1.44,1.385-3.053,1.957-4.877c0.193-0.555,0.572-0.837,1.145-0.837c0.318,0,0.658,0.093,1.01,0.265
		c0.357,0.172,0.719,0.365,1.098,0.572c-0.441,2.093-0.873,4.318-1.287,6.645c-0.418,2.335-0.775,4.974-1.102,7.908
		c-0.07,0.749-0.256,1.242-0.572,1.454c-0.326,0.207-0.705,0.317-1.146,0.317c-1.092,0-2.439-0.093-4.07-0.27
		c-1.623-0.158-3.035-0.26-4.248-0.26h-23.896c-1.471,0-3.322,0.062-5.555,0.154c-2.234,0.105-4.363,0.229-6.398,0.375
		c-0.133-0.696-0.197-1.256-0.197-1.67c0-0.987,0.316-1.542,0.961-1.688c2.607-0.484,4.396-1.018,5.348-1.612
		c0.961-0.591,1.436-1.516,1.436-2.776V35.218c0-1.388-0.449-2.388-1.338-2.978c-0.891-0.6-2.617-1.093-5.164-1.525
		c-0.326-0.057-0.561-0.255-0.715-0.571c-0.158-0.313-0.246-0.665-0.246-1.103c0-0.479,0.063-1.07,0.193-1.766
		c2.172,0.132,4.305,0.264,6.406,0.355c2.107,0.106,3.887,0.168,5.357,0.168c2.168,0,4.459-0.062,6.883-0.168
		c2.424-0.092,4.582-0.224,6.498-0.355c0.133,0.695,0.197,1.247,0.197,1.669c0,1.189-0.348,1.807-1.047,1.882
		c-2.75,0.352-4.768,0.859-6.072,1.519c-1.313,0.666-1.965,1.864-1.965,3.604V88.255z"/>
	<path fill="#FFFFFF" d="M782.788,70.368c0,3.969-0.426,7.582-1.25,10.82c-0.82,3.243-2.203,6.058-4.15,8.415
		c-1.939,2.379-4.512,4.203-7.684,5.499c-3.199,1.295-7.174,1.934-11.957,1.934c-5.473,0-9.896-0.749-13.271-2.238
		c-3.383-1.511-5.975-3.48-7.793-5.917c-1.811-2.445-3.027-5.241-3.635-8.41c-0.604-3.186-0.898-6.406-0.898-9.68V35.219
		c0-1.389-0.451-2.393-1.344-3.027c-0.887-0.625-2.574-1.119-5.055-1.476c-0.643-0.058-0.969-0.648-0.969-1.771
		c0-0.419,0.068-0.978,0.203-1.67c1.902,0.133,3.867,0.26,5.867,0.348c2.01,0.111,3.939,0.178,5.781,0.178
		c1.666,0,3.6-0.066,5.828-0.178c2.234-0.088,4.301-0.215,6.209-0.348c0.141,0.692,0.193,1.251,0.193,1.67
		c0,1.123-0.316,1.714-0.951,1.771c-2.42,0.356-4.16,0.851-5.207,1.476c-1.055,0.635-1.578,1.639-1.578,3.027v33.268
		c0,7.252,1.326,12.813,3.961,16.681c2.648,3.864,7.123,5.807,13.424,5.807c3.578,0,6.6-0.44,9.08-1.304
		c2.48-0.886,4.143-3.019,5.732-4.825c1.586-1.814,2.734-4.172,3.441-7.063c0.691-2.895,1.049-6.361,1.049-10.42l0.211-33.365
		c0-1.392-0.684-1.978-1.652-2.603c-0.955-0.626-2.287-0.322-4.771-0.679c-0.699-0.058-1.049-0.648-1.049-1.771
		c0-0.419,0.066-0.978,0.189-1.67c1.852,0.133,3.652,0.26,5.4,0.348c1.756,0.111,3.271,0.178,4.539,0.178
		c1.543,0,3.076-0.066,4.635-0.178c1.557-0.088,3.102-0.215,4.635-0.348c0.125,0.692,0.186,1.251,0.186,1.67
		c0,0.353-0.092,0.714-0.281,1.092c-0.193,0.384-0.449,0.622-0.758,0.68c-2.357,0.286-4.01,0.754-4.926,1.415
		c-0.926,0.664-1.385,1.699-1.385,3.088V70.368z"/>
	<path fill="#FFFFFF" d="M844.616,40.061c-2.67-2.626-2.27-4.177-4.789-5.987c-2.502-1.812-5.922-2.724-10.244-2.724
		c-1.67,0-3.264,0.22-4.758,0.679c-1.498,0.453-2.807,1.115-3.93,1.991c-1.111,0.863-2.006,1.931-2.658,3.199
		c-0.664,1.242-0.994,2.639-0.994,4.167c0,3.283,1.373,5.962,4.127,8.059c2.754,2.098,6.816,4.221,12.182,6.385
		c6.707,2.647,11.633,5.595,14.814,8.834c3.172,3.237,4.748,7.238,4.748,11.979c0,2.863-0.426,5.538-1.303,8.006
		c-0.873,2.477-2.23,4.644-4.08,6.48c-1.852,1.851-4.238,3.3-7.16,4.34c-2.938,1.044-6.459,1.568-10.568,1.568
		c-4.328,0-8.24-0.444-11.766-1.353c-3.533-0.912-6.51-2.102-8.943-3.556c-0.211-2.935-0.523-5.763-0.943-8.481
		c-0.422-2.714-0.092-3.058-0.643-5.771c0.484-0.216,1.07-0.304,1.771-0.304c0.838,0,1.488,0.193,1.93,0.573
		c0.467,0.379,0.854,0.99,1.207,1.819c1.746,5.022,3.172,6.34,5.93,8.701c2.75,2.379,6.602,3.568,11.563,3.568
		c2.229,0,4.176-0.325,5.859-0.946c1.666-0.622,3.061-1.499,4.176-2.622c1.119-1.11,1.957-2.361,2.516-3.758
		c0.561-1.393,0.834-2.899,0.834-4.503c0-3.617-1.242-6.477-3.711-8.569c-2.48-2.087-6.021-3.979-10.617-5.648
		c-3-1.119-5.715-2.286-8.156-3.507c-2.453-1.221-4.541-2.635-6.285-4.238c-1.736-1.6-3.076-3.468-4.027-5.596
		c-0.939-2.123-1.402-4.657-1.402-7.582c0-2.578,0.463-5.001,1.402-7.266c0.951-2.269,2.309-4.233,4.088-5.916
		c1.77-1.675,3.922-3.005,6.432-3.971c2.512-0.978,5.328-1.463,8.473-1.463c3.273,0,6.42,0.309,9.406,0.935
		c3.006,0.63,6.381,1.67,10.156,3.142C849.383,32.826,846.301,41.729,844.616,40.061"/>
	<path fill="#FFFFFF" d="M593.745,31.844c2.246-1.383,4.859-2.198,7.656-2.48c2.873-0.287,3.975-0.578,5.154-0.651l15.029-0.345
		c0.701-0.065,1.291-0.102,1.775-0.102h1.576c3.834,0,7.146,0.542,9.941,1.622c2.775,1.083,5.07,2.507,6.846,4.291
		c1.775,1.771,3.098,3.819,3.975,6.124c0.871,2.291,1.313,4.702,1.313,7.204c0,2.735-0.555,5.272-1.631,7.644
		c-1.078,2.365-2.537,4.438-4.389,6.163c-1.85,1.745-4.018,3.129-6.484,4.133c-2.484,1.019-5.111,1.521-7.895,1.521
		c-4.393,0-7.742-1.358-10.045-4.077l0.625-0.625c1.738,0.625,3.625,0.938,5.648,0.938c2.096,0,4.021-0.344,5.807-1.049
		c1.771-0.695,3.313-1.683,4.6-2.974c1.295-1.299,2.316-2.873,3.084-4.758c0.771-1.899,1.154-4.023,1.154-6.385
		c0-1.955-0.313-3.855-0.939-5.715c-0.629-1.832-1.576-3.488-2.824-4.961c-1.26-1.453-2.828-2.683-4.713-3.651
		c-1.877-0.987-4.111-1.644-6.688-1.991c-0.768-0.15-1.553-0.23-2.354-0.266c-0.811-0.034-1.621-0.013-2.463,0.054
		c-1.115,0-2.111,0.062-2.982,0.212c-0.869,0.136-1.621,0.316-2.248,0.515v55.967c0,1.049,0.23,1.807,0.68,2.291
		c0.453,0.503,1.449,0.926,2.982,1.261l7.533,1.674v1.789c-2.93-0.146-5.52-0.26-7.75-0.326c-2.229-0.053-4.141-0.093-5.746-0.093
		c-3.074,0-8.088,0.093-15.066,0.313v-1.788l5.859-0.943c1.059-0.202,1.74-0.581,2.098-1.141c0.344-0.564,0.523-1.503,0.523-2.838
		V38.836c0-2.653-0.818-4.438-2.457-5.346c-1.639-0.897-2.754-0.929-7.186,0.463V31.844z"/>
	<path fill="#FFFFFF" d="M69.783,27.898c-5.996-0.685-11.612-1.2-16.84-1.543c-5.225-0.341-9.855-0.518-13.875-0.518
		c-6.693,0-10.994,1.187-12.926,3.553c-1.926,2.362-4.734,9.994-8.415,22.888c17.996,1.599,31.704,5.84,41.131,12.707
		c9.422,6.864,14.143,15.976,14.143,27.353c0,9.991-3.473,19.282-10.414,27.871c-6.941,8.578-16.713,15.618-29.306,21.114
		c-5.748,2.52-11.808,4.597-18.191,6.238c-6.384,1.642-10.861,2.455-13.43,2.455c-0.519,0-0.903-0.303-1.155-0.914
		c-0.262-0.608-0.391-1.478-0.391-2.632c0-0.533,3.002-1.463,8.997-2.804c6.002-1.337,11.486-3.036,16.458-5.093
		c9.678-3.968,17.369-9.732,23.069-17.28c5.698-7.554,8.545-15.719,8.545-24.501c0-9.681-3.271-17.102-9.823-22.255
		c-6.558-5.145-16.097-7.723-28.605-7.723c-0.596,0-1.758,0.06-3.469,0.166c-1.718,0.119-3.987,0.29-6.816,0.517l-1.798-1.6
		c1.2-3.131,3.814-10.797,7.842-23c4.025-12.212,8.053-21.985,12.082-29.309h13.239c4.371,0,9.083,0.153,14.141,0.459
		c5.049,0.307,7.878,0.461,8.479,0.461c5.231,0,9.043-1.546,11.443-4.639c2.395-3.087,4.024-4.631,4.883-4.631
		c0.689,0,1.433,0.188,2.25,0.566c0.816,0.389,1.217,0.804,1.217,1.26c0,0.228-1.497,2.521-4.495,6.87
		C74.753,18.278,72.098,22.941,69.783,27.898"/>
	<polygon fill="#FFFFFF" points="168.859,19.115 168.859,32.637 163.479,32.637 163.479,19.115 150.7,19.115 150.7,13.74 
		163.479,13.74 163.479,0.22 168.859,0.22 168.859,13.74 181.642,13.74 181.642,19.115 	"/>
	<path fill="#FFFFFF" d="M121.151,12.981c-27.146,0-49.158,22.013-49.158,49.159c0,27.15,22.012,49.159,49.158,49.159
		c27.152,0,49.163-22.009,49.163-49.159C170.314,34.994,148.303,12.981,121.151,12.981z M102.938,57.018
		c0,0.494-0.058,0.962-0.157,1.412c-0.352,1.609-1.322,2.945-2.936,3.999c-2.273,1.495-4.966,2.242-8.075,2.242
		c-0.312,0-0.583-0.006-0.821-0.028v-0.001l0,0l0.292-1.28l0.292-1.281c0.478,0.006,0.93-0.017,1.359-0.066
		c1.286-0.15,2.353-0.549,3.205-1.2c0.175-0.132,0.311-0.285,0.459-0.433c0.814-0.809,1.244-1.823,1.244-3.076
		c0-1.457-0.595-2.47-1.795-3.031c-0.236-0.11-0.552-0.194-0.909-0.265c-0.594-0.116-1.336-0.183-2.267-0.183h-1.135l-3.083,13.363
		h0v0.001h-0.021c-0.013,0.062-0.035,0.126-0.05,0.188c-0.212,0.9-0.607,1.845-1.216,2.742c-0.175,0.258-0.361,0.501-0.554,0.729
		c-1.351,1.599-3.081,2.477-4.483,2.341l0,0c0,0,0,0-0.001,0l5.097-22.119h6.23c1.923,0,3.528,0.183,4.812,0.545
		c0.771,0.218,1.426,0.499,1.965,0.846C102.089,53.563,102.938,55.083,102.938,57.018C102.938,57.017,102.938,57.017,102.938,57.018
		L102.938,57.018z M103.324,72.842l4.902-21.302h4.754l-4.262,18.685h3.471c0,0,0.268,0.006,0.403,0h0.738
		c2.066,0.115,3.744,1.2,4.102,2.617H103.324z M138.768,67.772c-0.388,0.782-0.921,1.507-1.587,2.187
		c-0.158,0.161-0.316,0.322-0.49,0.478c-0.655,0.589-1.385,1.073-2.174,1.474c-1.688,0.857-3.674,1.296-5.967,1.296
		c-2.251,0-4.051-0.417-5.451-1.208c-0.182-0.103-0.381-0.188-0.549-0.305c-1.459-1.001-2.189-2.368-2.189-4.117
		c0-0.5,0.065-1.159,0.195-1.976c0.002-0.011,0.003-0.021,0.005-0.031c0-0.002,0-0.005,0.001-0.007
		c0.085-0.532,0.2-1.138,0.338-1.802c0.078-0.373,0.161-0.76,0.256-1.176l2.526-11.045h0l0,0h4.756l0,0l0,0l-2.605,11.352
		c-0.43,1.863-0.64,3.196-0.64,3.983c0,0.644,0.165,1.197,0.46,1.674c0.168,0.272,0.369,0.526,0.634,0.741
		c0.493,0.411,1.112,0.67,1.839,0.802c0.344,0.063,0.705,0.104,1.103,0.104c1.077,0,2.014-0.194,2.824-0.563
		c0.987-0.448,1.783-1.159,2.373-2.152c0.655-1.073,1.187-2.522,1.585-4.348l1.429-6.27l0.421-1.851
		c0.042-0.179,0.107-0.349,0.171-0.519c0.393-1.049,1.182-1.915,2.204-2.433c0.648-0.328,1.383-0.522,2.168-0.522
		c0.092,0,0.18,0.01,0.268,0.017c0.078,0.007,0.157,0.01,0.236,0.015v0.001h0l-1.373,5.901l-1.373,5.901
		c-0.261,1.136-0.526,2.085-0.796,2.886C139.17,66.849,138.97,67.366,138.768,67.772z M152.851,60.061
		c0.168,0.199,0.62,0.664,1.355,1.399c0.245,0.245,0.522,0.52,0.83,0.824c0,0,0,0,0,0.001c0,0,0,0,0,0
		c0.004,0.004,0.008,0.009,0.013,0.013c1.701,1.617,2.552,3.19,2.552,4.73c0,0.282-0.026,0.553-0.065,0.818
		c-0.173,1.181-0.731,2.197-1.669,3.05c-0.231,0.21-0.477,0.414-0.754,0.604c-1.662,1.14-3.81,1.706-6.445,1.706
		c-2.77,0-5.08-0.682-6.941-2.044l1.922-2.281c1.706,1.099,3.279,1.649,4.714,1.649c1.229,0,2.25-0.306,3.05-0.914
		c0.811-0.609,1.211-1.382,1.211-2.314c0-0.497-0.142-1.027-0.425-1.59c-0.284-0.563-0.708-1.159-1.272-1.788
		c-0.025-0.018-0.882-0.877-2.564-2.589c-1.686-1.698-2.524-3.251-2.524-4.652l0,0c0-0.001,0-0.001,0-0.001
		c0-0.249,0.025-0.488,0.063-0.724c0.156-0.981,0.642-1.843,1.455-2.585c0.246-0.225,0.513-0.441,0.82-0.645
		c1.556-1.036,3.531-1.555,5.919-1.555c1.907,0,3.637,0.434,5.216,1.251c0.233,0.121,0.474,0.226,0.7,0.364l0,0
		c0,0.001,0,0.001,0,0.001l-0.815,0.803l-1.218,1.201c-1.232-0.669-2.359-1.003-3.392-1.003c-0.881,0-1.626,0.151-2.237,0.452
		c-0.191,0.095-0.371,0.202-0.536,0.326c-0.154,0.114-0.284,0.239-0.403,0.369c-0.418,0.456-0.634,1.006-0.634,1.657
		C150.777,57.339,151.468,58.497,152.851,60.061z"/>
</g>
</svg>
