<?xml version="1.0" encoding="utf-8"?>
<!-- Generator: Adobe Illustrator 26.5.0, SVG Export Plug-In . SVG Version: 6.00 Build 0)  -->
<svg version="1.1" id="_圖層_1" xmlns="http://www.w3.org/2000/svg" xmlns:xlink="http://www.w3.org/1999/xlink" x="0px" y="0px"
	 viewBox="0 0 452 155.3" style="enable-background:new 0 0 452 155.3;" xml:space="preserve">
<style type="text/css">
	.st0{fill:#FFFFFF;}
	.st1{fill:#231815;}
	.st2{enable-background:new    ;}
</style>
<path class="st1" d="M79.3,34.2C73.5,33.5,68.1,33,63,32.7s-9.5-0.5-13.4-0.5c-6.5,0-10.6,1.2-12.5,3.4s-4.6,9.7-8.1,22.2
	c17.4,1.5,30.7,5.7,39.8,12.3s13.7,15.5,13.7,26.5c0,9.7-3.4,18.7-10.1,27S56.2,138.7,44,144c-5.6,2.4-11.4,4.4-17.6,6
	s-10.5,2.4-13,2.4c-0.5,0-0.9-0.3-1.1-0.9s-0.4-1.4-0.4-2.6c0-0.5,2.9-1.4,8.7-2.7s11.1-2.9,15.9-4.9c9.4-3.8,16.8-9.4,22.3-16.7
	s8.3-15.2,8.3-23.7c0-9.4-3.2-16.6-9.5-21.6S42,71.8,29.9,71.8c-0.6,0-1.7,0.1-3.4,0.2s-3.9,0.3-6.6,0.5l-1.7-1.6
	c1.2-3,3.7-10.5,7.6-22.3s7.8-21.3,11.7-28.4h12.8c4.2,0,8.8,0.1,13.7,0.4s7.6,0.4,8.2,0.4c5.1,0,8.8-1.5,11.1-4.5S87.2,12,88,12
	c0.7,0,1.4,0.2,2.2,0.6c0.8,0.4,1.2,0.8,1.2,1.2c0,0.2-1.4,2.4-4.4,6.6C84,24.9,81.5,29.4,79.3,34.2L79.3,34.2z"/>
<path class="st1" d="M175.2,25.7v13.1H170V25.7h-12.4v-5.2H170V7.4h5.2v13.1h12.4v5.2H175.2z"/>
<path class="st1" d="M129,19.8c-26.3,0-47.6,21.3-47.6,47.6S102.7,115,129,115s47.6-21.3,47.6-47.6S155.3,19.8,129,19.8z"/>
<path class="st0" d="M166.6,58.3l-2,2c-1.2-0.7-2.3-1-3.3-1c-1.1,0-2,0.2-2.7,0.8c-0.7,0.5-1,1.2-1,2c0,0.7,0.7,1.8,2,3.4
	c0.2,0.3,0.9,1,2.1,2.2c1.6,1.6,2.5,3.1,2.5,4.6c0,1.8-0.8,3.2-2.4,4.3c-1.6,1.1-3.7,1.7-6.2,1.7s-4.9-0.7-6.7-2l1.9-2.2
	c1.7,1.1,3.2,1.6,4.6,1.6c1.2,0,2.2-0.3,3-0.9s1.2-1.3,1.2-2.2c0-1-0.5-2.1-1.6-3.3c0,0-0.9-0.8-2.5-2.5s-2.4-3.1-2.4-4.5
	c0-1.5,0.8-2.8,2.3-3.8s3.4-1.5,5.7-1.5C163,56.8,164.9,57.3,166.6,58.3L166.6,58.3z"/>
<path class="st0" d="M108.9,58c-1.4-0.9-3.6-1.3-6.6-1.3h-6l-4.9,21.4c1.5,0.2,3.5-1,4.9-3c0.6-0.9,1-1.9,1.2-2.8l0,0l3-12.9h1.1
	c1.4,0,2.5,0.1,3.1,0.4c1.2,0.5,1.8,1.5,1.8,2.9s-0.6,2.6-1.7,3.4s-2.6,1.2-4.4,1.2l-0.6,2.5c0.2,0,0.5,0,0.8,0c3,0,5.6-0.7,7.8-2.2
	c2-1.3,3-3.1,3-5.2C111.4,60.6,110.5,59.1,108.9,58L108.9,58z"/>
<path class="st0" d="M121.4,75.2h-0.7c-0.1,0-0.4,0-0.4,0h-3.4l4.1-18.1h-4.5l-4.8,20.7h13.7C125.1,76.4,123.4,75.3,121.4,75.2
	L121.4,75.2z"/>
<path class="st0" d="M149.6,57.1c-2.1,0-3.9,1.4-4.4,3.4l-1.8,7.9c-0.4,1.8-0.9,3.2-1.5,4.2c-1,1.8-2.7,2.6-5,2.6
	c-1.2,0-2.1-0.3-2.9-0.9c-0.7-0.6-1.1-1.4-1.1-2.3c0-0.8,0.2-2.1,0.6-3.9l2.5-11h-4.5L129,67.8c-0.5,2.2-0.8,3.9-0.8,4.8
	c0,1.7,0.7,3,2.1,4c1.4,1,3.3,1.5,5.8,1.5c3.3,0,5.9-0.9,7.9-2.7c0.9-0.8,1.5-1.6,2-2.6c0.5-0.9,0.9-2.3,1.4-4.3l2.7-11.4
	C149.9,57.1,149.8,57.1,149.6,57.1L149.6,57.1z"/>
<path class="st1" d="M203.8,123.1c6.3-4.5,12.7-9.9,17.2-15.5l2.6-29.2h-13.9l0.6-6.4h26.5l-3,34.8c6.1,8.7,16,9.5,31,9.7
	c17.4,0.1,40-1.4,55.5-3.4l-5.7,13.4c-14,0.9-35.1,1-50.3,0.4c-23.4-1-31.9-6.3-36.1-16.9c-4.8,8.5-10.1,15.5-16.5,21.9L203.8,123.1
	z M213.9,44.9l3.1-4.4c6.6,3,15.8,8.8,22.4,14.9l-9.6,9.8C225.8,59.2,219.3,50.6,213.9,44.9z M220.6,19.3l3-4.1
	c6.9,2.6,16,8,22.2,13.8l-9.5,9.7C232,32.6,226.4,25.4,220.6,19.3z M237.9,106.9c5.8-11.5,7.2-22.6,9.6-49.4l3.3-38h69.1l-6.9,79
	c-1,11.8-12.8,14.2-29.3,5.9l1.7-4.6c13.7,2,15.8,0.9,16.3-4.3l6.1-69.6h-45.6l-2.7,31c-2.3,26.7-4.8,40.1-17.2,53L237.9,106.9z
	 M263.7,68.7H298l-2.3,25.8h-34.4L263.7,68.7z M262.6,55.8h13.5L277,46h-11.8l0.5-6.3h11.8l0.9-10.2h11.3l-0.9,10.2h12.3l-0.5,6.3
	h-12.3l-0.9,9.8h14l-0.5,6.3H262L262.6,55.8z M285.8,88.5l1.2-13.8h-13.4l-1.2,13.8H285.8z"/>
<path class="st1" d="M361.6,71.6h-26l0.6-6.4h26l3.1-35.7h-22.7l0.6-6.4h58.5l-0.6,6.4h-22.3l-3.1,35.7h25.7l-0.6,6.4h-25.7
	l-5.2,59.7h-13.5L361.6,71.6z M399.8,119.5c20.8,2.8,23.6,1.6,24.2-6l8.6-98h12.8l-8.8,101c-1.4,16.2-15.9,19.4-38.4,8L399.8,119.5z
	 M408.8,23.8h11.8l-6.6,76h-11.9L408.8,23.8z"/>
</svg>
