<svg width="188" height="142" viewBox="0 0 188 142" fill="none" xmlns="http://www.w3.org/2000/svg">
<path d="M110.36 79.1C78.64 78.83 43.49 79.97 20.99 105.04C12.22 114.8 5.83005 127.22 1.89005 139.81C1.21005 141.983 0.880027 141.93 0.900027 139.65C1.25003 101.59 9.63004 59.14 45.54 38.79C64.67 27.95 88.3 24.63 110.27 24.92C110.717 24.9266 110.94 24.7066 110.94 24.26L110.97 0.519967C110.969 0.458262 110.986 0.397834 111.018 0.345116C111.05 0.292399 111.096 0.249377 111.151 0.220635C111.207 0.191894 111.27 0.178511 111.333 0.181916C111.396 0.185322 111.457 0.205384 111.51 0.239968L186.94 51.53C187.012 51.5784 187.071 51.6439 187.112 51.7207C187.153 51.7974 187.175 51.883 187.175 51.97C187.175 52.0569 187.153 52.1425 187.112 52.2193C187.071 52.296 187.012 52.3615 186.94 52.41L111.49 103.7C111.436 103.739 111.372 103.762 111.305 103.767C111.238 103.771 111.171 103.757 111.112 103.726C111.053 103.695 111.004 103.648 110.97 103.59C110.936 103.533 110.919 103.467 110.92 103.4L110.97 79.73C110.97 79.3166 110.767 79.1066 110.36 79.1Z" fill="black"/>
</svg>
