<svg xmlns="http://www.w3.org/2000/svg" width="75" height="38" fill="none"><g clip-path="url(#a)"><rect width="75" height="38" fill="#D85E2D" rx="19"/><path fill="#fff" d="M17.264 26V11.454h9.63v2.536H20.34v3.466h5.916v2.535H20.34V26h-3.076Zm11.467 0V15.09h2.933v1.904h.114c.199-.677.532-1.188 1.001-1.534a2.632 2.632 0 0 1 1.62-.525 4.56 4.56 0 0 1 .951.106v2.685a3.946 3.946 0 0 0-.59-.114 5.304 5.304 0 0 0-.688-.05 2.42 2.42 0 0 0-1.193.292c-.346.19-.62.454-.824.795a2.296 2.296 0 0 0-.299 1.18V26h-3.025Zm12.647.213c-1.122 0-2.088-.227-2.898-.682a4.668 4.668 0 0 1-1.86-1.946c-.436-.843-.654-1.84-.654-2.99 0-1.122.218-2.107.654-2.954a4.83 4.83 0 0 1 1.84-1.982c.795-.473 1.727-.71 2.797-.71.72 0 1.39.116 2.01.348.625.227 1.17.57 1.634 1.03.469.459.833 1.037 1.094 1.733.26.69.39 1.5.39 2.429v.83h-9.211v-1.874h6.363c0-.436-.094-.822-.284-1.158a2.035 2.035 0 0 0-.788-.788 2.248 2.248 0 0 0-1.158-.292c-.46 0-.866.107-1.221.32a2.24 2.24 0 0 0-.824.845c-.2.35-.3.741-.306 1.172v1.783c0 .54.1 1.006.299 1.399.203.393.49.696.859.909.37.213.807.32 1.314.32.336 0 .644-.048.923-.142.28-.095.519-.237.718-.427.198-.189.35-.421.454-.696l2.798.185a3.822 3.822 0 0 1-.873 1.761c-.436.498-1 .886-1.69 1.165-.687.275-1.48.412-2.38.412Zm11.953 0c-1.122 0-2.088-.227-2.897-.682a4.669 4.669 0 0 1-1.861-1.946c-.436-.843-.654-1.84-.654-2.99 0-1.122.218-2.107.654-2.954a4.83 4.83 0 0 1 1.84-1.982c.795-.473 1.728-.71 2.798-.71.72 0 1.39.116 2.01.348.625.227 1.169.57 1.633 1.03.469.459.833 1.037 1.094 1.733.26.69.39 1.5.39 2.429v.83h-9.211v-1.874h6.363c0-.436-.094-.822-.284-1.158a2.036 2.036 0 0 0-.788-.788 2.25 2.25 0 0 0-1.158-.292c-.459 0-.866.107-1.221.32a2.24 2.24 0 0 0-.824.845c-.199.35-.3.741-.306 1.172v1.783c0 .54.1 1.006.299 1.399.203.393.49.696.86.909.368.213.806.32 1.313.32.336 0 .644-.048.923-.142a1.842 1.842 0 0 0 1.172-1.123l2.799.185a3.82 3.82 0 0 1-.874 1.761c-.436.498-1 .886-1.69 1.165-.687.275-1.48.412-2.38.412Z"/></g><defs><clipPath id="a"><path fill="#fff" d="M0 0h75v38H0z"/></clipPath></defs></svg>