<svg xmlns="http://www.w3.org/2000/svg" width="100" height="100" fill="none"><path fill="#D85E2D" fill-rule="evenodd" d="M31.78 15.297c8.12 0 15.04 3.284 18.147 6.956 3.142-3.672 10.027-6.956 18.148-6.956 10.874 0 19.595 5.614 21.925 10.945v52.996c0 3.46-2.26 4.802-4.766 4.802-1.872 0-2.93-.565-4.131-1.448-2.33-1.906-6.32-4.201-13.028-4.201-6.744 0-11.193 2.365-13.382 3.99l-.076.05c-1.145.764-2.41 1.609-4.69 1.609-2.33 0-3.637-.812-4.767-1.66-2.047-1.73-6.637-3.99-13.38-3.99-6.71 0-10.628 2.26-13.03 4.202-1.2.883-2.259 1.448-4.13 1.448-2.507 0-4.766-1.342-4.766-4.802V26.242c2.33-5.33 11.086-10.945 21.925-10.945ZM17.514 28.68c.953-2.33 6.179-6.285 14.264-6.285 8.085 0 13.487 3.99 14.335 6.285 0 0 .563 2.017 3.813 2.017s3.813-2.017 3.813-2.017c.847-2.295 6.25-6.285 14.334-6.285 8.086 0 13.311 3.954 14.264 6.285v46.675c-3.566-2.719-8.72-4.13-14.263-4.13-5.508 0-10.699 1.411-14.335 4.024 0 0-1.903 2.315-3.813 2.315-1.91 0-3.813-2.315-3.813-2.315-3.637-2.613-8.827-4.025-14.335-4.025-5.543 0-10.698 1.412-14.264 4.131V28.68Z" clip-rule="evenodd"/><path fill="#D85E2D" d="M60.872 47.278 41.592 35.72c-1.606-.96-3.619.238-3.619 2.165V61c0 1.928 2.005 3.126 3.618 2.166l19.281-11.557c1.606-.96 1.606-3.37 0-4.33Z"/></svg>