<svg xmlns="http://www.w3.org/2000/svg" width="28" height="28" fill="none"><path fill="#1C1C1E" d="M9.324 21.371c.37 0 .695-.132 1.099-.369l10.38-6.003c.756-.44 1.072-.782 1.072-1.336s-.316-.888-1.072-1.336l-10.38-6.003c-.404-.237-.73-.369-1.099-.369-.72 0-1.23.554-1.23 1.424v12.568c0 .88.51 1.424 1.23 1.424Zm.65-2.18c-.043 0-.078-.043-.078-.105V8.24c0-.07.035-.105.079-.105.035 0 .07.017.105.044l9.334 5.387c.035.027.07.053.07.097 0 .044-.035.07-.07.097l-9.334 5.388a.183.183 0 0 1-.105.043Z"/></svg>