<svg xmlns="http://www.w3.org/2000/svg" width="28" height="28" fill="none"><path fill="#1C1C1E" d="M9.544 17.416h2.496a.28.28 0 0 1 .193.07l3.85 3.446c.457.413.809.606 1.274.606.66 0 1.152-.492 1.152-1.143V6.975c0-.66-.492-1.187-1.16-1.187-.457 0-.774.202-1.266.65l-3.85 3.42a.278.278 0 0 1-.193.07H9.544c-1.292 0-1.96.685-1.96 2.056v3.375c0 1.38.668 2.057 1.96 2.057Zm.158-1.573c-.29 0-.43-.14-.43-.43V11.94c0-.298.14-.439.43-.439h2.742a.84.84 0 0 0 .624-.228l3.49-3.191a.23.23 0 0 1 .149-.061c.062 0 .114.043.114.123v11.03c0 .088-.052.132-.114.132a.187.187 0 0 1-.14-.062l-3.499-3.173c-.202-.184-.386-.228-.624-.228H9.702Z"/></svg>