<svg xmlns="http://www.w3.org/2000/svg" width="28" height="28" fill="none"><path fill="#1C1C1E" d="M5.738 17.416h2.488c.07 0 .14.018.193.07l3.858 3.446c.457.413.809.606 1.275.606.65 0 1.142-.492 1.142-1.143V6.975c0-.66-.492-1.187-1.16-1.187-.448 0-.764.202-1.257.65L8.42 9.858a.264.264 0 0 1-.193.07H5.738c-1.3 0-1.96.685-1.96 2.056v3.375c0 1.38.668 2.057 1.96 2.057Zm15.487 2.514a.848.848 0 0 0 1.177-.255c1.143-1.617 1.81-3.788 1.81-6.02 0-2.233-.658-4.413-1.81-6.021-.28-.413-.773-.51-1.177-.255-.422.264-.484.79-.167 1.257.931 1.37 1.467 3.155 1.467 5.018 0 1.855-.544 3.639-1.467 5.019-.308.466-.255.984.167 1.257ZM5.896 15.843c-.29 0-.43-.14-.43-.43V11.94c0-.298.14-.439.43-.439H8.64c.237 0 .413-.044.615-.228l3.498-3.191c.044-.035.088-.061.14-.061.07 0 .124.043.124.123v11.03c0 .088-.053.132-.115.132a.22.22 0 0 1-.149-.062l-3.498-3.173c-.202-.184-.378-.228-.615-.228H5.896Zm11.795 1.731a.826.826 0 0 0 1.143-.228c.712-.95 1.134-2.294 1.134-3.692 0-1.397-.422-2.733-1.134-3.691a.816.816 0 0 0-1.143-.22c-.43.281-.518.8-.167 1.31.484.694.756 1.626.756 2.601 0 .976-.281 1.899-.756 2.602-.342.51-.263 1.028.167 1.318Z"/></svg>